M48
INCH
T1C0.0118
T2C0.0157
T3C0.0315
T4C0.0394
T5C0.0669
%
G90
G05
T1
X11.53Y-5.57
X11.79Y-5.8
X11.8491Y-5.8013
X11.86Y-6.15
X11.965Y-6.2177
X11.965Y-6.3177
X11.965Y-6.5177
X11.965Y-6.6177
X11.9675Y-6.718
X12.01Y-5.6175
X12.01Y-5.6825
X12.08Y-5.58
X12.08Y-5.62
X12.1151Y-5.5843
X12.1481Y-5.5821
X12.15Y-5.68
X12.16Y-5.39
X12.16Y-5.43
X12.16Y-5.91
X12.18Y-6.12
X12.2Y-5.39
X12.2Y-5.43
X12.22Y-5.6156
X12.24Y-5.39
X12.24Y-5.43
X12.25Y-5.74
X12.26Y-5.58
X12.28Y-5.39
X12.28Y-5.43
X12.29Y-5.6156
X12.32Y-5.58
X12.32Y-5.73
X12.32Y-5.79
X12.3517Y-5.5805
X12.38Y-5.36
X12.39Y-5.75
X12.39Y-5.84
X12.4164Y-5.55
X12.44Y-5.59
X12.4504Y-5.9084
X12.46Y-5.74
X12.4617Y-6.07
X12.4617Y-6.1015
X12.4847Y-5.9084
X12.49Y-5.98
X12.4982Y-6.1872
X12.5Y-5.58
X12.51Y-6.13
X12.5166Y-6.0634
X12.52Y-6.22
X12.5475Y-5.46
X12.58Y-5.3
X12.58Y-5.49
X12.6014Y-6.7177
X12.6017Y-5.54
X12.66Y-5.97
X12.68Y-6.0
X12.7Y-6.28
X12.71Y-6.04
X12.77Y-6.31
X12.81Y-6.31
X12.8322Y-6.09
X12.88Y-5.73
X12.88Y-6.31
X12.9229Y-6.09
X12.93Y-6.3
X12.9836Y-6.24
X13.06Y-6.16
X13.07Y-6.09
T2
X12.01Y-5.38
X12.11Y-5.23
X12.33Y-5.23
T3
X12.47Y-5.14
X12.544Y-5.1669
X12.618Y-5.1939
X12.692Y-5.2208
X13.06Y-5.6738
X13.06Y-5.7525
X13.06Y-5.8313
X13.06Y-5.91
T4
X11.5Y-5.64
X11.5Y-5.74
X11.6Y-5.64
X11.6Y-5.74
X12.09Y-5.13
X12.19Y-5.13
X12.29Y-5.13
T5
X11.5418Y-6.1017
X11.59Y-6.25
M30
