%TF.GenerationSoftware,KiCad,Pcbnew,8.0.4*%
%TF.CreationDate,2025-06-19T10:40:25-04:00*%
%TF.ProjectId,foc_pcb,666f635f-7063-4622-9e6b-696361645f70,2.0*%
%TF.SameCoordinates,Original*%
%TF.FileFunction,Copper,L3,Inr*%
%TF.FilePolarity,Positive*%
%FSLAX46Y46*%
G04 Gerber Fmt 4.6, Leading zero omitted, Abs format (unit mm)*
G04 Created by KiCad (PCBNEW 8.0.4) date 2025-06-19 10:40:25*
%MOMM*%
%LPD*%
G01*
G04 APERTURE LIST*
G04 Aperture macros list*
%AMRoundRect*
0 Rectangle with rounded corners*
0 $1 Rounding radius*
0 $2 $3 $4 $5 $6 $7 $8 $9 X,Y pos of 4 corners*
0 Add a 4 corners polygon primitive as box body*
4,1,4,$2,$3,$4,$5,$6,$7,$8,$9,$2,$3,0*
0 Add four circle primitives for the rounded corners*
1,1,$1+$1,$2,$3*
1,1,$1+$1,$4,$5*
1,1,$1+$1,$6,$7*
1,1,$1+$1,$8,$9*
0 Add four rect primitives between the rounded corners*
20,1,$1+$1,$2,$3,$4,$5,0*
20,1,$1+$1,$4,$5,$6,$7,0*
20,1,$1+$1,$6,$7,$8,$9,0*
20,1,$1+$1,$8,$9,$2,$3,0*%
%AMHorizOval*
0 Thick line with rounded ends*
0 $1 width*
0 $2 $3 position (X,Y) of the first rounded end (center of the circle)*
0 $4 $5 position (X,Y) of the second rounded end (center of the circle)*
0 Add line between two ends*
20,1,$1,$2,$3,$4,$5,0*
0 Add two circle primitives to create the rounded ends*
1,1,$1,$2,$3*
1,1,$1,$4,$5*%
%AMRotRect*
0 Rectangle, with rotation*
0 The origin of the aperture is its center*
0 $1 length*
0 $2 width*
0 $3 Rotation angle, in degrees counterclockwise*
0 Add horizontal line*
21,1,$1,$2,0,0,$3*%
G04 Aperture macros list end*
%TA.AperFunction,ComponentPad*%
%ADD10RoundRect,0.250001X-1.386080X0.706243X-0.706243X-1.386080X1.386080X-0.706243X0.706243X1.386080X0*%
%TD*%
%TA.AperFunction,ComponentPad*%
%ADD11C,2.700000*%
%TD*%
%TA.AperFunction,ComponentPad*%
%ADD12R,1.700000X1.700000*%
%TD*%
%TA.AperFunction,ComponentPad*%
%ADD13O,1.700000X1.700000*%
%TD*%
%TA.AperFunction,ComponentPad*%
%ADD14R,1.350000X1.350000*%
%TD*%
%TA.AperFunction,ComponentPad*%
%ADD15O,1.350000X1.350000*%
%TD*%
%TA.AperFunction,ComponentPad*%
%ADD16RotRect,1.350000X1.350000X250.000000*%
%TD*%
%TA.AperFunction,ComponentPad*%
%ADD17HorizOval,1.350000X0.000000X0.000000X0.000000X0.000000X0*%
%TD*%
%TA.AperFunction,ViaPad*%
%ADD18C,0.600000*%
%TD*%
%TA.AperFunction,ViaPad*%
%ADD19C,0.800000*%
%TD*%
G04 APERTURE END LIST*
D10*
%TO.N,GND*%
%TO.C,J2*%
X293162292Y-154983815D03*
D11*
%TO.N,VCC*%
X294386000Y-158750000D03*
%TD*%
D12*
%TO.N,/out1*%
%TO.C,J1*%
X312166000Y-130302000D03*
D13*
%TO.N,/out2*%
X309626001Y-130302000D03*
%TO.N,/out3*%
X307086001Y-130302000D03*
%TD*%
D14*
%TO.N,GND*%
%TO.C,J4*%
X331724000Y-150114000D03*
D15*
%TO.N,+3.3V*%
X331724000Y-148113999D03*
%TO.N,/sda*%
X331724000Y-146114000D03*
%TO.N,/scl*%
X331724000Y-144114000D03*
%TD*%
D16*
%TO.N,GND*%
%TO.C,J5*%
X322376156Y-132608121D03*
D17*
%TO.N,unconnected-(J5-Pin_2-Pad2)*%
X320496771Y-131924081D03*
%TO.N,/esp_sda*%
X318617386Y-131240039D03*
%TO.N,/esp_scl*%
X316738000Y-130556000D03*
%TD*%
D12*
%TO.N,GND*%
%TO.C,J3*%
X294640000Y-145796000D03*
D13*
X292100000Y-145796000D03*
%TO.N,+5V*%
X294640000Y-143256000D03*
%TO.N,+3.3V*%
X292100000Y-143256000D03*
%TD*%
D18*
%TO.N,GND*%
X331724000Y-156464000D03*
X315976000Y-141986000D03*
X311912000Y-136906000D03*
X308864000Y-137922000D03*
X310896000Y-136906000D03*
X306832000Y-142748000D03*
X309880000Y-137922000D03*
X314706000Y-148336000D03*
X310896000Y-137922000D03*
X303910517Y-168089833D03*
X309880000Y-136906000D03*
X308864000Y-136906000D03*
X327152000Y-145542000D03*
X311912000Y-137922000D03*
%TO.N,+3.3V*%
X309372000Y-155448000D03*
X318707000Y-138684000D03*
X292862000Y-141478000D03*
X328422000Y-160020000D03*
X308864000Y-150114000D03*
D19*
%TO.N,VCC*%
X305054000Y-136652000D03*
X307594000Y-132842000D03*
D18*
X308610000Y-144272000D03*
D19*
X313182000Y-132842000D03*
D18*
%TO.N,Net-(U1-VCP)*%
X317500000Y-141732000D03*
X314452000Y-136144000D03*
%TO.N,+5V*%
X325936903Y-154686336D03*
X299466000Y-147320000D03*
X327152000Y-160274000D03*
X305054000Y-142685000D03*
%TO.N,/v3p3*%
X329783903Y-158496618D03*
X316484000Y-145796000D03*
%TO.N,Net-(JP2-A)*%
X303973727Y-170635947D03*
X317754000Y-155702000D03*
X301244000Y-156210000D03*
%TO.N,Net-(JP3-A)*%
X303910517Y-165549833D03*
X322580000Y-159512000D03*
%TO.N,/sda*%
X317453299Y-157155948D03*
X331978000Y-154686000D03*
%TO.N,/scl*%
X328242000Y-154686000D03*
X318008000Y-157988000D03*
%TO.N,/nSlp*%
X307722741Y-141842095D03*
X312166000Y-142635000D03*
%TO.N,/fault*%
X313732478Y-141744677D03*
X308560481Y-141785001D03*
%TO.N,/nRes*%
X306832000Y-141732000D03*
X310388000Y-142635000D03*
%TO.N,/esp_sda*%
X303910517Y-160469833D03*
X322072000Y-152400000D03*
X320084000Y-140716000D03*
X316528000Y-154978003D03*
%TO.N,/esp_scl*%
X321564000Y-151638000D03*
X316528000Y-154178000D03*
X303910517Y-157929833D03*
X319532000Y-139446000D03*
%TO.N,/en*%
X320075517Y-170629833D03*
X319532000Y-134620000D03*
X322834000Y-153416000D03*
X317921647Y-154010353D03*
%TO.N,/in1*%
X315377500Y-140970000D03*
X317111881Y-150074001D03*
X314706000Y-146050000D03*
X317246000Y-151892000D03*
%TO.N,/in2*%
X312928000Y-145542000D03*
X312928000Y-141732000D03*
X325374000Y-160274000D03*
X316239323Y-150074000D03*
%TO.N,/in3*%
X324358000Y-160274000D03*
X311404000Y-141732000D03*
X311150000Y-145796000D03*
X312928000Y-147066000D03*
%TO.N,Net-(VR1-ADJUSTMENT)*%
X305054000Y-144335000D03*
X300966000Y-147352000D03*
%TD*%
%TA.AperFunction,Conductor*%
%TO.N,GND*%
G36*
X314289330Y-128930185D02*
G01*
X314294407Y-128930719D01*
X315224248Y-129048185D01*
X315229358Y-129048939D01*
X316153499Y-129205245D01*
X316158552Y-129206210D01*
X316274160Y-129230783D01*
X316335641Y-129263975D01*
X316369417Y-129325139D01*
X316364765Y-129394853D01*
X316323160Y-129450985D01*
X316293172Y-129467699D01*
X316211801Y-129499222D01*
X316211786Y-129499229D01*
X316026576Y-129613906D01*
X316026566Y-129613913D01*
X315865574Y-129760676D01*
X315734288Y-129934527D01*
X315637184Y-130129537D01*
X315577564Y-130339081D01*
X315557464Y-130555999D01*
X315557464Y-130556000D01*
X315577564Y-130772918D01*
X315577564Y-130772920D01*
X315577565Y-130772923D01*
X315637183Y-130982459D01*
X315637184Y-130982462D01*
X315710032Y-131128759D01*
X315734288Y-131177472D01*
X315857395Y-131340493D01*
X315865574Y-131351323D01*
X315912748Y-131394328D01*
X316026568Y-131498088D01*
X316026575Y-131498092D01*
X316026576Y-131498093D01*
X316211786Y-131612770D01*
X316211792Y-131612773D01*
X316234664Y-131621633D01*
X316414931Y-131691470D01*
X316629074Y-131731500D01*
X316629076Y-131731500D01*
X316846924Y-131731500D01*
X316846926Y-131731500D01*
X317061069Y-131691470D01*
X317264210Y-131612772D01*
X317326165Y-131574410D01*
X317393525Y-131555854D01*
X317460225Y-131576662D01*
X317505086Y-131630227D01*
X317510709Y-131645903D01*
X317516569Y-131666499D01*
X317536815Y-131707158D01*
X317613674Y-131861511D01*
X317744959Y-132035361D01*
X317905954Y-132182127D01*
X317905961Y-132182131D01*
X317905962Y-132182132D01*
X318091172Y-132296809D01*
X318091178Y-132296812D01*
X318114050Y-132305672D01*
X318294317Y-132375509D01*
X318508460Y-132415539D01*
X318508462Y-132415539D01*
X318726310Y-132415539D01*
X318726312Y-132415539D01*
X318940455Y-132375509D01*
X319143596Y-132296811D01*
X319205551Y-132258450D01*
X319272909Y-132239894D01*
X319339608Y-132260702D01*
X319384470Y-132314267D01*
X319390092Y-132329939D01*
X319395952Y-132350534D01*
X319395958Y-132350550D01*
X319447335Y-132453727D01*
X319493059Y-132545553D01*
X319624344Y-132719403D01*
X319785339Y-132866169D01*
X319785346Y-132866173D01*
X319785347Y-132866174D01*
X319970557Y-132980851D01*
X319970563Y-132980854D01*
X319970584Y-132980862D01*
X320173702Y-133059551D01*
X320387845Y-133099581D01*
X320387847Y-133099581D01*
X320605695Y-133099581D01*
X320605697Y-133099581D01*
X320819840Y-133059551D01*
X320859176Y-133044311D01*
X320928796Y-133038449D01*
X320990537Y-133071157D01*
X321022665Y-133124060D01*
X321053185Y-133225030D01*
X321053185Y-133225031D01*
X321131873Y-133345363D01*
X321131876Y-133345367D01*
X321241279Y-133438655D01*
X321295044Y-133465036D01*
X321739357Y-133626753D01*
X322034388Y-132816163D01*
X322056076Y-132853727D01*
X322130550Y-132928201D01*
X322221762Y-132980862D01*
X322323495Y-133008121D01*
X322428817Y-133008121D01*
X322503938Y-132987992D01*
X322209205Y-133797764D01*
X322653512Y-133959480D01*
X322711667Y-133973831D01*
X322855434Y-133972692D01*
X322855441Y-133972691D01*
X322993065Y-133931091D01*
X322993066Y-133931091D01*
X323113398Y-133852403D01*
X323113402Y-133852400D01*
X323206690Y-133742997D01*
X323233073Y-133689230D01*
X323233073Y-133689229D01*
X323394789Y-133244918D01*
X322584200Y-132949887D01*
X322621762Y-132928201D01*
X322696236Y-132853727D01*
X322748897Y-132762515D01*
X322776156Y-132660782D01*
X322776156Y-132555460D01*
X322756027Y-132480337D01*
X323565799Y-132775070D01*
X323727511Y-132330774D01*
X323728251Y-132328343D01*
X323728577Y-132327845D01*
X323728653Y-132327638D01*
X323728702Y-132327655D01*
X323766592Y-132269933D01*
X323830426Y-132241524D01*
X323899485Y-132252136D01*
X323911116Y-132258360D01*
X323993655Y-132308347D01*
X323998010Y-132311110D01*
X324778665Y-132829777D01*
X324782893Y-132832716D01*
X325541107Y-133383590D01*
X325545244Y-133386730D01*
X326279722Y-133968871D01*
X326283724Y-133972182D01*
X326993164Y-134584553D01*
X326997022Y-134588026D01*
X327680225Y-135229597D01*
X327683914Y-135233209D01*
X328339662Y-135902838D01*
X328343191Y-135906596D01*
X328655392Y-136253330D01*
X328970295Y-136603065D01*
X328973689Y-136606996D01*
X329571096Y-137329137D01*
X329574322Y-137333208D01*
X330140940Y-138079699D01*
X330143993Y-138083901D01*
X330231154Y-138209309D01*
X330544830Y-138660631D01*
X330678857Y-138853470D01*
X330681731Y-138857796D01*
X331183918Y-139649117D01*
X331186608Y-139653559D01*
X331655196Y-140465177D01*
X331657698Y-140469728D01*
X332091890Y-141300259D01*
X332094200Y-141304911D01*
X332493249Y-142152934D01*
X332495361Y-142157679D01*
X332858532Y-143021630D01*
X332860444Y-143026459D01*
X333187125Y-143904877D01*
X333188833Y-143909782D01*
X333478442Y-144801106D01*
X333479943Y-144806078D01*
X333731970Y-145708739D01*
X333733262Y-145713769D01*
X333947271Y-146626201D01*
X333948351Y-146631282D01*
X334123965Y-147551883D01*
X334124831Y-147557004D01*
X334261739Y-148484139D01*
X334262390Y-148489292D01*
X334360354Y-149421365D01*
X334360788Y-149426540D01*
X334419634Y-150361859D01*
X334419852Y-150367048D01*
X334439479Y-151304048D01*
X334439479Y-151309242D01*
X334419852Y-152246241D01*
X334419634Y-152251430D01*
X334360788Y-153186749D01*
X334360354Y-153191924D01*
X334262390Y-154123997D01*
X334261739Y-154129150D01*
X334124831Y-155056285D01*
X334123965Y-155061406D01*
X333948351Y-155982007D01*
X333947271Y-155987088D01*
X333733262Y-156899520D01*
X333731970Y-156904550D01*
X333479943Y-157807211D01*
X333478442Y-157812183D01*
X333188833Y-158703507D01*
X333187125Y-158708412D01*
X332860444Y-159586830D01*
X332858532Y-159591659D01*
X332495361Y-160455610D01*
X332493249Y-160460355D01*
X332094200Y-161308378D01*
X332091890Y-161313030D01*
X331657698Y-162143561D01*
X331655196Y-162148112D01*
X331186608Y-162959730D01*
X331183918Y-162964172D01*
X330681731Y-163755493D01*
X330678857Y-163759819D01*
X330143993Y-164529388D01*
X330140940Y-164533590D01*
X329574322Y-165280081D01*
X329571096Y-165284152D01*
X328973689Y-166006293D01*
X328970295Y-166010224D01*
X328343204Y-166706679D01*
X328339649Y-166710465D01*
X327683925Y-167380069D01*
X327680214Y-167383703D01*
X326997024Y-168025261D01*
X326993164Y-168028736D01*
X326283724Y-168641107D01*
X326279722Y-168644418D01*
X325545244Y-169226559D01*
X325541107Y-169229699D01*
X324782911Y-169780560D01*
X324778647Y-169783524D01*
X323998025Y-170302169D01*
X323993639Y-170304952D01*
X323192007Y-170790437D01*
X323187509Y-170793034D01*
X322366241Y-171244530D01*
X322361639Y-171246936D01*
X321522188Y-171663643D01*
X321517488Y-171665855D01*
X320661298Y-172047055D01*
X320656510Y-172049067D01*
X319785157Y-172394060D01*
X319780290Y-172395871D01*
X318895219Y-172704086D01*
X318890279Y-172705691D01*
X317993068Y-172976575D01*
X317988065Y-172977971D01*
X317080326Y-173211038D01*
X317075270Y-173212224D01*
X316158576Y-173407074D01*
X316153474Y-173408048D01*
X315229372Y-173564348D01*
X315224234Y-173565106D01*
X314294451Y-173682565D01*
X314289286Y-173683108D01*
X313355374Y-173761530D01*
X313350191Y-173761856D01*
X312413828Y-173801102D01*
X312408635Y-173801211D01*
X311471431Y-173801211D01*
X311466238Y-173801102D01*
X310529874Y-173761856D01*
X310524691Y-173761530D01*
X309590779Y-173683108D01*
X309585614Y-173682565D01*
X308655831Y-173565106D01*
X308650693Y-173564348D01*
X307726591Y-173408048D01*
X307721489Y-173407074D01*
X306804795Y-173212224D01*
X306799739Y-173211038D01*
X305892000Y-172977971D01*
X305886997Y-172976575D01*
X304989786Y-172705691D01*
X304984859Y-172704090D01*
X304482083Y-172529005D01*
X304099775Y-172395871D01*
X304094908Y-172394060D01*
X303223555Y-172049067D01*
X303218767Y-172047055D01*
X302362577Y-171665855D01*
X302357877Y-171663643D01*
X301518437Y-171246941D01*
X301513835Y-171244535D01*
X300692547Y-170793028D01*
X300688049Y-170790431D01*
X300432958Y-170635943D01*
X303168162Y-170635943D01*
X303168162Y-170635950D01*
X303188357Y-170815196D01*
X303188358Y-170815201D01*
X303247938Y-170985470D01*
X303340069Y-171132095D01*
X303343911Y-171138209D01*
X303471465Y-171265763D01*
X303561807Y-171322529D01*
X303614474Y-171355622D01*
X303624205Y-171361736D01*
X303776999Y-171415201D01*
X303794472Y-171421315D01*
X303794477Y-171421316D01*
X303973723Y-171441512D01*
X303973727Y-171441512D01*
X303973731Y-171441512D01*
X304152976Y-171421316D01*
X304152979Y-171421315D01*
X304152982Y-171421315D01*
X304323249Y-171361736D01*
X304475989Y-171265763D01*
X304603543Y-171138209D01*
X304699516Y-170985469D01*
X304759095Y-170815202D01*
X304761593Y-170793034D01*
X304779292Y-170635950D01*
X304779292Y-170635943D01*
X304778603Y-170629829D01*
X319269952Y-170629829D01*
X319269952Y-170629836D01*
X319290147Y-170809082D01*
X319290148Y-170809087D01*
X319349728Y-170979356D01*
X319353570Y-170985470D01*
X319445701Y-171132095D01*
X319573255Y-171259649D01*
X319725995Y-171355622D01*
X319896262Y-171415201D01*
X319896267Y-171415202D01*
X320075513Y-171435398D01*
X320075517Y-171435398D01*
X320075521Y-171435398D01*
X320254766Y-171415202D01*
X320254769Y-171415201D01*
X320254772Y-171415201D01*
X320425039Y-171355622D01*
X320577779Y-171259649D01*
X320705333Y-171132095D01*
X320801306Y-170979355D01*
X320860885Y-170809088D01*
X320862835Y-170791784D01*
X320881082Y-170629836D01*
X320881082Y-170629829D01*
X320860886Y-170450583D01*
X320860885Y-170450578D01*
X320803445Y-170286425D01*
X320801306Y-170280311D01*
X320705333Y-170127571D01*
X320577779Y-170000017D01*
X320425040Y-169904044D01*
X320254771Y-169844464D01*
X320254766Y-169844463D01*
X320075521Y-169824268D01*
X320075513Y-169824268D01*
X319896267Y-169844463D01*
X319896262Y-169844464D01*
X319725993Y-169904044D01*
X319573254Y-170000017D01*
X319445701Y-170127570D01*
X319349728Y-170280309D01*
X319290148Y-170450578D01*
X319290147Y-170450583D01*
X319269952Y-170629829D01*
X304778603Y-170629829D01*
X304759096Y-170456697D01*
X304759095Y-170456692D01*
X304699515Y-170286423D01*
X304603542Y-170133684D01*
X304475989Y-170006131D01*
X304323250Y-169910158D01*
X304152981Y-169850578D01*
X304152976Y-169850577D01*
X303973731Y-169830382D01*
X303973723Y-169830382D01*
X303794477Y-169850577D01*
X303794472Y-169850578D01*
X303624203Y-169910158D01*
X303471464Y-170006131D01*
X303343911Y-170133684D01*
X303247938Y-170286423D01*
X303188358Y-170456692D01*
X303188357Y-170456697D01*
X303168162Y-170635943D01*
X300432958Y-170635943D01*
X299886426Y-170304952D01*
X299882040Y-170302169D01*
X299861774Y-170288704D01*
X299101410Y-169783519D01*
X299097154Y-169780560D01*
X298916425Y-169649253D01*
X298338955Y-169229697D01*
X298334821Y-169226559D01*
X297600343Y-168644418D01*
X297596341Y-168641107D01*
X296886901Y-168028736D01*
X296883041Y-168025261D01*
X296199851Y-167383703D01*
X296196140Y-167380069D01*
X295540401Y-166710449D01*
X295536875Y-166706694D01*
X294909770Y-166010224D01*
X294906376Y-166006293D01*
X294308969Y-165284152D01*
X294305743Y-165280081D01*
X293914367Y-164764463D01*
X293807498Y-164623668D01*
X296704505Y-164623668D01*
X296704505Y-164859677D01*
X296704506Y-164859693D01*
X296735311Y-165093683D01*
X296796399Y-165321666D01*
X296886719Y-165539718D01*
X296886724Y-165539729D01*
X296957682Y-165662630D01*
X297004732Y-165744123D01*
X297004734Y-165744126D01*
X297004735Y-165744127D01*
X297148411Y-165931370D01*
X297148417Y-165931377D01*
X297315300Y-166098260D01*
X297315306Y-166098265D01*
X297502555Y-166241946D01*
X297633923Y-166317791D01*
X297706948Y-166359953D01*
X297706953Y-166359955D01*
X297706956Y-166359957D01*
X297925012Y-166450279D01*
X298152991Y-166511366D01*
X298386994Y-166542173D01*
X298387001Y-166542173D01*
X298623009Y-166542173D01*
X298623016Y-166542173D01*
X298857019Y-166511366D01*
X299084998Y-166450279D01*
X299303054Y-166359957D01*
X299507455Y-166241946D01*
X299694704Y-166098265D01*
X299861597Y-165931372D01*
X300005278Y-165744123D01*
X300117454Y-165549829D01*
X303104952Y-165549829D01*
X303104952Y-165549836D01*
X303125147Y-165729082D01*
X303125148Y-165729087D01*
X303184728Y-165899356D01*
X303253172Y-166008283D01*
X303280701Y-166052095D01*
X303408255Y-166179649D01*
X303560995Y-166275622D01*
X303731262Y-166335201D01*
X303731267Y-166335202D01*
X303910513Y-166355398D01*
X303910517Y-166355398D01*
X303910521Y-166355398D01*
X304089766Y-166335202D01*
X304089769Y-166335201D01*
X304089772Y-166335201D01*
X304260039Y-166275622D01*
X304412779Y-166179649D01*
X304540333Y-166052095D01*
X304636306Y-165899355D01*
X304695885Y-165729088D01*
X304716082Y-165549833D01*
X304714942Y-165539718D01*
X304695886Y-165370583D01*
X304695885Y-165370578D01*
X304664219Y-165280081D01*
X304636306Y-165200311D01*
X304540333Y-165047571D01*
X304412779Y-164920017D01*
X304260040Y-164824044D01*
X304089771Y-164764464D01*
X304089766Y-164764463D01*
X303910521Y-164744268D01*
X303910513Y-164744268D01*
X303731267Y-164764463D01*
X303731262Y-164764464D01*
X303560993Y-164824044D01*
X303408254Y-164920017D01*
X303280701Y-165047570D01*
X303184728Y-165200309D01*
X303125148Y-165370578D01*
X303125147Y-165370583D01*
X303104952Y-165549829D01*
X300117454Y-165549829D01*
X300123289Y-165539722D01*
X300213611Y-165321666D01*
X300274698Y-165093687D01*
X300305505Y-164859684D01*
X300305505Y-164623668D01*
X323574562Y-164623668D01*
X323574562Y-164859677D01*
X323574563Y-164859693D01*
X323605368Y-165093683D01*
X323666456Y-165321666D01*
X323756776Y-165539718D01*
X323756781Y-165539729D01*
X323827739Y-165662630D01*
X323874789Y-165744123D01*
X323874791Y-165744126D01*
X323874792Y-165744127D01*
X324018468Y-165931370D01*
X324018474Y-165931377D01*
X324185357Y-166098260D01*
X324185363Y-166098265D01*
X324372612Y-166241946D01*
X324503980Y-166317791D01*
X324577005Y-166359953D01*
X324577010Y-166359955D01*
X324577013Y-166359957D01*
X324795069Y-166450279D01*
X325023048Y-166511366D01*
X325257051Y-166542173D01*
X325257058Y-166542173D01*
X325493066Y-166542173D01*
X325493073Y-166542173D01*
X325727076Y-166511366D01*
X325955055Y-166450279D01*
X326173111Y-166359957D01*
X326377512Y-166241946D01*
X326564761Y-166098265D01*
X326731654Y-165931372D01*
X326875335Y-165744123D01*
X326993346Y-165539722D01*
X327083668Y-165321666D01*
X327144755Y-165093687D01*
X327175562Y-164859684D01*
X327175562Y-164623662D01*
X327144755Y-164389659D01*
X327083668Y-164161680D01*
X326993346Y-163943624D01*
X326993344Y-163943621D01*
X326993342Y-163943616D01*
X326951180Y-163870591D01*
X326875335Y-163739223D01*
X326731654Y-163551974D01*
X326731649Y-163551968D01*
X326564766Y-163385085D01*
X326564759Y-163385079D01*
X326377516Y-163241403D01*
X326377515Y-163241402D01*
X326377512Y-163241400D01*
X326296019Y-163194350D01*
X326173118Y-163123392D01*
X326173107Y-163123387D01*
X325955055Y-163033067D01*
X325727072Y-162971979D01*
X325493082Y-162941174D01*
X325493079Y-162941173D01*
X325493073Y-162941173D01*
X325257051Y-162941173D01*
X325257045Y-162941173D01*
X325257041Y-162941174D01*
X325023051Y-162971979D01*
X324795068Y-163033067D01*
X324577016Y-163123387D01*
X324577005Y-163123392D01*
X324372607Y-163241403D01*
X324185364Y-163385079D01*
X324185357Y-163385085D01*
X324018474Y-163551968D01*
X324018468Y-163551975D01*
X323874792Y-163739218D01*
X323756781Y-163943616D01*
X323756776Y-163943627D01*
X323666456Y-164161679D01*
X323605368Y-164389662D01*
X323574563Y-164623652D01*
X323574562Y-164623668D01*
X300305505Y-164623668D01*
X300305505Y-164623662D01*
X300274698Y-164389659D01*
X300213611Y-164161680D01*
X300123289Y-163943624D01*
X300123287Y-163943621D01*
X300123285Y-163943616D01*
X300081123Y-163870591D01*
X300005278Y-163739223D01*
X299861597Y-163551974D01*
X299861592Y-163551968D01*
X299694709Y-163385085D01*
X299694702Y-163385079D01*
X299507459Y-163241403D01*
X299507458Y-163241402D01*
X299507455Y-163241400D01*
X299425962Y-163194350D01*
X299303061Y-163123392D01*
X299303050Y-163123387D01*
X299084998Y-163033067D01*
X298857015Y-162971979D01*
X298623025Y-162941174D01*
X298623022Y-162941173D01*
X298623016Y-162941173D01*
X298386994Y-162941173D01*
X298386988Y-162941173D01*
X298386984Y-162941174D01*
X298152994Y-162971979D01*
X297925011Y-163033067D01*
X297706959Y-163123387D01*
X297706948Y-163123392D01*
X297502550Y-163241403D01*
X297315307Y-163385079D01*
X297315300Y-163385085D01*
X297148417Y-163551968D01*
X297148411Y-163551975D01*
X297004735Y-163739218D01*
X296886724Y-163943616D01*
X296886719Y-163943627D01*
X296796399Y-164161679D01*
X296735311Y-164389662D01*
X296704506Y-164623652D01*
X296704505Y-164623668D01*
X293807498Y-164623668D01*
X293739120Y-164533583D01*
X293736072Y-164529388D01*
X293638958Y-164389659D01*
X293201200Y-163759807D01*
X293198334Y-163755493D01*
X292696147Y-162964172D01*
X292693457Y-162959730D01*
X292224869Y-162148112D01*
X292222367Y-162143561D01*
X291788175Y-161313030D01*
X291785865Y-161308378D01*
X291760842Y-161255202D01*
X291386812Y-160460347D01*
X291384704Y-160455610D01*
X291377122Y-160437574D01*
X291089359Y-159753011D01*
X291021533Y-159591659D01*
X291019621Y-159586830D01*
X290884093Y-159222406D01*
X290708406Y-158749998D01*
X292530773Y-158749998D01*
X292530773Y-158750001D01*
X292549657Y-159014027D01*
X292549658Y-159014034D01*
X292605921Y-159272673D01*
X292698426Y-159520690D01*
X292698428Y-159520694D01*
X292825280Y-159753005D01*
X292825285Y-159753013D01*
X292983906Y-159964907D01*
X292983922Y-159964925D01*
X293171074Y-160152077D01*
X293171092Y-160152093D01*
X293382986Y-160310714D01*
X293382994Y-160310719D01*
X293615305Y-160437571D01*
X293615309Y-160437573D01*
X293615311Y-160437574D01*
X293863322Y-160530077D01*
X293863325Y-160530077D01*
X293863326Y-160530078D01*
X294058552Y-160572546D01*
X294121974Y-160586343D01*
X294365660Y-160603772D01*
X294385999Y-160605227D01*
X294386000Y-160605227D01*
X294386001Y-160605227D01*
X294404885Y-160603876D01*
X294650026Y-160586343D01*
X294908678Y-160530077D01*
X295070210Y-160469829D01*
X303104952Y-160469829D01*
X303104952Y-160469836D01*
X303125147Y-160649082D01*
X303125148Y-160649087D01*
X303184728Y-160819356D01*
X303249641Y-160922663D01*
X303280701Y-160972095D01*
X303408255Y-161099649D01*
X303560995Y-161195622D01*
X303731262Y-161255201D01*
X303731267Y-161255202D01*
X303910513Y-161275398D01*
X303910517Y-161275398D01*
X303910521Y-161275398D01*
X304089766Y-161255202D01*
X304089769Y-161255201D01*
X304089772Y-161255201D01*
X304260039Y-161195622D01*
X304412779Y-161099649D01*
X304540333Y-160972095D01*
X304636306Y-160819355D01*
X304695885Y-160649088D01*
X304695886Y-160649082D01*
X304716082Y-160469836D01*
X304716082Y-160469829D01*
X304695886Y-160290583D01*
X304695885Y-160290578D01*
X304663929Y-160199254D01*
X304636306Y-160120311D01*
X304540333Y-159967571D01*
X304412779Y-159840017D01*
X304304114Y-159771738D01*
X304260040Y-159744044D01*
X304089771Y-159684464D01*
X304089766Y-159684463D01*
X303910521Y-159664268D01*
X303910513Y-159664268D01*
X303731267Y-159684463D01*
X303731262Y-159684464D01*
X303560993Y-159744044D01*
X303408254Y-159840017D01*
X303280701Y-159967570D01*
X303184728Y-160120309D01*
X303125148Y-160290578D01*
X303125147Y-160290583D01*
X303104952Y-160469829D01*
X295070210Y-160469829D01*
X295156689Y-160437574D01*
X295389011Y-160310716D01*
X295600915Y-160152087D01*
X295788087Y-159964915D01*
X295946716Y-159753011D01*
X296073574Y-159520689D01*
X296076816Y-159511996D01*
X321774435Y-159511996D01*
X321774435Y-159512003D01*
X321794630Y-159691249D01*
X321794631Y-159691254D01*
X321854211Y-159861523D01*
X321893769Y-159924478D01*
X321950184Y-160014262D01*
X322077738Y-160141816D01*
X322230478Y-160237789D01*
X322333952Y-160273996D01*
X322400745Y-160297368D01*
X322400750Y-160297369D01*
X322579996Y-160317565D01*
X322580000Y-160317565D01*
X322580004Y-160317565D01*
X322759249Y-160297369D01*
X322759252Y-160297368D01*
X322759255Y-160297368D01*
X322826048Y-160273996D01*
X323552435Y-160273996D01*
X323552435Y-160274003D01*
X323572630Y-160453249D01*
X323572631Y-160453254D01*
X323632211Y-160623523D01*
X323728184Y-160776262D01*
X323855738Y-160903816D01*
X324008478Y-160999789D01*
X324178745Y-161059368D01*
X324178750Y-161059369D01*
X324357996Y-161079565D01*
X324358000Y-161079565D01*
X324358004Y-161079565D01*
X324537249Y-161059369D01*
X324537252Y-161059368D01*
X324537255Y-161059368D01*
X324707522Y-160999789D01*
X324800027Y-160941663D01*
X324867264Y-160922663D01*
X324931973Y-160941664D01*
X325024475Y-160999788D01*
X325194745Y-161059368D01*
X325194750Y-161059369D01*
X325373996Y-161079565D01*
X325374000Y-161079565D01*
X325374004Y-161079565D01*
X325553249Y-161059369D01*
X325553252Y-161059368D01*
X325553255Y-161059368D01*
X325723522Y-160999789D01*
X325876262Y-160903816D01*
X326003816Y-160776262D01*
X326099789Y-160623522D01*
X326145958Y-160491579D01*
X326186680Y-160434802D01*
X326251633Y-160409055D01*
X326320194Y-160422511D01*
X326370597Y-160470898D01*
X326380042Y-160491579D01*
X326426210Y-160623521D01*
X326522184Y-160776262D01*
X326649738Y-160903816D01*
X326802478Y-160999789D01*
X326972745Y-161059368D01*
X326972750Y-161059369D01*
X327151996Y-161079565D01*
X327152000Y-161079565D01*
X327152004Y-161079565D01*
X327331249Y-161059369D01*
X327331252Y-161059368D01*
X327331255Y-161059368D01*
X327501522Y-160999789D01*
X327654262Y-160903816D01*
X327781816Y-160776262D01*
X327811847Y-160728466D01*
X327864178Y-160682179D01*
X327933232Y-160671529D01*
X327982812Y-160689448D01*
X328072475Y-160745788D01*
X328242745Y-160805368D01*
X328242750Y-160805369D01*
X328421996Y-160825565D01*
X328422000Y-160825565D01*
X328422004Y-160825565D01*
X328601249Y-160805369D01*
X328601252Y-160805368D01*
X328601255Y-160805368D01*
X328771522Y-160745789D01*
X328924262Y-160649816D01*
X329051816Y-160522262D01*
X329147789Y-160369522D01*
X329207368Y-160199255D01*
X329213840Y-160141815D01*
X329227565Y-160020003D01*
X329227565Y-160019996D01*
X329207369Y-159840750D01*
X329207368Y-159840745D01*
X329176669Y-159753013D01*
X329147789Y-159670478D01*
X329131267Y-159644184D01*
X329053670Y-159520689D01*
X329051816Y-159517738D01*
X328924262Y-159390184D01*
X328771523Y-159294211D01*
X328601254Y-159234631D01*
X328601249Y-159234630D01*
X328422004Y-159214435D01*
X328421996Y-159214435D01*
X328242750Y-159234630D01*
X328242745Y-159234631D01*
X328072476Y-159294211D01*
X327919737Y-159390184D01*
X327792182Y-159517739D01*
X327762153Y-159565531D01*
X327709818Y-159611822D01*
X327640765Y-159622469D01*
X327591188Y-159604552D01*
X327501523Y-159548211D01*
X327331254Y-159488631D01*
X327331249Y-159488630D01*
X327152004Y-159468435D01*
X327151996Y-159468435D01*
X326972750Y-159488630D01*
X326972745Y-159488631D01*
X326802476Y-159548211D01*
X326649737Y-159644184D01*
X326522184Y-159771737D01*
X326426209Y-159924480D01*
X326380041Y-160056421D01*
X326339320Y-160113197D01*
X326274367Y-160138944D01*
X326205805Y-160125488D01*
X326155403Y-160077100D01*
X326145959Y-160056421D01*
X326099790Y-159924480D01*
X326099789Y-159924478D01*
X326003816Y-159771738D01*
X325876262Y-159644184D01*
X325841703Y-159622469D01*
X325723523Y-159548211D01*
X325553254Y-159488631D01*
X325553249Y-159488630D01*
X325374004Y-159468435D01*
X325373996Y-159468435D01*
X325194750Y-159488630D01*
X325194745Y-159488631D01*
X325024476Y-159548211D01*
X324931972Y-159606336D01*
X324864735Y-159625336D01*
X324800028Y-159606336D01*
X324707523Y-159548211D01*
X324537254Y-159488631D01*
X324537249Y-159488630D01*
X324358004Y-159468435D01*
X324357996Y-159468435D01*
X324178750Y-159488630D01*
X324178745Y-159488631D01*
X324008476Y-159548211D01*
X323855737Y-159644184D01*
X323728184Y-159771737D01*
X323632211Y-159924476D01*
X323572631Y-160094745D01*
X323572630Y-160094750D01*
X323552435Y-160273996D01*
X322826048Y-160273996D01*
X322929522Y-160237789D01*
X323082262Y-160141816D01*
X323209816Y-160014262D01*
X323305789Y-159861522D01*
X323365368Y-159691255D01*
X323366133Y-159684464D01*
X323385565Y-159512003D01*
X323385565Y-159511996D01*
X323365369Y-159332750D01*
X323365368Y-159332745D01*
X323326759Y-159222406D01*
X323305789Y-159162478D01*
X323283140Y-159126433D01*
X323209815Y-159009737D01*
X323082262Y-158882184D01*
X322929523Y-158786211D01*
X322759254Y-158726631D01*
X322759249Y-158726630D01*
X322580004Y-158706435D01*
X322579996Y-158706435D01*
X322400750Y-158726630D01*
X322400745Y-158726631D01*
X322230476Y-158786211D01*
X322077737Y-158882184D01*
X321950184Y-159009737D01*
X321854211Y-159162476D01*
X321794631Y-159332745D01*
X321794630Y-159332750D01*
X321774435Y-159511996D01*
X296076816Y-159511996D01*
X296166077Y-159272678D01*
X296222343Y-159014026D01*
X296241227Y-158750000D01*
X296222343Y-158485974D01*
X296166077Y-158227322D01*
X296073574Y-157979311D01*
X296046558Y-157929836D01*
X296046554Y-157929829D01*
X303104952Y-157929829D01*
X303104952Y-157929836D01*
X303125147Y-158109082D01*
X303125148Y-158109087D01*
X303184728Y-158279356D01*
X303221277Y-158337523D01*
X303280701Y-158432095D01*
X303408255Y-158559649D01*
X303560995Y-158655622D01*
X303704910Y-158705980D01*
X303731262Y-158715201D01*
X303731267Y-158715202D01*
X303910513Y-158735398D01*
X303910517Y-158735398D01*
X303910521Y-158735398D01*
X304089766Y-158715202D01*
X304089769Y-158715201D01*
X304089772Y-158715201D01*
X304260039Y-158655622D01*
X304412779Y-158559649D01*
X304540333Y-158432095D01*
X304636306Y-158279355D01*
X304695885Y-158109088D01*
X304708812Y-157994356D01*
X304716082Y-157929836D01*
X304716082Y-157929829D01*
X304695886Y-157750583D01*
X304695885Y-157750578D01*
X304694628Y-157746986D01*
X304636306Y-157580311D01*
X304540333Y-157427571D01*
X304412779Y-157300017D01*
X304352613Y-157262212D01*
X304260040Y-157204044D01*
X304089771Y-157144464D01*
X304089766Y-157144463D01*
X303910521Y-157124268D01*
X303910513Y-157124268D01*
X303731267Y-157144463D01*
X303731262Y-157144464D01*
X303560993Y-157204044D01*
X303408254Y-157300017D01*
X303280701Y-157427570D01*
X303184728Y-157580309D01*
X303125148Y-157750578D01*
X303125147Y-157750583D01*
X303104952Y-157929829D01*
X296046554Y-157929829D01*
X295946719Y-157746994D01*
X295946714Y-157746986D01*
X295788093Y-157535092D01*
X295788077Y-157535074D01*
X295600925Y-157347922D01*
X295600907Y-157347906D01*
X295389013Y-157189285D01*
X295389005Y-157189280D01*
X295156694Y-157062428D01*
X295156690Y-157062426D01*
X294908673Y-156969921D01*
X294650034Y-156913658D01*
X294650027Y-156913657D01*
X294386001Y-156894773D01*
X294385999Y-156894773D01*
X294121972Y-156913657D01*
X294121965Y-156913658D01*
X293863326Y-156969921D01*
X293615309Y-157062426D01*
X293615305Y-157062428D01*
X293382994Y-157189280D01*
X293382986Y-157189285D01*
X293171092Y-157347906D01*
X293171074Y-157347922D01*
X292983922Y-157535074D01*
X292983906Y-157535092D01*
X292825285Y-157746986D01*
X292825280Y-157746994D01*
X292698428Y-157979305D01*
X292698426Y-157979309D01*
X292605921Y-158227326D01*
X292549658Y-158485965D01*
X292549657Y-158485972D01*
X292530773Y-158749998D01*
X290708406Y-158749998D01*
X290692933Y-158708392D01*
X290691232Y-158703507D01*
X290401615Y-157812157D01*
X290400129Y-157807237D01*
X290148095Y-156904550D01*
X290146803Y-156899520D01*
X290145690Y-156894773D01*
X289932790Y-155987072D01*
X289931714Y-155982007D01*
X289878641Y-155703791D01*
X289774385Y-155157258D01*
X289756100Y-155061406D01*
X289755234Y-155056285D01*
X289727075Y-154865591D01*
X289652544Y-154360871D01*
X291025714Y-154360871D01*
X291047477Y-154461809D01*
X291047480Y-154461820D01*
X291325582Y-155317731D01*
X292312292Y-154997130D01*
X292312292Y-155067533D01*
X292344957Y-155231751D01*
X292409032Y-155386441D01*
X292466668Y-155472700D01*
X291480091Y-155793260D01*
X291758199Y-156649187D01*
X291758201Y-156649193D01*
X291799922Y-156743636D01*
X291903797Y-156884874D01*
X291903804Y-156884881D01*
X292037446Y-156998351D01*
X292037448Y-156998353D01*
X292193664Y-157077949D01*
X292364022Y-157119372D01*
X292539348Y-157120392D01*
X292640280Y-157098630D01*
X292640285Y-157098629D01*
X293496208Y-156820523D01*
X293175608Y-155833815D01*
X293246010Y-155833815D01*
X293410228Y-155801150D01*
X293564918Y-155737075D01*
X293651178Y-155679438D01*
X293971737Y-156666015D01*
X294827664Y-156387907D01*
X294827670Y-156387905D01*
X294922113Y-156346184D01*
X295063351Y-156242309D01*
X295063358Y-156242302D01*
X295090788Y-156209996D01*
X300438435Y-156209996D01*
X300438435Y-156210003D01*
X300458630Y-156389249D01*
X300458631Y-156389254D01*
X300518211Y-156559523D01*
X300577378Y-156653686D01*
X300614184Y-156712262D01*
X300741738Y-156839816D01*
X300894478Y-156935789D01*
X301011375Y-156976693D01*
X301064745Y-156995368D01*
X301064750Y-156995369D01*
X301243996Y-157015565D01*
X301244000Y-157015565D01*
X301244004Y-157015565D01*
X301423249Y-156995369D01*
X301423252Y-156995368D01*
X301423255Y-156995368D01*
X301593522Y-156935789D01*
X301746262Y-156839816D01*
X301873816Y-156712262D01*
X301969789Y-156559522D01*
X302029368Y-156389255D01*
X302035840Y-156331815D01*
X302049565Y-156210003D01*
X302049565Y-156209996D01*
X302029369Y-156030750D01*
X302029368Y-156030745D01*
X302012314Y-155982007D01*
X301969789Y-155860478D01*
X301873816Y-155707738D01*
X301746262Y-155580184D01*
X301593523Y-155484211D01*
X301490027Y-155447996D01*
X308566435Y-155447996D01*
X308566435Y-155448003D01*
X308586630Y-155627249D01*
X308586631Y-155627254D01*
X308646211Y-155797523D01*
X308685769Y-155860478D01*
X308742184Y-155950262D01*
X308869738Y-156077816D01*
X309022478Y-156173789D01*
X309109565Y-156204262D01*
X309192745Y-156233368D01*
X309192750Y-156233369D01*
X309371996Y-156253565D01*
X309372000Y-156253565D01*
X309372004Y-156253565D01*
X309551249Y-156233369D01*
X309551252Y-156233368D01*
X309551255Y-156233368D01*
X309721522Y-156173789D01*
X309874262Y-156077816D01*
X310001816Y-155950262D01*
X310097789Y-155797522D01*
X310157368Y-155627255D01*
X310159558Y-155607818D01*
X310177565Y-155448003D01*
X310177565Y-155447996D01*
X310157369Y-155268750D01*
X310157368Y-155268745D01*
X310097789Y-155098478D01*
X310081267Y-155072184D01*
X310001815Y-154945737D01*
X309874262Y-154818184D01*
X309721523Y-154722211D01*
X309551254Y-154662631D01*
X309551249Y-154662630D01*
X309372004Y-154642435D01*
X309371996Y-154642435D01*
X309192750Y-154662630D01*
X309192745Y-154662631D01*
X309022476Y-154722211D01*
X308869737Y-154818184D01*
X308742184Y-154945737D01*
X308646211Y-155098476D01*
X308586631Y-155268745D01*
X308586630Y-155268750D01*
X308566435Y-155447996D01*
X301490027Y-155447996D01*
X301423254Y-155424631D01*
X301423249Y-155424630D01*
X301244004Y-155404435D01*
X301243996Y-155404435D01*
X301064750Y-155424630D01*
X301064745Y-155424631D01*
X300894476Y-155484211D01*
X300741737Y-155580184D01*
X300614184Y-155707737D01*
X300518211Y-155860476D01*
X300458631Y-156030745D01*
X300458630Y-156030750D01*
X300438435Y-156209996D01*
X295090788Y-156209996D01*
X295176828Y-156108660D01*
X295176830Y-156108658D01*
X295256426Y-155952442D01*
X295297849Y-155782084D01*
X295298869Y-155606758D01*
X295277107Y-155505826D01*
X295277106Y-155505821D01*
X294998999Y-154649897D01*
X294012292Y-154970497D01*
X294012292Y-154900097D01*
X293979627Y-154735879D01*
X293915552Y-154581189D01*
X293857913Y-154494927D01*
X294833326Y-154177996D01*
X315722435Y-154177996D01*
X315722435Y-154178003D01*
X315742630Y-154357249D01*
X315742633Y-154357262D01*
X315804510Y-154534094D01*
X315802366Y-154534843D01*
X315811960Y-154593161D01*
X315803612Y-154621595D01*
X315804510Y-154621909D01*
X315742633Y-154798740D01*
X315742630Y-154798753D01*
X315722435Y-154977999D01*
X315722435Y-154978006D01*
X315742630Y-155157252D01*
X315742631Y-155157257D01*
X315802211Y-155327526D01*
X315877912Y-155448003D01*
X315898184Y-155480265D01*
X316025738Y-155607819D01*
X316083404Y-155644053D01*
X316175630Y-155702003D01*
X316178478Y-155703792D01*
X316345896Y-155762374D01*
X316348745Y-155763371D01*
X316348750Y-155763372D01*
X316527996Y-155783568D01*
X316528000Y-155783568D01*
X316528004Y-155783568D01*
X316707249Y-155763372D01*
X316707251Y-155763371D01*
X316707255Y-155763371D01*
X316707258Y-155763369D01*
X316707262Y-155763369D01*
X316799173Y-155731208D01*
X316868952Y-155727646D01*
X316929579Y-155762374D01*
X316961807Y-155824367D01*
X316963348Y-155834365D01*
X316968630Y-155881250D01*
X316968631Y-155881254D01*
X317028211Y-156051523D01*
X317124184Y-156204262D01*
X317146691Y-156226769D01*
X317180176Y-156288092D01*
X317175192Y-156357784D01*
X317133320Y-156413717D01*
X317109662Y-156426327D01*
X317110052Y-156427136D01*
X317103782Y-156430155D01*
X316951036Y-156526132D01*
X316823483Y-156653685D01*
X316727510Y-156806424D01*
X316667930Y-156976693D01*
X316667929Y-156976698D01*
X316647734Y-157155944D01*
X316647734Y-157155951D01*
X316667929Y-157335197D01*
X316667930Y-157335202D01*
X316727510Y-157505471D01*
X316823483Y-157658210D01*
X316951037Y-157785764D01*
X317103777Y-157881737D01*
X317120473Y-157887579D01*
X317177251Y-157928299D01*
X317202743Y-157990739D01*
X317222630Y-158167249D01*
X317222631Y-158167254D01*
X317282211Y-158337523D01*
X317341635Y-158432095D01*
X317378184Y-158490262D01*
X317505738Y-158617816D01*
X317565904Y-158655621D01*
X317649920Y-158708412D01*
X317658478Y-158713789D01*
X317761963Y-158750000D01*
X317828745Y-158773368D01*
X317828750Y-158773369D01*
X318007996Y-158793565D01*
X318008000Y-158793565D01*
X318008004Y-158793565D01*
X318187249Y-158773369D01*
X318187252Y-158773368D01*
X318187255Y-158773368D01*
X318357522Y-158713789D01*
X318510262Y-158617816D01*
X318631464Y-158496614D01*
X328978338Y-158496614D01*
X328978338Y-158496621D01*
X328998533Y-158675867D01*
X328998534Y-158675872D01*
X329058114Y-158846141D01*
X329154087Y-158998880D01*
X329281641Y-159126434D01*
X329339005Y-159162478D01*
X329421693Y-159214435D01*
X329434381Y-159222407D01*
X329578033Y-159272673D01*
X329604648Y-159281986D01*
X329604653Y-159281987D01*
X329783899Y-159302183D01*
X329783903Y-159302183D01*
X329783907Y-159302183D01*
X329963152Y-159281987D01*
X329963155Y-159281986D01*
X329963158Y-159281986D01*
X330133425Y-159222407D01*
X330286165Y-159126434D01*
X330413719Y-158998880D01*
X330509692Y-158846140D01*
X330569271Y-158675873D01*
X330571553Y-158655621D01*
X330589468Y-158496621D01*
X330589468Y-158496614D01*
X330569272Y-158317368D01*
X330569271Y-158317363D01*
X330516746Y-158167255D01*
X330509692Y-158147096D01*
X330413719Y-157994356D01*
X330286165Y-157866802D01*
X330133426Y-157770829D01*
X329963157Y-157711249D01*
X329963152Y-157711248D01*
X329783907Y-157691053D01*
X329783899Y-157691053D01*
X329604653Y-157711248D01*
X329604648Y-157711249D01*
X329434379Y-157770829D01*
X329281640Y-157866802D01*
X329154087Y-157994355D01*
X329058114Y-158147094D01*
X328998534Y-158317363D01*
X328998533Y-158317368D01*
X328978338Y-158496614D01*
X318631464Y-158496614D01*
X318637816Y-158490262D01*
X318733789Y-158337522D01*
X318793368Y-158167255D01*
X318793369Y-158167249D01*
X318813565Y-157988003D01*
X318813565Y-157987996D01*
X318793369Y-157808750D01*
X318793368Y-157808745D01*
X318771759Y-157746989D01*
X318733789Y-157638478D01*
X318637816Y-157485738D01*
X318510262Y-157358184D01*
X318473686Y-157335202D01*
X318357524Y-157262212D01*
X318357520Y-157262210D01*
X318340817Y-157256365D01*
X318284042Y-157215642D01*
X318258555Y-157153208D01*
X318255294Y-157124268D01*
X318243047Y-157015565D01*
X318238668Y-156976698D01*
X318238667Y-156976693D01*
X318210002Y-156894773D01*
X318179088Y-156806426D01*
X318083115Y-156653686D01*
X318060607Y-156631178D01*
X318027122Y-156569855D01*
X318032106Y-156500163D01*
X318073978Y-156444230D01*
X318097638Y-156431624D01*
X318097247Y-156430812D01*
X318103516Y-156427792D01*
X318103519Y-156427789D01*
X318103522Y-156427789D01*
X318256262Y-156331816D01*
X318383816Y-156204262D01*
X318479789Y-156051522D01*
X318539368Y-155881255D01*
X318541709Y-155860478D01*
X318559565Y-155702003D01*
X318559565Y-155701996D01*
X318539369Y-155522750D01*
X318539368Y-155522745D01*
X318513215Y-155448003D01*
X318479789Y-155352478D01*
X318383816Y-155199738D01*
X318256262Y-155072184D01*
X318256260Y-155072182D01*
X318136105Y-154996683D01*
X318089815Y-154944348D01*
X318079167Y-154875295D01*
X318107542Y-154811447D01*
X318161122Y-154774648D01*
X318271169Y-154736142D01*
X318350441Y-154686332D01*
X325131338Y-154686332D01*
X325131338Y-154686339D01*
X325151533Y-154865585D01*
X325151534Y-154865590D01*
X325211114Y-155035859D01*
X325279267Y-155144323D01*
X325307087Y-155188598D01*
X325434641Y-155316152D01*
X325524983Y-155372918D01*
X325586844Y-155411788D01*
X325587381Y-155412125D01*
X325756688Y-155471368D01*
X325757648Y-155471704D01*
X325757653Y-155471705D01*
X325936899Y-155491901D01*
X325936903Y-155491901D01*
X325936907Y-155491901D01*
X326116152Y-155471705D01*
X326116155Y-155471704D01*
X326116158Y-155471704D01*
X326286425Y-155412125D01*
X326439165Y-155316152D01*
X326566719Y-155188598D01*
X326662692Y-155035858D01*
X326722271Y-154865591D01*
X326722310Y-154865249D01*
X326742468Y-154686339D01*
X326742468Y-154686332D01*
X326742430Y-154685996D01*
X327436435Y-154685996D01*
X327436435Y-154686003D01*
X327456630Y-154865249D01*
X327456631Y-154865254D01*
X327516211Y-155035523D01*
X327555769Y-155098478D01*
X327612184Y-155188262D01*
X327739738Y-155315816D01*
X327892478Y-155411789D01*
X327995952Y-155447996D01*
X328062745Y-155471368D01*
X328062750Y-155471369D01*
X328241996Y-155491565D01*
X328242000Y-155491565D01*
X328242004Y-155491565D01*
X328421249Y-155471369D01*
X328421252Y-155471368D01*
X328421255Y-155471368D01*
X328591522Y-155411789D01*
X328744262Y-155315816D01*
X328871816Y-155188262D01*
X328967789Y-155035522D01*
X329027368Y-154865255D01*
X329034861Y-154798753D01*
X329047565Y-154686003D01*
X329047565Y-154685996D01*
X331172435Y-154685996D01*
X331172435Y-154686003D01*
X331192630Y-154865249D01*
X331192631Y-154865254D01*
X331252211Y-155035523D01*
X331291769Y-155098478D01*
X331348184Y-155188262D01*
X331475738Y-155315816D01*
X331628478Y-155411789D01*
X331731952Y-155447996D01*
X331798745Y-155471368D01*
X331798750Y-155471369D01*
X331977996Y-155491565D01*
X331978000Y-155491565D01*
X331978004Y-155491565D01*
X332157249Y-155471369D01*
X332157252Y-155471368D01*
X332157255Y-155471368D01*
X332327522Y-155411789D01*
X332480262Y-155315816D01*
X332607816Y-155188262D01*
X332703789Y-155035522D01*
X332763368Y-154865255D01*
X332770861Y-154798753D01*
X332783565Y-154686003D01*
X332783565Y-154685996D01*
X332763369Y-154506750D01*
X332763368Y-154506745D01*
X332747644Y-154461809D01*
X332703789Y-154336478D01*
X332607816Y-154183738D01*
X332480262Y-154056184D01*
X332327523Y-153960211D01*
X332157254Y-153900631D01*
X332157249Y-153900630D01*
X331978004Y-153880435D01*
X331977996Y-153880435D01*
X331798750Y-153900630D01*
X331798745Y-153900631D01*
X331628476Y-153960211D01*
X331475737Y-154056184D01*
X331348184Y-154183737D01*
X331252211Y-154336476D01*
X331192631Y-154506745D01*
X331192630Y-154506750D01*
X331172435Y-154685996D01*
X329047565Y-154685996D01*
X329027369Y-154506750D01*
X329027368Y-154506745D01*
X329011644Y-154461809D01*
X328967789Y-154336478D01*
X328871816Y-154183738D01*
X328744262Y-154056184D01*
X328591523Y-153960211D01*
X328421254Y-153900631D01*
X328421249Y-153900630D01*
X328242004Y-153880435D01*
X328241996Y-153880435D01*
X328062750Y-153900630D01*
X328062745Y-153900631D01*
X327892476Y-153960211D01*
X327739737Y-154056184D01*
X327612184Y-154183737D01*
X327516211Y-154336476D01*
X327456631Y-154506745D01*
X327456630Y-154506750D01*
X327436435Y-154685996D01*
X326742430Y-154685996D01*
X326722272Y-154507086D01*
X326722271Y-154507081D01*
X326671110Y-154360871D01*
X326662692Y-154336814D01*
X326566719Y-154184074D01*
X326439165Y-154056520D01*
X326373384Y-154015187D01*
X326286426Y-153960547D01*
X326116157Y-153900967D01*
X326116152Y-153900966D01*
X325936907Y-153880771D01*
X325936899Y-153880771D01*
X325757653Y-153900966D01*
X325757648Y-153900967D01*
X325587379Y-153960547D01*
X325434640Y-154056520D01*
X325307087Y-154184073D01*
X325211114Y-154336812D01*
X325151534Y-154507081D01*
X325151533Y-154507086D01*
X325131338Y-154686332D01*
X318350441Y-154686332D01*
X318423909Y-154640169D01*
X318551463Y-154512615D01*
X318647436Y-154359875D01*
X318707015Y-154189608D01*
X318707639Y-154184073D01*
X318727212Y-154010356D01*
X318727212Y-154010349D01*
X318707016Y-153831103D01*
X318707015Y-153831098D01*
X318670004Y-153725327D01*
X318647436Y-153660831D01*
X318551463Y-153508091D01*
X318423909Y-153380537D01*
X318411015Y-153372435D01*
X318271170Y-153284564D01*
X318100901Y-153224984D01*
X318100896Y-153224983D01*
X317921651Y-153204788D01*
X317921643Y-153204788D01*
X317742397Y-153224983D01*
X317742392Y-153224984D01*
X317572123Y-153284564D01*
X317419384Y-153380537D01*
X317291831Y-153508090D01*
X317291829Y-153508093D01*
X317258151Y-153561691D01*
X317205816Y-153607982D01*
X317136763Y-153618629D01*
X317072914Y-153590254D01*
X317065477Y-153583399D01*
X317030262Y-153548184D01*
X316877523Y-153452211D01*
X316707254Y-153392631D01*
X316707249Y-153392630D01*
X316528004Y-153372435D01*
X316527996Y-153372435D01*
X316348750Y-153392630D01*
X316348745Y-153392631D01*
X316178476Y-153452211D01*
X316025737Y-153548184D01*
X315898184Y-153675737D01*
X315802211Y-153828476D01*
X315742631Y-153998745D01*
X315742630Y-153998750D01*
X315722435Y-154177996D01*
X294833326Y-154177996D01*
X294844492Y-154174368D01*
X294566384Y-153318442D01*
X294566382Y-153318436D01*
X294524661Y-153223993D01*
X294420786Y-153082755D01*
X294420779Y-153082748D01*
X294287137Y-152969278D01*
X294287135Y-152969276D01*
X294130919Y-152889680D01*
X293960561Y-152848257D01*
X293785235Y-152847237D01*
X293684297Y-152869000D01*
X293684286Y-152869003D01*
X292828374Y-153147106D01*
X293148975Y-154133815D01*
X293078574Y-154133815D01*
X292914356Y-154166480D01*
X292759666Y-154230555D01*
X292673404Y-154288192D01*
X292352845Y-153301613D01*
X291496919Y-153579722D01*
X291496913Y-153579724D01*
X291402470Y-153621445D01*
X291261232Y-153725320D01*
X291261225Y-153725327D01*
X291147755Y-153858969D01*
X291147753Y-153858971D01*
X291068157Y-154015187D01*
X291026734Y-154185545D01*
X291025714Y-154360871D01*
X289652544Y-154360871D01*
X289618323Y-154129126D01*
X289617678Y-154124021D01*
X289519710Y-153191923D01*
X289519277Y-153186749D01*
X289511710Y-153066476D01*
X289460429Y-152251390D01*
X289460214Y-152246281D01*
X289440586Y-151309222D01*
X289440586Y-151304048D01*
X289460214Y-150367006D01*
X289460429Y-150361901D01*
X289476026Y-150113996D01*
X308058435Y-150113996D01*
X308058435Y-150114003D01*
X308078630Y-150293249D01*
X308078631Y-150293254D01*
X308138211Y-150463523D01*
X308152800Y-150486741D01*
X308234184Y-150616262D01*
X308361738Y-150743816D01*
X308514478Y-150839789D01*
X308628154Y-150879566D01*
X308684745Y-150899368D01*
X308684750Y-150899369D01*
X308863996Y-150919565D01*
X308864000Y-150919565D01*
X308864004Y-150919565D01*
X309043249Y-150899369D01*
X309043252Y-150899368D01*
X309043255Y-150899368D01*
X309213522Y-150839789D01*
X309366262Y-150743816D01*
X309493816Y-150616262D01*
X309589789Y-150463522D01*
X309649368Y-150293255D01*
X309653875Y-150253254D01*
X309669565Y-150114003D01*
X309669565Y-150113996D01*
X309665058Y-150073996D01*
X315433758Y-150073996D01*
X315433758Y-150074003D01*
X315453953Y-150253249D01*
X315453954Y-150253254D01*
X315513534Y-150423523D01*
X315538668Y-150463523D01*
X315609507Y-150576262D01*
X315737061Y-150703816D01*
X315737063Y-150703817D01*
X315869017Y-150786730D01*
X315889801Y-150799789D01*
X316040812Y-150852630D01*
X316060068Y-150859368D01*
X316060073Y-150859369D01*
X316239319Y-150879565D01*
X316239323Y-150879565D01*
X316239327Y-150879565D01*
X316418572Y-150859369D01*
X316418575Y-150859368D01*
X316418578Y-150859368D01*
X316588845Y-150799789D01*
X316609628Y-150786729D01*
X316676860Y-150767728D01*
X316741573Y-150786729D01*
X316762359Y-150799790D01*
X316876667Y-150839788D01*
X316932626Y-150859369D01*
X316932631Y-150859370D01*
X317028732Y-150870198D01*
X317093146Y-150897264D01*
X317132702Y-150954859D01*
X317134839Y-151024696D01*
X317098881Y-151084602D01*
X317055804Y-151110459D01*
X316896480Y-151166209D01*
X316743737Y-151262184D01*
X316616184Y-151389737D01*
X316520211Y-151542476D01*
X316460631Y-151712745D01*
X316460630Y-151712750D01*
X316440435Y-151891996D01*
X316440435Y-151892003D01*
X316460630Y-152071249D01*
X316460631Y-152071254D01*
X316520211Y-152241523D01*
X316597416Y-152364393D01*
X316616184Y-152394262D01*
X316743738Y-152521816D01*
X316775643Y-152541863D01*
X316886922Y-152611785D01*
X316896478Y-152617789D01*
X317066745Y-152677368D01*
X317066750Y-152677369D01*
X317245996Y-152697565D01*
X317246000Y-152697565D01*
X317246004Y-152697565D01*
X317425249Y-152677369D01*
X317425252Y-152677368D01*
X317425255Y-152677368D01*
X317595522Y-152617789D01*
X317748262Y-152521816D01*
X317875816Y-152394262D01*
X317971789Y-152241522D01*
X318031368Y-152071255D01*
X318033709Y-152050478D01*
X318051565Y-151892003D01*
X318051565Y-151891996D01*
X318031369Y-151712750D01*
X318031368Y-151712745D01*
X318005215Y-151638003D01*
X318005213Y-151637996D01*
X320758435Y-151637996D01*
X320758435Y-151638003D01*
X320778630Y-151817249D01*
X320778631Y-151817254D01*
X320838211Y-151987523D01*
X320877769Y-152050478D01*
X320934184Y-152140262D01*
X321061738Y-152267816D01*
X321214478Y-152363789D01*
X321214479Y-152363789D01*
X321215440Y-152364393D01*
X321261731Y-152416728D01*
X321272688Y-152455503D01*
X321286630Y-152579250D01*
X321286631Y-152579254D01*
X321346211Y-152749523D01*
X321369247Y-152786184D01*
X321442184Y-152902262D01*
X321569738Y-153029816D01*
X321722478Y-153125789D01*
X321892745Y-153185368D01*
X321929173Y-153189472D01*
X321993585Y-153216536D01*
X322033142Y-153274130D01*
X322038510Y-153326575D01*
X322028435Y-153415996D01*
X322028435Y-153416003D01*
X322048630Y-153595249D01*
X322048631Y-153595254D01*
X322108211Y-153765523D01*
X322166929Y-153858971D01*
X322204184Y-153918262D01*
X322331738Y-154045816D01*
X322484478Y-154141789D01*
X322621120Y-154189602D01*
X322654745Y-154201368D01*
X322654750Y-154201369D01*
X322833996Y-154221565D01*
X322834000Y-154221565D01*
X322834004Y-154221565D01*
X323013249Y-154201369D01*
X323013252Y-154201368D01*
X323013255Y-154201368D01*
X323183522Y-154141789D01*
X323336262Y-154045816D01*
X323463816Y-153918262D01*
X323559789Y-153765522D01*
X323619368Y-153595255D01*
X323619369Y-153595249D01*
X323639565Y-153416003D01*
X323639565Y-153415996D01*
X323619369Y-153236750D01*
X323619368Y-153236745D01*
X323602826Y-153189471D01*
X323559789Y-153066478D01*
X323463816Y-152913738D01*
X323336262Y-152786184D01*
X323183521Y-152690210D01*
X323013249Y-152630630D01*
X322976824Y-152626526D01*
X322912411Y-152599458D01*
X322872857Y-152541863D01*
X322867490Y-152489423D01*
X322877565Y-152400003D01*
X322877565Y-152399996D01*
X322857369Y-152220750D01*
X322857368Y-152220745D01*
X322797788Y-152050476D01*
X322701815Y-151897737D01*
X322574260Y-151770182D01*
X322420558Y-151673604D01*
X322374268Y-151621270D01*
X322363311Y-151582494D01*
X322349369Y-151458750D01*
X322349368Y-151458745D01*
X322325221Y-151389737D01*
X322289789Y-151288478D01*
X322286094Y-151282598D01*
X322200383Y-151146190D01*
X322193816Y-151135738D01*
X322066262Y-151008184D01*
X321959822Y-150941303D01*
X321913523Y-150912211D01*
X321743254Y-150852631D01*
X321743249Y-150852630D01*
X321564004Y-150832435D01*
X321563996Y-150832435D01*
X321384750Y-150852630D01*
X321384745Y-150852631D01*
X321214476Y-150912211D01*
X321061737Y-151008184D01*
X320934184Y-151135737D01*
X320838211Y-151288476D01*
X320778631Y-151458745D01*
X320778630Y-151458750D01*
X320758435Y-151637996D01*
X318005213Y-151637996D01*
X317971789Y-151542478D01*
X317875816Y-151389738D01*
X317748262Y-151262184D01*
X317700782Y-151232350D01*
X317595523Y-151166211D01*
X317425254Y-151106631D01*
X317425250Y-151106630D01*
X317329147Y-151095802D01*
X317264733Y-151068735D01*
X317225178Y-151011140D01*
X317223041Y-150941303D01*
X317259000Y-150881397D01*
X317302074Y-150855541D01*
X317461403Y-150799790D01*
X317614143Y-150703817D01*
X317741697Y-150576263D01*
X317837670Y-150423523D01*
X317897249Y-150253256D01*
X317912939Y-150114003D01*
X317917446Y-150074004D01*
X317917446Y-150073997D01*
X317897250Y-149894751D01*
X317897249Y-149894746D01*
X317888028Y-149868394D01*
X317837670Y-149724479D01*
X317741697Y-149571739D01*
X317614143Y-149444185D01*
X317586061Y-149426540D01*
X317461404Y-149348212D01*
X317291135Y-149288632D01*
X317291130Y-149288631D01*
X317111885Y-149268436D01*
X317111877Y-149268436D01*
X316932631Y-149288631D01*
X316932618Y-149288634D01*
X316762360Y-149348210D01*
X316741573Y-149361272D01*
X316674336Y-149380271D01*
X316609632Y-149361272D01*
X316588845Y-149348211D01*
X316418577Y-149288631D01*
X316418572Y-149288630D01*
X316239327Y-149268435D01*
X316239319Y-149268435D01*
X316060073Y-149288630D01*
X316060068Y-149288631D01*
X315889799Y-149348211D01*
X315737060Y-149444184D01*
X315609507Y-149571737D01*
X315513534Y-149724476D01*
X315453954Y-149894745D01*
X315453953Y-149894750D01*
X315433758Y-150073996D01*
X309665058Y-150073996D01*
X309649369Y-149934750D01*
X309649368Y-149934745D01*
X309589788Y-149764476D01*
X309493815Y-149611737D01*
X309366262Y-149484184D01*
X309213523Y-149388211D01*
X309043254Y-149328631D01*
X309043249Y-149328630D01*
X308864004Y-149308435D01*
X308863996Y-149308435D01*
X308684750Y-149328630D01*
X308684745Y-149328631D01*
X308514476Y-149388211D01*
X308361737Y-149484184D01*
X308234184Y-149611737D01*
X308138211Y-149764476D01*
X308078631Y-149934745D01*
X308078630Y-149934750D01*
X308058435Y-150113996D01*
X289476026Y-150113996D01*
X289519277Y-149426534D01*
X289519711Y-149421365D01*
X289521670Y-149402724D01*
X289617678Y-148489262D01*
X289618322Y-148484169D01*
X289755234Y-147557001D01*
X289756100Y-147551883D01*
X289766140Y-147499254D01*
X289800335Y-147319996D01*
X298660435Y-147319996D01*
X298660435Y-147320003D01*
X298680630Y-147499249D01*
X298680631Y-147499254D01*
X298740211Y-147669523D01*
X298831047Y-147814086D01*
X298836184Y-147822262D01*
X298963738Y-147949816D01*
X299116478Y-148045789D01*
X299207926Y-148077788D01*
X299286745Y-148105368D01*
X299286750Y-148105369D01*
X299465996Y-148125565D01*
X299466000Y-148125565D01*
X299466004Y-148125565D01*
X299645249Y-148105369D01*
X299645252Y-148105368D01*
X299645255Y-148105368D01*
X299815522Y-148045789D01*
X299968262Y-147949816D01*
X300095816Y-147822262D01*
X300100951Y-147814088D01*
X300153281Y-147767798D01*
X300222334Y-147757146D01*
X300286184Y-147785517D01*
X300310938Y-147814084D01*
X300336184Y-147854262D01*
X300463738Y-147981816D01*
X300616478Y-148077789D01*
X300753014Y-148125565D01*
X300786745Y-148137368D01*
X300786750Y-148137369D01*
X300965996Y-148157565D01*
X300966000Y-148157565D01*
X300966004Y-148157565D01*
X301145249Y-148137369D01*
X301145252Y-148137368D01*
X301145255Y-148137368D01*
X301315522Y-148077789D01*
X301468262Y-147981816D01*
X301595816Y-147854262D01*
X301691789Y-147701522D01*
X301751368Y-147531255D01*
X301754974Y-147499254D01*
X301771565Y-147352003D01*
X301771565Y-147351996D01*
X301751369Y-147172750D01*
X301751368Y-147172745D01*
X301744081Y-147151920D01*
X301691789Y-147002478D01*
X301595816Y-146849738D01*
X301468262Y-146722184D01*
X301423132Y-146693827D01*
X301315523Y-146626211D01*
X301145254Y-146566631D01*
X301145249Y-146566630D01*
X300966004Y-146546435D01*
X300965996Y-146546435D01*
X300786750Y-146566630D01*
X300786745Y-146566631D01*
X300616476Y-146626211D01*
X300463737Y-146722184D01*
X300336182Y-146849739D01*
X300331045Y-146857916D01*
X300278709Y-146904206D01*
X300209655Y-146914852D01*
X300145807Y-146886475D01*
X300121059Y-146857912D01*
X300095818Y-146817740D01*
X299968262Y-146690184D01*
X299815523Y-146594211D01*
X299645254Y-146534631D01*
X299645249Y-146534630D01*
X299466004Y-146514435D01*
X299465996Y-146514435D01*
X299286750Y-146534630D01*
X299286745Y-146534631D01*
X299116476Y-146594211D01*
X298963737Y-146690184D01*
X298836184Y-146817737D01*
X298740211Y-146970476D01*
X298680631Y-147140745D01*
X298680630Y-147140750D01*
X298660435Y-147319996D01*
X289800335Y-147319996D01*
X289931717Y-146631267D01*
X289932792Y-146626211D01*
X290146808Y-145713747D01*
X290148095Y-145708739D01*
X290187063Y-145569172D01*
X290400133Y-144806039D01*
X290401611Y-144801145D01*
X290685745Y-143926670D01*
X290725183Y-143868995D01*
X290789541Y-143841797D01*
X290858388Y-143853712D01*
X290909863Y-143900956D01*
X290916056Y-143912580D01*
X290920703Y-143922546D01*
X290925965Y-143933830D01*
X290925967Y-143933834D01*
X290962129Y-143985478D01*
X291061501Y-144127396D01*
X291061506Y-144127402D01*
X291228597Y-144294493D01*
X291228603Y-144294498D01*
X291414594Y-144424730D01*
X291458219Y-144479307D01*
X291465413Y-144548805D01*
X291433890Y-144611160D01*
X291414595Y-144627880D01*
X291228922Y-144757890D01*
X291228920Y-144757891D01*
X291061891Y-144924920D01*
X291061886Y-144924926D01*
X290926400Y-145118420D01*
X290926399Y-145118422D01*
X290826570Y-145332507D01*
X290826567Y-145332513D01*
X290769364Y-145545999D01*
X290769364Y-145546000D01*
X291666988Y-145546000D01*
X291634075Y-145603007D01*
X291600000Y-145730174D01*
X291600000Y-145861826D01*
X291634075Y-145988993D01*
X291666988Y-146046000D01*
X290769364Y-146046000D01*
X290826567Y-146259486D01*
X290826570Y-146259492D01*
X290926399Y-146473578D01*
X291061894Y-146667082D01*
X291228917Y-146834105D01*
X291422421Y-146969600D01*
X291636507Y-147069429D01*
X291636516Y-147069433D01*
X291850000Y-147126634D01*
X291850000Y-146229012D01*
X291907007Y-146261925D01*
X292034174Y-146296000D01*
X292165826Y-146296000D01*
X292292993Y-146261925D01*
X292350000Y-146229012D01*
X292350000Y-147126633D01*
X292563483Y-147069433D01*
X292563492Y-147069429D01*
X292777578Y-146969600D01*
X292971078Y-146834108D01*
X293093521Y-146711665D01*
X293154844Y-146678180D01*
X293224536Y-146683164D01*
X293280470Y-146725035D01*
X293297385Y-146756013D01*
X293346645Y-146888086D01*
X293346649Y-146888093D01*
X293432809Y-147003187D01*
X293432812Y-147003190D01*
X293547906Y-147089350D01*
X293547913Y-147089354D01*
X293682620Y-147139596D01*
X293682627Y-147139598D01*
X293742155Y-147145999D01*
X293742172Y-147146000D01*
X294390000Y-147146000D01*
X294390000Y-146229012D01*
X294447007Y-146261925D01*
X294574174Y-146296000D01*
X294705826Y-146296000D01*
X294832993Y-146261925D01*
X294890000Y-146229012D01*
X294890000Y-147146000D01*
X295537828Y-147146000D01*
X295537844Y-147145999D01*
X295597372Y-147139598D01*
X295597379Y-147139596D01*
X295732086Y-147089354D01*
X295732093Y-147089350D01*
X295847187Y-147003190D01*
X295847190Y-147003187D01*
X295933350Y-146888093D01*
X295933354Y-146888086D01*
X295983596Y-146753379D01*
X295983598Y-146753372D01*
X295989999Y-146693844D01*
X295990000Y-146693827D01*
X295990000Y-146046000D01*
X295073012Y-146046000D01*
X295105925Y-145988993D01*
X295140000Y-145861826D01*
X295140000Y-145795996D01*
X310344435Y-145795996D01*
X310344435Y-145796003D01*
X310364630Y-145975249D01*
X310364631Y-145975254D01*
X310424211Y-146145523D01*
X310513488Y-146287606D01*
X310520184Y-146298262D01*
X310647738Y-146425816D01*
X310800478Y-146521789D01*
X310928626Y-146566630D01*
X310970745Y-146581368D01*
X310970750Y-146581369D01*
X311149996Y-146601565D01*
X311150000Y-146601565D01*
X311150004Y-146601565D01*
X311329249Y-146581369D01*
X311329252Y-146581368D01*
X311329255Y-146581368D01*
X311499522Y-146521789D01*
X311652262Y-146425816D01*
X311779816Y-146298262D01*
X311875789Y-146145522D01*
X311935368Y-145975255D01*
X311946671Y-145874934D01*
X311973737Y-145810520D01*
X312031331Y-145770965D01*
X312101168Y-145768826D01*
X312161075Y-145804784D01*
X312186932Y-145847861D01*
X312202209Y-145891520D01*
X312298184Y-146044262D01*
X312425737Y-146171815D01*
X312425740Y-146171817D01*
X312469011Y-146199007D01*
X312515302Y-146251342D01*
X312525949Y-146320395D01*
X312497574Y-146384244D01*
X312469011Y-146408993D01*
X312425740Y-146436182D01*
X312425737Y-146436184D01*
X312298184Y-146563737D01*
X312202211Y-146716476D01*
X312142631Y-146886745D01*
X312142630Y-146886750D01*
X312122435Y-147065996D01*
X312122435Y-147066003D01*
X312142630Y-147245249D01*
X312142631Y-147245254D01*
X312202211Y-147415523D01*
X312250596Y-147492526D01*
X312298184Y-147568262D01*
X312425738Y-147695816D01*
X312434821Y-147701523D01*
X312540296Y-147767798D01*
X312578478Y-147791789D01*
X312665565Y-147822262D01*
X312748745Y-147851368D01*
X312748750Y-147851369D01*
X312927996Y-147871565D01*
X312928000Y-147871565D01*
X312928004Y-147871565D01*
X313107249Y-147851369D01*
X313107252Y-147851368D01*
X313107255Y-147851368D01*
X313277522Y-147791789D01*
X313430262Y-147695816D01*
X313557816Y-147568262D01*
X313653789Y-147415522D01*
X313713368Y-147245255D01*
X313717832Y-147205636D01*
X313733565Y-147066003D01*
X313733565Y-147065996D01*
X313713369Y-146886750D01*
X313713368Y-146886745D01*
X313695390Y-146835368D01*
X313653789Y-146716478D01*
X313639556Y-146693827D01*
X313568894Y-146581369D01*
X313557816Y-146563738D01*
X313430262Y-146436184D01*
X313386988Y-146408993D01*
X313340698Y-146356659D01*
X313330050Y-146287606D01*
X313358425Y-146223757D01*
X313386989Y-146199006D01*
X313430262Y-146171816D01*
X313552082Y-146049996D01*
X313900435Y-146049996D01*
X313900435Y-146050003D01*
X313920630Y-146229249D01*
X313920631Y-146229254D01*
X313980211Y-146399523D01*
X314065105Y-146534630D01*
X314076184Y-146552262D01*
X314203738Y-146679816D01*
X314262082Y-146716476D01*
X314320801Y-146753372D01*
X314356478Y-146775789D01*
X314476367Y-146817740D01*
X314526745Y-146835368D01*
X314526750Y-146835369D01*
X314705996Y-146855565D01*
X314706000Y-146855565D01*
X314706004Y-146855565D01*
X314885249Y-146835369D01*
X314885252Y-146835368D01*
X314885255Y-146835368D01*
X315055522Y-146775789D01*
X315208262Y-146679816D01*
X315335816Y-146552262D01*
X315431789Y-146399522D01*
X315491368Y-146229255D01*
X315491988Y-146223757D01*
X315500802Y-146145522D01*
X315502671Y-146128934D01*
X315529737Y-146064520D01*
X315587331Y-146024965D01*
X315657168Y-146022826D01*
X315717075Y-146058784D01*
X315742932Y-146101861D01*
X315758209Y-146145520D01*
X315847488Y-146287606D01*
X315854184Y-146298262D01*
X315981738Y-146425816D01*
X316134478Y-146521789D01*
X316262626Y-146566630D01*
X316304745Y-146581368D01*
X316304750Y-146581369D01*
X316483996Y-146601565D01*
X316484000Y-146601565D01*
X316484004Y-146601565D01*
X316663249Y-146581369D01*
X316663252Y-146581368D01*
X316663255Y-146581368D01*
X316833522Y-146521789D01*
X316986262Y-146425816D01*
X317113816Y-146298262D01*
X317209789Y-146145522D01*
X317269368Y-145975255D01*
X317278176Y-145897081D01*
X317289565Y-145796003D01*
X317289565Y-145795996D01*
X317269369Y-145616750D01*
X317269368Y-145616745D01*
X317243214Y-145542002D01*
X317209789Y-145446478D01*
X317207039Y-145442102D01*
X317157179Y-145362750D01*
X317113816Y-145293738D01*
X316986262Y-145166184D01*
X316913348Y-145120369D01*
X316833523Y-145070211D01*
X316663254Y-145010631D01*
X316663249Y-145010630D01*
X316484004Y-144990435D01*
X316483996Y-144990435D01*
X316304750Y-145010630D01*
X316304745Y-145010631D01*
X316134476Y-145070211D01*
X315981737Y-145166184D01*
X315854184Y-145293737D01*
X315758211Y-145446476D01*
X315698631Y-145616745D01*
X315698630Y-145616749D01*
X315687328Y-145717066D01*
X315660262Y-145781480D01*
X315602667Y-145821035D01*
X315532830Y-145823172D01*
X315472923Y-145787214D01*
X315447067Y-145744137D01*
X315431790Y-145700480D01*
X315423660Y-145687541D01*
X315335816Y-145547738D01*
X315208262Y-145420184D01*
X315169616Y-145395901D01*
X315055523Y-145324211D01*
X314885254Y-145264631D01*
X314885249Y-145264630D01*
X314706004Y-145244435D01*
X314705996Y-145244435D01*
X314526750Y-145264630D01*
X314526745Y-145264631D01*
X314356476Y-145324211D01*
X314203737Y-145420184D01*
X314076184Y-145547737D01*
X313980209Y-145700479D01*
X313953571Y-145776606D01*
X313913943Y-145831855D01*
X313921308Y-145862670D01*
X313920689Y-145870232D01*
X313900435Y-146049996D01*
X313552082Y-146049996D01*
X313557816Y-146044262D01*
X313653789Y-145891522D01*
X313680427Y-145815395D01*
X313720055Y-145760143D01*
X313712691Y-145729327D01*
X313713310Y-145721766D01*
X313714496Y-145711247D01*
X313726691Y-145603007D01*
X313733565Y-145542002D01*
X313733565Y-145541996D01*
X313713369Y-145362750D01*
X313713368Y-145362745D01*
X313679036Y-145264630D01*
X313653789Y-145192478D01*
X313637267Y-145166184D01*
X313581584Y-145077565D01*
X313557816Y-145039738D01*
X313430262Y-144912184D01*
X313425704Y-144909320D01*
X313277523Y-144816211D01*
X313107254Y-144756631D01*
X313107249Y-144756630D01*
X312928004Y-144736435D01*
X312927996Y-144736435D01*
X312748750Y-144756630D01*
X312748745Y-144756631D01*
X312578476Y-144816211D01*
X312425737Y-144912184D01*
X312298184Y-145039737D01*
X312202211Y-145192476D01*
X312142631Y-145362745D01*
X312142630Y-145362749D01*
X312131328Y-145463066D01*
X312104262Y-145527480D01*
X312046667Y-145567035D01*
X311976830Y-145569172D01*
X311916923Y-145533214D01*
X311891067Y-145490137D01*
X311875790Y-145446480D01*
X311875789Y-145446478D01*
X311779816Y-145293738D01*
X311652262Y-145166184D01*
X311579348Y-145120369D01*
X311499523Y-145070211D01*
X311329254Y-145010631D01*
X311329249Y-145010630D01*
X311150004Y-144990435D01*
X311149996Y-144990435D01*
X310970750Y-145010630D01*
X310970745Y-145010631D01*
X310800476Y-145070211D01*
X310647737Y-145166184D01*
X310520184Y-145293737D01*
X310424211Y-145446476D01*
X310364631Y-145616745D01*
X310364630Y-145616750D01*
X310344435Y-145795996D01*
X295140000Y-145795996D01*
X295140000Y-145730174D01*
X295105925Y-145603007D01*
X295073012Y-145546000D01*
X295990000Y-145546000D01*
X295990000Y-144898172D01*
X295989999Y-144898155D01*
X295983598Y-144838627D01*
X295983596Y-144838620D01*
X295933354Y-144703913D01*
X295933350Y-144703906D01*
X295847190Y-144588812D01*
X295847187Y-144588809D01*
X295732093Y-144502649D01*
X295732088Y-144502646D01*
X295600528Y-144453577D01*
X295544595Y-144411705D01*
X295520178Y-144346241D01*
X295535030Y-144277968D01*
X295556175Y-144249720D01*
X295678495Y-144127401D01*
X295814035Y-143933830D01*
X295913903Y-143719663D01*
X295975063Y-143491408D01*
X295995659Y-143256000D01*
X295975063Y-143020592D01*
X295919774Y-142814249D01*
X295913905Y-142792344D01*
X295913904Y-142792343D01*
X295913903Y-142792337D01*
X295863849Y-142684996D01*
X304248435Y-142684996D01*
X304248435Y-142685003D01*
X304268630Y-142864249D01*
X304268631Y-142864254D01*
X304328211Y-143034523D01*
X304392767Y-143137262D01*
X304424184Y-143187262D01*
X304551738Y-143314816D01*
X304624902Y-143360788D01*
X304695274Y-143405006D01*
X304741565Y-143457341D01*
X304752213Y-143526395D01*
X304723838Y-143590243D01*
X304695274Y-143614994D01*
X304551737Y-143705184D01*
X304424184Y-143832737D01*
X304328211Y-143985476D01*
X304268631Y-144155745D01*
X304268630Y-144155750D01*
X304248435Y-144334996D01*
X304248435Y-144335003D01*
X304268630Y-144514249D01*
X304268631Y-144514254D01*
X304328211Y-144684523D01*
X304374311Y-144757890D01*
X304424184Y-144837262D01*
X304551738Y-144964816D01*
X304624652Y-145010631D01*
X304699033Y-145057368D01*
X304704478Y-145060789D01*
X304856546Y-145114000D01*
X304874745Y-145120368D01*
X304874750Y-145120369D01*
X305053996Y-145140565D01*
X305054000Y-145140565D01*
X305054004Y-145140565D01*
X305233249Y-145120369D01*
X305233252Y-145120368D01*
X305233255Y-145120368D01*
X305403522Y-145060789D01*
X305556262Y-144964816D01*
X305683816Y-144837262D01*
X305779789Y-144684522D01*
X305839368Y-144514255D01*
X305846205Y-144453577D01*
X305859565Y-144335003D01*
X305859565Y-144334996D01*
X305852467Y-144271996D01*
X307804435Y-144271996D01*
X307804435Y-144272003D01*
X307824630Y-144451249D01*
X307824631Y-144451254D01*
X307884211Y-144621523D01*
X307956416Y-144736435D01*
X307980184Y-144774262D01*
X308107738Y-144901816D01*
X308260478Y-144997789D01*
X308427087Y-145056088D01*
X308430745Y-145057368D01*
X308430750Y-145057369D01*
X308609996Y-145077565D01*
X308610000Y-145077565D01*
X308610004Y-145077565D01*
X308789249Y-145057369D01*
X308789252Y-145057368D01*
X308789255Y-145057368D01*
X308959522Y-144997789D01*
X309112262Y-144901816D01*
X309239816Y-144774262D01*
X309335789Y-144621522D01*
X309395368Y-144451255D01*
X309396473Y-144441449D01*
X309415565Y-144272003D01*
X309415565Y-144271996D01*
X309397763Y-144113999D01*
X330543464Y-144113999D01*
X330543464Y-144114000D01*
X330563564Y-144330918D01*
X330563564Y-144330920D01*
X330563565Y-144330923D01*
X330620180Y-144529903D01*
X330623184Y-144540462D01*
X330720288Y-144735472D01*
X330851574Y-144909324D01*
X330975572Y-145022363D01*
X331011854Y-145082074D01*
X331010093Y-145151922D01*
X330975572Y-145205637D01*
X330851574Y-145318675D01*
X330720288Y-145492527D01*
X330623184Y-145687537D01*
X330613445Y-145721766D01*
X330586806Y-145815395D01*
X330563564Y-145897081D01*
X330543464Y-146113999D01*
X330543464Y-146114000D01*
X330563564Y-146330918D01*
X330563564Y-146330920D01*
X330563565Y-146330923D01*
X330604154Y-146473578D01*
X330623184Y-146540462D01*
X330720288Y-146735472D01*
X330851574Y-146909324D01*
X330975572Y-147022362D01*
X331011854Y-147082073D01*
X331010093Y-147151920D01*
X330975572Y-147205636D01*
X330851574Y-147318674D01*
X330720288Y-147492526D01*
X330623184Y-147687536D01*
X330603378Y-147757146D01*
X330570824Y-147871565D01*
X330563564Y-147897080D01*
X330543464Y-148113998D01*
X330543464Y-148113999D01*
X330563564Y-148330917D01*
X330563564Y-148330919D01*
X330563565Y-148330922D01*
X330608625Y-148489292D01*
X330623184Y-148540461D01*
X330720288Y-148735471D01*
X330802049Y-148843740D01*
X330826741Y-148909101D01*
X330812176Y-148977436D01*
X330777407Y-149017733D01*
X330691809Y-149081812D01*
X330605649Y-149196906D01*
X330605645Y-149196913D01*
X330555403Y-149331620D01*
X330555401Y-149331627D01*
X330549000Y-149391155D01*
X330549000Y-149864000D01*
X331408314Y-149864000D01*
X331403920Y-149868394D01*
X331351259Y-149959606D01*
X331324000Y-150061339D01*
X331324000Y-150166661D01*
X331351259Y-150268394D01*
X331403920Y-150359606D01*
X331408314Y-150364000D01*
X330549000Y-150364000D01*
X330549000Y-150836844D01*
X330555401Y-150896372D01*
X330555403Y-150896379D01*
X330605645Y-151031086D01*
X330605649Y-151031093D01*
X330691809Y-151146187D01*
X330691812Y-151146190D01*
X330806906Y-151232350D01*
X330806913Y-151232354D01*
X330941620Y-151282596D01*
X330941627Y-151282598D01*
X331001155Y-151288999D01*
X331001172Y-151289000D01*
X331474000Y-151289000D01*
X331474000Y-150429686D01*
X331478394Y-150434080D01*
X331569606Y-150486741D01*
X331671339Y-150514000D01*
X331776661Y-150514000D01*
X331878394Y-150486741D01*
X331969606Y-150434080D01*
X331974000Y-150429686D01*
X331974000Y-151289000D01*
X332446828Y-151289000D01*
X332446844Y-151288999D01*
X332506372Y-151282598D01*
X332506379Y-151282596D01*
X332641086Y-151232354D01*
X332641093Y-151232350D01*
X332756187Y-151146190D01*
X332756190Y-151146187D01*
X332842350Y-151031093D01*
X332842354Y-151031086D01*
X332892596Y-150896379D01*
X332892598Y-150896372D01*
X332898999Y-150836844D01*
X332899000Y-150836827D01*
X332899000Y-150364000D01*
X332039686Y-150364000D01*
X332044080Y-150359606D01*
X332096741Y-150268394D01*
X332124000Y-150166661D01*
X332124000Y-150061339D01*
X332096741Y-149959606D01*
X332044080Y-149868394D01*
X332039686Y-149864000D01*
X332899000Y-149864000D01*
X332899000Y-149391172D01*
X332898999Y-149391155D01*
X332892598Y-149331627D01*
X332892596Y-149331620D01*
X332842354Y-149196913D01*
X332842350Y-149196906D01*
X332756190Y-149081812D01*
X332756187Y-149081809D01*
X332670593Y-149017733D01*
X332628722Y-148961799D01*
X332623738Y-148892108D01*
X332645947Y-148843744D01*
X332727712Y-148735471D01*
X332824817Y-148540458D01*
X332884435Y-148330922D01*
X332904536Y-148113999D01*
X332884435Y-147897076D01*
X332824817Y-147687540D01*
X332727712Y-147492527D01*
X332621588Y-147351996D01*
X332596425Y-147318674D01*
X332472427Y-147205636D01*
X332436145Y-147145925D01*
X332437906Y-147076078D01*
X332472424Y-147022365D01*
X332596427Y-146909322D01*
X332727712Y-146735472D01*
X332824817Y-146540459D01*
X332884435Y-146330923D01*
X332904536Y-146114000D01*
X332884435Y-145897077D01*
X332824817Y-145687541D01*
X332727712Y-145492528D01*
X332596427Y-145318678D01*
X332472423Y-145205634D01*
X332436145Y-145145927D01*
X332437905Y-145076079D01*
X332472423Y-145022365D01*
X332596427Y-144909322D01*
X332727712Y-144735472D01*
X332824817Y-144540459D01*
X332884435Y-144330923D01*
X332904536Y-144114000D01*
X332884435Y-143897077D01*
X332824817Y-143687541D01*
X332727712Y-143492528D01*
X332596427Y-143318678D01*
X332592189Y-143314815D01*
X332435433Y-143171913D01*
X332435423Y-143171906D01*
X332250213Y-143057229D01*
X332250207Y-143057226D01*
X332155627Y-143020586D01*
X332047069Y-142978530D01*
X331832926Y-142938500D01*
X331615074Y-142938500D01*
X331400931Y-142978530D01*
X331352130Y-142997435D01*
X331197792Y-143057226D01*
X331197786Y-143057229D01*
X331012576Y-143171906D01*
X331012566Y-143171913D01*
X330851574Y-143318676D01*
X330720288Y-143492527D01*
X330623184Y-143687537D01*
X330614043Y-143719664D01*
X330579294Y-143841797D01*
X330563564Y-143897081D01*
X330543464Y-144113999D01*
X309397763Y-144113999D01*
X309395369Y-144092750D01*
X309395368Y-144092745D01*
X309335789Y-143922478D01*
X309319828Y-143897077D01*
X309285094Y-143841797D01*
X309239816Y-143769738D01*
X309112262Y-143642184D01*
X308959523Y-143546211D01*
X308789254Y-143486631D01*
X308789249Y-143486630D01*
X308610004Y-143466435D01*
X308609996Y-143466435D01*
X308430750Y-143486630D01*
X308430745Y-143486631D01*
X308260476Y-143546211D01*
X308107737Y-143642184D01*
X307980184Y-143769737D01*
X307884211Y-143922476D01*
X307824631Y-144092745D01*
X307824630Y-144092750D01*
X307804435Y-144271996D01*
X305852467Y-144271996D01*
X305839369Y-144155750D01*
X305839368Y-144155745D01*
X305779788Y-143985476D01*
X305683815Y-143832737D01*
X305556262Y-143705184D01*
X305455998Y-143642184D01*
X305412724Y-143614993D01*
X305366434Y-143562659D01*
X305355786Y-143493606D01*
X305384161Y-143429757D01*
X305412723Y-143405007D01*
X305556262Y-143314816D01*
X305683816Y-143187262D01*
X305779789Y-143034522D01*
X305839368Y-142864255D01*
X305845002Y-142814254D01*
X305859565Y-142685003D01*
X305859565Y-142684996D01*
X305839369Y-142505750D01*
X305839368Y-142505745D01*
X305807551Y-142414817D01*
X305779789Y-142335478D01*
X305774956Y-142327787D01*
X305734479Y-142263368D01*
X305683816Y-142182738D01*
X305556262Y-142055184D01*
X305476688Y-142005184D01*
X305403523Y-141959211D01*
X305233254Y-141899631D01*
X305233249Y-141899630D01*
X305054004Y-141879435D01*
X305053996Y-141879435D01*
X304874750Y-141899630D01*
X304874745Y-141899631D01*
X304704476Y-141959211D01*
X304551737Y-142055184D01*
X304424184Y-142182737D01*
X304328211Y-142335476D01*
X304268631Y-142505745D01*
X304268630Y-142505750D01*
X304248435Y-142684996D01*
X295863849Y-142684996D01*
X295814035Y-142578171D01*
X295808425Y-142570158D01*
X295678494Y-142384597D01*
X295511402Y-142217506D01*
X295511395Y-142217501D01*
X295503834Y-142212207D01*
X295422525Y-142155273D01*
X295317834Y-142081967D01*
X295317830Y-142081965D01*
X295260398Y-142055184D01*
X295103663Y-141982097D01*
X295103659Y-141982096D01*
X295103655Y-141982094D01*
X294875413Y-141920938D01*
X294875403Y-141920936D01*
X294640001Y-141900341D01*
X294639999Y-141900341D01*
X294404596Y-141920936D01*
X294404586Y-141920938D01*
X294176344Y-141982094D01*
X294176335Y-141982098D01*
X293962171Y-142081964D01*
X293962169Y-142081965D01*
X293768597Y-142217505D01*
X293601505Y-142384597D01*
X293471575Y-142570158D01*
X293416998Y-142613783D01*
X293347500Y-142620977D01*
X293285145Y-142589454D01*
X293268425Y-142570158D01*
X293145073Y-142393993D01*
X293122746Y-142327787D01*
X293139756Y-142260020D01*
X293190704Y-142212207D01*
X293205699Y-142205827D01*
X293211520Y-142203790D01*
X293245024Y-142182738D01*
X293364262Y-142107816D01*
X293491816Y-141980262D01*
X293587789Y-141827522D01*
X293621215Y-141731996D01*
X306026435Y-141731996D01*
X306026435Y-141732003D01*
X306046630Y-141911249D01*
X306046631Y-141911254D01*
X306106211Y-142081523D01*
X306183037Y-142203790D01*
X306202184Y-142234262D01*
X306329738Y-142361816D01*
X306482478Y-142457789D01*
X306619543Y-142505750D01*
X306652745Y-142517368D01*
X306652750Y-142517369D01*
X306831996Y-142537565D01*
X306832000Y-142537565D01*
X306832004Y-142537565D01*
X307011249Y-142517369D01*
X307011252Y-142517368D01*
X307011255Y-142517368D01*
X307011256Y-142517367D01*
X307011259Y-142517367D01*
X307044472Y-142505745D01*
X307135745Y-142473806D01*
X307205521Y-142470244D01*
X307242670Y-142485855D01*
X307373214Y-142567882D01*
X307373218Y-142567883D01*
X307373219Y-142567884D01*
X307504391Y-142613783D01*
X307543486Y-142627463D01*
X307543491Y-142627464D01*
X307722737Y-142647660D01*
X307722741Y-142647660D01*
X307722745Y-142647660D01*
X307835141Y-142634996D01*
X309582435Y-142634996D01*
X309582435Y-142635003D01*
X309602630Y-142814249D01*
X309602631Y-142814254D01*
X309662211Y-142984523D01*
X309707894Y-143057226D01*
X309758184Y-143137262D01*
X309885738Y-143264816D01*
X310038478Y-143360789D01*
X310164843Y-143405006D01*
X310208745Y-143420368D01*
X310208750Y-143420369D01*
X310387996Y-143440565D01*
X310388000Y-143440565D01*
X310388004Y-143440565D01*
X310567249Y-143420369D01*
X310567252Y-143420368D01*
X310567255Y-143420368D01*
X310737522Y-143360789D01*
X310890262Y-143264816D01*
X311017816Y-143137262D01*
X311113789Y-142984522D01*
X311159958Y-142852579D01*
X311200680Y-142795802D01*
X311265633Y-142770055D01*
X311334194Y-142783511D01*
X311384597Y-142831898D01*
X311394042Y-142852579D01*
X311440210Y-142984521D01*
X311485894Y-143057226D01*
X311536184Y-143137262D01*
X311663738Y-143264816D01*
X311816478Y-143360789D01*
X311942843Y-143405006D01*
X311986745Y-143420368D01*
X311986750Y-143420369D01*
X312165996Y-143440565D01*
X312166000Y-143440565D01*
X312166004Y-143440565D01*
X312345249Y-143420369D01*
X312345252Y-143420368D01*
X312345255Y-143420368D01*
X312515522Y-143360789D01*
X312668262Y-143264816D01*
X312795816Y-143137262D01*
X312891789Y-142984522D01*
X312951368Y-142814255D01*
X312965932Y-142685000D01*
X312972173Y-142629606D01*
X312999239Y-142565192D01*
X313056834Y-142525637D01*
X313081505Y-142520269D01*
X313107255Y-142517368D01*
X313107258Y-142517367D01*
X313107262Y-142517366D01*
X313231745Y-142473807D01*
X313275918Y-142458349D01*
X313345696Y-142454787D01*
X313376538Y-142467746D01*
X313376683Y-142467446D01*
X313382567Y-142470279D01*
X313382839Y-142470394D01*
X313382950Y-142470464D01*
X313553223Y-142530045D01*
X313553228Y-142530046D01*
X313732474Y-142550242D01*
X313732478Y-142550242D01*
X313732482Y-142550242D01*
X313911727Y-142530046D01*
X313911730Y-142530045D01*
X313911733Y-142530045D01*
X314082000Y-142470466D01*
X314234740Y-142374493D01*
X314362294Y-142246939D01*
X314458267Y-142094199D01*
X314517846Y-141923932D01*
X314517847Y-141923926D01*
X314538043Y-141744680D01*
X314538043Y-141744673D01*
X314517847Y-141565427D01*
X314516296Y-141558630D01*
X314518389Y-141558152D01*
X314515343Y-141498715D01*
X314550059Y-141438080D01*
X314612046Y-141405839D01*
X314681623Y-141412230D01*
X314736700Y-141455221D01*
X314740944Y-141461537D01*
X314747680Y-141472257D01*
X314747684Y-141472262D01*
X314875238Y-141599816D01*
X315027978Y-141695789D01*
X315198245Y-141755368D01*
X315198250Y-141755369D01*
X315377496Y-141775565D01*
X315377500Y-141775565D01*
X315377504Y-141775565D01*
X315556749Y-141755369D01*
X315556752Y-141755368D01*
X315556755Y-141755368D01*
X315623548Y-141731996D01*
X316694435Y-141731996D01*
X316694435Y-141732003D01*
X316714630Y-141911249D01*
X316714631Y-141911254D01*
X316774211Y-142081523D01*
X316851037Y-142203790D01*
X316870184Y-142234262D01*
X316997738Y-142361816D01*
X317150478Y-142457789D01*
X317287543Y-142505750D01*
X317320745Y-142517368D01*
X317320750Y-142517369D01*
X317499996Y-142537565D01*
X317500000Y-142537565D01*
X317500004Y-142537565D01*
X317679249Y-142517369D01*
X317679252Y-142517368D01*
X317679255Y-142517368D01*
X317849522Y-142457789D01*
X318002262Y-142361816D01*
X318129816Y-142234262D01*
X318225789Y-142081522D01*
X318285368Y-141911255D01*
X318285369Y-141911249D01*
X318305565Y-141732003D01*
X318305565Y-141731996D01*
X318285369Y-141552750D01*
X318285368Y-141552745D01*
X318259215Y-141478003D01*
X318225789Y-141382478D01*
X318129816Y-141229738D01*
X318002262Y-141102184D01*
X317967324Y-141080231D01*
X317849523Y-141006211D01*
X317679254Y-140946631D01*
X317679249Y-140946630D01*
X317500004Y-140926435D01*
X317499996Y-140926435D01*
X317320750Y-140946630D01*
X317320745Y-140946631D01*
X317150476Y-141006211D01*
X316997737Y-141102184D01*
X316870184Y-141229737D01*
X316774211Y-141382476D01*
X316714631Y-141552745D01*
X316714630Y-141552750D01*
X316694435Y-141731996D01*
X315623548Y-141731996D01*
X315727022Y-141695789D01*
X315879762Y-141599816D01*
X316007316Y-141472262D01*
X316103289Y-141319522D01*
X316162868Y-141149255D01*
X316162869Y-141149249D01*
X316183065Y-140970003D01*
X316183065Y-140969996D01*
X316162869Y-140790750D01*
X316162868Y-140790745D01*
X316136715Y-140716003D01*
X316103289Y-140620478D01*
X316007316Y-140467738D01*
X315879762Y-140340184D01*
X315727023Y-140244211D01*
X315556754Y-140184631D01*
X315556749Y-140184630D01*
X315377504Y-140164435D01*
X315377496Y-140164435D01*
X315198250Y-140184630D01*
X315198245Y-140184631D01*
X315027976Y-140244211D01*
X314875237Y-140340184D01*
X314747684Y-140467737D01*
X314651711Y-140620476D01*
X314592131Y-140790745D01*
X314592130Y-140790750D01*
X314571935Y-140969996D01*
X314571935Y-140970003D01*
X314592130Y-141149249D01*
X314593682Y-141156047D01*
X314591590Y-141156524D01*
X314594629Y-141215981D01*
X314559903Y-141276610D01*
X314497911Y-141308840D01*
X314428335Y-141302439D01*
X314373265Y-141259438D01*
X314369032Y-141253137D01*
X314362297Y-141242419D01*
X314362293Y-141242414D01*
X314234740Y-141114861D01*
X314082001Y-141018888D01*
X313911732Y-140959308D01*
X313911727Y-140959307D01*
X313732482Y-140939112D01*
X313732474Y-140939112D01*
X313553228Y-140959307D01*
X313553220Y-140959309D01*
X313384557Y-141018327D01*
X313314779Y-141021888D01*
X313283938Y-141008930D01*
X313283794Y-141009231D01*
X313277921Y-141006402D01*
X313277641Y-141006285D01*
X313277523Y-141006211D01*
X313277521Y-141006210D01*
X313107262Y-140946633D01*
X313107249Y-140946630D01*
X312928004Y-140926435D01*
X312927996Y-140926435D01*
X312748750Y-140946630D01*
X312748745Y-140946631D01*
X312578476Y-141006211D01*
X312425737Y-141102184D01*
X312298184Y-141229737D01*
X312298182Y-141229740D01*
X312270993Y-141273011D01*
X312218658Y-141319302D01*
X312149605Y-141329949D01*
X312085756Y-141301574D01*
X312061007Y-141273011D01*
X312033817Y-141229740D01*
X312033815Y-141229737D01*
X311906262Y-141102184D01*
X311753523Y-141006211D01*
X311583254Y-140946631D01*
X311583249Y-140946630D01*
X311404004Y-140926435D01*
X311403996Y-140926435D01*
X311224750Y-140946630D01*
X311224745Y-140946631D01*
X311054476Y-141006211D01*
X310901737Y-141102184D01*
X310774184Y-141229737D01*
X310678211Y-141382476D01*
X310618631Y-141552745D01*
X310618630Y-141552749D01*
X310598839Y-141728406D01*
X310571772Y-141792820D01*
X310514177Y-141832375D01*
X310461736Y-141837742D01*
X310388004Y-141829435D01*
X310387996Y-141829435D01*
X310208750Y-141849630D01*
X310208745Y-141849631D01*
X310038476Y-141909211D01*
X309885737Y-142005184D01*
X309758184Y-142132737D01*
X309662211Y-142285476D01*
X309602631Y-142455745D01*
X309602630Y-142455750D01*
X309582435Y-142634996D01*
X307835141Y-142634996D01*
X307901990Y-142627464D01*
X307901993Y-142627463D01*
X307901996Y-142627463D01*
X308072263Y-142567884D01*
X308129675Y-142531809D01*
X308196908Y-142512809D01*
X308236600Y-142519762D01*
X308381218Y-142570367D01*
X308381224Y-142570368D01*
X308381226Y-142570369D01*
X308381227Y-142570369D01*
X308381231Y-142570370D01*
X308560477Y-142590566D01*
X308560481Y-142590566D01*
X308560485Y-142590566D01*
X308739730Y-142570370D01*
X308739733Y-142570369D01*
X308739736Y-142570369D01*
X308910003Y-142510790D01*
X309062743Y-142414817D01*
X309190297Y-142287263D01*
X309286270Y-142134523D01*
X309345849Y-141964256D01*
X309345974Y-141963151D01*
X309366046Y-141785004D01*
X309366046Y-141784997D01*
X309345850Y-141605751D01*
X309345849Y-141605746D01*
X309327305Y-141552750D01*
X309286270Y-141435479D01*
X309190297Y-141282739D01*
X309062743Y-141155185D01*
X308910004Y-141059212D01*
X308739735Y-140999632D01*
X308739730Y-140999631D01*
X308560485Y-140979436D01*
X308560477Y-140979436D01*
X308381231Y-140999631D01*
X308381218Y-140999634D01*
X308210963Y-141059209D01*
X308153547Y-141095286D01*
X308086310Y-141114285D01*
X308046622Y-141107333D01*
X307901998Y-141056727D01*
X307901990Y-141056725D01*
X307722745Y-141036530D01*
X307722737Y-141036530D01*
X307543491Y-141056725D01*
X307543483Y-141056727D01*
X307418995Y-141100287D01*
X307349216Y-141103848D01*
X307312069Y-141088239D01*
X307181523Y-141006211D01*
X307011254Y-140946631D01*
X307011249Y-140946630D01*
X306832004Y-140926435D01*
X306831996Y-140926435D01*
X306652750Y-140946630D01*
X306652745Y-140946631D01*
X306482476Y-141006211D01*
X306329737Y-141102184D01*
X306202184Y-141229737D01*
X306106211Y-141382476D01*
X306046631Y-141552745D01*
X306046630Y-141552750D01*
X306026435Y-141731996D01*
X293621215Y-141731996D01*
X293647368Y-141657255D01*
X293653840Y-141599815D01*
X293667565Y-141478003D01*
X293667565Y-141477996D01*
X293647369Y-141298750D01*
X293647368Y-141298745D01*
X293619206Y-141218262D01*
X293587789Y-141128478D01*
X293571267Y-141102184D01*
X293510963Y-141006210D01*
X293491816Y-140975738D01*
X293364262Y-140848184D01*
X293289698Y-140801332D01*
X293211523Y-140752211D01*
X293041254Y-140692631D01*
X293041249Y-140692630D01*
X292862004Y-140672435D01*
X292861996Y-140672435D01*
X292682750Y-140692630D01*
X292682745Y-140692631D01*
X292512476Y-140752211D01*
X292359739Y-140848183D01*
X292230276Y-140977646D01*
X292168953Y-141011130D01*
X292099261Y-141006146D01*
X292043328Y-140964274D01*
X292018911Y-140898810D01*
X292032705Y-140832517D01*
X292222378Y-140469706D01*
X292224856Y-140465199D01*
X292693466Y-139653542D01*
X292696147Y-139649117D01*
X292963267Y-139228203D01*
X293198341Y-138857783D01*
X293201185Y-138853503D01*
X293736093Y-138083871D01*
X293739103Y-138079729D01*
X293986640Y-137753611D01*
X296704505Y-137753611D01*
X296704505Y-137989620D01*
X296704506Y-137989636D01*
X296735311Y-138223626D01*
X296796399Y-138451609D01*
X296886719Y-138669661D01*
X296886724Y-138669672D01*
X296957682Y-138792573D01*
X297004732Y-138874066D01*
X297004734Y-138874069D01*
X297004735Y-138874070D01*
X297148411Y-139061313D01*
X297148417Y-139061320D01*
X297315300Y-139228203D01*
X297315306Y-139228208D01*
X297502555Y-139371889D01*
X297630912Y-139445996D01*
X297706948Y-139489896D01*
X297706953Y-139489898D01*
X297706956Y-139489900D01*
X297925012Y-139580222D01*
X298152991Y-139641309D01*
X298386994Y-139672116D01*
X298387001Y-139672116D01*
X298623009Y-139672116D01*
X298623016Y-139672116D01*
X298857019Y-139641309D01*
X299084998Y-139580222D01*
X299303054Y-139489900D01*
X299507455Y-139371889D01*
X299694704Y-139228208D01*
X299861597Y-139061315D01*
X300005278Y-138874066D01*
X300115015Y-138683996D01*
X317901435Y-138683996D01*
X317901435Y-138684003D01*
X317921630Y-138863249D01*
X317921631Y-138863254D01*
X317981211Y-139033523D01*
X318020769Y-139096478D01*
X318077184Y-139186262D01*
X318204738Y-139313816D01*
X318357478Y-139409789D01*
X318460952Y-139445996D01*
X318527745Y-139469368D01*
X318527750Y-139469369D01*
X318612230Y-139478887D01*
X318633389Y-139481271D01*
X318697804Y-139508337D01*
X318737359Y-139565931D01*
X318742727Y-139590606D01*
X318746630Y-139625249D01*
X318746631Y-139625254D01*
X318746632Y-139625255D01*
X318752250Y-139641309D01*
X318806210Y-139795521D01*
X318806211Y-139795522D01*
X318902184Y-139948262D01*
X319029738Y-140075816D01*
X319182478Y-140171789D01*
X319219175Y-140184630D01*
X319282691Y-140206855D01*
X319339467Y-140247577D01*
X319365215Y-140312529D01*
X319358779Y-140364851D01*
X319298632Y-140536742D01*
X319298630Y-140536750D01*
X319278435Y-140715996D01*
X319278435Y-140716003D01*
X319298630Y-140895249D01*
X319298631Y-140895254D01*
X319358211Y-141065523D01*
X319415391Y-141156524D01*
X319454184Y-141218262D01*
X319581738Y-141345816D01*
X319672080Y-141402582D01*
X319724435Y-141435479D01*
X319734478Y-141441789D01*
X319790915Y-141461537D01*
X319904745Y-141501368D01*
X319904750Y-141501369D01*
X320083996Y-141521565D01*
X320084000Y-141521565D01*
X320084004Y-141521565D01*
X320263249Y-141501369D01*
X320263252Y-141501368D01*
X320263255Y-141501368D01*
X320433522Y-141441789D01*
X320586262Y-141345816D01*
X320713816Y-141218262D01*
X320809789Y-141065522D01*
X320869368Y-140895255D01*
X320876437Y-140832515D01*
X320889565Y-140716003D01*
X320889565Y-140715996D01*
X320869369Y-140536750D01*
X320869368Y-140536745D01*
X320809788Y-140366476D01*
X320730868Y-140240876D01*
X320713816Y-140213738D01*
X320586262Y-140086184D01*
X320433523Y-139990211D01*
X320333306Y-139955144D01*
X320276530Y-139914422D01*
X320250783Y-139849469D01*
X320257220Y-139797147D01*
X320317366Y-139625262D01*
X320317369Y-139625249D01*
X320337565Y-139446003D01*
X320337565Y-139445996D01*
X320317369Y-139266750D01*
X320317368Y-139266745D01*
X320257788Y-139096476D01*
X320161815Y-138943737D01*
X320034262Y-138816184D01*
X319881523Y-138720211D01*
X319711254Y-138660631D01*
X319711249Y-138660630D01*
X319605608Y-138648728D01*
X319541194Y-138621662D01*
X319501638Y-138564067D01*
X319496272Y-138539398D01*
X319492368Y-138504745D01*
X319432789Y-138334478D01*
X319336816Y-138181738D01*
X319209262Y-138054184D01*
X319106535Y-137989636D01*
X319056523Y-137958211D01*
X318886254Y-137898631D01*
X318886249Y-137898630D01*
X318707004Y-137878435D01*
X318706996Y-137878435D01*
X318527750Y-137898630D01*
X318527745Y-137898631D01*
X318357476Y-137958211D01*
X318204737Y-138054184D01*
X318077184Y-138181737D01*
X317981211Y-138334476D01*
X317921631Y-138504745D01*
X317921630Y-138504750D01*
X317901435Y-138683996D01*
X300115015Y-138683996D01*
X300123289Y-138669665D01*
X300213611Y-138451609D01*
X300274698Y-138223630D01*
X300305505Y-137989627D01*
X300305505Y-137753611D01*
X323574562Y-137753611D01*
X323574562Y-137989620D01*
X323574563Y-137989636D01*
X323605368Y-138223626D01*
X323666456Y-138451609D01*
X323756776Y-138669661D01*
X323756781Y-138669672D01*
X323827739Y-138792573D01*
X323874789Y-138874066D01*
X323874791Y-138874069D01*
X323874792Y-138874070D01*
X324018468Y-139061313D01*
X324018474Y-139061320D01*
X324185357Y-139228203D01*
X324185363Y-139228208D01*
X324372612Y-139371889D01*
X324500969Y-139445996D01*
X324577005Y-139489896D01*
X324577010Y-139489898D01*
X324577013Y-139489900D01*
X324795069Y-139580222D01*
X325023048Y-139641309D01*
X325257051Y-139672116D01*
X325257058Y-139672116D01*
X325493066Y-139672116D01*
X325493073Y-139672116D01*
X325727076Y-139641309D01*
X325955055Y-139580222D01*
X326173111Y-139489900D01*
X326377512Y-139371889D01*
X326564761Y-139228208D01*
X326731654Y-139061315D01*
X326875335Y-138874066D01*
X326993346Y-138669665D01*
X327083668Y-138451609D01*
X327144755Y-138223630D01*
X327175562Y-137989627D01*
X327175562Y-137753605D01*
X327144755Y-137519602D01*
X327083668Y-137291623D01*
X326993346Y-137073567D01*
X326993345Y-137073565D01*
X326993342Y-137073559D01*
X326910093Y-136929369D01*
X326875335Y-136869166D01*
X326816063Y-136791922D01*
X326731655Y-136681918D01*
X326731649Y-136681911D01*
X326564766Y-136515028D01*
X326564759Y-136515022D01*
X326377516Y-136371346D01*
X326377515Y-136371345D01*
X326377512Y-136371343D01*
X326294211Y-136323249D01*
X326173118Y-136253335D01*
X326173107Y-136253330D01*
X325955055Y-136163010D01*
X325884094Y-136143996D01*
X325727076Y-136101923D01*
X325727075Y-136101922D01*
X325727072Y-136101922D01*
X325493082Y-136071117D01*
X325493079Y-136071116D01*
X325493073Y-136071116D01*
X325257051Y-136071116D01*
X325257045Y-136071116D01*
X325257041Y-136071117D01*
X325023051Y-136101922D01*
X324795068Y-136163010D01*
X324577016Y-136253330D01*
X324577005Y-136253335D01*
X324372607Y-136371346D01*
X324185364Y-136515022D01*
X324185357Y-136515028D01*
X324018474Y-136681911D01*
X324018468Y-136681918D01*
X323874792Y-136869161D01*
X323756781Y-137073559D01*
X323756779Y-137073565D01*
X323666456Y-137291622D01*
X323605368Y-137519605D01*
X323574563Y-137753595D01*
X323574562Y-137753611D01*
X300305505Y-137753611D01*
X300305505Y-137753605D01*
X300274698Y-137519602D01*
X300213611Y-137291623D01*
X300123289Y-137073567D01*
X300123288Y-137073565D01*
X300123285Y-137073559D01*
X300040036Y-136929369D01*
X300005278Y-136869166D01*
X299946006Y-136791922D01*
X299861598Y-136681918D01*
X299861592Y-136681911D01*
X299831681Y-136652000D01*
X304148540Y-136652000D01*
X304168326Y-136840256D01*
X304168327Y-136840259D01*
X304226818Y-137020277D01*
X304226821Y-137020284D01*
X304321467Y-137184216D01*
X304418176Y-137291622D01*
X304448129Y-137324888D01*
X304601265Y-137436148D01*
X304601270Y-137436151D01*
X304774192Y-137513142D01*
X304774197Y-137513144D01*
X304959354Y-137552500D01*
X304959355Y-137552500D01*
X305148644Y-137552500D01*
X305148646Y-137552500D01*
X305333803Y-137513144D01*
X305506730Y-137436151D01*
X305659871Y-137324888D01*
X305786533Y-137184216D01*
X305881179Y-137020284D01*
X305939674Y-136840256D01*
X305959460Y-136652000D01*
X305939674Y-136463744D01*
X305881179Y-136283716D01*
X305800512Y-136143996D01*
X313646435Y-136143996D01*
X313646435Y-136144003D01*
X313666630Y-136323249D01*
X313666631Y-136323254D01*
X313726211Y-136493523D01*
X313822184Y-136646262D01*
X313949738Y-136773816D01*
X314040080Y-136830582D01*
X314101486Y-136869166D01*
X314102478Y-136869789D01*
X314272745Y-136929368D01*
X314272750Y-136929369D01*
X314451996Y-136949565D01*
X314452000Y-136949565D01*
X314452004Y-136949565D01*
X314631249Y-136929369D01*
X314631252Y-136929368D01*
X314631255Y-136929368D01*
X314801522Y-136869789D01*
X314954262Y-136773816D01*
X315081816Y-136646262D01*
X315177789Y-136493522D01*
X315237368Y-136323255D01*
X315237369Y-136323249D01*
X315257565Y-136144003D01*
X315257565Y-136143996D01*
X315237369Y-135964750D01*
X315237368Y-135964745D01*
X315203463Y-135867851D01*
X315177789Y-135794478D01*
X315081816Y-135641738D01*
X314954262Y-135514184D01*
X314801523Y-135418211D01*
X314631254Y-135358631D01*
X314631249Y-135358630D01*
X314452004Y-135338435D01*
X314451996Y-135338435D01*
X314272750Y-135358630D01*
X314272745Y-135358631D01*
X314102476Y-135418211D01*
X313949737Y-135514184D01*
X313822184Y-135641737D01*
X313726211Y-135794476D01*
X313666631Y-135964745D01*
X313666630Y-135964750D01*
X313646435Y-136143996D01*
X305800512Y-136143996D01*
X305786533Y-136119784D01*
X305659871Y-135979112D01*
X305659870Y-135979111D01*
X305506734Y-135867851D01*
X305506729Y-135867848D01*
X305333807Y-135790857D01*
X305333802Y-135790855D01*
X305188001Y-135759865D01*
X305148646Y-135751500D01*
X304959354Y-135751500D01*
X304926897Y-135758398D01*
X304774197Y-135790855D01*
X304774192Y-135790857D01*
X304601270Y-135867848D01*
X304601265Y-135867851D01*
X304448129Y-135979111D01*
X304321466Y-136119785D01*
X304226821Y-136283715D01*
X304226818Y-136283722D01*
X304168327Y-136463740D01*
X304168326Y-136463744D01*
X304148540Y-136652000D01*
X299831681Y-136652000D01*
X299694709Y-136515028D01*
X299694702Y-136515022D01*
X299507459Y-136371346D01*
X299507458Y-136371345D01*
X299507455Y-136371343D01*
X299424154Y-136323249D01*
X299303061Y-136253335D01*
X299303050Y-136253330D01*
X299084998Y-136163010D01*
X299014037Y-136143996D01*
X298857019Y-136101923D01*
X298857018Y-136101922D01*
X298857015Y-136101922D01*
X298623025Y-136071117D01*
X298623022Y-136071116D01*
X298623016Y-136071116D01*
X298386994Y-136071116D01*
X298386988Y-136071116D01*
X298386984Y-136071117D01*
X298152994Y-136101922D01*
X297925011Y-136163010D01*
X297706959Y-136253330D01*
X297706948Y-136253335D01*
X297502550Y-136371346D01*
X297315307Y-136515022D01*
X297315300Y-136515028D01*
X297148417Y-136681911D01*
X297148411Y-136681918D01*
X297004735Y-136869161D01*
X296886724Y-137073559D01*
X296886722Y-137073565D01*
X296796399Y-137291622D01*
X296735311Y-137519605D01*
X296704506Y-137753595D01*
X296704505Y-137753611D01*
X293986640Y-137753611D01*
X294305759Y-137333186D01*
X294308951Y-137329158D01*
X294906389Y-136606980D01*
X294909756Y-136603080D01*
X295536897Y-135906570D01*
X295540378Y-135902863D01*
X296196174Y-135233185D01*
X296199815Y-135229620D01*
X296848999Y-134619996D01*
X318726435Y-134619996D01*
X318726435Y-134620003D01*
X318746630Y-134799249D01*
X318746631Y-134799254D01*
X318806211Y-134969523D01*
X318860871Y-135056513D01*
X318902184Y-135122262D01*
X319029738Y-135249816D01*
X319182478Y-135345789D01*
X319352745Y-135405368D01*
X319352750Y-135405369D01*
X319531996Y-135425565D01*
X319532000Y-135425565D01*
X319532004Y-135425565D01*
X319711249Y-135405369D01*
X319711252Y-135405368D01*
X319711255Y-135405368D01*
X319881522Y-135345789D01*
X320034262Y-135249816D01*
X320161816Y-135122262D01*
X320257789Y-134969522D01*
X320317368Y-134799255D01*
X320337565Y-134620000D01*
X320333763Y-134586257D01*
X320317369Y-134440750D01*
X320317368Y-134440745D01*
X320257788Y-134270476D01*
X320161815Y-134117737D01*
X320034262Y-133990184D01*
X319881523Y-133894211D01*
X319711254Y-133834631D01*
X319711249Y-133834630D01*
X319532004Y-133814435D01*
X319531996Y-133814435D01*
X319352750Y-133834630D01*
X319352745Y-133834631D01*
X319182476Y-133894211D01*
X319029737Y-133990184D01*
X318902184Y-134117737D01*
X318806211Y-134270476D01*
X318746631Y-134440745D01*
X318746630Y-134440750D01*
X318726435Y-134619996D01*
X296848999Y-134619996D01*
X296883067Y-134588004D01*
X296886875Y-134584576D01*
X297596353Y-133972171D01*
X297600329Y-133968881D01*
X298334854Y-133386704D01*
X298338924Y-133383615D01*
X299084394Y-132842000D01*
X306688540Y-132842000D01*
X306708326Y-133030256D01*
X306708327Y-133030259D01*
X306766818Y-133210277D01*
X306766821Y-133210284D01*
X306861467Y-133374216D01*
X306943242Y-133465036D01*
X306988129Y-133514888D01*
X307141265Y-133626148D01*
X307141270Y-133626151D01*
X307314192Y-133703142D01*
X307314197Y-133703144D01*
X307499354Y-133742500D01*
X307499355Y-133742500D01*
X307688644Y-133742500D01*
X307688646Y-133742500D01*
X307873803Y-133703144D01*
X308046730Y-133626151D01*
X308199871Y-133514888D01*
X308326533Y-133374216D01*
X308421179Y-133210284D01*
X308479674Y-133030256D01*
X308499460Y-132842000D01*
X312276540Y-132842000D01*
X312296326Y-133030256D01*
X312296327Y-133030259D01*
X312354818Y-133210277D01*
X312354821Y-133210284D01*
X312449467Y-133374216D01*
X312531242Y-133465036D01*
X312576129Y-133514888D01*
X312729265Y-133626148D01*
X312729270Y-133626151D01*
X312902192Y-133703142D01*
X312902197Y-133703144D01*
X313087354Y-133742500D01*
X313087355Y-133742500D01*
X313276644Y-133742500D01*
X313276646Y-133742500D01*
X313461803Y-133703144D01*
X313634730Y-133626151D01*
X313787871Y-133514888D01*
X313914533Y-133374216D01*
X314009179Y-133210284D01*
X314067674Y-133030256D01*
X314087460Y-132842000D01*
X314067674Y-132653744D01*
X314009179Y-132473716D01*
X313914533Y-132309784D01*
X313787871Y-132169112D01*
X313787870Y-132169111D01*
X313634734Y-132057851D01*
X313634729Y-132057848D01*
X313461807Y-131980857D01*
X313461802Y-131980855D01*
X313316001Y-131949865D01*
X313276646Y-131941500D01*
X313087354Y-131941500D01*
X313054897Y-131948398D01*
X312902197Y-131980855D01*
X312902192Y-131980857D01*
X312729270Y-132057848D01*
X312729265Y-132057851D01*
X312576129Y-132169111D01*
X312449466Y-132309785D01*
X312354821Y-132473715D01*
X312354818Y-132473722D01*
X312296327Y-132653740D01*
X312296326Y-132653744D01*
X312276540Y-132842000D01*
X308499460Y-132842000D01*
X308479674Y-132653744D01*
X308421179Y-132473716D01*
X308326533Y-132309784D01*
X308199871Y-132169112D01*
X308199870Y-132169111D01*
X308046734Y-132057851D01*
X308046729Y-132057848D01*
X307873807Y-131980857D01*
X307873802Y-131980855D01*
X307728001Y-131949865D01*
X307688646Y-131941500D01*
X307499354Y-131941500D01*
X307466897Y-131948398D01*
X307314197Y-131980855D01*
X307314192Y-131980857D01*
X307141270Y-132057848D01*
X307141265Y-132057851D01*
X306988129Y-132169111D01*
X306861466Y-132309785D01*
X306766821Y-132473715D01*
X306766818Y-132473722D01*
X306708327Y-132653740D01*
X306708326Y-132653744D01*
X306688540Y-132842000D01*
X299084394Y-132842000D01*
X299097194Y-132832700D01*
X299101378Y-132829792D01*
X299882077Y-132311096D01*
X299886388Y-132308360D01*
X300688089Y-131822833D01*
X300692524Y-131820272D01*
X301513857Y-131368741D01*
X301518393Y-131366369D01*
X302357900Y-130949634D01*
X302362553Y-130947444D01*
X303218778Y-130566229D01*
X303223543Y-130564227D01*
X304094921Y-130219224D01*
X304099747Y-130217428D01*
X304984902Y-129909184D01*
X304989745Y-129907611D01*
X305651012Y-129707962D01*
X305720877Y-129707431D01*
X305779941Y-129744757D01*
X305809449Y-129808090D01*
X305806624Y-129858764D01*
X305750939Y-130066586D01*
X305750937Y-130066596D01*
X305730342Y-130301999D01*
X305730342Y-130302000D01*
X305750937Y-130537403D01*
X305750939Y-130537413D01*
X305812095Y-130765655D01*
X305812097Y-130765659D01*
X305812098Y-130765663D01*
X305897351Y-130948488D01*
X305911966Y-130979830D01*
X305911968Y-130979834D01*
X306016247Y-131128759D01*
X306047506Y-131173401D01*
X306214600Y-131340495D01*
X306311385Y-131408265D01*
X306408166Y-131476032D01*
X306408168Y-131476033D01*
X306408171Y-131476035D01*
X306622338Y-131575903D01*
X306622344Y-131575904D01*
X306622345Y-131575905D01*
X306677286Y-131590626D01*
X306850593Y-131637063D01*
X307027035Y-131652500D01*
X307086000Y-131657659D01*
X307086001Y-131657659D01*
X307086002Y-131657659D01*
X307144967Y-131652500D01*
X307321409Y-131637063D01*
X307549664Y-131575903D01*
X307763831Y-131476035D01*
X307957402Y-131340495D01*
X308124496Y-131173401D01*
X308254426Y-130987842D01*
X308309003Y-130944217D01*
X308378501Y-130937023D01*
X308440856Y-130968546D01*
X308457576Y-130987842D01*
X308587501Y-131173395D01*
X308587506Y-131173401D01*
X308754600Y-131340495D01*
X308851385Y-131408265D01*
X308948166Y-131476032D01*
X308948168Y-131476033D01*
X308948171Y-131476035D01*
X309162338Y-131575903D01*
X309162344Y-131575904D01*
X309162345Y-131575905D01*
X309217286Y-131590626D01*
X309390593Y-131637063D01*
X309567035Y-131652500D01*
X309626000Y-131657659D01*
X309626001Y-131657659D01*
X309626002Y-131657659D01*
X309684967Y-131652500D01*
X309861409Y-131637063D01*
X310089664Y-131575903D01*
X310303831Y-131476035D01*
X310497402Y-131340495D01*
X310619329Y-131218567D01*
X310680648Y-131185085D01*
X310750340Y-131190069D01*
X310806274Y-131231940D01*
X310823189Y-131262917D01*
X310872203Y-131394330D01*
X310872206Y-131394335D01*
X310958452Y-131509544D01*
X310958455Y-131509547D01*
X311073664Y-131595793D01*
X311073671Y-131595797D01*
X311208517Y-131646091D01*
X311208516Y-131646091D01*
X311215444Y-131646835D01*
X311268127Y-131652500D01*
X313063872Y-131652499D01*
X313123483Y-131646091D01*
X313258331Y-131595796D01*
X313373546Y-131509546D01*
X313459796Y-131394331D01*
X313510091Y-131259483D01*
X313516500Y-131199873D01*
X313516499Y-129404128D01*
X313511299Y-129355757D01*
X313510091Y-129344516D01*
X313459797Y-129209671D01*
X313459793Y-129209664D01*
X313373547Y-129094455D01*
X313373544Y-129094452D01*
X313356655Y-129081809D01*
X313314784Y-129025876D01*
X313309800Y-128956184D01*
X313343285Y-128894861D01*
X313404609Y-128861377D01*
X313441341Y-128858978D01*
X314289330Y-128930185D01*
G37*
%TD.AperFunction*%
%TA.AperFunction,Conductor*%
G36*
X294174075Y-145603007D02*
G01*
X294140000Y-145730174D01*
X294140000Y-145861826D01*
X294174075Y-145988993D01*
X294206988Y-146046000D01*
X292533012Y-146046000D01*
X292565925Y-145988993D01*
X292600000Y-145861826D01*
X292600000Y-145730174D01*
X292565925Y-145603007D01*
X292533012Y-145546000D01*
X294206988Y-145546000D01*
X294174075Y-145603007D01*
G37*
%TD.AperFunction*%
%TD*%
M02*
