%TF.GenerationSoftware,KiCad,Pcbnew,8.0.4*%
%TF.CreationDate,2024-08-11T19:16:42-04:00*%
%TF.ProjectId,foc_pcb,666f635f-7063-4622-9e6b-696361645f70,rev?*%
%TF.SameCoordinates,Original*%
%TF.FileFunction,Soldermask,Top*%
%TF.FilePolarity,Negative*%
%FSLAX46Y46*%
G04 Gerber Fmt 4.6, Leading zero omitted, Abs format (unit mm)*
G04 Created by KiCad (PCBNEW 8.0.4) date 2024-08-11 19:16:42*
%MOMM*%
%LPD*%
G01*
G04 APERTURE LIST*
G04 Aperture macros list*
%AMRoundRect*
0 Rectangle with rounded corners*
0 $1 Rounding radius*
0 $2 $3 $4 $5 $6 $7 $8 $9 X,Y pos of 4 corners*
0 Add a 4 corners polygon primitive as box body*
4,1,4,$2,$3,$4,$5,$6,$7,$8,$9,$2,$3,0*
0 Add four circle primitives for the rounded corners*
1,1,$1+$1,$2,$3*
1,1,$1+$1,$4,$5*
1,1,$1+$1,$6,$7*
1,1,$1+$1,$8,$9*
0 Add four rect primitives between the rounded corners*
20,1,$1+$1,$2,$3,$4,$5,0*
20,1,$1+$1,$4,$5,$6,$7,0*
20,1,$1+$1,$6,$7,$8,$9,0*
20,1,$1+$1,$8,$9,$2,$3,0*%
G04 Aperture macros list end*
%ADD10C,0.010000*%
%ADD11C,3.200000*%
%ADD12R,1.700000X1.700000*%
%ADD13O,1.700000X1.700000*%
%ADD14RoundRect,0.102000X-0.200000X-0.675000X0.200000X-0.675000X0.200000X0.675000X-0.200000X0.675000X0*%
%ADD15RoundRect,0.102000X-0.800000X-0.700000X0.800000X-0.700000X0.800000X0.700000X-0.800000X0.700000X0*%
%ADD16RoundRect,0.102000X-0.950000X-0.950000X0.950000X-0.950000X0.950000X0.950000X-0.950000X0.950000X0*%
%ADD17O,1.104000X2.004000*%
%ADD18RoundRect,0.102000X-0.750000X-0.325000X0.750000X-0.325000X0.750000X0.325000X-0.750000X0.325000X0*%
%ADD19R,3.500000X1.200000*%
%ADD20RoundRect,0.102000X1.858000X-1.858000X1.858000X1.858000X-1.858000X1.858000X-1.858000X-1.858000X0*%
%ADD21C,3.920000*%
%ADD22O,2.604000X1.404000*%
%ADD23RoundRect,0.102000X0.660400X0.279400X-0.660400X0.279400X-0.660400X-0.279400X0.660400X-0.279400X0*%
%ADD24R,0.800000X0.800000*%
%ADD25RoundRect,0.225000X0.225000X0.250000X-0.225000X0.250000X-0.225000X-0.250000X0.225000X-0.250000X0*%
%ADD26RoundRect,0.200000X-0.275000X0.200000X-0.275000X-0.200000X0.275000X-0.200000X0.275000X0.200000X0*%
%ADD27RoundRect,0.102000X0.950000X1.200000X-0.950000X1.200000X-0.950000X-1.200000X0.950000X-1.200000X0*%
%ADD28R,1.800000X1.350000*%
%ADD29O,1.731500X0.343000*%
%ADD30R,2.750000X6.200000*%
%ADD31R,1.500000X0.600000*%
%ADD32R,0.600000X1.500000*%
%ADD33RoundRect,0.150000X-0.825000X-0.150000X0.825000X-0.150000X0.825000X0.150000X-0.825000X0.150000X0*%
%ADD34RoundRect,0.102000X-0.605000X-0.365000X0.605000X-0.365000X0.605000X0.365000X-0.605000X0.365000X0*%
G04 APERTURE END LIST*
D10*
%TO.C,VR1*%
X336100000Y-261960000D02*
X334460000Y-261960000D01*
X334460000Y-260820000D01*
X336100000Y-260820000D01*
X336100000Y-261960000D01*
G36*
X336100000Y-261960000D02*
G01*
X334460000Y-261960000D01*
X334460000Y-260820000D01*
X336100000Y-260820000D01*
X336100000Y-261960000D01*
G37*
X336100000Y-264960000D02*
X334460000Y-264960000D01*
X334460000Y-263820000D01*
X336100000Y-263820000D01*
X336100000Y-264960000D01*
G36*
X336100000Y-264960000D02*
G01*
X334460000Y-264960000D01*
X334460000Y-263820000D01*
X336100000Y-263820000D01*
X336100000Y-264960000D01*
G37*
X340100000Y-262655000D02*
X340100000Y-263125000D01*
X339165000Y-264060000D01*
X336895000Y-264060000D01*
X336295000Y-263460000D01*
X334460000Y-263460000D01*
X334460000Y-262320000D01*
X336295000Y-262320000D01*
X336895000Y-261720000D01*
X339165000Y-261720000D01*
X340100000Y-262655000D01*
G36*
X340100000Y-262655000D02*
G01*
X340100000Y-263125000D01*
X339165000Y-264060000D01*
X336895000Y-264060000D01*
X336295000Y-263460000D01*
X334460000Y-263460000D01*
X334460000Y-262320000D01*
X336295000Y-262320000D01*
X336895000Y-261720000D01*
X339165000Y-261720000D01*
X340100000Y-262655000D01*
G37*
%TD*%
D11*
%TO.C,H12*%
X353060000Y-297180000D03*
%TD*%
%TO.C,H11*%
X261620000Y-297180000D03*
%TD*%
%TO.C,H10*%
X261620000Y-179070000D03*
%TD*%
%TO.C,H9*%
X365760000Y-179070000D03*
%TD*%
D12*
%TO.C,J1*%
X368300000Y-295910000D03*
D13*
X368300000Y-293370000D03*
X368300000Y-290830000D03*
%TD*%
D14*
%TO.C,J12*%
X360720000Y-298125000D03*
X361370000Y-298125000D03*
X362020000Y-298125000D03*
X362670000Y-298125000D03*
X363320000Y-298125000D03*
D15*
X358820000Y-298350000D03*
X365220000Y-298350000D03*
D16*
X360820000Y-300800000D03*
X363220000Y-300800000D03*
D17*
X358720000Y-300800000D03*
X365320000Y-300800000D03*
%TD*%
D11*
%TO.C,H2*%
X273550000Y-209550000D03*
%TD*%
D12*
%TO.C,J3*%
X334010000Y-297180000D03*
D13*
X331470000Y-297180000D03*
X328930000Y-297180000D03*
%TD*%
D12*
%TO.C,J4*%
X364490000Y-256530000D03*
D13*
X364490000Y-253990000D03*
X364490000Y-251450000D03*
X364490000Y-248910000D03*
%TD*%
D18*
%TO.C,IC1*%
X291850000Y-207645000D03*
X291850000Y-208915000D03*
X291850000Y-210185000D03*
X291850000Y-211455000D03*
X297250000Y-211455000D03*
X297250000Y-210185000D03*
X297250000Y-208915000D03*
X297250000Y-207645000D03*
%TD*%
D19*
%TO.C,C11*%
X288160000Y-287020000D03*
X293500000Y-287020000D03*
%TD*%
D20*
%TO.C,J5*%
X267620000Y-279820000D03*
D21*
X267620000Y-287020000D03*
D22*
X261620000Y-276670000D03*
X261620000Y-290170000D03*
%TD*%
D12*
%TO.C,J9*%
X306070000Y-297180000D03*
D13*
X308610000Y-297180000D03*
%TD*%
D11*
%TO.C,H5*%
X305156602Y-198943398D03*
%TD*%
D12*
%TO.C,J10*%
X271780000Y-297180000D03*
D13*
X271780000Y-294640000D03*
X274320000Y-297180000D03*
X274320000Y-294640000D03*
X276860000Y-297180000D03*
X276860000Y-294640000D03*
%TD*%
D12*
%TO.C,J11*%
X341630000Y-297180000D03*
D13*
X344170000Y-297180000D03*
X346710000Y-297180000D03*
%TD*%
D23*
%TO.C,U3*%
X341630000Y-290499800D03*
X341630000Y-288620200D03*
X339598000Y-289560000D03*
%TD*%
D24*
%TO.C,D3*%
X350191000Y-257810000D03*
X351790000Y-257810000D03*
%TD*%
D25*
%TO.C,C13*%
X285750000Y-207010000D03*
X284200000Y-207010000D03*
%TD*%
D20*
%TO.C,J6*%
X267620000Y-258420000D03*
D21*
X267620000Y-265620000D03*
D22*
X261620000Y-255270000D03*
X261620000Y-268770000D03*
%TD*%
D26*
%TO.C,R9*%
X303530000Y-208280000D03*
X303530000Y-206630000D03*
%TD*%
D27*
%TO.C,Y1*%
X343680000Y-240030000D03*
X339580000Y-240030000D03*
%TD*%
D28*
%TO.C,SW1*%
X364490000Y-262085000D03*
X364490000Y-266235000D03*
%TD*%
D24*
%TO.C,D1*%
X350191000Y-267977000D03*
X351790000Y-267970000D03*
%TD*%
D11*
%TO.C,H3*%
X294550000Y-230550000D03*
%TD*%
%TO.C,H7*%
X283943398Y-220156602D03*
%TD*%
D12*
%TO.C,J8*%
X295910000Y-297180000D03*
D13*
X298450000Y-297180000D03*
%TD*%
D11*
%TO.C,H6*%
X283943398Y-198943398D03*
%TD*%
D29*
%TO.C,U1*%
X296784000Y-272175000D03*
X296784000Y-272825000D03*
X296784000Y-273475000D03*
X296784000Y-274125000D03*
X296784000Y-274775000D03*
X296784000Y-275425000D03*
X296784000Y-276075000D03*
X296784000Y-276725000D03*
X296784000Y-277375000D03*
X296784000Y-278025000D03*
X296784000Y-278675000D03*
X296784000Y-279325000D03*
X296784000Y-279975000D03*
X296784000Y-280625000D03*
X302516000Y-280625000D03*
X302516000Y-279975000D03*
X302516000Y-279325000D03*
X302516000Y-278675000D03*
X302516000Y-278025000D03*
X302516000Y-277375000D03*
X302516000Y-276725000D03*
X302516000Y-276075000D03*
X302516000Y-275425000D03*
X302516000Y-274775000D03*
X302516000Y-274125000D03*
X302516000Y-273475000D03*
X302516000Y-272825000D03*
X302516000Y-272175000D03*
D30*
X299650000Y-276400000D03*
%TD*%
D11*
%TO.C,H1*%
X294550000Y-188550000D03*
%TD*%
%TO.C,H4*%
X315550000Y-209550000D03*
%TD*%
D24*
%TO.C,D5*%
X350191000Y-262890000D03*
X351790000Y-262890000D03*
%TD*%
D25*
%TO.C,C14*%
X285750000Y-210820000D03*
X284200000Y-210820000D03*
%TD*%
D31*
%TO.C,U2*%
X343730000Y-227070000D03*
X343730000Y-227870000D03*
X343730000Y-228670000D03*
X343730000Y-229470000D03*
X343730000Y-230270000D03*
X343730000Y-231070000D03*
X343730000Y-231870000D03*
X343730000Y-232670000D03*
D32*
X345180000Y-234120000D03*
X345980000Y-234120000D03*
X346780000Y-234120000D03*
X347580000Y-234120000D03*
X348380000Y-234120000D03*
X349180000Y-234120000D03*
X349980000Y-234120000D03*
X350780000Y-234120000D03*
D31*
X352230000Y-232670000D03*
X352230000Y-231870000D03*
X352230000Y-231070000D03*
X352230000Y-230270000D03*
X352230000Y-229470000D03*
X352230000Y-228670000D03*
X352230000Y-227870000D03*
X352230000Y-227070000D03*
D32*
X350780000Y-225620000D03*
X349980000Y-225620000D03*
X349180000Y-225620000D03*
X348380000Y-225620000D03*
X347580000Y-225620000D03*
X346780000Y-225620000D03*
X345980000Y-225620000D03*
X345180000Y-225620000D03*
%TD*%
D33*
%TO.C,U5*%
X354330000Y-275590000D03*
X354330000Y-276860000D03*
X354330000Y-278130000D03*
X354330000Y-279400000D03*
X354330000Y-280670000D03*
X354330000Y-281940000D03*
X354330000Y-283210000D03*
X354330000Y-284480000D03*
X359280000Y-284480000D03*
X359280000Y-283210000D03*
X359280000Y-281940000D03*
X359280000Y-280670000D03*
X359280000Y-279400000D03*
X359280000Y-278130000D03*
X359280000Y-276860000D03*
X359280000Y-275590000D03*
%TD*%
D26*
%TO.C,R11*%
X306070000Y-206630000D03*
X306070000Y-208280000D03*
%TD*%
D34*
%TO.C,D2*%
X330930000Y-262890000D03*
X327570000Y-262890000D03*
%TD*%
D23*
%TO.C,U4*%
X347980000Y-290499800D03*
X347980000Y-288620200D03*
X345948000Y-289560000D03*
%TD*%
D11*
%TO.C,H8*%
X305156602Y-220156602D03*
%TD*%
D12*
%TO.C,J2*%
X321295000Y-297180000D03*
D13*
X318755000Y-297180000D03*
X316215000Y-297180000D03*
%TD*%
D12*
%TO.C,J7*%
X285750000Y-297180000D03*
D13*
X288290000Y-297180000D03*
%TD*%
M02*
