%TF.GenerationSoftware,KiCad,Pcbnew,8.0.4*%
%TF.CreationDate,2024-08-11T19:16:42-04:00*%
%TF.ProjectId,foc_pcb,666f635f-7063-4622-9e6b-696361645f70,rev?*%
%TF.SameCoordinates,Original*%
%TF.FileFunction,Legend,Bot*%
%TF.FilePolarity,Positive*%
%FSLAX46Y46*%
G04 Gerber Fmt 4.6, Leading zero omitted, Abs format (unit mm)*
G04 Created by KiCad (PCBNEW 8.0.4) date 2024-08-11 19:16:42*
%MOMM*%
%LPD*%
G01*
G04 APERTURE LIST*
G04 Aperture macros list*
%AMRoundRect*
0 Rectangle with rounded corners*
0 $1 Rounding radius*
0 $2 $3 $4 $5 $6 $7 $8 $9 X,Y pos of 4 corners*
0 Add a 4 corners polygon primitive as box body*
4,1,4,$2,$3,$4,$5,$6,$7,$8,$9,$2,$3,0*
0 Add four circle primitives for the rounded corners*
1,1,$1+$1,$2,$3*
1,1,$1+$1,$4,$5*
1,1,$1+$1,$6,$7*
1,1,$1+$1,$8,$9*
0 Add four rect primitives between the rounded corners*
20,1,$1+$1,$2,$3,$4,$5,0*
20,1,$1+$1,$4,$5,$6,$7,0*
20,1,$1+$1,$6,$7,$8,$9,0*
20,1,$1+$1,$8,$9,$2,$3,0*%
G04 Aperture macros list end*
%ADD10C,0.150000*%
%ADD11C,0.120000*%
%ADD12C,3.200000*%
%ADD13R,1.700000X1.700000*%
%ADD14O,1.700000X1.700000*%
%ADD15O,1.104000X2.004000*%
%ADD16RoundRect,0.102000X1.858000X-1.858000X1.858000X1.858000X-1.858000X1.858000X-1.858000X-1.858000X0*%
%ADD17C,3.920000*%
%ADD18O,2.604000X1.404000*%
%ADD19RoundRect,0.200000X0.200000X0.275000X-0.200000X0.275000X-0.200000X-0.275000X0.200000X-0.275000X0*%
%ADD20RoundRect,0.200000X-0.200000X-0.275000X0.200000X-0.275000X0.200000X0.275000X-0.200000X0.275000X0*%
%ADD21RoundRect,0.200000X-0.275000X0.200000X-0.275000X-0.200000X0.275000X-0.200000X0.275000X0.200000X0*%
%ADD22RoundRect,0.225000X0.225000X0.250000X-0.225000X0.250000X-0.225000X-0.250000X0.225000X-0.250000X0*%
%ADD23RoundRect,0.225000X-0.225000X-0.250000X0.225000X-0.250000X0.225000X0.250000X-0.225000X0.250000X0*%
%ADD24RoundRect,0.225000X0.250000X-0.225000X0.250000X0.225000X-0.250000X0.225000X-0.250000X-0.225000X0*%
%ADD25RoundRect,0.225000X-0.250000X0.225000X-0.250000X-0.225000X0.250000X-0.225000X0.250000X0.225000X0*%
%ADD26RoundRect,0.200000X0.275000X-0.200000X0.275000X0.200000X-0.275000X0.200000X-0.275000X-0.200000X0*%
G04 APERTURE END LIST*
D10*
X338907857Y-258104819D02*
X339241190Y-257628628D01*
X339479285Y-258104819D02*
X339479285Y-257104819D01*
X339479285Y-257104819D02*
X339098333Y-257104819D01*
X339098333Y-257104819D02*
X339003095Y-257152438D01*
X339003095Y-257152438D02*
X338955476Y-257200057D01*
X338955476Y-257200057D02*
X338907857Y-257295295D01*
X338907857Y-257295295D02*
X338907857Y-257438152D01*
X338907857Y-257438152D02*
X338955476Y-257533390D01*
X338955476Y-257533390D02*
X339003095Y-257581009D01*
X339003095Y-257581009D02*
X339098333Y-257628628D01*
X339098333Y-257628628D02*
X339479285Y-257628628D01*
X337955476Y-258104819D02*
X338526904Y-258104819D01*
X338241190Y-258104819D02*
X338241190Y-257104819D01*
X338241190Y-257104819D02*
X338336428Y-257247676D01*
X338336428Y-257247676D02*
X338431666Y-257342914D01*
X338431666Y-257342914D02*
X338526904Y-257390533D01*
X337622142Y-257104819D02*
X337003095Y-257104819D01*
X337003095Y-257104819D02*
X337336428Y-257485771D01*
X337336428Y-257485771D02*
X337193571Y-257485771D01*
X337193571Y-257485771D02*
X337098333Y-257533390D01*
X337098333Y-257533390D02*
X337050714Y-257581009D01*
X337050714Y-257581009D02*
X337003095Y-257676247D01*
X337003095Y-257676247D02*
X337003095Y-257914342D01*
X337003095Y-257914342D02*
X337050714Y-258009580D01*
X337050714Y-258009580D02*
X337098333Y-258057200D01*
X337098333Y-258057200D02*
X337193571Y-258104819D01*
X337193571Y-258104819D02*
X337479285Y-258104819D01*
X337479285Y-258104819D02*
X337574523Y-258057200D01*
X337574523Y-258057200D02*
X337622142Y-258009580D01*
X310046666Y-283664819D02*
X310379999Y-283188628D01*
X310618094Y-283664819D02*
X310618094Y-282664819D01*
X310618094Y-282664819D02*
X310237142Y-282664819D01*
X310237142Y-282664819D02*
X310141904Y-282712438D01*
X310141904Y-282712438D02*
X310094285Y-282760057D01*
X310094285Y-282760057D02*
X310046666Y-282855295D01*
X310046666Y-282855295D02*
X310046666Y-282998152D01*
X310046666Y-282998152D02*
X310094285Y-283093390D01*
X310094285Y-283093390D02*
X310141904Y-283141009D01*
X310141904Y-283141009D02*
X310237142Y-283188628D01*
X310237142Y-283188628D02*
X310618094Y-283188628D01*
X309665713Y-282760057D02*
X309618094Y-282712438D01*
X309618094Y-282712438D02*
X309522856Y-282664819D01*
X309522856Y-282664819D02*
X309284761Y-282664819D01*
X309284761Y-282664819D02*
X309189523Y-282712438D01*
X309189523Y-282712438D02*
X309141904Y-282760057D01*
X309141904Y-282760057D02*
X309094285Y-282855295D01*
X309094285Y-282855295D02*
X309094285Y-282950533D01*
X309094285Y-282950533D02*
X309141904Y-283093390D01*
X309141904Y-283093390D02*
X309713332Y-283664819D01*
X309713332Y-283664819D02*
X309094285Y-283664819D01*
X363514819Y-269898333D02*
X363038628Y-269565000D01*
X363514819Y-269326905D02*
X362514819Y-269326905D01*
X362514819Y-269326905D02*
X362514819Y-269707857D01*
X362514819Y-269707857D02*
X362562438Y-269803095D01*
X362562438Y-269803095D02*
X362610057Y-269850714D01*
X362610057Y-269850714D02*
X362705295Y-269898333D01*
X362705295Y-269898333D02*
X362848152Y-269898333D01*
X362848152Y-269898333D02*
X362943390Y-269850714D01*
X362943390Y-269850714D02*
X362991009Y-269803095D01*
X362991009Y-269803095D02*
X363038628Y-269707857D01*
X363038628Y-269707857D02*
X363038628Y-269326905D01*
X362514819Y-270803095D02*
X362514819Y-270326905D01*
X362514819Y-270326905D02*
X362991009Y-270279286D01*
X362991009Y-270279286D02*
X362943390Y-270326905D01*
X362943390Y-270326905D02*
X362895771Y-270422143D01*
X362895771Y-270422143D02*
X362895771Y-270660238D01*
X362895771Y-270660238D02*
X362943390Y-270755476D01*
X362943390Y-270755476D02*
X362991009Y-270803095D01*
X362991009Y-270803095D02*
X363086247Y-270850714D01*
X363086247Y-270850714D02*
X363324342Y-270850714D01*
X363324342Y-270850714D02*
X363419580Y-270803095D01*
X363419580Y-270803095D02*
X363467200Y-270755476D01*
X363467200Y-270755476D02*
X363514819Y-270660238D01*
X363514819Y-270660238D02*
X363514819Y-270422143D01*
X363514819Y-270422143D02*
X363467200Y-270326905D01*
X363467200Y-270326905D02*
X363419580Y-270279286D01*
X332131666Y-268169580D02*
X332179285Y-268217200D01*
X332179285Y-268217200D02*
X332322142Y-268264819D01*
X332322142Y-268264819D02*
X332417380Y-268264819D01*
X332417380Y-268264819D02*
X332560237Y-268217200D01*
X332560237Y-268217200D02*
X332655475Y-268121961D01*
X332655475Y-268121961D02*
X332703094Y-268026723D01*
X332703094Y-268026723D02*
X332750713Y-267836247D01*
X332750713Y-267836247D02*
X332750713Y-267693390D01*
X332750713Y-267693390D02*
X332703094Y-267502914D01*
X332703094Y-267502914D02*
X332655475Y-267407676D01*
X332655475Y-267407676D02*
X332560237Y-267312438D01*
X332560237Y-267312438D02*
X332417380Y-267264819D01*
X332417380Y-267264819D02*
X332322142Y-267264819D01*
X332322142Y-267264819D02*
X332179285Y-267312438D01*
X332179285Y-267312438D02*
X332131666Y-267360057D01*
X331274523Y-267598152D02*
X331274523Y-268264819D01*
X331512618Y-267217200D02*
X331750713Y-267931485D01*
X331750713Y-267931485D02*
X331131666Y-267931485D01*
X314332857Y-276044819D02*
X314666190Y-275568628D01*
X314904285Y-276044819D02*
X314904285Y-275044819D01*
X314904285Y-275044819D02*
X314523333Y-275044819D01*
X314523333Y-275044819D02*
X314428095Y-275092438D01*
X314428095Y-275092438D02*
X314380476Y-275140057D01*
X314380476Y-275140057D02*
X314332857Y-275235295D01*
X314332857Y-275235295D02*
X314332857Y-275378152D01*
X314332857Y-275378152D02*
X314380476Y-275473390D01*
X314380476Y-275473390D02*
X314428095Y-275521009D01*
X314428095Y-275521009D02*
X314523333Y-275568628D01*
X314523333Y-275568628D02*
X314904285Y-275568628D01*
X313380476Y-276044819D02*
X313951904Y-276044819D01*
X313666190Y-276044819D02*
X313666190Y-275044819D01*
X313666190Y-275044819D02*
X313761428Y-275187676D01*
X313761428Y-275187676D02*
X313856666Y-275282914D01*
X313856666Y-275282914D02*
X313951904Y-275330533D01*
X312999523Y-275140057D02*
X312951904Y-275092438D01*
X312951904Y-275092438D02*
X312856666Y-275044819D01*
X312856666Y-275044819D02*
X312618571Y-275044819D01*
X312618571Y-275044819D02*
X312523333Y-275092438D01*
X312523333Y-275092438D02*
X312475714Y-275140057D01*
X312475714Y-275140057D02*
X312428095Y-275235295D01*
X312428095Y-275235295D02*
X312428095Y-275330533D01*
X312428095Y-275330533D02*
X312475714Y-275473390D01*
X312475714Y-275473390D02*
X313047142Y-276044819D01*
X313047142Y-276044819D02*
X312428095Y-276044819D01*
X349544819Y-272058333D02*
X349068628Y-271725000D01*
X349544819Y-271486905D02*
X348544819Y-271486905D01*
X348544819Y-271486905D02*
X348544819Y-271867857D01*
X348544819Y-271867857D02*
X348592438Y-271963095D01*
X348592438Y-271963095D02*
X348640057Y-272010714D01*
X348640057Y-272010714D02*
X348735295Y-272058333D01*
X348735295Y-272058333D02*
X348878152Y-272058333D01*
X348878152Y-272058333D02*
X348973390Y-272010714D01*
X348973390Y-272010714D02*
X349021009Y-271963095D01*
X349021009Y-271963095D02*
X349068628Y-271867857D01*
X349068628Y-271867857D02*
X349068628Y-271486905D01*
X348544819Y-272391667D02*
X348544819Y-273058333D01*
X348544819Y-273058333D02*
X349544819Y-272629762D01*
X343639819Y-286822142D02*
X343163628Y-286488809D01*
X343639819Y-286250714D02*
X342639819Y-286250714D01*
X342639819Y-286250714D02*
X342639819Y-286631666D01*
X342639819Y-286631666D02*
X342687438Y-286726904D01*
X342687438Y-286726904D02*
X342735057Y-286774523D01*
X342735057Y-286774523D02*
X342830295Y-286822142D01*
X342830295Y-286822142D02*
X342973152Y-286822142D01*
X342973152Y-286822142D02*
X343068390Y-286774523D01*
X343068390Y-286774523D02*
X343116009Y-286726904D01*
X343116009Y-286726904D02*
X343163628Y-286631666D01*
X343163628Y-286631666D02*
X343163628Y-286250714D01*
X343639819Y-287774523D02*
X343639819Y-287203095D01*
X343639819Y-287488809D02*
X342639819Y-287488809D01*
X342639819Y-287488809D02*
X342782676Y-287393571D01*
X342782676Y-287393571D02*
X342877914Y-287298333D01*
X342877914Y-287298333D02*
X342925533Y-287203095D01*
X343068390Y-288345952D02*
X343020771Y-288250714D01*
X343020771Y-288250714D02*
X342973152Y-288203095D01*
X342973152Y-288203095D02*
X342877914Y-288155476D01*
X342877914Y-288155476D02*
X342830295Y-288155476D01*
X342830295Y-288155476D02*
X342735057Y-288203095D01*
X342735057Y-288203095D02*
X342687438Y-288250714D01*
X342687438Y-288250714D02*
X342639819Y-288345952D01*
X342639819Y-288345952D02*
X342639819Y-288536428D01*
X342639819Y-288536428D02*
X342687438Y-288631666D01*
X342687438Y-288631666D02*
X342735057Y-288679285D01*
X342735057Y-288679285D02*
X342830295Y-288726904D01*
X342830295Y-288726904D02*
X342877914Y-288726904D01*
X342877914Y-288726904D02*
X342973152Y-288679285D01*
X342973152Y-288679285D02*
X343020771Y-288631666D01*
X343020771Y-288631666D02*
X343068390Y-288536428D01*
X343068390Y-288536428D02*
X343068390Y-288345952D01*
X343068390Y-288345952D02*
X343116009Y-288250714D01*
X343116009Y-288250714D02*
X343163628Y-288203095D01*
X343163628Y-288203095D02*
X343258866Y-288155476D01*
X343258866Y-288155476D02*
X343449342Y-288155476D01*
X343449342Y-288155476D02*
X343544580Y-288203095D01*
X343544580Y-288203095D02*
X343592200Y-288250714D01*
X343592200Y-288250714D02*
X343639819Y-288345952D01*
X343639819Y-288345952D02*
X343639819Y-288536428D01*
X343639819Y-288536428D02*
X343592200Y-288631666D01*
X343592200Y-288631666D02*
X343544580Y-288679285D01*
X343544580Y-288679285D02*
X343449342Y-288726904D01*
X343449342Y-288726904D02*
X343258866Y-288726904D01*
X343258866Y-288726904D02*
X343163628Y-288679285D01*
X343163628Y-288679285D02*
X343116009Y-288631666D01*
X343116009Y-288631666D02*
X343068390Y-288536428D01*
X333827857Y-258104819D02*
X334161190Y-257628628D01*
X334399285Y-258104819D02*
X334399285Y-257104819D01*
X334399285Y-257104819D02*
X334018333Y-257104819D01*
X334018333Y-257104819D02*
X333923095Y-257152438D01*
X333923095Y-257152438D02*
X333875476Y-257200057D01*
X333875476Y-257200057D02*
X333827857Y-257295295D01*
X333827857Y-257295295D02*
X333827857Y-257438152D01*
X333827857Y-257438152D02*
X333875476Y-257533390D01*
X333875476Y-257533390D02*
X333923095Y-257581009D01*
X333923095Y-257581009D02*
X334018333Y-257628628D01*
X334018333Y-257628628D02*
X334399285Y-257628628D01*
X332875476Y-258104819D02*
X333446904Y-258104819D01*
X333161190Y-258104819D02*
X333161190Y-257104819D01*
X333161190Y-257104819D02*
X333256428Y-257247676D01*
X333256428Y-257247676D02*
X333351666Y-257342914D01*
X333351666Y-257342914D02*
X333446904Y-257390533D01*
X332018333Y-257438152D02*
X332018333Y-258104819D01*
X332256428Y-257057200D02*
X332494523Y-257771485D01*
X332494523Y-257771485D02*
X331875476Y-257771485D01*
X339751666Y-231659580D02*
X339799285Y-231707200D01*
X339799285Y-231707200D02*
X339942142Y-231754819D01*
X339942142Y-231754819D02*
X340037380Y-231754819D01*
X340037380Y-231754819D02*
X340180237Y-231707200D01*
X340180237Y-231707200D02*
X340275475Y-231611961D01*
X340275475Y-231611961D02*
X340323094Y-231516723D01*
X340323094Y-231516723D02*
X340370713Y-231326247D01*
X340370713Y-231326247D02*
X340370713Y-231183390D01*
X340370713Y-231183390D02*
X340323094Y-230992914D01*
X340323094Y-230992914D02*
X340275475Y-230897676D01*
X340275475Y-230897676D02*
X340180237Y-230802438D01*
X340180237Y-230802438D02*
X340037380Y-230754819D01*
X340037380Y-230754819D02*
X339942142Y-230754819D01*
X339942142Y-230754819D02*
X339799285Y-230802438D01*
X339799285Y-230802438D02*
X339751666Y-230850057D01*
X339418332Y-230754819D02*
X338751666Y-230754819D01*
X338751666Y-230754819D02*
X339180237Y-231754819D01*
X345587857Y-244039580D02*
X345635476Y-244087200D01*
X345635476Y-244087200D02*
X345778333Y-244134819D01*
X345778333Y-244134819D02*
X345873571Y-244134819D01*
X345873571Y-244134819D02*
X346016428Y-244087200D01*
X346016428Y-244087200D02*
X346111666Y-243991961D01*
X346111666Y-243991961D02*
X346159285Y-243896723D01*
X346159285Y-243896723D02*
X346206904Y-243706247D01*
X346206904Y-243706247D02*
X346206904Y-243563390D01*
X346206904Y-243563390D02*
X346159285Y-243372914D01*
X346159285Y-243372914D02*
X346111666Y-243277676D01*
X346111666Y-243277676D02*
X346016428Y-243182438D01*
X346016428Y-243182438D02*
X345873571Y-243134819D01*
X345873571Y-243134819D02*
X345778333Y-243134819D01*
X345778333Y-243134819D02*
X345635476Y-243182438D01*
X345635476Y-243182438D02*
X345587857Y-243230057D01*
X344635476Y-244134819D02*
X345206904Y-244134819D01*
X344921190Y-244134819D02*
X344921190Y-243134819D01*
X344921190Y-243134819D02*
X345016428Y-243277676D01*
X345016428Y-243277676D02*
X345111666Y-243372914D01*
X345111666Y-243372914D02*
X345206904Y-243420533D01*
X344302142Y-243134819D02*
X343635476Y-243134819D01*
X343635476Y-243134819D02*
X344064047Y-244134819D01*
X359576666Y-230229580D02*
X359624285Y-230277200D01*
X359624285Y-230277200D02*
X359767142Y-230324819D01*
X359767142Y-230324819D02*
X359862380Y-230324819D01*
X359862380Y-230324819D02*
X360005237Y-230277200D01*
X360005237Y-230277200D02*
X360100475Y-230181961D01*
X360100475Y-230181961D02*
X360148094Y-230086723D01*
X360148094Y-230086723D02*
X360195713Y-229896247D01*
X360195713Y-229896247D02*
X360195713Y-229753390D01*
X360195713Y-229753390D02*
X360148094Y-229562914D01*
X360148094Y-229562914D02*
X360100475Y-229467676D01*
X360100475Y-229467676D02*
X360005237Y-229372438D01*
X360005237Y-229372438D02*
X359862380Y-229324819D01*
X359862380Y-229324819D02*
X359767142Y-229324819D01*
X359767142Y-229324819D02*
X359624285Y-229372438D01*
X359624285Y-229372438D02*
X359576666Y-229420057D01*
X359005237Y-229753390D02*
X359100475Y-229705771D01*
X359100475Y-229705771D02*
X359148094Y-229658152D01*
X359148094Y-229658152D02*
X359195713Y-229562914D01*
X359195713Y-229562914D02*
X359195713Y-229515295D01*
X359195713Y-229515295D02*
X359148094Y-229420057D01*
X359148094Y-229420057D02*
X359100475Y-229372438D01*
X359100475Y-229372438D02*
X359005237Y-229324819D01*
X359005237Y-229324819D02*
X358814761Y-229324819D01*
X358814761Y-229324819D02*
X358719523Y-229372438D01*
X358719523Y-229372438D02*
X358671904Y-229420057D01*
X358671904Y-229420057D02*
X358624285Y-229515295D01*
X358624285Y-229515295D02*
X358624285Y-229562914D01*
X358624285Y-229562914D02*
X358671904Y-229658152D01*
X358671904Y-229658152D02*
X358719523Y-229705771D01*
X358719523Y-229705771D02*
X358814761Y-229753390D01*
X358814761Y-229753390D02*
X359005237Y-229753390D01*
X359005237Y-229753390D02*
X359100475Y-229801009D01*
X359100475Y-229801009D02*
X359148094Y-229848628D01*
X359148094Y-229848628D02*
X359195713Y-229943866D01*
X359195713Y-229943866D02*
X359195713Y-230134342D01*
X359195713Y-230134342D02*
X359148094Y-230229580D01*
X359148094Y-230229580D02*
X359100475Y-230277200D01*
X359100475Y-230277200D02*
X359005237Y-230324819D01*
X359005237Y-230324819D02*
X358814761Y-230324819D01*
X358814761Y-230324819D02*
X358719523Y-230277200D01*
X358719523Y-230277200D02*
X358671904Y-230229580D01*
X358671904Y-230229580D02*
X358624285Y-230134342D01*
X358624285Y-230134342D02*
X358624285Y-229943866D01*
X358624285Y-229943866D02*
X358671904Y-229848628D01*
X358671904Y-229848628D02*
X358719523Y-229801009D01*
X358719523Y-229801009D02*
X358814761Y-229753390D01*
X302619580Y-286853333D02*
X302667200Y-286805714D01*
X302667200Y-286805714D02*
X302714819Y-286662857D01*
X302714819Y-286662857D02*
X302714819Y-286567619D01*
X302714819Y-286567619D02*
X302667200Y-286424762D01*
X302667200Y-286424762D02*
X302571961Y-286329524D01*
X302571961Y-286329524D02*
X302476723Y-286281905D01*
X302476723Y-286281905D02*
X302286247Y-286234286D01*
X302286247Y-286234286D02*
X302143390Y-286234286D01*
X302143390Y-286234286D02*
X301952914Y-286281905D01*
X301952914Y-286281905D02*
X301857676Y-286329524D01*
X301857676Y-286329524D02*
X301762438Y-286424762D01*
X301762438Y-286424762D02*
X301714819Y-286567619D01*
X301714819Y-286567619D02*
X301714819Y-286662857D01*
X301714819Y-286662857D02*
X301762438Y-286805714D01*
X301762438Y-286805714D02*
X301810057Y-286853333D01*
X302714819Y-287805714D02*
X302714819Y-287234286D01*
X302714819Y-287520000D02*
X301714819Y-287520000D01*
X301714819Y-287520000D02*
X301857676Y-287424762D01*
X301857676Y-287424762D02*
X301952914Y-287329524D01*
X301952914Y-287329524D02*
X302000533Y-287234286D01*
X289759580Y-272388333D02*
X289807200Y-272340714D01*
X289807200Y-272340714D02*
X289854819Y-272197857D01*
X289854819Y-272197857D02*
X289854819Y-272102619D01*
X289854819Y-272102619D02*
X289807200Y-271959762D01*
X289807200Y-271959762D02*
X289711961Y-271864524D01*
X289711961Y-271864524D02*
X289616723Y-271816905D01*
X289616723Y-271816905D02*
X289426247Y-271769286D01*
X289426247Y-271769286D02*
X289283390Y-271769286D01*
X289283390Y-271769286D02*
X289092914Y-271816905D01*
X289092914Y-271816905D02*
X288997676Y-271864524D01*
X288997676Y-271864524D02*
X288902438Y-271959762D01*
X288902438Y-271959762D02*
X288854819Y-272102619D01*
X288854819Y-272102619D02*
X288854819Y-272197857D01*
X288854819Y-272197857D02*
X288902438Y-272340714D01*
X288902438Y-272340714D02*
X288950057Y-272388333D01*
X288854819Y-272721667D02*
X288854819Y-273340714D01*
X288854819Y-273340714D02*
X289235771Y-273007381D01*
X289235771Y-273007381D02*
X289235771Y-273150238D01*
X289235771Y-273150238D02*
X289283390Y-273245476D01*
X289283390Y-273245476D02*
X289331009Y-273293095D01*
X289331009Y-273293095D02*
X289426247Y-273340714D01*
X289426247Y-273340714D02*
X289664342Y-273340714D01*
X289664342Y-273340714D02*
X289759580Y-273293095D01*
X289759580Y-273293095D02*
X289807200Y-273245476D01*
X289807200Y-273245476D02*
X289854819Y-273150238D01*
X289854819Y-273150238D02*
X289854819Y-272864524D01*
X289854819Y-272864524D02*
X289807200Y-272769286D01*
X289807200Y-272769286D02*
X289759580Y-272721667D01*
X310046666Y-281124819D02*
X310379999Y-280648628D01*
X310618094Y-281124819D02*
X310618094Y-280124819D01*
X310618094Y-280124819D02*
X310237142Y-280124819D01*
X310237142Y-280124819D02*
X310141904Y-280172438D01*
X310141904Y-280172438D02*
X310094285Y-280220057D01*
X310094285Y-280220057D02*
X310046666Y-280315295D01*
X310046666Y-280315295D02*
X310046666Y-280458152D01*
X310046666Y-280458152D02*
X310094285Y-280553390D01*
X310094285Y-280553390D02*
X310141904Y-280601009D01*
X310141904Y-280601009D02*
X310237142Y-280648628D01*
X310237142Y-280648628D02*
X310618094Y-280648628D01*
X309094285Y-281124819D02*
X309665713Y-281124819D01*
X309379999Y-281124819D02*
X309379999Y-280124819D01*
X309379999Y-280124819D02*
X309475237Y-280267676D01*
X309475237Y-280267676D02*
X309570475Y-280362914D01*
X309570475Y-280362914D02*
X309665713Y-280410533D01*
X349544819Y-286822142D02*
X349068628Y-286488809D01*
X349544819Y-286250714D02*
X348544819Y-286250714D01*
X348544819Y-286250714D02*
X348544819Y-286631666D01*
X348544819Y-286631666D02*
X348592438Y-286726904D01*
X348592438Y-286726904D02*
X348640057Y-286774523D01*
X348640057Y-286774523D02*
X348735295Y-286822142D01*
X348735295Y-286822142D02*
X348878152Y-286822142D01*
X348878152Y-286822142D02*
X348973390Y-286774523D01*
X348973390Y-286774523D02*
X349021009Y-286726904D01*
X349021009Y-286726904D02*
X349068628Y-286631666D01*
X349068628Y-286631666D02*
X349068628Y-286250714D01*
X349544819Y-287774523D02*
X349544819Y-287203095D01*
X349544819Y-287488809D02*
X348544819Y-287488809D01*
X348544819Y-287488809D02*
X348687676Y-287393571D01*
X348687676Y-287393571D02*
X348782914Y-287298333D01*
X348782914Y-287298333D02*
X348830533Y-287203095D01*
X348544819Y-288107857D02*
X348544819Y-288774523D01*
X348544819Y-288774523D02*
X349544819Y-288345952D01*
X339732857Y-244039580D02*
X339780476Y-244087200D01*
X339780476Y-244087200D02*
X339923333Y-244134819D01*
X339923333Y-244134819D02*
X340018571Y-244134819D01*
X340018571Y-244134819D02*
X340161428Y-244087200D01*
X340161428Y-244087200D02*
X340256666Y-243991961D01*
X340256666Y-243991961D02*
X340304285Y-243896723D01*
X340304285Y-243896723D02*
X340351904Y-243706247D01*
X340351904Y-243706247D02*
X340351904Y-243563390D01*
X340351904Y-243563390D02*
X340304285Y-243372914D01*
X340304285Y-243372914D02*
X340256666Y-243277676D01*
X340256666Y-243277676D02*
X340161428Y-243182438D01*
X340161428Y-243182438D02*
X340018571Y-243134819D01*
X340018571Y-243134819D02*
X339923333Y-243134819D01*
X339923333Y-243134819D02*
X339780476Y-243182438D01*
X339780476Y-243182438D02*
X339732857Y-243230057D01*
X338780476Y-244134819D02*
X339351904Y-244134819D01*
X339066190Y-244134819D02*
X339066190Y-243134819D01*
X339066190Y-243134819D02*
X339161428Y-243277676D01*
X339161428Y-243277676D02*
X339256666Y-243372914D01*
X339256666Y-243372914D02*
X339351904Y-243420533D01*
X337923333Y-243134819D02*
X338113809Y-243134819D01*
X338113809Y-243134819D02*
X338209047Y-243182438D01*
X338209047Y-243182438D02*
X338256666Y-243230057D01*
X338256666Y-243230057D02*
X338351904Y-243372914D01*
X338351904Y-243372914D02*
X338399523Y-243563390D01*
X338399523Y-243563390D02*
X338399523Y-243944342D01*
X338399523Y-243944342D02*
X338351904Y-244039580D01*
X338351904Y-244039580D02*
X338304285Y-244087200D01*
X338304285Y-244087200D02*
X338209047Y-244134819D01*
X338209047Y-244134819D02*
X338018571Y-244134819D01*
X338018571Y-244134819D02*
X337923333Y-244087200D01*
X337923333Y-244087200D02*
X337875714Y-244039580D01*
X337875714Y-244039580D02*
X337828095Y-243944342D01*
X337828095Y-243944342D02*
X337828095Y-243706247D01*
X337828095Y-243706247D02*
X337875714Y-243611009D01*
X337875714Y-243611009D02*
X337923333Y-243563390D01*
X337923333Y-243563390D02*
X338018571Y-243515771D01*
X338018571Y-243515771D02*
X338209047Y-243515771D01*
X338209047Y-243515771D02*
X338304285Y-243563390D01*
X338304285Y-243563390D02*
X338351904Y-243611009D01*
X338351904Y-243611009D02*
X338399523Y-243706247D01*
X355797857Y-261914819D02*
X356131190Y-261438628D01*
X356369285Y-261914819D02*
X356369285Y-260914819D01*
X356369285Y-260914819D02*
X355988333Y-260914819D01*
X355988333Y-260914819D02*
X355893095Y-260962438D01*
X355893095Y-260962438D02*
X355845476Y-261010057D01*
X355845476Y-261010057D02*
X355797857Y-261105295D01*
X355797857Y-261105295D02*
X355797857Y-261248152D01*
X355797857Y-261248152D02*
X355845476Y-261343390D01*
X355845476Y-261343390D02*
X355893095Y-261391009D01*
X355893095Y-261391009D02*
X355988333Y-261438628D01*
X355988333Y-261438628D02*
X356369285Y-261438628D01*
X354845476Y-261914819D02*
X355416904Y-261914819D01*
X355131190Y-261914819D02*
X355131190Y-260914819D01*
X355131190Y-260914819D02*
X355226428Y-261057676D01*
X355226428Y-261057676D02*
X355321666Y-261152914D01*
X355321666Y-261152914D02*
X355416904Y-261200533D01*
X354226428Y-260914819D02*
X354131190Y-260914819D01*
X354131190Y-260914819D02*
X354035952Y-260962438D01*
X354035952Y-260962438D02*
X353988333Y-261010057D01*
X353988333Y-261010057D02*
X353940714Y-261105295D01*
X353940714Y-261105295D02*
X353893095Y-261295771D01*
X353893095Y-261295771D02*
X353893095Y-261533866D01*
X353893095Y-261533866D02*
X353940714Y-261724342D01*
X353940714Y-261724342D02*
X353988333Y-261819580D01*
X353988333Y-261819580D02*
X354035952Y-261867200D01*
X354035952Y-261867200D02*
X354131190Y-261914819D01*
X354131190Y-261914819D02*
X354226428Y-261914819D01*
X354226428Y-261914819D02*
X354321666Y-261867200D01*
X354321666Y-261867200D02*
X354369285Y-261819580D01*
X354369285Y-261819580D02*
X354416904Y-261724342D01*
X354416904Y-261724342D02*
X354464523Y-261533866D01*
X354464523Y-261533866D02*
X354464523Y-261295771D01*
X354464523Y-261295771D02*
X354416904Y-261105295D01*
X354416904Y-261105295D02*
X354369285Y-261010057D01*
X354369285Y-261010057D02*
X354321666Y-260962438D01*
X354321666Y-260962438D02*
X354226428Y-260914819D01*
X359576666Y-232769580D02*
X359624285Y-232817200D01*
X359624285Y-232817200D02*
X359767142Y-232864819D01*
X359767142Y-232864819D02*
X359862380Y-232864819D01*
X359862380Y-232864819D02*
X360005237Y-232817200D01*
X360005237Y-232817200D02*
X360100475Y-232721961D01*
X360100475Y-232721961D02*
X360148094Y-232626723D01*
X360148094Y-232626723D02*
X360195713Y-232436247D01*
X360195713Y-232436247D02*
X360195713Y-232293390D01*
X360195713Y-232293390D02*
X360148094Y-232102914D01*
X360148094Y-232102914D02*
X360100475Y-232007676D01*
X360100475Y-232007676D02*
X360005237Y-231912438D01*
X360005237Y-231912438D02*
X359862380Y-231864819D01*
X359862380Y-231864819D02*
X359767142Y-231864819D01*
X359767142Y-231864819D02*
X359624285Y-231912438D01*
X359624285Y-231912438D02*
X359576666Y-231960057D01*
X358719523Y-231864819D02*
X358909999Y-231864819D01*
X358909999Y-231864819D02*
X359005237Y-231912438D01*
X359005237Y-231912438D02*
X359052856Y-231960057D01*
X359052856Y-231960057D02*
X359148094Y-232102914D01*
X359148094Y-232102914D02*
X359195713Y-232293390D01*
X359195713Y-232293390D02*
X359195713Y-232674342D01*
X359195713Y-232674342D02*
X359148094Y-232769580D01*
X359148094Y-232769580D02*
X359100475Y-232817200D01*
X359100475Y-232817200D02*
X359005237Y-232864819D01*
X359005237Y-232864819D02*
X358814761Y-232864819D01*
X358814761Y-232864819D02*
X358719523Y-232817200D01*
X358719523Y-232817200D02*
X358671904Y-232769580D01*
X358671904Y-232769580D02*
X358624285Y-232674342D01*
X358624285Y-232674342D02*
X358624285Y-232436247D01*
X358624285Y-232436247D02*
X358671904Y-232341009D01*
X358671904Y-232341009D02*
X358719523Y-232293390D01*
X358719523Y-232293390D02*
X358814761Y-232245771D01*
X358814761Y-232245771D02*
X359005237Y-232245771D01*
X359005237Y-232245771D02*
X359100475Y-232293390D01*
X359100475Y-232293390D02*
X359148094Y-232341009D01*
X359148094Y-232341009D02*
X359195713Y-232436247D01*
X351527857Y-282459580D02*
X351575476Y-282507200D01*
X351575476Y-282507200D02*
X351718333Y-282554819D01*
X351718333Y-282554819D02*
X351813571Y-282554819D01*
X351813571Y-282554819D02*
X351956428Y-282507200D01*
X351956428Y-282507200D02*
X352051666Y-282411961D01*
X352051666Y-282411961D02*
X352099285Y-282316723D01*
X352099285Y-282316723D02*
X352146904Y-282126247D01*
X352146904Y-282126247D02*
X352146904Y-281983390D01*
X352146904Y-281983390D02*
X352099285Y-281792914D01*
X352099285Y-281792914D02*
X352051666Y-281697676D01*
X352051666Y-281697676D02*
X351956428Y-281602438D01*
X351956428Y-281602438D02*
X351813571Y-281554819D01*
X351813571Y-281554819D02*
X351718333Y-281554819D01*
X351718333Y-281554819D02*
X351575476Y-281602438D01*
X351575476Y-281602438D02*
X351527857Y-281650057D01*
X350575476Y-282554819D02*
X351146904Y-282554819D01*
X350861190Y-282554819D02*
X350861190Y-281554819D01*
X350861190Y-281554819D02*
X350956428Y-281697676D01*
X350956428Y-281697676D02*
X351051666Y-281792914D01*
X351051666Y-281792914D02*
X351146904Y-281840533D01*
X350194523Y-281650057D02*
X350146904Y-281602438D01*
X350146904Y-281602438D02*
X350051666Y-281554819D01*
X350051666Y-281554819D02*
X349813571Y-281554819D01*
X349813571Y-281554819D02*
X349718333Y-281602438D01*
X349718333Y-281602438D02*
X349670714Y-281650057D01*
X349670714Y-281650057D02*
X349623095Y-281745295D01*
X349623095Y-281745295D02*
X349623095Y-281840533D01*
X349623095Y-281840533D02*
X349670714Y-281983390D01*
X349670714Y-281983390D02*
X350242142Y-282554819D01*
X350242142Y-282554819D02*
X349623095Y-282554819D01*
X340814819Y-285107142D02*
X340338628Y-284773809D01*
X340814819Y-284535714D02*
X339814819Y-284535714D01*
X339814819Y-284535714D02*
X339814819Y-284916666D01*
X339814819Y-284916666D02*
X339862438Y-285011904D01*
X339862438Y-285011904D02*
X339910057Y-285059523D01*
X339910057Y-285059523D02*
X340005295Y-285107142D01*
X340005295Y-285107142D02*
X340148152Y-285107142D01*
X340148152Y-285107142D02*
X340243390Y-285059523D01*
X340243390Y-285059523D02*
X340291009Y-285011904D01*
X340291009Y-285011904D02*
X340338628Y-284916666D01*
X340338628Y-284916666D02*
X340338628Y-284535714D01*
X340814819Y-286059523D02*
X340814819Y-285488095D01*
X340814819Y-285773809D02*
X339814819Y-285773809D01*
X339814819Y-285773809D02*
X339957676Y-285678571D01*
X339957676Y-285678571D02*
X340052914Y-285583333D01*
X340052914Y-285583333D02*
X340100533Y-285488095D01*
X339814819Y-286916666D02*
X339814819Y-286726190D01*
X339814819Y-286726190D02*
X339862438Y-286630952D01*
X339862438Y-286630952D02*
X339910057Y-286583333D01*
X339910057Y-286583333D02*
X340052914Y-286488095D01*
X340052914Y-286488095D02*
X340243390Y-286440476D01*
X340243390Y-286440476D02*
X340624342Y-286440476D01*
X340624342Y-286440476D02*
X340719580Y-286488095D01*
X340719580Y-286488095D02*
X340767200Y-286535714D01*
X340767200Y-286535714D02*
X340814819Y-286630952D01*
X340814819Y-286630952D02*
X340814819Y-286821428D01*
X340814819Y-286821428D02*
X340767200Y-286916666D01*
X340767200Y-286916666D02*
X340719580Y-286964285D01*
X340719580Y-286964285D02*
X340624342Y-287011904D01*
X340624342Y-287011904D02*
X340386247Y-287011904D01*
X340386247Y-287011904D02*
X340291009Y-286964285D01*
X340291009Y-286964285D02*
X340243390Y-286916666D01*
X340243390Y-286916666D02*
X340195771Y-286821428D01*
X340195771Y-286821428D02*
X340195771Y-286630952D01*
X340195771Y-286630952D02*
X340243390Y-286535714D01*
X340243390Y-286535714D02*
X340291009Y-286488095D01*
X340291009Y-286488095D02*
X340386247Y-286440476D01*
X351527857Y-276424580D02*
X351575476Y-276472200D01*
X351575476Y-276472200D02*
X351718333Y-276519819D01*
X351718333Y-276519819D02*
X351813571Y-276519819D01*
X351813571Y-276519819D02*
X351956428Y-276472200D01*
X351956428Y-276472200D02*
X352051666Y-276376961D01*
X352051666Y-276376961D02*
X352099285Y-276281723D01*
X352099285Y-276281723D02*
X352146904Y-276091247D01*
X352146904Y-276091247D02*
X352146904Y-275948390D01*
X352146904Y-275948390D02*
X352099285Y-275757914D01*
X352099285Y-275757914D02*
X352051666Y-275662676D01*
X352051666Y-275662676D02*
X351956428Y-275567438D01*
X351956428Y-275567438D02*
X351813571Y-275519819D01*
X351813571Y-275519819D02*
X351718333Y-275519819D01*
X351718333Y-275519819D02*
X351575476Y-275567438D01*
X351575476Y-275567438D02*
X351527857Y-275615057D01*
X350575476Y-276519819D02*
X351146904Y-276519819D01*
X350861190Y-276519819D02*
X350861190Y-275519819D01*
X350861190Y-275519819D02*
X350956428Y-275662676D01*
X350956428Y-275662676D02*
X351051666Y-275757914D01*
X351051666Y-275757914D02*
X351146904Y-275805533D01*
X349956428Y-275519819D02*
X349861190Y-275519819D01*
X349861190Y-275519819D02*
X349765952Y-275567438D01*
X349765952Y-275567438D02*
X349718333Y-275615057D01*
X349718333Y-275615057D02*
X349670714Y-275710295D01*
X349670714Y-275710295D02*
X349623095Y-275900771D01*
X349623095Y-275900771D02*
X349623095Y-276138866D01*
X349623095Y-276138866D02*
X349670714Y-276329342D01*
X349670714Y-276329342D02*
X349718333Y-276424580D01*
X349718333Y-276424580D02*
X349765952Y-276472200D01*
X349765952Y-276472200D02*
X349861190Y-276519819D01*
X349861190Y-276519819D02*
X349956428Y-276519819D01*
X349956428Y-276519819D02*
X350051666Y-276472200D01*
X350051666Y-276472200D02*
X350099285Y-276424580D01*
X350099285Y-276424580D02*
X350146904Y-276329342D01*
X350146904Y-276329342D02*
X350194523Y-276138866D01*
X350194523Y-276138866D02*
X350194523Y-275900771D01*
X350194523Y-275900771D02*
X350146904Y-275710295D01*
X350146904Y-275710295D02*
X350099285Y-275615057D01*
X350099285Y-275615057D02*
X350051666Y-275567438D01*
X350051666Y-275567438D02*
X349956428Y-275519819D01*
X334464819Y-287647142D02*
X333988628Y-287313809D01*
X334464819Y-287075714D02*
X333464819Y-287075714D01*
X333464819Y-287075714D02*
X333464819Y-287456666D01*
X333464819Y-287456666D02*
X333512438Y-287551904D01*
X333512438Y-287551904D02*
X333560057Y-287599523D01*
X333560057Y-287599523D02*
X333655295Y-287647142D01*
X333655295Y-287647142D02*
X333798152Y-287647142D01*
X333798152Y-287647142D02*
X333893390Y-287599523D01*
X333893390Y-287599523D02*
X333941009Y-287551904D01*
X333941009Y-287551904D02*
X333988628Y-287456666D01*
X333988628Y-287456666D02*
X333988628Y-287075714D01*
X334464819Y-288599523D02*
X334464819Y-288028095D01*
X334464819Y-288313809D02*
X333464819Y-288313809D01*
X333464819Y-288313809D02*
X333607676Y-288218571D01*
X333607676Y-288218571D02*
X333702914Y-288123333D01*
X333702914Y-288123333D02*
X333750533Y-288028095D01*
X333464819Y-289504285D02*
X333464819Y-289028095D01*
X333464819Y-289028095D02*
X333941009Y-288980476D01*
X333941009Y-288980476D02*
X333893390Y-289028095D01*
X333893390Y-289028095D02*
X333845771Y-289123333D01*
X333845771Y-289123333D02*
X333845771Y-289361428D01*
X333845771Y-289361428D02*
X333893390Y-289456666D01*
X333893390Y-289456666D02*
X333941009Y-289504285D01*
X333941009Y-289504285D02*
X334036247Y-289551904D01*
X334036247Y-289551904D02*
X334274342Y-289551904D01*
X334274342Y-289551904D02*
X334369580Y-289504285D01*
X334369580Y-289504285D02*
X334417200Y-289456666D01*
X334417200Y-289456666D02*
X334464819Y-289361428D01*
X334464819Y-289361428D02*
X334464819Y-289123333D01*
X334464819Y-289123333D02*
X334417200Y-289028095D01*
X334417200Y-289028095D02*
X334369580Y-288980476D01*
X292299580Y-269848333D02*
X292347200Y-269800714D01*
X292347200Y-269800714D02*
X292394819Y-269657857D01*
X292394819Y-269657857D02*
X292394819Y-269562619D01*
X292394819Y-269562619D02*
X292347200Y-269419762D01*
X292347200Y-269419762D02*
X292251961Y-269324524D01*
X292251961Y-269324524D02*
X292156723Y-269276905D01*
X292156723Y-269276905D02*
X291966247Y-269229286D01*
X291966247Y-269229286D02*
X291823390Y-269229286D01*
X291823390Y-269229286D02*
X291632914Y-269276905D01*
X291632914Y-269276905D02*
X291537676Y-269324524D01*
X291537676Y-269324524D02*
X291442438Y-269419762D01*
X291442438Y-269419762D02*
X291394819Y-269562619D01*
X291394819Y-269562619D02*
X291394819Y-269657857D01*
X291394819Y-269657857D02*
X291442438Y-269800714D01*
X291442438Y-269800714D02*
X291490057Y-269848333D01*
X291490057Y-270229286D02*
X291442438Y-270276905D01*
X291442438Y-270276905D02*
X291394819Y-270372143D01*
X291394819Y-270372143D02*
X291394819Y-270610238D01*
X291394819Y-270610238D02*
X291442438Y-270705476D01*
X291442438Y-270705476D02*
X291490057Y-270753095D01*
X291490057Y-270753095D02*
X291585295Y-270800714D01*
X291585295Y-270800714D02*
X291680533Y-270800714D01*
X291680533Y-270800714D02*
X291823390Y-270753095D01*
X291823390Y-270753095D02*
X292394819Y-270181667D01*
X292394819Y-270181667D02*
X292394819Y-270800714D01*
X310046666Y-286204819D02*
X310379999Y-285728628D01*
X310618094Y-286204819D02*
X310618094Y-285204819D01*
X310618094Y-285204819D02*
X310237142Y-285204819D01*
X310237142Y-285204819D02*
X310141904Y-285252438D01*
X310141904Y-285252438D02*
X310094285Y-285300057D01*
X310094285Y-285300057D02*
X310046666Y-285395295D01*
X310046666Y-285395295D02*
X310046666Y-285538152D01*
X310046666Y-285538152D02*
X310094285Y-285633390D01*
X310094285Y-285633390D02*
X310141904Y-285681009D01*
X310141904Y-285681009D02*
X310237142Y-285728628D01*
X310237142Y-285728628D02*
X310618094Y-285728628D01*
X309713332Y-285204819D02*
X309094285Y-285204819D01*
X309094285Y-285204819D02*
X309427618Y-285585771D01*
X309427618Y-285585771D02*
X309284761Y-285585771D01*
X309284761Y-285585771D02*
X309189523Y-285633390D01*
X309189523Y-285633390D02*
X309141904Y-285681009D01*
X309141904Y-285681009D02*
X309094285Y-285776247D01*
X309094285Y-285776247D02*
X309094285Y-286014342D01*
X309094285Y-286014342D02*
X309141904Y-286109580D01*
X309141904Y-286109580D02*
X309189523Y-286157200D01*
X309189523Y-286157200D02*
X309284761Y-286204819D01*
X309284761Y-286204819D02*
X309570475Y-286204819D01*
X309570475Y-286204819D02*
X309665713Y-286157200D01*
X309665713Y-286157200D02*
X309713332Y-286109580D01*
X355321666Y-266994819D02*
X355654999Y-266518628D01*
X355893094Y-266994819D02*
X355893094Y-265994819D01*
X355893094Y-265994819D02*
X355512142Y-265994819D01*
X355512142Y-265994819D02*
X355416904Y-266042438D01*
X355416904Y-266042438D02*
X355369285Y-266090057D01*
X355369285Y-266090057D02*
X355321666Y-266185295D01*
X355321666Y-266185295D02*
X355321666Y-266328152D01*
X355321666Y-266328152D02*
X355369285Y-266423390D01*
X355369285Y-266423390D02*
X355416904Y-266471009D01*
X355416904Y-266471009D02*
X355512142Y-266518628D01*
X355512142Y-266518628D02*
X355893094Y-266518628D01*
X354464523Y-266328152D02*
X354464523Y-266994819D01*
X354702618Y-265947200D02*
X354940713Y-266661485D01*
X354940713Y-266661485D02*
X354321666Y-266661485D01*
X355321666Y-259694819D02*
X355654999Y-259218628D01*
X355893094Y-259694819D02*
X355893094Y-258694819D01*
X355893094Y-258694819D02*
X355512142Y-258694819D01*
X355512142Y-258694819D02*
X355416904Y-258742438D01*
X355416904Y-258742438D02*
X355369285Y-258790057D01*
X355369285Y-258790057D02*
X355321666Y-258885295D01*
X355321666Y-258885295D02*
X355321666Y-259028152D01*
X355321666Y-259028152D02*
X355369285Y-259123390D01*
X355369285Y-259123390D02*
X355416904Y-259171009D01*
X355416904Y-259171009D02*
X355512142Y-259218628D01*
X355512142Y-259218628D02*
X355893094Y-259218628D01*
X354750237Y-259123390D02*
X354845475Y-259075771D01*
X354845475Y-259075771D02*
X354893094Y-259028152D01*
X354893094Y-259028152D02*
X354940713Y-258932914D01*
X354940713Y-258932914D02*
X354940713Y-258885295D01*
X354940713Y-258885295D02*
X354893094Y-258790057D01*
X354893094Y-258790057D02*
X354845475Y-258742438D01*
X354845475Y-258742438D02*
X354750237Y-258694819D01*
X354750237Y-258694819D02*
X354559761Y-258694819D01*
X354559761Y-258694819D02*
X354464523Y-258742438D01*
X354464523Y-258742438D02*
X354416904Y-258790057D01*
X354416904Y-258790057D02*
X354369285Y-258885295D01*
X354369285Y-258885295D02*
X354369285Y-258932914D01*
X354369285Y-258932914D02*
X354416904Y-259028152D01*
X354416904Y-259028152D02*
X354464523Y-259075771D01*
X354464523Y-259075771D02*
X354559761Y-259123390D01*
X354559761Y-259123390D02*
X354750237Y-259123390D01*
X354750237Y-259123390D02*
X354845475Y-259171009D01*
X354845475Y-259171009D02*
X354893094Y-259218628D01*
X354893094Y-259218628D02*
X354940713Y-259313866D01*
X354940713Y-259313866D02*
X354940713Y-259504342D01*
X354940713Y-259504342D02*
X354893094Y-259599580D01*
X354893094Y-259599580D02*
X354845475Y-259647200D01*
X354845475Y-259647200D02*
X354750237Y-259694819D01*
X354750237Y-259694819D02*
X354559761Y-259694819D01*
X354559761Y-259694819D02*
X354464523Y-259647200D01*
X354464523Y-259647200D02*
X354416904Y-259599580D01*
X354416904Y-259599580D02*
X354369285Y-259504342D01*
X354369285Y-259504342D02*
X354369285Y-259313866D01*
X354369285Y-259313866D02*
X354416904Y-259218628D01*
X354416904Y-259218628D02*
X354464523Y-259171009D01*
X354464523Y-259171009D02*
X354559761Y-259123390D01*
X363579580Y-280503333D02*
X363627200Y-280455714D01*
X363627200Y-280455714D02*
X363674819Y-280312857D01*
X363674819Y-280312857D02*
X363674819Y-280217619D01*
X363674819Y-280217619D02*
X363627200Y-280074762D01*
X363627200Y-280074762D02*
X363531961Y-279979524D01*
X363531961Y-279979524D02*
X363436723Y-279931905D01*
X363436723Y-279931905D02*
X363246247Y-279884286D01*
X363246247Y-279884286D02*
X363103390Y-279884286D01*
X363103390Y-279884286D02*
X362912914Y-279931905D01*
X362912914Y-279931905D02*
X362817676Y-279979524D01*
X362817676Y-279979524D02*
X362722438Y-280074762D01*
X362722438Y-280074762D02*
X362674819Y-280217619D01*
X362674819Y-280217619D02*
X362674819Y-280312857D01*
X362674819Y-280312857D02*
X362722438Y-280455714D01*
X362722438Y-280455714D02*
X362770057Y-280503333D01*
X363674819Y-280979524D02*
X363674819Y-281170000D01*
X363674819Y-281170000D02*
X363627200Y-281265238D01*
X363627200Y-281265238D02*
X363579580Y-281312857D01*
X363579580Y-281312857D02*
X363436723Y-281408095D01*
X363436723Y-281408095D02*
X363246247Y-281455714D01*
X363246247Y-281455714D02*
X362865295Y-281455714D01*
X362865295Y-281455714D02*
X362770057Y-281408095D01*
X362770057Y-281408095D02*
X362722438Y-281360476D01*
X362722438Y-281360476D02*
X362674819Y-281265238D01*
X362674819Y-281265238D02*
X362674819Y-281074762D01*
X362674819Y-281074762D02*
X362722438Y-280979524D01*
X362722438Y-280979524D02*
X362770057Y-280931905D01*
X362770057Y-280931905D02*
X362865295Y-280884286D01*
X362865295Y-280884286D02*
X363103390Y-280884286D01*
X363103390Y-280884286D02*
X363198628Y-280931905D01*
X363198628Y-280931905D02*
X363246247Y-280979524D01*
X363246247Y-280979524D02*
X363293866Y-281074762D01*
X363293866Y-281074762D02*
X363293866Y-281265238D01*
X363293866Y-281265238D02*
X363246247Y-281360476D01*
X363246247Y-281360476D02*
X363198628Y-281408095D01*
X363198628Y-281408095D02*
X363103390Y-281455714D01*
X354944819Y-272058333D02*
X354468628Y-271725000D01*
X354944819Y-271486905D02*
X353944819Y-271486905D01*
X353944819Y-271486905D02*
X353944819Y-271867857D01*
X353944819Y-271867857D02*
X353992438Y-271963095D01*
X353992438Y-271963095D02*
X354040057Y-272010714D01*
X354040057Y-272010714D02*
X354135295Y-272058333D01*
X354135295Y-272058333D02*
X354278152Y-272058333D01*
X354278152Y-272058333D02*
X354373390Y-272010714D01*
X354373390Y-272010714D02*
X354421009Y-271963095D01*
X354421009Y-271963095D02*
X354468628Y-271867857D01*
X354468628Y-271867857D02*
X354468628Y-271486905D01*
X353944819Y-272915476D02*
X353944819Y-272725000D01*
X353944819Y-272725000D02*
X353992438Y-272629762D01*
X353992438Y-272629762D02*
X354040057Y-272582143D01*
X354040057Y-272582143D02*
X354182914Y-272486905D01*
X354182914Y-272486905D02*
X354373390Y-272439286D01*
X354373390Y-272439286D02*
X354754342Y-272439286D01*
X354754342Y-272439286D02*
X354849580Y-272486905D01*
X354849580Y-272486905D02*
X354897200Y-272534524D01*
X354897200Y-272534524D02*
X354944819Y-272629762D01*
X354944819Y-272629762D02*
X354944819Y-272820238D01*
X354944819Y-272820238D02*
X354897200Y-272915476D01*
X354897200Y-272915476D02*
X354849580Y-272963095D01*
X354849580Y-272963095D02*
X354754342Y-273010714D01*
X354754342Y-273010714D02*
X354516247Y-273010714D01*
X354516247Y-273010714D02*
X354421009Y-272963095D01*
X354421009Y-272963095D02*
X354373390Y-272915476D01*
X354373390Y-272915476D02*
X354325771Y-272820238D01*
X354325771Y-272820238D02*
X354325771Y-272629762D01*
X354325771Y-272629762D02*
X354373390Y-272534524D01*
X354373390Y-272534524D02*
X354421009Y-272486905D01*
X354421009Y-272486905D02*
X354516247Y-272439286D01*
D11*
%TO.C,R13*%
X338027742Y-258557500D02*
X338502258Y-258557500D01*
X338027742Y-259602500D02*
X338502258Y-259602500D01*
%TO.C,R2*%
X307132258Y-282687500D02*
X306657742Y-282687500D01*
X307132258Y-283732500D02*
X306657742Y-283732500D01*
%TO.C,R5*%
X363967500Y-270302258D02*
X363967500Y-269827742D01*
X365012500Y-270302258D02*
X365012500Y-269827742D01*
%TO.C,C4*%
X331824420Y-268730000D02*
X332105580Y-268730000D01*
X331824420Y-269750000D02*
X332105580Y-269750000D01*
%TO.C,R12*%
X310087742Y-275067500D02*
X310562258Y-275067500D01*
X310087742Y-276112500D02*
X310562258Y-276112500D01*
%TO.C,R7*%
X349997500Y-272462258D02*
X349997500Y-271987742D01*
X351042500Y-272462258D02*
X351042500Y-271987742D01*
%TO.C,R18*%
X344092500Y-287702258D02*
X344092500Y-287227742D01*
X345137500Y-287702258D02*
X345137500Y-287227742D01*
%TO.C,R14*%
X332947742Y-258557500D02*
X333422258Y-258557500D01*
X332947742Y-259602500D02*
X333422258Y-259602500D01*
%TO.C,C7*%
X339725580Y-229360000D02*
X339444420Y-229360000D01*
X339725580Y-230380000D02*
X339444420Y-230380000D01*
%TO.C,C17*%
X344804420Y-244600000D02*
X345085580Y-244600000D01*
X344804420Y-245620000D02*
X345085580Y-245620000D01*
%TO.C,C8*%
X356234420Y-231900000D02*
X356515580Y-231900000D01*
X356234420Y-232920000D02*
X356515580Y-232920000D01*
%TO.C,C1*%
X301750000Y-283844420D02*
X301750000Y-284125580D01*
X302770000Y-283844420D02*
X302770000Y-284125580D01*
%TO.C,C3*%
X290320000Y-272695580D02*
X290320000Y-272414420D01*
X291340000Y-272695580D02*
X291340000Y-272414420D01*
%TO.C,R1*%
X307132258Y-280147500D02*
X306657742Y-280147500D01*
X307132258Y-281192500D02*
X306657742Y-281192500D01*
%TO.C,R17*%
X349997500Y-287702258D02*
X349997500Y-287227742D01*
X351042500Y-287702258D02*
X351042500Y-287227742D01*
%TO.C,C16*%
X338949420Y-244600000D02*
X339230580Y-244600000D01*
X338949420Y-245620000D02*
X339230580Y-245620000D01*
%TO.C,R10*%
X354917742Y-262367500D02*
X355392258Y-262367500D01*
X354917742Y-263412500D02*
X355392258Y-263412500D01*
%TO.C,C6*%
X356515580Y-229360000D02*
X356234420Y-229360000D01*
X356515580Y-230380000D02*
X356234420Y-230380000D01*
%TO.C,C12*%
X351025580Y-280160000D02*
X350744420Y-280160000D01*
X351025580Y-281180000D02*
X350744420Y-281180000D01*
%TO.C,R16*%
X337297500Y-287702258D02*
X337297500Y-287227742D01*
X338342500Y-287702258D02*
X338342500Y-287227742D01*
%TO.C,C10*%
X350744420Y-276985000D02*
X351025580Y-276985000D01*
X350744420Y-278005000D02*
X351025580Y-278005000D01*
%TO.C,R15*%
X335202500Y-287702258D02*
X335202500Y-287227742D01*
X336247500Y-287702258D02*
X336247500Y-287227742D01*
%TO.C,C2*%
X292860000Y-270155580D02*
X292860000Y-269874420D01*
X293880000Y-270155580D02*
X293880000Y-269874420D01*
%TO.C,R3*%
X307132258Y-285227500D02*
X306657742Y-285227500D01*
X307132258Y-286272500D02*
X306657742Y-286272500D01*
%TO.C,R4*%
X354917742Y-267447500D02*
X355392258Y-267447500D01*
X354917742Y-268492500D02*
X355392258Y-268492500D01*
%TO.C,R8*%
X355392258Y-257287500D02*
X354917742Y-257287500D01*
X355392258Y-258332500D02*
X354917742Y-258332500D01*
%TO.C,C9*%
X363980000Y-281305580D02*
X363980000Y-281024420D01*
X365000000Y-281305580D02*
X365000000Y-281024420D01*
%TO.C,R6*%
X352537500Y-271987742D02*
X352537500Y-272462258D01*
X353582500Y-271987742D02*
X353582500Y-272462258D01*
%TD*%
%LPC*%
D12*
%TO.C,H12*%
X353060000Y-297180000D03*
%TD*%
%TO.C,H11*%
X261620000Y-297180000D03*
%TD*%
%TO.C,H10*%
X261620000Y-179070000D03*
%TD*%
%TO.C,H9*%
X365760000Y-179070000D03*
%TD*%
D13*
%TO.C,J1*%
X368300000Y-295910000D03*
D14*
X368300000Y-293370000D03*
X368300000Y-290830000D03*
%TD*%
D15*
%TO.C,J12*%
X358720000Y-300800000D03*
X365320000Y-300800000D03*
%TD*%
D12*
%TO.C,H2*%
X273550000Y-209550000D03*
%TD*%
D13*
%TO.C,J3*%
X334010000Y-297180000D03*
D14*
X331470000Y-297180000D03*
X328930000Y-297180000D03*
%TD*%
D13*
%TO.C,J4*%
X364490000Y-256530000D03*
D14*
X364490000Y-253990000D03*
X364490000Y-251450000D03*
X364490000Y-248910000D03*
%TD*%
D16*
%TO.C,J5*%
X267620000Y-279820000D03*
D17*
X267620000Y-287020000D03*
D18*
X261620000Y-276670000D03*
X261620000Y-290170000D03*
%TD*%
D13*
%TO.C,J9*%
X306070000Y-297180000D03*
D14*
X308610000Y-297180000D03*
%TD*%
D12*
%TO.C,H5*%
X305156602Y-198943398D03*
%TD*%
D13*
%TO.C,J10*%
X271780000Y-297180000D03*
D14*
X271780000Y-294640000D03*
X274320000Y-297180000D03*
X274320000Y-294640000D03*
X276860000Y-297180000D03*
X276860000Y-294640000D03*
%TD*%
D13*
%TO.C,J11*%
X341630000Y-297180000D03*
D14*
X344170000Y-297180000D03*
X346710000Y-297180000D03*
%TD*%
D16*
%TO.C,J6*%
X267620000Y-258420000D03*
D17*
X267620000Y-265620000D03*
D18*
X261620000Y-255270000D03*
X261620000Y-268770000D03*
%TD*%
D12*
%TO.C,H3*%
X294550000Y-230550000D03*
%TD*%
%TO.C,H7*%
X283943398Y-220156602D03*
%TD*%
D13*
%TO.C,J8*%
X295910000Y-297180000D03*
D14*
X298450000Y-297180000D03*
%TD*%
D12*
%TO.C,H6*%
X283943398Y-198943398D03*
%TD*%
%TO.C,H1*%
X294550000Y-188550000D03*
%TD*%
%TO.C,H4*%
X315550000Y-209550000D03*
%TD*%
%TO.C,H8*%
X305156602Y-220156602D03*
%TD*%
D13*
%TO.C,J2*%
X321295000Y-297180000D03*
D14*
X318755000Y-297180000D03*
X316215000Y-297180000D03*
%TD*%
D13*
%TO.C,J7*%
X285750000Y-297180000D03*
D14*
X288290000Y-297180000D03*
%TD*%
D19*
%TO.C,R13*%
X339090000Y-259080000D03*
X337440000Y-259080000D03*
%TD*%
D20*
%TO.C,R2*%
X306070000Y-283210000D03*
X307720000Y-283210000D03*
%TD*%
D21*
%TO.C,R5*%
X364490000Y-269240000D03*
X364490000Y-270890000D03*
%TD*%
D22*
%TO.C,C4*%
X332740000Y-269240000D03*
X331190000Y-269240000D03*
%TD*%
D19*
%TO.C,R12*%
X311150000Y-275590000D03*
X309500000Y-275590000D03*
%TD*%
D21*
%TO.C,R7*%
X350520000Y-271400000D03*
X350520000Y-273050000D03*
%TD*%
%TO.C,R18*%
X344615000Y-286640000D03*
X344615000Y-288290000D03*
%TD*%
D19*
%TO.C,R14*%
X334010000Y-259080000D03*
X332360000Y-259080000D03*
%TD*%
D23*
%TO.C,C7*%
X338810000Y-229870000D03*
X340360000Y-229870000D03*
%TD*%
D22*
%TO.C,C17*%
X345720000Y-245110000D03*
X344170000Y-245110000D03*
%TD*%
%TO.C,C8*%
X357150000Y-232410000D03*
X355600000Y-232410000D03*
%TD*%
D24*
%TO.C,C1*%
X302260000Y-284760000D03*
X302260000Y-283210000D03*
%TD*%
D25*
%TO.C,C3*%
X290830000Y-271780000D03*
X290830000Y-273330000D03*
%TD*%
D20*
%TO.C,R1*%
X306070000Y-280670000D03*
X307720000Y-280670000D03*
%TD*%
D21*
%TO.C,R17*%
X350520000Y-286640000D03*
X350520000Y-288290000D03*
%TD*%
D22*
%TO.C,C16*%
X339865000Y-245110000D03*
X338315000Y-245110000D03*
%TD*%
D19*
%TO.C,R10*%
X355980000Y-262890000D03*
X354330000Y-262890000D03*
%TD*%
D23*
%TO.C,C6*%
X355600000Y-229870000D03*
X357150000Y-229870000D03*
%TD*%
%TO.C,C12*%
X350110000Y-280670000D03*
X351660000Y-280670000D03*
%TD*%
D21*
%TO.C,R16*%
X337820000Y-286640000D03*
X337820000Y-288290000D03*
%TD*%
D22*
%TO.C,C10*%
X351660000Y-277495000D03*
X350110000Y-277495000D03*
%TD*%
D21*
%TO.C,R15*%
X335725000Y-286640000D03*
X335725000Y-288290000D03*
%TD*%
D25*
%TO.C,C2*%
X293370000Y-269240000D03*
X293370000Y-270790000D03*
%TD*%
D20*
%TO.C,R3*%
X306070000Y-285750000D03*
X307720000Y-285750000D03*
%TD*%
D19*
%TO.C,R4*%
X355980000Y-267970000D03*
X354330000Y-267970000D03*
%TD*%
D20*
%TO.C,R8*%
X354330000Y-257810000D03*
X355980000Y-257810000D03*
%TD*%
D25*
%TO.C,C9*%
X364490000Y-280390000D03*
X364490000Y-281940000D03*
%TD*%
D26*
%TO.C,R6*%
X353060000Y-273050000D03*
X353060000Y-271400000D03*
%TD*%
%LPD*%
M02*
