M48
; DRILL file {KiCad 8.0.4} date 2024-08-11T19:16:40-0400
; FORMAT={-:-/ absolute / metric / decimal}
; #@! TF.CreationDate,2024-08-11T19:16:40-04:00
; #@! TF.GenerationSoftware,Kicad,Pcbnew,8.0.4
; #@! TF.FileFunction,Plated,1,2,PTH
FMAT,2
METRIC
; #@! TA.AperFunction,Plated,PTH,ViaDrill
T1C0.300
; #@! TA.AperFunction,Plated,PTH,ViaDrill
T2C0.400
; #@! TA.AperFunction,Plated,PTH,ComponentDrill
T3C0.500
; #@! TA.AperFunction,Plated,PTH,ComponentDrill
T4C0.600
; #@! TA.AperFunction,Plated,PTH,ComponentDrill
T5C1.000
; #@! TA.AperFunction,Plated,PTH,ComponentDrill
T6C2.700
%
G90
G05
T1
X299.05Y-274.32
X299.05Y-275.59
X299.05Y-276.86
X299.05Y-278.13
X300.39Y-274.32
X300.39Y-275.59
X300.39Y-276.86
X300.39Y-278.13
T2
X279.4Y-289.56
X279.4Y-292.74
X289.56Y-212.09
X289.56Y-275.59
X292.1Y-271.78
X293.37Y-275.59
X293.37Y-279.4
X293.505Y-276.725
X294.64Y-270.51
X294.64Y-271.78
X294.64Y-289.56
X299.72Y-207.01
X302.26Y-281.94
X303.53Y-209.55
X304.8Y-279.4
X304.8Y-281.94
X306.07Y-209.55
X306.07Y-273.05
X306.07Y-276.86
X306.07Y-279.4
X307.34Y-274.32
X307.34Y-294.64
X320.04Y-285.75
X321.31Y-285.75
X322.58Y-285.75
X323.85Y-294.64
X326.39Y-251.46
X331.47Y-251.46
X332.74Y-271.78
X334.01Y-292.1
X335.28Y-259.08
X337.82Y-240.03
X337.82Y-270.51
X337.82Y-284.48
X339.09Y-227.33
X339.09Y-288.29
X341.63Y-229.87
X341.63Y-231.14
X341.63Y-250.19
X342.9Y-247.65
X342.9Y-248.92
X342.9Y-292.1
X345.44Y-227.33
X345.44Y-240.03
X345.44Y-264.16
X345.44Y-266.7
X346.71Y-227.33
X346.71Y-279.4
X346.71Y-287.02
X347.98Y-223.52
X347.98Y-279.4
X349.25Y-223.52
X349.25Y-261.62
X349.25Y-264.16
X349.25Y-288.29
X350.52Y-223.52
X350.52Y-274.32
X351.79Y-236.22
X351.79Y-247.65
X351.79Y-279.4
X353.06Y-236.22
X353.06Y-247.65
X353.06Y-256.54
X353.06Y-262.89
X353.06Y-267.97
X353.06Y-274.32
X354.33Y-228.6
X354.33Y-229.87
X354.33Y-232.41
X354.33Y-233.68
X354.33Y-260.35
X354.33Y-287.02
X355.6Y-273.05
X355.6Y-287.02
X358.14Y-257.81
X358.14Y-267.97
X359.41Y-252.73
X361.95Y-275.59
X361.95Y-279.4
X364.49Y-260.35
X364.49Y-267.97
X365.76Y-287.02
X365.76Y-292.1
X367.03Y-287.02
T5
X271.78Y-294.64
X271.78Y-297.18
X274.32Y-294.64
X274.32Y-297.18
X276.86Y-294.64
X276.86Y-297.18
X285.75Y-297.18
X288.29Y-297.18
X295.91Y-297.18
X298.45Y-297.18
X306.07Y-297.18
X308.61Y-297.18
X316.215Y-297.18
X318.755Y-297.18
X321.295Y-297.18
X328.93Y-297.18
X331.47Y-297.18
X334.01Y-297.18
X341.63Y-297.18
X344.17Y-297.18
X346.71Y-297.18
X364.49Y-248.91
X364.49Y-251.45
X364.49Y-253.99
X364.49Y-256.53
X368.3Y-290.83
X368.3Y-293.37
X368.3Y-295.91
T6
X267.62Y-258.42
X267.62Y-265.62
X267.62Y-279.82
X267.62Y-287.02
T3
G00X358.72Y-300.45
M15
G01X358.72Y-301.15
M16
G05
G00X365.32Y-300.45
M15
G01X365.32Y-301.15
M16
G05
T4
G00X261.07Y-255.27
M15
G01X262.17Y-255.27
M16
G05
G00X261.07Y-268.77
M15
G01X262.17Y-268.77
M16
G05
G00X261.07Y-276.67
M15
G01X262.17Y-276.67
M16
G05
G00X261.07Y-290.17
M15
G01X262.17Y-290.17
M16
G05
M30
