%TF.GenerationSoftware,KiCad,Pcbnew,8.0.4*%
%TF.CreationDate,2024-08-11T19:16:42-04:00*%
%TF.ProjectId,foc_pcb,666f635f-7063-4622-9e6b-696361645f70,rev?*%
%TF.SameCoordinates,Original*%
%TF.FileFunction,Legend,Top*%
%TF.FilePolarity,Positive*%
%FSLAX46Y46*%
G04 Gerber Fmt 4.6, Leading zero omitted, Abs format (unit mm)*
G04 Created by KiCad (PCBNEW 8.0.4) date 2024-08-11 19:16:42*
%MOMM*%
%LPD*%
G01*
G04 APERTURE LIST*
G04 Aperture macros list*
%AMRoundRect*
0 Rectangle with rounded corners*
0 $1 Rounding radius*
0 $2 $3 $4 $5 $6 $7 $8 $9 X,Y pos of 4 corners*
0 Add a 4 corners polygon primitive as box body*
4,1,4,$2,$3,$4,$5,$6,$7,$8,$9,$2,$3,0*
0 Add four circle primitives for the rounded corners*
1,1,$1+$1,$2,$3*
1,1,$1+$1,$4,$5*
1,1,$1+$1,$6,$7*
1,1,$1+$1,$8,$9*
0 Add four rect primitives between the rounded corners*
20,1,$1+$1,$2,$3,$4,$5,0*
20,1,$1+$1,$4,$5,$6,$7,0*
20,1,$1+$1,$6,$7,$8,$9,0*
20,1,$1+$1,$8,$9,$2,$3,0*%
G04 Aperture macros list end*
%ADD10C,0.150000*%
%ADD11C,0.254000*%
%ADD12C,0.120000*%
%ADD13C,0.127000*%
%ADD14C,0.200000*%
%ADD15C,0.152500*%
%ADD16C,0.000000*%
%ADD17C,0.152400*%
%ADD18C,0.300000*%
%ADD19C,0.400000*%
%ADD20C,0.010000*%
%ADD21C,3.200000*%
%ADD22R,1.700000X1.700000*%
%ADD23O,1.700000X1.700000*%
%ADD24RoundRect,0.102000X-0.200000X-0.675000X0.200000X-0.675000X0.200000X0.675000X-0.200000X0.675000X0*%
%ADD25RoundRect,0.102000X-0.800000X-0.700000X0.800000X-0.700000X0.800000X0.700000X-0.800000X0.700000X0*%
%ADD26RoundRect,0.102000X-0.950000X-0.950000X0.950000X-0.950000X0.950000X0.950000X-0.950000X0.950000X0*%
%ADD27O,1.104000X2.004000*%
%ADD28RoundRect,0.102000X-0.750000X-0.325000X0.750000X-0.325000X0.750000X0.325000X-0.750000X0.325000X0*%
%ADD29R,3.500000X1.200000*%
%ADD30RoundRect,0.102000X1.858000X-1.858000X1.858000X1.858000X-1.858000X1.858000X-1.858000X-1.858000X0*%
%ADD31C,3.920000*%
%ADD32O,2.604000X1.404000*%
%ADD33RoundRect,0.102000X0.660400X0.279400X-0.660400X0.279400X-0.660400X-0.279400X0.660400X-0.279400X0*%
%ADD34R,0.800000X0.800000*%
%ADD35RoundRect,0.225000X0.225000X0.250000X-0.225000X0.250000X-0.225000X-0.250000X0.225000X-0.250000X0*%
%ADD36RoundRect,0.200000X-0.275000X0.200000X-0.275000X-0.200000X0.275000X-0.200000X0.275000X0.200000X0*%
%ADD37RoundRect,0.102000X0.950000X1.200000X-0.950000X1.200000X-0.950000X-1.200000X0.950000X-1.200000X0*%
%ADD38R,1.800000X1.350000*%
%ADD39O,1.731500X0.343000*%
%ADD40R,2.750000X6.200000*%
%ADD41R,1.500000X0.600000*%
%ADD42R,0.600000X1.500000*%
%ADD43RoundRect,0.150000X-0.825000X-0.150000X0.825000X-0.150000X0.825000X0.150000X-0.825000X0.150000X0*%
%ADD44RoundRect,0.102000X-0.605000X-0.365000X0.605000X-0.365000X0.605000X0.365000X-0.605000X0.365000X0*%
G04 APERTURE END LIST*
D10*
X309550000Y-209550000D02*
G75*
G02*
X279550000Y-209550000I-15000000J0D01*
G01*
X279550000Y-209550000D02*
G75*
G02*
X309550000Y-209550000I15000000J0D01*
G01*
X294550000Y-209550000D02*
X273550000Y-209550000D01*
X294550000Y-209550000D02*
X315550000Y-209550000D01*
X315550000Y-209550000D02*
G75*
G02*
X273550000Y-209550000I-21000000J0D01*
G01*
X273550000Y-209550000D02*
G75*
G02*
X315550000Y-209550000I21000000J0D01*
G01*
X294550000Y-209550000D02*
X305156602Y-198943398D01*
X294550000Y-209550000D02*
X305156602Y-220156602D01*
X294550000Y-209550000D02*
X283943398Y-220156602D01*
X294550000Y-209550000D02*
X294550000Y-188550000D01*
X330570000Y-209550000D02*
G75*
G02*
X261070000Y-209550000I-34750000J0D01*
G01*
X261070000Y-209550000D02*
G75*
G02*
X330570000Y-209550000I34750000J0D01*
G01*
X294550000Y-209550000D02*
X283943398Y-198943398D01*
X294550000Y-209550000D02*
X294550000Y-230550000D01*
X367966666Y-287744819D02*
X367966666Y-288459104D01*
X367966666Y-288459104D02*
X367919047Y-288601961D01*
X367919047Y-288601961D02*
X367823809Y-288697200D01*
X367823809Y-288697200D02*
X367680952Y-288744819D01*
X367680952Y-288744819D02*
X367585714Y-288744819D01*
X368966666Y-288744819D02*
X368395238Y-288744819D01*
X368680952Y-288744819D02*
X368680952Y-287744819D01*
X368680952Y-287744819D02*
X368585714Y-287887676D01*
X368585714Y-287887676D02*
X368490476Y-287982914D01*
X368490476Y-287982914D02*
X368395238Y-288030533D01*
X354790476Y-300444819D02*
X354790476Y-301159104D01*
X354790476Y-301159104D02*
X354742857Y-301301961D01*
X354742857Y-301301961D02*
X354647619Y-301397200D01*
X354647619Y-301397200D02*
X354504762Y-301444819D01*
X354504762Y-301444819D02*
X354409524Y-301444819D01*
X355790476Y-301444819D02*
X355219048Y-301444819D01*
X355504762Y-301444819D02*
X355504762Y-300444819D01*
X355504762Y-300444819D02*
X355409524Y-300587676D01*
X355409524Y-300587676D02*
X355314286Y-300682914D01*
X355314286Y-300682914D02*
X355219048Y-300730533D01*
X356171429Y-300540057D02*
X356219048Y-300492438D01*
X356219048Y-300492438D02*
X356314286Y-300444819D01*
X356314286Y-300444819D02*
X356552381Y-300444819D01*
X356552381Y-300444819D02*
X356647619Y-300492438D01*
X356647619Y-300492438D02*
X356695238Y-300540057D01*
X356695238Y-300540057D02*
X356742857Y-300635295D01*
X356742857Y-300635295D02*
X356742857Y-300730533D01*
X356742857Y-300730533D02*
X356695238Y-300873390D01*
X356695238Y-300873390D02*
X356123810Y-301444819D01*
X356123810Y-301444819D02*
X356742857Y-301444819D01*
X336004819Y-297513333D02*
X336719104Y-297513333D01*
X336719104Y-297513333D02*
X336861961Y-297560952D01*
X336861961Y-297560952D02*
X336957200Y-297656190D01*
X336957200Y-297656190D02*
X337004819Y-297799047D01*
X337004819Y-297799047D02*
X337004819Y-297894285D01*
X336004819Y-297132380D02*
X336004819Y-296513333D01*
X336004819Y-296513333D02*
X336385771Y-296846666D01*
X336385771Y-296846666D02*
X336385771Y-296703809D01*
X336385771Y-296703809D02*
X336433390Y-296608571D01*
X336433390Y-296608571D02*
X336481009Y-296560952D01*
X336481009Y-296560952D02*
X336576247Y-296513333D01*
X336576247Y-296513333D02*
X336814342Y-296513333D01*
X336814342Y-296513333D02*
X336909580Y-296560952D01*
X336909580Y-296560952D02*
X336957200Y-296608571D01*
X336957200Y-296608571D02*
X337004819Y-296703809D01*
X337004819Y-296703809D02*
X337004819Y-296989523D01*
X337004819Y-296989523D02*
X336957200Y-297084761D01*
X336957200Y-297084761D02*
X336909580Y-297132380D01*
X364156666Y-258534819D02*
X364156666Y-259249104D01*
X364156666Y-259249104D02*
X364109047Y-259391961D01*
X364109047Y-259391961D02*
X364013809Y-259487200D01*
X364013809Y-259487200D02*
X363870952Y-259534819D01*
X363870952Y-259534819D02*
X363775714Y-259534819D01*
X365061428Y-258868152D02*
X365061428Y-259534819D01*
X364823333Y-258487200D02*
X364585238Y-259201485D01*
X364585238Y-259201485D02*
X365204285Y-259201485D01*
X296113810Y-206194819D02*
X296113810Y-205194819D01*
X297161428Y-206099580D02*
X297113809Y-206147200D01*
X297113809Y-206147200D02*
X296970952Y-206194819D01*
X296970952Y-206194819D02*
X296875714Y-206194819D01*
X296875714Y-206194819D02*
X296732857Y-206147200D01*
X296732857Y-206147200D02*
X296637619Y-206051961D01*
X296637619Y-206051961D02*
X296590000Y-205956723D01*
X296590000Y-205956723D02*
X296542381Y-205766247D01*
X296542381Y-205766247D02*
X296542381Y-205623390D01*
X296542381Y-205623390D02*
X296590000Y-205432914D01*
X296590000Y-205432914D02*
X296637619Y-205337676D01*
X296637619Y-205337676D02*
X296732857Y-205242438D01*
X296732857Y-205242438D02*
X296875714Y-205194819D01*
X296875714Y-205194819D02*
X296970952Y-205194819D01*
X296970952Y-205194819D02*
X297113809Y-205242438D01*
X297113809Y-205242438D02*
X297161428Y-205290057D01*
X298113809Y-206194819D02*
X297542381Y-206194819D01*
X297828095Y-206194819D02*
X297828095Y-205194819D01*
X297828095Y-205194819D02*
X297732857Y-205337676D01*
X297732857Y-205337676D02*
X297637619Y-205432914D01*
X297637619Y-205432914D02*
X297542381Y-205480533D01*
X288917142Y-283227330D02*
X288869523Y-283274950D01*
X288869523Y-283274950D02*
X288726666Y-283322569D01*
X288726666Y-283322569D02*
X288631428Y-283322569D01*
X288631428Y-283322569D02*
X288488571Y-283274950D01*
X288488571Y-283274950D02*
X288393333Y-283179711D01*
X288393333Y-283179711D02*
X288345714Y-283084473D01*
X288345714Y-283084473D02*
X288298095Y-282893997D01*
X288298095Y-282893997D02*
X288298095Y-282751140D01*
X288298095Y-282751140D02*
X288345714Y-282560664D01*
X288345714Y-282560664D02*
X288393333Y-282465426D01*
X288393333Y-282465426D02*
X288488571Y-282370188D01*
X288488571Y-282370188D02*
X288631428Y-282322569D01*
X288631428Y-282322569D02*
X288726666Y-282322569D01*
X288726666Y-282322569D02*
X288869523Y-282370188D01*
X288869523Y-282370188D02*
X288917142Y-282417807D01*
X289869523Y-283322569D02*
X289298095Y-283322569D01*
X289583809Y-283322569D02*
X289583809Y-282322569D01*
X289583809Y-282322569D02*
X289488571Y-282465426D01*
X289488571Y-282465426D02*
X289393333Y-282560664D01*
X289393333Y-282560664D02*
X289298095Y-282608283D01*
X290821904Y-283322569D02*
X290250476Y-283322569D01*
X290536190Y-283322569D02*
X290536190Y-282322569D01*
X290536190Y-282322569D02*
X290440952Y-282465426D01*
X290440952Y-282465426D02*
X290345714Y-282560664D01*
X290345714Y-282560664D02*
X290250476Y-282608283D01*
X247559603Y-288577080D02*
X248274203Y-288577080D01*
X248274203Y-288577080D02*
X248417123Y-288624720D01*
X248417123Y-288624720D02*
X248512404Y-288720000D01*
X248512404Y-288720000D02*
X248560044Y-288862920D01*
X248560044Y-288862920D02*
X248560044Y-288958200D01*
X247559603Y-287624279D02*
X247559603Y-288100679D01*
X247559603Y-288100679D02*
X248036003Y-288148319D01*
X248036003Y-288148319D02*
X247988363Y-288100679D01*
X247988363Y-288100679D02*
X247940723Y-288005399D01*
X247940723Y-288005399D02*
X247940723Y-287767199D01*
X247940723Y-287767199D02*
X247988363Y-287671919D01*
X247988363Y-287671919D02*
X248036003Y-287624279D01*
X248036003Y-287624279D02*
X248131283Y-287576639D01*
X248131283Y-287576639D02*
X248369483Y-287576639D01*
X248369483Y-287576639D02*
X248464763Y-287624279D01*
X248464763Y-287624279D02*
X248512404Y-287671919D01*
X248512404Y-287671919D02*
X248560044Y-287767199D01*
X248560044Y-287767199D02*
X248560044Y-288005399D01*
X248560044Y-288005399D02*
X248512404Y-288100679D01*
X248512404Y-288100679D02*
X248464763Y-288148319D01*
X310604819Y-297513333D02*
X311319104Y-297513333D01*
X311319104Y-297513333D02*
X311461961Y-297560952D01*
X311461961Y-297560952D02*
X311557200Y-297656190D01*
X311557200Y-297656190D02*
X311604819Y-297799047D01*
X311604819Y-297799047D02*
X311604819Y-297894285D01*
X311604819Y-296989523D02*
X311604819Y-296799047D01*
X311604819Y-296799047D02*
X311557200Y-296703809D01*
X311557200Y-296703809D02*
X311509580Y-296656190D01*
X311509580Y-296656190D02*
X311366723Y-296560952D01*
X311366723Y-296560952D02*
X311176247Y-296513333D01*
X311176247Y-296513333D02*
X310795295Y-296513333D01*
X310795295Y-296513333D02*
X310700057Y-296560952D01*
X310700057Y-296560952D02*
X310652438Y-296608571D01*
X310652438Y-296608571D02*
X310604819Y-296703809D01*
X310604819Y-296703809D02*
X310604819Y-296894285D01*
X310604819Y-296894285D02*
X310652438Y-296989523D01*
X310652438Y-296989523D02*
X310700057Y-297037142D01*
X310700057Y-297037142D02*
X310795295Y-297084761D01*
X310795295Y-297084761D02*
X311033390Y-297084761D01*
X311033390Y-297084761D02*
X311128628Y-297037142D01*
X311128628Y-297037142D02*
X311176247Y-296989523D01*
X311176247Y-296989523D02*
X311223866Y-296894285D01*
X311223866Y-296894285D02*
X311223866Y-296703809D01*
X311223866Y-296703809D02*
X311176247Y-296608571D01*
X311176247Y-296608571D02*
X311128628Y-296560952D01*
X311128628Y-296560952D02*
X311033390Y-296513333D01*
X278854819Y-297989523D02*
X279569104Y-297989523D01*
X279569104Y-297989523D02*
X279711961Y-298037142D01*
X279711961Y-298037142D02*
X279807200Y-298132380D01*
X279807200Y-298132380D02*
X279854819Y-298275237D01*
X279854819Y-298275237D02*
X279854819Y-298370475D01*
X279854819Y-296989523D02*
X279854819Y-297560951D01*
X279854819Y-297275237D02*
X278854819Y-297275237D01*
X278854819Y-297275237D02*
X278997676Y-297370475D01*
X278997676Y-297370475D02*
X279092914Y-297465713D01*
X279092914Y-297465713D02*
X279140533Y-297560951D01*
X278854819Y-296370475D02*
X278854819Y-296275237D01*
X278854819Y-296275237D02*
X278902438Y-296179999D01*
X278902438Y-296179999D02*
X278950057Y-296132380D01*
X278950057Y-296132380D02*
X279045295Y-296084761D01*
X279045295Y-296084761D02*
X279235771Y-296037142D01*
X279235771Y-296037142D02*
X279473866Y-296037142D01*
X279473866Y-296037142D02*
X279664342Y-296084761D01*
X279664342Y-296084761D02*
X279759580Y-296132380D01*
X279759580Y-296132380D02*
X279807200Y-296179999D01*
X279807200Y-296179999D02*
X279854819Y-296275237D01*
X279854819Y-296275237D02*
X279854819Y-296370475D01*
X279854819Y-296370475D02*
X279807200Y-296465713D01*
X279807200Y-296465713D02*
X279759580Y-296513332D01*
X279759580Y-296513332D02*
X279664342Y-296560951D01*
X279664342Y-296560951D02*
X279473866Y-296608570D01*
X279473866Y-296608570D02*
X279235771Y-296608570D01*
X279235771Y-296608570D02*
X279045295Y-296560951D01*
X279045295Y-296560951D02*
X278950057Y-296513332D01*
X278950057Y-296513332D02*
X278902438Y-296465713D01*
X278902438Y-296465713D02*
X278854819Y-296370475D01*
X348704819Y-297989523D02*
X349419104Y-297989523D01*
X349419104Y-297989523D02*
X349561961Y-298037142D01*
X349561961Y-298037142D02*
X349657200Y-298132380D01*
X349657200Y-298132380D02*
X349704819Y-298275237D01*
X349704819Y-298275237D02*
X349704819Y-298370475D01*
X349704819Y-296989523D02*
X349704819Y-297560951D01*
X349704819Y-297275237D02*
X348704819Y-297275237D01*
X348704819Y-297275237D02*
X348847676Y-297370475D01*
X348847676Y-297370475D02*
X348942914Y-297465713D01*
X348942914Y-297465713D02*
X348990533Y-297560951D01*
X349704819Y-296037142D02*
X349704819Y-296608570D01*
X349704819Y-296322856D02*
X348704819Y-296322856D01*
X348704819Y-296322856D02*
X348847676Y-296418094D01*
X348847676Y-296418094D02*
X348942914Y-296513332D01*
X348942914Y-296513332D02*
X348990533Y-296608570D01*
X337058095Y-290284819D02*
X337058095Y-291094342D01*
X337058095Y-291094342D02*
X337105714Y-291189580D01*
X337105714Y-291189580D02*
X337153333Y-291237200D01*
X337153333Y-291237200D02*
X337248571Y-291284819D01*
X337248571Y-291284819D02*
X337439047Y-291284819D01*
X337439047Y-291284819D02*
X337534285Y-291237200D01*
X337534285Y-291237200D02*
X337581904Y-291189580D01*
X337581904Y-291189580D02*
X337629523Y-291094342D01*
X337629523Y-291094342D02*
X337629523Y-290284819D01*
X338010476Y-290284819D02*
X338629523Y-290284819D01*
X338629523Y-290284819D02*
X338296190Y-290665771D01*
X338296190Y-290665771D02*
X338439047Y-290665771D01*
X338439047Y-290665771D02*
X338534285Y-290713390D01*
X338534285Y-290713390D02*
X338581904Y-290761009D01*
X338581904Y-290761009D02*
X338629523Y-290856247D01*
X338629523Y-290856247D02*
X338629523Y-291094342D01*
X338629523Y-291094342D02*
X338581904Y-291189580D01*
X338581904Y-291189580D02*
X338534285Y-291237200D01*
X338534285Y-291237200D02*
X338439047Y-291284819D01*
X338439047Y-291284819D02*
X338153333Y-291284819D01*
X338153333Y-291284819D02*
X338058095Y-291237200D01*
X338058095Y-291237200D02*
X338010476Y-291189580D01*
X350202905Y-256733319D02*
X350202905Y-255733319D01*
X350202905Y-255733319D02*
X350441000Y-255733319D01*
X350441000Y-255733319D02*
X350583857Y-255780938D01*
X350583857Y-255780938D02*
X350679095Y-255876176D01*
X350679095Y-255876176D02*
X350726714Y-255971414D01*
X350726714Y-255971414D02*
X350774333Y-256161890D01*
X350774333Y-256161890D02*
X350774333Y-256304747D01*
X350774333Y-256304747D02*
X350726714Y-256495223D01*
X350726714Y-256495223D02*
X350679095Y-256590461D01*
X350679095Y-256590461D02*
X350583857Y-256685700D01*
X350583857Y-256685700D02*
X350441000Y-256733319D01*
X350441000Y-256733319D02*
X350202905Y-256733319D01*
X351107667Y-255733319D02*
X351726714Y-255733319D01*
X351726714Y-255733319D02*
X351393381Y-256114271D01*
X351393381Y-256114271D02*
X351536238Y-256114271D01*
X351536238Y-256114271D02*
X351631476Y-256161890D01*
X351631476Y-256161890D02*
X351679095Y-256209509D01*
X351679095Y-256209509D02*
X351726714Y-256304747D01*
X351726714Y-256304747D02*
X351726714Y-256542842D01*
X351726714Y-256542842D02*
X351679095Y-256638080D01*
X351679095Y-256638080D02*
X351631476Y-256685700D01*
X351631476Y-256685700D02*
X351536238Y-256733319D01*
X351536238Y-256733319D02*
X351250524Y-256733319D01*
X351250524Y-256733319D02*
X351155286Y-256685700D01*
X351155286Y-256685700D02*
X351107667Y-256638080D01*
X284332142Y-208799580D02*
X284284523Y-208847200D01*
X284284523Y-208847200D02*
X284141666Y-208894819D01*
X284141666Y-208894819D02*
X284046428Y-208894819D01*
X284046428Y-208894819D02*
X283903571Y-208847200D01*
X283903571Y-208847200D02*
X283808333Y-208751961D01*
X283808333Y-208751961D02*
X283760714Y-208656723D01*
X283760714Y-208656723D02*
X283713095Y-208466247D01*
X283713095Y-208466247D02*
X283713095Y-208323390D01*
X283713095Y-208323390D02*
X283760714Y-208132914D01*
X283760714Y-208132914D02*
X283808333Y-208037676D01*
X283808333Y-208037676D02*
X283903571Y-207942438D01*
X283903571Y-207942438D02*
X284046428Y-207894819D01*
X284046428Y-207894819D02*
X284141666Y-207894819D01*
X284141666Y-207894819D02*
X284284523Y-207942438D01*
X284284523Y-207942438D02*
X284332142Y-207990057D01*
X285284523Y-208894819D02*
X284713095Y-208894819D01*
X284998809Y-208894819D02*
X284998809Y-207894819D01*
X284998809Y-207894819D02*
X284903571Y-208037676D01*
X284903571Y-208037676D02*
X284808333Y-208132914D01*
X284808333Y-208132914D02*
X284713095Y-208180533D01*
X285617857Y-207894819D02*
X286236904Y-207894819D01*
X286236904Y-207894819D02*
X285903571Y-208275771D01*
X285903571Y-208275771D02*
X286046428Y-208275771D01*
X286046428Y-208275771D02*
X286141666Y-208323390D01*
X286141666Y-208323390D02*
X286189285Y-208371009D01*
X286189285Y-208371009D02*
X286236904Y-208466247D01*
X286236904Y-208466247D02*
X286236904Y-208704342D01*
X286236904Y-208704342D02*
X286189285Y-208799580D01*
X286189285Y-208799580D02*
X286141666Y-208847200D01*
X286141666Y-208847200D02*
X286046428Y-208894819D01*
X286046428Y-208894819D02*
X285760714Y-208894819D01*
X285760714Y-208894819D02*
X285665476Y-208847200D01*
X285665476Y-208847200D02*
X285617857Y-208799580D01*
X247559603Y-267177080D02*
X248274203Y-267177080D01*
X248274203Y-267177080D02*
X248417123Y-267224720D01*
X248417123Y-267224720D02*
X248512404Y-267320000D01*
X248512404Y-267320000D02*
X248560044Y-267462920D01*
X248560044Y-267462920D02*
X248560044Y-267558200D01*
X247559603Y-266271919D02*
X247559603Y-266462479D01*
X247559603Y-266462479D02*
X247607243Y-266557759D01*
X247607243Y-266557759D02*
X247654883Y-266605399D01*
X247654883Y-266605399D02*
X247797803Y-266700679D01*
X247797803Y-266700679D02*
X247988363Y-266748319D01*
X247988363Y-266748319D02*
X248369483Y-266748319D01*
X248369483Y-266748319D02*
X248464763Y-266700679D01*
X248464763Y-266700679D02*
X248512404Y-266653039D01*
X248512404Y-266653039D02*
X248560044Y-266557759D01*
X248560044Y-266557759D02*
X248560044Y-266367199D01*
X248560044Y-266367199D02*
X248512404Y-266271919D01*
X248512404Y-266271919D02*
X248464763Y-266224279D01*
X248464763Y-266224279D02*
X248369483Y-266176639D01*
X248369483Y-266176639D02*
X248131283Y-266176639D01*
X248131283Y-266176639D02*
X248036003Y-266224279D01*
X248036003Y-266224279D02*
X247988363Y-266271919D01*
X247988363Y-266271919D02*
X247940723Y-266367199D01*
X247940723Y-266367199D02*
X247940723Y-266557759D01*
X247940723Y-266557759D02*
X247988363Y-266653039D01*
X247988363Y-266653039D02*
X248036003Y-266700679D01*
X248036003Y-266700679D02*
X248131283Y-266748319D01*
X305414819Y-207621666D02*
X304938628Y-207954999D01*
X305414819Y-208193094D02*
X304414819Y-208193094D01*
X304414819Y-208193094D02*
X304414819Y-207812142D01*
X304414819Y-207812142D02*
X304462438Y-207716904D01*
X304462438Y-207716904D02*
X304510057Y-207669285D01*
X304510057Y-207669285D02*
X304605295Y-207621666D01*
X304605295Y-207621666D02*
X304748152Y-207621666D01*
X304748152Y-207621666D02*
X304843390Y-207669285D01*
X304843390Y-207669285D02*
X304891009Y-207716904D01*
X304891009Y-207716904D02*
X304938628Y-207812142D01*
X304938628Y-207812142D02*
X304938628Y-208193094D01*
X305414819Y-207145475D02*
X305414819Y-206954999D01*
X305414819Y-206954999D02*
X305367200Y-206859761D01*
X305367200Y-206859761D02*
X305319580Y-206812142D01*
X305319580Y-206812142D02*
X305176723Y-206716904D01*
X305176723Y-206716904D02*
X304986247Y-206669285D01*
X304986247Y-206669285D02*
X304605295Y-206669285D01*
X304605295Y-206669285D02*
X304510057Y-206716904D01*
X304510057Y-206716904D02*
X304462438Y-206764523D01*
X304462438Y-206764523D02*
X304414819Y-206859761D01*
X304414819Y-206859761D02*
X304414819Y-207050237D01*
X304414819Y-207050237D02*
X304462438Y-207145475D01*
X304462438Y-207145475D02*
X304510057Y-207193094D01*
X304510057Y-207193094D02*
X304605295Y-207240713D01*
X304605295Y-207240713D02*
X304843390Y-207240713D01*
X304843390Y-207240713D02*
X304938628Y-207193094D01*
X304938628Y-207193094D02*
X304986247Y-207145475D01*
X304986247Y-207145475D02*
X305033866Y-207050237D01*
X305033866Y-207050237D02*
X305033866Y-206859761D01*
X305033866Y-206859761D02*
X304986247Y-206764523D01*
X304986247Y-206764523D02*
X304938628Y-206716904D01*
X304938628Y-206716904D02*
X304843390Y-206669285D01*
X341153809Y-242548628D02*
X341153809Y-243024819D01*
X340820476Y-242024819D02*
X341153809Y-242548628D01*
X341153809Y-242548628D02*
X341487142Y-242024819D01*
X342344285Y-243024819D02*
X341772857Y-243024819D01*
X342058571Y-243024819D02*
X342058571Y-242024819D01*
X342058571Y-242024819D02*
X341963333Y-242167676D01*
X341963333Y-242167676D02*
X341868095Y-242262914D01*
X341868095Y-242262914D02*
X341772857Y-242310533D01*
X367224200Y-265493332D02*
X367271819Y-265350475D01*
X367271819Y-265350475D02*
X367271819Y-265112380D01*
X367271819Y-265112380D02*
X367224200Y-265017142D01*
X367224200Y-265017142D02*
X367176580Y-264969523D01*
X367176580Y-264969523D02*
X367081342Y-264921904D01*
X367081342Y-264921904D02*
X366986104Y-264921904D01*
X366986104Y-264921904D02*
X366890866Y-264969523D01*
X366890866Y-264969523D02*
X366843247Y-265017142D01*
X366843247Y-265017142D02*
X366795628Y-265112380D01*
X366795628Y-265112380D02*
X366748009Y-265302856D01*
X366748009Y-265302856D02*
X366700390Y-265398094D01*
X366700390Y-265398094D02*
X366652771Y-265445713D01*
X366652771Y-265445713D02*
X366557533Y-265493332D01*
X366557533Y-265493332D02*
X366462295Y-265493332D01*
X366462295Y-265493332D02*
X366367057Y-265445713D01*
X366367057Y-265445713D02*
X366319438Y-265398094D01*
X366319438Y-265398094D02*
X366271819Y-265302856D01*
X366271819Y-265302856D02*
X366271819Y-265064761D01*
X366271819Y-265064761D02*
X366319438Y-264921904D01*
X366271819Y-264588570D02*
X367271819Y-264350475D01*
X367271819Y-264350475D02*
X366557533Y-264159999D01*
X366557533Y-264159999D02*
X367271819Y-263969523D01*
X367271819Y-263969523D02*
X366271819Y-263731428D01*
X367271819Y-262826666D02*
X367271819Y-263398094D01*
X367271819Y-263112380D02*
X366271819Y-263112380D01*
X366271819Y-263112380D02*
X366414676Y-263207618D01*
X366414676Y-263207618D02*
X366509914Y-263302856D01*
X366509914Y-263302856D02*
X366557533Y-263398094D01*
X350202905Y-266896819D02*
X350202905Y-265896819D01*
X350202905Y-265896819D02*
X350441000Y-265896819D01*
X350441000Y-265896819D02*
X350583857Y-265944438D01*
X350583857Y-265944438D02*
X350679095Y-266039676D01*
X350679095Y-266039676D02*
X350726714Y-266134914D01*
X350726714Y-266134914D02*
X350774333Y-266325390D01*
X350774333Y-266325390D02*
X350774333Y-266468247D01*
X350774333Y-266468247D02*
X350726714Y-266658723D01*
X350726714Y-266658723D02*
X350679095Y-266753961D01*
X350679095Y-266753961D02*
X350583857Y-266849200D01*
X350583857Y-266849200D02*
X350441000Y-266896819D01*
X350441000Y-266896819D02*
X350202905Y-266896819D01*
X351726714Y-266896819D02*
X351155286Y-266896819D01*
X351441000Y-266896819D02*
X351441000Y-265896819D01*
X351441000Y-265896819D02*
X351345762Y-266039676D01*
X351345762Y-266039676D02*
X351250524Y-266134914D01*
X351250524Y-266134914D02*
X351155286Y-266182533D01*
X336145476Y-258709819D02*
X336478809Y-259709819D01*
X336478809Y-259709819D02*
X336812142Y-258709819D01*
X337716904Y-259709819D02*
X337383571Y-259233628D01*
X337145476Y-259709819D02*
X337145476Y-258709819D01*
X337145476Y-258709819D02*
X337526428Y-258709819D01*
X337526428Y-258709819D02*
X337621666Y-258757438D01*
X337621666Y-258757438D02*
X337669285Y-258805057D01*
X337669285Y-258805057D02*
X337716904Y-258900295D01*
X337716904Y-258900295D02*
X337716904Y-259043152D01*
X337716904Y-259043152D02*
X337669285Y-259138390D01*
X337669285Y-259138390D02*
X337621666Y-259186009D01*
X337621666Y-259186009D02*
X337526428Y-259233628D01*
X337526428Y-259233628D02*
X337145476Y-259233628D01*
X338669285Y-259709819D02*
X338097857Y-259709819D01*
X338383571Y-259709819D02*
X338383571Y-258709819D01*
X338383571Y-258709819D02*
X338288333Y-258852676D01*
X338288333Y-258852676D02*
X338193095Y-258947914D01*
X338193095Y-258947914D02*
X338097857Y-258995533D01*
X300444819Y-297513333D02*
X301159104Y-297513333D01*
X301159104Y-297513333D02*
X301301961Y-297560952D01*
X301301961Y-297560952D02*
X301397200Y-297656190D01*
X301397200Y-297656190D02*
X301444819Y-297799047D01*
X301444819Y-297799047D02*
X301444819Y-297894285D01*
X300873390Y-296894285D02*
X300825771Y-296989523D01*
X300825771Y-296989523D02*
X300778152Y-297037142D01*
X300778152Y-297037142D02*
X300682914Y-297084761D01*
X300682914Y-297084761D02*
X300635295Y-297084761D01*
X300635295Y-297084761D02*
X300540057Y-297037142D01*
X300540057Y-297037142D02*
X300492438Y-296989523D01*
X300492438Y-296989523D02*
X300444819Y-296894285D01*
X300444819Y-296894285D02*
X300444819Y-296703809D01*
X300444819Y-296703809D02*
X300492438Y-296608571D01*
X300492438Y-296608571D02*
X300540057Y-296560952D01*
X300540057Y-296560952D02*
X300635295Y-296513333D01*
X300635295Y-296513333D02*
X300682914Y-296513333D01*
X300682914Y-296513333D02*
X300778152Y-296560952D01*
X300778152Y-296560952D02*
X300825771Y-296608571D01*
X300825771Y-296608571D02*
X300873390Y-296703809D01*
X300873390Y-296703809D02*
X300873390Y-296894285D01*
X300873390Y-296894285D02*
X300921009Y-296989523D01*
X300921009Y-296989523D02*
X300968628Y-297037142D01*
X300968628Y-297037142D02*
X301063866Y-297084761D01*
X301063866Y-297084761D02*
X301254342Y-297084761D01*
X301254342Y-297084761D02*
X301349580Y-297037142D01*
X301349580Y-297037142D02*
X301397200Y-296989523D01*
X301397200Y-296989523D02*
X301444819Y-296894285D01*
X301444819Y-296894285D02*
X301444819Y-296703809D01*
X301444819Y-296703809D02*
X301397200Y-296608571D01*
X301397200Y-296608571D02*
X301349580Y-296560952D01*
X301349580Y-296560952D02*
X301254342Y-296513333D01*
X301254342Y-296513333D02*
X301063866Y-296513333D01*
X301063866Y-296513333D02*
X300968628Y-296560952D01*
X300968628Y-296560952D02*
X300921009Y-296608571D01*
X300921009Y-296608571D02*
X300873390Y-296703809D01*
X303536569Y-277088279D02*
X304346092Y-277088279D01*
X304346092Y-277088279D02*
X304441330Y-277040660D01*
X304441330Y-277040660D02*
X304488950Y-276993041D01*
X304488950Y-276993041D02*
X304536569Y-276897803D01*
X304536569Y-276897803D02*
X304536569Y-276707327D01*
X304536569Y-276707327D02*
X304488950Y-276612089D01*
X304488950Y-276612089D02*
X304441330Y-276564470D01*
X304441330Y-276564470D02*
X304346092Y-276516851D01*
X304346092Y-276516851D02*
X303536569Y-276516851D01*
X304536569Y-275516851D02*
X304536569Y-276088279D01*
X304536569Y-275802565D02*
X303536569Y-275802565D01*
X303536569Y-275802565D02*
X303679426Y-275897803D01*
X303679426Y-275897803D02*
X303774664Y-275993041D01*
X303774664Y-275993041D02*
X303822283Y-276088279D01*
X350202905Y-261813319D02*
X350202905Y-260813319D01*
X350202905Y-260813319D02*
X350441000Y-260813319D01*
X350441000Y-260813319D02*
X350583857Y-260860938D01*
X350583857Y-260860938D02*
X350679095Y-260956176D01*
X350679095Y-260956176D02*
X350726714Y-261051414D01*
X350726714Y-261051414D02*
X350774333Y-261241890D01*
X350774333Y-261241890D02*
X350774333Y-261384747D01*
X350774333Y-261384747D02*
X350726714Y-261575223D01*
X350726714Y-261575223D02*
X350679095Y-261670461D01*
X350679095Y-261670461D02*
X350583857Y-261765700D01*
X350583857Y-261765700D02*
X350441000Y-261813319D01*
X350441000Y-261813319D02*
X350202905Y-261813319D01*
X351679095Y-260813319D02*
X351202905Y-260813319D01*
X351202905Y-260813319D02*
X351155286Y-261289509D01*
X351155286Y-261289509D02*
X351202905Y-261241890D01*
X351202905Y-261241890D02*
X351298143Y-261194271D01*
X351298143Y-261194271D02*
X351536238Y-261194271D01*
X351536238Y-261194271D02*
X351631476Y-261241890D01*
X351631476Y-261241890D02*
X351679095Y-261289509D01*
X351679095Y-261289509D02*
X351726714Y-261384747D01*
X351726714Y-261384747D02*
X351726714Y-261622842D01*
X351726714Y-261622842D02*
X351679095Y-261718080D01*
X351679095Y-261718080D02*
X351631476Y-261765700D01*
X351631476Y-261765700D02*
X351536238Y-261813319D01*
X351536238Y-261813319D02*
X351298143Y-261813319D01*
X351298143Y-261813319D02*
X351202905Y-261765700D01*
X351202905Y-261765700D02*
X351155286Y-261718080D01*
X284332142Y-212609580D02*
X284284523Y-212657200D01*
X284284523Y-212657200D02*
X284141666Y-212704819D01*
X284141666Y-212704819D02*
X284046428Y-212704819D01*
X284046428Y-212704819D02*
X283903571Y-212657200D01*
X283903571Y-212657200D02*
X283808333Y-212561961D01*
X283808333Y-212561961D02*
X283760714Y-212466723D01*
X283760714Y-212466723D02*
X283713095Y-212276247D01*
X283713095Y-212276247D02*
X283713095Y-212133390D01*
X283713095Y-212133390D02*
X283760714Y-211942914D01*
X283760714Y-211942914D02*
X283808333Y-211847676D01*
X283808333Y-211847676D02*
X283903571Y-211752438D01*
X283903571Y-211752438D02*
X284046428Y-211704819D01*
X284046428Y-211704819D02*
X284141666Y-211704819D01*
X284141666Y-211704819D02*
X284284523Y-211752438D01*
X284284523Y-211752438D02*
X284332142Y-211800057D01*
X285284523Y-212704819D02*
X284713095Y-212704819D01*
X284998809Y-212704819D02*
X284998809Y-211704819D01*
X284998809Y-211704819D02*
X284903571Y-211847676D01*
X284903571Y-211847676D02*
X284808333Y-211942914D01*
X284808333Y-211942914D02*
X284713095Y-211990533D01*
X286141666Y-212038152D02*
X286141666Y-212704819D01*
X285903571Y-211657200D02*
X285665476Y-212371485D01*
X285665476Y-212371485D02*
X286284523Y-212371485D01*
D11*
X347012380Y-229174318D02*
X347012380Y-230202413D01*
X347012380Y-230202413D02*
X347072857Y-230323365D01*
X347072857Y-230323365D02*
X347133333Y-230383842D01*
X347133333Y-230383842D02*
X347254285Y-230444318D01*
X347254285Y-230444318D02*
X347496190Y-230444318D01*
X347496190Y-230444318D02*
X347617142Y-230383842D01*
X347617142Y-230383842D02*
X347677619Y-230323365D01*
X347677619Y-230323365D02*
X347738095Y-230202413D01*
X347738095Y-230202413D02*
X347738095Y-229174318D01*
X348282380Y-229295270D02*
X348342856Y-229234794D01*
X348342856Y-229234794D02*
X348463809Y-229174318D01*
X348463809Y-229174318D02*
X348766190Y-229174318D01*
X348766190Y-229174318D02*
X348887142Y-229234794D01*
X348887142Y-229234794D02*
X348947618Y-229295270D01*
X348947618Y-229295270D02*
X349008095Y-229416222D01*
X349008095Y-229416222D02*
X349008095Y-229537175D01*
X349008095Y-229537175D02*
X348947618Y-229718603D01*
X348947618Y-229718603D02*
X348221904Y-230444318D01*
X348221904Y-230444318D02*
X349008095Y-230444318D01*
D10*
X356043095Y-273589819D02*
X356043095Y-274399342D01*
X356043095Y-274399342D02*
X356090714Y-274494580D01*
X356090714Y-274494580D02*
X356138333Y-274542200D01*
X356138333Y-274542200D02*
X356233571Y-274589819D01*
X356233571Y-274589819D02*
X356424047Y-274589819D01*
X356424047Y-274589819D02*
X356519285Y-274542200D01*
X356519285Y-274542200D02*
X356566904Y-274494580D01*
X356566904Y-274494580D02*
X356614523Y-274399342D01*
X356614523Y-274399342D02*
X356614523Y-273589819D01*
X357566904Y-273589819D02*
X357090714Y-273589819D01*
X357090714Y-273589819D02*
X357043095Y-274066009D01*
X357043095Y-274066009D02*
X357090714Y-274018390D01*
X357090714Y-274018390D02*
X357185952Y-273970771D01*
X357185952Y-273970771D02*
X357424047Y-273970771D01*
X357424047Y-273970771D02*
X357519285Y-274018390D01*
X357519285Y-274018390D02*
X357566904Y-274066009D01*
X357566904Y-274066009D02*
X357614523Y-274161247D01*
X357614523Y-274161247D02*
X357614523Y-274399342D01*
X357614523Y-274399342D02*
X357566904Y-274494580D01*
X357566904Y-274494580D02*
X357519285Y-274542200D01*
X357519285Y-274542200D02*
X357424047Y-274589819D01*
X357424047Y-274589819D02*
X357185952Y-274589819D01*
X357185952Y-274589819D02*
X357090714Y-274542200D01*
X357090714Y-274542200D02*
X357043095Y-274494580D01*
X307954819Y-208097857D02*
X307478628Y-208431190D01*
X307954819Y-208669285D02*
X306954819Y-208669285D01*
X306954819Y-208669285D02*
X306954819Y-208288333D01*
X306954819Y-208288333D02*
X307002438Y-208193095D01*
X307002438Y-208193095D02*
X307050057Y-208145476D01*
X307050057Y-208145476D02*
X307145295Y-208097857D01*
X307145295Y-208097857D02*
X307288152Y-208097857D01*
X307288152Y-208097857D02*
X307383390Y-208145476D01*
X307383390Y-208145476D02*
X307431009Y-208193095D01*
X307431009Y-208193095D02*
X307478628Y-208288333D01*
X307478628Y-208288333D02*
X307478628Y-208669285D01*
X307954819Y-207145476D02*
X307954819Y-207716904D01*
X307954819Y-207431190D02*
X306954819Y-207431190D01*
X306954819Y-207431190D02*
X307097676Y-207526428D01*
X307097676Y-207526428D02*
X307192914Y-207621666D01*
X307192914Y-207621666D02*
X307240533Y-207716904D01*
X307954819Y-206193095D02*
X307954819Y-206764523D01*
X307954819Y-206478809D02*
X306954819Y-206478809D01*
X306954819Y-206478809D02*
X307097676Y-206574047D01*
X307097676Y-206574047D02*
X307192914Y-206669285D01*
X307192914Y-206669285D02*
X307240533Y-206764523D01*
X328191905Y-261787421D02*
X328191905Y-260787421D01*
X328191905Y-260787421D02*
X328430000Y-260787421D01*
X328430000Y-260787421D02*
X328572857Y-260835040D01*
X328572857Y-260835040D02*
X328668095Y-260930278D01*
X328668095Y-260930278D02*
X328715714Y-261025516D01*
X328715714Y-261025516D02*
X328763333Y-261215992D01*
X328763333Y-261215992D02*
X328763333Y-261358849D01*
X328763333Y-261358849D02*
X328715714Y-261549325D01*
X328715714Y-261549325D02*
X328668095Y-261644563D01*
X328668095Y-261644563D02*
X328572857Y-261739802D01*
X328572857Y-261739802D02*
X328430000Y-261787421D01*
X328430000Y-261787421D02*
X328191905Y-261787421D01*
X329144286Y-260882659D02*
X329191905Y-260835040D01*
X329191905Y-260835040D02*
X329287143Y-260787421D01*
X329287143Y-260787421D02*
X329525238Y-260787421D01*
X329525238Y-260787421D02*
X329620476Y-260835040D01*
X329620476Y-260835040D02*
X329668095Y-260882659D01*
X329668095Y-260882659D02*
X329715714Y-260977897D01*
X329715714Y-260977897D02*
X329715714Y-261073135D01*
X329715714Y-261073135D02*
X329668095Y-261215992D01*
X329668095Y-261215992D02*
X329096667Y-261787421D01*
X329096667Y-261787421D02*
X329715714Y-261787421D01*
X349758095Y-290284819D02*
X349758095Y-291094342D01*
X349758095Y-291094342D02*
X349805714Y-291189580D01*
X349805714Y-291189580D02*
X349853333Y-291237200D01*
X349853333Y-291237200D02*
X349948571Y-291284819D01*
X349948571Y-291284819D02*
X350139047Y-291284819D01*
X350139047Y-291284819D02*
X350234285Y-291237200D01*
X350234285Y-291237200D02*
X350281904Y-291189580D01*
X350281904Y-291189580D02*
X350329523Y-291094342D01*
X350329523Y-291094342D02*
X350329523Y-290284819D01*
X351234285Y-290618152D02*
X351234285Y-291284819D01*
X350996190Y-290237200D02*
X350758095Y-290951485D01*
X350758095Y-290951485D02*
X351377142Y-290951485D01*
X323304819Y-297513333D02*
X324019104Y-297513333D01*
X324019104Y-297513333D02*
X324161961Y-297560952D01*
X324161961Y-297560952D02*
X324257200Y-297656190D01*
X324257200Y-297656190D02*
X324304819Y-297799047D01*
X324304819Y-297799047D02*
X324304819Y-297894285D01*
X323400057Y-297084761D02*
X323352438Y-297037142D01*
X323352438Y-297037142D02*
X323304819Y-296941904D01*
X323304819Y-296941904D02*
X323304819Y-296703809D01*
X323304819Y-296703809D02*
X323352438Y-296608571D01*
X323352438Y-296608571D02*
X323400057Y-296560952D01*
X323400057Y-296560952D02*
X323495295Y-296513333D01*
X323495295Y-296513333D02*
X323590533Y-296513333D01*
X323590533Y-296513333D02*
X323733390Y-296560952D01*
X323733390Y-296560952D02*
X324304819Y-297132380D01*
X324304819Y-297132380D02*
X324304819Y-296513333D01*
X290284819Y-297513333D02*
X290999104Y-297513333D01*
X290999104Y-297513333D02*
X291141961Y-297560952D01*
X291141961Y-297560952D02*
X291237200Y-297656190D01*
X291237200Y-297656190D02*
X291284819Y-297799047D01*
X291284819Y-297799047D02*
X291284819Y-297894285D01*
X290284819Y-297132380D02*
X290284819Y-296465714D01*
X290284819Y-296465714D02*
X291284819Y-296894285D01*
D12*
%TO.C,J1*%
X369630000Y-297240000D02*
X368300000Y-297240000D01*
X369630000Y-295910000D02*
X369630000Y-297240000D01*
X369630000Y-294640000D02*
X369630000Y-289500000D01*
X369630000Y-294640000D02*
X366970000Y-294640000D01*
X369630000Y-289500000D02*
X366970000Y-289500000D01*
X366970000Y-294640000D02*
X366970000Y-289500000D01*
D13*
%TO.C,J12*%
X365820000Y-302250000D02*
X365820000Y-302020000D01*
X358220000Y-302250000D02*
X365820000Y-302250000D01*
D14*
X360820000Y-296750000D02*
G75*
G02*
X360620000Y-296750000I-100000J0D01*
G01*
X360620000Y-296750000D02*
G75*
G02*
X360820000Y-296750000I100000J0D01*
G01*
D13*
X358220000Y-302250000D02*
X358220000Y-302020000D01*
D12*
%TO.C,J3*%
X327600000Y-295850000D02*
X327600000Y-298510000D01*
X332740000Y-295850000D02*
X327600000Y-295850000D01*
X332740000Y-295850000D02*
X332740000Y-298510000D01*
X332740000Y-298510000D02*
X327600000Y-298510000D01*
X334010000Y-295850000D02*
X335340000Y-295850000D01*
X335340000Y-295850000D02*
X335340000Y-297180000D01*
%TO.C,J4*%
X363160000Y-255260000D02*
X363160000Y-247580000D01*
X365820000Y-247580000D02*
X363160000Y-247580000D01*
X365820000Y-255260000D02*
X363160000Y-255260000D01*
X365820000Y-255260000D02*
X365820000Y-247580000D01*
X365820000Y-256530000D02*
X365820000Y-257860000D01*
X365820000Y-257860000D02*
X364490000Y-257860000D01*
D14*
%TO.C,IC1*%
X291100000Y-206970000D02*
X292600000Y-206970000D01*
X292950000Y-207100000D02*
X296150000Y-207100000D01*
X292950000Y-212000000D02*
X292950000Y-207100000D01*
X296150000Y-207100000D02*
X296150000Y-212000000D01*
X296150000Y-212000000D02*
X292950000Y-212000000D01*
D15*
%TO.C,C11*%
X287454000Y-285040000D02*
X287454000Y-286334000D01*
X287454500Y-289001000D02*
X287467500Y-287706000D01*
X288849000Y-290395500D02*
X287454500Y-289001000D01*
X288850000Y-283644000D02*
X287454000Y-285040000D01*
X294185500Y-287759500D02*
X294205500Y-290395500D01*
X294199500Y-286312500D02*
X294206000Y-283644000D01*
X294205500Y-290395500D02*
X288849000Y-290395500D01*
X294206000Y-283644000D02*
X288850000Y-283644000D01*
D16*
G36*
X288520000Y-288637000D02*
G01*
X287728000Y-288637000D01*
X287728000Y-288439000D01*
X288520000Y-288439000D01*
X288520000Y-288637000D01*
G37*
G36*
X288223000Y-289198000D02*
G01*
X288025000Y-289198000D01*
X288025000Y-287878000D01*
X288223000Y-287878000D01*
X288223000Y-289198000D01*
G37*
G36*
X293932000Y-288637000D02*
G01*
X293140000Y-288637000D01*
X293140000Y-288439000D01*
X293932000Y-288439000D01*
X293932000Y-288637000D01*
G37*
D13*
%TO.C,J5*%
X269470000Y-275670000D02*
X251270000Y-275670000D01*
X269470000Y-275670000D02*
X269470000Y-277642000D01*
X251270000Y-275670000D02*
X251270000Y-291170000D01*
X271780000Y-278340000D02*
X271780000Y-279610000D01*
X271780000Y-279610000D02*
X273050000Y-279610000D01*
X271780000Y-279610000D02*
X270510000Y-279610000D01*
X271780000Y-280880000D02*
X271780000Y-279610000D01*
X269470000Y-284842000D02*
X269470000Y-281998000D01*
X269470000Y-291170000D02*
X269470000Y-289198000D01*
X251270000Y-291170000D02*
X269470000Y-291170000D01*
D12*
%TO.C,J9*%
X304740000Y-298510000D02*
X304740000Y-297180000D01*
X306070000Y-298510000D02*
X304740000Y-298510000D01*
X307340000Y-295850000D02*
X309940000Y-295850000D01*
X307340000Y-298510000D02*
X307340000Y-295850000D01*
X307340000Y-298510000D02*
X309940000Y-298510000D01*
X309940000Y-298510000D02*
X309940000Y-295850000D01*
%TO.C,J10*%
X270450000Y-293310000D02*
X278190000Y-293310000D01*
X270450000Y-295910000D02*
X270450000Y-293310000D01*
X270450000Y-298510000D02*
X270450000Y-297180000D01*
X271780000Y-298510000D02*
X270450000Y-298510000D01*
X273050000Y-295910000D02*
X270450000Y-295910000D01*
X273050000Y-298510000D02*
X273050000Y-295910000D01*
X273050000Y-298510000D02*
X278190000Y-298510000D01*
X278190000Y-298510000D02*
X278190000Y-293310000D01*
%TO.C,J11*%
X340300000Y-298510000D02*
X340300000Y-297180000D01*
X341630000Y-298510000D02*
X340300000Y-298510000D01*
X342900000Y-295850000D02*
X348040000Y-295850000D01*
X342900000Y-298510000D02*
X342900000Y-295850000D01*
X342900000Y-298510000D02*
X348040000Y-298510000D01*
X348040000Y-298510000D02*
X348040000Y-295850000D01*
D17*
%TO.C,U3*%
X339902800Y-288061400D02*
X339902800Y-288950400D01*
X339902800Y-290169600D02*
X339902800Y-291058600D01*
X339902800Y-291058600D02*
X340791800Y-291058600D01*
X340791800Y-288061400D02*
X339902800Y-288061400D01*
X340309200Y-291058600D02*
G75*
G02*
X340639400Y-290753800I304748J1115D01*
G01*
D10*
%TO.C,D3*%
X349501000Y-257355500D02*
X349801000Y-257055500D01*
X349501000Y-257456000D02*
X349501000Y-257355500D01*
X349501000Y-257456000D02*
X349501000Y-258156000D01*
X349501000Y-258156000D02*
X349501000Y-258256000D01*
X349501000Y-258256000D02*
X349801000Y-258556000D01*
X350851000Y-257055500D02*
X349801000Y-257055500D01*
X350851000Y-258556000D02*
X349801000Y-258556000D01*
X351201000Y-258133500D02*
X350871000Y-257803500D01*
X351211000Y-257453500D02*
X351211000Y-257463500D01*
X351211000Y-257453500D02*
X351211000Y-258133500D01*
X351211000Y-257463500D02*
X350871000Y-257803500D01*
X351211000Y-257803500D02*
X350871000Y-257803500D01*
X351211000Y-258133500D02*
X351201000Y-258133500D01*
X351231000Y-257053500D02*
X352381000Y-257053500D01*
X351231000Y-258553500D02*
X352381000Y-258553500D01*
X352381000Y-257053500D02*
X352381000Y-258533500D01*
D12*
%TO.C,C13*%
X285115580Y-206500000D02*
X284834420Y-206500000D01*
X285115580Y-207520000D02*
X284834420Y-207520000D01*
D13*
%TO.C,J6*%
X269470000Y-254270000D02*
X251270000Y-254270000D01*
X269470000Y-254270000D02*
X269470000Y-256242000D01*
X251270000Y-254270000D02*
X251270000Y-269770000D01*
X271780000Y-256940000D02*
X271780000Y-258210000D01*
X271780000Y-258210000D02*
X273050000Y-258210000D01*
X271780000Y-258210000D02*
X270510000Y-258210000D01*
X271780000Y-259480000D02*
X271780000Y-258210000D01*
X269470000Y-263442000D02*
X269470000Y-260598000D01*
X269470000Y-269770000D02*
X269470000Y-267798000D01*
X251270000Y-269770000D02*
X269470000Y-269770000D01*
D12*
%TO.C,R9*%
X304052500Y-207217742D02*
X304052500Y-207692258D01*
X303007500Y-207217742D02*
X303007500Y-207692258D01*
D13*
%TO.C,Y1*%
X344130000Y-238430000D02*
X339130000Y-238430000D01*
X344130000Y-241630000D02*
X339130000Y-241630000D01*
D11*
%TO.C,SW1*%
X362990000Y-262160000D02*
X363359000Y-262160000D01*
X362990000Y-266160000D02*
X362990000Y-262160000D01*
X363359000Y-266160000D02*
X362990000Y-266160000D01*
X365621000Y-262160000D02*
X365990000Y-262160000D01*
X365990000Y-262160000D02*
X365990000Y-266160000D01*
X365990000Y-266160000D02*
X365621000Y-266160000D01*
X365252000Y-264160000D02*
G75*
G02*
X363728000Y-264160000I-762000J0D01*
G01*
X363728000Y-264160000D02*
G75*
G02*
X365252000Y-264160000I762000J0D01*
G01*
D10*
%TO.C,D1*%
X349501000Y-267519000D02*
X349801000Y-267219000D01*
X349501000Y-267619500D02*
X349501000Y-267519000D01*
X349501000Y-267619500D02*
X349501000Y-268319000D01*
X349501000Y-268319000D02*
X349501000Y-268419500D01*
X349501000Y-268419500D02*
X349801000Y-268719500D01*
X350851000Y-267219000D02*
X349801000Y-267219000D01*
X350851000Y-268719500D02*
X349801000Y-268719500D01*
X351201000Y-268297000D02*
X350871000Y-267967000D01*
X351211000Y-267617000D02*
X351211000Y-267627000D01*
X351211000Y-267617000D02*
X351211000Y-268297000D01*
X351211000Y-267627000D02*
X350871000Y-267967000D01*
X351211000Y-267967000D02*
X350871000Y-267967000D01*
X351211000Y-268297000D02*
X351201000Y-268297000D01*
X351231000Y-267217000D02*
X352381000Y-267217000D01*
X351231000Y-268717000D02*
X352381000Y-268717000D01*
X352381000Y-267217000D02*
X352381000Y-268697000D01*
D13*
%TO.C,VR1*%
X336435000Y-260640000D02*
X336435000Y-261470000D01*
X336435000Y-265140000D02*
X336435000Y-264310000D01*
X338935000Y-260640000D02*
X336435000Y-260640000D01*
X338935000Y-260640000D02*
X338935000Y-261470000D01*
X338935000Y-265140000D02*
X336435000Y-265140000D01*
X338935000Y-265140000D02*
X338935000Y-264310000D01*
D14*
X333980000Y-261390000D02*
G75*
G02*
X333780000Y-261390000I-100000J0D01*
G01*
X333780000Y-261390000D02*
G75*
G02*
X333980000Y-261390000I100000J0D01*
G01*
D12*
%TO.C,J8*%
X294580000Y-298510000D02*
X294580000Y-297180000D01*
X295910000Y-298510000D02*
X294580000Y-298510000D01*
X297180000Y-295850000D02*
X299780000Y-295850000D01*
X297180000Y-298510000D02*
X297180000Y-295850000D01*
X297180000Y-298510000D02*
X299780000Y-298510000D01*
X299780000Y-298510000D02*
X299780000Y-295850000D01*
D15*
%TO.C,U1*%
X297878500Y-271474000D02*
X301421500Y-271474000D01*
X297878500Y-281326000D02*
X297878500Y-271474000D01*
X301421500Y-271474000D02*
X301421500Y-281326000D01*
X301421500Y-281326000D02*
X297878500Y-281326000D01*
D18*
X296934500Y-271551000D02*
G75*
G02*
X296633500Y-271551000I-150500J0D01*
G01*
X296633500Y-271551000D02*
G75*
G02*
X296934500Y-271551000I150500J0D01*
G01*
X298781000Y-272175000D02*
G75*
G02*
X298481000Y-272175000I-150000J0D01*
G01*
X298481000Y-272175000D02*
G75*
G02*
X298781000Y-272175000I150000J0D01*
G01*
D10*
%TO.C,D5*%
X349501000Y-262435500D02*
X349801000Y-262135500D01*
X349501000Y-262536000D02*
X349501000Y-262435500D01*
X349501000Y-262536000D02*
X349501000Y-263236000D01*
X349501000Y-263236000D02*
X349501000Y-263336000D01*
X349501000Y-263336000D02*
X349801000Y-263636000D01*
X350851000Y-262135500D02*
X349801000Y-262135500D01*
X350851000Y-263636000D02*
X349801000Y-263636000D01*
X351201000Y-263213500D02*
X350871000Y-262883500D01*
X351211000Y-262533500D02*
X351211000Y-262543500D01*
X351211000Y-262533500D02*
X351211000Y-263213500D01*
X351211000Y-262543500D02*
X350871000Y-262883500D01*
X351211000Y-262883500D02*
X350871000Y-262883500D01*
X351211000Y-263213500D02*
X351201000Y-263213500D01*
X351231000Y-262133500D02*
X352381000Y-262133500D01*
X351231000Y-263633500D02*
X352381000Y-263633500D01*
X352381000Y-262133500D02*
X352381000Y-263613500D01*
D12*
%TO.C,C14*%
X285115580Y-210310000D02*
X284834420Y-210310000D01*
X285115580Y-211330000D02*
X284834420Y-211330000D01*
D14*
%TO.C,U2*%
X344830000Y-226720000D02*
X351130000Y-226720000D01*
X344830000Y-233020000D02*
X344830000Y-226720000D01*
X351130000Y-226720000D02*
X351130000Y-233020000D01*
X351130000Y-233020000D02*
X344830000Y-233020000D01*
D19*
X343580000Y-225870000D02*
G75*
G02*
X343180000Y-225870000I-200000J0D01*
G01*
X343180000Y-225870000D02*
G75*
G02*
X343580000Y-225870000I200000J0D01*
G01*
D12*
%TO.C,U5*%
X356805000Y-274975000D02*
X354855000Y-274975000D01*
X356805000Y-274975000D02*
X358755000Y-274975000D01*
X356805000Y-285095000D02*
X354855000Y-285095000D01*
X356805000Y-285095000D02*
X358755000Y-285095000D01*
X354105000Y-275030000D02*
X353865000Y-274700000D01*
X354345000Y-274700000D01*
X354105000Y-275030000D01*
G36*
X354105000Y-275030000D02*
G01*
X353865000Y-274700000D01*
X354345000Y-274700000D01*
X354105000Y-275030000D01*
G37*
%TO.C,R11*%
X305547500Y-207217742D02*
X305547500Y-207692258D01*
X306592500Y-207217742D02*
X306592500Y-207692258D01*
D13*
%TO.C,D2*%
X327825000Y-262040000D02*
X330675000Y-262040000D01*
X330675000Y-263740000D02*
X327825000Y-263740000D01*
D14*
X326350000Y-262890000D02*
G75*
G02*
X326150000Y-262890000I-100000J0D01*
G01*
X326150000Y-262890000D02*
G75*
G02*
X326350000Y-262890000I100000J0D01*
G01*
D17*
%TO.C,U4*%
X346252800Y-288061400D02*
X346252800Y-288950400D01*
X346252800Y-290169600D02*
X346252800Y-291058600D01*
X346252800Y-291058600D02*
X347141800Y-291058600D01*
X347141800Y-288061400D02*
X346252800Y-288061400D01*
X346659200Y-291058600D02*
G75*
G02*
X346989400Y-290753800I304748J1115D01*
G01*
D12*
%TO.C,J2*%
X314885000Y-295850000D02*
X314885000Y-298510000D01*
X320025000Y-295850000D02*
X314885000Y-295850000D01*
X320025000Y-295850000D02*
X320025000Y-298510000D01*
X320025000Y-298510000D02*
X314885000Y-298510000D01*
X321295000Y-295850000D02*
X322625000Y-295850000D01*
X322625000Y-295850000D02*
X322625000Y-297180000D01*
%TO.C,J7*%
X284420000Y-298510000D02*
X284420000Y-297180000D01*
X285750000Y-298510000D02*
X284420000Y-298510000D01*
X287020000Y-295850000D02*
X289620000Y-295850000D01*
X287020000Y-298510000D02*
X287020000Y-295850000D01*
X287020000Y-298510000D02*
X289620000Y-298510000D01*
X289620000Y-298510000D02*
X289620000Y-295850000D01*
%TD*%
%LPC*%
D20*
%TO.C,VR1*%
X336100000Y-261960000D02*
X334460000Y-261960000D01*
X334460000Y-260820000D01*
X336100000Y-260820000D01*
X336100000Y-261960000D01*
G36*
X336100000Y-261960000D02*
G01*
X334460000Y-261960000D01*
X334460000Y-260820000D01*
X336100000Y-260820000D01*
X336100000Y-261960000D01*
G37*
X336100000Y-264960000D02*
X334460000Y-264960000D01*
X334460000Y-263820000D01*
X336100000Y-263820000D01*
X336100000Y-264960000D01*
G36*
X336100000Y-264960000D02*
G01*
X334460000Y-264960000D01*
X334460000Y-263820000D01*
X336100000Y-263820000D01*
X336100000Y-264960000D01*
G37*
X340100000Y-262655000D02*
X340100000Y-263125000D01*
X339165000Y-264060000D01*
X336895000Y-264060000D01*
X336295000Y-263460000D01*
X334460000Y-263460000D01*
X334460000Y-262320000D01*
X336295000Y-262320000D01*
X336895000Y-261720000D01*
X339165000Y-261720000D01*
X340100000Y-262655000D01*
G36*
X340100000Y-262655000D02*
G01*
X340100000Y-263125000D01*
X339165000Y-264060000D01*
X336895000Y-264060000D01*
X336295000Y-263460000D01*
X334460000Y-263460000D01*
X334460000Y-262320000D01*
X336295000Y-262320000D01*
X336895000Y-261720000D01*
X339165000Y-261720000D01*
X340100000Y-262655000D01*
G37*
%TD*%
D21*
%TO.C,H12*%
X353060000Y-297180000D03*
%TD*%
%TO.C,H11*%
X261620000Y-297180000D03*
%TD*%
%TO.C,H10*%
X261620000Y-179070000D03*
%TD*%
%TO.C,H9*%
X365760000Y-179070000D03*
%TD*%
D22*
%TO.C,J1*%
X368300000Y-295910000D03*
D23*
X368300000Y-293370000D03*
X368300000Y-290830000D03*
%TD*%
D24*
%TO.C,J12*%
X360720000Y-298125000D03*
X361370000Y-298125000D03*
X362020000Y-298125000D03*
X362670000Y-298125000D03*
X363320000Y-298125000D03*
D25*
X358820000Y-298350000D03*
X365220000Y-298350000D03*
D26*
X360820000Y-300800000D03*
X363220000Y-300800000D03*
D27*
X358720000Y-300800000D03*
X365320000Y-300800000D03*
%TD*%
D21*
%TO.C,H2*%
X273550000Y-209550000D03*
%TD*%
D22*
%TO.C,J3*%
X334010000Y-297180000D03*
D23*
X331470000Y-297180000D03*
X328930000Y-297180000D03*
%TD*%
D22*
%TO.C,J4*%
X364490000Y-256530000D03*
D23*
X364490000Y-253990000D03*
X364490000Y-251450000D03*
X364490000Y-248910000D03*
%TD*%
D28*
%TO.C,IC1*%
X291850000Y-207645000D03*
X291850000Y-208915000D03*
X291850000Y-210185000D03*
X291850000Y-211455000D03*
X297250000Y-211455000D03*
X297250000Y-210185000D03*
X297250000Y-208915000D03*
X297250000Y-207645000D03*
%TD*%
D29*
%TO.C,C11*%
X288160000Y-287020000D03*
X293500000Y-287020000D03*
%TD*%
D30*
%TO.C,J5*%
X267620000Y-279820000D03*
D31*
X267620000Y-287020000D03*
D32*
X261620000Y-276670000D03*
X261620000Y-290170000D03*
%TD*%
D22*
%TO.C,J9*%
X306070000Y-297180000D03*
D23*
X308610000Y-297180000D03*
%TD*%
D21*
%TO.C,H5*%
X305156602Y-198943398D03*
%TD*%
D22*
%TO.C,J10*%
X271780000Y-297180000D03*
D23*
X271780000Y-294640000D03*
X274320000Y-297180000D03*
X274320000Y-294640000D03*
X276860000Y-297180000D03*
X276860000Y-294640000D03*
%TD*%
D22*
%TO.C,J11*%
X341630000Y-297180000D03*
D23*
X344170000Y-297180000D03*
X346710000Y-297180000D03*
%TD*%
D33*
%TO.C,U3*%
X341630000Y-290499800D03*
X341630000Y-288620200D03*
X339598000Y-289560000D03*
%TD*%
D34*
%TO.C,D3*%
X350191000Y-257810000D03*
X351790000Y-257810000D03*
%TD*%
D35*
%TO.C,C13*%
X285750000Y-207010000D03*
X284200000Y-207010000D03*
%TD*%
D30*
%TO.C,J6*%
X267620000Y-258420000D03*
D31*
X267620000Y-265620000D03*
D32*
X261620000Y-255270000D03*
X261620000Y-268770000D03*
%TD*%
D36*
%TO.C,R9*%
X303530000Y-208280000D03*
X303530000Y-206630000D03*
%TD*%
D37*
%TO.C,Y1*%
X343680000Y-240030000D03*
X339580000Y-240030000D03*
%TD*%
D38*
%TO.C,SW1*%
X364490000Y-262085000D03*
X364490000Y-266235000D03*
%TD*%
D34*
%TO.C,D1*%
X350191000Y-267977000D03*
X351790000Y-267970000D03*
%TD*%
D21*
%TO.C,H3*%
X294550000Y-230550000D03*
%TD*%
%TO.C,H7*%
X283943398Y-220156602D03*
%TD*%
D22*
%TO.C,J8*%
X295910000Y-297180000D03*
D23*
X298450000Y-297180000D03*
%TD*%
D21*
%TO.C,H6*%
X283943398Y-198943398D03*
%TD*%
D39*
%TO.C,U1*%
X296784000Y-272175000D03*
X296784000Y-272825000D03*
X296784000Y-273475000D03*
X296784000Y-274125000D03*
X296784000Y-274775000D03*
X296784000Y-275425000D03*
X296784000Y-276075000D03*
X296784000Y-276725000D03*
X296784000Y-277375000D03*
X296784000Y-278025000D03*
X296784000Y-278675000D03*
X296784000Y-279325000D03*
X296784000Y-279975000D03*
X296784000Y-280625000D03*
X302516000Y-280625000D03*
X302516000Y-279975000D03*
X302516000Y-279325000D03*
X302516000Y-278675000D03*
X302516000Y-278025000D03*
X302516000Y-277375000D03*
X302516000Y-276725000D03*
X302516000Y-276075000D03*
X302516000Y-275425000D03*
X302516000Y-274775000D03*
X302516000Y-274125000D03*
X302516000Y-273475000D03*
X302516000Y-272825000D03*
X302516000Y-272175000D03*
D40*
X299650000Y-276400000D03*
%TD*%
D21*
%TO.C,H1*%
X294550000Y-188550000D03*
%TD*%
%TO.C,H4*%
X315550000Y-209550000D03*
%TD*%
D34*
%TO.C,D5*%
X350191000Y-262890000D03*
X351790000Y-262890000D03*
%TD*%
D35*
%TO.C,C14*%
X285750000Y-210820000D03*
X284200000Y-210820000D03*
%TD*%
D41*
%TO.C,U2*%
X343730000Y-227070000D03*
X343730000Y-227870000D03*
X343730000Y-228670000D03*
X343730000Y-229470000D03*
X343730000Y-230270000D03*
X343730000Y-231070000D03*
X343730000Y-231870000D03*
X343730000Y-232670000D03*
D42*
X345180000Y-234120000D03*
X345980000Y-234120000D03*
X346780000Y-234120000D03*
X347580000Y-234120000D03*
X348380000Y-234120000D03*
X349180000Y-234120000D03*
X349980000Y-234120000D03*
X350780000Y-234120000D03*
D41*
X352230000Y-232670000D03*
X352230000Y-231870000D03*
X352230000Y-231070000D03*
X352230000Y-230270000D03*
X352230000Y-229470000D03*
X352230000Y-228670000D03*
X352230000Y-227870000D03*
X352230000Y-227070000D03*
D42*
X350780000Y-225620000D03*
X349980000Y-225620000D03*
X349180000Y-225620000D03*
X348380000Y-225620000D03*
X347580000Y-225620000D03*
X346780000Y-225620000D03*
X345980000Y-225620000D03*
X345180000Y-225620000D03*
%TD*%
D43*
%TO.C,U5*%
X354330000Y-275590000D03*
X354330000Y-276860000D03*
X354330000Y-278130000D03*
X354330000Y-279400000D03*
X354330000Y-280670000D03*
X354330000Y-281940000D03*
X354330000Y-283210000D03*
X354330000Y-284480000D03*
X359280000Y-284480000D03*
X359280000Y-283210000D03*
X359280000Y-281940000D03*
X359280000Y-280670000D03*
X359280000Y-279400000D03*
X359280000Y-278130000D03*
X359280000Y-276860000D03*
X359280000Y-275590000D03*
%TD*%
D36*
%TO.C,R11*%
X306070000Y-206630000D03*
X306070000Y-208280000D03*
%TD*%
D44*
%TO.C,D2*%
X330930000Y-262890000D03*
X327570000Y-262890000D03*
%TD*%
D33*
%TO.C,U4*%
X347980000Y-290499800D03*
X347980000Y-288620200D03*
X345948000Y-289560000D03*
%TD*%
D21*
%TO.C,H8*%
X305156602Y-220156602D03*
%TD*%
D22*
%TO.C,J2*%
X321295000Y-297180000D03*
D23*
X318755000Y-297180000D03*
X316215000Y-297180000D03*
%TD*%
D22*
%TO.C,J7*%
X285750000Y-297180000D03*
D23*
X288290000Y-297180000D03*
%TD*%
%LPD*%
M02*
