%TF.GenerationSoftware,KiCad,Pcbnew,8.0.4*%
%TF.CreationDate,2024-08-11T19:16:42-04:00*%
%TF.ProjectId,foc_pcb,666f635f-7063-4622-9e6b-696361645f70,rev?*%
%TF.SameCoordinates,Original*%
%TF.FileFunction,Copper,L2,Bot*%
%TF.FilePolarity,Positive*%
%FSLAX46Y46*%
G04 Gerber Fmt 4.6, Leading zero omitted, Abs format (unit mm)*
G04 Created by KiCad (PCBNEW 8.0.4) date 2024-08-11 19:16:42*
%MOMM*%
%LPD*%
G01*
G04 APERTURE LIST*
G04 Aperture macros list*
%AMRoundRect*
0 Rectangle with rounded corners*
0 $1 Rounding radius*
0 $2 $3 $4 $5 $6 $7 $8 $9 X,Y pos of 4 corners*
0 Add a 4 corners polygon primitive as box body*
4,1,4,$2,$3,$4,$5,$6,$7,$8,$9,$2,$3,0*
0 Add four circle primitives for the rounded corners*
1,1,$1+$1,$2,$3*
1,1,$1+$1,$4,$5*
1,1,$1+$1,$6,$7*
1,1,$1+$1,$8,$9*
0 Add four rect primitives between the rounded corners*
20,1,$1+$1,$2,$3,$4,$5,0*
20,1,$1+$1,$4,$5,$6,$7,0*
20,1,$1+$1,$6,$7,$8,$9,0*
20,1,$1+$1,$8,$9,$2,$3,0*%
G04 Aperture macros list end*
%TA.AperFunction,ComponentPad*%
%ADD10R,1.700000X1.700000*%
%TD*%
%TA.AperFunction,ComponentPad*%
%ADD11O,1.700000X1.700000*%
%TD*%
%TA.AperFunction,ComponentPad*%
%ADD12O,0.900000X1.800000*%
%TD*%
%TA.AperFunction,ComponentPad*%
%ADD13R,3.716000X3.716000*%
%TD*%
%TA.AperFunction,ComponentPad*%
%ADD14C,3.716000*%
%TD*%
%TA.AperFunction,ComponentPad*%
%ADD15O,2.400000X1.200000*%
%TD*%
%TA.AperFunction,SMDPad,CuDef*%
%ADD16RoundRect,0.200000X0.200000X0.275000X-0.200000X0.275000X-0.200000X-0.275000X0.200000X-0.275000X0*%
%TD*%
%TA.AperFunction,SMDPad,CuDef*%
%ADD17RoundRect,0.200000X-0.200000X-0.275000X0.200000X-0.275000X0.200000X0.275000X-0.200000X0.275000X0*%
%TD*%
%TA.AperFunction,SMDPad,CuDef*%
%ADD18RoundRect,0.200000X-0.275000X0.200000X-0.275000X-0.200000X0.275000X-0.200000X0.275000X0.200000X0*%
%TD*%
%TA.AperFunction,SMDPad,CuDef*%
%ADD19RoundRect,0.225000X0.225000X0.250000X-0.225000X0.250000X-0.225000X-0.250000X0.225000X-0.250000X0*%
%TD*%
%TA.AperFunction,SMDPad,CuDef*%
%ADD20RoundRect,0.225000X-0.225000X-0.250000X0.225000X-0.250000X0.225000X0.250000X-0.225000X0.250000X0*%
%TD*%
%TA.AperFunction,SMDPad,CuDef*%
%ADD21RoundRect,0.225000X0.250000X-0.225000X0.250000X0.225000X-0.250000X0.225000X-0.250000X-0.225000X0*%
%TD*%
%TA.AperFunction,SMDPad,CuDef*%
%ADD22RoundRect,0.225000X-0.250000X0.225000X-0.250000X-0.225000X0.250000X-0.225000X0.250000X0.225000X0*%
%TD*%
%TA.AperFunction,SMDPad,CuDef*%
%ADD23RoundRect,0.200000X0.275000X-0.200000X0.275000X0.200000X-0.275000X0.200000X-0.275000X-0.200000X0*%
%TD*%
%TA.AperFunction,ViaPad*%
%ADD24C,0.800000*%
%TD*%
%TA.AperFunction,ViaPad*%
%ADD25C,0.600000*%
%TD*%
%TA.AperFunction,Conductor*%
%ADD26C,0.250000*%
%TD*%
%TA.AperFunction,Conductor*%
%ADD27C,0.525000*%
%TD*%
G04 APERTURE END LIST*
D10*
%TO.P,J1,1,Pin_1*%
%TO.N,/uRX*%
X368300000Y-295910000D03*
D11*
%TO.P,J1,2,Pin_2*%
%TO.N,/uTX*%
X368300000Y-293370000D03*
%TO.P,J1,3,Pin_3*%
%TO.N,GND*%
X368300000Y-290830000D03*
%TD*%
D12*
%TO.P,J12,S5,SHIELD__4*%
%TO.N,unconnected-(J12-SHIELD__4-PadS5)*%
X358720000Y-300800000D03*
%TO.P,J12,S6,SHIELD__5*%
%TO.N,unconnected-(J12-SHIELD__5-PadS6)*%
X365320000Y-300800000D03*
%TD*%
D10*
%TO.P,J3,1,Pin_1*%
%TO.N,/out1*%
X334010000Y-297180000D03*
D11*
%TO.P,J3,2,Pin_2*%
%TO.N,/out2*%
X331470000Y-297180000D03*
%TO.P,J3,3,Pin_3*%
%TO.N,/out3*%
X328930000Y-297180000D03*
%TD*%
D10*
%TO.P,J4,1,Pin_1*%
%TO.N,/aRX1*%
X364490000Y-256530000D03*
D11*
%TO.P,J4,2,Pin_2*%
%TO.N,/aTX1*%
X364490000Y-253990000D03*
%TO.P,J4,3,Pin_3*%
%TO.N,/aRX2*%
X364490000Y-251450000D03*
%TO.P,J4,4,Pin_4*%
%TO.N,/aTX2*%
X364490000Y-248910000D03*
%TD*%
D13*
%TO.P,J5,1,+*%
%TO.N,VCC*%
X267620000Y-279820000D03*
D14*
%TO.P,J5,2,-*%
%TO.N,GND*%
X267620000Y-287020000D03*
D15*
%TO.P,J5,S1*%
%TO.N,N/C*%
X261620000Y-276670000D03*
%TO.P,J5,S2*%
X261620000Y-290170000D03*
%TD*%
D10*
%TO.P,J9,1,Pin_1*%
%TO.N,+3.3V*%
X306070000Y-297180000D03*
D11*
%TO.P,J9,2,Pin_2*%
%TO.N,GND*%
X308610000Y-297180000D03*
%TD*%
D10*
%TO.P,J10,1,Pin_1*%
%TO.N,/miso*%
X271780000Y-297180000D03*
D11*
%TO.P,J10,2,Pin_2*%
%TO.N,/sck*%
X271780000Y-294640000D03*
%TO.P,J10,3,Pin_3*%
%TO.N,/rst*%
X274320000Y-297180000D03*
%TO.P,J10,4,Pin_4*%
%TO.N,+5V*%
X274320000Y-294640000D03*
%TO.P,J10,5,Pin_5*%
%TO.N,/mosi*%
X276860000Y-297180000D03*
%TO.P,J10,6,Pin_6*%
%TO.N,GND*%
X276860000Y-294640000D03*
%TD*%
D10*
%TO.P,J11,1,Pin_1*%
%TO.N,/3vin*%
X341630000Y-297180000D03*
D11*
%TO.P,J11,2,Pin_2*%
%TO.N,/lvRX*%
X344170000Y-297180000D03*
%TO.P,J11,3,Pin_3*%
%TO.N,/lvTX*%
X346710000Y-297180000D03*
%TD*%
D13*
%TO.P,J6,1,+*%
%TO.N,VCC*%
X267620000Y-258420000D03*
D14*
%TO.P,J6,2,-*%
%TO.N,GND*%
X267620000Y-265620000D03*
D15*
%TO.P,J6,S1*%
%TO.N,N/C*%
X261620000Y-255270000D03*
%TO.P,J6,S2*%
X261620000Y-268770000D03*
%TD*%
D10*
%TO.P,J8,1,Pin_1*%
%TO.N,+5V*%
X295910000Y-297180000D03*
D11*
%TO.P,J8,2,Pin_2*%
%TO.N,GND*%
X298450000Y-297180000D03*
%TD*%
D10*
%TO.P,J2,1,Pin_1*%
%TO.N,/fault*%
X321295000Y-297180000D03*
D11*
%TO.P,J2,2,Pin_2*%
%TO.N,/nSlp*%
X318755000Y-297180000D03*
%TO.P,J2,3,Pin_3*%
%TO.N,/nRes*%
X316215000Y-297180000D03*
%TD*%
D10*
%TO.P,J7,1,Pin_1*%
%TO.N,+5V*%
X285750000Y-297180000D03*
D11*
%TO.P,J7,2,Pin_2*%
%TO.N,GND*%
X288290000Y-297180000D03*
%TD*%
D16*
%TO.P,R13,1*%
%TO.N,+5V*%
X339090000Y-259080000D03*
%TO.P,R13,2*%
%TO.N,Net-(VR1-ADJUSTMENT)*%
X337440000Y-259080000D03*
%TD*%
D17*
%TO.P,R2,1*%
%TO.N,/nSlp*%
X306070000Y-283210000D03*
%TO.P,R2,2*%
%TO.N,+3.3V*%
X307720000Y-283210000D03*
%TD*%
D18*
%TO.P,R5,1*%
%TO.N,/rst*%
X364490000Y-269240000D03*
%TO.P,R5,2*%
%TO.N,+5V*%
X364490000Y-270890000D03*
%TD*%
D19*
%TO.P,C4,1*%
%TO.N,VCC*%
X332740000Y-269240000D03*
%TO.P,C4,2*%
%TO.N,GND*%
X331190000Y-269240000D03*
%TD*%
D16*
%TO.P,R12,1*%
%TO.N,Net-(U2-PD7)*%
X311150000Y-275590000D03*
%TO.P,R12,2*%
%TO.N,/en*%
X309500000Y-275590000D03*
%TD*%
D18*
%TO.P,R7,1*%
%TO.N,/uTX*%
X350520000Y-271400000D03*
%TO.P,R7,2*%
%TO.N,Net-(U5-RXD)*%
X350520000Y-273050000D03*
%TD*%
%TO.P,R18,1*%
%TO.N,+5V*%
X344615000Y-286640000D03*
%TO.P,R18,2*%
%TO.N,/aTX1*%
X344615000Y-288290000D03*
%TD*%
D16*
%TO.P,R14,1*%
%TO.N,Net-(VR1-ADJUSTMENT)*%
X334010000Y-259080000D03*
%TO.P,R14,2*%
%TO.N,GND*%
X332360000Y-259080000D03*
%TD*%
D20*
%TO.P,C7,1*%
%TO.N,GND*%
X338810000Y-229870000D03*
%TO.P,C7,2*%
%TO.N,+5V*%
X340360000Y-229870000D03*
%TD*%
D19*
%TO.P,C17,1*%
%TO.N,/x2*%
X345720000Y-245110000D03*
%TO.P,C17,2*%
%TO.N,GND*%
X344170000Y-245110000D03*
%TD*%
%TO.P,C8,1*%
%TO.N,GND*%
X357150000Y-232410000D03*
%TO.P,C8,2*%
%TO.N,+5V*%
X355600000Y-232410000D03*
%TD*%
D21*
%TO.P,C1,1*%
%TO.N,GND*%
X302260000Y-284760000D03*
%TO.P,C1,2*%
%TO.N,+3.3V*%
X302260000Y-283210000D03*
%TD*%
D22*
%TO.P,C3,1*%
%TO.N,Net-(U1-VCP)*%
X290830000Y-271780000D03*
%TO.P,C3,2*%
%TO.N,VCC*%
X290830000Y-273330000D03*
%TD*%
D17*
%TO.P,R1,1*%
%TO.N,/fault*%
X306070000Y-280670000D03*
%TO.P,R1,2*%
%TO.N,+3.3V*%
X307720000Y-280670000D03*
%TD*%
D18*
%TO.P,R17,1*%
%TO.N,/3vin*%
X350520000Y-286640000D03*
%TO.P,R17,2*%
%TO.N,/lvTX*%
X350520000Y-288290000D03*
%TD*%
D19*
%TO.P,C16,1*%
%TO.N,GND*%
X339865000Y-245110000D03*
%TO.P,C16,2*%
%TO.N,/x1*%
X338315000Y-245110000D03*
%TD*%
D16*
%TO.P,R10,1*%
%TO.N,+5V*%
X355980000Y-262890000D03*
%TO.P,R10,2*%
%TO.N,Net-(D5-A)*%
X354330000Y-262890000D03*
%TD*%
D20*
%TO.P,C6,1*%
%TO.N,/aref*%
X355600000Y-229870000D03*
%TO.P,C6,2*%
%TO.N,GND*%
X357150000Y-229870000D03*
%TD*%
%TO.P,C12,1*%
%TO.N,GND*%
X350110000Y-280670000D03*
%TO.P,C12,2*%
%TO.N,Net-(U5-V3)*%
X351660000Y-280670000D03*
%TD*%
D18*
%TO.P,R16,1*%
%TO.N,+5V*%
X337820000Y-286640000D03*
%TO.P,R16,2*%
%TO.N,/aRX1*%
X337820000Y-288290000D03*
%TD*%
D19*
%TO.P,C10,1*%
%TO.N,Net-(U5-V3)*%
X351660000Y-277495000D03*
%TO.P,C10,2*%
%TO.N,GND*%
X350110000Y-277495000D03*
%TD*%
D18*
%TO.P,R15,1*%
%TO.N,/3vin*%
X335725000Y-286640000D03*
%TO.P,R15,2*%
%TO.N,/lvRX*%
X335725000Y-288290000D03*
%TD*%
D22*
%TO.P,C2,1*%
%TO.N,Net-(U1-CPL)*%
X293370000Y-269240000D03*
%TO.P,C2,2*%
%TO.N,Net-(U1-CPH)*%
X293370000Y-270790000D03*
%TD*%
D17*
%TO.P,R3,1*%
%TO.N,/nRes*%
X306070000Y-285750000D03*
%TO.P,R3,2*%
%TO.N,+3.3V*%
X307720000Y-285750000D03*
%TD*%
D16*
%TO.P,R4,1*%
%TO.N,VCC*%
X355980000Y-267970000D03*
%TO.P,R4,2*%
%TO.N,Net-(D1-A)*%
X354330000Y-267970000D03*
%TD*%
D17*
%TO.P,R8,1*%
%TO.N,Net-(D3-A)*%
X354330000Y-257810000D03*
%TO.P,R8,2*%
%TO.N,/sck*%
X355980000Y-257810000D03*
%TD*%
D22*
%TO.P,C9,1*%
%TO.N,/rst*%
X364490000Y-280390000D03*
%TO.P,C9,2*%
%TO.N,Net-(U5-~{DTR})*%
X364490000Y-281940000D03*
%TD*%
D23*
%TO.P,R6,1*%
%TO.N,Net-(U5-TXD)*%
X353060000Y-273050000D03*
%TO.P,R6,2*%
%TO.N,/uRX*%
X353060000Y-271400000D03*
%TD*%
D24*
%TO.N,/uTX*%
X347980000Y-279400000D03*
%TO.N,/uRX*%
X346710000Y-279400000D03*
%TO.N,/uTX*%
X355600000Y-287020000D03*
%TO.N,/uRX*%
X354330000Y-287020000D03*
D25*
%TO.N,GND*%
X300390000Y-276860000D03*
X299050000Y-278130000D03*
D24*
X349250000Y-264160000D03*
X299720000Y-207010000D03*
X354330000Y-228600000D03*
X364490000Y-260350000D03*
D25*
X300390000Y-278130000D03*
D24*
X341630000Y-231140000D03*
X279400000Y-289560000D03*
D25*
X300390000Y-274320000D03*
D24*
X279400000Y-292740000D03*
D25*
X299050000Y-276860000D03*
D24*
X294640000Y-289560000D03*
D25*
X299050000Y-275590000D03*
D24*
X289560000Y-212090000D03*
X365760000Y-292100000D03*
X349250000Y-261620000D03*
D25*
X299050000Y-274320000D03*
X300390000Y-275590000D03*
D24*
X345440000Y-264160000D03*
X355600000Y-273050000D03*
%TO.N,+3.3V*%
X302260000Y-281940000D03*
%TO.N,Net-(U1-CPL)*%
X294640000Y-270510000D03*
%TO.N,Net-(U1-CPH)*%
X294640000Y-271780000D03*
%TO.N,VCC*%
X307340000Y-294640000D03*
X323850000Y-294640000D03*
X358140000Y-267970000D03*
X289560000Y-275590000D03*
X332740000Y-271780000D03*
%TO.N,Net-(U1-VCP)*%
X292100000Y-271780000D03*
%TO.N,+5V*%
X337820000Y-284480000D03*
X354330000Y-260350000D03*
X361950000Y-275590000D03*
X337820000Y-270510000D03*
X359410000Y-252730000D03*
X334010000Y-292100000D03*
X341630000Y-229870000D03*
X354330000Y-232410000D03*
X339090000Y-227330000D03*
%TO.N,/aref*%
X354330000Y-229870000D03*
%TO.N,/rst*%
X347980000Y-223520000D03*
X364490000Y-267970000D03*
%TO.N,Net-(U5-~{DTR})*%
X361950000Y-279400000D03*
%TO.N,Net-(U5-V3)*%
X351790000Y-279400000D03*
%TO.N,Net-(D1-A)*%
X353060000Y-267970000D03*
%TO.N,Net-(D3-A)*%
X353060000Y-256540000D03*
%TO.N,Net-(D5-A)*%
X353060000Y-262890000D03*
%TO.N,/escl*%
X349250000Y-223520000D03*
X303530000Y-209550000D03*
%TO.N,/esda*%
X306070000Y-209550000D03*
X350520000Y-223520000D03*
%TO.N,/nSlp*%
X304800000Y-279400000D03*
%TO.N,/fault*%
X306070000Y-279400000D03*
%TO.N,/nRes*%
X304800000Y-281940000D03*
%TO.N,/out2*%
X321310000Y-285750000D03*
X293505000Y-276725000D03*
%TO.N,/out3*%
X293370000Y-279400000D03*
X320040000Y-285750000D03*
%TO.N,/out1*%
X293370000Y-275590000D03*
X322580000Y-285750000D03*
%TO.N,/aTX1*%
X346710000Y-287020000D03*
X367030000Y-287020000D03*
%TO.N,/aRX1*%
X339090000Y-288290000D03*
X365760000Y-287020000D03*
%TO.N,/uRX*%
X346710000Y-227330000D03*
%TO.N,Net-(U5-TXD)*%
X353060000Y-274320000D03*
%TO.N,/uTX*%
X345440000Y-227330000D03*
%TO.N,Net-(U5-RXD)*%
X350520000Y-274320000D03*
%TO.N,/sck*%
X345440000Y-266700000D03*
X354330000Y-233680000D03*
X358140000Y-257810000D03*
%TO.N,Net-(U2-PD7)*%
X326390000Y-251460000D03*
X341630000Y-250190000D03*
X331470000Y-251460000D03*
%TO.N,/en*%
X307340000Y-274320000D03*
X306070000Y-273050000D03*
X306070000Y-276860000D03*
%TO.N,/x2*%
X345440000Y-240030000D03*
%TO.N,/x1*%
X337820000Y-240030000D03*
%TO.N,Net-(VR1-ADJUSTMENT)*%
X335280000Y-259080000D03*
%TO.N,/miso*%
X353060000Y-236220000D03*
X353060000Y-247650000D03*
X342900000Y-248920000D03*
%TO.N,/mosi*%
X351790000Y-236220000D03*
X351790000Y-247650000D03*
X342900000Y-247650000D03*
%TO.N,/lvTX*%
X349250000Y-288290000D03*
%TO.N,/lvRX*%
X342900000Y-292100000D03*
%TD*%
D26*
%TO.N,/uRX*%
X351320000Y-273140000D02*
X353060000Y-271400000D01*
X348705000Y-275210000D02*
X350655305Y-275210000D01*
X351320000Y-274545305D02*
X351320000Y-273140000D01*
X348705000Y-279700305D02*
X348705000Y-275210000D01*
X350655305Y-275210000D02*
X351320000Y-274545305D01*
X348280305Y-280125000D02*
X348705000Y-279700305D01*
X346710000Y-279155305D02*
X347679695Y-280125000D01*
X347679695Y-280125000D02*
X348280305Y-280125000D01*
X346710000Y-279400000D02*
X346710000Y-279155305D01*
%TO.N,/uTX*%
X347980000Y-273940000D02*
X350520000Y-271400000D01*
X347980000Y-279400000D02*
X347980000Y-273940000D01*
%TO.N,/uRX*%
X363220000Y-295910000D02*
X354330000Y-287020000D01*
X368300000Y-295910000D02*
X363220000Y-295910000D01*
%TO.N,/uTX*%
X361950000Y-293370000D02*
X355600000Y-287020000D01*
X368300000Y-293370000D02*
X361950000Y-293370000D01*
%TO.N,/escl*%
X348525000Y-222795000D02*
X349250000Y-223520000D01*
X303530000Y-209550000D02*
X316775000Y-222795000D01*
X316775000Y-222795000D02*
X348525000Y-222795000D01*
%TO.N,/mosi*%
X270228000Y-293997140D02*
X270228000Y-298168000D01*
X284103000Y-280122140D02*
X270228000Y-293997140D01*
X270415000Y-298355000D02*
X275685000Y-298355000D01*
X275685000Y-298355000D02*
X276860000Y-297180000D01*
X284103000Y-273427000D02*
X284103000Y-280122140D01*
X309880000Y-247650000D02*
X284103000Y-273427000D01*
X342900000Y-247650000D02*
X309880000Y-247650000D01*
X270228000Y-298168000D02*
X270415000Y-298355000D01*
%TO.N,/miso*%
X270605000Y-296005000D02*
X271780000Y-297180000D01*
X270605000Y-294153299D02*
X270605000Y-296005000D01*
X284480000Y-280278299D02*
X270605000Y-294153299D01*
X284480000Y-273583158D02*
X284480000Y-280278299D01*
X309143158Y-248920000D02*
X284480000Y-273583158D01*
X342900000Y-248920000D02*
X309143158Y-248920000D01*
%TO.N,+3.3V*%
X305600000Y-286550000D02*
X302260000Y-283210000D01*
X302260000Y-283210000D02*
X302260000Y-281940000D01*
X307720000Y-283210000D02*
X307720000Y-285750000D01*
X307720000Y-280670000D02*
X307720000Y-283210000D01*
X307720000Y-285750000D02*
X306920000Y-286550000D01*
X306920000Y-286550000D02*
X305600000Y-286550000D01*
%TO.N,Net-(U1-CPL)*%
X293370000Y-269240000D02*
X294640000Y-270510000D01*
%TO.N,Net-(U1-CPH)*%
X293370000Y-270790000D02*
X293650000Y-270790000D01*
X293650000Y-270790000D02*
X294640000Y-271780000D01*
D27*
%TO.N,VCC*%
X289560000Y-274600000D02*
X290830000Y-273330000D01*
X289560000Y-275590000D02*
X289560000Y-274600000D01*
X307340000Y-294640000D02*
X323850000Y-294640000D01*
X358140000Y-267970000D02*
X355980000Y-267970000D01*
X332740000Y-269240000D02*
X332740000Y-271780000D01*
D26*
%TO.N,Net-(U1-VCP)*%
X290830000Y-271780000D02*
X292100000Y-271780000D01*
%TO.N,+5V*%
X337820000Y-286640000D02*
X344615000Y-286640000D01*
X340360000Y-229870000D02*
X341630000Y-229870000D01*
X355980000Y-262000000D02*
X354330000Y-260350000D01*
X340360000Y-260350000D02*
X340360000Y-266700000D01*
X339090000Y-259080000D02*
X340360000Y-260350000D01*
X332348299Y-292100000D02*
X334010000Y-292100000D01*
X355980000Y-262890000D02*
X355980000Y-262000000D01*
X295910000Y-297180000D02*
X298450000Y-299720000D01*
X355600000Y-232410000D02*
X354330000Y-232410000D01*
X337820000Y-269240000D02*
X337820000Y-270510000D01*
X340360000Y-229870000D02*
X340360000Y-228600000D01*
X364490000Y-270890000D02*
X364490000Y-273050000D01*
X337820000Y-286640000D02*
X337820000Y-284480000D01*
X356490000Y-262890000D02*
X364490000Y-270890000D01*
X340360000Y-266700000D02*
X337820000Y-269240000D01*
X298450000Y-299720000D02*
X324728299Y-299720000D01*
X364490000Y-273050000D02*
X361950000Y-275590000D01*
X340360000Y-228600000D02*
X339090000Y-227330000D01*
X355980000Y-262890000D02*
X356490000Y-262890000D01*
X359410000Y-252730000D02*
X359410000Y-236220000D01*
X324728299Y-299720000D02*
X332348299Y-292100000D01*
X359410000Y-236220000D02*
X355600000Y-232410000D01*
%TO.N,/aref*%
X355600000Y-229870000D02*
X354330000Y-229870000D01*
%TO.N,/rst*%
X280575000Y-296005000D02*
X284480000Y-292100000D01*
X364490000Y-269240000D02*
X365290000Y-270040000D01*
X358854695Y-281470000D02*
X361649695Y-278675000D01*
X339560000Y-281470000D02*
X358854695Y-281470000D01*
X364490000Y-269240000D02*
X364490000Y-267970000D01*
X276373299Y-296005000D02*
X280575000Y-296005000D01*
X347980000Y-252730000D02*
X364490000Y-269240000D01*
X275685000Y-296693299D02*
X276373299Y-296005000D01*
X347980000Y-223520000D02*
X347980000Y-252730000D01*
X328930000Y-292100000D02*
X339560000Y-281470000D01*
X365290000Y-270040000D02*
X365290000Y-279590000D01*
X365290000Y-279590000D02*
X364490000Y-280390000D01*
X274320000Y-297180000D02*
X275685000Y-297180000D01*
X361649695Y-278675000D02*
X362775000Y-278675000D01*
X284480000Y-292100000D02*
X328930000Y-292100000D01*
X275685000Y-297180000D02*
X275685000Y-296693299D01*
X362775000Y-278675000D02*
X364490000Y-280390000D01*
%TO.N,Net-(U5-~{DTR})*%
X364490000Y-281940000D02*
X361950000Y-279400000D01*
%TO.N,Net-(U5-V3)*%
X351790000Y-279400000D02*
X351790000Y-280540000D01*
X351790000Y-280540000D02*
X351660000Y-280670000D01*
X351790000Y-279400000D02*
X351790000Y-277625000D01*
X351790000Y-277625000D02*
X351660000Y-277495000D01*
D27*
%TO.N,Net-(D1-A)*%
X354330000Y-267970000D02*
X353060000Y-267970000D01*
D26*
%TO.N,Net-(D3-A)*%
X354330000Y-257810000D02*
X353060000Y-256540000D01*
%TO.N,Net-(D5-A)*%
X354330000Y-262890000D02*
X353060000Y-262890000D01*
%TO.N,/nSlp*%
X304800000Y-280623004D02*
X306070000Y-281893004D01*
X304800000Y-279400000D02*
X304800000Y-280623004D01*
X306070000Y-281893004D02*
X306070000Y-283210000D01*
%TO.N,/fault*%
X306070000Y-280670000D02*
X306070000Y-279400000D01*
%TO.N,/nRes*%
X304800000Y-284480000D02*
X306070000Y-285750000D01*
X304800000Y-281940000D02*
X304800000Y-284480000D01*
D27*
%TO.N,/out2*%
X318003552Y-289056448D02*
X321310000Y-285750000D01*
X299216448Y-289056448D02*
X318003552Y-289056448D01*
X289967500Y-279807500D02*
X299216448Y-289056448D01*
X293370000Y-276860000D02*
X290830000Y-276860000D01*
X290830000Y-276860000D02*
X289967500Y-277722500D01*
X289967500Y-277722500D02*
X289967500Y-279807500D01*
%TO.N,/out3*%
X299720000Y-288290000D02*
X317500000Y-288290000D01*
X317500000Y-288290000D02*
X320040000Y-285750000D01*
X293370000Y-281940000D02*
X299720000Y-288290000D01*
X293370000Y-279400000D02*
X293370000Y-281940000D01*
%TO.N,/out1*%
X290830000Y-275590000D02*
X289315500Y-277104500D01*
X289315500Y-281645260D02*
X297378688Y-289708448D01*
X318621552Y-289708448D02*
X322580000Y-285750000D01*
X293370000Y-275590000D02*
X290830000Y-275590000D01*
X289315500Y-277104500D02*
X289315500Y-281645260D01*
X297378688Y-289708448D02*
X318621552Y-289708448D01*
D26*
%TO.N,/aTX1*%
X345440000Y-288290000D02*
X346710000Y-287020000D01*
X367030000Y-287020000D02*
X366485000Y-287565000D01*
X344615000Y-288290000D02*
X345440000Y-288290000D01*
X366485000Y-286719695D02*
X365230305Y-285465000D01*
X365230305Y-285465000D02*
X348265000Y-285465000D01*
X348265000Y-285465000D02*
X346710000Y-287020000D01*
X366485000Y-287565000D02*
X366485000Y-286719695D01*
%TO.N,/aRX1*%
X364655000Y-285915000D02*
X349963299Y-285915000D01*
X346318299Y-289560000D02*
X339090000Y-289560000D01*
X349963299Y-285915000D02*
X346318299Y-289560000D01*
X365760000Y-287020000D02*
X364655000Y-285915000D01*
X337820000Y-288290000D02*
X339090000Y-288290000D01*
X339090000Y-289560000D02*
X337820000Y-288290000D01*
%TO.N,/uRX*%
X347530000Y-227330000D02*
X346710000Y-227330000D01*
X353060000Y-271400000D02*
X347530000Y-265870000D01*
X347530000Y-265870000D02*
X347530000Y-227330000D01*
%TO.N,Net-(U5-TXD)*%
X353060000Y-273050000D02*
X353060000Y-274320000D01*
%TO.N,/uTX*%
X346710000Y-267590000D02*
X350520000Y-271400000D01*
X345440000Y-228600000D02*
X346710000Y-229870000D01*
X346710000Y-229870000D02*
X346710000Y-267590000D01*
X345440000Y-227330000D02*
X345440000Y-228600000D01*
%TO.N,Net-(U5-RXD)*%
X350520000Y-273050000D02*
X350520000Y-274320000D01*
%TO.N,/sck*%
X320417000Y-291723000D02*
X274697000Y-291723000D01*
X355980000Y-235330000D02*
X354330000Y-233680000D01*
X274697000Y-291723000D02*
X271780000Y-294640000D01*
X345440000Y-266700000D02*
X320417000Y-291723000D01*
X355980000Y-257810000D02*
X358140000Y-257810000D01*
X355980000Y-257810000D02*
X355980000Y-235330000D01*
%TO.N,Net-(U2-PD7)*%
X311150000Y-275590000D02*
X306261528Y-270701528D01*
X341630000Y-250190000D02*
X332740000Y-250190000D01*
X303425021Y-270276833D02*
X303425021Y-269344979D01*
X326390000Y-251460000D02*
X321310000Y-251460000D01*
X332740000Y-250190000D02*
X331470000Y-251460000D01*
X303425021Y-269344979D02*
X321310000Y-251460000D01*
X306261528Y-270701528D02*
X303849716Y-270701528D01*
X303849716Y-270701528D02*
X303425021Y-270276833D01*
%TO.N,/en*%
X307340000Y-274320000D02*
X307340000Y-275590000D01*
X308610000Y-275590000D02*
X307340000Y-274320000D01*
X307340000Y-274320000D02*
X306070000Y-273050000D01*
X307340000Y-275590000D02*
X306070000Y-276860000D01*
X309500000Y-275590000D02*
X308610000Y-275590000D01*
%TO.N,/x2*%
X345720000Y-240310000D02*
X345440000Y-240030000D01*
X345720000Y-245110000D02*
X345720000Y-240310000D01*
%TO.N,/x1*%
X338315000Y-245110000D02*
X338315000Y-240525000D01*
X338315000Y-240525000D02*
X337820000Y-240030000D01*
%TO.N,Net-(VR1-ADJUSTMENT)*%
X334010000Y-259080000D02*
X335280000Y-259080000D01*
X337440000Y-259080000D02*
X335280000Y-259080000D01*
%TO.N,/miso*%
X353060000Y-236220000D02*
X353060000Y-247650000D01*
%TO.N,/mosi*%
X351790000Y-236220000D02*
X351790000Y-247650000D01*
%TO.N,/lvTX*%
X350520000Y-288290000D02*
X349250000Y-288290000D01*
%TO.N,/3vin*%
X349874695Y-286640000D02*
X350520000Y-286640000D01*
X341630000Y-294884695D02*
X349874695Y-286640000D01*
X341630000Y-297180000D02*
X334925000Y-290475000D01*
X334925000Y-287440000D02*
X335725000Y-286640000D01*
X334925000Y-290475000D02*
X334925000Y-287440000D01*
X341630000Y-297180000D02*
X341630000Y-294884695D01*
%TO.N,/lvRX*%
X335725000Y-288290000D02*
X339535000Y-292100000D01*
X339535000Y-292100000D02*
X342900000Y-292100000D01*
%TO.N,/esda*%
X306070000Y-209550000D02*
X306070000Y-210820000D01*
X306070000Y-210820000D02*
X316230000Y-220980000D01*
X316230000Y-220980000D02*
X347980000Y-220980000D01*
X347980000Y-220980000D02*
X350520000Y-223520000D01*
%TD*%
%TA.AperFunction,Conductor*%
%TO.N,GND*%
G36*
X369513039Y-205759685D02*
G01*
X369558794Y-205812489D01*
X369570000Y-205864000D01*
X369570000Y-289896817D01*
X369550315Y-289963856D01*
X369497511Y-290009611D01*
X369428353Y-290019555D01*
X369364797Y-289990530D01*
X369344426Y-289967941D01*
X369338115Y-289958929D01*
X369338108Y-289958920D01*
X369171082Y-289791894D01*
X368977578Y-289656399D01*
X368763492Y-289556570D01*
X368763486Y-289556567D01*
X368550000Y-289499364D01*
X368550000Y-290396988D01*
X368492993Y-290364075D01*
X368365826Y-290330000D01*
X368234174Y-290330000D01*
X368107007Y-290364075D01*
X368050000Y-290396988D01*
X368050000Y-289499364D01*
X368049999Y-289499364D01*
X367836513Y-289556567D01*
X367836507Y-289556570D01*
X367622422Y-289656399D01*
X367622420Y-289656400D01*
X367428926Y-289791886D01*
X367428920Y-289791891D01*
X367261891Y-289958920D01*
X367261886Y-289958926D01*
X367126400Y-290152420D01*
X367126399Y-290152422D01*
X367026570Y-290366507D01*
X367026567Y-290366513D01*
X366969364Y-290579999D01*
X366969364Y-290580000D01*
X367866988Y-290580000D01*
X367834075Y-290637007D01*
X367800000Y-290764174D01*
X367800000Y-290895826D01*
X367834075Y-291022993D01*
X367866988Y-291080000D01*
X366969364Y-291080000D01*
X367026567Y-291293486D01*
X367026570Y-291293492D01*
X367126399Y-291507578D01*
X367261894Y-291701082D01*
X367428917Y-291868105D01*
X367614595Y-291998119D01*
X367658219Y-292052696D01*
X367665412Y-292122195D01*
X367633890Y-292184549D01*
X367614595Y-292201269D01*
X367428594Y-292331508D01*
X367261505Y-292498597D01*
X367126348Y-292691623D01*
X367071771Y-292735248D01*
X367024773Y-292744500D01*
X362260452Y-292744500D01*
X362193413Y-292724815D01*
X362172771Y-292708181D01*
X356538960Y-287074370D01*
X356505475Y-287013047D01*
X356503323Y-286999671D01*
X356485674Y-286831744D01*
X356443782Y-286702817D01*
X356441788Y-286632977D01*
X356477868Y-286573144D01*
X356540569Y-286542316D01*
X356561714Y-286540500D01*
X364344548Y-286540500D01*
X364411587Y-286560185D01*
X364432229Y-286576819D01*
X364821038Y-286965628D01*
X364854523Y-287026951D01*
X364856678Y-287040347D01*
X364859485Y-287067049D01*
X364874326Y-287208256D01*
X364874327Y-287208259D01*
X364932818Y-287388277D01*
X364932821Y-287388284D01*
X365027467Y-287552216D01*
X365119844Y-287654811D01*
X365154129Y-287692888D01*
X365307265Y-287804148D01*
X365307270Y-287804151D01*
X365480192Y-287881142D01*
X365480197Y-287881144D01*
X365665354Y-287920500D01*
X365665355Y-287920500D01*
X365854646Y-287920500D01*
X365873684Y-287916453D01*
X365943349Y-287921766D01*
X365995319Y-287959075D01*
X365999145Y-287963737D01*
X366086264Y-288050856D01*
X366086267Y-288050858D01*
X366137490Y-288085084D01*
X366188714Y-288119312D01*
X366269207Y-288152652D01*
X366302548Y-288166463D01*
X366362971Y-288178481D01*
X366423393Y-288190500D01*
X366546607Y-288190500D01*
X366607029Y-288178481D01*
X366667452Y-288166463D01*
X366667455Y-288166461D01*
X366667458Y-288166461D01*
X366700787Y-288152654D01*
X366700786Y-288152654D01*
X366700792Y-288152652D01*
X366781286Y-288119312D01*
X366832509Y-288085084D01*
X366832511Y-288085083D01*
X366866837Y-288062147D01*
X366883733Y-288050858D01*
X366970858Y-287963733D01*
X366970858Y-287963731D01*
X366977771Y-287956819D01*
X367039094Y-287923334D01*
X367065453Y-287920500D01*
X367124644Y-287920500D01*
X367124646Y-287920500D01*
X367309803Y-287881144D01*
X367482730Y-287804151D01*
X367635871Y-287692888D01*
X367762533Y-287552216D01*
X367857179Y-287388284D01*
X367915674Y-287208256D01*
X367935460Y-287020000D01*
X367915674Y-286831744D01*
X367857179Y-286651716D01*
X367762533Y-286487784D01*
X367635871Y-286347112D01*
X367635870Y-286347111D01*
X367482734Y-286235851D01*
X367482729Y-286235848D01*
X367309807Y-286158857D01*
X367309802Y-286158855D01*
X367159079Y-286126819D01*
X367124646Y-286119500D01*
X366935354Y-286119500D01*
X366935350Y-286119500D01*
X366864342Y-286134593D01*
X366794674Y-286129277D01*
X366750880Y-286100984D01*
X365723233Y-285073338D01*
X365723230Y-285073334D01*
X365723230Y-285073335D01*
X365716163Y-285066268D01*
X365716163Y-285066267D01*
X365629038Y-284979142D01*
X365629037Y-284979141D01*
X365629036Y-284979140D01*
X365577814Y-284944915D01*
X365526591Y-284910688D01*
X365526588Y-284910686D01*
X365526585Y-284910685D01*
X365446097Y-284877347D01*
X365412757Y-284863537D01*
X365412758Y-284863537D01*
X365397505Y-284860503D01*
X365336073Y-284848284D01*
X365313992Y-284843892D01*
X365291913Y-284839500D01*
X365291912Y-284839500D01*
X365291911Y-284839500D01*
X348326607Y-284839500D01*
X348203393Y-284839500D01*
X348203392Y-284839500D01*
X348181312Y-284843892D01*
X348159232Y-284848284D01*
X348115281Y-284857025D01*
X348082545Y-284863537D01*
X348062543Y-284871823D01*
X348049207Y-284877347D01*
X347968719Y-284910684D01*
X347968705Y-284910692D01*
X347866272Y-284979138D01*
X347866264Y-284979144D01*
X347812087Y-285033322D01*
X347779142Y-285066267D01*
X347779139Y-285066270D01*
X347263947Y-285581463D01*
X346762229Y-286083181D01*
X346700906Y-286116666D01*
X346674548Y-286119500D01*
X346615354Y-286119500D01*
X346582897Y-286126398D01*
X346430197Y-286158855D01*
X346430192Y-286158857D01*
X346257270Y-286235848D01*
X346257265Y-286235851D01*
X346104129Y-286347111D01*
X345977466Y-286487785D01*
X345882821Y-286651715D01*
X345882818Y-286651722D01*
X345832431Y-286806799D01*
X345792993Y-286864475D01*
X345728635Y-286891673D01*
X345659788Y-286879758D01*
X345608313Y-286832514D01*
X345590500Y-286768481D01*
X345590500Y-286383386D01*
X345587204Y-286347112D01*
X345584086Y-286312804D01*
X345533478Y-286150394D01*
X345445472Y-286004815D01*
X345445470Y-286004813D01*
X345445469Y-286004811D01*
X345325188Y-285884530D01*
X345293505Y-285865377D01*
X345179606Y-285796522D01*
X345017196Y-285745914D01*
X345017194Y-285745913D01*
X345017192Y-285745913D01*
X344967778Y-285741423D01*
X344946616Y-285739500D01*
X344283384Y-285739500D01*
X344264145Y-285741248D01*
X344212807Y-285745913D01*
X344050393Y-285796522D01*
X343904811Y-285884530D01*
X343904810Y-285884531D01*
X343811161Y-285978181D01*
X343749838Y-286011666D01*
X343723480Y-286014500D01*
X338711520Y-286014500D01*
X338644481Y-285994815D01*
X338623839Y-285978181D01*
X338530188Y-285884530D01*
X338530186Y-285884529D01*
X338530185Y-285884528D01*
X338505348Y-285869513D01*
X338458162Y-285817984D01*
X338445500Y-285763397D01*
X338445500Y-285178687D01*
X338465185Y-285111648D01*
X338477350Y-285095715D01*
X338513878Y-285055146D01*
X338552533Y-285012216D01*
X338647179Y-284848284D01*
X338705674Y-284668256D01*
X338725460Y-284480000D01*
X338705674Y-284291744D01*
X338647179Y-284111716D01*
X338552533Y-283947784D01*
X338425871Y-283807112D01*
X338403404Y-283790788D01*
X338358916Y-283758466D01*
X338316250Y-283703135D01*
X338310272Y-283633522D01*
X338342878Y-283571727D01*
X338344042Y-283570546D01*
X339782771Y-282131819D01*
X339844094Y-282098334D01*
X339870452Y-282095500D01*
X358916303Y-282095500D01*
X358916303Y-282095499D01*
X359017077Y-282075455D01*
X359017078Y-282075455D01*
X359037142Y-282071464D01*
X359037142Y-282071463D01*
X359037147Y-282071463D01*
X359037152Y-282071460D01*
X359037155Y-282071460D01*
X359070482Y-282057654D01*
X359070481Y-282057654D01*
X359070487Y-282057652D01*
X359150981Y-282024312D01*
X359202204Y-281990084D01*
X359253428Y-281955858D01*
X359340553Y-281868733D01*
X359340554Y-281868731D01*
X359347620Y-281861665D01*
X359347623Y-281861661D01*
X361153310Y-280055973D01*
X361214631Y-280022490D01*
X361284323Y-280027474D01*
X361333138Y-280060682D01*
X361344127Y-280072886D01*
X361344130Y-280072889D01*
X361497265Y-280184148D01*
X361497270Y-280184151D01*
X361670192Y-280261142D01*
X361670197Y-280261144D01*
X361855354Y-280300500D01*
X361914548Y-280300500D01*
X361981587Y-280320185D01*
X362002229Y-280336819D01*
X363478181Y-281812772D01*
X363511666Y-281874095D01*
X363514500Y-281900453D01*
X363514500Y-282213336D01*
X363514501Y-282213355D01*
X363524650Y-282312707D01*
X363524651Y-282312710D01*
X363577996Y-282473694D01*
X363578001Y-282473705D01*
X363667029Y-282618040D01*
X363667032Y-282618044D01*
X363786955Y-282737967D01*
X363786959Y-282737970D01*
X363931294Y-282826998D01*
X363931297Y-282826999D01*
X363931303Y-282827003D01*
X364092292Y-282880349D01*
X364191655Y-282890500D01*
X364788344Y-282890499D01*
X364788352Y-282890498D01*
X364788355Y-282890498D01*
X364842760Y-282884940D01*
X364887708Y-282880349D01*
X365048697Y-282827003D01*
X365193044Y-282737968D01*
X365312968Y-282618044D01*
X365402003Y-282473697D01*
X365455349Y-282312708D01*
X365465500Y-282213345D01*
X365465499Y-281666656D01*
X365455890Y-281572593D01*
X365455349Y-281567292D01*
X365455348Y-281567289D01*
X365453436Y-281561519D01*
X365402003Y-281406303D01*
X365401999Y-281406297D01*
X365401998Y-281406294D01*
X365312970Y-281261959D01*
X365312967Y-281261955D01*
X365303693Y-281252681D01*
X365270208Y-281191358D01*
X365275192Y-281121666D01*
X365303693Y-281077319D01*
X365312968Y-281068044D01*
X365402003Y-280923697D01*
X365455349Y-280762708D01*
X365465500Y-280663345D01*
X365465499Y-280350450D01*
X365485183Y-280283412D01*
X365501813Y-280262775D01*
X365688729Y-280075860D01*
X365688733Y-280075858D01*
X365775858Y-279988733D01*
X365844311Y-279886286D01*
X365844312Y-279886285D01*
X365844313Y-279886282D01*
X365844315Y-279886279D01*
X365860571Y-279847032D01*
X365891463Y-279772451D01*
X365915500Y-279651607D01*
X365915500Y-279528393D01*
X365915500Y-269978394D01*
X365891463Y-269857548D01*
X365882998Y-269837111D01*
X365863888Y-269790975D01*
X365844314Y-269743719D01*
X365844309Y-269743710D01*
X365827257Y-269718191D01*
X365827256Y-269718190D01*
X365775858Y-269641267D01*
X365775856Y-269641264D01*
X365685637Y-269551045D01*
X365685606Y-269551016D01*
X365501819Y-269367229D01*
X365468334Y-269305906D01*
X365465500Y-269279548D01*
X365465500Y-268983383D01*
X365461895Y-268943714D01*
X365459086Y-268912804D01*
X365408478Y-268750394D01*
X365320472Y-268604815D01*
X365320470Y-268604813D01*
X365320469Y-268604811D01*
X365288107Y-268572449D01*
X365254622Y-268511126D01*
X365259606Y-268441434D01*
X365268392Y-268422784D01*
X365317179Y-268338284D01*
X365375674Y-268158256D01*
X365395460Y-267970000D01*
X365375674Y-267781744D01*
X365317179Y-267601716D01*
X365222533Y-267437784D01*
X365095871Y-267297112D01*
X365071695Y-267279547D01*
X364942734Y-267185851D01*
X364942729Y-267185848D01*
X364769807Y-267108857D01*
X364769802Y-267108855D01*
X364624001Y-267077865D01*
X364584646Y-267069500D01*
X364395354Y-267069500D01*
X364362897Y-267076398D01*
X364210197Y-267108855D01*
X364210192Y-267108857D01*
X364037270Y-267185848D01*
X364037265Y-267185851D01*
X363884129Y-267297111D01*
X363757205Y-267438075D01*
X363697718Y-267474724D01*
X363627861Y-267473393D01*
X363577374Y-267442784D01*
X354957552Y-258822962D01*
X354924067Y-258761639D01*
X354929051Y-258691947D01*
X354961591Y-258647485D01*
X354959882Y-258645776D01*
X355067319Y-258538339D01*
X355128642Y-258504854D01*
X355198334Y-258509838D01*
X355242681Y-258538339D01*
X355344811Y-258640469D01*
X355344813Y-258640470D01*
X355344815Y-258640472D01*
X355490394Y-258728478D01*
X355652804Y-258779086D01*
X355723384Y-258785500D01*
X355723387Y-258785500D01*
X356236613Y-258785500D01*
X356236616Y-258785500D01*
X356307196Y-258779086D01*
X356469606Y-258728478D01*
X356615185Y-258640472D01*
X356735472Y-258520185D01*
X356750486Y-258495349D01*
X356802014Y-258448162D01*
X356856602Y-258435500D01*
X357436252Y-258435500D01*
X357503291Y-258455185D01*
X357528400Y-258476526D01*
X357534126Y-258482885D01*
X357534130Y-258482889D01*
X357687265Y-258594148D01*
X357687270Y-258594151D01*
X357860192Y-258671142D01*
X357860197Y-258671144D01*
X358045354Y-258710500D01*
X358045355Y-258710500D01*
X358234644Y-258710500D01*
X358234646Y-258710500D01*
X358419803Y-258671144D01*
X358592730Y-258594151D01*
X358745871Y-258482888D01*
X358872533Y-258342216D01*
X358967179Y-258178284D01*
X359025674Y-257998256D01*
X359045460Y-257810000D01*
X359025674Y-257621744D01*
X358967179Y-257441716D01*
X358872533Y-257277784D01*
X358745871Y-257137112D01*
X358745870Y-257137111D01*
X358592734Y-257025851D01*
X358592729Y-257025848D01*
X358419807Y-256948857D01*
X358419802Y-256948855D01*
X358274001Y-256917865D01*
X358234646Y-256909500D01*
X358045354Y-256909500D01*
X358012897Y-256916398D01*
X357860197Y-256948855D01*
X357860192Y-256948857D01*
X357687270Y-257025848D01*
X357687265Y-257025851D01*
X357534130Y-257137110D01*
X357534126Y-257137114D01*
X357528400Y-257143474D01*
X357468913Y-257180121D01*
X357436252Y-257184500D01*
X356856602Y-257184500D01*
X356789563Y-257164815D01*
X356750486Y-257124651D01*
X356735471Y-257099814D01*
X356735468Y-257099810D01*
X356641819Y-257006161D01*
X356608334Y-256944838D01*
X356605500Y-256918480D01*
X356605500Y-235268393D01*
X356605499Y-235268389D01*
X356581464Y-235147555D01*
X356581463Y-235147548D01*
X356534311Y-235033714D01*
X356534310Y-235033713D01*
X356534307Y-235033707D01*
X356465859Y-234931268D01*
X356465858Y-234931267D01*
X356378733Y-234844142D01*
X356378732Y-234844141D01*
X355268960Y-233734369D01*
X355235475Y-233673046D01*
X355233323Y-233659668D01*
X355218901Y-233522455D01*
X355231471Y-233453731D01*
X355279203Y-233402707D01*
X355342218Y-233385499D01*
X355639547Y-233385499D01*
X355706586Y-233405184D01*
X355727228Y-233421818D01*
X358748181Y-236442771D01*
X358781666Y-236504094D01*
X358784500Y-236530452D01*
X358784500Y-252031312D01*
X358764815Y-252098351D01*
X358752650Y-252114284D01*
X358677466Y-252197784D01*
X358582821Y-252361715D01*
X358582818Y-252361722D01*
X358524327Y-252541740D01*
X358524326Y-252541744D01*
X358504540Y-252730000D01*
X358524326Y-252918256D01*
X358524327Y-252918259D01*
X358582818Y-253098277D01*
X358582821Y-253098284D01*
X358677467Y-253262216D01*
X358722447Y-253312171D01*
X358804129Y-253402888D01*
X358957265Y-253514148D01*
X358957270Y-253514151D01*
X359130192Y-253591142D01*
X359130197Y-253591144D01*
X359315354Y-253630500D01*
X359315355Y-253630500D01*
X359504644Y-253630500D01*
X359504646Y-253630500D01*
X359689803Y-253591144D01*
X359862730Y-253514151D01*
X360015871Y-253402888D01*
X360142533Y-253262216D01*
X360237179Y-253098284D01*
X360295674Y-252918256D01*
X360315460Y-252730000D01*
X360295674Y-252541744D01*
X360237179Y-252361716D01*
X360142533Y-252197784D01*
X360067350Y-252114284D01*
X360037120Y-252051292D01*
X360035500Y-252031312D01*
X360035500Y-248909999D01*
X363134341Y-248909999D01*
X363134341Y-248910000D01*
X363154936Y-249145403D01*
X363154938Y-249145413D01*
X363216094Y-249373655D01*
X363216096Y-249373659D01*
X363216097Y-249373663D01*
X363252726Y-249452214D01*
X363315965Y-249587830D01*
X363315967Y-249587834D01*
X363451501Y-249781395D01*
X363451506Y-249781402D01*
X363618597Y-249948493D01*
X363618603Y-249948498D01*
X363804158Y-250078425D01*
X363847783Y-250133002D01*
X363854977Y-250202500D01*
X363823454Y-250264855D01*
X363804158Y-250281575D01*
X363618597Y-250411505D01*
X363451505Y-250578597D01*
X363315965Y-250772169D01*
X363315964Y-250772171D01*
X363216098Y-250986335D01*
X363216094Y-250986344D01*
X363154938Y-251214586D01*
X363154936Y-251214596D01*
X363134341Y-251449999D01*
X363134341Y-251450000D01*
X363154936Y-251685403D01*
X363154938Y-251685413D01*
X363216094Y-251913655D01*
X363216096Y-251913659D01*
X363216097Y-251913663D01*
X363252726Y-251992214D01*
X363315965Y-252127830D01*
X363315967Y-252127834D01*
X363451501Y-252321395D01*
X363451506Y-252321402D01*
X363618597Y-252488493D01*
X363618603Y-252488498D01*
X363804158Y-252618425D01*
X363847783Y-252673002D01*
X363854977Y-252742500D01*
X363823454Y-252804855D01*
X363804158Y-252821575D01*
X363618597Y-252951505D01*
X363451505Y-253118597D01*
X363315965Y-253312169D01*
X363315964Y-253312171D01*
X363216098Y-253526335D01*
X363216094Y-253526344D01*
X363154938Y-253754586D01*
X363154936Y-253754596D01*
X363134341Y-253989999D01*
X363134341Y-253990000D01*
X363154936Y-254225403D01*
X363154938Y-254225413D01*
X363216094Y-254453655D01*
X363216096Y-254453659D01*
X363216097Y-254453663D01*
X363315965Y-254667830D01*
X363315967Y-254667834D01*
X363424281Y-254822521D01*
X363451501Y-254861396D01*
X363451506Y-254861402D01*
X363573430Y-254983326D01*
X363606915Y-255044649D01*
X363601931Y-255114341D01*
X363560059Y-255170274D01*
X363529083Y-255187189D01*
X363397669Y-255236203D01*
X363397664Y-255236206D01*
X363282455Y-255322452D01*
X363282452Y-255322455D01*
X363196206Y-255437664D01*
X363196202Y-255437671D01*
X363145908Y-255572517D01*
X363139501Y-255632116D01*
X363139501Y-255632123D01*
X363139500Y-255632135D01*
X363139500Y-257427870D01*
X363139501Y-257427876D01*
X363145908Y-257487483D01*
X363196202Y-257622328D01*
X363196206Y-257622335D01*
X363282452Y-257737544D01*
X363282455Y-257737547D01*
X363397664Y-257823793D01*
X363397671Y-257823797D01*
X363532517Y-257874091D01*
X363532516Y-257874091D01*
X363539444Y-257874835D01*
X363592127Y-257880500D01*
X365387872Y-257880499D01*
X365447483Y-257874091D01*
X365582331Y-257823796D01*
X365697546Y-257737546D01*
X365783796Y-257622331D01*
X365834091Y-257487483D01*
X365840500Y-257427873D01*
X365840499Y-255632128D01*
X365834091Y-255572517D01*
X365783796Y-255437669D01*
X365783795Y-255437668D01*
X365783793Y-255437664D01*
X365697547Y-255322455D01*
X365697544Y-255322452D01*
X365582335Y-255236206D01*
X365582328Y-255236202D01*
X365450917Y-255187189D01*
X365394983Y-255145318D01*
X365370566Y-255079853D01*
X365385418Y-255011580D01*
X365406563Y-254983332D01*
X365528495Y-254861401D01*
X365664035Y-254667830D01*
X365763903Y-254453663D01*
X365825063Y-254225408D01*
X365845659Y-253990000D01*
X365825063Y-253754592D01*
X365763903Y-253526337D01*
X365664035Y-253312171D01*
X365629057Y-253262216D01*
X365528494Y-253118597D01*
X365361402Y-252951506D01*
X365361396Y-252951501D01*
X365175842Y-252821575D01*
X365132217Y-252766998D01*
X365125023Y-252697500D01*
X365156546Y-252635145D01*
X365175842Y-252618425D01*
X365198026Y-252602891D01*
X365361401Y-252488495D01*
X365528495Y-252321401D01*
X365664035Y-252127830D01*
X365763903Y-251913663D01*
X365825063Y-251685408D01*
X365845659Y-251450000D01*
X365825063Y-251214592D01*
X365763903Y-250986337D01*
X365664035Y-250772171D01*
X365629057Y-250722216D01*
X365528494Y-250578597D01*
X365361402Y-250411506D01*
X365361396Y-250411501D01*
X365175842Y-250281575D01*
X365132217Y-250226998D01*
X365125023Y-250157500D01*
X365156546Y-250095145D01*
X365175842Y-250078425D01*
X365198026Y-250062891D01*
X365361401Y-249948495D01*
X365528495Y-249781401D01*
X365664035Y-249587830D01*
X365763903Y-249373663D01*
X365825063Y-249145408D01*
X365845659Y-248910000D01*
X365825063Y-248674592D01*
X365763903Y-248446337D01*
X365664035Y-248232171D01*
X365629057Y-248182216D01*
X365528494Y-248038597D01*
X365361402Y-247871506D01*
X365361395Y-247871501D01*
X365167834Y-247735967D01*
X365167830Y-247735965D01*
X365167828Y-247735964D01*
X364953663Y-247636097D01*
X364953659Y-247636096D01*
X364953655Y-247636094D01*
X364725413Y-247574938D01*
X364725403Y-247574936D01*
X364490001Y-247554341D01*
X364489999Y-247554341D01*
X364254596Y-247574936D01*
X364254586Y-247574938D01*
X364026344Y-247636094D01*
X364026335Y-247636098D01*
X363812171Y-247735964D01*
X363812169Y-247735965D01*
X363618597Y-247871505D01*
X363451505Y-248038597D01*
X363315965Y-248232169D01*
X363315964Y-248232171D01*
X363216098Y-248446335D01*
X363216094Y-248446344D01*
X363154938Y-248674586D01*
X363154936Y-248674596D01*
X363134341Y-248909999D01*
X360035500Y-248909999D01*
X360035500Y-236287741D01*
X360035501Y-236287720D01*
X360035501Y-236158391D01*
X360011464Y-236037555D01*
X360011463Y-236037549D01*
X359964312Y-235923715D01*
X359895858Y-235821267D01*
X359895855Y-235821263D01*
X357609808Y-233535217D01*
X357576323Y-233473894D01*
X357581307Y-233404202D01*
X357623179Y-233348269D01*
X357658486Y-233329830D01*
X357683479Y-233321548D01*
X357683492Y-233321542D01*
X357827728Y-233232575D01*
X357827732Y-233232572D01*
X357947572Y-233112732D01*
X357947575Y-233112728D01*
X358036542Y-232968492D01*
X358036547Y-232968481D01*
X358089855Y-232807606D01*
X358099999Y-232708322D01*
X358100000Y-232708309D01*
X358100000Y-232660000D01*
X357024000Y-232660000D01*
X356956961Y-232640315D01*
X356911206Y-232587511D01*
X356900000Y-232536000D01*
X356900000Y-232160000D01*
X357400000Y-232160000D01*
X358099999Y-232160000D01*
X358099999Y-232111692D01*
X358099998Y-232111677D01*
X358089855Y-232012392D01*
X358036547Y-231851518D01*
X358036542Y-231851507D01*
X357947575Y-231707271D01*
X357947572Y-231707267D01*
X357827732Y-231587427D01*
X357827728Y-231587424D01*
X357683492Y-231498457D01*
X357683481Y-231498452D01*
X357522606Y-231445144D01*
X357423322Y-231435000D01*
X357400000Y-231435000D01*
X357400000Y-232160000D01*
X356900000Y-232160000D01*
X356900000Y-231434999D01*
X356876693Y-231435000D01*
X356876674Y-231435001D01*
X356777392Y-231445144D01*
X356616518Y-231498452D01*
X356616507Y-231498457D01*
X356472271Y-231587424D01*
X356472265Y-231587428D01*
X356463031Y-231596663D01*
X356401707Y-231630146D01*
X356332015Y-231625159D01*
X356287672Y-231596660D01*
X356278044Y-231587032D01*
X356278040Y-231587029D01*
X356133705Y-231498001D01*
X356133699Y-231497998D01*
X356133697Y-231497997D01*
X356133694Y-231497996D01*
X355972709Y-231444651D01*
X355873346Y-231434500D01*
X355326662Y-231434500D01*
X355326644Y-231434501D01*
X355227292Y-231444650D01*
X355227289Y-231444651D01*
X355066305Y-231497996D01*
X355066294Y-231498001D01*
X354921959Y-231587029D01*
X354921953Y-231587033D01*
X354912464Y-231596523D01*
X354851140Y-231630006D01*
X354781448Y-231625019D01*
X354774350Y-231622118D01*
X354609807Y-231548857D01*
X354609802Y-231548855D01*
X354464001Y-231517865D01*
X354424646Y-231509500D01*
X354235354Y-231509500D01*
X354202897Y-231516398D01*
X354050197Y-231548855D01*
X354050192Y-231548857D01*
X353877270Y-231625848D01*
X353877265Y-231625851D01*
X353724129Y-231737111D01*
X353597466Y-231877785D01*
X353502821Y-232041715D01*
X353502818Y-232041722D01*
X353444327Y-232221740D01*
X353444326Y-232221744D01*
X353424540Y-232410000D01*
X353444326Y-232598256D01*
X353444327Y-232598259D01*
X353502818Y-232778277D01*
X353502821Y-232778284D01*
X353597467Y-232942216D01*
X353607806Y-232953699D01*
X353615307Y-232962030D01*
X353645535Y-233025022D01*
X353636909Y-233094357D01*
X353615307Y-233127970D01*
X353597466Y-233147785D01*
X353502821Y-233311715D01*
X353502818Y-233311722D01*
X353444327Y-233491740D01*
X353444326Y-233491744D01*
X353424540Y-233680000D01*
X353444326Y-233868256D01*
X353444327Y-233868259D01*
X353502818Y-234048277D01*
X353502821Y-234048284D01*
X353597467Y-234212216D01*
X353724129Y-234352888D01*
X353877265Y-234464148D01*
X353877270Y-234464151D01*
X354050192Y-234541142D01*
X354050197Y-234541144D01*
X354235354Y-234580500D01*
X354294548Y-234580500D01*
X354361587Y-234600185D01*
X354382229Y-234616819D01*
X355318181Y-235552771D01*
X355351666Y-235614094D01*
X355354500Y-235640452D01*
X355354500Y-256918480D01*
X355334815Y-256985519D01*
X355318181Y-257006161D01*
X355242681Y-257081661D01*
X355181358Y-257115146D01*
X355111666Y-257110162D01*
X355067319Y-257081661D01*
X354965188Y-256979530D01*
X354955499Y-256973673D01*
X354819606Y-256891522D01*
X354657196Y-256840914D01*
X354657194Y-256840913D01*
X354657192Y-256840913D01*
X354607778Y-256836423D01*
X354586616Y-256834500D01*
X354586613Y-256834500D01*
X354290452Y-256834500D01*
X354223413Y-256814815D01*
X354202771Y-256798181D01*
X353998960Y-256594370D01*
X353965475Y-256533047D01*
X353963323Y-256519671D01*
X353945674Y-256351744D01*
X353887179Y-256171716D01*
X353792533Y-256007784D01*
X353665871Y-255867112D01*
X353665870Y-255867111D01*
X353512734Y-255755851D01*
X353512729Y-255755848D01*
X353339807Y-255678857D01*
X353339802Y-255678855D01*
X353194001Y-255647865D01*
X353154646Y-255639500D01*
X352965354Y-255639500D01*
X352932897Y-255646398D01*
X352780197Y-255678855D01*
X352780192Y-255678857D01*
X352607270Y-255755848D01*
X352607265Y-255755851D01*
X352454129Y-255867111D01*
X352327205Y-256008075D01*
X352267718Y-256044724D01*
X352197861Y-256043393D01*
X352147374Y-256012784D01*
X348641819Y-252507229D01*
X348608334Y-252445906D01*
X348605500Y-252419548D01*
X348605500Y-236220000D01*
X350884540Y-236220000D01*
X350904326Y-236408256D01*
X350904327Y-236408259D01*
X350962818Y-236588277D01*
X350962821Y-236588284D01*
X351057467Y-236752216D01*
X351100772Y-236800310D01*
X351132650Y-236835715D01*
X351162880Y-236898706D01*
X351164500Y-236918687D01*
X351164500Y-246951312D01*
X351144815Y-247018351D01*
X351132650Y-247034284D01*
X351057466Y-247117784D01*
X350962821Y-247281715D01*
X350962818Y-247281722D01*
X350904327Y-247461740D01*
X350904326Y-247461744D01*
X350884540Y-247650000D01*
X350904326Y-247838256D01*
X350904327Y-247838259D01*
X350962818Y-248018277D01*
X350962821Y-248018284D01*
X351057467Y-248182216D01*
X351184129Y-248322888D01*
X351337265Y-248434148D01*
X351337270Y-248434151D01*
X351510192Y-248511142D01*
X351510197Y-248511144D01*
X351695354Y-248550500D01*
X351695355Y-248550500D01*
X351884644Y-248550500D01*
X351884646Y-248550500D01*
X352069803Y-248511144D01*
X352242730Y-248434151D01*
X352352117Y-248354676D01*
X352417920Y-248331198D01*
X352485974Y-248347023D01*
X352497871Y-248354668D01*
X352607266Y-248434148D01*
X352607270Y-248434151D01*
X352780192Y-248511142D01*
X352780197Y-248511144D01*
X352965354Y-248550500D01*
X352965355Y-248550500D01*
X353154644Y-248550500D01*
X353154646Y-248550500D01*
X353339803Y-248511144D01*
X353512730Y-248434151D01*
X353665871Y-248322888D01*
X353792533Y-248182216D01*
X353887179Y-248018284D01*
X353945674Y-247838256D01*
X353965460Y-247650000D01*
X353945674Y-247461744D01*
X353887179Y-247281716D01*
X353792533Y-247117784D01*
X353772634Y-247095684D01*
X353717350Y-247034284D01*
X353687120Y-246971292D01*
X353685500Y-246951312D01*
X353685500Y-236918687D01*
X353705185Y-236851648D01*
X353717350Y-236835715D01*
X353735891Y-236815122D01*
X353792533Y-236752216D01*
X353887179Y-236588284D01*
X353945674Y-236408256D01*
X353965460Y-236220000D01*
X353945674Y-236031744D01*
X353887179Y-235851716D01*
X353792533Y-235687784D01*
X353665871Y-235547112D01*
X353654432Y-235538801D01*
X353512734Y-235435851D01*
X353512729Y-235435848D01*
X353339807Y-235358857D01*
X353339802Y-235358855D01*
X353194001Y-235327865D01*
X353154646Y-235319500D01*
X352965354Y-235319500D01*
X352932897Y-235326398D01*
X352780197Y-235358855D01*
X352780192Y-235358857D01*
X352607270Y-235435848D01*
X352607265Y-235435851D01*
X352497885Y-235515321D01*
X352432079Y-235538801D01*
X352364025Y-235522975D01*
X352352115Y-235515321D01*
X352242734Y-235435851D01*
X352242729Y-235435848D01*
X352069807Y-235358857D01*
X352069802Y-235358855D01*
X351924001Y-235327865D01*
X351884646Y-235319500D01*
X351695354Y-235319500D01*
X351662897Y-235326398D01*
X351510197Y-235358855D01*
X351510192Y-235358857D01*
X351337270Y-235435848D01*
X351337265Y-235435851D01*
X351184129Y-235547111D01*
X351057466Y-235687785D01*
X350962821Y-235851715D01*
X350962818Y-235851722D01*
X350904327Y-236031740D01*
X350904326Y-236031744D01*
X350884540Y-236220000D01*
X348605500Y-236220000D01*
X348605500Y-229870000D01*
X353424540Y-229870000D01*
X353444326Y-230058256D01*
X353444327Y-230058259D01*
X353502818Y-230238277D01*
X353502821Y-230238284D01*
X353597467Y-230402216D01*
X353724129Y-230542888D01*
X353877265Y-230654148D01*
X353877270Y-230654151D01*
X354050192Y-230731142D01*
X354050197Y-230731144D01*
X354235354Y-230770500D01*
X354235355Y-230770500D01*
X354424644Y-230770500D01*
X354424646Y-230770500D01*
X354609803Y-230731144D01*
X354774353Y-230657880D01*
X354843599Y-230648595D01*
X354906876Y-230678223D01*
X354912467Y-230683479D01*
X354921955Y-230692967D01*
X354921959Y-230692970D01*
X355066294Y-230781998D01*
X355066297Y-230781999D01*
X355066303Y-230782003D01*
X355227292Y-230835349D01*
X355326655Y-230845500D01*
X355873344Y-230845499D01*
X355873352Y-230845498D01*
X355873355Y-230845498D01*
X355927760Y-230839940D01*
X355972708Y-230835349D01*
X356133697Y-230782003D01*
X356278044Y-230692968D01*
X356287668Y-230683343D01*
X356348987Y-230649856D01*
X356418679Y-230654835D01*
X356463034Y-230683339D01*
X356472267Y-230692572D01*
X356472271Y-230692575D01*
X356616507Y-230781542D01*
X356616518Y-230781547D01*
X356777393Y-230834855D01*
X356876683Y-230844999D01*
X357400000Y-230844999D01*
X357423308Y-230844999D01*
X357423322Y-230844998D01*
X357522607Y-230834855D01*
X357683481Y-230781547D01*
X357683492Y-230781542D01*
X357827728Y-230692575D01*
X357827732Y-230692572D01*
X357947572Y-230572732D01*
X357947575Y-230572728D01*
X358036542Y-230428492D01*
X358036547Y-230428481D01*
X358089855Y-230267606D01*
X358099999Y-230168322D01*
X358100000Y-230168309D01*
X358100000Y-230120000D01*
X357400000Y-230120000D01*
X357400000Y-230844999D01*
X356876683Y-230844999D01*
X356900000Y-230844998D01*
X356900000Y-229620000D01*
X357400000Y-229620000D01*
X358099999Y-229620000D01*
X358099999Y-229571692D01*
X358099998Y-229571677D01*
X358089855Y-229472392D01*
X358036547Y-229311518D01*
X358036542Y-229311507D01*
X357947575Y-229167271D01*
X357947572Y-229167267D01*
X357827732Y-229047427D01*
X357827728Y-229047424D01*
X357683492Y-228958457D01*
X357683481Y-228958452D01*
X357522606Y-228905144D01*
X357423322Y-228895000D01*
X357400000Y-228895000D01*
X357400000Y-229620000D01*
X356900000Y-229620000D01*
X356900000Y-228894999D01*
X356876693Y-228895000D01*
X356876674Y-228895001D01*
X356777392Y-228905144D01*
X356616518Y-228958452D01*
X356616507Y-228958457D01*
X356472271Y-229047424D01*
X356472265Y-229047428D01*
X356463031Y-229056663D01*
X356401707Y-229090146D01*
X356332015Y-229085159D01*
X356287672Y-229056660D01*
X356278044Y-229047032D01*
X356278040Y-229047029D01*
X356133705Y-228958001D01*
X356133699Y-228957998D01*
X356133697Y-228957997D01*
X356133694Y-228957996D01*
X355972709Y-228904651D01*
X355873346Y-228894500D01*
X355326662Y-228894500D01*
X355326644Y-228894501D01*
X355227292Y-228904650D01*
X355227289Y-228904651D01*
X355066305Y-228957996D01*
X355066294Y-228958001D01*
X354921959Y-229047029D01*
X354921953Y-229047033D01*
X354912464Y-229056523D01*
X354851140Y-229090006D01*
X354781448Y-229085019D01*
X354774350Y-229082118D01*
X354609807Y-229008857D01*
X354609802Y-229008855D01*
X354447045Y-228974261D01*
X354424646Y-228969500D01*
X354235354Y-228969500D01*
X354212955Y-228974261D01*
X354050197Y-229008855D01*
X354050192Y-229008857D01*
X353877270Y-229085848D01*
X353877265Y-229085851D01*
X353724129Y-229197111D01*
X353597466Y-229337785D01*
X353502821Y-229501715D01*
X353502818Y-229501722D01*
X353444327Y-229681740D01*
X353444326Y-229681744D01*
X353424540Y-229870000D01*
X348605500Y-229870000D01*
X348605500Y-224408185D01*
X348625185Y-224341146D01*
X348677989Y-224295391D01*
X348747147Y-224285447D01*
X348790373Y-224303087D01*
X348791637Y-224300899D01*
X348797270Y-224304151D01*
X348970192Y-224381142D01*
X348970197Y-224381144D01*
X349155354Y-224420500D01*
X349155355Y-224420500D01*
X349344644Y-224420500D01*
X349344646Y-224420500D01*
X349529803Y-224381144D01*
X349702730Y-224304151D01*
X349812117Y-224224676D01*
X349877920Y-224201198D01*
X349945974Y-224217023D01*
X349957871Y-224224668D01*
X350041526Y-224285447D01*
X350067270Y-224304151D01*
X350240192Y-224381142D01*
X350240197Y-224381144D01*
X350425354Y-224420500D01*
X350425355Y-224420500D01*
X350614644Y-224420500D01*
X350614646Y-224420500D01*
X350799803Y-224381144D01*
X350972730Y-224304151D01*
X351125871Y-224192888D01*
X351252533Y-224052216D01*
X351347179Y-223888284D01*
X351405674Y-223708256D01*
X351425460Y-223520000D01*
X351405674Y-223331744D01*
X351347179Y-223151716D01*
X351252533Y-222987784D01*
X351125871Y-222847112D01*
X351125870Y-222847111D01*
X350972734Y-222735851D01*
X350972729Y-222735848D01*
X350799807Y-222658857D01*
X350799802Y-222658855D01*
X350654001Y-222627865D01*
X350614646Y-222619500D01*
X350614645Y-222619500D01*
X350555453Y-222619500D01*
X350488414Y-222599815D01*
X350467772Y-222583181D01*
X348472928Y-220588338D01*
X348472925Y-220588334D01*
X348472925Y-220588335D01*
X348465858Y-220581268D01*
X348465858Y-220581267D01*
X348378733Y-220494142D01*
X348378732Y-220494141D01*
X348378731Y-220494140D01*
X348327509Y-220459915D01*
X348276287Y-220425689D01*
X348276286Y-220425688D01*
X348276283Y-220425686D01*
X348276280Y-220425685D01*
X348195792Y-220392347D01*
X348162453Y-220378537D01*
X348152427Y-220376543D01*
X348102029Y-220366518D01*
X348041610Y-220354500D01*
X348041607Y-220354500D01*
X348041606Y-220354500D01*
X316540452Y-220354500D01*
X316473413Y-220334815D01*
X316452771Y-220318181D01*
X306731819Y-210597229D01*
X306698334Y-210535906D01*
X306695500Y-210509548D01*
X306695500Y-210248687D01*
X306715185Y-210181648D01*
X306727350Y-210165715D01*
X306745891Y-210145122D01*
X306802533Y-210082216D01*
X306897179Y-209918284D01*
X306955674Y-209738256D01*
X306975460Y-209550000D01*
X306962712Y-209428712D01*
X313699500Y-209428712D01*
X313699500Y-209671288D01*
X313731162Y-209911789D01*
X313732902Y-209918284D01*
X313793947Y-210146104D01*
X313886773Y-210370205D01*
X313886777Y-210370214D01*
X313905871Y-210403285D01*
X314008064Y-210580289D01*
X314008066Y-210580292D01*
X314008067Y-210580293D01*
X314155733Y-210772736D01*
X314155739Y-210772743D01*
X314327256Y-210944260D01*
X314327262Y-210944265D01*
X314519711Y-211091936D01*
X314729788Y-211213224D01*
X314953900Y-211306054D01*
X315188211Y-211368838D01*
X315368586Y-211392584D01*
X315428711Y-211400500D01*
X315428712Y-211400500D01*
X315671289Y-211400500D01*
X315719388Y-211394167D01*
X315911789Y-211368838D01*
X316146100Y-211306054D01*
X316370212Y-211213224D01*
X316580289Y-211091936D01*
X316772738Y-210944265D01*
X316944265Y-210772738D01*
X317091936Y-210580289D01*
X317213224Y-210370212D01*
X317306054Y-210146100D01*
X317368838Y-209911789D01*
X317400500Y-209671288D01*
X317400500Y-209428712D01*
X317368838Y-209188211D01*
X317306054Y-208953900D01*
X317213224Y-208729788D01*
X317091936Y-208519711D01*
X316944265Y-208327262D01*
X316944260Y-208327256D01*
X316772743Y-208155739D01*
X316772736Y-208155733D01*
X316580293Y-208008067D01*
X316580292Y-208008066D01*
X316580289Y-208008064D01*
X316370212Y-207886776D01*
X316370205Y-207886773D01*
X316146104Y-207793947D01*
X315911785Y-207731161D01*
X315671289Y-207699500D01*
X315671288Y-207699500D01*
X315428712Y-207699500D01*
X315428711Y-207699500D01*
X315188214Y-207731161D01*
X314953895Y-207793947D01*
X314729794Y-207886773D01*
X314729785Y-207886777D01*
X314519706Y-208008067D01*
X314327263Y-208155733D01*
X314327256Y-208155739D01*
X314155739Y-208327256D01*
X314155733Y-208327263D01*
X314008067Y-208519706D01*
X313886777Y-208729785D01*
X313886773Y-208729794D01*
X313793947Y-208953895D01*
X313731161Y-209188214D01*
X313708317Y-209361740D01*
X313699500Y-209428712D01*
X306962712Y-209428712D01*
X306955674Y-209361744D01*
X306897179Y-209181716D01*
X306802533Y-209017784D01*
X306675871Y-208877112D01*
X306675870Y-208877111D01*
X306522734Y-208765851D01*
X306522729Y-208765848D01*
X306349807Y-208688857D01*
X306349802Y-208688855D01*
X306204001Y-208657865D01*
X306164646Y-208649500D01*
X305975354Y-208649500D01*
X305942897Y-208656398D01*
X305790197Y-208688855D01*
X305790192Y-208688857D01*
X305617270Y-208765848D01*
X305617265Y-208765851D01*
X305464129Y-208877111D01*
X305337466Y-209017785D01*
X305242821Y-209181715D01*
X305242818Y-209181722D01*
X305184327Y-209361740D01*
X305184326Y-209361744D01*
X305164540Y-209550000D01*
X305184326Y-209738256D01*
X305184327Y-209738259D01*
X305242818Y-209918277D01*
X305242821Y-209918284D01*
X305337467Y-210082216D01*
X305380772Y-210130310D01*
X305412650Y-210165715D01*
X305442880Y-210228706D01*
X305444500Y-210248687D01*
X305444500Y-210280547D01*
X305424815Y-210347586D01*
X305372011Y-210393341D01*
X305302853Y-210403285D01*
X305239297Y-210374260D01*
X305232819Y-210368228D01*
X304468960Y-209604370D01*
X304435475Y-209543047D01*
X304433323Y-209529671D01*
X304415674Y-209361744D01*
X304357179Y-209181716D01*
X304262533Y-209017784D01*
X304135871Y-208877112D01*
X304135870Y-208877111D01*
X303982734Y-208765851D01*
X303982729Y-208765848D01*
X303809807Y-208688857D01*
X303809802Y-208688855D01*
X303664001Y-208657865D01*
X303624646Y-208649500D01*
X303435354Y-208649500D01*
X303402897Y-208656398D01*
X303250197Y-208688855D01*
X303250192Y-208688857D01*
X303077270Y-208765848D01*
X303077265Y-208765851D01*
X302924129Y-208877111D01*
X302797466Y-209017785D01*
X302702821Y-209181715D01*
X302702818Y-209181722D01*
X302644327Y-209361740D01*
X302644326Y-209361744D01*
X302624540Y-209550000D01*
X302644326Y-209738256D01*
X302644327Y-209738259D01*
X302702818Y-209918277D01*
X302702821Y-209918284D01*
X302797467Y-210082216D01*
X302872650Y-210165715D01*
X302924129Y-210222888D01*
X303077265Y-210334148D01*
X303077270Y-210334151D01*
X303250192Y-210411142D01*
X303250197Y-210411144D01*
X303435354Y-210450500D01*
X303494548Y-210450500D01*
X303561587Y-210470185D01*
X303582229Y-210486819D01*
X316376263Y-223280855D01*
X316376267Y-223280858D01*
X316478710Y-223349309D01*
X316478711Y-223349309D01*
X316478715Y-223349312D01*
X316545396Y-223376931D01*
X316545398Y-223376933D01*
X316592543Y-223396461D01*
X316592548Y-223396463D01*
X316612597Y-223400451D01*
X316646196Y-223407134D01*
X316713392Y-223420501D01*
X316713394Y-223420501D01*
X316842721Y-223420501D01*
X316842741Y-223420500D01*
X346952432Y-223420500D01*
X347019471Y-223440185D01*
X347065226Y-223492989D01*
X347075752Y-223531535D01*
X347094326Y-223708256D01*
X347094327Y-223708259D01*
X347152818Y-223888277D01*
X347152821Y-223888284D01*
X347247467Y-224052216D01*
X347290772Y-224100310D01*
X347322650Y-224135715D01*
X347352880Y-224198706D01*
X347354500Y-224218687D01*
X347354500Y-226441814D01*
X347334815Y-226508853D01*
X347282011Y-226554608D01*
X347212853Y-226564552D01*
X347169572Y-226547005D01*
X347168363Y-226549101D01*
X347162729Y-226545848D01*
X346989807Y-226468857D01*
X346989802Y-226468855D01*
X346844001Y-226437865D01*
X346804646Y-226429500D01*
X346615354Y-226429500D01*
X346582897Y-226436398D01*
X346430197Y-226468855D01*
X346430192Y-226468857D01*
X346257270Y-226545848D01*
X346257265Y-226545851D01*
X346147885Y-226625321D01*
X346082079Y-226648801D01*
X346014025Y-226632975D01*
X346002115Y-226625321D01*
X345892734Y-226545851D01*
X345892729Y-226545848D01*
X345719807Y-226468857D01*
X345719802Y-226468855D01*
X345574001Y-226437865D01*
X345534646Y-226429500D01*
X345345354Y-226429500D01*
X345312897Y-226436398D01*
X345160197Y-226468855D01*
X345160192Y-226468857D01*
X344987270Y-226545848D01*
X344987265Y-226545851D01*
X344834129Y-226657111D01*
X344707466Y-226797785D01*
X344612821Y-226961715D01*
X344612818Y-226961722D01*
X344554327Y-227141740D01*
X344554326Y-227141744D01*
X344534540Y-227330000D01*
X344554326Y-227518256D01*
X344554327Y-227518259D01*
X344612818Y-227698277D01*
X344612821Y-227698284D01*
X344707467Y-227862216D01*
X344750772Y-227910310D01*
X344782650Y-227945715D01*
X344812880Y-228008706D01*
X344814500Y-228028687D01*
X344814500Y-228661611D01*
X344838535Y-228782444D01*
X344838540Y-228782461D01*
X344885685Y-228896280D01*
X344885687Y-228896283D01*
X344885688Y-228896286D01*
X344891277Y-228904651D01*
X344919914Y-228947507D01*
X344919915Y-228947509D01*
X344954141Y-228998733D01*
X345045586Y-229090178D01*
X345045608Y-229090198D01*
X346048181Y-230092771D01*
X346081666Y-230154094D01*
X346084500Y-230180452D01*
X346084500Y-239141814D01*
X346064815Y-239208853D01*
X346012011Y-239254608D01*
X345942853Y-239264552D01*
X345899572Y-239247005D01*
X345898363Y-239249101D01*
X345892729Y-239245848D01*
X345719807Y-239168857D01*
X345719802Y-239168855D01*
X345574001Y-239137865D01*
X345534646Y-239129500D01*
X345345354Y-239129500D01*
X345312897Y-239136398D01*
X345160197Y-239168855D01*
X345160192Y-239168857D01*
X344987270Y-239245848D01*
X344987265Y-239245851D01*
X344834129Y-239357111D01*
X344707466Y-239497785D01*
X344612821Y-239661715D01*
X344612818Y-239661722D01*
X344554327Y-239841740D01*
X344554326Y-239841744D01*
X344534540Y-240030000D01*
X344554326Y-240218256D01*
X344554327Y-240218259D01*
X344612818Y-240398277D01*
X344612821Y-240398284D01*
X344707467Y-240562216D01*
X344834129Y-240702888D01*
X344987265Y-240814148D01*
X344987267Y-240814149D01*
X344987270Y-240814151D01*
X345020936Y-240829140D01*
X345074173Y-240874390D01*
X345094494Y-240941239D01*
X345094500Y-240942419D01*
X345094500Y-244185452D01*
X345074815Y-244252491D01*
X345047415Y-244282715D01*
X345041954Y-244287032D01*
X345032324Y-244296663D01*
X344971000Y-244330146D01*
X344901308Y-244325159D01*
X344856965Y-244296660D01*
X344847732Y-244287427D01*
X344847728Y-244287424D01*
X344703492Y-244198457D01*
X344703481Y-244198452D01*
X344542606Y-244145144D01*
X344443322Y-244135000D01*
X344420000Y-244135000D01*
X344420000Y-246084999D01*
X344443308Y-246084999D01*
X344443322Y-246084998D01*
X344542607Y-246074855D01*
X344703481Y-246021547D01*
X344703492Y-246021542D01*
X344847731Y-245932573D01*
X344856959Y-245923345D01*
X344918279Y-245889856D01*
X344987971Y-245894835D01*
X345032327Y-245923339D01*
X345041955Y-245932967D01*
X345041959Y-245932970D01*
X345186294Y-246021998D01*
X345186297Y-246021999D01*
X345186303Y-246022003D01*
X345347292Y-246075349D01*
X345446655Y-246085500D01*
X345960500Y-246085499D01*
X346027539Y-246105183D01*
X346073294Y-246157987D01*
X346084500Y-246209499D01*
X346084500Y-265811814D01*
X346064815Y-265878853D01*
X346012011Y-265924608D01*
X345942853Y-265934552D01*
X345899572Y-265917005D01*
X345898363Y-265919101D01*
X345892729Y-265915848D01*
X345719807Y-265838857D01*
X345719802Y-265838855D01*
X345574001Y-265807865D01*
X345534646Y-265799500D01*
X345345354Y-265799500D01*
X345312897Y-265806398D01*
X345160197Y-265838855D01*
X345160192Y-265838857D01*
X344987270Y-265915848D01*
X344987265Y-265915851D01*
X344834129Y-266027111D01*
X344707466Y-266167785D01*
X344612821Y-266331715D01*
X344612818Y-266331722D01*
X344572248Y-266456586D01*
X344554326Y-266511744D01*
X344549245Y-266560090D01*
X344536678Y-266679651D01*
X344510093Y-266744266D01*
X344501038Y-266754370D01*
X320194229Y-291061181D01*
X320132906Y-291094666D01*
X320106548Y-291097500D01*
X274844750Y-291097500D01*
X274777711Y-291077815D01*
X274731956Y-291025011D01*
X274722012Y-290955853D01*
X274751037Y-290892297D01*
X274757069Y-290885819D01*
X279812452Y-285830436D01*
X283922477Y-281720411D01*
X288552499Y-281720411D01*
X288581820Y-281867813D01*
X288581823Y-281867823D01*
X288639334Y-282006669D01*
X288639341Y-282006682D01*
X288722838Y-282131643D01*
X288722841Y-282131647D01*
X296892300Y-290301106D01*
X296892304Y-290301109D01*
X297017265Y-290384606D01*
X297017269Y-290384608D01*
X297017272Y-290384610D01*
X297156129Y-290442127D01*
X297303534Y-290471447D01*
X297303538Y-290471448D01*
X297303539Y-290471448D01*
X318696703Y-290471448D01*
X318795872Y-290451721D01*
X318844111Y-290442126D01*
X318982968Y-290384610D01*
X319107936Y-290301109D01*
X322755220Y-286653823D01*
X322816541Y-286620340D01*
X322816736Y-286620297D01*
X322859803Y-286611144D01*
X322859807Y-286611142D01*
X322859808Y-286611142D01*
X322993301Y-286551706D01*
X323032730Y-286534151D01*
X323185871Y-286422888D01*
X323312533Y-286282216D01*
X323407179Y-286118284D01*
X323465674Y-285938256D01*
X323485460Y-285750000D01*
X323465674Y-285561744D01*
X323407179Y-285381716D01*
X323312533Y-285217784D01*
X323185871Y-285077112D01*
X323180677Y-285073338D01*
X323032734Y-284965851D01*
X323032729Y-284965848D01*
X322859807Y-284888857D01*
X322859802Y-284888855D01*
X322714001Y-284857865D01*
X322674646Y-284849500D01*
X322485354Y-284849500D01*
X322452897Y-284856398D01*
X322300197Y-284888855D01*
X322300192Y-284888857D01*
X322127270Y-284965848D01*
X322127265Y-284965851D01*
X322017885Y-285045321D01*
X321952079Y-285068801D01*
X321884025Y-285052975D01*
X321872115Y-285045321D01*
X321762734Y-284965851D01*
X321762729Y-284965848D01*
X321589807Y-284888857D01*
X321589802Y-284888855D01*
X321444001Y-284857865D01*
X321404646Y-284849500D01*
X321215354Y-284849500D01*
X321182897Y-284856398D01*
X321030197Y-284888855D01*
X321030192Y-284888857D01*
X320857270Y-284965848D01*
X320857265Y-284965851D01*
X320747885Y-285045321D01*
X320682079Y-285068801D01*
X320614025Y-285052975D01*
X320602115Y-285045321D01*
X320492734Y-284965851D01*
X320492729Y-284965848D01*
X320319807Y-284888857D01*
X320319802Y-284888855D01*
X320174001Y-284857865D01*
X320134646Y-284849500D01*
X319945354Y-284849500D01*
X319912897Y-284856398D01*
X319760197Y-284888855D01*
X319760192Y-284888857D01*
X319587270Y-284965848D01*
X319587265Y-284965851D01*
X319434129Y-285077111D01*
X319307466Y-285217785D01*
X319212821Y-285381715D01*
X319212820Y-285381717D01*
X319165985Y-285525857D01*
X319135735Y-285575218D01*
X317220274Y-287490681D01*
X317158951Y-287524166D01*
X317132593Y-287527000D01*
X300087407Y-287527000D01*
X300020368Y-287507315D01*
X299999726Y-287490681D01*
X297542367Y-285033322D01*
X301285001Y-285033322D01*
X301295144Y-285132607D01*
X301348452Y-285293481D01*
X301348457Y-285293492D01*
X301437424Y-285437728D01*
X301437427Y-285437732D01*
X301557267Y-285557572D01*
X301557271Y-285557575D01*
X301701507Y-285646542D01*
X301701518Y-285646547D01*
X301862393Y-285699855D01*
X301961683Y-285709999D01*
X302009999Y-285709998D01*
X302010000Y-285709998D01*
X302010000Y-285010000D01*
X301285001Y-285010000D01*
X301285001Y-285033322D01*
X297542367Y-285033322D01*
X295445692Y-282936647D01*
X301284500Y-282936647D01*
X301284500Y-283483337D01*
X301284501Y-283483355D01*
X301294650Y-283582707D01*
X301294651Y-283582710D01*
X301347996Y-283743694D01*
X301348001Y-283743705D01*
X301437029Y-283888040D01*
X301437032Y-283888044D01*
X301446660Y-283897672D01*
X301480145Y-283958995D01*
X301475161Y-284028687D01*
X301446663Y-284073031D01*
X301437428Y-284082265D01*
X301437424Y-284082271D01*
X301348457Y-284226507D01*
X301348452Y-284226518D01*
X301295144Y-284387393D01*
X301285000Y-284486677D01*
X301285000Y-284510000D01*
X302386000Y-284510000D01*
X302453039Y-284529685D01*
X302498794Y-284582489D01*
X302510000Y-284634000D01*
X302510000Y-285709999D01*
X302558308Y-285709999D01*
X302558322Y-285709998D01*
X302657607Y-285699855D01*
X302818481Y-285646547D01*
X302818492Y-285646542D01*
X302962728Y-285557575D01*
X302962732Y-285557572D01*
X303082572Y-285437732D01*
X303082575Y-285437728D01*
X303171542Y-285293492D01*
X303171545Y-285293484D01*
X303179829Y-285268486D01*
X303219601Y-285211041D01*
X303284116Y-285184216D01*
X303352892Y-285196530D01*
X303385217Y-285219807D01*
X305111016Y-286945606D01*
X305111045Y-286945637D01*
X305201263Y-287035855D01*
X305201267Y-287035858D01*
X305303707Y-287104307D01*
X305303711Y-287104309D01*
X305303714Y-287104311D01*
X305417548Y-287151463D01*
X305477971Y-287163481D01*
X305538393Y-287175500D01*
X306981607Y-287175500D01*
X307042029Y-287163481D01*
X307102452Y-287151463D01*
X307102455Y-287151461D01*
X307102458Y-287151461D01*
X307135787Y-287137654D01*
X307135786Y-287137654D01*
X307135792Y-287137652D01*
X307216286Y-287104312D01*
X307267509Y-287070084D01*
X307272052Y-287067049D01*
X307280271Y-287061556D01*
X307318733Y-287035858D01*
X307405858Y-286948733D01*
X307405860Y-286948729D01*
X307592772Y-286761816D01*
X307654095Y-286728334D01*
X307680452Y-286725500D01*
X307976613Y-286725500D01*
X307976616Y-286725500D01*
X308047196Y-286719086D01*
X308209606Y-286668478D01*
X308355185Y-286580472D01*
X308475472Y-286460185D01*
X308563478Y-286314606D01*
X308614086Y-286152196D01*
X308620500Y-286081616D01*
X308620500Y-285418384D01*
X308614086Y-285347804D01*
X308563478Y-285185394D01*
X308475472Y-285039815D01*
X308475470Y-285039813D01*
X308475469Y-285039811D01*
X308381819Y-284946161D01*
X308348334Y-284884838D01*
X308345500Y-284858480D01*
X308345500Y-284101519D01*
X308365185Y-284034480D01*
X308381814Y-284013842D01*
X308475472Y-283920185D01*
X308563478Y-283774606D01*
X308614086Y-283612196D01*
X308620500Y-283541616D01*
X308620500Y-282878384D01*
X308614086Y-282807804D01*
X308563478Y-282645394D01*
X308475472Y-282499815D01*
X308475470Y-282499813D01*
X308475469Y-282499811D01*
X308381819Y-282406161D01*
X308348334Y-282344838D01*
X308345500Y-282318480D01*
X308345500Y-281561519D01*
X308365185Y-281494480D01*
X308381814Y-281473842D01*
X308475472Y-281380185D01*
X308563478Y-281234606D01*
X308614086Y-281072196D01*
X308620500Y-281001616D01*
X308620500Y-280338384D01*
X308614086Y-280267804D01*
X308563478Y-280105394D01*
X308475472Y-279959815D01*
X308475470Y-279959813D01*
X308475469Y-279959811D01*
X308355188Y-279839530D01*
X308326413Y-279822135D01*
X308209606Y-279751522D01*
X308047196Y-279700914D01*
X308047194Y-279700913D01*
X308047192Y-279700913D01*
X307997778Y-279696423D01*
X307976616Y-279694500D01*
X307463384Y-279694500D01*
X307444145Y-279696248D01*
X307392807Y-279700913D01*
X307230393Y-279751522D01*
X307160853Y-279793561D01*
X307113587Y-279822135D01*
X307107496Y-279825817D01*
X307039941Y-279843653D01*
X306973468Y-279822135D01*
X306929180Y-279768095D01*
X306921139Y-279698690D01*
X306925412Y-279681389D01*
X306955674Y-279588256D01*
X306975460Y-279400000D01*
X306955674Y-279211744D01*
X306897179Y-279031716D01*
X306802533Y-278867784D01*
X306675871Y-278727112D01*
X306675870Y-278727111D01*
X306522734Y-278615851D01*
X306522729Y-278615848D01*
X306349807Y-278538857D01*
X306349802Y-278538855D01*
X306204001Y-278507865D01*
X306164646Y-278499500D01*
X305975354Y-278499500D01*
X305942897Y-278506398D01*
X305790197Y-278538855D01*
X305790192Y-278538857D01*
X305617270Y-278615848D01*
X305617265Y-278615851D01*
X305507885Y-278695321D01*
X305442079Y-278718801D01*
X305374025Y-278702975D01*
X305362115Y-278695321D01*
X305252734Y-278615851D01*
X305252729Y-278615848D01*
X305079807Y-278538857D01*
X305079802Y-278538855D01*
X304934001Y-278507865D01*
X304894646Y-278499500D01*
X304705354Y-278499500D01*
X304672897Y-278506398D01*
X304520197Y-278538855D01*
X304520192Y-278538857D01*
X304347270Y-278615848D01*
X304347265Y-278615851D01*
X304194129Y-278727111D01*
X304067466Y-278867785D01*
X303972821Y-279031715D01*
X303972818Y-279031722D01*
X303914327Y-279211740D01*
X303914326Y-279211744D01*
X303894540Y-279400000D01*
X303914326Y-279588256D01*
X303914327Y-279588259D01*
X303972818Y-279768277D01*
X303972821Y-279768284D01*
X304067467Y-279932216D01*
X304110772Y-279980310D01*
X304142650Y-280015715D01*
X304172880Y-280078706D01*
X304174500Y-280098687D01*
X304174500Y-280684615D01*
X304198535Y-280805448D01*
X304198540Y-280805465D01*
X304245685Y-280919285D01*
X304245687Y-280919288D01*
X304262408Y-280944312D01*
X304262409Y-280944314D01*
X304317526Y-281026802D01*
X304315774Y-281027972D01*
X304339342Y-281083499D01*
X304327534Y-281152364D01*
X304289058Y-281198142D01*
X304194127Y-281267113D01*
X304067466Y-281407785D01*
X303972821Y-281571715D01*
X303972818Y-281571722D01*
X303914327Y-281751740D01*
X303914326Y-281751744D01*
X303894540Y-281940000D01*
X303914326Y-282128256D01*
X303914327Y-282128259D01*
X303972818Y-282308277D01*
X303972821Y-282308284D01*
X304067467Y-282472216D01*
X304096340Y-282504282D01*
X304142650Y-282555715D01*
X304172880Y-282618706D01*
X304174500Y-282638687D01*
X304174500Y-283940548D01*
X304154815Y-284007587D01*
X304102011Y-284053342D01*
X304032853Y-284063286D01*
X303969297Y-284034261D01*
X303962819Y-284028229D01*
X303271818Y-283337228D01*
X303238333Y-283275905D01*
X303235499Y-283249547D01*
X303235499Y-282936662D01*
X303235498Y-282936644D01*
X303225349Y-282837292D01*
X303225348Y-282837289D01*
X303192437Y-282737970D01*
X303172003Y-282676303D01*
X303171999Y-282676297D01*
X303171998Y-282676294D01*
X303082970Y-282531959D01*
X303082967Y-282531955D01*
X303071048Y-282520036D01*
X303037563Y-282458713D01*
X303042547Y-282389021D01*
X303051342Y-282370355D01*
X303087179Y-282308284D01*
X303145674Y-282128256D01*
X303165460Y-281940000D01*
X303145674Y-281751744D01*
X303087179Y-281571716D01*
X302992533Y-281407784D01*
X302865871Y-281267112D01*
X302863201Y-281265172D01*
X302712734Y-281155851D01*
X302712729Y-281155848D01*
X302539807Y-281078857D01*
X302539802Y-281078855D01*
X302394001Y-281047865D01*
X302354646Y-281039500D01*
X302165354Y-281039500D01*
X302132897Y-281046398D01*
X301980197Y-281078855D01*
X301980192Y-281078857D01*
X301807270Y-281155848D01*
X301807265Y-281155851D01*
X301654129Y-281267111D01*
X301527466Y-281407785D01*
X301432821Y-281571715D01*
X301432818Y-281571722D01*
X301374327Y-281751740D01*
X301374326Y-281751744D01*
X301354540Y-281940000D01*
X301374326Y-282128256D01*
X301374327Y-282128259D01*
X301432821Y-282308285D01*
X301468657Y-282370355D01*
X301485130Y-282438255D01*
X301462277Y-282504282D01*
X301448954Y-282520034D01*
X301437029Y-282531958D01*
X301437029Y-282531959D01*
X301348001Y-282676294D01*
X301347996Y-282676305D01*
X301294651Y-282837290D01*
X301284500Y-282936647D01*
X295445692Y-282936647D01*
X294169319Y-281660274D01*
X294135834Y-281598951D01*
X294133000Y-281572593D01*
X294133000Y-279912670D01*
X294149613Y-279850670D01*
X294197179Y-279768284D01*
X294255674Y-279588256D01*
X294275460Y-279400000D01*
X294255674Y-279211744D01*
X294197179Y-279031716D01*
X294102533Y-278867784D01*
X293975871Y-278727112D01*
X293975870Y-278727111D01*
X293822734Y-278615851D01*
X293822729Y-278615848D01*
X293649807Y-278538857D01*
X293649802Y-278538855D01*
X293504001Y-278507865D01*
X293464646Y-278499500D01*
X293275354Y-278499500D01*
X293242897Y-278506398D01*
X293090197Y-278538855D01*
X293090192Y-278538857D01*
X292917270Y-278615848D01*
X292917265Y-278615851D01*
X292764129Y-278727111D01*
X292637466Y-278867785D01*
X292542821Y-279031715D01*
X292542818Y-279031722D01*
X292484327Y-279211740D01*
X292484326Y-279211744D01*
X292464540Y-279400000D01*
X292484326Y-279588256D01*
X292484327Y-279588259D01*
X292542818Y-279768277D01*
X292542821Y-279768284D01*
X292588286Y-279847032D01*
X292590387Y-279850670D01*
X292607000Y-279912670D01*
X292607000Y-281068593D01*
X292587315Y-281135632D01*
X292534511Y-281181387D01*
X292465353Y-281191331D01*
X292401797Y-281162306D01*
X292395319Y-281156274D01*
X290766819Y-279527774D01*
X290733334Y-279466451D01*
X290730500Y-279440093D01*
X290730500Y-278089907D01*
X290750185Y-278022868D01*
X290766819Y-278002226D01*
X291109726Y-277659319D01*
X291171049Y-277625834D01*
X291197407Y-277623000D01*
X293385559Y-277623000D01*
X293403875Y-277624925D01*
X293403886Y-277624821D01*
X293410349Y-277625500D01*
X293410354Y-277625500D01*
X293599644Y-277625500D01*
X293599646Y-277625500D01*
X293784803Y-277586144D01*
X293957730Y-277509151D01*
X294110871Y-277397888D01*
X294237533Y-277257216D01*
X294332179Y-277093284D01*
X294390674Y-276913256D01*
X294410460Y-276725000D01*
X294390674Y-276536744D01*
X294332179Y-276356716D01*
X294274256Y-276256390D01*
X294237535Y-276192787D01*
X294237534Y-276192786D01*
X294237533Y-276192784D01*
X294190732Y-276140807D01*
X294160504Y-276077818D01*
X294169129Y-276008483D01*
X294175498Y-275995835D01*
X294197179Y-275958284D01*
X294255674Y-275778256D01*
X294275460Y-275590000D01*
X294255674Y-275401744D01*
X294197179Y-275221716D01*
X294102533Y-275057784D01*
X293975871Y-274917112D01*
X293975870Y-274917111D01*
X293822734Y-274805851D01*
X293822729Y-274805848D01*
X293649807Y-274728857D01*
X293649802Y-274728855D01*
X293504001Y-274697865D01*
X293464646Y-274689500D01*
X293275354Y-274689500D01*
X293242897Y-274696398D01*
X293090197Y-274728855D01*
X293090192Y-274728857D01*
X292917270Y-274805848D01*
X292911637Y-274809101D01*
X292910425Y-274807002D01*
X292854952Y-274826797D01*
X292847868Y-274827000D01*
X290754850Y-274827000D01*
X290727840Y-274832372D01*
X290658248Y-274826143D01*
X290603072Y-274783279D01*
X290579829Y-274717388D01*
X290595898Y-274649392D01*
X290615965Y-274623079D01*
X290922226Y-274316817D01*
X290983549Y-274283333D01*
X291009907Y-274280499D01*
X291128338Y-274280499D01*
X291128344Y-274280499D01*
X291128352Y-274280498D01*
X291128355Y-274280498D01*
X291182760Y-274274940D01*
X291227708Y-274270349D01*
X291388697Y-274217003D01*
X291533044Y-274127968D01*
X291652968Y-274008044D01*
X291742003Y-273863697D01*
X291795349Y-273702708D01*
X291805500Y-273603345D01*
X291805499Y-273056656D01*
X291802740Y-273029650D01*
X291795349Y-272957292D01*
X291795348Y-272957289D01*
X291748780Y-272816756D01*
X291746378Y-272746928D01*
X291782110Y-272686886D01*
X291844630Y-272655693D01*
X291892262Y-272656461D01*
X292005354Y-272680500D01*
X292005355Y-272680500D01*
X292194644Y-272680500D01*
X292194646Y-272680500D01*
X292379803Y-272641144D01*
X292552730Y-272564151D01*
X292705871Y-272452888D01*
X292832533Y-272312216D01*
X292927179Y-272148284D01*
X292985674Y-271968256D01*
X292997941Y-271851533D01*
X293024524Y-271786924D01*
X293081821Y-271746938D01*
X293121255Y-271740499D01*
X293618738Y-271740499D01*
X293685777Y-271760184D01*
X293731532Y-271812988D01*
X293742058Y-271851534D01*
X293754326Y-271968256D01*
X293754327Y-271968259D01*
X293812818Y-272148277D01*
X293812821Y-272148284D01*
X293907467Y-272312216D01*
X293965899Y-272377111D01*
X294034129Y-272452888D01*
X294187265Y-272564148D01*
X294187270Y-272564151D01*
X294360192Y-272641142D01*
X294360197Y-272641144D01*
X294545354Y-272680500D01*
X294545355Y-272680500D01*
X294734644Y-272680500D01*
X294734646Y-272680500D01*
X294919803Y-272641144D01*
X295092730Y-272564151D01*
X295245871Y-272452888D01*
X295372533Y-272312216D01*
X295467179Y-272148284D01*
X295525674Y-271968256D01*
X295545460Y-271780000D01*
X295525674Y-271591744D01*
X295467179Y-271411716D01*
X295372533Y-271247784D01*
X295354693Y-271227971D01*
X295324464Y-271164981D01*
X295333089Y-271095646D01*
X295354694Y-271062028D01*
X295372533Y-271042216D01*
X295467179Y-270878284D01*
X295525674Y-270698256D01*
X295545460Y-270510000D01*
X295525674Y-270321744D01*
X295467179Y-270141716D01*
X295372533Y-269977784D01*
X295245871Y-269837112D01*
X295245870Y-269837111D01*
X295092734Y-269725851D01*
X295092729Y-269725848D01*
X294919807Y-269648857D01*
X294919802Y-269648855D01*
X294774001Y-269617865D01*
X294734646Y-269609500D01*
X294734645Y-269609500D01*
X294675452Y-269609500D01*
X294608413Y-269589815D01*
X294587771Y-269573181D01*
X294381818Y-269367228D01*
X294348333Y-269305905D01*
X294345910Y-269283368D01*
X302799521Y-269283368D01*
X302799521Y-270338443D01*
X302823556Y-270459277D01*
X302823559Y-270459287D01*
X302837368Y-270492625D01*
X302837368Y-270492626D01*
X302870706Y-270573113D01*
X302870711Y-270573122D01*
X302893714Y-270607547D01*
X302893715Y-270607549D01*
X302939161Y-270675564D01*
X302939162Y-270675565D01*
X302939163Y-270675566D01*
X303026288Y-270762691D01*
X303026289Y-270762691D01*
X303033356Y-270769758D01*
X303033355Y-270769758D01*
X303033358Y-270769760D01*
X303363857Y-271100260D01*
X303363858Y-271100261D01*
X303408597Y-271145000D01*
X303450984Y-271187387D01*
X303539156Y-271246302D01*
X303539157Y-271246302D01*
X303539158Y-271246303D01*
X303553430Y-271255839D01*
X303667264Y-271302991D01*
X303788104Y-271327027D01*
X303788108Y-271327028D01*
X303788109Y-271327028D01*
X303788110Y-271327028D01*
X305951076Y-271327028D01*
X306018115Y-271346713D01*
X306038757Y-271363347D01*
X309121934Y-274446525D01*
X309155419Y-274507848D01*
X309150435Y-274577540D01*
X309108563Y-274633473D01*
X309071144Y-274652591D01*
X309010396Y-274671521D01*
X309010394Y-274671521D01*
X309010394Y-274671522D01*
X308915551Y-274728857D01*
X308864815Y-274759528D01*
X308852145Y-274772198D01*
X308790821Y-274805681D01*
X308721129Y-274800695D01*
X308676785Y-274772195D01*
X308278960Y-274374370D01*
X308245475Y-274313047D01*
X308243323Y-274299671D01*
X308225674Y-274131744D01*
X308167179Y-273951716D01*
X308072533Y-273787784D01*
X307945871Y-273647112D01*
X307941194Y-273643714D01*
X307792734Y-273535851D01*
X307792729Y-273535848D01*
X307619807Y-273458857D01*
X307619802Y-273458855D01*
X307474001Y-273427865D01*
X307434646Y-273419500D01*
X307434645Y-273419500D01*
X307375452Y-273419500D01*
X307308413Y-273399815D01*
X307287771Y-273383181D01*
X307008960Y-273104370D01*
X306975475Y-273043047D01*
X306973323Y-273029671D01*
X306955674Y-272861744D01*
X306897179Y-272681716D01*
X306802533Y-272517784D01*
X306675871Y-272377112D01*
X306675870Y-272377111D01*
X306522734Y-272265851D01*
X306522729Y-272265848D01*
X306349807Y-272188857D01*
X306349802Y-272188855D01*
X306192742Y-272155472D01*
X306164646Y-272149500D01*
X305975354Y-272149500D01*
X305947258Y-272155472D01*
X305790197Y-272188855D01*
X305790192Y-272188857D01*
X305617270Y-272265848D01*
X305617265Y-272265851D01*
X305464129Y-272377111D01*
X305337466Y-272517785D01*
X305242821Y-272681715D01*
X305242818Y-272681722D01*
X305195541Y-272827228D01*
X305184326Y-272861744D01*
X305164540Y-273050000D01*
X305184326Y-273238256D01*
X305184327Y-273238259D01*
X305242818Y-273418277D01*
X305242821Y-273418284D01*
X305337467Y-273582216D01*
X305459321Y-273717548D01*
X305464129Y-273722888D01*
X305617265Y-273834148D01*
X305617270Y-273834151D01*
X305790192Y-273911142D01*
X305790197Y-273911144D01*
X305975354Y-273950500D01*
X306034548Y-273950500D01*
X306101587Y-273970185D01*
X306122229Y-273986819D01*
X306401038Y-274265628D01*
X306434523Y-274326951D01*
X306436678Y-274340347D01*
X306444139Y-274411338D01*
X306454326Y-274508256D01*
X306454327Y-274508259D01*
X306512818Y-274688277D01*
X306512821Y-274688284D01*
X306607467Y-274852216D01*
X306650772Y-274900310D01*
X306682650Y-274935715D01*
X306712880Y-274998706D01*
X306714500Y-275018687D01*
X306714500Y-275279548D01*
X306694815Y-275346587D01*
X306678181Y-275367229D01*
X306122229Y-275923181D01*
X306060906Y-275956666D01*
X306034548Y-275959500D01*
X305975354Y-275959500D01*
X305942897Y-275966398D01*
X305790197Y-275998855D01*
X305790192Y-275998857D01*
X305617270Y-276075848D01*
X305617265Y-276075851D01*
X305464129Y-276187111D01*
X305337466Y-276327785D01*
X305242821Y-276491715D01*
X305242818Y-276491722D01*
X305184327Y-276671740D01*
X305184326Y-276671744D01*
X305164540Y-276860000D01*
X305184326Y-277048256D01*
X305184327Y-277048259D01*
X305242818Y-277228277D01*
X305242821Y-277228284D01*
X305337467Y-277392216D01*
X305450909Y-277518206D01*
X305464129Y-277532888D01*
X305617265Y-277644148D01*
X305617270Y-277644151D01*
X305790192Y-277721142D01*
X305790197Y-277721144D01*
X305975354Y-277760500D01*
X305975355Y-277760500D01*
X306164644Y-277760500D01*
X306164646Y-277760500D01*
X306349803Y-277721144D01*
X306522730Y-277644151D01*
X306675871Y-277532888D01*
X306802533Y-277392216D01*
X306897179Y-277228284D01*
X306955674Y-277048256D01*
X306973321Y-276880345D01*
X306999905Y-276815732D01*
X307008952Y-276805636D01*
X307738729Y-276075860D01*
X307738733Y-276075858D01*
X307825858Y-275988733D01*
X307861391Y-275935554D01*
X307915002Y-275890749D01*
X307984327Y-275882042D01*
X308047355Y-275912196D01*
X308052174Y-275916764D01*
X308121016Y-275985606D01*
X308121045Y-275985637D01*
X308211263Y-276075855D01*
X308211267Y-276075858D01*
X308313707Y-276144307D01*
X308313713Y-276144310D01*
X308313714Y-276144311D01*
X308427548Y-276191463D01*
X308471524Y-276200210D01*
X308548391Y-276215499D01*
X308548392Y-276215500D01*
X308548393Y-276215500D01*
X308548394Y-276215500D01*
X308623398Y-276215500D01*
X308690437Y-276235185D01*
X308729514Y-276275349D01*
X308744528Y-276300185D01*
X308744531Y-276300189D01*
X308864811Y-276420469D01*
X308864813Y-276420470D01*
X308864815Y-276420472D01*
X309010394Y-276508478D01*
X309172804Y-276559086D01*
X309243384Y-276565500D01*
X309243387Y-276565500D01*
X309756613Y-276565500D01*
X309756616Y-276565500D01*
X309827196Y-276559086D01*
X309989606Y-276508478D01*
X310135185Y-276420472D01*
X310182673Y-276372984D01*
X310237319Y-276318339D01*
X310298642Y-276284854D01*
X310368334Y-276289838D01*
X310412681Y-276318339D01*
X310514811Y-276420469D01*
X310514813Y-276420470D01*
X310514815Y-276420472D01*
X310660394Y-276508478D01*
X310822804Y-276559086D01*
X310893384Y-276565500D01*
X310893387Y-276565500D01*
X311406613Y-276565500D01*
X311406616Y-276565500D01*
X311477196Y-276559086D01*
X311639606Y-276508478D01*
X311785185Y-276420472D01*
X311905472Y-276300185D01*
X311993478Y-276154606D01*
X312044086Y-275992196D01*
X312050500Y-275921616D01*
X312050500Y-275258384D01*
X312044086Y-275187804D01*
X311993478Y-275025394D01*
X311905472Y-274879815D01*
X311905470Y-274879813D01*
X311905469Y-274879811D01*
X311785189Y-274759531D01*
X311785186Y-274759529D01*
X311785185Y-274759528D01*
X311639606Y-274671522D01*
X311477196Y-274620914D01*
X311477194Y-274620913D01*
X311477192Y-274620913D01*
X311427778Y-274616423D01*
X311406616Y-274614500D01*
X311406613Y-274614500D01*
X311110453Y-274614500D01*
X311043414Y-274594815D01*
X311022772Y-274578181D01*
X306754456Y-270309866D01*
X306754453Y-270309862D01*
X306754453Y-270309863D01*
X306747386Y-270302796D01*
X306747386Y-270302795D01*
X306660261Y-270215670D01*
X306660260Y-270215669D01*
X306660259Y-270215668D01*
X306609037Y-270181443D01*
X306588823Y-270167936D01*
X306557814Y-270147216D01*
X306471024Y-270111267D01*
X306471022Y-270111265D01*
X306443986Y-270100067D01*
X306443982Y-270100065D01*
X306443980Y-270100065D01*
X306443976Y-270100064D01*
X306443972Y-270100063D01*
X306360588Y-270083477D01*
X306360587Y-270083477D01*
X306323139Y-270076028D01*
X306323135Y-270076028D01*
X306323134Y-270076028D01*
X304174521Y-270076028D01*
X304107482Y-270056343D01*
X304061727Y-270003539D01*
X304050521Y-269952028D01*
X304050521Y-269655431D01*
X304070206Y-269588392D01*
X304086840Y-269567750D01*
X304116268Y-269538322D01*
X330240001Y-269538322D01*
X330250144Y-269637607D01*
X330303452Y-269798481D01*
X330303457Y-269798492D01*
X330392424Y-269942728D01*
X330392427Y-269942732D01*
X330512267Y-270062572D01*
X330512271Y-270062575D01*
X330656507Y-270151542D01*
X330656518Y-270151547D01*
X330817393Y-270204855D01*
X330916683Y-270214999D01*
X330940000Y-270214998D01*
X330940000Y-269490000D01*
X330240001Y-269490000D01*
X330240001Y-269538322D01*
X304116268Y-269538322D01*
X304712913Y-268941677D01*
X330240000Y-268941677D01*
X330240000Y-268990000D01*
X330940000Y-268990000D01*
X330940000Y-268265000D01*
X331440000Y-268265000D01*
X331440000Y-270214999D01*
X331463308Y-270214999D01*
X331463322Y-270214998D01*
X331562607Y-270204855D01*
X331723481Y-270151547D01*
X331723492Y-270151542D01*
X331787903Y-270111813D01*
X331855295Y-270093372D01*
X331921959Y-270114294D01*
X331966728Y-270167936D01*
X331977000Y-270217351D01*
X331977000Y-271267328D01*
X331960387Y-271329328D01*
X331912821Y-271411714D01*
X331854327Y-271591740D01*
X331854326Y-271591744D01*
X331834540Y-271780000D01*
X331854326Y-271968256D01*
X331854327Y-271968259D01*
X331912818Y-272148277D01*
X331912821Y-272148284D01*
X332007467Y-272312216D01*
X332065899Y-272377111D01*
X332134129Y-272452888D01*
X332287265Y-272564148D01*
X332287270Y-272564151D01*
X332460192Y-272641142D01*
X332460197Y-272641144D01*
X332645354Y-272680500D01*
X332645355Y-272680500D01*
X332834644Y-272680500D01*
X332834646Y-272680500D01*
X333019803Y-272641144D01*
X333192730Y-272564151D01*
X333345871Y-272452888D01*
X333472533Y-272312216D01*
X333567179Y-272148284D01*
X333625674Y-271968256D01*
X333645460Y-271780000D01*
X333625674Y-271591744D01*
X333567179Y-271411716D01*
X333564624Y-271407290D01*
X333519613Y-271329328D01*
X333503000Y-271267328D01*
X333503000Y-270029374D01*
X333522685Y-269962335D01*
X333533598Y-269948792D01*
X333533490Y-269948707D01*
X333537962Y-269943049D01*
X333537968Y-269943044D01*
X333627003Y-269798697D01*
X333680349Y-269637708D01*
X333690500Y-269538345D01*
X333690499Y-268941656D01*
X333690236Y-268939086D01*
X333680349Y-268842292D01*
X333680348Y-268842289D01*
X333656970Y-268771738D01*
X333627003Y-268681303D01*
X333626999Y-268681297D01*
X333626998Y-268681294D01*
X333537970Y-268536959D01*
X333537967Y-268536955D01*
X333418044Y-268417032D01*
X333418040Y-268417029D01*
X333273705Y-268328001D01*
X333273699Y-268327998D01*
X333273697Y-268327997D01*
X333157520Y-268289500D01*
X333112709Y-268274651D01*
X333013346Y-268264500D01*
X332466662Y-268264500D01*
X332466644Y-268264501D01*
X332367292Y-268274650D01*
X332367289Y-268274651D01*
X332206305Y-268327996D01*
X332206294Y-268328001D01*
X332061959Y-268417029D01*
X332061953Y-268417033D01*
X332052324Y-268426663D01*
X331991000Y-268460146D01*
X331921308Y-268455159D01*
X331876965Y-268426660D01*
X331867732Y-268417427D01*
X331867728Y-268417424D01*
X331723492Y-268328457D01*
X331723481Y-268328452D01*
X331562606Y-268275144D01*
X331463322Y-268265000D01*
X331440000Y-268265000D01*
X330940000Y-268265000D01*
X330940000Y-268264999D01*
X330916693Y-268265000D01*
X330916674Y-268265001D01*
X330817392Y-268275144D01*
X330656518Y-268328452D01*
X330656507Y-268328457D01*
X330512271Y-268417424D01*
X330512267Y-268417427D01*
X330392427Y-268537267D01*
X330392424Y-268537271D01*
X330303457Y-268681507D01*
X330303452Y-268681518D01*
X330250144Y-268842393D01*
X330240000Y-268941677D01*
X304712913Y-268941677D01*
X314243008Y-259411582D01*
X331460001Y-259411582D01*
X331466408Y-259482102D01*
X331466409Y-259482107D01*
X331516981Y-259644396D01*
X331604927Y-259789877D01*
X331725122Y-259910072D01*
X331870604Y-259998019D01*
X331870603Y-259998019D01*
X332032894Y-260048590D01*
X332032893Y-260048590D01*
X332103408Y-260054998D01*
X332103426Y-260054999D01*
X332109999Y-260054998D01*
X332110000Y-260054998D01*
X332110000Y-259330000D01*
X331460001Y-259330000D01*
X331460001Y-259411582D01*
X314243008Y-259411582D01*
X314906163Y-258748427D01*
X331460000Y-258748427D01*
X331460000Y-258830000D01*
X332110000Y-258830000D01*
X332110000Y-258105000D01*
X332610000Y-258105000D01*
X332610000Y-260054999D01*
X332616581Y-260054999D01*
X332687102Y-260048591D01*
X332687107Y-260048590D01*
X332849396Y-259998018D01*
X332994877Y-259910072D01*
X332994878Y-259910071D01*
X333096963Y-259807985D01*
X333158286Y-259774499D01*
X333227977Y-259779483D01*
X333272326Y-259807984D01*
X333374811Y-259910469D01*
X333374813Y-259910470D01*
X333374815Y-259910472D01*
X333520394Y-259998478D01*
X333682804Y-260049086D01*
X333753384Y-260055500D01*
X333753387Y-260055500D01*
X334266613Y-260055500D01*
X334266616Y-260055500D01*
X334337196Y-260049086D01*
X334499606Y-259998478D01*
X334645185Y-259910472D01*
X334673918Y-259881738D01*
X334735240Y-259848253D01*
X334804932Y-259853237D01*
X334823598Y-259862031D01*
X334827267Y-259864148D01*
X334827270Y-259864151D01*
X334950110Y-259918843D01*
X335000192Y-259941142D01*
X335000197Y-259941144D01*
X335185354Y-259980500D01*
X335185355Y-259980500D01*
X335374644Y-259980500D01*
X335374646Y-259980500D01*
X335559803Y-259941144D01*
X335732730Y-259864151D01*
X335885871Y-259752888D01*
X335888788Y-259749647D01*
X335891600Y-259746526D01*
X335951087Y-259709879D01*
X335983748Y-259705500D01*
X336563398Y-259705500D01*
X336630437Y-259725185D01*
X336669514Y-259765349D01*
X336684528Y-259790185D01*
X336684531Y-259790189D01*
X336804811Y-259910469D01*
X336804813Y-259910470D01*
X336804815Y-259910472D01*
X336950394Y-259998478D01*
X337112804Y-260049086D01*
X337183384Y-260055500D01*
X337183387Y-260055500D01*
X337696613Y-260055500D01*
X337696616Y-260055500D01*
X337767196Y-260049086D01*
X337929606Y-259998478D01*
X338075185Y-259910472D01*
X338124641Y-259861016D01*
X338177319Y-259808339D01*
X338238642Y-259774854D01*
X338308334Y-259779838D01*
X338352681Y-259808339D01*
X338454811Y-259910469D01*
X338454813Y-259910470D01*
X338454815Y-259910472D01*
X338600394Y-259998478D01*
X338762804Y-260049086D01*
X338833384Y-260055500D01*
X339129548Y-260055500D01*
X339196587Y-260075185D01*
X339217229Y-260091819D01*
X339698181Y-260572771D01*
X339731666Y-260634094D01*
X339734500Y-260660452D01*
X339734500Y-266389547D01*
X339714815Y-266456586D01*
X339698181Y-266477228D01*
X337421269Y-268754140D01*
X337421267Y-268754142D01*
X337377704Y-268797704D01*
X337334142Y-268841266D01*
X337309207Y-268878585D01*
X337309206Y-268878586D01*
X337265690Y-268943709D01*
X337265690Y-268943710D01*
X337265688Y-268943712D01*
X337265688Y-268943714D01*
X337235150Y-269017441D01*
X337218538Y-269057545D01*
X337218535Y-269057555D01*
X337194500Y-269178389D01*
X337194500Y-269811312D01*
X337174815Y-269878351D01*
X337162650Y-269894284D01*
X337087466Y-269977784D01*
X336992821Y-270141715D01*
X336992818Y-270141722D01*
X336938186Y-270309863D01*
X336934326Y-270321744D01*
X336914540Y-270510000D01*
X336934326Y-270698256D01*
X336934327Y-270698259D01*
X336992818Y-270878277D01*
X336992821Y-270878284D01*
X337087467Y-271042216D01*
X337214129Y-271182888D01*
X337367265Y-271294148D01*
X337367270Y-271294151D01*
X337540192Y-271371142D01*
X337540197Y-271371144D01*
X337725354Y-271410500D01*
X337725355Y-271410500D01*
X337914644Y-271410500D01*
X337914646Y-271410500D01*
X338099803Y-271371144D01*
X338272730Y-271294151D01*
X338425871Y-271182888D01*
X338552533Y-271042216D01*
X338647179Y-270878284D01*
X338705674Y-270698256D01*
X338725460Y-270510000D01*
X338705674Y-270321744D01*
X338647179Y-270141716D01*
X338552533Y-269977784D01*
X338529342Y-269952028D01*
X338477350Y-269894284D01*
X338447120Y-269831292D01*
X338445500Y-269811312D01*
X338445500Y-269550452D01*
X338465185Y-269483413D01*
X338481819Y-269462771D01*
X339655090Y-268289501D01*
X340845857Y-267098734D01*
X340914311Y-266996286D01*
X340961463Y-266882452D01*
X340985500Y-266761607D01*
X340985500Y-266638394D01*
X340985500Y-266638393D01*
X340985500Y-260288394D01*
X340961463Y-260167548D01*
X340914311Y-260053714D01*
X340914310Y-260053713D01*
X340914307Y-260053707D01*
X340845858Y-259951267D01*
X340845855Y-259951263D01*
X340755637Y-259861045D01*
X340755606Y-259861016D01*
X340026819Y-259132229D01*
X339993334Y-259070906D01*
X339990500Y-259044548D01*
X339990500Y-258748386D01*
X339984086Y-258677807D01*
X339984086Y-258677804D01*
X339933478Y-258515394D01*
X339845472Y-258369815D01*
X339845470Y-258369813D01*
X339845469Y-258369811D01*
X339725188Y-258249530D01*
X339674447Y-258218856D01*
X339579606Y-258161522D01*
X339417196Y-258110914D01*
X339417194Y-258110913D01*
X339417192Y-258110913D01*
X339367778Y-258106423D01*
X339346616Y-258104500D01*
X338833384Y-258104500D01*
X338814145Y-258106248D01*
X338762807Y-258110913D01*
X338600393Y-258161522D01*
X338454811Y-258249530D01*
X338454810Y-258249531D01*
X338352681Y-258351661D01*
X338291358Y-258385146D01*
X338221666Y-258380162D01*
X338177319Y-258351661D01*
X338075188Y-258249530D01*
X338024447Y-258218856D01*
X337929606Y-258161522D01*
X337767196Y-258110914D01*
X337767194Y-258110913D01*
X337767192Y-258110913D01*
X337717778Y-258106423D01*
X337696616Y-258104500D01*
X337183384Y-258104500D01*
X337164145Y-258106248D01*
X337112807Y-258110913D01*
X336950393Y-258161522D01*
X336804811Y-258249530D01*
X336684531Y-258369810D01*
X336684528Y-258369814D01*
X336669514Y-258394651D01*
X336617986Y-258441838D01*
X336563398Y-258454500D01*
X335983748Y-258454500D01*
X335916709Y-258434815D01*
X335891600Y-258413474D01*
X335885873Y-258407114D01*
X335885869Y-258407110D01*
X335732734Y-258295851D01*
X335732729Y-258295848D01*
X335559807Y-258218857D01*
X335559802Y-258218855D01*
X335414001Y-258187865D01*
X335374646Y-258179500D01*
X335185354Y-258179500D01*
X335152897Y-258186398D01*
X335000197Y-258218855D01*
X335000192Y-258218857D01*
X334827268Y-258295849D01*
X334823590Y-258297973D01*
X334755688Y-258314439D01*
X334689663Y-258291580D01*
X334673919Y-258278261D01*
X334645188Y-258249530D01*
X334594447Y-258218856D01*
X334499606Y-258161522D01*
X334337196Y-258110914D01*
X334337194Y-258110913D01*
X334337192Y-258110913D01*
X334287778Y-258106423D01*
X334266616Y-258104500D01*
X333753384Y-258104500D01*
X333734145Y-258106248D01*
X333682807Y-258110913D01*
X333520393Y-258161522D01*
X333374811Y-258249530D01*
X333374810Y-258249531D01*
X333272327Y-258352015D01*
X333211004Y-258385500D01*
X333141312Y-258380516D01*
X333096965Y-258352015D01*
X332994877Y-258249927D01*
X332849395Y-258161980D01*
X332849396Y-258161980D01*
X332687105Y-258111409D01*
X332687106Y-258111409D01*
X332616572Y-258105000D01*
X332610000Y-258105000D01*
X332110000Y-258105000D01*
X332109999Y-258104999D01*
X332103436Y-258105000D01*
X332103417Y-258105001D01*
X332032897Y-258111408D01*
X332032892Y-258111409D01*
X331870603Y-258161981D01*
X331725122Y-258249927D01*
X331604927Y-258370122D01*
X331516980Y-258515604D01*
X331466409Y-258677893D01*
X331460000Y-258748427D01*
X314906163Y-258748427D01*
X321532771Y-252121819D01*
X321594094Y-252088334D01*
X321620452Y-252085500D01*
X325686252Y-252085500D01*
X325753291Y-252105185D01*
X325778400Y-252126526D01*
X325784126Y-252132885D01*
X325784130Y-252132889D01*
X325937265Y-252244148D01*
X325937270Y-252244151D01*
X326110192Y-252321142D01*
X326110197Y-252321144D01*
X326295354Y-252360500D01*
X326295355Y-252360500D01*
X326484644Y-252360500D01*
X326484646Y-252360500D01*
X326669803Y-252321144D01*
X326842730Y-252244151D01*
X326995871Y-252132888D01*
X327122533Y-251992216D01*
X327217179Y-251828284D01*
X327275674Y-251648256D01*
X327295460Y-251460000D01*
X327275674Y-251271744D01*
X327217179Y-251091716D01*
X327122533Y-250927784D01*
X326995871Y-250787112D01*
X326995870Y-250787111D01*
X326842734Y-250675851D01*
X326842729Y-250675848D01*
X326669807Y-250598857D01*
X326669802Y-250598855D01*
X326524001Y-250567865D01*
X326484646Y-250559500D01*
X326295354Y-250559500D01*
X326262897Y-250566398D01*
X326110197Y-250598855D01*
X326110192Y-250598857D01*
X325937270Y-250675848D01*
X325937265Y-250675851D01*
X325784130Y-250787110D01*
X325784126Y-250787114D01*
X325778400Y-250793474D01*
X325718913Y-250830121D01*
X325686252Y-250834500D01*
X321248389Y-250834500D01*
X321187971Y-250846518D01*
X321127548Y-250858537D01*
X321127543Y-250858538D01*
X321093546Y-250872620D01*
X321080397Y-250878067D01*
X321058169Y-250887274D01*
X321013713Y-250905688D01*
X321003557Y-250912475D01*
X321003449Y-250912547D01*
X320911268Y-250974140D01*
X320867705Y-251017703D01*
X320824142Y-251061267D01*
X320824139Y-251061270D01*
X303026291Y-268859118D01*
X303026288Y-268859121D01*
X302996932Y-268888477D01*
X302939163Y-268946245D01*
X302914348Y-268983384D01*
X302914347Y-268983383D01*
X302870707Y-269048695D01*
X302870706Y-269048697D01*
X302837368Y-269129186D01*
X302831844Y-269142522D01*
X302823558Y-269162524D01*
X302823556Y-269162532D01*
X302799521Y-269283368D01*
X294345910Y-269283368D01*
X294345499Y-269279547D01*
X294345499Y-268966662D01*
X294345498Y-268966644D01*
X294335349Y-268867292D01*
X294335348Y-268867289D01*
X294313206Y-268800468D01*
X294282003Y-268706303D01*
X294281999Y-268706297D01*
X294281998Y-268706294D01*
X294192970Y-268561959D01*
X294192967Y-268561955D01*
X294073044Y-268442032D01*
X294073040Y-268442029D01*
X293928705Y-268353001D01*
X293928699Y-268352998D01*
X293928697Y-268352997D01*
X293854640Y-268328457D01*
X293767709Y-268299651D01*
X293668346Y-268289500D01*
X293071662Y-268289500D01*
X293071644Y-268289501D01*
X292972292Y-268299650D01*
X292972289Y-268299651D01*
X292811305Y-268352996D01*
X292811294Y-268353001D01*
X292666959Y-268442029D01*
X292666955Y-268442032D01*
X292547032Y-268561955D01*
X292547029Y-268561959D01*
X292458001Y-268706294D01*
X292457996Y-268706305D01*
X292404651Y-268867290D01*
X292394500Y-268966647D01*
X292394500Y-269513337D01*
X292394501Y-269513355D01*
X292404650Y-269612707D01*
X292404651Y-269612710D01*
X292457996Y-269773694D01*
X292458001Y-269773705D01*
X292547029Y-269918040D01*
X292547032Y-269918044D01*
X292556307Y-269927319D01*
X292589792Y-269988642D01*
X292584808Y-270058334D01*
X292556307Y-270102681D01*
X292547032Y-270111955D01*
X292547029Y-270111959D01*
X292458001Y-270256294D01*
X292457996Y-270256305D01*
X292404651Y-270417290D01*
X292394500Y-270516647D01*
X292394500Y-270768853D01*
X292374815Y-270835892D01*
X292322011Y-270881647D01*
X292252853Y-270891591D01*
X292244735Y-270890146D01*
X292194646Y-270879500D01*
X292005354Y-270879500D01*
X291972897Y-270886398D01*
X291820197Y-270918855D01*
X291820192Y-270918857D01*
X291653750Y-270992963D01*
X291584500Y-271002248D01*
X291538217Y-270985222D01*
X291388705Y-270893001D01*
X291388699Y-270892998D01*
X291388697Y-270892997D01*
X291354445Y-270881647D01*
X291227709Y-270839651D01*
X291128346Y-270829500D01*
X290531662Y-270829500D01*
X290531644Y-270829501D01*
X290432292Y-270839650D01*
X290432289Y-270839651D01*
X290271305Y-270892996D01*
X290271294Y-270893001D01*
X290126959Y-270982029D01*
X290126955Y-270982032D01*
X290007032Y-271101955D01*
X290007029Y-271101959D01*
X289918001Y-271246294D01*
X289917998Y-271246300D01*
X289917997Y-271246303D01*
X289902143Y-271294148D01*
X289864651Y-271407290D01*
X289854500Y-271506647D01*
X289854500Y-272053337D01*
X289854501Y-272053355D01*
X289864650Y-272152707D01*
X289864651Y-272152710D01*
X289917996Y-272313694D01*
X289918001Y-272313705D01*
X290007029Y-272458040D01*
X290007032Y-272458044D01*
X290016307Y-272467319D01*
X290049792Y-272528642D01*
X290044808Y-272598334D01*
X290016307Y-272642681D01*
X290007032Y-272651955D01*
X290007029Y-272651959D01*
X289918001Y-272796294D01*
X289917996Y-272796305D01*
X289864651Y-272957290D01*
X289854500Y-273056647D01*
X289854500Y-273175092D01*
X289834815Y-273242131D01*
X289818180Y-273262773D01*
X289073616Y-274007339D01*
X289030349Y-274050606D01*
X288967337Y-274113617D01*
X288883841Y-274238577D01*
X288883834Y-274238590D01*
X288826323Y-274377436D01*
X288826320Y-274377446D01*
X288797000Y-274524848D01*
X288797000Y-275077328D01*
X288780387Y-275139328D01*
X288732821Y-275221714D01*
X288674327Y-275401740D01*
X288674326Y-275401744D01*
X288654540Y-275590000D01*
X288674326Y-275778256D01*
X288674327Y-275778259D01*
X288732818Y-275958277D01*
X288732820Y-275958282D01*
X288732821Y-275958284D01*
X288827467Y-276122216D01*
X288911460Y-276215499D01*
X288934112Y-276240657D01*
X288964342Y-276303648D01*
X288955717Y-276372984D01*
X288929644Y-276411309D01*
X288850455Y-276490500D01*
X288829116Y-276511839D01*
X288781869Y-276559086D01*
X288722837Y-276618117D01*
X288639341Y-276743077D01*
X288639334Y-276743090D01*
X288581823Y-276881936D01*
X288581820Y-276881946D01*
X288552500Y-277029348D01*
X288552500Y-277029351D01*
X288552500Y-281570111D01*
X288552500Y-281720409D01*
X288552500Y-281720411D01*
X288552499Y-281720411D01*
X283922477Y-281720411D01*
X284878729Y-280764159D01*
X284878733Y-280764157D01*
X284965858Y-280677032D01*
X285034311Y-280574585D01*
X285081463Y-280460751D01*
X285105500Y-280339905D01*
X285105500Y-273893610D01*
X285125185Y-273826571D01*
X285141819Y-273805929D01*
X309365930Y-249581819D01*
X309427253Y-249548334D01*
X309453611Y-249545500D01*
X332200547Y-249545500D01*
X332267586Y-249565185D01*
X332313341Y-249617989D01*
X332323285Y-249687147D01*
X332294260Y-249750703D01*
X332288228Y-249757181D01*
X332254142Y-249791267D01*
X332254139Y-249791270D01*
X331887910Y-250157500D01*
X331522229Y-250523181D01*
X331460906Y-250556666D01*
X331434548Y-250559500D01*
X331375354Y-250559500D01*
X331342897Y-250566398D01*
X331190197Y-250598855D01*
X331190192Y-250598857D01*
X331017270Y-250675848D01*
X331017265Y-250675851D01*
X330864129Y-250787111D01*
X330737466Y-250927785D01*
X330642821Y-251091715D01*
X330642818Y-251091722D01*
X330584327Y-251271740D01*
X330584326Y-251271744D01*
X330564540Y-251460000D01*
X330584326Y-251648256D01*
X330584327Y-251648259D01*
X330642818Y-251828277D01*
X330642821Y-251828284D01*
X330737467Y-251992216D01*
X330833032Y-252098351D01*
X330864129Y-252132888D01*
X331017265Y-252244148D01*
X331017270Y-252244151D01*
X331190192Y-252321142D01*
X331190197Y-252321144D01*
X331375354Y-252360500D01*
X331375355Y-252360500D01*
X331564644Y-252360500D01*
X331564646Y-252360500D01*
X331749803Y-252321144D01*
X331922730Y-252244151D01*
X332075871Y-252132888D01*
X332202533Y-251992216D01*
X332297179Y-251828284D01*
X332355674Y-251648256D01*
X332373321Y-251480345D01*
X332399905Y-251415732D01*
X332408951Y-251405637D01*
X332962771Y-250851819D01*
X333024094Y-250818334D01*
X333050452Y-250815500D01*
X340926252Y-250815500D01*
X340993291Y-250835185D01*
X341018400Y-250856526D01*
X341024126Y-250862885D01*
X341024130Y-250862889D01*
X341177265Y-250974148D01*
X341177270Y-250974151D01*
X341350192Y-251051142D01*
X341350197Y-251051144D01*
X341535354Y-251090500D01*
X341535355Y-251090500D01*
X341724644Y-251090500D01*
X341724646Y-251090500D01*
X341909803Y-251051144D01*
X342082730Y-250974151D01*
X342235871Y-250862888D01*
X342362533Y-250722216D01*
X342457179Y-250558284D01*
X342515674Y-250378256D01*
X342535460Y-250190000D01*
X342515674Y-250001744D01*
X342497292Y-249945173D01*
X342495298Y-249875335D01*
X342531378Y-249815502D01*
X342594078Y-249784673D01*
X342641005Y-249785567D01*
X342667822Y-249791267D01*
X342805354Y-249820500D01*
X342805355Y-249820500D01*
X342994644Y-249820500D01*
X342994646Y-249820500D01*
X343179803Y-249781144D01*
X343352730Y-249704151D01*
X343505871Y-249592888D01*
X343632533Y-249452216D01*
X343727179Y-249288284D01*
X343785674Y-249108256D01*
X343805460Y-248920000D01*
X343785674Y-248731744D01*
X343727179Y-248551716D01*
X343632533Y-248387784D01*
X343614693Y-248367971D01*
X343584464Y-248304981D01*
X343593089Y-248235646D01*
X343614694Y-248202028D01*
X343632533Y-248182216D01*
X343727179Y-248018284D01*
X343785674Y-247838256D01*
X343805460Y-247650000D01*
X343785674Y-247461744D01*
X343727179Y-247281716D01*
X343632533Y-247117784D01*
X343505871Y-246977112D01*
X343505870Y-246977111D01*
X343352734Y-246865851D01*
X343352729Y-246865848D01*
X343179807Y-246788857D01*
X343179802Y-246788855D01*
X343034001Y-246757865D01*
X342994646Y-246749500D01*
X342805354Y-246749500D01*
X342772897Y-246756398D01*
X342620197Y-246788855D01*
X342620192Y-246788857D01*
X342447270Y-246865848D01*
X342447265Y-246865851D01*
X342294130Y-246977110D01*
X342294126Y-246977114D01*
X342288400Y-246983474D01*
X342228913Y-247020121D01*
X342196252Y-247024500D01*
X309818389Y-247024500D01*
X309757971Y-247036518D01*
X309720259Y-247044019D01*
X309697550Y-247048536D01*
X309697548Y-247048537D01*
X309664207Y-247062347D01*
X309583719Y-247095684D01*
X309583705Y-247095692D01*
X309481272Y-247164138D01*
X309481264Y-247164144D01*
X296591702Y-260053707D01*
X283704270Y-272941139D01*
X283704267Y-272941142D01*
X283660705Y-272984703D01*
X283617144Y-273028264D01*
X283617142Y-273028267D01*
X283598174Y-273056655D01*
X283598173Y-273056657D01*
X283598172Y-273056656D01*
X283548689Y-273130712D01*
X283548685Y-273130719D01*
X283526441Y-273184424D01*
X283526441Y-273184425D01*
X283501538Y-273244545D01*
X283501535Y-273244555D01*
X283477500Y-273365389D01*
X283477500Y-279811687D01*
X283457815Y-279878726D01*
X283441181Y-279899368D01*
X269742144Y-293598404D01*
X269742138Y-293598412D01*
X269673690Y-293700848D01*
X269673688Y-293700853D01*
X269645628Y-293768598D01*
X269645628Y-293768599D01*
X269626537Y-293814686D01*
X269602500Y-293935536D01*
X269602500Y-298229610D01*
X269626535Y-298350444D01*
X269626537Y-298350452D01*
X269640347Y-298383792D01*
X269640347Y-298383793D01*
X269673685Y-298464281D01*
X269673687Y-298464285D01*
X269673688Y-298464286D01*
X269680037Y-298473787D01*
X269680040Y-298473797D01*
X269680043Y-298473796D01*
X269742141Y-298566732D01*
X269742144Y-298566736D01*
X269833586Y-298658178D01*
X269833608Y-298658198D01*
X269926016Y-298750606D01*
X269926045Y-298750637D01*
X270016264Y-298840856D01*
X270016267Y-298840858D01*
X270093190Y-298892256D01*
X270118710Y-298909309D01*
X270118713Y-298909311D01*
X270118715Y-298909312D01*
X270183275Y-298936053D01*
X270183276Y-298936054D01*
X270183277Y-298936054D01*
X270232548Y-298956463D01*
X270292971Y-298968481D01*
X270353393Y-298980500D01*
X275746607Y-298980500D01*
X275807029Y-298968481D01*
X275867452Y-298956463D01*
X275867455Y-298956461D01*
X275867458Y-298956461D01*
X275900787Y-298942654D01*
X275900786Y-298942654D01*
X275900792Y-298942652D01*
X275981286Y-298909312D01*
X276032509Y-298875084D01*
X276083733Y-298840858D01*
X276170858Y-298753733D01*
X276170859Y-298753731D01*
X276177925Y-298746665D01*
X276177928Y-298746661D01*
X276404353Y-298520235D01*
X276465674Y-298486752D01*
X276524125Y-298488143D01*
X276558780Y-298497428D01*
X276624592Y-298515063D01*
X276801034Y-298530500D01*
X276859999Y-298535659D01*
X276860000Y-298535659D01*
X276860001Y-298535659D01*
X276918966Y-298530500D01*
X277095408Y-298515063D01*
X277323663Y-298453903D01*
X277537830Y-298354035D01*
X277731401Y-298218495D01*
X277898495Y-298051401D01*
X278034035Y-297857830D01*
X278133903Y-297643663D01*
X278195063Y-297415408D01*
X278215659Y-297180000D01*
X278195063Y-296944592D01*
X278158430Y-296807873D01*
X278152728Y-296786593D01*
X278154391Y-296716743D01*
X278193554Y-296658881D01*
X278257782Y-296631377D01*
X278272503Y-296630500D01*
X280636607Y-296630500D01*
X280697029Y-296618481D01*
X280757452Y-296606463D01*
X280757455Y-296606461D01*
X280757458Y-296606461D01*
X280790787Y-296592654D01*
X280790786Y-296592654D01*
X280790792Y-296592652D01*
X280871286Y-296559312D01*
X280942895Y-296511463D01*
X280973733Y-296490858D01*
X281060858Y-296403733D01*
X281060859Y-296403731D01*
X281067925Y-296396665D01*
X281067927Y-296396661D01*
X281182453Y-296282135D01*
X284399500Y-296282135D01*
X284399500Y-298077870D01*
X284399501Y-298077876D01*
X284405908Y-298137483D01*
X284456202Y-298272328D01*
X284456206Y-298272335D01*
X284542452Y-298387544D01*
X284542455Y-298387547D01*
X284657664Y-298473793D01*
X284657671Y-298473797D01*
X284792517Y-298524091D01*
X284792516Y-298524091D01*
X284799444Y-298524835D01*
X284852127Y-298530500D01*
X286647872Y-298530499D01*
X286707483Y-298524091D01*
X286842331Y-298473796D01*
X286957546Y-298387546D01*
X287043796Y-298272331D01*
X287093002Y-298140401D01*
X287134872Y-298084468D01*
X287200337Y-298060050D01*
X287268610Y-298074901D01*
X287296865Y-298096053D01*
X287418917Y-298218105D01*
X287612421Y-298353600D01*
X287826507Y-298453429D01*
X287826516Y-298453433D01*
X288040000Y-298510634D01*
X288040000Y-297613012D01*
X288097007Y-297645925D01*
X288224174Y-297680000D01*
X288355826Y-297680000D01*
X288482993Y-297645925D01*
X288540000Y-297613012D01*
X288540000Y-298510633D01*
X288753483Y-298453433D01*
X288753492Y-298453429D01*
X288967578Y-298353600D01*
X289161082Y-298218105D01*
X289328105Y-298051082D01*
X289463600Y-297857578D01*
X289563429Y-297643492D01*
X289563432Y-297643486D01*
X289620636Y-297430000D01*
X288723012Y-297430000D01*
X288755925Y-297372993D01*
X288790000Y-297245826D01*
X288790000Y-297114174D01*
X288755925Y-296987007D01*
X288723012Y-296930000D01*
X289620636Y-296930000D01*
X289620635Y-296929999D01*
X289563432Y-296716513D01*
X289563429Y-296716507D01*
X289463600Y-296502422D01*
X289463599Y-296502420D01*
X289328113Y-296308926D01*
X289328108Y-296308920D01*
X289161082Y-296141894D01*
X288967578Y-296006399D01*
X288753492Y-295906570D01*
X288753486Y-295906567D01*
X288540000Y-295849364D01*
X288540000Y-296746988D01*
X288482993Y-296714075D01*
X288355826Y-296680000D01*
X288224174Y-296680000D01*
X288097007Y-296714075D01*
X288040000Y-296746988D01*
X288040000Y-295849364D01*
X288039999Y-295849364D01*
X287826513Y-295906567D01*
X287826507Y-295906570D01*
X287612422Y-296006399D01*
X287612420Y-296006400D01*
X287418926Y-296141886D01*
X287296865Y-296263947D01*
X287235542Y-296297431D01*
X287165850Y-296292447D01*
X287109917Y-296250575D01*
X287093002Y-296219598D01*
X287043797Y-296087671D01*
X287043793Y-296087664D01*
X286957547Y-295972455D01*
X286957544Y-295972452D01*
X286842335Y-295886206D01*
X286842328Y-295886202D01*
X286707482Y-295835908D01*
X286707483Y-295835908D01*
X286647883Y-295829501D01*
X286647881Y-295829500D01*
X286647873Y-295829500D01*
X286647864Y-295829500D01*
X284852129Y-295829500D01*
X284852123Y-295829501D01*
X284792516Y-295835908D01*
X284657671Y-295886202D01*
X284657664Y-295886206D01*
X284542455Y-295972452D01*
X284542452Y-295972455D01*
X284456206Y-296087664D01*
X284456202Y-296087671D01*
X284405908Y-296222517D01*
X284399501Y-296282116D01*
X284399501Y-296282123D01*
X284399500Y-296282135D01*
X281182453Y-296282135D01*
X282824589Y-294640000D01*
X306434540Y-294640000D01*
X306454326Y-294828256D01*
X306454327Y-294828259D01*
X306512818Y-295008277D01*
X306512821Y-295008284D01*
X306607467Y-295172216D01*
X306699643Y-295274587D01*
X306734129Y-295312888D01*
X306887265Y-295424148D01*
X306887270Y-295424151D01*
X307060192Y-295501142D01*
X307060197Y-295501144D01*
X307245354Y-295540500D01*
X307245355Y-295540500D01*
X307434644Y-295540500D01*
X307434646Y-295540500D01*
X307619803Y-295501144D01*
X307792730Y-295424151D01*
X307792733Y-295424148D01*
X307798363Y-295420899D01*
X307799574Y-295422997D01*
X307855048Y-295403203D01*
X307862132Y-295403000D01*
X323327868Y-295403000D01*
X323391229Y-295421605D01*
X323391637Y-295420899D01*
X323394548Y-295422579D01*
X323394907Y-295422685D01*
X323395863Y-295423339D01*
X323397270Y-295424151D01*
X323570192Y-295501142D01*
X323570197Y-295501144D01*
X323755354Y-295540500D01*
X323755355Y-295540500D01*
X323944644Y-295540500D01*
X323944646Y-295540500D01*
X324129803Y-295501144D01*
X324302730Y-295424151D01*
X324455871Y-295312888D01*
X324582533Y-295172216D01*
X324677179Y-295008284D01*
X324735674Y-294828256D01*
X324755460Y-294640000D01*
X324735674Y-294451744D01*
X324677179Y-294271716D01*
X324582533Y-294107784D01*
X324455871Y-293967112D01*
X324449413Y-293962420D01*
X324302734Y-293855851D01*
X324302729Y-293855848D01*
X324129807Y-293778857D01*
X324129802Y-293778855D01*
X323984001Y-293747865D01*
X323944646Y-293739500D01*
X323755354Y-293739500D01*
X323722897Y-293746398D01*
X323570197Y-293778855D01*
X323570192Y-293778857D01*
X323397270Y-293855848D01*
X323391637Y-293859101D01*
X323390425Y-293857002D01*
X323334952Y-293876797D01*
X323327868Y-293877000D01*
X307862132Y-293877000D01*
X307798770Y-293858394D01*
X307798363Y-293859101D01*
X307795451Y-293857420D01*
X307795093Y-293857315D01*
X307794136Y-293856660D01*
X307792729Y-293855848D01*
X307619807Y-293778857D01*
X307619802Y-293778855D01*
X307474001Y-293747865D01*
X307434646Y-293739500D01*
X307245354Y-293739500D01*
X307212897Y-293746398D01*
X307060197Y-293778855D01*
X307060192Y-293778857D01*
X306887270Y-293855848D01*
X306887265Y-293855851D01*
X306734129Y-293967111D01*
X306607466Y-294107785D01*
X306512821Y-294271715D01*
X306512818Y-294271722D01*
X306455865Y-294447007D01*
X306454326Y-294451744D01*
X306434540Y-294640000D01*
X282824589Y-294640000D01*
X284702771Y-292761819D01*
X284764094Y-292728334D01*
X284790452Y-292725500D01*
X328991607Y-292725500D01*
X329052029Y-292713481D01*
X329112452Y-292701463D01*
X329162496Y-292680734D01*
X329226286Y-292654312D01*
X329277509Y-292620084D01*
X329328733Y-292585858D01*
X329415858Y-292498733D01*
X329415859Y-292498731D01*
X329422925Y-292491665D01*
X329422927Y-292491661D01*
X334087821Y-287826768D01*
X334149142Y-287793285D01*
X334218834Y-287798269D01*
X334274767Y-287840141D01*
X334299184Y-287905605D01*
X334299500Y-287914451D01*
X334299500Y-290536611D01*
X334323535Y-290657444D01*
X334323540Y-290657461D01*
X334370685Y-290771280D01*
X334370690Y-290771289D01*
X334404914Y-290822507D01*
X334404915Y-290822509D01*
X334439141Y-290873733D01*
X334530586Y-290965178D01*
X334530608Y-290965198D01*
X340243181Y-296677771D01*
X340276666Y-296739094D01*
X340279500Y-296765452D01*
X340279500Y-298077870D01*
X340279501Y-298077876D01*
X340285908Y-298137483D01*
X340336202Y-298272328D01*
X340336206Y-298272335D01*
X340422452Y-298387544D01*
X340422455Y-298387547D01*
X340537664Y-298473793D01*
X340537671Y-298473797D01*
X340672517Y-298524091D01*
X340672516Y-298524091D01*
X340679444Y-298524835D01*
X340732127Y-298530500D01*
X342527872Y-298530499D01*
X342587483Y-298524091D01*
X342722331Y-298473796D01*
X342837546Y-298387546D01*
X342923796Y-298272331D01*
X342972810Y-298140916D01*
X343014681Y-298084984D01*
X343080145Y-298060566D01*
X343148418Y-298075417D01*
X343176673Y-298096569D01*
X343298599Y-298218495D01*
X343395384Y-298286265D01*
X343492165Y-298354032D01*
X343492167Y-298354033D01*
X343492170Y-298354035D01*
X343706337Y-298453903D01*
X343706343Y-298453904D01*
X343706344Y-298453905D01*
X343745087Y-298464286D01*
X343934592Y-298515063D01*
X344111034Y-298530500D01*
X344169999Y-298535659D01*
X344170000Y-298535659D01*
X344170001Y-298535659D01*
X344228966Y-298530500D01*
X344405408Y-298515063D01*
X344633663Y-298453903D01*
X344847830Y-298354035D01*
X345041401Y-298218495D01*
X345208495Y-298051401D01*
X345338425Y-297865842D01*
X345393002Y-297822217D01*
X345462500Y-297815023D01*
X345524855Y-297846546D01*
X345541575Y-297865842D01*
X345671500Y-298051395D01*
X345671505Y-298051401D01*
X345838599Y-298218495D01*
X345935384Y-298286265D01*
X346032165Y-298354032D01*
X346032167Y-298354033D01*
X346032170Y-298354035D01*
X346246337Y-298453903D01*
X346246343Y-298453904D01*
X346246344Y-298453905D01*
X346285087Y-298464286D01*
X346474592Y-298515063D01*
X346651034Y-298530500D01*
X346709999Y-298535659D01*
X346710000Y-298535659D01*
X346710001Y-298535659D01*
X346768966Y-298530500D01*
X346945408Y-298515063D01*
X347173663Y-298453903D01*
X347387830Y-298354035D01*
X347581401Y-298218495D01*
X347748495Y-298051401D01*
X347884035Y-297857830D01*
X347983903Y-297643663D01*
X348045063Y-297415408D01*
X348065659Y-297180000D01*
X348055047Y-297058711D01*
X351209500Y-297058711D01*
X351209500Y-297301288D01*
X351241161Y-297541785D01*
X351303947Y-297776104D01*
X351337800Y-297857832D01*
X351396776Y-298000212D01*
X351518064Y-298210289D01*
X351518066Y-298210292D01*
X351518067Y-298210293D01*
X351665733Y-298402736D01*
X351665739Y-298402743D01*
X351837256Y-298574260D01*
X351837262Y-298574265D01*
X352029711Y-298721936D01*
X352239788Y-298843224D01*
X352463900Y-298936054D01*
X352698211Y-298998838D01*
X352878586Y-299022584D01*
X352938711Y-299030500D01*
X352938712Y-299030500D01*
X353181289Y-299030500D01*
X353229388Y-299024167D01*
X353421789Y-298998838D01*
X353656100Y-298936054D01*
X353880212Y-298843224D01*
X354090289Y-298721936D01*
X354282738Y-298574265D01*
X354454265Y-298402738D01*
X354601936Y-298210289D01*
X354723224Y-298000212D01*
X354816054Y-297776100D01*
X354878838Y-297541789D01*
X354910500Y-297301288D01*
X354910500Y-297058712D01*
X354878838Y-296818211D01*
X354816054Y-296583900D01*
X354723224Y-296359788D01*
X354601936Y-296149711D01*
X354454265Y-295957262D01*
X354454260Y-295957256D01*
X354282743Y-295785739D01*
X354282736Y-295785733D01*
X354090293Y-295638067D01*
X354090292Y-295638066D01*
X354090289Y-295638064D01*
X353880212Y-295516776D01*
X353878476Y-295516057D01*
X353656104Y-295423947D01*
X353421785Y-295361161D01*
X353181289Y-295329500D01*
X353181288Y-295329500D01*
X352938712Y-295329500D01*
X352938711Y-295329500D01*
X352698214Y-295361161D01*
X352463895Y-295423947D01*
X352239794Y-295516773D01*
X352239785Y-295516777D01*
X352029706Y-295638067D01*
X351837263Y-295785733D01*
X351837256Y-295785739D01*
X351665739Y-295957256D01*
X351665733Y-295957263D01*
X351518067Y-296149706D01*
X351518064Y-296149710D01*
X351518064Y-296149711D01*
X351501817Y-296177851D01*
X351396777Y-296359785D01*
X351396773Y-296359794D01*
X351303947Y-296583895D01*
X351241161Y-296818214D01*
X351209500Y-297058711D01*
X348055047Y-297058711D01*
X348045063Y-296944592D01*
X347983903Y-296716337D01*
X347884035Y-296502171D01*
X347878425Y-296494158D01*
X347748494Y-296308597D01*
X347581402Y-296141506D01*
X347581395Y-296141501D01*
X347387834Y-296005967D01*
X347387830Y-296005965D01*
X347387828Y-296005964D01*
X347173663Y-295906097D01*
X347173659Y-295906096D01*
X347173655Y-295906094D01*
X346945413Y-295844938D01*
X346945403Y-295844936D01*
X346710001Y-295824341D01*
X346709999Y-295824341D01*
X346474596Y-295844936D01*
X346474586Y-295844938D01*
X346246344Y-295906094D01*
X346246335Y-295906098D01*
X346032171Y-296005964D01*
X346032169Y-296005965D01*
X345838597Y-296141505D01*
X345671505Y-296308597D01*
X345541575Y-296494158D01*
X345486998Y-296537783D01*
X345417500Y-296544977D01*
X345355145Y-296513454D01*
X345338425Y-296494158D01*
X345208494Y-296308597D01*
X345041402Y-296141506D01*
X345041395Y-296141501D01*
X344847834Y-296005967D01*
X344847830Y-296005965D01*
X344847828Y-296005964D01*
X344633663Y-295906097D01*
X344633659Y-295906096D01*
X344633655Y-295906094D01*
X344405413Y-295844938D01*
X344405403Y-295844936D01*
X344170001Y-295824341D01*
X344169999Y-295824341D01*
X343934596Y-295844936D01*
X343934586Y-295844938D01*
X343706344Y-295906094D01*
X343706335Y-295906098D01*
X343492171Y-296005964D01*
X343492169Y-296005965D01*
X343298600Y-296141503D01*
X343176673Y-296263430D01*
X343115350Y-296296914D01*
X343045658Y-296291930D01*
X342989725Y-296250058D01*
X342972810Y-296219081D01*
X342923797Y-296087671D01*
X342923793Y-296087664D01*
X342837547Y-295972455D01*
X342837544Y-295972452D01*
X342722335Y-295886206D01*
X342722328Y-295886202D01*
X342587482Y-295835908D01*
X342587483Y-295835908D01*
X342527883Y-295829501D01*
X342527881Y-295829500D01*
X342527873Y-295829500D01*
X342527865Y-295829500D01*
X342379500Y-295829500D01*
X342312461Y-295809815D01*
X342266706Y-295757011D01*
X342255500Y-295705500D01*
X342255500Y-295195147D01*
X342275185Y-295128108D01*
X342291819Y-295107466D01*
X345364348Y-292034937D01*
X348453311Y-288945973D01*
X348514632Y-288912490D01*
X348584324Y-288917474D01*
X348633139Y-288950682D01*
X348644132Y-288962891D01*
X348644135Y-288962893D01*
X348797265Y-289074148D01*
X348797270Y-289074151D01*
X348970192Y-289151142D01*
X348970197Y-289151144D01*
X349155354Y-289190500D01*
X349155355Y-289190500D01*
X349344644Y-289190500D01*
X349344646Y-289190500D01*
X349529803Y-289151144D01*
X349702730Y-289074151D01*
X349706311Y-289071548D01*
X349772112Y-289048065D01*
X349840167Y-289063884D01*
X349843306Y-289065718D01*
X349955394Y-289133478D01*
X350117804Y-289184086D01*
X350188384Y-289190500D01*
X350188387Y-289190500D01*
X350851613Y-289190500D01*
X350851616Y-289190500D01*
X350922196Y-289184086D01*
X351084606Y-289133478D01*
X351230185Y-289045472D01*
X351350472Y-288925185D01*
X351438478Y-288779606D01*
X351489086Y-288617196D01*
X351495500Y-288546616D01*
X351495500Y-288033384D01*
X351489086Y-287962804D01*
X351438478Y-287800394D01*
X351350472Y-287654815D01*
X351350470Y-287654813D01*
X351350469Y-287654811D01*
X351248339Y-287552681D01*
X351214854Y-287491358D01*
X351219838Y-287421666D01*
X351248339Y-287377319D01*
X351350468Y-287275189D01*
X351350469Y-287275188D01*
X351350472Y-287275185D01*
X351438478Y-287129606D01*
X351489086Y-286967196D01*
X351495500Y-286896616D01*
X351495500Y-286664500D01*
X351515185Y-286597461D01*
X351567989Y-286551706D01*
X351619500Y-286540500D01*
X353368286Y-286540500D01*
X353435325Y-286560185D01*
X353481080Y-286612989D01*
X353491024Y-286682147D01*
X353486217Y-286702816D01*
X353480931Y-286719086D01*
X353464882Y-286768481D01*
X353444326Y-286831744D01*
X353424540Y-287020000D01*
X353444326Y-287208256D01*
X353444327Y-287208259D01*
X353502818Y-287388277D01*
X353502821Y-287388284D01*
X353597467Y-287552216D01*
X353689844Y-287654811D01*
X353724129Y-287692888D01*
X353877265Y-287804148D01*
X353877270Y-287804151D01*
X354050192Y-287881142D01*
X354050197Y-287881144D01*
X354235354Y-287920500D01*
X354294548Y-287920500D01*
X354361587Y-287940185D01*
X354382229Y-287956819D01*
X362821263Y-296395855D01*
X362821267Y-296395858D01*
X362923708Y-296464308D01*
X362923715Y-296464312D01*
X362987801Y-296490857D01*
X363037548Y-296511463D01*
X363057597Y-296515451D01*
X363091196Y-296522134D01*
X363158392Y-296535501D01*
X363158394Y-296535501D01*
X363287721Y-296535501D01*
X363287741Y-296535500D01*
X366825501Y-296535500D01*
X366892540Y-296555185D01*
X366938295Y-296607989D01*
X366949501Y-296659500D01*
X366949501Y-296807876D01*
X366955908Y-296867483D01*
X367006202Y-297002328D01*
X367006206Y-297002335D01*
X367092452Y-297117544D01*
X367092455Y-297117547D01*
X367207664Y-297203793D01*
X367207671Y-297203797D01*
X367342517Y-297254091D01*
X367342516Y-297254091D01*
X367349444Y-297254835D01*
X367402127Y-297260500D01*
X369197872Y-297260499D01*
X369257483Y-297254091D01*
X369279643Y-297245826D01*
X369400641Y-297200697D01*
X369401740Y-297203645D01*
X369454812Y-297192086D01*
X369520283Y-297216485D01*
X369562170Y-297272407D01*
X369570000Y-297315772D01*
X369570000Y-299596000D01*
X369550315Y-299663039D01*
X369497511Y-299708794D01*
X369446000Y-299720000D01*
X366085572Y-299720000D01*
X366018533Y-299700315D01*
X365997895Y-299683685D01*
X365925908Y-299611698D01*
X365925907Y-299611697D01*
X365925906Y-299611696D01*
X365770237Y-299507681D01*
X365770228Y-299507676D01*
X365597251Y-299436027D01*
X365597243Y-299436025D01*
X365413620Y-299399500D01*
X365413616Y-299399500D01*
X365226384Y-299399500D01*
X365226379Y-299399500D01*
X365042756Y-299436025D01*
X365042748Y-299436027D01*
X364869771Y-299507676D01*
X364869762Y-299507681D01*
X364714093Y-299611696D01*
X364686456Y-299639334D01*
X364642107Y-299683682D01*
X364580787Y-299717166D01*
X364554428Y-299720000D01*
X359485572Y-299720000D01*
X359418533Y-299700315D01*
X359397895Y-299683685D01*
X359325908Y-299611698D01*
X359325907Y-299611697D01*
X359325906Y-299611696D01*
X359170237Y-299507681D01*
X359170228Y-299507676D01*
X358997251Y-299436027D01*
X358997243Y-299436025D01*
X358813620Y-299399500D01*
X358813616Y-299399500D01*
X358626384Y-299399500D01*
X358626379Y-299399500D01*
X358442756Y-299436025D01*
X358442748Y-299436027D01*
X358269771Y-299507676D01*
X358269762Y-299507681D01*
X358114093Y-299611696D01*
X358086456Y-299639334D01*
X358042107Y-299683682D01*
X357980787Y-299717166D01*
X357954428Y-299720000D01*
X325912250Y-299720000D01*
X325845211Y-299700315D01*
X325799456Y-299647511D01*
X325789512Y-299578353D01*
X325818537Y-299514797D01*
X325824569Y-299508319D01*
X326679030Y-298653858D01*
X327541412Y-297791475D01*
X327602733Y-297757992D01*
X327672425Y-297762976D01*
X327728358Y-297804848D01*
X327741472Y-297826751D01*
X327755847Y-297857578D01*
X327755966Y-297857832D01*
X327761575Y-297865842D01*
X327891505Y-298051401D01*
X328058599Y-298218495D01*
X328155384Y-298286265D01*
X328252165Y-298354032D01*
X328252167Y-298354033D01*
X328252170Y-298354035D01*
X328466337Y-298453903D01*
X328466343Y-298453904D01*
X328466344Y-298453905D01*
X328505087Y-298464286D01*
X328694592Y-298515063D01*
X328871034Y-298530500D01*
X328929999Y-298535659D01*
X328930000Y-298535659D01*
X328930001Y-298535659D01*
X328988966Y-298530500D01*
X329165408Y-298515063D01*
X329393663Y-298453903D01*
X329607830Y-298354035D01*
X329801401Y-298218495D01*
X329968495Y-298051401D01*
X330098425Y-297865842D01*
X330153002Y-297822217D01*
X330222500Y-297815023D01*
X330284855Y-297846546D01*
X330301575Y-297865842D01*
X330431500Y-298051395D01*
X330431505Y-298051401D01*
X330598599Y-298218495D01*
X330695384Y-298286265D01*
X330792165Y-298354032D01*
X330792167Y-298354033D01*
X330792170Y-298354035D01*
X331006337Y-298453903D01*
X331006343Y-298453904D01*
X331006344Y-298453905D01*
X331045087Y-298464286D01*
X331234592Y-298515063D01*
X331411034Y-298530500D01*
X331469999Y-298535659D01*
X331470000Y-298535659D01*
X331470001Y-298535659D01*
X331528966Y-298530500D01*
X331705408Y-298515063D01*
X331933663Y-298453903D01*
X332147830Y-298354035D01*
X332341401Y-298218495D01*
X332463329Y-298096566D01*
X332524648Y-298063084D01*
X332594340Y-298068068D01*
X332650274Y-298109939D01*
X332667189Y-298140917D01*
X332716202Y-298272328D01*
X332716206Y-298272335D01*
X332802452Y-298387544D01*
X332802455Y-298387547D01*
X332917664Y-298473793D01*
X332917671Y-298473797D01*
X333052517Y-298524091D01*
X333052516Y-298524091D01*
X333059444Y-298524835D01*
X333112127Y-298530500D01*
X334907872Y-298530499D01*
X334967483Y-298524091D01*
X335102331Y-298473796D01*
X335217546Y-298387546D01*
X335303796Y-298272331D01*
X335354091Y-298137483D01*
X335360500Y-298077873D01*
X335360499Y-296282128D01*
X335354091Y-296222517D01*
X335353002Y-296219598D01*
X335303797Y-296087671D01*
X335303793Y-296087664D01*
X335217547Y-295972455D01*
X335217544Y-295972452D01*
X335102335Y-295886206D01*
X335102328Y-295886202D01*
X334967482Y-295835908D01*
X334967483Y-295835908D01*
X334907883Y-295829501D01*
X334907881Y-295829500D01*
X334907873Y-295829500D01*
X334907864Y-295829500D01*
X333112129Y-295829500D01*
X333112123Y-295829501D01*
X333052516Y-295835908D01*
X332917671Y-295886202D01*
X332917664Y-295886206D01*
X332802455Y-295972452D01*
X332802452Y-295972455D01*
X332716206Y-296087664D01*
X332716203Y-296087669D01*
X332667189Y-296219083D01*
X332625317Y-296275016D01*
X332559853Y-296299433D01*
X332491580Y-296284581D01*
X332463326Y-296263430D01*
X332341402Y-296141506D01*
X332341395Y-296141501D01*
X332147834Y-296005967D01*
X332147830Y-296005965D01*
X332147828Y-296005964D01*
X331933663Y-295906097D01*
X331933659Y-295906096D01*
X331933655Y-295906094D01*
X331705413Y-295844938D01*
X331705403Y-295844936D01*
X331470001Y-295824341D01*
X331469999Y-295824341D01*
X331234596Y-295844936D01*
X331234586Y-295844938D01*
X331006344Y-295906094D01*
X331006335Y-295906098D01*
X330792171Y-296005964D01*
X330792169Y-296005965D01*
X330598597Y-296141505D01*
X330431505Y-296308597D01*
X330301575Y-296494158D01*
X330246998Y-296537783D01*
X330177500Y-296544977D01*
X330115145Y-296513454D01*
X330098425Y-296494158D01*
X329968494Y-296308597D01*
X329801402Y-296141506D01*
X329801395Y-296141501D01*
X329607832Y-296005966D01*
X329576752Y-295991473D01*
X329524313Y-295945300D01*
X329505162Y-295878106D01*
X329525378Y-295811225D01*
X329541472Y-295791415D01*
X332571071Y-292761819D01*
X332632394Y-292728334D01*
X332658752Y-292725500D01*
X333306252Y-292725500D01*
X333373291Y-292745185D01*
X333398400Y-292766526D01*
X333404126Y-292772885D01*
X333404130Y-292772889D01*
X333557265Y-292884148D01*
X333557270Y-292884151D01*
X333730192Y-292961142D01*
X333730197Y-292961144D01*
X333915354Y-293000500D01*
X333915355Y-293000500D01*
X334104644Y-293000500D01*
X334104646Y-293000500D01*
X334289803Y-292961144D01*
X334462730Y-292884151D01*
X334615871Y-292772888D01*
X334742533Y-292632216D01*
X334837179Y-292468284D01*
X334895674Y-292288256D01*
X334915460Y-292100000D01*
X334895674Y-291911744D01*
X334837179Y-291731716D01*
X334742533Y-291567784D01*
X334615871Y-291427112D01*
X334615870Y-291427111D01*
X334462734Y-291315851D01*
X334462729Y-291315848D01*
X334289807Y-291238857D01*
X334289802Y-291238855D01*
X334144001Y-291207865D01*
X334104646Y-291199500D01*
X333915354Y-291199500D01*
X333882897Y-291206398D01*
X333730197Y-291238855D01*
X333730192Y-291238857D01*
X333557270Y-291315848D01*
X333557265Y-291315851D01*
X333404130Y-291427110D01*
X333404126Y-291427114D01*
X333398400Y-291433474D01*
X333338913Y-291470121D01*
X333306252Y-291474500D01*
X332286688Y-291474500D01*
X332226270Y-291486518D01*
X332165847Y-291498537D01*
X332165845Y-291498537D01*
X332165844Y-291498538D01*
X332165842Y-291498538D01*
X332064427Y-291540545D01*
X332064428Y-291540546D01*
X332052013Y-291545688D01*
X331949564Y-291614142D01*
X331949561Y-291614145D01*
X324505528Y-299058181D01*
X324444205Y-299091666D01*
X324417847Y-299094500D01*
X298760453Y-299094500D01*
X298693414Y-299074815D01*
X298672772Y-299058181D01*
X298236319Y-298621728D01*
X298202834Y-298560405D01*
X298200000Y-298534047D01*
X298200000Y-297613012D01*
X298257007Y-297645925D01*
X298384174Y-297680000D01*
X298515826Y-297680000D01*
X298642993Y-297645925D01*
X298700000Y-297613012D01*
X298700000Y-298510633D01*
X298913483Y-298453433D01*
X298913492Y-298453429D01*
X299127578Y-298353600D01*
X299321082Y-298218105D01*
X299488105Y-298051082D01*
X299623600Y-297857578D01*
X299723429Y-297643492D01*
X299723432Y-297643486D01*
X299780636Y-297430000D01*
X298883012Y-297430000D01*
X298915925Y-297372993D01*
X298950000Y-297245826D01*
X298950000Y-297114174D01*
X298915925Y-296987007D01*
X298883012Y-296930000D01*
X299780636Y-296930000D01*
X299780635Y-296929999D01*
X299723432Y-296716513D01*
X299723429Y-296716507D01*
X299623600Y-296502422D01*
X299623599Y-296502420D01*
X299488113Y-296308926D01*
X299488108Y-296308920D01*
X299461323Y-296282135D01*
X304719500Y-296282135D01*
X304719500Y-298077870D01*
X304719501Y-298077876D01*
X304725908Y-298137483D01*
X304776202Y-298272328D01*
X304776206Y-298272335D01*
X304862452Y-298387544D01*
X304862455Y-298387547D01*
X304977664Y-298473793D01*
X304977671Y-298473797D01*
X305112517Y-298524091D01*
X305112516Y-298524091D01*
X305119444Y-298524835D01*
X305172127Y-298530500D01*
X306967872Y-298530499D01*
X307027483Y-298524091D01*
X307162331Y-298473796D01*
X307277546Y-298387546D01*
X307363796Y-298272331D01*
X307413002Y-298140401D01*
X307454872Y-298084468D01*
X307520337Y-298060050D01*
X307588610Y-298074901D01*
X307616865Y-298096053D01*
X307738917Y-298218105D01*
X307932421Y-298353600D01*
X308146507Y-298453429D01*
X308146516Y-298453433D01*
X308360000Y-298510634D01*
X308360000Y-297613012D01*
X308417007Y-297645925D01*
X308544174Y-297680000D01*
X308675826Y-297680000D01*
X308802993Y-297645925D01*
X308860000Y-297613012D01*
X308860000Y-298510634D01*
X309073483Y-298453433D01*
X309073492Y-298453429D01*
X309287578Y-298353600D01*
X309481082Y-298218105D01*
X309648105Y-298051082D01*
X309783600Y-297857578D01*
X309883429Y-297643492D01*
X309883432Y-297643486D01*
X309940636Y-297430000D01*
X309043012Y-297430000D01*
X309075925Y-297372993D01*
X309110000Y-297245826D01*
X309110000Y-297179999D01*
X314859341Y-297179999D01*
X314859341Y-297180000D01*
X314879936Y-297415403D01*
X314879938Y-297415413D01*
X314941094Y-297643655D01*
X314941096Y-297643659D01*
X314941097Y-297643663D01*
X315010024Y-297791477D01*
X315040965Y-297857830D01*
X315040967Y-297857834D01*
X315140657Y-298000205D01*
X315176505Y-298051401D01*
X315343599Y-298218495D01*
X315440384Y-298286265D01*
X315537165Y-298354032D01*
X315537167Y-298354033D01*
X315537170Y-298354035D01*
X315751337Y-298453903D01*
X315751343Y-298453904D01*
X315751344Y-298453905D01*
X315790087Y-298464286D01*
X315979592Y-298515063D01*
X316156034Y-298530500D01*
X316214999Y-298535659D01*
X316215000Y-298535659D01*
X316215001Y-298535659D01*
X316273966Y-298530500D01*
X316450408Y-298515063D01*
X316678663Y-298453903D01*
X316892830Y-298354035D01*
X317086401Y-298218495D01*
X317253495Y-298051401D01*
X317383425Y-297865842D01*
X317438002Y-297822217D01*
X317507500Y-297815023D01*
X317569855Y-297846546D01*
X317586575Y-297865842D01*
X317716500Y-298051395D01*
X317716505Y-298051401D01*
X317883599Y-298218495D01*
X317980384Y-298286265D01*
X318077165Y-298354032D01*
X318077167Y-298354033D01*
X318077170Y-298354035D01*
X318291337Y-298453903D01*
X318291343Y-298453904D01*
X318291344Y-298453905D01*
X318330087Y-298464286D01*
X318519592Y-298515063D01*
X318696034Y-298530500D01*
X318754999Y-298535659D01*
X318755000Y-298535659D01*
X318755001Y-298535659D01*
X318813966Y-298530500D01*
X318990408Y-298515063D01*
X319218663Y-298453903D01*
X319432830Y-298354035D01*
X319626401Y-298218495D01*
X319748329Y-298096566D01*
X319809648Y-298063084D01*
X319879340Y-298068068D01*
X319935274Y-298109939D01*
X319952189Y-298140917D01*
X320001202Y-298272328D01*
X320001206Y-298272335D01*
X320087452Y-298387544D01*
X320087455Y-298387547D01*
X320202664Y-298473793D01*
X320202671Y-298473797D01*
X320337517Y-298524091D01*
X320337516Y-298524091D01*
X320344444Y-298524835D01*
X320397127Y-298530500D01*
X322192872Y-298530499D01*
X322252483Y-298524091D01*
X322387331Y-298473796D01*
X322502546Y-298387546D01*
X322588796Y-298272331D01*
X322639091Y-298137483D01*
X322645500Y-298077873D01*
X322645499Y-296282128D01*
X322639091Y-296222517D01*
X322638002Y-296219598D01*
X322588797Y-296087671D01*
X322588793Y-296087664D01*
X322502547Y-295972455D01*
X322502544Y-295972452D01*
X322387335Y-295886206D01*
X322387328Y-295886202D01*
X322252482Y-295835908D01*
X322252483Y-295835908D01*
X322192883Y-295829501D01*
X322192881Y-295829500D01*
X322192873Y-295829500D01*
X322192864Y-295829500D01*
X320397129Y-295829500D01*
X320397123Y-295829501D01*
X320337516Y-295835908D01*
X320202671Y-295886202D01*
X320202664Y-295886206D01*
X320087455Y-295972452D01*
X320087452Y-295972455D01*
X320001206Y-296087664D01*
X320001203Y-296087669D01*
X319952189Y-296219083D01*
X319910317Y-296275016D01*
X319844853Y-296299433D01*
X319776580Y-296284581D01*
X319748326Y-296263430D01*
X319626402Y-296141506D01*
X319626395Y-296141501D01*
X319432834Y-296005967D01*
X319432830Y-296005965D01*
X319432828Y-296005964D01*
X319218663Y-295906097D01*
X319218659Y-295906096D01*
X319218655Y-295906094D01*
X318990413Y-295844938D01*
X318990403Y-295844936D01*
X318755001Y-295824341D01*
X318754999Y-295824341D01*
X318519596Y-295844936D01*
X318519586Y-295844938D01*
X318291344Y-295906094D01*
X318291335Y-295906098D01*
X318077171Y-296005964D01*
X318077169Y-296005965D01*
X317883597Y-296141505D01*
X317716505Y-296308597D01*
X317586575Y-296494158D01*
X317531998Y-296537783D01*
X317462500Y-296544977D01*
X317400145Y-296513454D01*
X317383425Y-296494158D01*
X317253494Y-296308597D01*
X317086402Y-296141506D01*
X317086395Y-296141501D01*
X316892834Y-296005967D01*
X316892830Y-296005965D01*
X316892828Y-296005964D01*
X316678663Y-295906097D01*
X316678659Y-295906096D01*
X316678655Y-295906094D01*
X316450413Y-295844938D01*
X316450403Y-295844936D01*
X316215001Y-295824341D01*
X316214999Y-295824341D01*
X315979596Y-295844936D01*
X315979586Y-295844938D01*
X315751344Y-295906094D01*
X315751335Y-295906098D01*
X315537171Y-296005964D01*
X315537169Y-296005965D01*
X315343597Y-296141505D01*
X315176505Y-296308597D01*
X315040965Y-296502169D01*
X315040964Y-296502171D01*
X314941098Y-296716335D01*
X314941094Y-296716344D01*
X314879938Y-296944586D01*
X314879936Y-296944596D01*
X314859341Y-297179999D01*
X309110000Y-297179999D01*
X309110000Y-297114174D01*
X309075925Y-296987007D01*
X309043012Y-296930000D01*
X309940636Y-296930000D01*
X309940635Y-296929999D01*
X309883432Y-296716513D01*
X309883429Y-296716507D01*
X309783600Y-296502422D01*
X309783599Y-296502420D01*
X309648113Y-296308926D01*
X309648108Y-296308920D01*
X309481082Y-296141894D01*
X309287578Y-296006399D01*
X309073492Y-295906570D01*
X309073486Y-295906567D01*
X308860000Y-295849364D01*
X308860000Y-296746988D01*
X308802993Y-296714075D01*
X308675826Y-296680000D01*
X308544174Y-296680000D01*
X308417007Y-296714075D01*
X308360000Y-296746988D01*
X308360000Y-295849364D01*
X308359999Y-295849364D01*
X308146513Y-295906567D01*
X308146507Y-295906570D01*
X307932422Y-296006399D01*
X307932420Y-296006400D01*
X307738926Y-296141886D01*
X307616865Y-296263947D01*
X307555542Y-296297431D01*
X307485850Y-296292447D01*
X307429917Y-296250575D01*
X307413002Y-296219598D01*
X307363797Y-296087671D01*
X307363793Y-296087664D01*
X307277547Y-295972455D01*
X307277544Y-295972452D01*
X307162335Y-295886206D01*
X307162328Y-295886202D01*
X307027482Y-295835908D01*
X307027483Y-295835908D01*
X306967883Y-295829501D01*
X306967881Y-295829500D01*
X306967873Y-295829500D01*
X306967864Y-295829500D01*
X305172129Y-295829500D01*
X305172123Y-295829501D01*
X305112516Y-295835908D01*
X304977671Y-295886202D01*
X304977664Y-295886206D01*
X304862455Y-295972452D01*
X304862452Y-295972455D01*
X304776206Y-296087664D01*
X304776202Y-296087671D01*
X304725908Y-296222517D01*
X304719501Y-296282116D01*
X304719501Y-296282123D01*
X304719500Y-296282135D01*
X299461323Y-296282135D01*
X299321082Y-296141894D01*
X299127578Y-296006399D01*
X298913492Y-295906570D01*
X298913486Y-295906567D01*
X298700000Y-295849364D01*
X298700000Y-296746988D01*
X298642993Y-296714075D01*
X298515826Y-296680000D01*
X298384174Y-296680000D01*
X298257007Y-296714075D01*
X298200000Y-296746988D01*
X298200000Y-295849364D01*
X298199999Y-295849364D01*
X297986513Y-295906567D01*
X297986507Y-295906570D01*
X297772422Y-296006399D01*
X297772420Y-296006400D01*
X297578926Y-296141886D01*
X297456865Y-296263947D01*
X297395542Y-296297431D01*
X297325850Y-296292447D01*
X297269917Y-296250575D01*
X297253002Y-296219598D01*
X297203797Y-296087671D01*
X297203793Y-296087664D01*
X297117547Y-295972455D01*
X297117544Y-295972452D01*
X297002335Y-295886206D01*
X297002328Y-295886202D01*
X296867482Y-295835908D01*
X296867483Y-295835908D01*
X296807883Y-295829501D01*
X296807881Y-295829500D01*
X296807873Y-295829500D01*
X296807864Y-295829500D01*
X295012129Y-295829500D01*
X295012123Y-295829501D01*
X294952516Y-295835908D01*
X294817671Y-295886202D01*
X294817664Y-295886206D01*
X294702455Y-295972452D01*
X294702452Y-295972455D01*
X294616206Y-296087664D01*
X294616202Y-296087671D01*
X294565908Y-296222517D01*
X294559501Y-296282116D01*
X294559501Y-296282123D01*
X294559500Y-296282135D01*
X294559500Y-298077870D01*
X294559501Y-298077876D01*
X294565908Y-298137483D01*
X294616202Y-298272328D01*
X294616206Y-298272335D01*
X294702452Y-298387544D01*
X294702455Y-298387547D01*
X294817664Y-298473793D01*
X294817671Y-298473797D01*
X294952517Y-298524091D01*
X294952516Y-298524091D01*
X294959444Y-298524835D01*
X295012127Y-298530500D01*
X296324546Y-298530499D01*
X296391585Y-298550184D01*
X296412227Y-298566818D01*
X297353728Y-299508319D01*
X297387213Y-299569642D01*
X297382229Y-299639334D01*
X297340357Y-299695267D01*
X297274893Y-299719684D01*
X297266047Y-299720000D01*
X264284000Y-299720000D01*
X264216961Y-299700315D01*
X264171206Y-299647511D01*
X264160000Y-299596000D01*
X264160000Y-287020000D01*
X265256941Y-287020000D01*
X265277157Y-287328439D01*
X265277159Y-287328451D01*
X265337458Y-287631597D01*
X265337462Y-287631612D01*
X265436816Y-287924299D01*
X265436825Y-287924320D01*
X265573528Y-288201526D01*
X265745257Y-288458537D01*
X265745262Y-288458543D01*
X265783872Y-288502571D01*
X265783875Y-288502571D01*
X266504728Y-287781717D01*
X266590278Y-287899466D01*
X266740534Y-288049722D01*
X266858281Y-288135270D01*
X266137427Y-288856123D01*
X266137427Y-288856124D01*
X266181463Y-288894742D01*
X266438473Y-289066471D01*
X266715679Y-289203174D01*
X266715700Y-289203183D01*
X267008387Y-289302537D01*
X267008402Y-289302541D01*
X267311548Y-289362840D01*
X267311560Y-289362842D01*
X267620000Y-289383058D01*
X267928439Y-289362842D01*
X267928451Y-289362840D01*
X268231597Y-289302541D01*
X268231612Y-289302537D01*
X268524299Y-289203183D01*
X268524320Y-289203174D01*
X268801526Y-289066471D01*
X269058540Y-288894740D01*
X269102571Y-288856125D01*
X269102571Y-288856124D01*
X268381717Y-288135270D01*
X268499466Y-288049722D01*
X268649722Y-287899466D01*
X268735270Y-287781717D01*
X269456124Y-288502571D01*
X269456125Y-288502571D01*
X269494740Y-288458540D01*
X269666471Y-288201526D01*
X269803174Y-287924320D01*
X269803183Y-287924299D01*
X269902537Y-287631612D01*
X269902541Y-287631597D01*
X269962840Y-287328451D01*
X269962842Y-287328439D01*
X269983058Y-287020000D01*
X269962842Y-286711560D01*
X269962840Y-286711548D01*
X269902541Y-286408402D01*
X269902537Y-286408387D01*
X269803183Y-286115700D01*
X269803174Y-286115679D01*
X269666474Y-285838480D01*
X269666465Y-285838465D01*
X269494742Y-285581463D01*
X269456124Y-285537427D01*
X269456123Y-285537427D01*
X268735269Y-286258281D01*
X268649722Y-286140534D01*
X268499466Y-285990278D01*
X268381717Y-285904729D01*
X269102571Y-285183875D01*
X269102571Y-285183872D01*
X269058543Y-285145262D01*
X269058537Y-285145257D01*
X268801526Y-284973528D01*
X268524320Y-284836825D01*
X268524299Y-284836816D01*
X268231612Y-284737462D01*
X268231597Y-284737458D01*
X267928451Y-284677159D01*
X267928439Y-284677157D01*
X267620000Y-284656941D01*
X267311560Y-284677157D01*
X267311548Y-284677159D01*
X267008402Y-284737458D01*
X267008387Y-284737462D01*
X266715700Y-284836816D01*
X266715679Y-284836825D01*
X266438480Y-284973525D01*
X266438465Y-284973534D01*
X266181459Y-285145260D01*
X266181452Y-285145265D01*
X266137427Y-285183872D01*
X266137427Y-285183874D01*
X266858282Y-285904729D01*
X266740534Y-285990278D01*
X266590278Y-286140534D01*
X266504729Y-286258282D01*
X265783874Y-285537427D01*
X265783872Y-285537427D01*
X265745265Y-285581452D01*
X265745260Y-285581459D01*
X265573534Y-285838465D01*
X265573525Y-285838480D01*
X265436825Y-286115679D01*
X265436816Y-286115700D01*
X265337462Y-286408387D01*
X265337458Y-286408402D01*
X265277159Y-286711548D01*
X265277157Y-286711560D01*
X265256941Y-287020000D01*
X264160000Y-287020000D01*
X264160000Y-277914135D01*
X265261500Y-277914135D01*
X265261500Y-281725870D01*
X265261501Y-281725876D01*
X265267908Y-281785483D01*
X265318202Y-281920328D01*
X265318206Y-281920335D01*
X265404452Y-282035544D01*
X265404455Y-282035547D01*
X265519664Y-282121793D01*
X265519671Y-282121797D01*
X265654517Y-282172091D01*
X265654516Y-282172091D01*
X265661444Y-282172835D01*
X265714127Y-282178500D01*
X269525872Y-282178499D01*
X269585483Y-282172091D01*
X269720331Y-282121796D01*
X269835546Y-282035546D01*
X269921796Y-281920331D01*
X269972091Y-281785483D01*
X269978500Y-281725873D01*
X269978499Y-277914128D01*
X269972091Y-277854517D01*
X269949275Y-277793345D01*
X269921797Y-277719671D01*
X269921793Y-277719664D01*
X269835547Y-277604455D01*
X269835544Y-277604452D01*
X269720335Y-277518206D01*
X269720328Y-277518202D01*
X269585482Y-277467908D01*
X269585483Y-277467908D01*
X269525883Y-277461501D01*
X269525881Y-277461500D01*
X269525873Y-277461500D01*
X269525864Y-277461500D01*
X265714129Y-277461500D01*
X265714123Y-277461501D01*
X265654516Y-277467908D01*
X265519671Y-277518202D01*
X265519664Y-277518206D01*
X265404455Y-277604452D01*
X265404452Y-277604455D01*
X265318206Y-277719664D01*
X265318202Y-277719671D01*
X265267908Y-277854517D01*
X265261501Y-277914116D01*
X265261501Y-277914123D01*
X265261500Y-277914135D01*
X264160000Y-277914135D01*
X264160000Y-265620000D01*
X265256941Y-265620000D01*
X265277157Y-265928439D01*
X265277159Y-265928451D01*
X265337458Y-266231597D01*
X265337462Y-266231612D01*
X265436816Y-266524299D01*
X265436825Y-266524320D01*
X265573528Y-266801526D01*
X265745257Y-267058537D01*
X265745262Y-267058543D01*
X265783872Y-267102571D01*
X265783875Y-267102571D01*
X266504728Y-266381717D01*
X266590278Y-266499466D01*
X266740534Y-266649722D01*
X266858281Y-266735270D01*
X266137427Y-267456123D01*
X266137427Y-267456124D01*
X266181463Y-267494742D01*
X266438473Y-267666471D01*
X266715679Y-267803174D01*
X266715700Y-267803183D01*
X267008387Y-267902537D01*
X267008402Y-267902541D01*
X267311548Y-267962840D01*
X267311560Y-267962842D01*
X267620000Y-267983058D01*
X267928439Y-267962842D01*
X267928451Y-267962840D01*
X268231597Y-267902541D01*
X268231612Y-267902537D01*
X268524299Y-267803183D01*
X268524320Y-267803174D01*
X268801526Y-267666471D01*
X269058540Y-267494740D01*
X269102571Y-267456125D01*
X269102571Y-267456124D01*
X268381717Y-266735270D01*
X268499466Y-266649722D01*
X268649722Y-266499466D01*
X268735270Y-266381717D01*
X269456124Y-267102571D01*
X269456125Y-267102571D01*
X269494740Y-267058540D01*
X269666471Y-266801526D01*
X269803174Y-266524320D01*
X269803183Y-266524299D01*
X269902537Y-266231612D01*
X269902541Y-266231597D01*
X269962840Y-265928451D01*
X269962842Y-265928439D01*
X269983058Y-265620000D01*
X269962842Y-265311560D01*
X269962840Y-265311548D01*
X269902541Y-265008402D01*
X269902537Y-265008387D01*
X269803183Y-264715700D01*
X269803174Y-264715679D01*
X269666474Y-264438480D01*
X269666465Y-264438465D01*
X269494742Y-264181463D01*
X269456124Y-264137427D01*
X269456123Y-264137427D01*
X268735269Y-264858281D01*
X268649722Y-264740534D01*
X268499466Y-264590278D01*
X268381717Y-264504729D01*
X269102571Y-263783875D01*
X269102571Y-263783872D01*
X269058543Y-263745262D01*
X269058537Y-263745257D01*
X268801526Y-263573528D01*
X268524320Y-263436825D01*
X268524299Y-263436816D01*
X268231612Y-263337462D01*
X268231597Y-263337458D01*
X267928451Y-263277159D01*
X267928439Y-263277157D01*
X267620000Y-263256941D01*
X267311560Y-263277157D01*
X267311548Y-263277159D01*
X267008402Y-263337458D01*
X267008387Y-263337462D01*
X266715700Y-263436816D01*
X266715679Y-263436825D01*
X266438480Y-263573525D01*
X266438465Y-263573534D01*
X266181459Y-263745260D01*
X266181452Y-263745265D01*
X266137427Y-263783872D01*
X266137427Y-263783874D01*
X266858282Y-264504729D01*
X266740534Y-264590278D01*
X266590278Y-264740534D01*
X266504729Y-264858282D01*
X265783874Y-264137427D01*
X265783872Y-264137427D01*
X265745265Y-264181452D01*
X265745260Y-264181459D01*
X265573534Y-264438465D01*
X265573525Y-264438480D01*
X265436825Y-264715679D01*
X265436816Y-264715700D01*
X265337462Y-265008387D01*
X265337458Y-265008402D01*
X265277159Y-265311548D01*
X265277157Y-265311560D01*
X265256941Y-265620000D01*
X264160000Y-265620000D01*
X264160000Y-256514135D01*
X265261500Y-256514135D01*
X265261500Y-260325870D01*
X265261501Y-260325876D01*
X265267908Y-260385483D01*
X265318202Y-260520328D01*
X265318206Y-260520335D01*
X265404452Y-260635544D01*
X265404455Y-260635547D01*
X265519664Y-260721793D01*
X265519671Y-260721797D01*
X265654517Y-260772091D01*
X265654516Y-260772091D01*
X265661444Y-260772835D01*
X265714127Y-260778500D01*
X269525872Y-260778499D01*
X269585483Y-260772091D01*
X269720331Y-260721796D01*
X269835546Y-260635546D01*
X269921796Y-260520331D01*
X269972091Y-260385483D01*
X269978500Y-260325873D01*
X269978499Y-256514128D01*
X269972091Y-256454517D01*
X269921796Y-256319669D01*
X269921795Y-256319668D01*
X269921793Y-256319664D01*
X269835547Y-256204455D01*
X269835544Y-256204452D01*
X269720335Y-256118206D01*
X269720328Y-256118202D01*
X269585482Y-256067908D01*
X269585483Y-256067908D01*
X269525883Y-256061501D01*
X269525881Y-256061500D01*
X269525873Y-256061500D01*
X269525864Y-256061500D01*
X265714129Y-256061500D01*
X265714123Y-256061501D01*
X265654516Y-256067908D01*
X265519671Y-256118202D01*
X265519664Y-256118206D01*
X265404455Y-256204452D01*
X265404452Y-256204455D01*
X265318206Y-256319664D01*
X265318202Y-256319671D01*
X265267908Y-256454517D01*
X265261501Y-256514116D01*
X265261501Y-256514123D01*
X265261500Y-256514135D01*
X264160000Y-256514135D01*
X264160000Y-240030000D01*
X336914540Y-240030000D01*
X336934326Y-240218256D01*
X336934327Y-240218259D01*
X336992818Y-240398277D01*
X336992821Y-240398284D01*
X337087467Y-240562216D01*
X337214129Y-240702888D01*
X337367265Y-240814148D01*
X337367270Y-240814151D01*
X337540191Y-240891142D01*
X337540193Y-240891142D01*
X337540197Y-240891144D01*
X337591282Y-240902002D01*
X337652762Y-240935194D01*
X337686539Y-240996357D01*
X337689500Y-241023292D01*
X337689500Y-244185452D01*
X337669815Y-244252491D01*
X337642410Y-244282719D01*
X337636958Y-244287029D01*
X337517029Y-244406959D01*
X337428001Y-244551294D01*
X337427996Y-244551305D01*
X337374651Y-244712290D01*
X337364500Y-244811647D01*
X337364500Y-245408337D01*
X337364501Y-245408355D01*
X337374650Y-245507707D01*
X337374651Y-245507710D01*
X337427996Y-245668694D01*
X337428001Y-245668705D01*
X337517029Y-245813040D01*
X337517032Y-245813044D01*
X337636955Y-245932967D01*
X337636959Y-245932970D01*
X337781294Y-246021998D01*
X337781297Y-246021999D01*
X337781303Y-246022003D01*
X337942292Y-246075349D01*
X338041655Y-246085500D01*
X338588344Y-246085499D01*
X338588352Y-246085498D01*
X338588355Y-246085498D01*
X338679504Y-246076187D01*
X338687708Y-246075349D01*
X338848697Y-246022003D01*
X338993044Y-245932968D01*
X339002668Y-245923343D01*
X339063987Y-245889856D01*
X339133679Y-245894835D01*
X339178034Y-245923339D01*
X339187267Y-245932572D01*
X339187271Y-245932575D01*
X339331507Y-246021542D01*
X339331518Y-246021547D01*
X339492393Y-246074855D01*
X339591683Y-246084999D01*
X340115000Y-246084999D01*
X340138308Y-246084999D01*
X340138322Y-246084998D01*
X340237607Y-246074855D01*
X340398481Y-246021547D01*
X340398492Y-246021542D01*
X340542728Y-245932575D01*
X340542732Y-245932572D01*
X340662572Y-245812732D01*
X340662575Y-245812728D01*
X340751542Y-245668492D01*
X340751547Y-245668481D01*
X340804855Y-245507606D01*
X340814999Y-245408322D01*
X343220001Y-245408322D01*
X343230144Y-245507607D01*
X343283452Y-245668481D01*
X343283457Y-245668492D01*
X343372424Y-245812728D01*
X343372427Y-245812732D01*
X343492267Y-245932572D01*
X343492271Y-245932575D01*
X343636507Y-246021542D01*
X343636518Y-246021547D01*
X343797393Y-246074855D01*
X343896683Y-246084999D01*
X343920000Y-246084998D01*
X343920000Y-245360000D01*
X343220001Y-245360000D01*
X343220001Y-245408322D01*
X340814999Y-245408322D01*
X340815000Y-245408309D01*
X340815000Y-245360000D01*
X340115000Y-245360000D01*
X340115000Y-246084999D01*
X339591683Y-246084999D01*
X339615000Y-246084998D01*
X339615000Y-244860000D01*
X340115000Y-244860000D01*
X340814999Y-244860000D01*
X340814999Y-244811692D01*
X340814998Y-244811677D01*
X343220000Y-244811677D01*
X343220000Y-244860000D01*
X343920000Y-244860000D01*
X343920000Y-244134999D01*
X343896693Y-244135000D01*
X343896674Y-244135001D01*
X343797392Y-244145144D01*
X343636518Y-244198452D01*
X343636507Y-244198457D01*
X343492271Y-244287424D01*
X343492267Y-244287427D01*
X343372427Y-244407267D01*
X343372424Y-244407271D01*
X343283457Y-244551507D01*
X343283452Y-244551518D01*
X343230144Y-244712393D01*
X343220000Y-244811677D01*
X340814998Y-244811677D01*
X340804855Y-244712392D01*
X340751547Y-244551518D01*
X340751542Y-244551507D01*
X340662575Y-244407271D01*
X340662572Y-244407267D01*
X340542732Y-244287427D01*
X340542728Y-244287424D01*
X340398492Y-244198457D01*
X340398481Y-244198452D01*
X340237606Y-244145144D01*
X340138322Y-244135000D01*
X340115000Y-244135000D01*
X340115000Y-244860000D01*
X339615000Y-244860000D01*
X339615000Y-244134999D01*
X339591693Y-244135000D01*
X339591674Y-244135001D01*
X339492392Y-244145144D01*
X339331518Y-244198452D01*
X339331507Y-244198457D01*
X339187271Y-244287424D01*
X339187264Y-244287430D01*
X339178028Y-244296665D01*
X339116703Y-244330146D01*
X339047011Y-244325157D01*
X339002672Y-244296659D01*
X338993046Y-244287033D01*
X338987590Y-244282719D01*
X338947213Y-244225697D01*
X338940500Y-244185452D01*
X338940500Y-240463393D01*
X338940499Y-240463389D01*
X338916464Y-240342555D01*
X338916463Y-240342548D01*
X338877463Y-240248394D01*
X338869312Y-240228715D01*
X338800858Y-240126267D01*
X338800855Y-240126263D01*
X338758961Y-240084370D01*
X338725475Y-240023047D01*
X338723323Y-240009668D01*
X338705674Y-239841744D01*
X338647179Y-239661716D01*
X338552533Y-239497784D01*
X338425871Y-239357112D01*
X338425870Y-239357111D01*
X338272734Y-239245851D01*
X338272729Y-239245848D01*
X338099807Y-239168857D01*
X338099802Y-239168855D01*
X337954001Y-239137865D01*
X337914646Y-239129500D01*
X337725354Y-239129500D01*
X337692897Y-239136398D01*
X337540197Y-239168855D01*
X337540192Y-239168857D01*
X337367270Y-239245848D01*
X337367265Y-239245851D01*
X337214129Y-239357111D01*
X337087466Y-239497785D01*
X336992821Y-239661715D01*
X336992818Y-239661722D01*
X336934327Y-239841740D01*
X336934326Y-239841744D01*
X336914540Y-240030000D01*
X264160000Y-240030000D01*
X264160000Y-230428711D01*
X292699500Y-230428711D01*
X292699500Y-230671288D01*
X292731161Y-230911785D01*
X292793947Y-231146104D01*
X292886773Y-231370205D01*
X292886776Y-231370212D01*
X293008064Y-231580289D01*
X293008066Y-231580292D01*
X293008067Y-231580293D01*
X293155733Y-231772736D01*
X293155739Y-231772743D01*
X293327256Y-231944260D01*
X293327262Y-231944265D01*
X293519711Y-232091936D01*
X293729788Y-232213224D01*
X293953900Y-232306054D01*
X294188211Y-232368838D01*
X294368586Y-232392584D01*
X294428711Y-232400500D01*
X294428712Y-232400500D01*
X294671289Y-232400500D01*
X294719388Y-232394167D01*
X294911789Y-232368838D01*
X295146100Y-232306054D01*
X295370212Y-232213224D01*
X295580289Y-232091936D01*
X295772738Y-231944265D01*
X295944265Y-231772738D01*
X296091936Y-231580289D01*
X296213224Y-231370212D01*
X296306054Y-231146100D01*
X296368838Y-230911789D01*
X296400500Y-230671288D01*
X296400500Y-230428712D01*
X296368838Y-230188211D01*
X296363509Y-230168322D01*
X337860001Y-230168322D01*
X337870144Y-230267607D01*
X337923452Y-230428481D01*
X337923457Y-230428492D01*
X338012424Y-230572728D01*
X338012427Y-230572732D01*
X338132267Y-230692572D01*
X338132271Y-230692575D01*
X338276507Y-230781542D01*
X338276518Y-230781547D01*
X338437393Y-230834855D01*
X338536683Y-230844999D01*
X338560000Y-230844998D01*
X338560000Y-230120000D01*
X337860001Y-230120000D01*
X337860001Y-230168322D01*
X296363509Y-230168322D01*
X296306054Y-229953900D01*
X296213224Y-229729788D01*
X296121939Y-229571677D01*
X337860000Y-229571677D01*
X337860000Y-229620000D01*
X338560000Y-229620000D01*
X338560000Y-228894999D01*
X338536693Y-228895000D01*
X338536674Y-228895001D01*
X338437392Y-228905144D01*
X338276518Y-228958452D01*
X338276507Y-228958457D01*
X338132271Y-229047424D01*
X338132267Y-229047427D01*
X338012427Y-229167267D01*
X338012424Y-229167271D01*
X337923457Y-229311507D01*
X337923452Y-229311518D01*
X337870144Y-229472393D01*
X337860000Y-229571677D01*
X296121939Y-229571677D01*
X296091936Y-229519711D01*
X295944265Y-229327262D01*
X295944260Y-229327256D01*
X295772743Y-229155739D01*
X295772736Y-229155733D01*
X295580293Y-229008067D01*
X295580292Y-229008066D01*
X295580289Y-229008064D01*
X295386684Y-228896286D01*
X295370214Y-228886777D01*
X295370205Y-228886773D01*
X295146104Y-228793947D01*
X294911785Y-228731161D01*
X294671289Y-228699500D01*
X294671288Y-228699500D01*
X294428712Y-228699500D01*
X294428711Y-228699500D01*
X294188214Y-228731161D01*
X293953895Y-228793947D01*
X293729794Y-228886773D01*
X293729785Y-228886777D01*
X293519706Y-229008067D01*
X293327263Y-229155733D01*
X293327256Y-229155739D01*
X293155739Y-229327256D01*
X293155733Y-229327263D01*
X293008067Y-229519706D01*
X292886777Y-229729785D01*
X292886773Y-229729794D01*
X292793947Y-229953895D01*
X292731161Y-230188214D01*
X292699500Y-230428711D01*
X264160000Y-230428711D01*
X264160000Y-227330000D01*
X338184540Y-227330000D01*
X338204326Y-227518256D01*
X338204327Y-227518259D01*
X338262818Y-227698277D01*
X338262821Y-227698284D01*
X338357467Y-227862216D01*
X338432650Y-227945715D01*
X338484129Y-228002888D01*
X338637265Y-228114148D01*
X338637270Y-228114151D01*
X338810192Y-228191142D01*
X338810197Y-228191144D01*
X338995354Y-228230500D01*
X339054548Y-228230500D01*
X339121587Y-228250185D01*
X339142229Y-228266819D01*
X339698181Y-228822771D01*
X339731666Y-228884094D01*
X339734500Y-228910452D01*
X339734500Y-228945452D01*
X339714815Y-229012491D01*
X339687415Y-229042715D01*
X339681954Y-229047032D01*
X339672324Y-229056663D01*
X339611000Y-229090146D01*
X339541308Y-229085159D01*
X339496965Y-229056660D01*
X339487732Y-229047427D01*
X339487728Y-229047424D01*
X339343492Y-228958457D01*
X339343481Y-228958452D01*
X339182606Y-228905144D01*
X339083322Y-228895000D01*
X339060000Y-228895000D01*
X339060000Y-230844999D01*
X339083308Y-230844999D01*
X339083322Y-230844998D01*
X339182607Y-230834855D01*
X339343481Y-230781547D01*
X339343492Y-230781542D01*
X339487731Y-230692573D01*
X339496959Y-230683345D01*
X339558279Y-230649856D01*
X339627971Y-230654835D01*
X339672327Y-230683339D01*
X339681955Y-230692967D01*
X339681959Y-230692970D01*
X339826294Y-230781998D01*
X339826297Y-230781999D01*
X339826303Y-230782003D01*
X339987292Y-230835349D01*
X340086655Y-230845500D01*
X340633344Y-230845499D01*
X340633352Y-230845498D01*
X340633355Y-230845498D01*
X340687760Y-230839940D01*
X340732708Y-230835349D01*
X340893697Y-230782003D01*
X341038044Y-230692968D01*
X341047527Y-230683483D01*
X341108847Y-230649996D01*
X341178539Y-230654975D01*
X341185620Y-230657869D01*
X341350197Y-230731144D01*
X341535354Y-230770500D01*
X341535355Y-230770500D01*
X341724644Y-230770500D01*
X341724646Y-230770500D01*
X341909803Y-230731144D01*
X342082730Y-230654151D01*
X342235871Y-230542888D01*
X342362533Y-230402216D01*
X342457179Y-230238284D01*
X342515674Y-230058256D01*
X342535460Y-229870000D01*
X342515674Y-229681744D01*
X342457179Y-229501716D01*
X342362533Y-229337784D01*
X342235871Y-229197112D01*
X342235870Y-229197111D01*
X342082734Y-229085851D01*
X342082729Y-229085848D01*
X341909807Y-229008857D01*
X341909802Y-229008855D01*
X341747045Y-228974261D01*
X341724646Y-228969500D01*
X341535354Y-228969500D01*
X341512955Y-228974261D01*
X341350197Y-229008855D01*
X341350192Y-229008857D01*
X341185649Y-229082118D01*
X341116399Y-229091403D01*
X341053122Y-229061775D01*
X341047529Y-229056517D01*
X341038045Y-229047032D01*
X341032590Y-229042719D01*
X340992213Y-228985697D01*
X340985500Y-228945452D01*
X340985500Y-228538393D01*
X340985499Y-228538389D01*
X340961464Y-228417555D01*
X340961463Y-228417548D01*
X340914311Y-228303714D01*
X340914310Y-228303713D01*
X340914307Y-228303707D01*
X340845858Y-228201267D01*
X340845855Y-228201263D01*
X340755637Y-228111045D01*
X340755606Y-228111016D01*
X340028960Y-227384370D01*
X339995475Y-227323047D01*
X339993323Y-227309671D01*
X339975674Y-227141744D01*
X339917179Y-226961716D01*
X339822533Y-226797784D01*
X339695871Y-226657112D01*
X339684432Y-226648801D01*
X339542734Y-226545851D01*
X339542729Y-226545848D01*
X339369807Y-226468857D01*
X339369802Y-226468855D01*
X339224001Y-226437865D01*
X339184646Y-226429500D01*
X338995354Y-226429500D01*
X338962897Y-226436398D01*
X338810197Y-226468855D01*
X338810192Y-226468857D01*
X338637270Y-226545848D01*
X338637265Y-226545851D01*
X338484129Y-226657111D01*
X338357466Y-226797785D01*
X338262821Y-226961715D01*
X338262818Y-226961722D01*
X338204327Y-227141740D01*
X338204326Y-227141744D01*
X338184540Y-227330000D01*
X264160000Y-227330000D01*
X264160000Y-220035313D01*
X282092898Y-220035313D01*
X282092898Y-220277890D01*
X282124559Y-220518387D01*
X282187345Y-220752706D01*
X282280171Y-220976807D01*
X282280174Y-220976814D01*
X282401462Y-221186891D01*
X282401464Y-221186894D01*
X282401465Y-221186895D01*
X282549131Y-221379338D01*
X282549137Y-221379345D01*
X282720654Y-221550862D01*
X282720660Y-221550867D01*
X282913109Y-221698538D01*
X283123186Y-221819826D01*
X283347298Y-221912656D01*
X283581609Y-221975440D01*
X283761984Y-221999186D01*
X283822109Y-222007102D01*
X283822110Y-222007102D01*
X284064687Y-222007102D01*
X284112786Y-222000769D01*
X284305187Y-221975440D01*
X284539498Y-221912656D01*
X284763610Y-221819826D01*
X284973687Y-221698538D01*
X285166136Y-221550867D01*
X285337663Y-221379340D01*
X285485334Y-221186891D01*
X285606622Y-220976814D01*
X285699452Y-220752702D01*
X285762236Y-220518391D01*
X285793898Y-220277890D01*
X285793898Y-220035314D01*
X285793898Y-220035313D01*
X303306102Y-220035313D01*
X303306102Y-220277890D01*
X303337763Y-220518387D01*
X303400549Y-220752706D01*
X303493375Y-220976807D01*
X303493378Y-220976814D01*
X303614666Y-221186891D01*
X303614668Y-221186894D01*
X303614669Y-221186895D01*
X303762335Y-221379338D01*
X303762341Y-221379345D01*
X303933858Y-221550862D01*
X303933864Y-221550867D01*
X304126313Y-221698538D01*
X304336390Y-221819826D01*
X304560502Y-221912656D01*
X304794813Y-221975440D01*
X304975188Y-221999186D01*
X305035313Y-222007102D01*
X305035314Y-222007102D01*
X305277891Y-222007102D01*
X305325990Y-222000769D01*
X305518391Y-221975440D01*
X305752702Y-221912656D01*
X305976814Y-221819826D01*
X306186891Y-221698538D01*
X306379340Y-221550867D01*
X306550867Y-221379340D01*
X306698538Y-221186891D01*
X306819826Y-220976814D01*
X306912656Y-220752702D01*
X306975440Y-220518391D01*
X307007102Y-220277890D01*
X307007102Y-220035314D01*
X306975440Y-219794813D01*
X306912656Y-219560502D01*
X306819826Y-219336390D01*
X306698538Y-219126313D01*
X306550867Y-218933864D01*
X306550862Y-218933858D01*
X306379345Y-218762341D01*
X306379338Y-218762335D01*
X306186895Y-218614669D01*
X306186894Y-218614668D01*
X306186891Y-218614666D01*
X305976814Y-218493378D01*
X305976807Y-218493375D01*
X305752706Y-218400549D01*
X305518387Y-218337763D01*
X305277891Y-218306102D01*
X305277890Y-218306102D01*
X305035314Y-218306102D01*
X305035313Y-218306102D01*
X304794816Y-218337763D01*
X304560497Y-218400549D01*
X304336396Y-218493375D01*
X304336387Y-218493379D01*
X304126308Y-218614669D01*
X303933865Y-218762335D01*
X303933858Y-218762341D01*
X303762341Y-218933858D01*
X303762335Y-218933865D01*
X303614669Y-219126308D01*
X303493379Y-219336387D01*
X303493375Y-219336396D01*
X303400549Y-219560497D01*
X303337763Y-219794816D01*
X303306102Y-220035313D01*
X285793898Y-220035313D01*
X285762236Y-219794813D01*
X285699452Y-219560502D01*
X285606622Y-219336390D01*
X285485334Y-219126313D01*
X285337663Y-218933864D01*
X285337658Y-218933858D01*
X285166141Y-218762341D01*
X285166134Y-218762335D01*
X284973691Y-218614669D01*
X284973690Y-218614668D01*
X284973687Y-218614666D01*
X284763610Y-218493378D01*
X284763603Y-218493375D01*
X284539502Y-218400549D01*
X284305183Y-218337763D01*
X284064687Y-218306102D01*
X284064686Y-218306102D01*
X283822110Y-218306102D01*
X283822109Y-218306102D01*
X283581612Y-218337763D01*
X283347293Y-218400549D01*
X283123192Y-218493375D01*
X283123183Y-218493379D01*
X282913104Y-218614669D01*
X282720661Y-218762335D01*
X282720654Y-218762341D01*
X282549137Y-218933858D01*
X282549131Y-218933865D01*
X282401465Y-219126308D01*
X282280175Y-219336387D01*
X282280171Y-219336396D01*
X282187345Y-219560497D01*
X282124559Y-219794816D01*
X282092898Y-220035313D01*
X264160000Y-220035313D01*
X264160000Y-209428712D01*
X271699500Y-209428712D01*
X271699500Y-209671288D01*
X271731162Y-209911789D01*
X271732902Y-209918284D01*
X271793947Y-210146104D01*
X271886773Y-210370205D01*
X271886777Y-210370214D01*
X271905871Y-210403285D01*
X272008064Y-210580289D01*
X272008066Y-210580292D01*
X272008067Y-210580293D01*
X272155733Y-210772736D01*
X272155739Y-210772743D01*
X272327256Y-210944260D01*
X272327262Y-210944265D01*
X272519711Y-211091936D01*
X272729788Y-211213224D01*
X272953900Y-211306054D01*
X273188211Y-211368838D01*
X273368586Y-211392584D01*
X273428711Y-211400500D01*
X273428712Y-211400500D01*
X273671289Y-211400500D01*
X273719388Y-211394167D01*
X273911789Y-211368838D01*
X274146100Y-211306054D01*
X274370212Y-211213224D01*
X274580289Y-211091936D01*
X274772738Y-210944265D01*
X274944265Y-210772738D01*
X275091936Y-210580289D01*
X275213224Y-210370212D01*
X275306054Y-210146100D01*
X275368838Y-209911789D01*
X275400500Y-209671288D01*
X275400500Y-209428712D01*
X275368838Y-209188211D01*
X275306054Y-208953900D01*
X275213224Y-208729788D01*
X275091936Y-208519711D01*
X274944265Y-208327262D01*
X274944260Y-208327256D01*
X274772743Y-208155739D01*
X274772736Y-208155733D01*
X274580293Y-208008067D01*
X274580292Y-208008066D01*
X274580289Y-208008064D01*
X274370212Y-207886776D01*
X274370205Y-207886773D01*
X274146104Y-207793947D01*
X273911785Y-207731161D01*
X273671289Y-207699500D01*
X273671288Y-207699500D01*
X273428712Y-207699500D01*
X273428711Y-207699500D01*
X273188214Y-207731161D01*
X272953895Y-207793947D01*
X272729794Y-207886773D01*
X272729785Y-207886777D01*
X272519706Y-208008067D01*
X272327263Y-208155733D01*
X272327256Y-208155739D01*
X272155739Y-208327256D01*
X272155733Y-208327263D01*
X272008067Y-208519706D01*
X271886777Y-208729785D01*
X271886773Y-208729794D01*
X271793947Y-208953895D01*
X271731161Y-209188214D01*
X271708317Y-209361740D01*
X271699500Y-209428712D01*
X264160000Y-209428712D01*
X264160000Y-205864000D01*
X264179685Y-205796961D01*
X264232489Y-205751206D01*
X264284000Y-205740000D01*
X369446000Y-205740000D01*
X369513039Y-205759685D01*
G37*
%TD.AperFunction*%
%TA.AperFunction,Conductor*%
G36*
X283114587Y-292368185D02*
G01*
X283160342Y-292420989D01*
X283170286Y-292490147D01*
X283141261Y-292553703D01*
X283135229Y-292560181D01*
X280352229Y-295343181D01*
X280290906Y-295376666D01*
X280264548Y-295379500D01*
X278199367Y-295379500D01*
X278132328Y-295359815D01*
X278086573Y-295307011D01*
X278076629Y-295237853D01*
X278086985Y-295203096D01*
X278133428Y-295103497D01*
X278133432Y-295103486D01*
X278190636Y-294890000D01*
X277293012Y-294890000D01*
X277325925Y-294832993D01*
X277360000Y-294705826D01*
X277360000Y-294574174D01*
X277325925Y-294447007D01*
X277293012Y-294390000D01*
X278190636Y-294390000D01*
X278190635Y-294389999D01*
X278133432Y-294176513D01*
X278133429Y-294176507D01*
X278033600Y-293962422D01*
X278033599Y-293962420D01*
X277898113Y-293768926D01*
X277898108Y-293768920D01*
X277731082Y-293601894D01*
X277537578Y-293466399D01*
X277323492Y-293366570D01*
X277323486Y-293366567D01*
X277110000Y-293309364D01*
X277110000Y-294206988D01*
X277052993Y-294174075D01*
X276925826Y-294140000D01*
X276794174Y-294140000D01*
X276667007Y-294174075D01*
X276610000Y-294206988D01*
X276610000Y-293309364D01*
X276609999Y-293309364D01*
X276396513Y-293366567D01*
X276396507Y-293366570D01*
X276182422Y-293466399D01*
X276182420Y-293466400D01*
X275988926Y-293601886D01*
X275988920Y-293601891D01*
X275821891Y-293768920D01*
X275821890Y-293768922D01*
X275691880Y-293954595D01*
X275637303Y-293998219D01*
X275567804Y-294005412D01*
X275505450Y-293973890D01*
X275488730Y-293954594D01*
X275358494Y-293768597D01*
X275191402Y-293601506D01*
X275191395Y-293601501D01*
X275186983Y-293598412D01*
X275152521Y-293574281D01*
X274997834Y-293465967D01*
X274997830Y-293465965D01*
X274783663Y-293366097D01*
X274783659Y-293366096D01*
X274783655Y-293366094D01*
X274555413Y-293304938D01*
X274555403Y-293304936D01*
X274320001Y-293284341D01*
X274319610Y-293284341D01*
X274319444Y-293284292D01*
X274314606Y-293283869D01*
X274314691Y-293282896D01*
X274252571Y-293264656D01*
X274206816Y-293211852D01*
X274196872Y-293142694D01*
X274225897Y-293079138D01*
X274231929Y-293072660D01*
X274531701Y-292772889D01*
X274919771Y-292384819D01*
X274981094Y-292351334D01*
X275007452Y-292348500D01*
X283047548Y-292348500D01*
X283114587Y-292368185D01*
G37*
%TD.AperFunction*%
%TA.AperFunction,Conductor*%
G36*
X348360703Y-253995739D02*
G01*
X348367181Y-254001771D01*
X353805878Y-259440468D01*
X353839363Y-259501791D01*
X353834379Y-259571483D01*
X353792507Y-259627416D01*
X353791083Y-259628467D01*
X353724127Y-259677113D01*
X353597466Y-259817785D01*
X353502821Y-259981715D01*
X353502818Y-259981722D01*
X353467046Y-260091819D01*
X353444326Y-260161744D01*
X353424540Y-260350000D01*
X353444326Y-260538256D01*
X353444327Y-260538259D01*
X353502818Y-260718277D01*
X353502821Y-260718284D01*
X353597467Y-260882216D01*
X353724129Y-261022888D01*
X353877265Y-261134148D01*
X353877270Y-261134151D01*
X354050192Y-261211142D01*
X354050197Y-261211144D01*
X354235354Y-261250500D01*
X354294548Y-261250500D01*
X354361587Y-261270185D01*
X354382229Y-261286819D01*
X354823154Y-261727744D01*
X354856639Y-261789067D01*
X354851655Y-261858759D01*
X354809783Y-261914692D01*
X354744319Y-261939109D01*
X354698585Y-261933811D01*
X354657196Y-261920914D01*
X354586616Y-261914500D01*
X354073384Y-261914500D01*
X354054145Y-261916248D01*
X354002807Y-261920913D01*
X353840393Y-261971522D01*
X353694815Y-262059528D01*
X353666078Y-262088264D01*
X353604754Y-262121747D01*
X353535062Y-262116760D01*
X353516404Y-262107970D01*
X353512730Y-262105849D01*
X353339807Y-262028857D01*
X353339802Y-262028855D01*
X353194001Y-261997865D01*
X353154646Y-261989500D01*
X352965354Y-261989500D01*
X352932897Y-261996398D01*
X352780197Y-262028855D01*
X352780192Y-262028857D01*
X352607270Y-262105848D01*
X352607265Y-262105851D01*
X352454129Y-262217111D01*
X352327466Y-262357785D01*
X352232821Y-262521715D01*
X352232818Y-262521722D01*
X352174327Y-262701740D01*
X352174326Y-262701744D01*
X352154540Y-262890000D01*
X352174326Y-263078256D01*
X352174327Y-263078259D01*
X352232818Y-263258277D01*
X352232821Y-263258284D01*
X352327467Y-263422216D01*
X352384153Y-263485172D01*
X352454129Y-263562888D01*
X352607265Y-263674148D01*
X352607270Y-263674151D01*
X352780192Y-263751142D01*
X352780197Y-263751144D01*
X352965354Y-263790500D01*
X352965355Y-263790500D01*
X353154644Y-263790500D01*
X353154646Y-263790500D01*
X353339803Y-263751144D01*
X353512730Y-263674151D01*
X353512734Y-263674147D01*
X353516391Y-263672037D01*
X353584290Y-263655559D01*
X353650318Y-263678406D01*
X353666080Y-263691738D01*
X353694811Y-263720469D01*
X353694813Y-263720470D01*
X353694815Y-263720472D01*
X353840394Y-263808478D01*
X354002804Y-263859086D01*
X354073384Y-263865500D01*
X354073387Y-263865500D01*
X354586613Y-263865500D01*
X354586616Y-263865500D01*
X354657196Y-263859086D01*
X354819606Y-263808478D01*
X354965185Y-263720472D01*
X355013620Y-263672037D01*
X355067319Y-263618339D01*
X355128642Y-263584854D01*
X355198334Y-263589838D01*
X355242681Y-263618339D01*
X355344811Y-263720469D01*
X355344813Y-263720470D01*
X355344815Y-263720472D01*
X355490394Y-263808478D01*
X355652804Y-263859086D01*
X355723384Y-263865500D01*
X355723387Y-263865500D01*
X356236613Y-263865500D01*
X356236616Y-263865500D01*
X356307196Y-263859086D01*
X356439427Y-263817881D01*
X356509285Y-263816730D01*
X356563996Y-263848586D01*
X363478181Y-270762771D01*
X363511666Y-270824094D01*
X363514500Y-270850452D01*
X363514500Y-271146613D01*
X363520913Y-271217192D01*
X363520913Y-271217194D01*
X363520914Y-271217196D01*
X363571522Y-271379606D01*
X363648284Y-271506586D01*
X363659530Y-271525188D01*
X363779811Y-271645469D01*
X363779813Y-271645470D01*
X363779815Y-271645472D01*
X363804650Y-271660485D01*
X363851837Y-271712010D01*
X363864500Y-271766601D01*
X363864500Y-272739547D01*
X363844815Y-272806586D01*
X363828181Y-272827228D01*
X362002229Y-274653181D01*
X361940906Y-274686666D01*
X361914548Y-274689500D01*
X361855354Y-274689500D01*
X361822897Y-274696398D01*
X361670197Y-274728855D01*
X361670192Y-274728857D01*
X361497270Y-274805848D01*
X361497265Y-274805851D01*
X361344129Y-274917111D01*
X361217466Y-275057785D01*
X361122821Y-275221715D01*
X361122818Y-275221722D01*
X361064327Y-275401740D01*
X361064326Y-275401744D01*
X361044540Y-275590000D01*
X361064326Y-275778256D01*
X361064327Y-275778259D01*
X361122818Y-275958277D01*
X361122820Y-275958282D01*
X361122821Y-275958284D01*
X361217467Y-276122216D01*
X361301460Y-276215499D01*
X361344129Y-276262888D01*
X361497265Y-276374148D01*
X361497270Y-276374151D01*
X361670192Y-276451142D01*
X361670197Y-276451144D01*
X361855354Y-276490500D01*
X361855355Y-276490500D01*
X362044644Y-276490500D01*
X362044646Y-276490500D01*
X362229803Y-276451144D01*
X362402730Y-276374151D01*
X362555871Y-276262888D01*
X362682533Y-276122216D01*
X362777179Y-275958284D01*
X362835674Y-275778256D01*
X362853321Y-275610344D01*
X362879904Y-275545734D01*
X362888951Y-275535638D01*
X364452819Y-273971771D01*
X364514142Y-273938286D01*
X364583834Y-273943270D01*
X364639767Y-273985142D01*
X364664184Y-274050606D01*
X364664500Y-274059452D01*
X364664500Y-279279546D01*
X364644815Y-279346585D01*
X364628181Y-279367227D01*
X364592227Y-279403181D01*
X364530904Y-279436666D01*
X364504546Y-279439500D01*
X364475452Y-279439500D01*
X364408413Y-279419815D01*
X364387771Y-279403181D01*
X363265198Y-278280608D01*
X363265178Y-278280586D01*
X363173733Y-278189141D01*
X363122509Y-278154915D01*
X363071287Y-278120689D01*
X363071286Y-278120688D01*
X362982509Y-278083916D01*
X362982507Y-278083914D01*
X362957455Y-278073538D01*
X362957453Y-278073537D01*
X362957452Y-278073537D01*
X362897029Y-278061518D01*
X362836610Y-278049500D01*
X362836607Y-278049500D01*
X362836606Y-278049500D01*
X361711302Y-278049500D01*
X361588088Y-278049500D01*
X361588084Y-278049500D01*
X361527666Y-278061518D01*
X361467243Y-278073537D01*
X361467238Y-278073538D01*
X361433241Y-278087620D01*
X361420092Y-278093067D01*
X361397864Y-278102274D01*
X361353408Y-278120688D01*
X361343252Y-278127475D01*
X361343144Y-278127547D01*
X361250963Y-278189140D01*
X361215269Y-278224835D01*
X361163837Y-278276267D01*
X361163834Y-278276270D01*
X358631924Y-280808181D01*
X358570601Y-280841666D01*
X358544243Y-280844500D01*
X352734500Y-280844500D01*
X352667461Y-280824815D01*
X352621706Y-280772011D01*
X352610500Y-280720500D01*
X352610499Y-280371662D01*
X352610498Y-280371644D01*
X352600349Y-280272292D01*
X352600348Y-280272289D01*
X352547001Y-280111298D01*
X352519659Y-280066972D01*
X352501217Y-279999580D01*
X352520390Y-279938483D01*
X352519284Y-279937844D01*
X352562466Y-279863050D01*
X352617179Y-279768284D01*
X352675674Y-279588256D01*
X352695460Y-279400000D01*
X352675674Y-279211744D01*
X352617179Y-279031716D01*
X352522533Y-278867784D01*
X352447350Y-278784284D01*
X352417120Y-278721292D01*
X352415500Y-278701312D01*
X352415500Y-278291874D01*
X352435185Y-278224835D01*
X352451819Y-278204193D01*
X352457968Y-278198044D01*
X352547003Y-278053697D01*
X352600349Y-277892708D01*
X352610500Y-277793345D01*
X352610499Y-277196656D01*
X352600349Y-277097292D01*
X352547003Y-276936303D01*
X352546999Y-276936297D01*
X352546998Y-276936294D01*
X352457970Y-276791959D01*
X352457967Y-276791955D01*
X352338044Y-276672032D01*
X352338040Y-276672029D01*
X352193705Y-276583001D01*
X352193699Y-276582998D01*
X352193697Y-276582997D01*
X352140894Y-276565500D01*
X352032709Y-276529651D01*
X351933346Y-276519500D01*
X351386662Y-276519500D01*
X351386644Y-276519501D01*
X351287292Y-276529650D01*
X351287289Y-276529651D01*
X351126305Y-276582996D01*
X351126294Y-276583001D01*
X350981959Y-276672029D01*
X350981953Y-276672033D01*
X350972324Y-276681663D01*
X350911000Y-276715146D01*
X350841308Y-276710159D01*
X350796965Y-276681660D01*
X350787732Y-276672427D01*
X350787728Y-276672424D01*
X350643492Y-276583457D01*
X350643481Y-276583452D01*
X350482606Y-276530144D01*
X350383322Y-276520000D01*
X350360000Y-276520000D01*
X350360000Y-278469999D01*
X350383308Y-278469999D01*
X350383322Y-278469998D01*
X350482607Y-278459855D01*
X350643481Y-278406547D01*
X350643492Y-278406542D01*
X350787731Y-278317573D01*
X350796959Y-278308345D01*
X350858279Y-278274856D01*
X350927971Y-278279835D01*
X350972327Y-278308339D01*
X350981956Y-278317968D01*
X351105599Y-278394232D01*
X351152321Y-278446178D01*
X351164500Y-278499769D01*
X351164500Y-278701312D01*
X351144815Y-278768351D01*
X351132650Y-278784284D01*
X351057466Y-278867784D01*
X350962821Y-279031715D01*
X350962818Y-279031722D01*
X350904327Y-279211740D01*
X350904326Y-279211744D01*
X350884540Y-279400000D01*
X350904326Y-279588256D01*
X350904327Y-279588259D01*
X350934533Y-279681225D01*
X350936528Y-279751067D01*
X350900447Y-279810899D01*
X350837746Y-279841727D01*
X350768332Y-279833762D01*
X350751505Y-279825081D01*
X350643492Y-279758457D01*
X350643481Y-279758452D01*
X350482606Y-279705144D01*
X350383322Y-279695000D01*
X350360000Y-279695000D01*
X350360000Y-280720500D01*
X350340315Y-280787539D01*
X350287511Y-280833294D01*
X350236000Y-280844500D01*
X348738141Y-280844500D01*
X348671102Y-280824815D01*
X348625347Y-280772011D01*
X348615403Y-280702853D01*
X348644428Y-280639297D01*
X348669245Y-280617400D01*
X348679038Y-280610858D01*
X348766163Y-280523733D01*
X348766163Y-280523731D01*
X348776371Y-280513524D01*
X348776372Y-280513521D01*
X348948320Y-280341573D01*
X349009642Y-280308090D01*
X349079334Y-280313074D01*
X349135267Y-280354946D01*
X349159252Y-280419252D01*
X349160000Y-280420000D01*
X349860000Y-280420000D01*
X349860000Y-279694999D01*
X349836693Y-279695000D01*
X349836674Y-279695001D01*
X349737392Y-279705144D01*
X349576518Y-279758452D01*
X349576509Y-279758456D01*
X349519596Y-279793561D01*
X349452204Y-279812001D01*
X349385540Y-279791078D01*
X349340771Y-279737436D01*
X349330500Y-279688022D01*
X349330500Y-278476977D01*
X349350185Y-278409938D01*
X349402989Y-278364183D01*
X349472147Y-278354239D01*
X349519597Y-278371439D01*
X349576507Y-278406542D01*
X349576518Y-278406547D01*
X349737393Y-278459855D01*
X349836683Y-278469999D01*
X349860000Y-278469998D01*
X349860000Y-276519999D01*
X349836693Y-276520000D01*
X349836674Y-276520001D01*
X349737392Y-276530144D01*
X349576518Y-276583452D01*
X349576509Y-276583456D01*
X349519596Y-276618561D01*
X349452204Y-276637001D01*
X349385540Y-276616078D01*
X349340771Y-276562436D01*
X349330500Y-276513022D01*
X349330500Y-275959500D01*
X349350185Y-275892461D01*
X349402989Y-275846706D01*
X349454500Y-275835500D01*
X350716912Y-275835500D01*
X350777334Y-275823481D01*
X350837757Y-275811463D01*
X350837760Y-275811461D01*
X350837763Y-275811461D01*
X350871092Y-275797654D01*
X350871091Y-275797654D01*
X350871097Y-275797652D01*
X350951591Y-275764312D01*
X351002814Y-275730084D01*
X351054038Y-275695858D01*
X351141163Y-275608733D01*
X351141164Y-275608730D01*
X351805858Y-274944038D01*
X351874312Y-274841590D01*
X351880355Y-274827000D01*
X351908303Y-274759529D01*
X351921007Y-274728857D01*
X351921463Y-274727757D01*
X351929073Y-274689500D01*
X351937051Y-274649392D01*
X351945501Y-274606913D01*
X351945501Y-274586910D01*
X351965186Y-274519871D01*
X352017990Y-274474116D01*
X352087148Y-274464172D01*
X352150704Y-274493197D01*
X352187432Y-274548592D01*
X352232818Y-274688277D01*
X352232821Y-274688284D01*
X352327467Y-274852216D01*
X352454129Y-274992888D01*
X352607265Y-275104148D01*
X352607270Y-275104151D01*
X352780192Y-275181142D01*
X352780197Y-275181144D01*
X352965354Y-275220500D01*
X352965355Y-275220500D01*
X353154644Y-275220500D01*
X353154646Y-275220500D01*
X353339803Y-275181144D01*
X353512730Y-275104151D01*
X353665871Y-274992888D01*
X353792533Y-274852216D01*
X353887179Y-274688284D01*
X353945674Y-274508256D01*
X353965460Y-274320000D01*
X353945674Y-274131744D01*
X353887179Y-273951716D01*
X353838400Y-273867229D01*
X353821928Y-273799331D01*
X353844780Y-273733304D01*
X353858108Y-273717549D01*
X353890469Y-273685188D01*
X353890469Y-273685187D01*
X353890472Y-273685185D01*
X353978478Y-273539606D01*
X354029086Y-273377196D01*
X354035500Y-273306616D01*
X354035500Y-272793384D01*
X354029086Y-272722804D01*
X353978478Y-272560394D01*
X353890472Y-272414815D01*
X353890470Y-272414813D01*
X353890469Y-272414811D01*
X353788339Y-272312681D01*
X353754854Y-272251358D01*
X353759838Y-272181666D01*
X353788339Y-272137319D01*
X353890468Y-272035189D01*
X353890469Y-272035188D01*
X353890472Y-272035185D01*
X353978478Y-271889606D01*
X354029086Y-271727196D01*
X354035500Y-271656616D01*
X354035500Y-271143384D01*
X354029086Y-271072804D01*
X353978478Y-270910394D01*
X353890472Y-270764815D01*
X353890470Y-270764813D01*
X353890469Y-270764811D01*
X353770188Y-270644530D01*
X353709014Y-270607549D01*
X353624606Y-270556522D01*
X353462196Y-270505914D01*
X353462194Y-270505913D01*
X353462192Y-270505913D01*
X353412778Y-270501423D01*
X353391616Y-270499500D01*
X353391613Y-270499500D01*
X353095452Y-270499500D01*
X353028413Y-270479815D01*
X353007771Y-270463181D01*
X350514590Y-267970000D01*
X352154540Y-267970000D01*
X352174326Y-268158256D01*
X352174327Y-268158259D01*
X352232818Y-268338277D01*
X352232819Y-268338279D01*
X352232821Y-268338284D01*
X352327467Y-268502216D01*
X352419844Y-268604811D01*
X352454129Y-268642888D01*
X352607265Y-268754148D01*
X352607270Y-268754151D01*
X352780192Y-268831142D01*
X352780197Y-268831144D01*
X352965354Y-268870500D01*
X352965355Y-268870500D01*
X353154644Y-268870500D01*
X353154646Y-268870500D01*
X353339803Y-268831144D01*
X353512730Y-268754151D01*
X353512737Y-268754145D01*
X353516396Y-268752034D01*
X353584295Y-268735559D01*
X353650323Y-268758409D01*
X353666080Y-268771738D01*
X353694811Y-268800469D01*
X353694813Y-268800470D01*
X353694815Y-268800472D01*
X353840394Y-268888478D01*
X354002804Y-268939086D01*
X354073384Y-268945500D01*
X354073387Y-268945500D01*
X354586613Y-268945500D01*
X354586616Y-268945500D01*
X354657196Y-268939086D01*
X354819606Y-268888478D01*
X354965185Y-268800472D01*
X355015264Y-268750393D01*
X355067319Y-268698339D01*
X355128642Y-268664854D01*
X355198334Y-268669838D01*
X355242681Y-268698339D01*
X355344811Y-268800469D01*
X355344813Y-268800470D01*
X355344815Y-268800472D01*
X355490394Y-268888478D01*
X355652804Y-268939086D01*
X355723384Y-268945500D01*
X355723387Y-268945500D01*
X356236613Y-268945500D01*
X356236616Y-268945500D01*
X356307196Y-268939086D01*
X356469606Y-268888478D01*
X356615185Y-268800472D01*
X356646337Y-268769320D01*
X356707659Y-268735834D01*
X356734019Y-268733000D01*
X357617868Y-268733000D01*
X357681229Y-268751605D01*
X357681637Y-268750899D01*
X357684548Y-268752579D01*
X357684907Y-268752685D01*
X357685863Y-268753339D01*
X357687270Y-268754151D01*
X357860192Y-268831142D01*
X357860197Y-268831144D01*
X358045354Y-268870500D01*
X358045355Y-268870500D01*
X358234644Y-268870500D01*
X358234646Y-268870500D01*
X358419803Y-268831144D01*
X358592730Y-268754151D01*
X358745871Y-268642888D01*
X358872533Y-268502216D01*
X358967179Y-268338284D01*
X359025674Y-268158256D01*
X359045460Y-267970000D01*
X359025674Y-267781744D01*
X358967179Y-267601716D01*
X358872533Y-267437784D01*
X358745871Y-267297112D01*
X358721695Y-267279547D01*
X358592734Y-267185851D01*
X358592729Y-267185848D01*
X358419807Y-267108857D01*
X358419802Y-267108855D01*
X358274001Y-267077865D01*
X358234646Y-267069500D01*
X358045354Y-267069500D01*
X358012897Y-267076398D01*
X357860197Y-267108855D01*
X357860192Y-267108857D01*
X357687270Y-267185848D01*
X357681637Y-267189101D01*
X357680425Y-267187002D01*
X357624952Y-267206797D01*
X357617868Y-267207000D01*
X356734019Y-267207000D01*
X356666980Y-267187315D01*
X356646337Y-267170680D01*
X356615188Y-267139530D01*
X356564447Y-267108856D01*
X356469606Y-267051522D01*
X356307196Y-267000914D01*
X356307194Y-267000913D01*
X356307192Y-267000913D01*
X356256236Y-266996283D01*
X356236616Y-266994500D01*
X355723384Y-266994500D01*
X355704145Y-266996248D01*
X355652807Y-267000913D01*
X355490393Y-267051522D01*
X355344811Y-267139530D01*
X355344810Y-267139531D01*
X355242681Y-267241661D01*
X355181358Y-267275146D01*
X355111666Y-267270162D01*
X355067319Y-267241661D01*
X354965188Y-267139530D01*
X354914447Y-267108856D01*
X354819606Y-267051522D01*
X354657196Y-267000914D01*
X354657194Y-267000913D01*
X354657192Y-267000913D01*
X354606236Y-266996283D01*
X354586616Y-266994500D01*
X354073384Y-266994500D01*
X354054145Y-266996248D01*
X354002807Y-267000913D01*
X353840393Y-267051522D01*
X353694813Y-267139529D01*
X353666079Y-267168263D01*
X353604755Y-267201747D01*
X353535064Y-267196761D01*
X353516404Y-267187970D01*
X353512730Y-267185849D01*
X353339807Y-267108857D01*
X353339802Y-267108855D01*
X353194001Y-267077865D01*
X353154646Y-267069500D01*
X352965354Y-267069500D01*
X352932897Y-267076398D01*
X352780197Y-267108855D01*
X352780192Y-267108857D01*
X352607270Y-267185848D01*
X352607265Y-267185851D01*
X352454129Y-267297111D01*
X352327466Y-267437785D01*
X352232821Y-267601715D01*
X352232818Y-267601722D01*
X352177345Y-267772451D01*
X352174326Y-267781744D01*
X352154540Y-267970000D01*
X350514590Y-267970000D01*
X348191819Y-265647229D01*
X348158334Y-265585906D01*
X348155500Y-265559548D01*
X348155500Y-254089452D01*
X348175185Y-254022413D01*
X348227989Y-253976658D01*
X348297147Y-253966714D01*
X348360703Y-253995739D01*
G37*
%TD.AperFunction*%
%TD*%
M02*
