%TF.GenerationSoftware,KiCad,Pcbnew,8.0.4*%
%TF.CreationDate,2024-08-11T19:16:42-04:00*%
%TF.ProjectId,foc_pcb,666f635f-7063-4622-9e6b-696361645f70,rev?*%
%TF.SameCoordinates,Original*%
%TF.FileFunction,Soldermask,Bot*%
%TF.FilePolarity,Negative*%
%FSLAX46Y46*%
G04 Gerber Fmt 4.6, Leading zero omitted, Abs format (unit mm)*
G04 Created by KiCad (PCBNEW 8.0.4) date 2024-08-11 19:16:42*
%MOMM*%
%LPD*%
G01*
G04 APERTURE LIST*
G04 Aperture macros list*
%AMRoundRect*
0 Rectangle with rounded corners*
0 $1 Rounding radius*
0 $2 $3 $4 $5 $6 $7 $8 $9 X,Y pos of 4 corners*
0 Add a 4 corners polygon primitive as box body*
4,1,4,$2,$3,$4,$5,$6,$7,$8,$9,$2,$3,0*
0 Add four circle primitives for the rounded corners*
1,1,$1+$1,$2,$3*
1,1,$1+$1,$4,$5*
1,1,$1+$1,$6,$7*
1,1,$1+$1,$8,$9*
0 Add four rect primitives between the rounded corners*
20,1,$1+$1,$2,$3,$4,$5,0*
20,1,$1+$1,$4,$5,$6,$7,0*
20,1,$1+$1,$6,$7,$8,$9,0*
20,1,$1+$1,$8,$9,$2,$3,0*%
G04 Aperture macros list end*
%ADD10C,3.200000*%
%ADD11R,1.700000X1.700000*%
%ADD12O,1.700000X1.700000*%
%ADD13O,1.104000X2.004000*%
%ADD14RoundRect,0.102000X1.858000X-1.858000X1.858000X1.858000X-1.858000X1.858000X-1.858000X-1.858000X0*%
%ADD15C,3.920000*%
%ADD16O,2.604000X1.404000*%
%ADD17RoundRect,0.200000X0.200000X0.275000X-0.200000X0.275000X-0.200000X-0.275000X0.200000X-0.275000X0*%
%ADD18RoundRect,0.200000X-0.200000X-0.275000X0.200000X-0.275000X0.200000X0.275000X-0.200000X0.275000X0*%
%ADD19RoundRect,0.200000X-0.275000X0.200000X-0.275000X-0.200000X0.275000X-0.200000X0.275000X0.200000X0*%
%ADD20RoundRect,0.225000X0.225000X0.250000X-0.225000X0.250000X-0.225000X-0.250000X0.225000X-0.250000X0*%
%ADD21RoundRect,0.225000X-0.225000X-0.250000X0.225000X-0.250000X0.225000X0.250000X-0.225000X0.250000X0*%
%ADD22RoundRect,0.225000X0.250000X-0.225000X0.250000X0.225000X-0.250000X0.225000X-0.250000X-0.225000X0*%
%ADD23RoundRect,0.225000X-0.250000X0.225000X-0.250000X-0.225000X0.250000X-0.225000X0.250000X0.225000X0*%
%ADD24RoundRect,0.200000X0.275000X-0.200000X0.275000X0.200000X-0.275000X0.200000X-0.275000X-0.200000X0*%
G04 APERTURE END LIST*
D10*
%TO.C,H12*%
X353060000Y-297180000D03*
%TD*%
%TO.C,H11*%
X261620000Y-297180000D03*
%TD*%
%TO.C,H10*%
X261620000Y-179070000D03*
%TD*%
%TO.C,H9*%
X365760000Y-179070000D03*
%TD*%
D11*
%TO.C,J1*%
X368300000Y-295910000D03*
D12*
X368300000Y-293370000D03*
X368300000Y-290830000D03*
%TD*%
D13*
%TO.C,J12*%
X358720000Y-300800000D03*
X365320000Y-300800000D03*
%TD*%
D10*
%TO.C,H2*%
X273550000Y-209550000D03*
%TD*%
D11*
%TO.C,J3*%
X334010000Y-297180000D03*
D12*
X331470000Y-297180000D03*
X328930000Y-297180000D03*
%TD*%
D11*
%TO.C,J4*%
X364490000Y-256530000D03*
D12*
X364490000Y-253990000D03*
X364490000Y-251450000D03*
X364490000Y-248910000D03*
%TD*%
D14*
%TO.C,J5*%
X267620000Y-279820000D03*
D15*
X267620000Y-287020000D03*
D16*
X261620000Y-276670000D03*
X261620000Y-290170000D03*
%TD*%
D11*
%TO.C,J9*%
X306070000Y-297180000D03*
D12*
X308610000Y-297180000D03*
%TD*%
D10*
%TO.C,H5*%
X305156602Y-198943398D03*
%TD*%
D11*
%TO.C,J10*%
X271780000Y-297180000D03*
D12*
X271780000Y-294640000D03*
X274320000Y-297180000D03*
X274320000Y-294640000D03*
X276860000Y-297180000D03*
X276860000Y-294640000D03*
%TD*%
D11*
%TO.C,J11*%
X341630000Y-297180000D03*
D12*
X344170000Y-297180000D03*
X346710000Y-297180000D03*
%TD*%
D14*
%TO.C,J6*%
X267620000Y-258420000D03*
D15*
X267620000Y-265620000D03*
D16*
X261620000Y-255270000D03*
X261620000Y-268770000D03*
%TD*%
D10*
%TO.C,H3*%
X294550000Y-230550000D03*
%TD*%
%TO.C,H7*%
X283943398Y-220156602D03*
%TD*%
D11*
%TO.C,J8*%
X295910000Y-297180000D03*
D12*
X298450000Y-297180000D03*
%TD*%
D10*
%TO.C,H6*%
X283943398Y-198943398D03*
%TD*%
%TO.C,H1*%
X294550000Y-188550000D03*
%TD*%
%TO.C,H4*%
X315550000Y-209550000D03*
%TD*%
%TO.C,H8*%
X305156602Y-220156602D03*
%TD*%
D11*
%TO.C,J2*%
X321295000Y-297180000D03*
D12*
X318755000Y-297180000D03*
X316215000Y-297180000D03*
%TD*%
D11*
%TO.C,J7*%
X285750000Y-297180000D03*
D12*
X288290000Y-297180000D03*
%TD*%
D17*
%TO.C,R13*%
X339090000Y-259080000D03*
X337440000Y-259080000D03*
%TD*%
D18*
%TO.C,R2*%
X306070000Y-283210000D03*
X307720000Y-283210000D03*
%TD*%
D19*
%TO.C,R5*%
X364490000Y-269240000D03*
X364490000Y-270890000D03*
%TD*%
D20*
%TO.C,C4*%
X332740000Y-269240000D03*
X331190000Y-269240000D03*
%TD*%
D17*
%TO.C,R12*%
X311150000Y-275590000D03*
X309500000Y-275590000D03*
%TD*%
D19*
%TO.C,R7*%
X350520000Y-271400000D03*
X350520000Y-273050000D03*
%TD*%
%TO.C,R18*%
X344615000Y-286640000D03*
X344615000Y-288290000D03*
%TD*%
D17*
%TO.C,R14*%
X334010000Y-259080000D03*
X332360000Y-259080000D03*
%TD*%
D21*
%TO.C,C7*%
X338810000Y-229870000D03*
X340360000Y-229870000D03*
%TD*%
D20*
%TO.C,C17*%
X345720000Y-245110000D03*
X344170000Y-245110000D03*
%TD*%
%TO.C,C8*%
X357150000Y-232410000D03*
X355600000Y-232410000D03*
%TD*%
D22*
%TO.C,C1*%
X302260000Y-284760000D03*
X302260000Y-283210000D03*
%TD*%
D23*
%TO.C,C3*%
X290830000Y-271780000D03*
X290830000Y-273330000D03*
%TD*%
D18*
%TO.C,R1*%
X306070000Y-280670000D03*
X307720000Y-280670000D03*
%TD*%
D19*
%TO.C,R17*%
X350520000Y-286640000D03*
X350520000Y-288290000D03*
%TD*%
D20*
%TO.C,C16*%
X339865000Y-245110000D03*
X338315000Y-245110000D03*
%TD*%
D17*
%TO.C,R10*%
X355980000Y-262890000D03*
X354330000Y-262890000D03*
%TD*%
D21*
%TO.C,C6*%
X355600000Y-229870000D03*
X357150000Y-229870000D03*
%TD*%
%TO.C,C12*%
X350110000Y-280670000D03*
X351660000Y-280670000D03*
%TD*%
D19*
%TO.C,R16*%
X337820000Y-286640000D03*
X337820000Y-288290000D03*
%TD*%
D20*
%TO.C,C10*%
X351660000Y-277495000D03*
X350110000Y-277495000D03*
%TD*%
D19*
%TO.C,R15*%
X335725000Y-286640000D03*
X335725000Y-288290000D03*
%TD*%
D23*
%TO.C,C2*%
X293370000Y-269240000D03*
X293370000Y-270790000D03*
%TD*%
D18*
%TO.C,R3*%
X306070000Y-285750000D03*
X307720000Y-285750000D03*
%TD*%
D17*
%TO.C,R4*%
X355980000Y-267970000D03*
X354330000Y-267970000D03*
%TD*%
D18*
%TO.C,R8*%
X354330000Y-257810000D03*
X355980000Y-257810000D03*
%TD*%
D23*
%TO.C,C9*%
X364490000Y-280390000D03*
X364490000Y-281940000D03*
%TD*%
D24*
%TO.C,R6*%
X353060000Y-273050000D03*
X353060000Y-271400000D03*
%TD*%
M02*
