%TF.GenerationSoftware,KiCad,Pcbnew,8.0.4*%
%TF.CreationDate,2025-06-19T10:42:41-04:00*%
%TF.ProjectId,foc_pcb,666f635f-7063-4622-9e6b-696361645f70,2.0*%
%TF.SameCoordinates,Original*%
%TF.FileFunction,Legend,Top*%
%TF.FilePolarity,Positive*%
%FSLAX46Y46*%
G04 Gerber Fmt 4.6, Leading zero omitted, Abs format (unit mm)*
G04 Created by KiCad (PCBNEW 8.0.4) date 2025-06-19 10:42:41*
%MOMM*%
%LPD*%
G01*
G04 APERTURE LIST*
G04 Aperture macros list*
%AMRoundRect*
0 Rectangle with rounded corners*
0 $1 Rounding radius*
0 $2 $3 $4 $5 $6 $7 $8 $9 X,Y pos of 4 corners*
0 Add a 4 corners polygon primitive as box body*
4,1,4,$2,$3,$4,$5,$6,$7,$8,$9,$2,$3,0*
0 Add four circle primitives for the rounded corners*
1,1,$1+$1,$2,$3*
1,1,$1+$1,$4,$5*
1,1,$1+$1,$6,$7*
1,1,$1+$1,$8,$9*
0 Add four rect primitives between the rounded corners*
20,1,$1+$1,$2,$3,$4,$5,0*
20,1,$1+$1,$4,$5,$6,$7,0*
20,1,$1+$1,$6,$7,$8,$9,0*
20,1,$1+$1,$8,$9,$2,$3,0*%
%AMHorizOval*
0 Thick line with rounded ends*
0 $1 width*
0 $2 $3 position (X,Y) of the first rounded end (center of the circle)*
0 $4 $5 position (X,Y) of the second rounded end (center of the circle)*
0 Add line between two ends*
20,1,$1,$2,$3,$4,$5,0*
0 Add two circle primitives to create the rounded ends*
1,1,$1,$2,$3*
1,1,$1,$4,$5*%
%AMRotRect*
0 Rectangle, with rotation*
0 The origin of the aperture is its center*
0 $1 length*
0 $2 width*
0 $3 Rotation angle, in degrees counterclockwise*
0 Add horizontal line*
21,1,$1,$2,0,0,$3*%
%AMFreePoly0*
4,1,6,1.000000,0.000000,0.500000,-0.750000,-0.500000,-0.750000,-0.500000,0.750000,0.500000,0.750000,1.000000,0.000000,1.000000,0.000000,$1*%
%AMFreePoly1*
4,1,6,0.500000,-0.750000,-0.650000,-0.750000,-0.150000,0.000000,-0.650000,0.750000,0.500000,0.750000,0.500000,-0.750000,0.500000,-0.750000,$1*%
G04 Aperture macros list end*
%ADD10C,0.300000*%
%ADD11C,0.150000*%
%ADD12C,0.120000*%
%ADD13C,0.152400*%
%ADD14C,0.100000*%
%ADD15C,0.127000*%
%ADD16C,0.254000*%
%ADD17C,0.200000*%
%ADD18C,0.152500*%
%ADD19C,0.010000*%
%ADD20RoundRect,0.200000X-0.275000X0.200000X-0.275000X-0.200000X0.275000X-0.200000X0.275000X0.200000X0*%
%ADD21RoundRect,0.218750X-0.256250X0.218750X-0.256250X-0.218750X0.256250X-0.218750X0.256250X0.218750X0*%
%ADD22R,2.692400X1.092200*%
%ADD23RoundRect,0.200000X0.200000X0.275000X-0.200000X0.275000X-0.200000X-0.275000X0.200000X-0.275000X0*%
%ADD24RoundRect,0.225000X0.250000X-0.225000X0.250000X0.225000X-0.250000X0.225000X-0.250000X-0.225000X0*%
%ADD25RoundRect,0.250001X-1.386080X0.706243X-0.706243X-1.386080X1.386080X-0.706243X0.706243X1.386080X0*%
%ADD26C,2.700000*%
%ADD27RoundRect,0.550800X0.925800X0.550800X-0.925800X0.550800X-0.925800X-0.550800X0.925800X-0.550800X0*%
%ADD28RoundRect,0.368300X-0.876300X0.368300X-0.876300X-0.368300X0.876300X-0.368300X0.876300X0.368300X0*%
%ADD29RoundRect,0.225000X-0.225000X-0.250000X0.225000X-0.250000X0.225000X0.250000X-0.225000X0.250000X0*%
%ADD30R,1.700000X1.700000*%
%ADD31O,1.700000X1.700000*%
%ADD32RoundRect,0.102000X-0.365000X0.605000X-0.365000X-0.605000X0.365000X-0.605000X0.365000X0.605000X0*%
%ADD33R,1.350000X1.350000*%
%ADD34O,1.350000X1.350000*%
%ADD35RoundRect,0.200000X0.275000X-0.200000X0.275000X0.200000X-0.275000X0.200000X-0.275000X-0.200000X0*%
%ADD36RotRect,1.350000X1.350000X250.000000*%
%ADD37HorizOval,1.350000X0.000000X0.000000X0.000000X0.000000X0*%
%ADD38O,0.343000X1.731500*%
%ADD39R,6.200000X2.750000*%
%ADD40FreePoly0,0.000000*%
%ADD41FreePoly1,0.000000*%
%ADD42C,3.200000*%
%ADD43RoundRect,0.225000X-0.250000X0.225000X-0.250000X-0.225000X0.250000X-0.225000X0.250000X0.225000X0*%
%ADD44RoundRect,0.200000X-0.200000X-0.275000X0.200000X-0.275000X0.200000X0.275000X-0.200000X0.275000X0*%
G04 APERTURE END LIST*
D10*
G36*
X302959232Y-142176030D02*
G01*
X302902894Y-142192304D01*
X302874368Y-142248612D01*
X302870718Y-142299715D01*
X302876725Y-142361161D01*
X302910738Y-142409847D01*
X302959232Y-142420175D01*
X303258185Y-142420175D01*
X303316267Y-142444034D01*
X303352119Y-142500560D01*
X303370293Y-142567193D01*
X303378422Y-142639833D01*
X303379818Y-142691285D01*
X303379818Y-143186903D01*
X303377357Y-143254250D01*
X303367864Y-143323959D01*
X303348302Y-143387452D01*
X303311020Y-143440203D01*
X303258185Y-143459771D01*
X302665261Y-143459771D01*
X302606400Y-143435504D01*
X302570759Y-143378343D01*
X302552906Y-143311269D01*
X302544982Y-143238398D01*
X302543628Y-143186903D01*
X302543628Y-142956826D01*
X302522928Y-142901234D01*
X302465538Y-142882542D01*
X302443391Y-142881794D01*
X302384370Y-142889615D01*
X302344912Y-142936267D01*
X302343154Y-142956826D01*
X302343154Y-143193644D01*
X302344404Y-143254300D01*
X302350975Y-143338198D01*
X302363189Y-143413535D01*
X302381056Y-143480248D01*
X302404586Y-143538273D01*
X302444787Y-143602014D01*
X302495097Y-143650045D01*
X302555541Y-143682215D01*
X302626143Y-143698372D01*
X302665261Y-143700399D01*
X303258185Y-143700399D01*
X303333358Y-143692304D01*
X303398608Y-143668122D01*
X303453904Y-143628003D01*
X303499216Y-143572098D01*
X303526629Y-143519901D01*
X303548395Y-143458973D01*
X303564502Y-143389378D01*
X303574935Y-143311180D01*
X303579683Y-143224443D01*
X303580000Y-143193644D01*
X303580000Y-142684544D01*
X303578791Y-142625027D01*
X303572414Y-142542221D01*
X303560504Y-142467345D01*
X303542995Y-142400583D01*
X303519822Y-142342120D01*
X303480001Y-142277402D01*
X303429840Y-142228208D01*
X303369184Y-142194979D01*
X303297879Y-142178154D01*
X303258185Y-142176030D01*
X302959232Y-142176030D01*
G37*
G36*
X302705415Y-141823441D02*
G01*
X302646718Y-141840814D01*
X302620156Y-141896227D01*
X302617194Y-141940385D01*
X302623547Y-141999309D01*
X302662078Y-142047794D01*
X302705415Y-142055570D01*
X303498520Y-142055570D01*
X303557217Y-142038290D01*
X303583779Y-141983623D01*
X303586741Y-141940385D01*
X303580388Y-141880274D01*
X303541856Y-141831245D01*
X303498520Y-141823441D01*
X302705415Y-141823441D01*
G37*
G36*
X302450132Y-142082534D02*
G01*
X302510336Y-142069223D01*
X302550360Y-142022574D01*
X302563125Y-141958065D01*
X302563558Y-141940385D01*
X302556593Y-141876999D01*
X302528035Y-141824529D01*
X302470606Y-141799417D01*
X302450132Y-141798235D01*
X302389798Y-141811606D01*
X302349836Y-141858326D01*
X302337136Y-141922753D01*
X302336706Y-141940385D01*
X302343630Y-142003647D01*
X302372108Y-142056146D01*
X302429591Y-142081345D01*
X302450132Y-142082534D01*
G37*
G36*
X303586741Y-139962018D02*
G01*
X303580388Y-139903094D01*
X303541856Y-139854609D01*
X303498520Y-139846833D01*
X302913803Y-139846833D01*
X302842865Y-139854510D01*
X302781486Y-139877094D01*
X302729634Y-139913912D01*
X302687280Y-139964289D01*
X302654391Y-140027553D01*
X302630937Y-140103031D01*
X302619520Y-140167250D01*
X302613380Y-140237676D01*
X302612212Y-140287935D01*
X302612212Y-140454411D01*
X302614333Y-140518574D01*
X302620593Y-140577624D01*
X302633351Y-140641367D01*
X302655132Y-140705348D01*
X302683937Y-140757461D01*
X302693398Y-140770071D01*
X302658827Y-140825964D01*
X302636016Y-140888202D01*
X302622328Y-140950588D01*
X302614333Y-141020596D01*
X302612212Y-141084265D01*
X302612212Y-141250741D01*
X302614841Y-141325080D01*
X302622739Y-141393427D01*
X302635918Y-141455495D01*
X302661727Y-141527984D01*
X302696980Y-141588113D01*
X302741706Y-141635198D01*
X302795936Y-141668555D01*
X302859702Y-141687502D01*
X302913803Y-141691843D01*
X303498520Y-141691843D01*
X303557217Y-141674563D01*
X303583779Y-141619896D01*
X303586741Y-141576658D01*
X303580388Y-141516547D01*
X303541856Y-141467518D01*
X303498520Y-141459715D01*
X302913803Y-141459715D01*
X302854251Y-141435544D01*
X302822558Y-141382049D01*
X302807310Y-141318040D01*
X302801232Y-141247050D01*
X302800669Y-141213811D01*
X302800669Y-141119729D01*
X302802874Y-141057145D01*
X302811435Y-140994802D01*
X302832946Y-140933909D01*
X302879309Y-140891222D01*
X302913803Y-140885256D01*
X303498520Y-140885256D01*
X303555285Y-140869444D01*
X303583286Y-140815539D01*
X303586741Y-140770071D01*
X303580388Y-140710219D01*
X303541856Y-140661013D01*
X303498520Y-140653127D01*
X302913803Y-140653127D01*
X302854121Y-140631683D01*
X302822471Y-140582071D01*
X302807277Y-140520917D01*
X302801228Y-140451716D01*
X302800669Y-140418947D01*
X302800669Y-140324865D01*
X302802886Y-140261200D01*
X302811485Y-140196840D01*
X302829360Y-140140025D01*
X302868923Y-140091376D01*
X302913803Y-140078961D01*
X303498520Y-140078961D01*
X303557217Y-140061434D01*
X303583779Y-140005941D01*
X303586741Y-139962018D01*
G37*
G36*
X303348841Y-138364238D02*
G01*
X303409984Y-138387453D01*
X303461804Y-138425938D01*
X303504272Y-138479525D01*
X303537356Y-138548046D01*
X303555993Y-138609136D01*
X303569321Y-138678460D01*
X303577328Y-138755948D01*
X303580000Y-138841529D01*
X303580000Y-139236323D01*
X303577328Y-139321829D01*
X303569321Y-139399257D01*
X303555993Y-139468533D01*
X303537356Y-139529585D01*
X303504272Y-139598071D01*
X303461804Y-139651637D01*
X303409984Y-139690111D01*
X303348841Y-139713322D01*
X303278408Y-139721096D01*
X302424926Y-139721096D01*
X302381590Y-139713320D01*
X302343058Y-139664835D01*
X302336706Y-139605912D01*
X302339667Y-139561753D01*
X302366230Y-139506341D01*
X302424926Y-139488968D01*
X302612212Y-139488968D01*
X302612212Y-138848270D01*
X302800669Y-138848270D01*
X302800669Y-139488968D01*
X303278408Y-139488968D01*
X303327362Y-139470550D01*
X303362191Y-139420648D01*
X303380563Y-139360335D01*
X303389510Y-139293910D01*
X303391835Y-139229582D01*
X303391835Y-138848270D01*
X303391244Y-138814828D01*
X303384895Y-138742234D01*
X303369152Y-138674933D01*
X303336998Y-138616458D01*
X303278408Y-138588591D01*
X302913803Y-138588591D01*
X302864139Y-138607066D01*
X302829565Y-138657072D01*
X302811585Y-138717461D01*
X302802910Y-138783930D01*
X302800669Y-138848270D01*
X302612212Y-138848270D01*
X302612212Y-138841529D01*
X302614841Y-138755948D01*
X302622739Y-138678460D01*
X302635918Y-138609136D01*
X302654391Y-138548046D01*
X302687280Y-138479525D01*
X302729634Y-138425938D01*
X302781486Y-138387453D01*
X302842865Y-138364238D01*
X302913803Y-138356463D01*
X303278408Y-138356463D01*
X303348841Y-138364238D01*
G37*
G36*
X303348841Y-136838698D02*
G01*
X303409984Y-136861912D01*
X303461804Y-136900397D01*
X303504272Y-136953984D01*
X303537356Y-137022505D01*
X303555993Y-137083595D01*
X303569321Y-137152919D01*
X303577328Y-137230407D01*
X303580000Y-137315988D01*
X303580000Y-137772918D01*
X303577328Y-137858424D01*
X303569321Y-137935851D01*
X303555993Y-138005127D01*
X303537356Y-138066180D01*
X303504272Y-138134666D01*
X303461804Y-138188232D01*
X303409984Y-138226706D01*
X303348841Y-138249916D01*
X303278408Y-138257691D01*
X303189309Y-138257691D01*
X303118455Y-138249916D01*
X303057115Y-138226706D01*
X303005269Y-138188232D01*
X302962896Y-138134666D01*
X302929974Y-138066180D01*
X302911474Y-138005127D01*
X302898270Y-137935851D01*
X302890354Y-137858424D01*
X302887718Y-137772918D01*
X302887790Y-137766177D01*
X303069434Y-137766177D01*
X303070704Y-137815375D01*
X303078126Y-137884851D01*
X303094812Y-137948603D01*
X303128016Y-138002711D01*
X303182568Y-138025563D01*
X303278408Y-138025563D01*
X303327362Y-138007144D01*
X303362191Y-137957243D01*
X303380563Y-137896929D01*
X303389510Y-137830505D01*
X303391835Y-137766177D01*
X303391835Y-137322436D01*
X303391244Y-137288998D01*
X303384895Y-137216436D01*
X303369152Y-137149205D01*
X303336998Y-137090837D01*
X303278408Y-137063050D01*
X303069434Y-137063050D01*
X303069434Y-137766177D01*
X302887790Y-137766177D01*
X302895256Y-137063079D01*
X302856064Y-137077449D01*
X302823250Y-137131138D01*
X302809024Y-137191428D01*
X302802357Y-137257940D01*
X302800669Y-137322436D01*
X302800669Y-137480413D01*
X302800247Y-137490586D01*
X302765484Y-137542824D01*
X302707173Y-137551927D01*
X302691218Y-137551511D01*
X302634617Y-137535272D01*
X302612212Y-137480413D01*
X302612212Y-137315988D01*
X302614841Y-137230407D01*
X302622739Y-137152919D01*
X302635918Y-137083595D01*
X302654391Y-137022505D01*
X302687280Y-136953984D01*
X302729634Y-136900397D01*
X302781486Y-136861912D01*
X302842865Y-136838698D01*
X302913803Y-136830922D01*
X303278408Y-136830922D01*
X303348841Y-136838698D01*
G37*
G36*
X302424926Y-136475109D02*
G01*
X302366230Y-136492482D01*
X302339667Y-136547894D01*
X302336706Y-136592053D01*
X302343058Y-136650976D01*
X302381590Y-136699461D01*
X302424926Y-136707237D01*
X303498520Y-136707237D01*
X303557217Y-136689958D01*
X303583779Y-136635291D01*
X303586741Y-136592053D01*
X303580388Y-136531942D01*
X303541856Y-136482913D01*
X303498520Y-136475109D01*
X302424926Y-136475109D01*
G37*
G36*
X302343154Y-135836756D02*
G01*
X302344404Y-135897412D01*
X302350975Y-135981310D01*
X302363189Y-136056648D01*
X302381056Y-136123361D01*
X302404586Y-136181385D01*
X302444787Y-136245126D01*
X302495097Y-136293157D01*
X302555541Y-136325327D01*
X302626143Y-136341484D01*
X302665261Y-136343511D01*
X303498520Y-136343511D01*
X303557346Y-136324964D01*
X303583812Y-136267662D01*
X303586741Y-136223344D01*
X303580447Y-136161428D01*
X303546191Y-136111979D01*
X303498520Y-136101418D01*
X303071193Y-136101418D01*
X303071193Y-135021962D01*
X303050492Y-134966492D01*
X302993102Y-134947690D01*
X302970956Y-134946930D01*
X302911934Y-134954828D01*
X302872477Y-135001487D01*
X302870718Y-135021962D01*
X302870718Y-136101418D01*
X302665261Y-136101418D01*
X302606400Y-136077491D01*
X302570759Y-136020859D01*
X302552906Y-135954153D01*
X302544982Y-135881474D01*
X302543628Y-135830015D01*
X302543628Y-135653574D01*
X302519859Y-135596538D01*
X302460154Y-135580955D01*
X302443391Y-135580594D01*
X302384499Y-135587766D01*
X302344924Y-135633103D01*
X302343154Y-135653574D01*
X302343154Y-135836756D01*
G37*
G36*
X303297010Y-133382673D02*
G01*
X303367225Y-133398809D01*
X303427502Y-133430944D01*
X303477810Y-133478940D01*
X303518118Y-133542654D01*
X303541768Y-133600670D01*
X303559762Y-133667389D01*
X303572088Y-133742753D01*
X303578733Y-133826700D01*
X303580000Y-133887405D01*
X303580000Y-134376281D01*
X303579683Y-134407081D01*
X303574935Y-134493818D01*
X303564502Y-134572016D01*
X303548395Y-134641611D01*
X303526629Y-134702539D01*
X303499216Y-134754736D01*
X303453904Y-134810641D01*
X303398608Y-134850760D01*
X303333358Y-134874942D01*
X303258185Y-134883036D01*
X302665261Y-134883036D01*
X302626143Y-134881010D01*
X302555541Y-134864853D01*
X302495097Y-134832683D01*
X302444787Y-134784652D01*
X302404586Y-134720911D01*
X302381056Y-134662886D01*
X302363189Y-134596173D01*
X302350975Y-134520836D01*
X302344404Y-134436938D01*
X302343154Y-134376281D01*
X302343154Y-133894146D01*
X302543628Y-133894146D01*
X302543628Y-134369540D01*
X302544982Y-134421035D01*
X302552906Y-134493907D01*
X302570759Y-134560980D01*
X302606400Y-134618142D01*
X302665261Y-134642408D01*
X303258185Y-134642408D01*
X303311020Y-134622840D01*
X303348302Y-134570089D01*
X303367864Y-134506597D01*
X303377357Y-134436888D01*
X303379818Y-134369540D01*
X303379818Y-133894146D01*
X303378422Y-133842651D01*
X303370293Y-133769779D01*
X303352119Y-133702706D01*
X303316267Y-133645544D01*
X303258185Y-133621278D01*
X302665261Y-133621278D01*
X302611659Y-133640846D01*
X302574528Y-133693597D01*
X302555283Y-133757089D01*
X302546018Y-133826799D01*
X302543628Y-133894146D01*
X302343154Y-133894146D01*
X302343154Y-133887405D01*
X302343466Y-133856580D01*
X302348159Y-133769784D01*
X302358490Y-133691553D01*
X302374472Y-133621946D01*
X302396113Y-133561022D01*
X302423424Y-133508841D01*
X302468676Y-133452968D01*
X302524051Y-133412885D01*
X302589571Y-133388732D01*
X302665261Y-133380650D01*
X303258185Y-133380650D01*
X303297010Y-133382673D01*
G37*
G36*
X303580000Y-131940399D02*
G01*
X303558850Y-131885522D01*
X303501685Y-131867798D01*
X303480055Y-131867126D01*
X303421163Y-131874390D01*
X303381589Y-131919915D01*
X303379818Y-131940399D01*
X303379818Y-132758710D01*
X303377357Y-132826057D01*
X303367864Y-132895767D01*
X303348302Y-132959259D01*
X303311020Y-133012010D01*
X303258185Y-133031578D01*
X302665261Y-133031578D01*
X302606400Y-133007312D01*
X302570759Y-132950150D01*
X302552906Y-132883077D01*
X302544982Y-132810205D01*
X302543628Y-132758710D01*
X302543628Y-131942157D01*
X302522928Y-131886687D01*
X302465538Y-131867885D01*
X302443391Y-131867126D01*
X302384370Y-131875024D01*
X302344912Y-131921683D01*
X302343154Y-131942157D01*
X302343154Y-132765451D01*
X302344404Y-132826107D01*
X302350975Y-132910005D01*
X302363189Y-132985343D01*
X302381056Y-133052056D01*
X302404586Y-133110080D01*
X302444787Y-133173822D01*
X302495097Y-133221852D01*
X302555541Y-133254022D01*
X302626143Y-133270179D01*
X302665261Y-133272206D01*
X303258185Y-133272206D01*
X303333358Y-133264112D01*
X303398608Y-133239929D01*
X303453904Y-133199810D01*
X303499216Y-133143905D01*
X303526629Y-133091708D01*
X303548395Y-133030780D01*
X303564502Y-132961186D01*
X303574935Y-132882988D01*
X303579683Y-132796250D01*
X303580000Y-132765451D01*
X303580000Y-131940399D01*
G37*
D11*
G36*
X321471000Y-135369298D02*
G01*
X321064091Y-135755690D01*
X321064091Y-136073450D01*
X321471000Y-136071985D01*
X321471000Y-136223171D01*
X320470581Y-136223171D01*
X320470581Y-135636744D01*
X320470718Y-135629661D01*
X320610776Y-135629661D01*
X320610776Y-136073450D01*
X320923896Y-136073450D01*
X320923896Y-135610121D01*
X320923569Y-135580712D01*
X320920959Y-135528436D01*
X320914614Y-135478474D01*
X320903526Y-135441024D01*
X320874558Y-135399340D01*
X320833589Y-135376852D01*
X320783700Y-135370519D01*
X320748041Y-135370519D01*
X320700216Y-135376690D01*
X320656450Y-135402759D01*
X320631964Y-135440067D01*
X320618592Y-135487511D01*
X320614142Y-135528000D01*
X320611539Y-135577263D01*
X320610776Y-135629661D01*
X320470718Y-135629661D01*
X320471546Y-135586834D01*
X320475469Y-135528848D01*
X320482408Y-135475752D01*
X320492365Y-135427545D01*
X320508297Y-135376151D01*
X320532374Y-135325090D01*
X320558930Y-135289149D01*
X320598463Y-135256616D01*
X320647207Y-135234205D01*
X320696317Y-135223051D01*
X320752193Y-135219333D01*
X320793958Y-135219333D01*
X320810578Y-135219661D01*
X320864601Y-135225979D01*
X320912172Y-135240338D01*
X320958639Y-135266594D01*
X320996680Y-135303352D01*
X321000827Y-135308686D01*
X321026172Y-135350613D01*
X321045066Y-135400582D01*
X321056125Y-135449812D01*
X321062445Y-135504950D01*
X321064091Y-135555411D01*
X321471000Y-135166332D01*
X321471000Y-135369298D01*
G37*
G36*
X320470581Y-134540826D02*
G01*
X320470581Y-134654155D01*
X320644726Y-134935523D01*
X320807636Y-134935523D01*
X320655961Y-134690547D01*
X321471000Y-134690547D01*
X321471000Y-134540826D01*
X320470581Y-134540826D01*
G37*
G36*
X333177989Y-158036720D02*
G01*
X333233905Y-158039822D01*
X333286707Y-158047062D01*
X333336395Y-158058438D01*
X333382969Y-158073952D01*
X333436808Y-158099161D01*
X333485780Y-158130833D01*
X333529887Y-158168970D01*
X333538077Y-158177389D01*
X333575125Y-158224308D01*
X333600083Y-158267631D01*
X333620882Y-158316098D01*
X333637521Y-158369709D01*
X333650000Y-158428465D01*
X333658320Y-158492365D01*
X333661830Y-158543666D01*
X333663000Y-158597861D01*
X333663000Y-159073890D01*
X332662581Y-159073890D01*
X332662581Y-158597861D01*
X332802776Y-158597861D01*
X332802776Y-158924169D01*
X333522804Y-158924169D01*
X333522804Y-158597861D01*
X333521804Y-158552058D01*
X333517358Y-158495382D01*
X333509355Y-158443729D01*
X333494350Y-158386224D01*
X333473787Y-158336567D01*
X333447667Y-158294757D01*
X333408987Y-158254944D01*
X333364016Y-158225558D01*
X333315600Y-158206733D01*
X333267366Y-158195714D01*
X333212915Y-158189417D01*
X333162790Y-158187777D01*
X333113374Y-158189417D01*
X333059427Y-158195714D01*
X333011319Y-158206733D01*
X332962572Y-158225558D01*
X332916593Y-158254944D01*
X332889917Y-158280498D01*
X332856573Y-158328102D01*
X332834898Y-158376273D01*
X332818782Y-158432172D01*
X332809890Y-158482456D01*
X332804555Y-158537685D01*
X332802776Y-158597861D01*
X332662581Y-158597861D01*
X332662621Y-158588530D01*
X332664533Y-158533702D01*
X332669313Y-158480848D01*
X332676960Y-158429969D01*
X332687476Y-158381065D01*
X332703369Y-158326507D01*
X332714299Y-158296805D01*
X332737247Y-158248517D01*
X332765056Y-158204928D01*
X332797727Y-158166038D01*
X332835260Y-158131845D01*
X332850167Y-158120310D01*
X332899374Y-158090171D01*
X332945523Y-158070172D01*
X332996346Y-158054823D01*
X333051845Y-158044125D01*
X333112018Y-158038079D01*
X333163523Y-158036591D01*
X333177989Y-158036720D01*
G37*
G36*
X332662581Y-157410108D02*
G01*
X332662581Y-157523436D01*
X332836726Y-157804804D01*
X332999636Y-157804804D01*
X332847961Y-157559828D01*
X333663000Y-157559828D01*
X333663000Y-157410108D01*
X332662581Y-157410108D01*
G37*
G36*
X324991773Y-149394748D02*
G01*
X324952022Y-149365195D01*
X324907021Y-149340038D01*
X324856768Y-149319277D01*
X324808489Y-149304718D01*
X324801263Y-149302913D01*
X324749874Y-149291873D01*
X324697432Y-149283545D01*
X324643939Y-149277929D01*
X324589394Y-149275023D01*
X324557753Y-149274581D01*
X324502005Y-149275729D01*
X324449249Y-149279175D01*
X324399486Y-149284917D01*
X324337790Y-149296146D01*
X324281414Y-149311459D01*
X324230357Y-149330856D01*
X324184621Y-149354335D01*
X324144205Y-149381899D01*
X324117383Y-149405251D01*
X324078473Y-149448727D01*
X324046157Y-149497486D01*
X324020436Y-149551528D01*
X324004608Y-149598566D01*
X323993001Y-149648985D01*
X323985615Y-149702785D01*
X323982449Y-149759966D01*
X323982317Y-149774790D01*
X323984428Y-149832817D01*
X323990759Y-149887462D01*
X324001311Y-149938727D01*
X324016084Y-149986610D01*
X324040485Y-150041709D01*
X324071482Y-150091524D01*
X324109074Y-150136057D01*
X324117383Y-150144330D01*
X324163748Y-150181974D01*
X324206824Y-150207495D01*
X324255221Y-150228933D01*
X324308937Y-150246288D01*
X324367973Y-150259559D01*
X324432329Y-150268747D01*
X324484087Y-150272958D01*
X324538838Y-150274872D01*
X324557753Y-150275000D01*
X324612899Y-150273667D01*
X324666994Y-150269670D01*
X324720036Y-150263008D01*
X324772027Y-150253682D01*
X324801263Y-150247156D01*
X324850117Y-150233196D01*
X324901026Y-150213149D01*
X324946684Y-150188736D01*
X324987091Y-150159958D01*
X324991773Y-150156053D01*
X325027284Y-150118570D01*
X325050391Y-150084490D01*
X325053322Y-150080338D01*
X324942680Y-149975069D01*
X324935597Y-149987770D01*
X324929979Y-150000226D01*
X324899377Y-150042339D01*
X324856420Y-150075865D01*
X324807195Y-150098697D01*
X324788563Y-150104762D01*
X324735852Y-150117906D01*
X324687000Y-150126325D01*
X324635601Y-150131870D01*
X324581654Y-150134540D01*
X324557753Y-150134804D01*
X324499699Y-150133422D01*
X324446436Y-150129274D01*
X324397964Y-150122362D01*
X324347469Y-150110803D01*
X324303496Y-150095481D01*
X324255461Y-150070290D01*
X324216041Y-150038955D01*
X324182348Y-149996933D01*
X324171850Y-149978000D01*
X324153313Y-149930327D01*
X324141929Y-149881723D01*
X324135338Y-149827257D01*
X324133503Y-149774790D01*
X324135338Y-149722324D01*
X324141929Y-149667858D01*
X324153313Y-149619253D01*
X324171850Y-149571580D01*
X324201287Y-149526524D01*
X324236877Y-149492459D01*
X324281083Y-149464537D01*
X324303496Y-149454099D01*
X324354284Y-149436895D01*
X324405710Y-149425874D01*
X324454980Y-149419423D01*
X324509042Y-149415736D01*
X324557753Y-149414776D01*
X324612257Y-149416237D01*
X324664422Y-149420620D01*
X324714251Y-149427925D01*
X324768335Y-149439850D01*
X324787830Y-149445307D01*
X324835366Y-149463258D01*
X324879282Y-149490169D01*
X324916205Y-149528408D01*
X324929979Y-149550819D01*
X324935597Y-149563520D01*
X324942680Y-149577686D01*
X325053322Y-149471196D01*
X325050391Y-149467044D01*
X325021815Y-149425645D01*
X324991773Y-149394748D01*
G37*
G36*
X325312952Y-149847330D02*
G01*
X325363045Y-149840894D01*
X325418984Y-149833910D01*
X325470372Y-149827733D01*
X325524573Y-149821547D01*
X325578933Y-149815823D01*
X325629628Y-149811335D01*
X325680843Y-149808129D01*
X325732577Y-149806206D01*
X325784829Y-149805565D01*
X325834746Y-149806191D01*
X325888203Y-149808391D01*
X325938800Y-149812176D01*
X325970942Y-149815579D01*
X326022097Y-149825297D01*
X326068085Y-149846348D01*
X326083050Y-149860519D01*
X326103392Y-149905033D01*
X326108207Y-149953332D01*
X326102666Y-150002059D01*
X326081829Y-150048037D01*
X326061312Y-150070080D01*
X326018696Y-150097636D01*
X325971343Y-150115273D01*
X325940168Y-150122103D01*
X325890637Y-150128801D01*
X325840716Y-150132708D01*
X325785734Y-150134606D01*
X325759672Y-150134804D01*
X325710047Y-150134014D01*
X325654278Y-150131096D01*
X325600800Y-150126027D01*
X325549612Y-150118807D01*
X325514452Y-150112334D01*
X325466411Y-150101019D01*
X325418883Y-150086735D01*
X325371870Y-150069483D01*
X325325370Y-150049262D01*
X325299030Y-150036374D01*
X325283643Y-150028070D01*
X325283643Y-150189759D01*
X325287795Y-150192445D01*
X325333820Y-150212595D01*
X325385187Y-150229815D01*
X325434516Y-150242477D01*
X325487936Y-150252896D01*
X325503950Y-150255460D01*
X325552456Y-150262100D01*
X325608721Y-150268111D01*
X325664635Y-150272252D01*
X325720199Y-150274522D01*
X325759672Y-150275000D01*
X325815949Y-150273995D01*
X325869375Y-150270981D01*
X325919951Y-150265958D01*
X325975353Y-150257558D01*
X326026874Y-150246423D01*
X326074143Y-150231209D01*
X326122240Y-150207182D01*
X326164017Y-150176072D01*
X326199474Y-150137878D01*
X326203462Y-150132606D01*
X326228910Y-150090091D01*
X326244494Y-150048342D01*
X326254976Y-149998156D01*
X326257928Y-149952843D01*
X326254508Y-149897629D01*
X326244250Y-149849223D01*
X326224535Y-149802905D01*
X326203217Y-149772836D01*
X326164930Y-149737564D01*
X326118152Y-149710211D01*
X326068792Y-149692363D01*
X326050810Y-149687840D01*
X325998420Y-149678009D01*
X325946968Y-149671711D01*
X325890281Y-149667564D01*
X325837525Y-149665720D01*
X325800217Y-149665369D01*
X325748109Y-149665930D01*
X325695130Y-149667611D01*
X325641281Y-149670414D01*
X325586561Y-149674338D01*
X325530971Y-149679382D01*
X325474510Y-149685548D01*
X325451682Y-149688328D01*
X325451682Y-149414776D01*
X326231305Y-149414776D01*
X326231305Y-149274581D01*
X325300496Y-149274581D01*
X325300496Y-149848796D01*
X325312952Y-149847330D01*
G37*
G36*
X306916017Y-148804546D02*
G01*
X306974003Y-148808469D01*
X307027099Y-148815408D01*
X307075306Y-148825365D01*
X307126700Y-148841297D01*
X307177761Y-148865374D01*
X307213702Y-148891930D01*
X307246235Y-148931463D01*
X307268646Y-148980207D01*
X307279800Y-149029317D01*
X307283518Y-149085193D01*
X307283518Y-149126958D01*
X307283190Y-149143578D01*
X307276872Y-149197601D01*
X307262513Y-149245172D01*
X307236257Y-149291639D01*
X307199499Y-149329680D01*
X307194165Y-149333827D01*
X307152238Y-149359172D01*
X307102269Y-149378066D01*
X307053039Y-149389125D01*
X306997901Y-149395445D01*
X306947440Y-149397091D01*
X307336519Y-149804000D01*
X307133553Y-149804000D01*
X306747161Y-149397091D01*
X306429401Y-149397091D01*
X306430866Y-149804000D01*
X306279680Y-149804000D01*
X306279680Y-149256896D01*
X306429401Y-149256896D01*
X306892730Y-149256896D01*
X306922139Y-149256569D01*
X306974415Y-149253959D01*
X307024377Y-149247614D01*
X307061827Y-149236526D01*
X307103511Y-149207558D01*
X307125999Y-149166589D01*
X307132332Y-149116700D01*
X307132332Y-149081041D01*
X307126161Y-149033216D01*
X307100092Y-148989450D01*
X307062784Y-148964964D01*
X307015340Y-148951592D01*
X306974851Y-148947142D01*
X306925588Y-148944539D01*
X306873190Y-148943776D01*
X306429401Y-148943776D01*
X306429401Y-149256896D01*
X306279680Y-149256896D01*
X306279680Y-148803581D01*
X306866107Y-148803581D01*
X306916017Y-148804546D01*
G37*
G36*
X308629785Y-148889799D02*
G01*
X308629785Y-148803581D01*
X307567328Y-148803581D01*
X307567328Y-148943776D01*
X308398975Y-148943776D01*
X307708745Y-149804000D01*
X307897789Y-149804000D01*
X308629785Y-148889799D01*
G37*
G36*
X316018748Y-135534461D02*
G01*
X315989195Y-135574212D01*
X315964038Y-135619213D01*
X315943277Y-135669466D01*
X315928718Y-135717745D01*
X315926913Y-135724971D01*
X315915873Y-135776360D01*
X315907545Y-135828802D01*
X315901929Y-135882295D01*
X315899023Y-135936840D01*
X315898581Y-135968481D01*
X315899729Y-136024229D01*
X315903175Y-136076985D01*
X315908917Y-136126748D01*
X315920146Y-136188444D01*
X315935459Y-136244820D01*
X315954856Y-136295877D01*
X315978335Y-136341613D01*
X316005899Y-136382029D01*
X316029251Y-136408851D01*
X316072727Y-136447761D01*
X316121486Y-136480077D01*
X316175528Y-136505798D01*
X316222566Y-136521626D01*
X316272985Y-136533233D01*
X316326785Y-136540619D01*
X316383966Y-136543785D01*
X316398790Y-136543917D01*
X316456817Y-136541806D01*
X316511462Y-136535475D01*
X316562727Y-136524923D01*
X316610610Y-136510150D01*
X316665709Y-136485749D01*
X316715524Y-136454752D01*
X316760057Y-136417160D01*
X316768330Y-136408851D01*
X316805974Y-136362486D01*
X316831495Y-136319410D01*
X316852933Y-136271013D01*
X316870288Y-136217297D01*
X316883559Y-136158261D01*
X316892747Y-136093905D01*
X316896958Y-136042147D01*
X316898872Y-135987396D01*
X316899000Y-135968481D01*
X316897667Y-135913335D01*
X316893670Y-135859240D01*
X316887008Y-135806198D01*
X316877682Y-135754207D01*
X316871156Y-135724971D01*
X316857196Y-135676117D01*
X316837149Y-135625208D01*
X316812736Y-135579550D01*
X316783958Y-135539143D01*
X316780053Y-135534461D01*
X316742570Y-135498950D01*
X316708490Y-135475843D01*
X316704338Y-135472912D01*
X316599069Y-135583554D01*
X316611770Y-135590637D01*
X316624226Y-135596255D01*
X316666339Y-135626857D01*
X316699865Y-135669814D01*
X316722697Y-135719039D01*
X316728762Y-135737671D01*
X316741906Y-135790382D01*
X316750325Y-135839234D01*
X316755870Y-135890633D01*
X316758540Y-135944580D01*
X316758804Y-135968481D01*
X316757422Y-136026535D01*
X316753274Y-136079798D01*
X316746362Y-136128270D01*
X316734803Y-136178765D01*
X316719481Y-136222738D01*
X316694290Y-136270773D01*
X316662955Y-136310193D01*
X316620933Y-136343886D01*
X316602000Y-136354384D01*
X316554327Y-136372921D01*
X316505723Y-136384305D01*
X316451257Y-136390896D01*
X316398790Y-136392731D01*
X316346324Y-136390896D01*
X316291858Y-136384305D01*
X316243253Y-136372921D01*
X316195580Y-136354384D01*
X316150524Y-136324947D01*
X316116459Y-136289357D01*
X316088537Y-136245151D01*
X316078099Y-136222738D01*
X316060895Y-136171950D01*
X316049874Y-136120524D01*
X316043423Y-136071254D01*
X316039736Y-136017192D01*
X316038776Y-135968481D01*
X316040237Y-135913977D01*
X316044620Y-135861812D01*
X316051925Y-135811983D01*
X316063850Y-135757899D01*
X316069307Y-135738404D01*
X316087258Y-135690868D01*
X316114169Y-135646952D01*
X316152408Y-135610029D01*
X316174819Y-135596255D01*
X316187520Y-135590637D01*
X316201686Y-135583554D01*
X316095196Y-135472912D01*
X316091044Y-135475843D01*
X316049645Y-135504419D01*
X316018748Y-135534461D01*
G37*
G36*
X315898581Y-134814189D02*
G01*
X315899470Y-134864507D01*
X315903082Y-134923122D01*
X315909473Y-134976978D01*
X315918643Y-135026076D01*
X315933315Y-135078712D01*
X315951988Y-135124496D01*
X315955489Y-135131461D01*
X315985074Y-135174286D01*
X316024031Y-135206594D01*
X316072362Y-135228382D01*
X316121248Y-135238686D01*
X316167248Y-135241370D01*
X316241742Y-135241370D01*
X316241742Y-135089939D01*
X316234659Y-135089939D01*
X316175552Y-135091405D01*
X316124988Y-135084536D01*
X316082496Y-135058707D01*
X316065643Y-135033275D01*
X316050347Y-134985951D01*
X316042554Y-134936284D01*
X316039196Y-134883863D01*
X316038776Y-134854733D01*
X316038776Y-134671551D01*
X316040285Y-134613179D01*
X316044811Y-134562319D01*
X316054225Y-134511206D01*
X316073535Y-134459884D01*
X316100570Y-134427797D01*
X316147112Y-134409274D01*
X316179216Y-134406792D01*
X316229592Y-134414197D01*
X316254931Y-134427797D01*
X316283106Y-134468827D01*
X316302665Y-134518362D01*
X316316725Y-134563596D01*
X316328042Y-134611509D01*
X316340073Y-134664575D01*
X316346034Y-134691091D01*
X316358734Y-134751174D01*
X316371022Y-134804492D01*
X316383704Y-134853069D01*
X316399000Y-134903753D01*
X316417139Y-134953777D01*
X316428832Y-134980763D01*
X316454503Y-135032277D01*
X316482974Y-135077643D01*
X316514244Y-135116861D01*
X316554263Y-135154845D01*
X316598092Y-135184461D01*
X316645673Y-135207111D01*
X316696948Y-135224198D01*
X316751915Y-135235722D01*
X316801970Y-135241172D01*
X316845755Y-135242591D01*
X316899000Y-135242591D01*
X316899000Y-134245836D01*
X316758804Y-134245836D01*
X316758804Y-135087253D01*
X316706765Y-135073239D01*
X316661779Y-135050738D01*
X316623845Y-135019750D01*
X316592963Y-134980274D01*
X316566814Y-134932555D01*
X316546112Y-134884440D01*
X316527444Y-134830387D01*
X316513061Y-134779331D01*
X316504303Y-134742870D01*
X316484764Y-134653233D01*
X316474414Y-134602782D01*
X316463427Y-134554162D01*
X316450944Y-134506439D01*
X316446662Y-134492277D01*
X316431873Y-134445623D01*
X316411732Y-134398052D01*
X316384907Y-134352729D01*
X316349876Y-134313274D01*
X316341393Y-134306164D01*
X316296637Y-134279502D01*
X316246634Y-134262715D01*
X316197145Y-134256050D01*
X316179704Y-134255606D01*
X316125809Y-134259375D01*
X316078061Y-134270684D01*
X316030126Y-134293406D01*
X315990559Y-134326389D01*
X315963305Y-134362828D01*
X315938085Y-134414166D01*
X315921399Y-134465388D01*
X315910969Y-134513164D01*
X315903701Y-134565566D01*
X315899592Y-134622596D01*
X315898581Y-134671551D01*
X315898581Y-134814189D01*
G37*
G36*
X295756986Y-151211473D02*
G01*
X295711097Y-151070241D01*
X295330608Y-151193869D01*
X295282185Y-151208374D01*
X295233463Y-151220518D01*
X295184441Y-151230302D01*
X295135118Y-151237726D01*
X295106800Y-151240908D01*
X295052746Y-151242902D01*
X295003826Y-151237770D01*
X294954925Y-151223481D01*
X294921382Y-151206133D01*
X294882417Y-151176246D01*
X294848224Y-151138606D01*
X294842324Y-151130380D01*
X294817236Y-151087206D01*
X294797016Y-151039515D01*
X294790028Y-151019223D01*
X294776982Y-150971542D01*
X294768992Y-150919132D01*
X294768790Y-150870190D01*
X294778094Y-150818501D01*
X294786560Y-150794355D01*
X294809909Y-150750028D01*
X294841006Y-150711370D01*
X294879851Y-150678380D01*
X294926445Y-150651058D01*
X294878443Y-150503322D01*
X294869529Y-150507503D01*
X294824818Y-150534260D01*
X294784287Y-150563735D01*
X294741170Y-150602690D01*
X294704072Y-150645559D01*
X294672995Y-150692339D01*
X294655621Y-150725700D01*
X294636209Y-150779308D01*
X294626947Y-150827348D01*
X294623971Y-150878450D01*
X294627282Y-150932613D01*
X294636879Y-150989836D01*
X294649083Y-151037819D01*
X294656694Y-151062546D01*
X294673156Y-151108603D01*
X294696250Y-151160968D01*
X294722142Y-151207545D01*
X294750831Y-151248336D01*
X294788949Y-151289646D01*
X294831096Y-151322623D01*
X294838512Y-151327309D01*
X294883919Y-151351845D01*
X294930304Y-151370664D01*
X294977667Y-151383766D01*
X295026007Y-151391151D01*
X295075324Y-151392820D01*
X295091980Y-151392106D01*
X295142768Y-151387648D01*
X295194637Y-151380347D01*
X295247586Y-151370203D01*
X295301615Y-151357217D01*
X295356725Y-151341387D01*
X295375335Y-151335478D01*
X295756986Y-151211473D01*
G37*
G36*
X295961146Y-151839814D02*
G01*
X295944751Y-151792233D01*
X295923203Y-151737604D01*
X295900482Y-151688358D01*
X295876589Y-151644497D01*
X295846370Y-151598971D01*
X295814463Y-151561198D01*
X295808981Y-151555656D01*
X295767610Y-151524068D01*
X295720576Y-151505381D01*
X295667878Y-151499594D01*
X295618200Y-151504901D01*
X295573622Y-151516563D01*
X295502774Y-151539583D01*
X295549569Y-151683602D01*
X295556305Y-151681414D01*
X295612066Y-151661755D01*
X295662278Y-151652662D01*
X295710673Y-151664096D01*
X295734559Y-151683076D01*
X295763731Y-151723357D01*
X295786490Y-151768185D01*
X295805883Y-151817002D01*
X295815284Y-151844577D01*
X295871890Y-152018793D01*
X295888493Y-152074775D01*
X295899905Y-152124544D01*
X295906747Y-152176064D01*
X295904241Y-152230841D01*
X295888445Y-152269713D01*
X295849904Y-152301711D01*
X295820139Y-152313992D01*
X295769940Y-152322517D01*
X295741639Y-152317413D01*
X295702164Y-152287098D01*
X295668255Y-152246030D01*
X295640905Y-152207356D01*
X295615336Y-152165284D01*
X295587496Y-152118534D01*
X295573633Y-152095158D01*
X295542987Y-152041939D01*
X295514825Y-151995029D01*
X295487752Y-151952748D01*
X295457543Y-151909272D01*
X295424833Y-151867301D01*
X295405373Y-151845249D01*
X295365040Y-151804189D01*
X295323944Y-151769841D01*
X295282085Y-151742206D01*
X295232287Y-151718447D01*
X295181451Y-151703825D01*
X295129199Y-151696987D01*
X295075154Y-151696581D01*
X295019316Y-151702607D01*
X294970027Y-151712892D01*
X294927947Y-151725072D01*
X294877308Y-151741526D01*
X295185322Y-152689496D01*
X295318656Y-152646173D01*
X295058644Y-151845939D01*
X295112466Y-151843185D01*
X295162204Y-151850683D01*
X295207857Y-151868433D01*
X295249426Y-151896433D01*
X295289041Y-151933736D01*
X295323598Y-151973099D01*
X295358056Y-152018738D01*
X295387512Y-152062851D01*
X295407109Y-152094821D01*
X295453391Y-152174032D01*
X295478825Y-152218816D01*
X295504298Y-152261662D01*
X295530918Y-152303191D01*
X295539367Y-152315337D01*
X295567849Y-152355137D01*
X295601704Y-152394156D01*
X295641221Y-152428971D01*
X295686731Y-152455670D01*
X295696995Y-152459811D01*
X295747799Y-152471337D01*
X295800542Y-152471851D01*
X295849669Y-152462897D01*
X295866394Y-152457930D01*
X295916486Y-152437690D01*
X295958403Y-152412180D01*
X295996970Y-152375758D01*
X296024408Y-152332162D01*
X296039068Y-152289084D01*
X296047189Y-152232466D01*
X296047230Y-152178594D01*
X296042386Y-152129934D01*
X296033106Y-152077850D01*
X296019390Y-152022342D01*
X296005224Y-151975470D01*
X295961146Y-151839814D01*
G37*
G36*
X301053309Y-169009581D02*
G01*
X300905053Y-169009581D01*
X300905053Y-169409651D01*
X300903838Y-169460209D01*
X300900191Y-169510369D01*
X300894114Y-169560133D01*
X300885605Y-169609498D01*
X300879652Y-169637529D01*
X300864539Y-169689797D01*
X300844359Y-169734738D01*
X300815598Y-169776538D01*
X300788794Y-169802637D01*
X300747560Y-169830460D01*
X300701515Y-169851347D01*
X300692073Y-169854417D01*
X300644309Y-169864935D01*
X300593258Y-169869428D01*
X300571906Y-169869804D01*
X300522012Y-169867640D01*
X300470574Y-169859646D01*
X300450762Y-169854417D01*
X300404247Y-169835376D01*
X300360416Y-169807104D01*
X300354774Y-169802637D01*
X300317017Y-169763706D01*
X300290254Y-169719002D01*
X300272207Y-169671577D01*
X300263672Y-169638262D01*
X300254440Y-169589338D01*
X300247476Y-169539807D01*
X300242779Y-169489668D01*
X300240350Y-169438922D01*
X300239980Y-169409651D01*
X300239980Y-169009581D01*
X300090259Y-169009581D01*
X300090259Y-169410872D01*
X300091767Y-169472440D01*
X300096289Y-169531604D01*
X300103826Y-169588364D01*
X300114378Y-169642719D01*
X300127945Y-169694671D01*
X300144527Y-169744217D01*
X300164123Y-169791360D01*
X300186735Y-169836099D01*
X300213888Y-169876857D01*
X300256190Y-169920162D01*
X300296721Y-169948693D01*
X300343198Y-169971789D01*
X300395621Y-169989451D01*
X300453989Y-170001678D01*
X300518303Y-170008471D01*
X300570441Y-170010000D01*
X300619339Y-170008576D01*
X300676308Y-170002793D01*
X300728661Y-169992562D01*
X300776400Y-169977882D01*
X300827593Y-169954395D01*
X300872141Y-169924502D01*
X300878919Y-169918897D01*
X300916535Y-169883268D01*
X300948964Y-169844891D01*
X300976206Y-169803767D01*
X300998262Y-169759895D01*
X301015132Y-169713275D01*
X301019603Y-169697124D01*
X301031058Y-169647322D01*
X301040142Y-169595733D01*
X301046857Y-169542358D01*
X301051202Y-169487198D01*
X301053177Y-169430251D01*
X301053309Y-169410872D01*
X301053309Y-169009581D01*
G37*
G36*
X301849296Y-170010000D02*
G01*
X301905322Y-170009018D01*
X301957141Y-170006073D01*
X302011210Y-170000302D01*
X302059784Y-169991968D01*
X302071069Y-169989483D01*
X302118488Y-169973845D01*
X302165104Y-169947178D01*
X302205328Y-169910733D01*
X302216149Y-169897892D01*
X302242682Y-169854844D01*
X302259387Y-169805690D01*
X302266021Y-169756231D01*
X302266463Y-169738646D01*
X302264471Y-169686814D01*
X302257757Y-169636525D01*
X302249610Y-169603091D01*
X302227104Y-169556555D01*
X302192307Y-169518031D01*
X302175360Y-169504417D01*
X302212110Y-169470364D01*
X302239786Y-169428103D01*
X302246679Y-169411605D01*
X302260203Y-169361823D01*
X302265980Y-169311411D01*
X302266463Y-169290949D01*
X302264020Y-169240451D01*
X302256693Y-169196915D01*
X302237687Y-169149575D01*
X302216149Y-169117780D01*
X302181216Y-169082441D01*
X302140317Y-169055406D01*
X302119429Y-169045729D01*
X302071987Y-169029382D01*
X302022934Y-169018839D01*
X301999750Y-169015931D01*
X301949397Y-169012061D01*
X301896845Y-169010083D01*
X301849296Y-169009581D01*
X301702262Y-169009581D01*
X301653016Y-169010470D01*
X301595667Y-169014082D01*
X301542993Y-169020473D01*
X301494993Y-169029643D01*
X301443565Y-169044315D01*
X301392073Y-169066489D01*
X301350390Y-169095791D01*
X301318944Y-169134116D01*
X301297736Y-169181463D01*
X301286767Y-169237833D01*
X301285095Y-169274096D01*
X301285095Y-169347369D01*
X301436281Y-169347369D01*
X301436281Y-169340530D01*
X301434816Y-169282889D01*
X301437747Y-169244542D01*
X301458122Y-169198199D01*
X301500930Y-169169996D01*
X301508333Y-169167606D01*
X301559784Y-169156741D01*
X301611581Y-169151517D01*
X301665132Y-169149794D01*
X301671487Y-169149776D01*
X301864683Y-169149776D01*
X301914620Y-169150516D01*
X301965727Y-169153355D01*
X302000971Y-169157348D01*
X302049884Y-169170838D01*
X302083769Y-169191786D01*
X302110077Y-169234249D01*
X302115277Y-169275806D01*
X302115277Y-169295101D01*
X302111613Y-169343705D01*
X302095737Y-169380097D01*
X302056573Y-169410606D01*
X302011473Y-169423328D01*
X301959412Y-169429021D01*
X301908433Y-169431571D01*
X301867370Y-169432121D01*
X301436281Y-169432121D01*
X301436281Y-169572316D01*
X301845144Y-169572316D01*
X301895692Y-169572316D01*
X301945186Y-169572316D01*
X301947237Y-169572316D01*
X301996880Y-169574881D01*
X302033944Y-169582575D01*
X302077666Y-169606302D01*
X302094272Y-169623852D01*
X302112795Y-169670184D01*
X302115277Y-169702009D01*
X302115277Y-169722526D01*
X302112057Y-169772314D01*
X302111613Y-169775038D01*
X302095737Y-169815338D01*
X302056573Y-169846988D01*
X302011473Y-169860279D01*
X301959412Y-169866446D01*
X301908433Y-169869209D01*
X301867370Y-169869804D01*
X301679792Y-169869804D01*
X301629840Y-169869014D01*
X301580506Y-169866096D01*
X301562311Y-169864187D01*
X301513856Y-169852569D01*
X301480978Y-169836587D01*
X301447719Y-169800447D01*
X301437747Y-169770153D01*
X301434816Y-169731318D01*
X301436281Y-169661953D01*
X301285095Y-169661953D01*
X301285095Y-169715931D01*
X301286133Y-169765696D01*
X301289247Y-169801172D01*
X301303613Y-169847928D01*
X301329069Y-169891280D01*
X301335409Y-169899113D01*
X301369537Y-169934404D01*
X301413710Y-169964553D01*
X301459095Y-169983530D01*
X301480978Y-169989483D01*
X301534722Y-169999401D01*
X301588074Y-170005492D01*
X301639064Y-170008717D01*
X301694075Y-170009979D01*
X301702262Y-170010000D01*
X301849296Y-170010000D01*
G37*
G36*
X316487840Y-148886748D02*
G01*
X316448089Y-148857195D01*
X316403088Y-148832038D01*
X316352835Y-148811277D01*
X316304556Y-148796718D01*
X316297330Y-148794913D01*
X316245941Y-148783873D01*
X316193499Y-148775545D01*
X316140006Y-148769929D01*
X316085461Y-148767023D01*
X316053820Y-148766581D01*
X315998072Y-148767729D01*
X315945316Y-148771175D01*
X315895553Y-148776917D01*
X315833857Y-148788146D01*
X315777481Y-148803459D01*
X315726424Y-148822856D01*
X315680688Y-148846335D01*
X315640272Y-148873899D01*
X315613450Y-148897251D01*
X315574540Y-148940727D01*
X315542224Y-148989486D01*
X315516503Y-149043528D01*
X315500675Y-149090566D01*
X315489068Y-149140985D01*
X315481682Y-149194785D01*
X315478516Y-149251966D01*
X315478384Y-149266790D01*
X315480495Y-149324817D01*
X315486826Y-149379462D01*
X315497378Y-149430727D01*
X315512151Y-149478610D01*
X315536552Y-149533709D01*
X315567549Y-149583524D01*
X315605141Y-149628057D01*
X315613450Y-149636330D01*
X315659815Y-149673974D01*
X315702891Y-149699495D01*
X315751288Y-149720933D01*
X315805004Y-149738288D01*
X315864040Y-149751559D01*
X315928396Y-149760747D01*
X315980154Y-149764958D01*
X316034905Y-149766872D01*
X316053820Y-149767000D01*
X316108966Y-149765667D01*
X316163061Y-149761670D01*
X316216103Y-149755008D01*
X316268094Y-149745682D01*
X316297330Y-149739156D01*
X316346184Y-149725196D01*
X316397093Y-149705149D01*
X316442751Y-149680736D01*
X316483158Y-149651958D01*
X316487840Y-149648053D01*
X316523351Y-149610570D01*
X316546458Y-149576490D01*
X316549389Y-149572338D01*
X316438747Y-149467069D01*
X316431664Y-149479770D01*
X316426046Y-149492226D01*
X316395444Y-149534339D01*
X316352487Y-149567865D01*
X316303262Y-149590697D01*
X316284630Y-149596762D01*
X316231919Y-149609906D01*
X316183067Y-149618325D01*
X316131668Y-149623870D01*
X316077721Y-149626540D01*
X316053820Y-149626804D01*
X315995766Y-149625422D01*
X315942503Y-149621274D01*
X315894031Y-149614362D01*
X315843536Y-149602803D01*
X315799563Y-149587481D01*
X315751528Y-149562290D01*
X315712108Y-149530955D01*
X315678415Y-149488933D01*
X315667917Y-149470000D01*
X315649380Y-149422327D01*
X315637996Y-149373723D01*
X315631405Y-149319257D01*
X315629570Y-149266790D01*
X315631405Y-149214324D01*
X315637996Y-149159858D01*
X315649380Y-149111253D01*
X315667917Y-149063580D01*
X315697354Y-149018524D01*
X315732944Y-148984459D01*
X315777150Y-148956537D01*
X315799563Y-148946099D01*
X315850351Y-148928895D01*
X315901777Y-148917874D01*
X315951047Y-148911423D01*
X316005109Y-148907736D01*
X316053820Y-148906776D01*
X316108324Y-148908237D01*
X316160489Y-148912620D01*
X316210318Y-148919925D01*
X316264402Y-148931850D01*
X316283897Y-148937307D01*
X316331433Y-148955258D01*
X316375349Y-148982169D01*
X316412272Y-149020408D01*
X316426046Y-149042819D01*
X316431664Y-149055520D01*
X316438747Y-149069686D01*
X316549389Y-148963196D01*
X316546458Y-148959044D01*
X316517882Y-148917645D01*
X316487840Y-148886748D01*
G37*
G36*
X317842166Y-148766581D02*
G01*
X317606961Y-148766581D01*
X316779710Y-149409672D01*
X316779710Y-149500775D01*
X317562264Y-149500775D01*
X317562264Y-149767000D01*
X317711985Y-149767000D01*
X317711985Y-149500775D01*
X317972348Y-149500775D01*
X317972348Y-149360579D01*
X317711985Y-149360579D01*
X317711985Y-149063580D01*
X317562264Y-149063580D01*
X317562264Y-149360579D01*
X317077931Y-149360579D01*
X317842166Y-148766581D01*
G37*
G36*
X304214581Y-130650997D02*
G01*
X304214581Y-130799497D01*
X304614651Y-130799497D01*
X304665185Y-130800666D01*
X304715276Y-130804172D01*
X304764922Y-130810016D01*
X304814124Y-130818197D01*
X304842041Y-130823921D01*
X304894064Y-130838728D01*
X304939005Y-130858726D01*
X304981097Y-130887427D01*
X305007637Y-130914291D01*
X305035460Y-130954756D01*
X305056347Y-131001121D01*
X305059417Y-131010767D01*
X305069935Y-131059580D01*
X305074428Y-131111186D01*
X305074804Y-131132644D01*
X305072477Y-131182023D01*
X305063880Y-131234336D01*
X305048949Y-131280945D01*
X305024128Y-131327229D01*
X305008614Y-131347578D01*
X304972711Y-131382520D01*
X304931189Y-131409677D01*
X304884050Y-131429048D01*
X304831294Y-131440634D01*
X304831294Y-131595973D01*
X304841064Y-131594752D01*
X304891855Y-131583120D01*
X304939510Y-131567613D01*
X304992555Y-131543888D01*
X305041084Y-131514582D01*
X305085097Y-131479694D01*
X305111929Y-131453335D01*
X305146957Y-131408350D01*
X305170611Y-131365522D01*
X305189232Y-131317841D01*
X305202820Y-131265306D01*
X305211376Y-131207918D01*
X305214597Y-131158512D01*
X305215000Y-131132644D01*
X305213576Y-131083754D01*
X305207793Y-131026816D01*
X305197562Y-130974517D01*
X305182882Y-130926857D01*
X305159395Y-130875790D01*
X305129502Y-130831402D01*
X305123897Y-130824654D01*
X305088294Y-130787288D01*
X305049994Y-130755056D01*
X305008999Y-130727960D01*
X304965307Y-130705998D01*
X304918919Y-130689171D01*
X304902857Y-130684703D01*
X304853178Y-130673248D01*
X304801592Y-130664164D01*
X304748100Y-130657449D01*
X304692701Y-130653104D01*
X304635397Y-130651129D01*
X304615872Y-130650997D01*
X304214581Y-130650997D01*
G37*
G36*
X304214581Y-130024026D02*
G01*
X304214581Y-130137355D01*
X304388726Y-130418722D01*
X304551636Y-130418722D01*
X304399961Y-130173747D01*
X305215000Y-130173747D01*
X305215000Y-130024026D01*
X304214581Y-130024026D01*
G37*
G36*
X299395989Y-158083627D02*
G01*
X299451905Y-158086729D01*
X299504707Y-158093969D01*
X299554395Y-158105345D01*
X299600969Y-158120859D01*
X299654808Y-158146068D01*
X299703780Y-158177740D01*
X299747887Y-158215877D01*
X299756077Y-158224296D01*
X299793125Y-158271215D01*
X299818083Y-158314538D01*
X299838882Y-158363005D01*
X299855521Y-158416616D01*
X299868000Y-158475372D01*
X299876320Y-158539272D01*
X299879830Y-158590573D01*
X299881000Y-158644768D01*
X299881000Y-159120797D01*
X298880581Y-159120797D01*
X298880581Y-158644768D01*
X299020776Y-158644768D01*
X299020776Y-158971076D01*
X299740804Y-158971076D01*
X299740804Y-158644768D01*
X299739804Y-158598965D01*
X299735358Y-158542289D01*
X299727355Y-158490636D01*
X299712350Y-158433131D01*
X299691787Y-158383474D01*
X299665667Y-158341664D01*
X299626987Y-158301851D01*
X299582016Y-158272465D01*
X299533600Y-158253640D01*
X299485366Y-158242621D01*
X299430915Y-158236324D01*
X299380790Y-158234684D01*
X299331374Y-158236324D01*
X299277427Y-158242621D01*
X299229319Y-158253640D01*
X299180572Y-158272465D01*
X299134593Y-158301851D01*
X299107917Y-158327405D01*
X299074573Y-158375009D01*
X299052898Y-158423180D01*
X299036782Y-158479079D01*
X299027890Y-158529363D01*
X299022555Y-158584592D01*
X299020776Y-158644768D01*
X298880581Y-158644768D01*
X298880621Y-158635437D01*
X298882533Y-158580609D01*
X298887313Y-158527755D01*
X298894960Y-158476876D01*
X298905476Y-158427972D01*
X298921369Y-158373414D01*
X298932299Y-158343712D01*
X298955247Y-158295424D01*
X298983056Y-158251835D01*
X299015727Y-158212945D01*
X299053260Y-158178752D01*
X299068167Y-158167217D01*
X299117374Y-158137078D01*
X299163523Y-158117079D01*
X299214346Y-158101730D01*
X299269845Y-158091032D01*
X299330018Y-158084986D01*
X299381523Y-158083498D01*
X299395989Y-158083627D01*
G37*
G36*
X298880581Y-157423309D02*
G01*
X298881470Y-157473627D01*
X298885082Y-157532242D01*
X298891473Y-157586098D01*
X298900643Y-157635196D01*
X298915315Y-157687832D01*
X298933988Y-157733616D01*
X298937489Y-157740581D01*
X298967074Y-157783407D01*
X299006031Y-157815714D01*
X299054362Y-157837503D01*
X299103248Y-157847807D01*
X299149248Y-157850490D01*
X299223742Y-157850490D01*
X299223742Y-157699059D01*
X299216659Y-157699059D01*
X299157552Y-157700525D01*
X299106988Y-157693656D01*
X299064496Y-157667827D01*
X299047643Y-157642395D01*
X299032347Y-157595071D01*
X299024554Y-157545404D01*
X299021196Y-157492983D01*
X299020776Y-157463853D01*
X299020776Y-157280671D01*
X299022285Y-157222299D01*
X299026811Y-157171439D01*
X299036225Y-157120326D01*
X299055535Y-157069004D01*
X299082570Y-157036917D01*
X299129112Y-157018394D01*
X299161216Y-157015912D01*
X299211592Y-157023317D01*
X299236931Y-157036917D01*
X299265106Y-157077947D01*
X299284665Y-157127482D01*
X299298725Y-157172716D01*
X299310042Y-157220630D01*
X299322073Y-157273695D01*
X299328034Y-157300211D01*
X299340734Y-157360294D01*
X299353022Y-157413612D01*
X299365704Y-157462190D01*
X299381000Y-157512873D01*
X299399139Y-157562897D01*
X299410832Y-157589883D01*
X299436503Y-157641397D01*
X299464974Y-157686763D01*
X299496244Y-157725981D01*
X299536263Y-157763965D01*
X299580092Y-157793581D01*
X299627673Y-157816231D01*
X299678948Y-157833318D01*
X299733915Y-157844842D01*
X299783970Y-157850292D01*
X299827755Y-157851711D01*
X299881000Y-157851711D01*
X299881000Y-156854956D01*
X299740804Y-156854956D01*
X299740804Y-157696373D01*
X299688765Y-157682359D01*
X299643779Y-157659858D01*
X299605845Y-157628870D01*
X299574963Y-157589394D01*
X299548814Y-157541675D01*
X299528112Y-157493560D01*
X299509444Y-157439507D01*
X299495061Y-157388451D01*
X299486303Y-157351990D01*
X299466764Y-157262353D01*
X299456414Y-157211902D01*
X299445427Y-157163282D01*
X299432944Y-157115559D01*
X299428662Y-157101397D01*
X299413873Y-157054743D01*
X299393732Y-157007172D01*
X299366907Y-156961849D01*
X299331876Y-156922394D01*
X299323393Y-156915284D01*
X299278637Y-156888622D01*
X299228634Y-156871835D01*
X299179145Y-156865170D01*
X299161704Y-156864726D01*
X299107809Y-156868495D01*
X299060061Y-156879804D01*
X299012126Y-156902526D01*
X298972559Y-156935509D01*
X298945305Y-156971948D01*
X298920085Y-157023286D01*
X298903399Y-157074508D01*
X298892969Y-157122284D01*
X298885701Y-157174686D01*
X298881592Y-157231716D01*
X298880581Y-157280671D01*
X298880581Y-157423309D01*
G37*
G36*
X331484398Y-141400581D02*
G01*
X331335898Y-141400581D01*
X331335898Y-141800651D01*
X331334729Y-141851185D01*
X331331223Y-141901276D01*
X331325379Y-141950922D01*
X331317198Y-142000124D01*
X331311474Y-142028041D01*
X331296667Y-142080064D01*
X331276669Y-142125005D01*
X331247968Y-142167097D01*
X331221104Y-142193637D01*
X331180639Y-142221460D01*
X331134274Y-142242347D01*
X331124628Y-142245417D01*
X331075815Y-142255935D01*
X331024209Y-142260428D01*
X331002751Y-142260804D01*
X330953372Y-142258477D01*
X330901059Y-142249880D01*
X330854450Y-142234949D01*
X330808166Y-142210128D01*
X330787817Y-142194614D01*
X330752875Y-142158711D01*
X330725718Y-142117189D01*
X330706347Y-142070050D01*
X330694761Y-142017294D01*
X330539422Y-142017294D01*
X330540643Y-142027064D01*
X330552275Y-142077855D01*
X330567782Y-142125510D01*
X330591507Y-142178555D01*
X330620813Y-142227084D01*
X330655701Y-142271097D01*
X330682060Y-142297929D01*
X330727045Y-142332957D01*
X330769873Y-142356611D01*
X330817554Y-142375232D01*
X330870089Y-142388820D01*
X330927477Y-142397376D01*
X330976883Y-142400597D01*
X331002751Y-142401000D01*
X331051641Y-142399576D01*
X331108579Y-142393793D01*
X331160878Y-142383562D01*
X331208538Y-142368882D01*
X331259605Y-142345395D01*
X331303993Y-142315502D01*
X331310741Y-142309897D01*
X331348107Y-142274294D01*
X331380339Y-142235994D01*
X331407435Y-142194999D01*
X331429397Y-142151307D01*
X331446224Y-142104919D01*
X331450692Y-142088857D01*
X331462147Y-142039178D01*
X331471231Y-141987592D01*
X331477946Y-141934100D01*
X331482291Y-141878701D01*
X331484266Y-141821397D01*
X331484398Y-141801872D01*
X331484398Y-141400581D01*
G37*
G36*
X332779129Y-141400581D02*
G01*
X332543923Y-141400581D01*
X331716673Y-142043672D01*
X331716673Y-142134775D01*
X332499227Y-142134775D01*
X332499227Y-142401000D01*
X332648948Y-142401000D01*
X332648948Y-142134775D01*
X332909310Y-142134775D01*
X332909310Y-141994579D01*
X332648948Y-141994579D01*
X332648948Y-141697580D01*
X332499227Y-141697580D01*
X332499227Y-141994579D01*
X332014893Y-141994579D01*
X332779129Y-141400581D01*
G37*
G36*
X302651703Y-150275000D02*
G01*
X303222987Y-149274581D01*
X303056169Y-149274581D01*
X302601389Y-150074965D01*
X302135129Y-149274581D01*
X301962938Y-149274581D01*
X302548144Y-150275000D01*
X302651703Y-150275000D01*
G37*
G36*
X304051054Y-149275546D02*
G01*
X304109040Y-149279469D01*
X304162137Y-149286408D01*
X304210344Y-149296365D01*
X304261738Y-149312297D01*
X304312799Y-149336374D01*
X304348739Y-149362930D01*
X304381272Y-149402463D01*
X304403684Y-149451207D01*
X304414838Y-149500317D01*
X304418556Y-149556193D01*
X304418556Y-149597958D01*
X304418227Y-149614578D01*
X304411910Y-149668601D01*
X304397551Y-149716172D01*
X304371295Y-149762639D01*
X304334536Y-149800680D01*
X304329203Y-149804827D01*
X304287275Y-149830172D01*
X304237306Y-149849066D01*
X304188076Y-149860125D01*
X304132938Y-149866445D01*
X304082478Y-149868091D01*
X304471556Y-150275000D01*
X304268591Y-150275000D01*
X303882198Y-149868091D01*
X303564438Y-149868091D01*
X303565904Y-150275000D01*
X303414718Y-150275000D01*
X303414718Y-149727896D01*
X303564438Y-149727896D01*
X304027767Y-149727896D01*
X304057176Y-149727569D01*
X304109452Y-149724959D01*
X304159414Y-149718614D01*
X304196865Y-149707526D01*
X304238549Y-149678558D01*
X304261037Y-149637589D01*
X304267369Y-149587700D01*
X304267369Y-149552041D01*
X304261198Y-149504216D01*
X304235129Y-149460450D01*
X304197821Y-149435964D01*
X304150377Y-149422592D01*
X304109888Y-149418142D01*
X304060625Y-149415539D01*
X304008228Y-149414776D01*
X303564438Y-149414776D01*
X303564438Y-149727896D01*
X303414718Y-149727896D01*
X303414718Y-149274581D01*
X304001145Y-149274581D01*
X304051054Y-149275546D01*
G37*
G36*
X305097062Y-149274581D02*
G01*
X304983734Y-149274581D01*
X304702366Y-149448726D01*
X304702366Y-149611636D01*
X304947341Y-149459961D01*
X304947341Y-150275000D01*
X305097062Y-150275000D01*
X305097062Y-149274581D01*
G37*
G36*
X307247000Y-146689903D02*
G01*
X306840091Y-147076295D01*
X306840091Y-147394055D01*
X307247000Y-147392590D01*
X307247000Y-147543776D01*
X306246581Y-147543776D01*
X306246581Y-146957349D01*
X306246718Y-146950266D01*
X306386776Y-146950266D01*
X306386776Y-147394055D01*
X306699896Y-147394055D01*
X306699896Y-146930726D01*
X306699569Y-146901317D01*
X306696959Y-146849041D01*
X306690614Y-146799079D01*
X306679526Y-146761629D01*
X306650558Y-146719945D01*
X306609589Y-146697457D01*
X306559700Y-146691124D01*
X306524041Y-146691124D01*
X306476216Y-146697295D01*
X306432450Y-146723364D01*
X306407964Y-146760672D01*
X306394592Y-146808116D01*
X306390142Y-146848605D01*
X306387539Y-146897868D01*
X306386776Y-146950266D01*
X306246718Y-146950266D01*
X306247546Y-146907439D01*
X306251469Y-146849453D01*
X306258408Y-146796357D01*
X306268365Y-146748150D01*
X306284297Y-146696756D01*
X306308374Y-146645695D01*
X306334930Y-146609754D01*
X306374463Y-146577221D01*
X306423207Y-146554810D01*
X306472317Y-146543656D01*
X306528193Y-146539938D01*
X306569958Y-146539938D01*
X306586578Y-146540266D01*
X306640601Y-146546584D01*
X306688172Y-146560943D01*
X306734639Y-146587199D01*
X306772680Y-146623957D01*
X306776827Y-146629291D01*
X306802172Y-146671218D01*
X306821066Y-146721187D01*
X306832125Y-146770417D01*
X306838445Y-146825555D01*
X306840091Y-146876016D01*
X307247000Y-146486937D01*
X307247000Y-146689903D01*
G37*
G36*
X306246581Y-145193671D02*
G01*
X306246581Y-145428877D01*
X306889672Y-146256128D01*
X306980775Y-146256128D01*
X306980775Y-145473574D01*
X307247000Y-145473574D01*
X307247000Y-145323853D01*
X306980775Y-145323853D01*
X306980775Y-145063490D01*
X306840579Y-145063490D01*
X306840579Y-145323853D01*
X306543580Y-145323853D01*
X306543580Y-145473574D01*
X306840579Y-145473574D01*
X306840579Y-145957907D01*
X306246581Y-145193671D01*
G37*
G36*
X314136272Y-129980625D02*
G01*
X314085482Y-130120169D01*
X314461425Y-130257001D01*
X314508512Y-130275383D01*
X314554383Y-130295810D01*
X314599036Y-130318281D01*
X314642473Y-130342797D01*
X314666748Y-130357724D01*
X314710570Y-130389432D01*
X314745961Y-130423594D01*
X314775698Y-130464960D01*
X314791450Y-130499282D01*
X314803755Y-130546822D01*
X314807524Y-130597534D01*
X314807110Y-130607649D01*
X314800299Y-130657116D01*
X314786871Y-130707146D01*
X314779885Y-130727439D01*
X314760809Y-130773044D01*
X314734839Y-130819262D01*
X314704867Y-130857953D01*
X314665712Y-130892957D01*
X314644175Y-130906772D01*
X314598486Y-130927327D01*
X314550180Y-130938645D01*
X314499259Y-130940726D01*
X314445721Y-130933569D01*
X314392592Y-131079540D01*
X314402191Y-131081734D01*
X314453897Y-131088176D01*
X314503982Y-131089902D01*
X314561942Y-131085751D01*
X314617568Y-131074810D01*
X314670858Y-131057079D01*
X314705088Y-131041487D01*
X314753389Y-131011195D01*
X314790264Y-130979040D01*
X314824070Y-130940604D01*
X314854807Y-130895885D01*
X314882475Y-130844883D01*
X314902400Y-130799558D01*
X314911625Y-130775388D01*
X314927009Y-130728959D01*
X314941049Y-130673477D01*
X314949322Y-130620833D01*
X314951828Y-130571027D01*
X314947223Y-130515006D01*
X314934315Y-130463072D01*
X314931356Y-130454813D01*
X314910680Y-130407523D01*
X314885714Y-130364137D01*
X314856458Y-130324653D01*
X314822913Y-130289072D01*
X314785077Y-130257394D01*
X314771512Y-130247702D01*
X314728747Y-130219947D01*
X314683379Y-130193767D01*
X314635409Y-130169162D01*
X314584838Y-130146131D01*
X314531665Y-130124676D01*
X314513362Y-130117875D01*
X314136272Y-129980625D01*
G37*
G36*
X314763948Y-129930708D02*
G01*
X314775032Y-129881435D01*
X314787602Y-129826481D01*
X314799373Y-129776079D01*
X314812098Y-129723031D01*
X314825311Y-129669992D01*
X314838433Y-129620819D01*
X314852937Y-129571596D01*
X314868823Y-129522325D01*
X314886092Y-129473004D01*
X314903753Y-129426311D01*
X314924104Y-129376831D01*
X314944965Y-129330580D01*
X314959157Y-129301540D01*
X314985785Y-129256794D01*
X315021295Y-129220779D01*
X315039730Y-129211564D01*
X315088516Y-129207673D01*
X315135549Y-129219668D01*
X315179443Y-129241541D01*
X315215521Y-129276846D01*
X315229218Y-129303665D01*
X315240537Y-129353136D01*
X315240914Y-129403665D01*
X315236670Y-129435296D01*
X315226024Y-129484131D01*
X315212621Y-129532377D01*
X315195599Y-129584693D01*
X315186872Y-129609250D01*
X315169157Y-129655613D01*
X315147340Y-129707020D01*
X315124286Y-129755539D01*
X315099995Y-129801171D01*
X315081887Y-129831996D01*
X315054823Y-129873271D01*
X315025145Y-129913047D01*
X314992854Y-129951325D01*
X314957949Y-129988104D01*
X314936829Y-130008447D01*
X314923763Y-130020066D01*
X315075701Y-130075367D01*
X315079646Y-130072384D01*
X315114322Y-130036027D01*
X315148071Y-129993647D01*
X315176841Y-129951624D01*
X315204902Y-129904989D01*
X315212789Y-129890817D01*
X315235619Y-129847508D01*
X315260511Y-129796692D01*
X315283526Y-129745566D01*
X315304664Y-129694130D01*
X315318613Y-129657200D01*
X315336916Y-129603973D01*
X315352357Y-129552738D01*
X315364935Y-129503495D01*
X315375990Y-129448561D01*
X315383148Y-129396339D01*
X315385019Y-129346717D01*
X315378890Y-129293303D01*
X315363945Y-129243405D01*
X315340182Y-129197024D01*
X315336591Y-129191473D01*
X315305344Y-129153019D01*
X315271443Y-129124095D01*
X315227868Y-129097081D01*
X315186298Y-129078809D01*
X315133244Y-129063138D01*
X315084249Y-129056222D01*
X315033981Y-129058906D01*
X314998435Y-129068654D01*
X314952195Y-129092568D01*
X314910492Y-129127170D01*
X314876839Y-129167450D01*
X314866438Y-129182800D01*
X314839281Y-129228668D01*
X314815766Y-129274862D01*
X314792480Y-129326713D01*
X314772705Y-129375657D01*
X314759615Y-129410595D01*
X314742319Y-129459752D01*
X314725780Y-129510111D01*
X314709996Y-129561671D01*
X314694968Y-129614433D01*
X314680695Y-129668396D01*
X314667178Y-129723560D01*
X314661983Y-129745963D01*
X314404928Y-129652402D01*
X314671575Y-128919796D01*
X314539834Y-128871847D01*
X314221479Y-129746522D01*
X314761064Y-129942915D01*
X314763948Y-129930708D01*
G37*
G36*
X315128284Y-132510581D02*
G01*
X314980028Y-132510581D01*
X314980028Y-132910651D01*
X314978813Y-132961209D01*
X314975166Y-133011369D01*
X314969089Y-133061133D01*
X314960580Y-133110498D01*
X314954627Y-133138529D01*
X314939514Y-133190797D01*
X314919334Y-133235738D01*
X314890573Y-133277538D01*
X314863769Y-133303637D01*
X314822535Y-133331460D01*
X314776490Y-133352347D01*
X314767048Y-133355417D01*
X314719284Y-133365935D01*
X314668233Y-133370428D01*
X314646881Y-133370804D01*
X314596987Y-133368640D01*
X314545549Y-133360646D01*
X314525737Y-133355417D01*
X314479222Y-133336376D01*
X314435391Y-133308104D01*
X314429749Y-133303637D01*
X314391992Y-133264706D01*
X314365229Y-133220002D01*
X314347182Y-133172577D01*
X314338647Y-133139262D01*
X314329415Y-133090338D01*
X314322451Y-133040807D01*
X314317754Y-132990668D01*
X314315325Y-132939922D01*
X314314955Y-132910651D01*
X314314955Y-132510581D01*
X314165234Y-132510581D01*
X314165234Y-132911872D01*
X314166742Y-132973440D01*
X314171264Y-133032604D01*
X314178801Y-133089364D01*
X314189353Y-133143719D01*
X314202920Y-133195671D01*
X314219502Y-133245217D01*
X314239098Y-133292360D01*
X314261710Y-133337099D01*
X314288863Y-133377857D01*
X314331165Y-133421162D01*
X314371696Y-133449693D01*
X314418173Y-133472789D01*
X314470596Y-133490451D01*
X314528964Y-133502678D01*
X314593278Y-133509471D01*
X314645416Y-133511000D01*
X314694314Y-133509576D01*
X314751283Y-133503793D01*
X314803636Y-133493562D01*
X314851375Y-133478882D01*
X314902568Y-133455395D01*
X314947116Y-133425502D01*
X314953894Y-133419897D01*
X314991510Y-133384268D01*
X315023939Y-133345891D01*
X315051181Y-133304767D01*
X315073237Y-133260895D01*
X315090107Y-133214275D01*
X315094578Y-133198124D01*
X315106033Y-133148322D01*
X315115117Y-133096733D01*
X315121832Y-133043358D01*
X315126177Y-132988198D01*
X315128152Y-132931251D01*
X315128284Y-132911872D01*
X315128284Y-132510581D01*
G37*
G36*
X315754767Y-132510581D02*
G01*
X315641438Y-132510581D01*
X315360070Y-132684726D01*
X315360070Y-132847636D01*
X315605046Y-132695961D01*
X315605046Y-133511000D01*
X315754767Y-133511000D01*
X315754767Y-132510581D01*
G37*
G36*
X310803000Y-146612234D02*
G01*
X310396091Y-146998626D01*
X310396091Y-147316386D01*
X310803000Y-147314921D01*
X310803000Y-147466107D01*
X309802581Y-147466107D01*
X309802581Y-146879680D01*
X309802718Y-146872597D01*
X309942776Y-146872597D01*
X309942776Y-147316386D01*
X310255896Y-147316386D01*
X310255896Y-146853057D01*
X310255569Y-146823648D01*
X310252959Y-146771372D01*
X310246614Y-146721410D01*
X310235526Y-146683960D01*
X310206558Y-146642276D01*
X310165589Y-146619788D01*
X310115700Y-146613455D01*
X310080041Y-146613455D01*
X310032216Y-146619626D01*
X309988450Y-146645695D01*
X309963964Y-146683003D01*
X309950592Y-146730447D01*
X309946142Y-146770936D01*
X309943539Y-146820199D01*
X309942776Y-146872597D01*
X309802718Y-146872597D01*
X309803546Y-146829770D01*
X309807469Y-146771784D01*
X309814408Y-146718688D01*
X309824365Y-146670481D01*
X309840297Y-146619087D01*
X309864374Y-146568026D01*
X309890930Y-146532085D01*
X309930463Y-146499552D01*
X309979207Y-146477141D01*
X310028317Y-146465987D01*
X310084193Y-146462269D01*
X310125958Y-146462269D01*
X310142578Y-146462597D01*
X310196601Y-146468915D01*
X310244172Y-146483274D01*
X310290639Y-146509530D01*
X310328680Y-146546288D01*
X310332827Y-146551622D01*
X310358172Y-146593549D01*
X310377066Y-146643518D01*
X310388125Y-146692748D01*
X310394445Y-146747886D01*
X310396091Y-146798347D01*
X310803000Y-146409268D01*
X310803000Y-146612234D01*
G37*
G36*
X310526885Y-145144175D02*
G01*
X310581546Y-145155005D01*
X310629154Y-145173713D01*
X310674284Y-145204174D01*
X310707577Y-145238658D01*
X310735405Y-145279095D01*
X310757769Y-145325486D01*
X310774667Y-145377831D01*
X310778098Y-145391839D01*
X310788363Y-145444160D01*
X310795003Y-145493081D01*
X310799652Y-145545763D01*
X310802308Y-145602206D01*
X310803000Y-145652115D01*
X310802783Y-145679682D01*
X310801050Y-145732240D01*
X310797585Y-145781364D01*
X310790817Y-145837938D01*
X310781342Y-145889145D01*
X310766398Y-145943510D01*
X310747556Y-145990147D01*
X310740443Y-146004105D01*
X310712660Y-146048221D01*
X310680390Y-146084975D01*
X310638013Y-146117963D01*
X310589775Y-146141334D01*
X310576680Y-146145829D01*
X310526548Y-146159280D01*
X310478256Y-146167981D01*
X310425053Y-146174072D01*
X310366939Y-146177552D01*
X310314758Y-146178459D01*
X310287615Y-146178104D01*
X310235698Y-146175264D01*
X310175245Y-146167722D01*
X310119730Y-146155744D01*
X310069152Y-146139329D01*
X310023512Y-146118478D01*
X309975260Y-146087600D01*
X309951611Y-146068458D01*
X309914834Y-146032167D01*
X309883924Y-145992323D01*
X309858881Y-145948926D01*
X309839706Y-145901976D01*
X309835210Y-145887860D01*
X309821760Y-145835405D01*
X309813058Y-145786668D01*
X309806968Y-145734443D01*
X309803487Y-145678733D01*
X309802581Y-145629645D01*
X309802581Y-145582018D01*
X309802740Y-145560062D01*
X309804533Y-145507545D01*
X309809313Y-145448996D01*
X309816960Y-145395324D01*
X309827476Y-145346528D01*
X309843369Y-145295765D01*
X309845997Y-145289066D01*
X309872689Y-145241122D01*
X309909455Y-145203222D01*
X309956296Y-145175367D01*
X310005547Y-145159233D01*
X310026429Y-145155810D01*
X310075889Y-145153616D01*
X310140857Y-145153616D01*
X310140857Y-145304802D01*
X310068561Y-145304802D01*
X310028624Y-145310244D01*
X309986496Y-145337775D01*
X309963964Y-145375632D01*
X309951080Y-145423260D01*
X309947066Y-145455058D01*
X309943757Y-145504489D01*
X309942776Y-145556861D01*
X309942776Y-145629645D01*
X309943364Y-145665976D01*
X309946959Y-145722320D01*
X309953821Y-145773405D01*
X309966369Y-145827764D01*
X309983622Y-145874550D01*
X310009699Y-145919561D01*
X310032514Y-145946112D01*
X310070847Y-145977092D01*
X310116637Y-146000849D01*
X310169883Y-146017383D01*
X310221457Y-146025807D01*
X310210802Y-146007615D01*
X310188172Y-145958962D01*
X310172698Y-145911299D01*
X310161862Y-145859966D01*
X310159999Y-145848050D01*
X310153748Y-145798361D01*
X310149420Y-145745437D01*
X310147211Y-145696474D01*
X310146475Y-145645032D01*
X310286670Y-145645032D01*
X310287395Y-145694552D01*
X310289997Y-145747854D01*
X310294493Y-145797645D01*
X310301813Y-145849463D01*
X310313113Y-145895196D01*
X310334481Y-145940597D01*
X310367270Y-145976958D01*
X310372815Y-145981038D01*
X310417829Y-146002115D01*
X310425011Y-146004062D01*
X310474004Y-146010420D01*
X310508116Y-146008028D01*
X310559870Y-145991673D01*
X310599221Y-145959823D01*
X310626168Y-145912478D01*
X310628422Y-145906286D01*
X310642196Y-145858958D01*
X310652464Y-145804665D01*
X310658475Y-145752584D01*
X310661910Y-145695386D01*
X310662804Y-145643811D01*
X310662524Y-145608137D01*
X310660910Y-145555697D01*
X310657378Y-145503527D01*
X310651325Y-145454034D01*
X310644888Y-145423821D01*
X310627274Y-145378117D01*
X310598812Y-145337286D01*
X310568745Y-145313587D01*
X310521392Y-145296734D01*
X310472539Y-145292346D01*
X310459321Y-145292603D01*
X310408792Y-145299673D01*
X310361653Y-145321655D01*
X310335201Y-145349266D01*
X310312212Y-145395244D01*
X310300348Y-145444265D01*
X310295018Y-145483257D01*
X310290090Y-145537443D01*
X310287525Y-145589436D01*
X310286670Y-145645032D01*
X310146475Y-145645032D01*
X310147445Y-145586468D01*
X310150356Y-145531494D01*
X310155207Y-145480108D01*
X310163320Y-145424695D01*
X310174074Y-145374167D01*
X310185995Y-145334651D01*
X310206779Y-145287253D01*
X310236839Y-145241155D01*
X310273969Y-145202708D01*
X310318865Y-145172956D01*
X310366103Y-145154683D01*
X310420241Y-145144104D01*
X310473272Y-145141159D01*
X310526885Y-145144175D01*
G37*
G36*
X324405954Y-156110581D02*
G01*
X324257454Y-156110581D01*
X324257454Y-156510651D01*
X324256285Y-156561185D01*
X324252779Y-156611276D01*
X324246935Y-156660922D01*
X324238754Y-156710124D01*
X324233030Y-156738041D01*
X324218223Y-156790064D01*
X324198225Y-156835005D01*
X324169524Y-156877097D01*
X324142660Y-156903637D01*
X324102195Y-156931460D01*
X324055830Y-156952347D01*
X324046184Y-156955417D01*
X323997371Y-156965935D01*
X323945765Y-156970428D01*
X323924307Y-156970804D01*
X323874928Y-156968477D01*
X323822615Y-156959880D01*
X323776006Y-156944949D01*
X323729722Y-156920128D01*
X323709373Y-156904614D01*
X323674431Y-156868711D01*
X323647274Y-156827189D01*
X323627903Y-156780050D01*
X323616317Y-156727294D01*
X323460978Y-156727294D01*
X323462199Y-156737064D01*
X323473831Y-156787855D01*
X323489338Y-156835510D01*
X323513063Y-156888555D01*
X323542369Y-156937084D01*
X323577257Y-156981097D01*
X323603616Y-157007929D01*
X323648601Y-157042957D01*
X323691429Y-157066611D01*
X323739110Y-157085232D01*
X323791645Y-157098820D01*
X323849033Y-157107376D01*
X323898439Y-157110597D01*
X323924307Y-157111000D01*
X323973197Y-157109576D01*
X324030135Y-157103793D01*
X324082434Y-157093562D01*
X324130094Y-157078882D01*
X324181161Y-157055395D01*
X324225549Y-157025502D01*
X324232297Y-157019897D01*
X324269663Y-156984294D01*
X324301895Y-156945994D01*
X324328991Y-156904999D01*
X324350953Y-156861307D01*
X324367780Y-156814919D01*
X324372248Y-156798857D01*
X324383703Y-156749178D01*
X324392787Y-156697592D01*
X324399502Y-156644100D01*
X324403847Y-156588701D01*
X324405822Y-156531397D01*
X324405954Y-156511872D01*
X324405954Y-156110581D01*
G37*
G36*
X325274565Y-156111531D02*
G01*
X325332551Y-156115391D01*
X325385648Y-156122221D01*
X325433855Y-156132021D01*
X325485249Y-156147700D01*
X325536310Y-156171397D01*
X325572250Y-156197526D01*
X325604783Y-156236410D01*
X325627195Y-156284341D01*
X325638349Y-156332623D01*
X325642067Y-156387552D01*
X325642067Y-156428585D01*
X325639503Y-156474803D01*
X325629657Y-156524124D01*
X325608836Y-156573202D01*
X325577965Y-156613162D01*
X325537042Y-156644007D01*
X325486197Y-156667419D01*
X325434820Y-156682909D01*
X325386510Y-156692591D01*
X325333202Y-156699338D01*
X325274897Y-156703152D01*
X325224656Y-156704091D01*
X324787949Y-156704091D01*
X324789415Y-157111000D01*
X324638229Y-157111000D01*
X324638229Y-156563896D01*
X324787949Y-156563896D01*
X325251278Y-156563896D01*
X325280687Y-156563569D01*
X325332963Y-156560959D01*
X325382925Y-156554614D01*
X325420376Y-156543526D01*
X325462060Y-156514558D01*
X325484548Y-156473589D01*
X325490880Y-156423700D01*
X325490880Y-156388041D01*
X325484709Y-156340216D01*
X325458640Y-156296450D01*
X325421332Y-156271964D01*
X325373888Y-156258592D01*
X325333399Y-156254142D01*
X325284136Y-156251539D01*
X325231739Y-156250776D01*
X324787949Y-156250776D01*
X324787949Y-156563896D01*
X324638229Y-156563896D01*
X324638229Y-156110581D01*
X325224656Y-156110581D01*
X325274565Y-156111531D01*
G37*
G36*
X326437321Y-157111000D02*
G01*
X326493347Y-157110018D01*
X326545166Y-157107073D01*
X326599235Y-157101302D01*
X326647809Y-157092968D01*
X326659094Y-157090483D01*
X326706514Y-157074845D01*
X326753130Y-157048178D01*
X326793354Y-157011733D01*
X326804174Y-156998892D01*
X326830707Y-156955844D01*
X326847413Y-156906690D01*
X326854046Y-156857231D01*
X326854488Y-156839646D01*
X326852497Y-156787814D01*
X326845782Y-156737525D01*
X326837635Y-156704091D01*
X326815129Y-156657555D01*
X326780332Y-156619031D01*
X326763386Y-156605417D01*
X326800136Y-156571364D01*
X326827811Y-156529103D01*
X326834705Y-156512605D01*
X326848229Y-156462823D01*
X326854005Y-156412411D01*
X326854488Y-156391949D01*
X326852046Y-156341451D01*
X326844719Y-156297915D01*
X326825712Y-156250575D01*
X326804174Y-156218780D01*
X326769241Y-156183441D01*
X326728343Y-156156406D01*
X326707454Y-156146729D01*
X326660013Y-156130382D01*
X326610959Y-156119839D01*
X326587775Y-156116931D01*
X326537423Y-156113061D01*
X326484870Y-156111083D01*
X326437321Y-156110581D01*
X326290287Y-156110581D01*
X326241042Y-156111470D01*
X326183692Y-156115082D01*
X326131018Y-156121473D01*
X326083019Y-156130643D01*
X326031590Y-156145315D01*
X325980099Y-156167489D01*
X325938415Y-156196791D01*
X325906969Y-156235116D01*
X325885761Y-156282463D01*
X325874792Y-156338833D01*
X325873120Y-156375096D01*
X325873120Y-156448369D01*
X326024307Y-156448369D01*
X326024307Y-156441530D01*
X326022841Y-156383889D01*
X326025772Y-156345542D01*
X326046148Y-156299199D01*
X326088956Y-156270996D01*
X326096358Y-156268606D01*
X326147810Y-156257741D01*
X326199606Y-156252517D01*
X326253157Y-156250794D01*
X326259513Y-156250776D01*
X326452709Y-156250776D01*
X326502645Y-156251516D01*
X326553753Y-156254355D01*
X326588996Y-156258348D01*
X326637909Y-156271838D01*
X326671795Y-156292786D01*
X326698102Y-156335249D01*
X326703302Y-156376806D01*
X326703302Y-156396101D01*
X326699638Y-156444705D01*
X326683762Y-156481097D01*
X326644599Y-156511606D01*
X326599499Y-156524328D01*
X326547437Y-156530021D01*
X326496459Y-156532571D01*
X326455395Y-156533121D01*
X326024307Y-156533121D01*
X326024307Y-156673316D01*
X326433169Y-156673316D01*
X326483718Y-156673316D01*
X326533211Y-156673316D01*
X326535263Y-156673316D01*
X326584905Y-156675881D01*
X326621969Y-156683575D01*
X326665692Y-156707302D01*
X326682297Y-156724852D01*
X326700820Y-156771184D01*
X326703302Y-156803009D01*
X326703302Y-156823526D01*
X326700082Y-156873314D01*
X326699638Y-156876038D01*
X326683762Y-156916338D01*
X326644599Y-156947988D01*
X326599499Y-156961279D01*
X326547437Y-156967446D01*
X326496459Y-156970209D01*
X326455395Y-156970804D01*
X326267817Y-156970804D01*
X326217865Y-156970014D01*
X326168531Y-156967096D01*
X326150336Y-156965187D01*
X326101882Y-156953569D01*
X326069003Y-156937587D01*
X326035744Y-156901447D01*
X326025772Y-156871153D01*
X326022841Y-156832318D01*
X326024307Y-156762953D01*
X325873120Y-156762953D01*
X325873120Y-156816931D01*
X325874158Y-156866696D01*
X325877273Y-156902172D01*
X325891638Y-156948928D01*
X325917094Y-156992280D01*
X325923434Y-157000113D01*
X325957562Y-157035404D01*
X326001736Y-157065553D01*
X326047121Y-157084530D01*
X326069003Y-157090483D01*
X326122747Y-157100401D01*
X326176099Y-157106492D01*
X326227089Y-157109717D01*
X326282100Y-157110979D01*
X326290287Y-157111000D01*
X326437321Y-157111000D01*
G37*
G36*
X317034748Y-145888554D02*
G01*
X317005195Y-145928305D01*
X316980038Y-145973306D01*
X316959277Y-146023559D01*
X316944718Y-146071838D01*
X316942913Y-146079064D01*
X316931873Y-146130453D01*
X316923545Y-146182895D01*
X316917929Y-146236388D01*
X316915023Y-146290933D01*
X316914581Y-146322574D01*
X316915729Y-146378322D01*
X316919175Y-146431078D01*
X316924917Y-146480841D01*
X316936146Y-146542537D01*
X316951459Y-146598913D01*
X316970856Y-146649970D01*
X316994335Y-146695706D01*
X317021899Y-146736122D01*
X317045251Y-146762944D01*
X317088727Y-146801854D01*
X317137486Y-146834170D01*
X317191528Y-146859891D01*
X317238566Y-146875719D01*
X317288985Y-146887326D01*
X317342785Y-146894712D01*
X317399966Y-146897878D01*
X317414790Y-146898010D01*
X317472817Y-146895899D01*
X317527462Y-146889568D01*
X317578727Y-146879016D01*
X317626610Y-146864243D01*
X317681709Y-146839842D01*
X317731524Y-146808845D01*
X317776057Y-146771253D01*
X317784330Y-146762944D01*
X317821974Y-146716579D01*
X317847495Y-146673503D01*
X317868933Y-146625106D01*
X317886288Y-146571390D01*
X317899559Y-146512354D01*
X317908747Y-146447998D01*
X317912958Y-146396240D01*
X317914872Y-146341489D01*
X317915000Y-146322574D01*
X317913667Y-146267428D01*
X317909670Y-146213333D01*
X317903008Y-146160291D01*
X317893682Y-146108300D01*
X317887156Y-146079064D01*
X317873196Y-146030210D01*
X317853149Y-145979301D01*
X317828736Y-145933643D01*
X317799958Y-145893236D01*
X317796053Y-145888554D01*
X317758570Y-145853043D01*
X317724490Y-145829936D01*
X317720338Y-145827005D01*
X317615069Y-145937647D01*
X317627770Y-145944730D01*
X317640226Y-145950348D01*
X317682339Y-145980950D01*
X317715865Y-146023907D01*
X317738697Y-146073132D01*
X317744762Y-146091764D01*
X317757906Y-146144475D01*
X317766325Y-146193327D01*
X317771870Y-146244726D01*
X317774540Y-146298673D01*
X317774804Y-146322574D01*
X317773422Y-146380628D01*
X317769274Y-146433891D01*
X317762362Y-146482363D01*
X317750803Y-146532858D01*
X317735481Y-146576831D01*
X317710290Y-146624866D01*
X317678955Y-146664286D01*
X317636933Y-146697979D01*
X317618000Y-146708477D01*
X317570327Y-146727014D01*
X317521723Y-146738398D01*
X317467257Y-146744989D01*
X317414790Y-146746824D01*
X317362324Y-146744989D01*
X317307858Y-146738398D01*
X317259253Y-146727014D01*
X317211580Y-146708477D01*
X317166524Y-146679040D01*
X317132459Y-146643450D01*
X317104537Y-146599244D01*
X317094099Y-146576831D01*
X317076895Y-146526043D01*
X317065874Y-146474617D01*
X317059423Y-146425347D01*
X317055736Y-146371285D01*
X317054776Y-146322574D01*
X317056237Y-146268070D01*
X317060620Y-146215905D01*
X317067925Y-146166076D01*
X317079850Y-146111992D01*
X317085307Y-146092497D01*
X317103258Y-146044961D01*
X317130169Y-146001045D01*
X317168408Y-145964122D01*
X317190819Y-145950348D01*
X317203520Y-145944730D01*
X317217686Y-145937647D01*
X317111196Y-145827005D01*
X317107044Y-145829936D01*
X317065645Y-145858512D01*
X317034748Y-145888554D01*
G37*
G36*
X316914581Y-145201988D02*
G01*
X316914581Y-145315316D01*
X317088726Y-145596684D01*
X317251636Y-145596684D01*
X317099961Y-145351708D01*
X317915000Y-145351708D01*
X317915000Y-145201988D01*
X316914581Y-145201988D01*
G37*
G36*
X321471000Y-139345897D02*
G01*
X321064091Y-139732289D01*
X321064091Y-140050049D01*
X321471000Y-140048584D01*
X321471000Y-140199770D01*
X320470581Y-140199770D01*
X320470581Y-139613343D01*
X320470718Y-139606260D01*
X320610776Y-139606260D01*
X320610776Y-140050049D01*
X320923896Y-140050049D01*
X320923896Y-139586720D01*
X320923569Y-139557311D01*
X320920959Y-139505035D01*
X320914614Y-139455073D01*
X320903526Y-139417623D01*
X320874558Y-139375939D01*
X320833589Y-139353451D01*
X320783700Y-139347118D01*
X320748041Y-139347118D01*
X320700216Y-139353289D01*
X320656450Y-139379358D01*
X320631964Y-139416666D01*
X320618592Y-139464110D01*
X320614142Y-139504599D01*
X320611539Y-139553862D01*
X320610776Y-139606260D01*
X320470718Y-139606260D01*
X320471546Y-139563433D01*
X320475469Y-139505447D01*
X320482408Y-139452351D01*
X320492365Y-139404144D01*
X320508297Y-139352750D01*
X320532374Y-139301689D01*
X320558930Y-139265748D01*
X320598463Y-139233215D01*
X320647207Y-139210804D01*
X320696317Y-139199650D01*
X320752193Y-139195932D01*
X320793958Y-139195932D01*
X320810578Y-139196260D01*
X320864601Y-139202578D01*
X320912172Y-139216937D01*
X320958639Y-139243193D01*
X320996680Y-139279951D01*
X321000827Y-139285285D01*
X321026172Y-139327212D01*
X321045066Y-139377181D01*
X321056125Y-139426411D01*
X321062445Y-139481549D01*
X321064091Y-139532010D01*
X321471000Y-139142931D01*
X321471000Y-139345897D01*
G37*
G36*
X320470581Y-138517425D02*
G01*
X320470581Y-138630754D01*
X320644726Y-138912122D01*
X320807636Y-138912122D01*
X320655961Y-138667146D01*
X321471000Y-138667146D01*
X321471000Y-138517425D01*
X320470581Y-138517425D01*
G37*
G36*
X320996432Y-137168117D02*
G01*
X321045677Y-137171140D01*
X321103413Y-137179168D01*
X321156903Y-137191919D01*
X321206148Y-137209393D01*
X321251147Y-137231590D01*
X321299541Y-137264459D01*
X321322519Y-137284254D01*
X321358414Y-137321596D01*
X321388817Y-137362373D01*
X321413726Y-137406587D01*
X321433142Y-137454236D01*
X321435471Y-137461319D01*
X321449705Y-137513465D01*
X321459021Y-137561733D01*
X321465676Y-137613299D01*
X321469669Y-137668162D01*
X321471000Y-137726323D01*
X321469669Y-137784094D01*
X321465676Y-137838705D01*
X321459021Y-137890156D01*
X321447893Y-137946189D01*
X321433142Y-137997921D01*
X321422720Y-138025688D01*
X321400165Y-138071563D01*
X321372116Y-138113978D01*
X321338575Y-138152934D01*
X321299541Y-138188430D01*
X321276108Y-138205671D01*
X321233657Y-138230638D01*
X321186959Y-138250894D01*
X321136017Y-138266440D01*
X321080828Y-138277275D01*
X321021394Y-138283399D01*
X320970790Y-138284906D01*
X320945292Y-138284529D01*
X320884434Y-138280289D01*
X320827702Y-138271339D01*
X320775097Y-138257678D01*
X320726618Y-138239306D01*
X320682265Y-138216223D01*
X320642039Y-138188430D01*
X320619065Y-138168570D01*
X320583195Y-138131097D01*
X320552841Y-138090164D01*
X320528004Y-138045772D01*
X320508683Y-137997921D01*
X320506339Y-137990794D01*
X320492013Y-137938448D01*
X320482636Y-137890156D01*
X320475939Y-137838705D01*
X320471920Y-137784094D01*
X320470581Y-137726323D01*
X320610776Y-137726323D01*
X320611863Y-137775107D01*
X320615767Y-137827341D01*
X320622511Y-137875819D01*
X320633491Y-137925869D01*
X320634933Y-137931132D01*
X320653470Y-137980067D01*
X320679497Y-138022275D01*
X320716778Y-138060935D01*
X320735803Y-138075753D01*
X320780618Y-138101436D01*
X320830351Y-138118332D01*
X320867430Y-138125771D01*
X320919814Y-138131901D01*
X320970790Y-138133720D01*
X321012708Y-138132503D01*
X321061370Y-138127709D01*
X321111230Y-138118332D01*
X321134794Y-138111626D01*
X321182257Y-138090674D01*
X321224803Y-138060935D01*
X321228567Y-138057757D01*
X321265057Y-138018357D01*
X321290416Y-137975476D01*
X321308334Y-137925869D01*
X321317089Y-137887352D01*
X321325187Y-137833606D01*
X321329400Y-137781842D01*
X321330804Y-137726323D01*
X321329729Y-137677549D01*
X321325867Y-137625358D01*
X321319196Y-137576952D01*
X321308334Y-137527020D01*
X321305346Y-137516560D01*
X321285940Y-137468265D01*
X321259092Y-137426648D01*
X321224803Y-137391710D01*
X321205778Y-137376866D01*
X321160963Y-137350950D01*
X321111230Y-137333580D01*
X321074150Y-137325788D01*
X321021766Y-137319365D01*
X320970790Y-137317460D01*
X320960545Y-137317533D01*
X320911554Y-137320070D01*
X320857675Y-137327901D01*
X320809155Y-137340953D01*
X320759320Y-137362779D01*
X320716778Y-137391710D01*
X320709325Y-137398163D01*
X320676558Y-137434437D01*
X320651279Y-137477390D01*
X320633491Y-137527020D01*
X320624640Y-137565442D01*
X320616455Y-137619100D01*
X320612196Y-137670818D01*
X320610776Y-137726323D01*
X320470581Y-137726323D01*
X320471920Y-137668162D01*
X320475939Y-137613299D01*
X320482636Y-137561733D01*
X320493836Y-137505741D01*
X320508683Y-137454236D01*
X320519048Y-137426587D01*
X320541521Y-137380901D01*
X320569511Y-137338651D01*
X320603017Y-137299837D01*
X320642039Y-137264459D01*
X320665680Y-137247174D01*
X320708382Y-137222144D01*
X320755210Y-137201837D01*
X320806165Y-137186252D01*
X320861246Y-137175390D01*
X320920453Y-137169250D01*
X320970790Y-137167739D01*
X320996432Y-137168117D01*
G37*
G36*
X314359000Y-146612234D02*
G01*
X313952091Y-146998626D01*
X313952091Y-147316386D01*
X314359000Y-147314921D01*
X314359000Y-147466107D01*
X313358581Y-147466107D01*
X313358581Y-146879680D01*
X313358718Y-146872597D01*
X313498776Y-146872597D01*
X313498776Y-147316386D01*
X313811896Y-147316386D01*
X313811896Y-146853057D01*
X313811569Y-146823648D01*
X313808959Y-146771372D01*
X313802614Y-146721410D01*
X313791526Y-146683960D01*
X313762558Y-146642276D01*
X313721589Y-146619788D01*
X313671700Y-146613455D01*
X313636041Y-146613455D01*
X313588216Y-146619626D01*
X313544450Y-146645695D01*
X313519964Y-146683003D01*
X313506592Y-146730447D01*
X313502142Y-146770936D01*
X313499539Y-146820199D01*
X313498776Y-146872597D01*
X313358718Y-146872597D01*
X313359546Y-146829770D01*
X313363469Y-146771784D01*
X313370408Y-146718688D01*
X313380365Y-146670481D01*
X313396297Y-146619087D01*
X313420374Y-146568026D01*
X313446930Y-146532085D01*
X313486463Y-146499552D01*
X313535207Y-146477141D01*
X313584317Y-146465987D01*
X313640193Y-146462269D01*
X313681958Y-146462269D01*
X313698578Y-146462597D01*
X313752601Y-146468915D01*
X313800172Y-146483274D01*
X313846639Y-146509530D01*
X313884680Y-146546288D01*
X313888827Y-146551622D01*
X313914172Y-146593549D01*
X313933066Y-146643518D01*
X313944125Y-146692748D01*
X313950445Y-146747886D01*
X313952091Y-146798347D01*
X314359000Y-146409268D01*
X314359000Y-146612234D01*
G37*
G36*
X313874309Y-145141514D02*
G01*
X313926776Y-145144353D01*
X313987657Y-145151895D01*
X314043316Y-145163874D01*
X314093750Y-145180289D01*
X314138962Y-145201140D01*
X314186320Y-145232018D01*
X314209969Y-145251160D01*
X314246746Y-145287451D01*
X314277656Y-145327295D01*
X314302699Y-145370692D01*
X314321875Y-145417642D01*
X314326370Y-145431763D01*
X314339821Y-145484328D01*
X314348522Y-145533272D01*
X314354613Y-145585805D01*
X314358093Y-145641928D01*
X314359000Y-145691438D01*
X314359000Y-145737600D01*
X314358922Y-145754231D01*
X314357435Y-145809898D01*
X314354054Y-145861615D01*
X314347871Y-145915882D01*
X314339216Y-145964990D01*
X314331765Y-145993200D01*
X314312341Y-146039589D01*
X314285190Y-146080337D01*
X314250311Y-146115444D01*
X314247810Y-146117619D01*
X314204083Y-146145989D01*
X314156766Y-146161606D01*
X314125474Y-146165243D01*
X314075678Y-146167223D01*
X314021944Y-146167223D01*
X314021944Y-146014816D01*
X314098392Y-146014816D01*
X314137297Y-146009374D01*
X314177771Y-145981843D01*
X314199081Y-145943985D01*
X314211233Y-145896358D01*
X314214893Y-145864560D01*
X314217909Y-145815129D01*
X314218804Y-145762757D01*
X314218804Y-145691438D01*
X314218775Y-145683077D01*
X314216972Y-145627355D01*
X314212364Y-145576542D01*
X314203663Y-145524480D01*
X314189495Y-145473574D01*
X314168019Y-145425479D01*
X314137453Y-145381721D01*
X314099614Y-145347544D01*
X314091929Y-145342330D01*
X314044510Y-145318258D01*
X313993840Y-145303136D01*
X313942077Y-145295032D01*
X313952663Y-145312938D01*
X313975055Y-145361043D01*
X313990232Y-145408415D01*
X314000695Y-145459652D01*
X314002440Y-145471568D01*
X314008294Y-145521256D01*
X314012347Y-145574181D01*
X314014416Y-145623144D01*
X314015106Y-145674586D01*
X314015079Y-145684686D01*
X314014135Y-145733648D01*
X314011224Y-145789017D01*
X314006373Y-145840695D01*
X313998260Y-145896318D01*
X313987506Y-145946916D01*
X313975611Y-145986406D01*
X313954942Y-146033690D01*
X313925120Y-146079550D01*
X313888344Y-146117642D01*
X313843547Y-146147041D01*
X313796332Y-146165096D01*
X313742156Y-146175548D01*
X313689041Y-146178459D01*
X313635203Y-146175478D01*
X313580256Y-146164774D01*
X313532330Y-146146284D01*
X313486808Y-146116177D01*
X313453133Y-146081983D01*
X313425137Y-146041683D01*
X313402819Y-145995276D01*
X313386180Y-145942764D01*
X313382838Y-145928637D01*
X313372839Y-145875962D01*
X313366370Y-145826812D01*
X313361842Y-145773970D01*
X313359255Y-145717435D01*
X313358693Y-145675807D01*
X313498776Y-145675807D01*
X313499056Y-145711481D01*
X313500671Y-145763921D01*
X313504202Y-145816091D01*
X313510256Y-145865584D01*
X313516704Y-145895844D01*
X313534392Y-145941845D01*
X313563012Y-145983309D01*
X313592951Y-146007265D01*
X313640212Y-146024301D01*
X313689041Y-146028738D01*
X313706215Y-146028257D01*
X313755492Y-146020052D01*
X313799928Y-145997963D01*
X313826379Y-145970376D01*
X313849369Y-145924489D01*
X313861233Y-145875597D01*
X313867844Y-145824840D01*
X313871905Y-145775926D01*
X313874256Y-145723441D01*
X313874910Y-145674586D01*
X313874150Y-145626078D01*
X313871422Y-145573531D01*
X313866709Y-145524068D01*
X313859034Y-145472108D01*
X313849036Y-145430862D01*
X313828558Y-145384616D01*
X313794310Y-145345591D01*
X313787326Y-145340497D01*
X313743019Y-145318968D01*
X313735665Y-145316678D01*
X313686110Y-145309198D01*
X313652427Y-145311589D01*
X313601293Y-145327945D01*
X313562370Y-145359795D01*
X313535657Y-145407140D01*
X313533388Y-145413332D01*
X313519522Y-145460659D01*
X313509185Y-145514952D01*
X313503134Y-145567033D01*
X313499677Y-145624232D01*
X313498776Y-145675807D01*
X313358693Y-145675807D01*
X313358581Y-145667503D01*
X313359594Y-145610728D01*
X313362634Y-145556906D01*
X313367700Y-145506039D01*
X313376172Y-145450427D01*
X313387401Y-145398835D01*
X313389257Y-145391784D01*
X313405262Y-145345041D01*
X313430022Y-145297230D01*
X313461682Y-145255404D01*
X313500242Y-145219561D01*
X313508067Y-145213559D01*
X313550227Y-145187584D01*
X313597445Y-145168336D01*
X313649718Y-145155814D01*
X313689120Y-145150104D01*
X313742836Y-145144823D01*
X313793470Y-145142075D01*
X313846822Y-145141159D01*
X313874309Y-145141514D01*
G37*
G36*
X330202257Y-161721546D02*
G01*
X330260243Y-161725469D01*
X330313339Y-161732408D01*
X330361546Y-161742365D01*
X330412940Y-161758297D01*
X330464001Y-161782374D01*
X330499942Y-161808930D01*
X330532475Y-161848463D01*
X330554886Y-161897207D01*
X330566040Y-161946317D01*
X330569758Y-162002193D01*
X330569758Y-162043958D01*
X330569430Y-162060578D01*
X330563112Y-162114601D01*
X330548753Y-162162172D01*
X330522497Y-162208639D01*
X330485739Y-162246680D01*
X330480405Y-162250827D01*
X330438478Y-162276172D01*
X330388509Y-162295066D01*
X330339279Y-162306125D01*
X330284141Y-162312445D01*
X330233680Y-162314091D01*
X330622759Y-162721000D01*
X330419793Y-162721000D01*
X330033401Y-162314091D01*
X329715641Y-162314091D01*
X329717106Y-162721000D01*
X329565920Y-162721000D01*
X329565920Y-162173896D01*
X329715641Y-162173896D01*
X330178970Y-162173896D01*
X330208379Y-162173569D01*
X330260655Y-162170959D01*
X330310617Y-162164614D01*
X330348067Y-162153526D01*
X330389751Y-162124558D01*
X330412239Y-162083589D01*
X330418572Y-162033700D01*
X330418572Y-161998041D01*
X330412401Y-161950216D01*
X330386332Y-161906450D01*
X330349024Y-161881964D01*
X330301580Y-161868592D01*
X330261091Y-161864142D01*
X330211828Y-161861539D01*
X330159430Y-161860776D01*
X329715641Y-161860776D01*
X329715641Y-162173896D01*
X329565920Y-162173896D01*
X329565920Y-161720581D01*
X330152347Y-161720581D01*
X330202257Y-161721546D01*
G37*
G36*
X331281970Y-161720581D02*
G01*
X331231652Y-161721470D01*
X331173038Y-161725082D01*
X331119182Y-161731473D01*
X331070084Y-161740643D01*
X331017447Y-161755315D01*
X330971663Y-161773988D01*
X330964699Y-161777489D01*
X330921873Y-161807074D01*
X330889566Y-161846031D01*
X330867777Y-161894362D01*
X330857473Y-161943248D01*
X330854790Y-161989248D01*
X330854790Y-162063742D01*
X331006220Y-162063742D01*
X331006220Y-162056659D01*
X331004755Y-161997552D01*
X331011624Y-161946988D01*
X331037453Y-161904496D01*
X331062885Y-161887643D01*
X331110208Y-161872347D01*
X331159876Y-161864554D01*
X331212296Y-161861196D01*
X331241426Y-161860776D01*
X331424608Y-161860776D01*
X331482981Y-161862285D01*
X331533840Y-161866811D01*
X331584954Y-161876225D01*
X331636275Y-161895535D01*
X331668363Y-161922570D01*
X331686885Y-161969112D01*
X331689367Y-162001216D01*
X331681962Y-162051592D01*
X331668363Y-162076931D01*
X331627333Y-162105106D01*
X331577797Y-162124665D01*
X331532564Y-162138725D01*
X331484650Y-162150042D01*
X331431584Y-162162073D01*
X331405069Y-162168034D01*
X331344985Y-162180734D01*
X331291668Y-162193022D01*
X331243090Y-162205704D01*
X331192407Y-162221000D01*
X331142383Y-162239139D01*
X331115397Y-162250832D01*
X331063882Y-162276503D01*
X331018516Y-162304974D01*
X330979298Y-162336244D01*
X330941314Y-162376263D01*
X330911698Y-162420092D01*
X330889048Y-162467673D01*
X330871961Y-162518948D01*
X330860437Y-162573915D01*
X330854988Y-162623970D01*
X330853568Y-162667755D01*
X330853568Y-162721000D01*
X331850323Y-162721000D01*
X331850323Y-162580804D01*
X331008907Y-162580804D01*
X331022920Y-162528765D01*
X331045421Y-162483779D01*
X331076409Y-162445845D01*
X331115885Y-162414963D01*
X331163604Y-162388814D01*
X331211720Y-162368112D01*
X331265772Y-162349444D01*
X331316828Y-162335061D01*
X331353289Y-162326303D01*
X331442926Y-162306764D01*
X331493378Y-162296414D01*
X331541998Y-162285427D01*
X331589720Y-162272944D01*
X331603882Y-162268662D01*
X331650537Y-162253873D01*
X331698108Y-162233732D01*
X331743430Y-162206907D01*
X331782886Y-162171876D01*
X331789995Y-162163393D01*
X331816657Y-162118637D01*
X331833444Y-162068634D01*
X331840109Y-162019145D01*
X331840554Y-162001704D01*
X331836784Y-161947809D01*
X331825476Y-161900061D01*
X331802754Y-161852126D01*
X331769770Y-161812559D01*
X331733331Y-161785305D01*
X331681993Y-161760085D01*
X331630771Y-161743399D01*
X331582996Y-161732969D01*
X331530593Y-161725701D01*
X331473564Y-161721592D01*
X331424608Y-161720581D01*
X331281970Y-161720581D01*
G37*
G36*
X324397649Y-152300581D02*
G01*
X324249149Y-152300581D01*
X324249149Y-152700651D01*
X324247980Y-152751185D01*
X324244474Y-152801276D01*
X324238630Y-152850922D01*
X324230449Y-152900124D01*
X324224725Y-152928041D01*
X324209918Y-152980064D01*
X324189920Y-153025005D01*
X324161219Y-153067097D01*
X324134355Y-153093637D01*
X324093890Y-153121460D01*
X324047525Y-153142347D01*
X324037879Y-153145417D01*
X323989066Y-153155935D01*
X323937460Y-153160428D01*
X323916002Y-153160804D01*
X323866623Y-153158477D01*
X323814310Y-153149880D01*
X323767701Y-153134949D01*
X323721417Y-153110128D01*
X323701068Y-153094614D01*
X323666126Y-153058711D01*
X323638969Y-153017189D01*
X323619598Y-152970050D01*
X323608012Y-152917294D01*
X323452673Y-152917294D01*
X323453894Y-152927064D01*
X323465526Y-152977855D01*
X323481033Y-153025510D01*
X323504758Y-153078555D01*
X323534064Y-153127084D01*
X323568952Y-153171097D01*
X323595311Y-153197929D01*
X323640296Y-153232957D01*
X323683124Y-153256611D01*
X323730805Y-153275232D01*
X323783340Y-153288820D01*
X323840728Y-153297376D01*
X323890134Y-153300597D01*
X323916002Y-153301000D01*
X323964892Y-153299576D01*
X324021830Y-153293793D01*
X324074129Y-153283562D01*
X324121789Y-153268882D01*
X324172856Y-153245395D01*
X324217244Y-153215502D01*
X324223992Y-153209897D01*
X324261358Y-153174294D01*
X324293590Y-153135994D01*
X324320686Y-153094999D01*
X324342648Y-153051307D01*
X324359475Y-153004919D01*
X324363943Y-152988857D01*
X324375398Y-152939178D01*
X324384482Y-152887592D01*
X324391197Y-152834100D01*
X324395542Y-152778701D01*
X324397517Y-152721397D01*
X324397649Y-152701872D01*
X324397649Y-152300581D01*
G37*
G36*
X325266260Y-152301531D02*
G01*
X325324246Y-152305391D01*
X325377343Y-152312221D01*
X325425550Y-152322021D01*
X325476944Y-152337700D01*
X325528005Y-152361397D01*
X325563945Y-152387526D01*
X325596478Y-152426410D01*
X325618890Y-152474341D01*
X325630044Y-152522623D01*
X325633762Y-152577552D01*
X325633762Y-152618585D01*
X325631198Y-152664803D01*
X325621352Y-152714124D01*
X325600531Y-152763202D01*
X325569660Y-152803162D01*
X325528737Y-152834007D01*
X325477892Y-152857419D01*
X325426515Y-152872909D01*
X325378205Y-152882591D01*
X325324897Y-152889338D01*
X325266592Y-152893152D01*
X325216351Y-152894091D01*
X324779644Y-152894091D01*
X324781110Y-153301000D01*
X324629924Y-153301000D01*
X324629924Y-152753896D01*
X324779644Y-152753896D01*
X325242973Y-152753896D01*
X325272382Y-152753569D01*
X325324658Y-152750959D01*
X325374620Y-152744614D01*
X325412071Y-152733526D01*
X325453755Y-152704558D01*
X325476243Y-152663589D01*
X325482575Y-152613700D01*
X325482575Y-152578041D01*
X325476404Y-152530216D01*
X325450335Y-152486450D01*
X325413027Y-152461964D01*
X325365583Y-152448592D01*
X325325094Y-152444142D01*
X325275831Y-152441539D01*
X325223434Y-152440776D01*
X324779644Y-152440776D01*
X324779644Y-152753896D01*
X324629924Y-152753896D01*
X324629924Y-152300581D01*
X325216351Y-152300581D01*
X325266260Y-152301531D01*
G37*
G36*
X326293217Y-152300581D02*
G01*
X326242900Y-152301470D01*
X326184285Y-152305082D01*
X326130429Y-152311473D01*
X326081331Y-152320643D01*
X326028695Y-152335315D01*
X325982910Y-152353988D01*
X325975946Y-152357489D01*
X325933120Y-152387074D01*
X325900813Y-152426031D01*
X325879024Y-152474362D01*
X325868720Y-152523248D01*
X325866037Y-152569248D01*
X325866037Y-152643742D01*
X326017467Y-152643742D01*
X326017467Y-152636659D01*
X326016002Y-152577552D01*
X326022871Y-152526988D01*
X326048700Y-152484496D01*
X326074132Y-152467643D01*
X326121455Y-152452347D01*
X326171123Y-152444554D01*
X326223543Y-152441196D01*
X326252673Y-152440776D01*
X326435855Y-152440776D01*
X326494228Y-152442285D01*
X326545087Y-152446811D01*
X326596201Y-152456225D01*
X326647522Y-152475535D01*
X326679610Y-152502570D01*
X326698132Y-152549112D01*
X326700614Y-152581216D01*
X326693209Y-152631592D01*
X326679610Y-152656931D01*
X326638580Y-152685106D01*
X326589044Y-152704665D01*
X326543811Y-152718725D01*
X326495897Y-152730042D01*
X326442831Y-152742073D01*
X326416316Y-152748034D01*
X326356232Y-152760734D01*
X326302915Y-152773022D01*
X326254337Y-152785704D01*
X326203654Y-152801000D01*
X326153630Y-152819139D01*
X326126644Y-152830832D01*
X326075130Y-152856503D01*
X326029763Y-152884974D01*
X325990545Y-152916244D01*
X325952561Y-152956263D01*
X325922945Y-153000092D01*
X325900295Y-153047673D01*
X325883208Y-153098948D01*
X325871684Y-153153915D01*
X325866235Y-153203970D01*
X325864815Y-153247755D01*
X325864815Y-153301000D01*
X326861571Y-153301000D01*
X326861571Y-153160804D01*
X326020154Y-153160804D01*
X326034167Y-153108765D01*
X326056668Y-153063779D01*
X326087657Y-153025845D01*
X326127132Y-152994963D01*
X326174851Y-152968814D01*
X326222967Y-152948112D01*
X326277019Y-152929444D01*
X326328075Y-152915061D01*
X326364536Y-152906303D01*
X326454173Y-152886764D01*
X326504625Y-152876414D01*
X326553245Y-152865427D01*
X326600967Y-152852944D01*
X326615129Y-152848662D01*
X326661784Y-152833873D01*
X326709355Y-152813732D01*
X326754677Y-152786907D01*
X326794133Y-152751876D01*
X326801243Y-152743393D01*
X326827904Y-152698637D01*
X326844691Y-152648634D01*
X326851356Y-152599145D01*
X326851801Y-152581704D01*
X326848031Y-152527809D01*
X326836723Y-152480061D01*
X326814001Y-152432126D01*
X326781017Y-152392559D01*
X326744578Y-152365305D01*
X326693240Y-152340085D01*
X326642018Y-152323399D01*
X326594243Y-152312969D01*
X326541840Y-152305701D01*
X326484811Y-152301592D01*
X326435855Y-152300581D01*
X326293217Y-152300581D01*
G37*
G36*
X308144748Y-146435157D02*
G01*
X308115195Y-146474908D01*
X308090038Y-146519909D01*
X308069277Y-146570162D01*
X308054718Y-146618441D01*
X308052913Y-146625667D01*
X308041873Y-146677056D01*
X308033545Y-146729498D01*
X308027929Y-146782991D01*
X308025023Y-146837536D01*
X308024581Y-146869177D01*
X308025729Y-146924925D01*
X308029175Y-146977681D01*
X308034917Y-147027444D01*
X308046146Y-147089140D01*
X308061459Y-147145516D01*
X308080856Y-147196573D01*
X308104335Y-147242309D01*
X308131899Y-147282725D01*
X308155251Y-147309547D01*
X308198727Y-147348457D01*
X308247486Y-147380773D01*
X308301528Y-147406494D01*
X308348566Y-147422322D01*
X308398985Y-147433929D01*
X308452785Y-147441315D01*
X308509966Y-147444481D01*
X308524790Y-147444613D01*
X308582817Y-147442502D01*
X308637462Y-147436171D01*
X308688727Y-147425619D01*
X308736610Y-147410846D01*
X308791709Y-147386445D01*
X308841524Y-147355448D01*
X308886057Y-147317856D01*
X308894330Y-147309547D01*
X308931974Y-147263182D01*
X308957495Y-147220106D01*
X308978933Y-147171709D01*
X308996288Y-147117993D01*
X309009559Y-147058957D01*
X309018747Y-146994601D01*
X309022958Y-146942843D01*
X309024872Y-146888092D01*
X309025000Y-146869177D01*
X309023667Y-146814031D01*
X309019670Y-146759936D01*
X309013008Y-146706894D01*
X309003682Y-146654903D01*
X308997156Y-146625667D01*
X308983196Y-146576813D01*
X308963149Y-146525904D01*
X308938736Y-146480246D01*
X308909958Y-146439839D01*
X308906053Y-146435157D01*
X308868570Y-146399646D01*
X308834490Y-146376539D01*
X308830338Y-146373608D01*
X308725069Y-146484250D01*
X308737770Y-146491333D01*
X308750226Y-146496951D01*
X308792339Y-146527553D01*
X308825865Y-146570510D01*
X308848697Y-146619735D01*
X308854762Y-146638367D01*
X308867906Y-146691078D01*
X308876325Y-146739930D01*
X308881870Y-146791329D01*
X308884540Y-146845276D01*
X308884804Y-146869177D01*
X308883422Y-146927231D01*
X308879274Y-146980494D01*
X308872362Y-147028966D01*
X308860803Y-147079461D01*
X308845481Y-147123434D01*
X308820290Y-147171469D01*
X308788955Y-147210889D01*
X308746933Y-147244582D01*
X308728000Y-147255080D01*
X308680327Y-147273617D01*
X308631723Y-147285001D01*
X308577257Y-147291592D01*
X308524790Y-147293427D01*
X308472324Y-147291592D01*
X308417858Y-147285001D01*
X308369253Y-147273617D01*
X308321580Y-147255080D01*
X308276524Y-147225643D01*
X308242459Y-147190053D01*
X308214537Y-147145847D01*
X308204099Y-147123434D01*
X308186895Y-147072646D01*
X308175874Y-147021220D01*
X308169423Y-146971950D01*
X308165736Y-146917888D01*
X308164776Y-146869177D01*
X308166237Y-146814673D01*
X308170620Y-146762508D01*
X308177925Y-146712679D01*
X308189850Y-146658595D01*
X308195307Y-146639100D01*
X308213258Y-146591564D01*
X308240169Y-146547648D01*
X308278408Y-146510725D01*
X308300819Y-146496951D01*
X308313520Y-146491333D01*
X308327686Y-146484250D01*
X308221196Y-146373608D01*
X308217044Y-146376539D01*
X308175645Y-146405115D01*
X308144748Y-146435157D01*
G37*
G36*
X309025000Y-145579086D02*
G01*
X309024018Y-145523060D01*
X309021073Y-145471241D01*
X309015302Y-145417172D01*
X309006968Y-145368598D01*
X309004483Y-145357314D01*
X308988845Y-145309894D01*
X308962178Y-145263278D01*
X308925733Y-145223054D01*
X308912892Y-145212233D01*
X308869844Y-145185700D01*
X308820690Y-145168995D01*
X308771231Y-145162361D01*
X308753646Y-145161919D01*
X308701814Y-145163911D01*
X308651525Y-145170625D01*
X308618091Y-145178772D01*
X308571555Y-145201279D01*
X308533031Y-145236075D01*
X308519417Y-145253022D01*
X308485364Y-145216272D01*
X308443103Y-145188596D01*
X308426605Y-145181703D01*
X308376823Y-145168179D01*
X308326411Y-145162402D01*
X308305949Y-145161919D01*
X308255451Y-145164362D01*
X308211915Y-145171689D01*
X308164575Y-145190696D01*
X308132780Y-145212233D01*
X308097441Y-145247166D01*
X308070406Y-145288065D01*
X308060729Y-145308953D01*
X308044382Y-145356395D01*
X308033839Y-145405448D01*
X308030931Y-145428632D01*
X308027061Y-145478985D01*
X308025083Y-145531537D01*
X308024581Y-145579086D01*
X308024581Y-145726120D01*
X308025470Y-145775366D01*
X308029082Y-145832715D01*
X308035473Y-145885389D01*
X308044643Y-145933389D01*
X308059315Y-145984817D01*
X308081489Y-146036309D01*
X308110791Y-146077993D01*
X308149116Y-146109438D01*
X308196463Y-146130646D01*
X308252833Y-146141615D01*
X308289096Y-146143287D01*
X308362369Y-146143287D01*
X308362369Y-145992101D01*
X308355530Y-145992101D01*
X308297889Y-145993566D01*
X308259542Y-145990635D01*
X308213199Y-145970260D01*
X308184996Y-145927452D01*
X308182606Y-145920049D01*
X308171741Y-145868598D01*
X308166517Y-145816801D01*
X308164794Y-145763250D01*
X308164776Y-145756895D01*
X308164776Y-145563699D01*
X308165516Y-145513763D01*
X308168355Y-145462655D01*
X308172348Y-145427411D01*
X308185838Y-145378498D01*
X308206786Y-145344613D01*
X308249249Y-145318306D01*
X308290806Y-145313106D01*
X308310101Y-145313106D01*
X308358705Y-145316769D01*
X308395097Y-145332645D01*
X308425606Y-145371809D01*
X308438328Y-145416909D01*
X308444021Y-145468970D01*
X308446571Y-145519949D01*
X308447121Y-145561012D01*
X308447121Y-145992101D01*
X308587316Y-145992101D01*
X308587316Y-145583238D01*
X308587316Y-145532690D01*
X308587316Y-145483196D01*
X308587316Y-145481145D01*
X308589881Y-145431502D01*
X308597575Y-145394438D01*
X308621302Y-145350716D01*
X308638852Y-145334110D01*
X308685184Y-145315588D01*
X308717009Y-145313106D01*
X308737526Y-145313106D01*
X308787314Y-145316326D01*
X308790038Y-145316769D01*
X308830338Y-145332645D01*
X308861988Y-145371809D01*
X308875279Y-145416909D01*
X308881446Y-145468970D01*
X308884209Y-145519949D01*
X308884804Y-145561012D01*
X308884804Y-145748591D01*
X308884014Y-145798542D01*
X308881096Y-145847876D01*
X308879187Y-145866071D01*
X308867569Y-145914526D01*
X308851587Y-145947404D01*
X308815447Y-145980663D01*
X308785153Y-145990635D01*
X308746318Y-145993566D01*
X308676953Y-145992101D01*
X308676953Y-146143287D01*
X308730931Y-146143287D01*
X308780696Y-146142249D01*
X308816172Y-146139135D01*
X308862928Y-146124769D01*
X308906280Y-146099314D01*
X308914113Y-146092973D01*
X308949404Y-146058845D01*
X308979553Y-146014672D01*
X308998530Y-145969287D01*
X309004483Y-145947404D01*
X309014401Y-145893660D01*
X309020492Y-145840309D01*
X309023717Y-145789318D01*
X309024979Y-145734307D01*
X309025000Y-145726120D01*
X309025000Y-145579086D01*
G37*
G36*
X306896493Y-150418546D02*
G01*
X306954479Y-150422469D01*
X307007575Y-150429408D01*
X307055782Y-150439365D01*
X307107176Y-150455297D01*
X307158237Y-150479374D01*
X307194178Y-150505930D01*
X307226711Y-150545463D01*
X307249122Y-150594207D01*
X307260276Y-150643317D01*
X307263994Y-150699193D01*
X307263994Y-150740958D01*
X307263666Y-150757578D01*
X307257348Y-150811601D01*
X307242989Y-150859172D01*
X307216733Y-150905639D01*
X307179975Y-150943680D01*
X307174641Y-150947827D01*
X307132714Y-150973172D01*
X307082745Y-150992066D01*
X307033515Y-151003125D01*
X306978377Y-151009445D01*
X306927916Y-151011091D01*
X307316995Y-151418000D01*
X307114029Y-151418000D01*
X306727637Y-151011091D01*
X306409877Y-151011091D01*
X306411342Y-151418000D01*
X306260156Y-151418000D01*
X306260156Y-150870896D01*
X306409877Y-150870896D01*
X306873206Y-150870896D01*
X306902615Y-150870569D01*
X306954891Y-150867959D01*
X307004853Y-150861614D01*
X307042303Y-150850526D01*
X307083987Y-150821558D01*
X307106475Y-150780589D01*
X307112808Y-150730700D01*
X307112808Y-150695041D01*
X307106637Y-150647216D01*
X307080568Y-150603450D01*
X307043260Y-150578964D01*
X306995816Y-150565592D01*
X306955327Y-150561142D01*
X306906064Y-150558539D01*
X306853666Y-150557776D01*
X306409877Y-150557776D01*
X306409877Y-150870896D01*
X306260156Y-150870896D01*
X306260156Y-150417581D01*
X306846583Y-150417581D01*
X306896493Y-150418546D01*
G37*
G36*
X307577114Y-150990330D02*
G01*
X307627206Y-150983894D01*
X307683145Y-150976910D01*
X307734534Y-150970733D01*
X307788735Y-150964547D01*
X307843094Y-150958823D01*
X307893790Y-150954335D01*
X307945004Y-150951129D01*
X307996738Y-150949206D01*
X308048991Y-150948565D01*
X308098908Y-150949191D01*
X308152364Y-150951391D01*
X308202961Y-150955176D01*
X308235104Y-150958579D01*
X308286258Y-150968297D01*
X308332246Y-150989348D01*
X308347211Y-151003519D01*
X308367553Y-151048033D01*
X308372368Y-151096332D01*
X308366827Y-151145059D01*
X308345990Y-151191037D01*
X308325474Y-151213080D01*
X308282857Y-151240636D01*
X308235504Y-151258273D01*
X308204329Y-151265103D01*
X308154798Y-151271801D01*
X308104878Y-151275708D01*
X308049895Y-151277606D01*
X308023834Y-151277804D01*
X307974209Y-151277014D01*
X307918440Y-151274096D01*
X307864961Y-151269027D01*
X307813774Y-151261807D01*
X307778614Y-151255334D01*
X307730572Y-151244019D01*
X307683044Y-151229735D01*
X307636031Y-151212483D01*
X307589532Y-151192262D01*
X307563192Y-151179374D01*
X307547804Y-151171070D01*
X307547804Y-151332759D01*
X307551957Y-151335445D01*
X307597981Y-151355595D01*
X307649348Y-151372815D01*
X307698678Y-151385477D01*
X307752097Y-151395896D01*
X307768111Y-151398460D01*
X307816617Y-151405100D01*
X307872882Y-151411111D01*
X307928797Y-151415252D01*
X307984360Y-151417522D01*
X308023834Y-151418000D01*
X308080111Y-151416995D01*
X308133537Y-151413981D01*
X308184112Y-151408958D01*
X308239514Y-151400558D01*
X308291035Y-151389423D01*
X308338304Y-151374209D01*
X308386401Y-151350182D01*
X308428178Y-151319072D01*
X308463635Y-151280878D01*
X308467623Y-151275606D01*
X308493071Y-151233091D01*
X308508656Y-151191342D01*
X308519137Y-151141156D01*
X308522089Y-151095843D01*
X308518670Y-151040629D01*
X308508412Y-150992223D01*
X308488697Y-150945905D01*
X308467379Y-150915836D01*
X308429092Y-150880564D01*
X308382314Y-150853211D01*
X308332953Y-150835363D01*
X308314971Y-150830840D01*
X308262581Y-150821009D01*
X308211130Y-150814711D01*
X308154443Y-150810564D01*
X308101686Y-150808720D01*
X308064378Y-150808369D01*
X308012270Y-150808930D01*
X307959292Y-150810611D01*
X307905442Y-150813414D01*
X307850723Y-150817338D01*
X307795132Y-150822382D01*
X307738672Y-150828548D01*
X307715843Y-150831328D01*
X307715843Y-150557776D01*
X308495467Y-150557776D01*
X308495467Y-150417581D01*
X307564657Y-150417581D01*
X307564657Y-150991796D01*
X307577114Y-150990330D01*
G37*
G36*
X293236399Y-147540581D02*
G01*
X293087899Y-147540581D01*
X293087899Y-147940651D01*
X293086730Y-147991185D01*
X293083224Y-148041276D01*
X293077380Y-148090922D01*
X293069199Y-148140124D01*
X293063475Y-148168041D01*
X293048668Y-148220064D01*
X293028670Y-148265005D01*
X292999969Y-148307097D01*
X292973105Y-148333637D01*
X292932640Y-148361460D01*
X292886275Y-148382347D01*
X292876629Y-148385417D01*
X292827816Y-148395935D01*
X292776210Y-148400428D01*
X292754752Y-148400804D01*
X292705373Y-148398477D01*
X292653060Y-148389880D01*
X292606451Y-148374949D01*
X292560167Y-148350128D01*
X292539818Y-148334614D01*
X292504876Y-148298711D01*
X292477719Y-148257189D01*
X292458348Y-148210050D01*
X292446762Y-148157294D01*
X292291423Y-148157294D01*
X292292644Y-148167064D01*
X292304276Y-148217855D01*
X292319783Y-148265510D01*
X292343508Y-148318555D01*
X292372814Y-148367084D01*
X292407702Y-148411097D01*
X292434061Y-148437929D01*
X292479046Y-148472957D01*
X292521874Y-148496611D01*
X292569555Y-148515232D01*
X292622090Y-148528820D01*
X292679478Y-148537376D01*
X292728884Y-148540597D01*
X292754752Y-148541000D01*
X292803642Y-148539576D01*
X292860580Y-148533793D01*
X292912879Y-148523562D01*
X292960539Y-148508882D01*
X293011606Y-148485395D01*
X293055994Y-148455502D01*
X293062742Y-148449897D01*
X293100108Y-148414294D01*
X293132340Y-148375994D01*
X293159436Y-148334999D01*
X293181398Y-148291307D01*
X293198225Y-148244919D01*
X293202693Y-148228857D01*
X293214148Y-148179178D01*
X293223232Y-148127592D01*
X293229947Y-148074100D01*
X293234292Y-148018701D01*
X293236267Y-147961397D01*
X293236399Y-147941872D01*
X293236399Y-147540581D01*
G37*
G36*
X294032875Y-148541000D02*
G01*
X294088901Y-148540018D01*
X294140719Y-148537073D01*
X294194789Y-148531302D01*
X294243362Y-148522968D01*
X294254647Y-148520483D01*
X294302067Y-148504845D01*
X294348683Y-148478178D01*
X294388907Y-148441733D01*
X294399727Y-148428892D01*
X294426260Y-148385844D01*
X294442966Y-148336690D01*
X294449599Y-148287231D01*
X294450041Y-148269646D01*
X294448050Y-148217814D01*
X294441335Y-148167525D01*
X294433189Y-148134091D01*
X294410682Y-148087555D01*
X294375886Y-148049031D01*
X294358939Y-148035417D01*
X294395689Y-148001364D01*
X294423365Y-147959103D01*
X294430258Y-147942605D01*
X294443782Y-147892823D01*
X294449558Y-147842411D01*
X294450041Y-147821949D01*
X294447599Y-147771451D01*
X294440272Y-147727915D01*
X294421265Y-147680575D01*
X294399727Y-147648780D01*
X294364794Y-147613441D01*
X294323896Y-147586406D01*
X294303007Y-147576729D01*
X294255566Y-147560382D01*
X294206512Y-147549839D01*
X294183328Y-147546931D01*
X294132976Y-147543061D01*
X294080423Y-147541083D01*
X294032875Y-147540581D01*
X293885840Y-147540581D01*
X293836595Y-147541470D01*
X293779246Y-147545082D01*
X293726571Y-147551473D01*
X293678572Y-147560643D01*
X293627143Y-147575315D01*
X293575652Y-147597489D01*
X293533968Y-147626791D01*
X293502522Y-147665116D01*
X293481315Y-147712463D01*
X293470345Y-147768833D01*
X293468674Y-147805096D01*
X293468674Y-147878369D01*
X293619860Y-147878369D01*
X293619860Y-147871530D01*
X293618394Y-147813889D01*
X293621325Y-147775542D01*
X293641701Y-147729199D01*
X293684509Y-147700996D01*
X293691912Y-147698606D01*
X293743363Y-147687741D01*
X293795160Y-147682517D01*
X293848710Y-147680794D01*
X293855066Y-147680776D01*
X294048262Y-147680776D01*
X294098198Y-147681516D01*
X294149306Y-147684355D01*
X294184549Y-147688348D01*
X294233463Y-147701838D01*
X294267348Y-147722786D01*
X294293655Y-147765249D01*
X294298855Y-147806806D01*
X294298855Y-147826101D01*
X294295191Y-147874705D01*
X294279316Y-147911097D01*
X294240152Y-147941606D01*
X294195052Y-147954328D01*
X294142990Y-147960021D01*
X294092012Y-147962571D01*
X294050949Y-147963121D01*
X293619860Y-147963121D01*
X293619860Y-148103316D01*
X294028722Y-148103316D01*
X294079271Y-148103316D01*
X294128764Y-148103316D01*
X294130816Y-148103316D01*
X294180458Y-148105881D01*
X294217522Y-148113575D01*
X294261245Y-148137302D01*
X294277850Y-148154852D01*
X294296373Y-148201184D01*
X294298855Y-148233009D01*
X294298855Y-148253526D01*
X294295635Y-148303314D01*
X294295191Y-148306038D01*
X294279316Y-148346338D01*
X294240152Y-148377988D01*
X294195052Y-148391279D01*
X294142990Y-148397446D01*
X294092012Y-148400209D01*
X294050949Y-148400804D01*
X293863370Y-148400804D01*
X293813419Y-148400014D01*
X293764084Y-148397096D01*
X293745889Y-148395187D01*
X293697435Y-148383569D01*
X293664556Y-148367587D01*
X293631297Y-148331447D01*
X293621325Y-148301153D01*
X293618394Y-148262318D01*
X293619860Y-148192953D01*
X293468674Y-148192953D01*
X293468674Y-148246931D01*
X293469712Y-148296696D01*
X293472826Y-148332172D01*
X293487191Y-148378928D01*
X293512647Y-148422280D01*
X293518988Y-148430113D01*
X293553115Y-148465404D01*
X293597289Y-148495553D01*
X293642674Y-148514530D01*
X293664556Y-148520483D01*
X293718300Y-148530401D01*
X293771652Y-148536492D01*
X293822643Y-148539717D01*
X293877653Y-148540979D01*
X293885840Y-148541000D01*
X294032875Y-148541000D01*
G37*
G36*
X315256748Y-146463489D02*
G01*
X315227195Y-146503240D01*
X315202038Y-146548241D01*
X315181277Y-146598494D01*
X315166718Y-146646773D01*
X315164913Y-146653999D01*
X315153873Y-146705388D01*
X315145545Y-146757830D01*
X315139929Y-146811323D01*
X315137023Y-146865868D01*
X315136581Y-146897509D01*
X315137729Y-146953257D01*
X315141175Y-147006013D01*
X315146917Y-147055776D01*
X315158146Y-147117472D01*
X315173459Y-147173848D01*
X315192856Y-147224905D01*
X315216335Y-147270641D01*
X315243899Y-147311057D01*
X315267251Y-147337879D01*
X315310727Y-147376789D01*
X315359486Y-147409105D01*
X315413528Y-147434826D01*
X315460566Y-147450654D01*
X315510985Y-147462261D01*
X315564785Y-147469647D01*
X315621966Y-147472813D01*
X315636790Y-147472945D01*
X315694817Y-147470834D01*
X315749462Y-147464503D01*
X315800727Y-147453951D01*
X315848610Y-147439178D01*
X315903709Y-147414777D01*
X315953524Y-147383780D01*
X315998057Y-147346188D01*
X316006330Y-147337879D01*
X316043974Y-147291514D01*
X316069495Y-147248438D01*
X316090933Y-147200041D01*
X316108288Y-147146325D01*
X316121559Y-147087289D01*
X316130747Y-147022933D01*
X316134958Y-146971175D01*
X316136872Y-146916424D01*
X316137000Y-146897509D01*
X316135667Y-146842363D01*
X316131670Y-146788268D01*
X316125008Y-146735226D01*
X316115682Y-146683235D01*
X316109156Y-146653999D01*
X316095196Y-146605145D01*
X316075149Y-146554236D01*
X316050736Y-146508578D01*
X316021958Y-146468171D01*
X316018053Y-146463489D01*
X315980570Y-146427978D01*
X315946490Y-146404871D01*
X315942338Y-146401940D01*
X315837069Y-146512582D01*
X315849770Y-146519665D01*
X315862226Y-146525283D01*
X315904339Y-146555885D01*
X315937865Y-146598842D01*
X315960697Y-146648067D01*
X315966762Y-146666699D01*
X315979906Y-146719410D01*
X315988325Y-146768262D01*
X315993870Y-146819661D01*
X315996540Y-146873608D01*
X315996804Y-146897509D01*
X315995422Y-146955563D01*
X315991274Y-147008826D01*
X315984362Y-147057298D01*
X315972803Y-147107793D01*
X315957481Y-147151766D01*
X315932290Y-147199801D01*
X315900955Y-147239221D01*
X315858933Y-147272914D01*
X315840000Y-147283412D01*
X315792327Y-147301949D01*
X315743723Y-147313333D01*
X315689257Y-147319924D01*
X315636790Y-147321759D01*
X315584324Y-147319924D01*
X315529858Y-147313333D01*
X315481253Y-147301949D01*
X315433580Y-147283412D01*
X315388524Y-147253975D01*
X315354459Y-147218385D01*
X315326537Y-147174179D01*
X315316099Y-147151766D01*
X315298895Y-147100978D01*
X315287874Y-147049552D01*
X315281423Y-147000282D01*
X315277736Y-146946220D01*
X315276776Y-146897509D01*
X315278237Y-146843005D01*
X315282620Y-146790840D01*
X315289925Y-146741011D01*
X315301850Y-146686927D01*
X315307307Y-146667432D01*
X315325258Y-146619896D01*
X315352169Y-146575980D01*
X315390408Y-146539057D01*
X315412819Y-146525283D01*
X315425520Y-146519665D01*
X315439686Y-146512582D01*
X315333196Y-146401940D01*
X315329044Y-146404871D01*
X315287645Y-146433447D01*
X315256748Y-146463489D01*
G37*
G36*
X315860885Y-145137335D02*
G01*
X315915546Y-145148166D01*
X315963154Y-145166873D01*
X316008284Y-145197334D01*
X316041577Y-145231818D01*
X316069405Y-145272256D01*
X316091769Y-145318647D01*
X316108667Y-145370991D01*
X316112098Y-145385000D01*
X316122363Y-145437321D01*
X316129003Y-145486242D01*
X316133652Y-145538924D01*
X316136308Y-145595367D01*
X316137000Y-145645276D01*
X316136783Y-145672843D01*
X316135050Y-145725401D01*
X316131585Y-145774524D01*
X316124817Y-145831098D01*
X316115342Y-145882306D01*
X316100398Y-145936671D01*
X316081556Y-145983308D01*
X316074443Y-145997265D01*
X316046660Y-146041382D01*
X316014390Y-146078135D01*
X315972013Y-146111123D01*
X315923775Y-146134494D01*
X315910680Y-146138990D01*
X315860548Y-146152440D01*
X315812256Y-146161141D01*
X315759053Y-146167232D01*
X315700939Y-146170713D01*
X315648758Y-146171619D01*
X315621615Y-146171264D01*
X315569698Y-146168425D01*
X315509245Y-146160883D01*
X315453730Y-146148904D01*
X315403152Y-146132490D01*
X315357512Y-146111638D01*
X315309260Y-146080761D01*
X315285611Y-146061618D01*
X315248834Y-146025327D01*
X315217924Y-145985483D01*
X315192881Y-145942086D01*
X315173706Y-145895136D01*
X315169210Y-145881021D01*
X315155760Y-145828566D01*
X315147058Y-145779828D01*
X315140968Y-145727604D01*
X315137487Y-145671894D01*
X315136581Y-145622805D01*
X315136581Y-145575178D01*
X315136740Y-145553223D01*
X315138533Y-145500706D01*
X315143313Y-145442156D01*
X315150960Y-145388484D01*
X315161476Y-145339689D01*
X315177369Y-145288925D01*
X315179997Y-145282226D01*
X315206689Y-145234282D01*
X315243455Y-145196382D01*
X315290296Y-145168527D01*
X315339547Y-145152394D01*
X315360429Y-145148970D01*
X315409889Y-145146776D01*
X315474857Y-145146776D01*
X315474857Y-145297962D01*
X315402561Y-145297962D01*
X315362624Y-145303404D01*
X315320496Y-145330935D01*
X315297964Y-145368793D01*
X315285080Y-145416420D01*
X315281066Y-145448219D01*
X315277757Y-145497649D01*
X315276776Y-145550021D01*
X315276776Y-145622805D01*
X315277364Y-145659136D01*
X315280959Y-145715480D01*
X315287821Y-145766565D01*
X315300369Y-145820924D01*
X315317622Y-145867710D01*
X315343699Y-145912722D01*
X315366514Y-145939272D01*
X315404847Y-145970252D01*
X315450637Y-145994009D01*
X315503883Y-146010544D01*
X315555457Y-146018967D01*
X315544802Y-146000775D01*
X315522172Y-145952122D01*
X315506698Y-145904460D01*
X315495862Y-145853126D01*
X315493999Y-145841210D01*
X315487748Y-145791522D01*
X315483420Y-145738597D01*
X315481211Y-145689634D01*
X315480475Y-145638193D01*
X315620670Y-145638193D01*
X315621395Y-145687712D01*
X315623997Y-145741014D01*
X315628493Y-145790806D01*
X315635813Y-145842624D01*
X315647113Y-145888356D01*
X315668481Y-145933757D01*
X315701270Y-145970119D01*
X315706815Y-145974198D01*
X315751829Y-145995276D01*
X315759011Y-145997222D01*
X315808004Y-146003580D01*
X315842116Y-146001189D01*
X315893870Y-145984833D01*
X315933221Y-145952983D01*
X315960168Y-145905639D01*
X315962422Y-145899446D01*
X315976196Y-145852119D01*
X315986464Y-145797826D01*
X315992475Y-145745745D01*
X315995910Y-145688546D01*
X315996804Y-145636971D01*
X315996524Y-145601297D01*
X315994910Y-145548858D01*
X315991378Y-145496687D01*
X315985325Y-145447195D01*
X315978888Y-145416981D01*
X315961274Y-145371277D01*
X315932812Y-145330447D01*
X315902745Y-145306747D01*
X315855392Y-145289895D01*
X315806539Y-145285506D01*
X315793321Y-145285764D01*
X315742792Y-145292833D01*
X315695653Y-145314815D01*
X315669201Y-145342426D01*
X315646212Y-145388405D01*
X315634348Y-145437425D01*
X315629018Y-145476418D01*
X315624090Y-145530604D01*
X315621525Y-145582597D01*
X315620670Y-145638193D01*
X315480475Y-145638193D01*
X315481445Y-145579629D01*
X315484356Y-145524654D01*
X315489207Y-145473269D01*
X315497320Y-145417855D01*
X315508074Y-145367327D01*
X315519995Y-145327811D01*
X315540779Y-145280413D01*
X315570839Y-145234316D01*
X315607969Y-145195869D01*
X315652865Y-145166116D01*
X315700103Y-145147844D01*
X315754241Y-145137265D01*
X315807272Y-145134320D01*
X315860885Y-145137335D01*
G37*
G36*
X316899000Y-138984906D02*
G01*
X316492091Y-139371298D01*
X316492091Y-139689058D01*
X316899000Y-139687593D01*
X316899000Y-139838779D01*
X315898581Y-139838779D01*
X315898581Y-139252352D01*
X315898718Y-139245269D01*
X316038776Y-139245269D01*
X316038776Y-139689058D01*
X316351896Y-139689058D01*
X316351896Y-139225729D01*
X316351569Y-139196320D01*
X316348959Y-139144044D01*
X316342614Y-139094082D01*
X316331526Y-139056632D01*
X316302558Y-139014948D01*
X316261589Y-138992460D01*
X316211700Y-138986127D01*
X316176041Y-138986127D01*
X316128216Y-138992298D01*
X316084450Y-139018367D01*
X316059964Y-139055675D01*
X316046592Y-139103119D01*
X316042142Y-139143608D01*
X316039539Y-139192871D01*
X316038776Y-139245269D01*
X315898718Y-139245269D01*
X315899546Y-139202442D01*
X315903469Y-139144456D01*
X315910408Y-139091360D01*
X315920365Y-139043153D01*
X315936297Y-138991759D01*
X315960374Y-138940698D01*
X315986930Y-138904757D01*
X316026463Y-138872224D01*
X316075207Y-138849813D01*
X316124317Y-138838659D01*
X316180193Y-138834941D01*
X316221958Y-138834941D01*
X316238578Y-138835269D01*
X316292601Y-138841587D01*
X316340172Y-138855946D01*
X316386639Y-138882202D01*
X316424680Y-138918960D01*
X316428827Y-138924294D01*
X316454172Y-138966221D01*
X316473066Y-139016190D01*
X316484125Y-139065420D01*
X316490445Y-139120558D01*
X316492091Y-139171019D01*
X316899000Y-138781940D01*
X316899000Y-138984906D01*
G37*
G36*
X315898581Y-138156434D02*
G01*
X315898581Y-138269763D01*
X316072726Y-138551131D01*
X316235636Y-138551131D01*
X316083961Y-138306155D01*
X316899000Y-138306155D01*
X316899000Y-138156434D01*
X315898581Y-138156434D01*
G37*
G36*
X315898581Y-137529219D02*
G01*
X315898581Y-137642547D01*
X316072726Y-137923915D01*
X316235636Y-137923915D01*
X316083961Y-137678939D01*
X316899000Y-137678939D01*
X316899000Y-137529219D01*
X315898581Y-137529219D01*
G37*
G36*
X328545557Y-156110581D02*
G01*
X328397057Y-156110581D01*
X328397057Y-156510651D01*
X328395888Y-156561185D01*
X328392382Y-156611276D01*
X328386538Y-156660922D01*
X328378357Y-156710124D01*
X328372633Y-156738041D01*
X328357826Y-156790064D01*
X328337828Y-156835005D01*
X328309127Y-156877097D01*
X328282263Y-156903637D01*
X328241798Y-156931460D01*
X328195433Y-156952347D01*
X328185787Y-156955417D01*
X328136974Y-156965935D01*
X328085368Y-156970428D01*
X328063910Y-156970804D01*
X328014531Y-156968477D01*
X327962218Y-156959880D01*
X327915609Y-156944949D01*
X327869325Y-156920128D01*
X327848976Y-156904614D01*
X327814034Y-156868711D01*
X327786877Y-156827189D01*
X327767506Y-156780050D01*
X327755920Y-156727294D01*
X327600581Y-156727294D01*
X327601802Y-156737064D01*
X327613434Y-156787855D01*
X327628941Y-156835510D01*
X327652666Y-156888555D01*
X327681972Y-156937084D01*
X327716860Y-156981097D01*
X327743219Y-157007929D01*
X327788204Y-157042957D01*
X327831032Y-157066611D01*
X327878713Y-157085232D01*
X327931248Y-157098820D01*
X327988636Y-157107376D01*
X328038042Y-157110597D01*
X328063910Y-157111000D01*
X328112800Y-157109576D01*
X328169738Y-157103793D01*
X328222037Y-157093562D01*
X328269697Y-157078882D01*
X328320764Y-157055395D01*
X328365152Y-157025502D01*
X328371900Y-157019897D01*
X328409266Y-156984294D01*
X328441498Y-156945994D01*
X328468594Y-156904999D01*
X328490556Y-156861307D01*
X328507383Y-156814919D01*
X328511851Y-156798857D01*
X328523306Y-156749178D01*
X328532390Y-156697592D01*
X328539105Y-156644100D01*
X328543450Y-156588701D01*
X328545425Y-156531397D01*
X328545557Y-156511872D01*
X328545557Y-156110581D01*
G37*
G36*
X329414168Y-156111531D02*
G01*
X329472154Y-156115391D01*
X329525251Y-156122221D01*
X329573458Y-156132021D01*
X329624852Y-156147700D01*
X329675913Y-156171397D01*
X329711853Y-156197526D01*
X329744386Y-156236410D01*
X329766798Y-156284341D01*
X329777952Y-156332623D01*
X329781670Y-156387552D01*
X329781670Y-156428585D01*
X329779106Y-156474803D01*
X329769260Y-156524124D01*
X329748439Y-156573202D01*
X329717568Y-156613162D01*
X329676645Y-156644007D01*
X329625800Y-156667419D01*
X329574423Y-156682909D01*
X329526113Y-156692591D01*
X329472805Y-156699338D01*
X329414500Y-156703152D01*
X329364259Y-156704091D01*
X328927552Y-156704091D01*
X328929018Y-157111000D01*
X328777832Y-157111000D01*
X328777832Y-156563896D01*
X328927552Y-156563896D01*
X329390881Y-156563896D01*
X329420290Y-156563569D01*
X329472566Y-156560959D01*
X329522528Y-156554614D01*
X329559979Y-156543526D01*
X329601663Y-156514558D01*
X329624151Y-156473589D01*
X329630483Y-156423700D01*
X329630483Y-156388041D01*
X329624312Y-156340216D01*
X329598243Y-156296450D01*
X329560935Y-156271964D01*
X329513491Y-156258592D01*
X329473002Y-156254142D01*
X329423739Y-156251539D01*
X329371342Y-156250776D01*
X328927552Y-156250776D01*
X328927552Y-156563896D01*
X328777832Y-156563896D01*
X328777832Y-156110581D01*
X329364259Y-156110581D01*
X329414168Y-156111531D01*
G37*
G36*
X330407420Y-156110581D02*
G01*
X330294091Y-156110581D01*
X330012723Y-156284726D01*
X330012723Y-156447636D01*
X330257699Y-156295961D01*
X330257699Y-157111000D01*
X330407420Y-157111000D01*
X330407420Y-156110581D01*
G37*
G36*
X305469000Y-146583901D02*
G01*
X305062091Y-146970293D01*
X305062091Y-147288053D01*
X305469000Y-147286588D01*
X305469000Y-147437774D01*
X304468581Y-147437774D01*
X304468581Y-146851347D01*
X304468718Y-146844264D01*
X304608776Y-146844264D01*
X304608776Y-147288053D01*
X304921896Y-147288053D01*
X304921896Y-146824724D01*
X304921569Y-146795315D01*
X304918959Y-146743039D01*
X304912614Y-146693077D01*
X304901526Y-146655627D01*
X304872558Y-146613943D01*
X304831589Y-146591455D01*
X304781700Y-146585122D01*
X304746041Y-146585122D01*
X304698216Y-146591293D01*
X304654450Y-146617362D01*
X304629964Y-146654670D01*
X304616592Y-146702114D01*
X304612142Y-146742603D01*
X304609539Y-146791866D01*
X304608776Y-146844264D01*
X304468718Y-146844264D01*
X304469546Y-146801437D01*
X304473469Y-146743451D01*
X304480408Y-146690355D01*
X304490365Y-146642148D01*
X304506297Y-146590754D01*
X304530374Y-146539693D01*
X304556930Y-146503752D01*
X304596463Y-146471219D01*
X304645207Y-146448808D01*
X304694317Y-146437654D01*
X304750193Y-146433936D01*
X304791958Y-146433936D01*
X304808578Y-146434264D01*
X304862601Y-146440582D01*
X304910172Y-146454941D01*
X304956639Y-146481197D01*
X304994680Y-146517955D01*
X304998827Y-146523289D01*
X305024172Y-146565216D01*
X305043066Y-146615185D01*
X305054125Y-146664415D01*
X305060445Y-146719553D01*
X305062091Y-146770014D01*
X305469000Y-146380935D01*
X305469000Y-146583901D01*
G37*
G36*
X305469000Y-145585925D02*
G01*
X305468018Y-145529899D01*
X305465073Y-145478080D01*
X305459302Y-145424011D01*
X305450968Y-145375437D01*
X305448483Y-145364152D01*
X305432845Y-145316732D01*
X305406178Y-145270116D01*
X305369733Y-145229893D01*
X305356892Y-145219072D01*
X305313844Y-145192539D01*
X305264690Y-145175833D01*
X305215231Y-145169200D01*
X305197646Y-145168758D01*
X305145814Y-145170749D01*
X305095525Y-145177464D01*
X305062091Y-145185611D01*
X305015555Y-145208117D01*
X304977031Y-145242914D01*
X304963417Y-145259860D01*
X304929364Y-145223110D01*
X304887103Y-145195435D01*
X304870605Y-145188542D01*
X304820823Y-145175018D01*
X304770411Y-145169241D01*
X304749949Y-145168758D01*
X304699451Y-145171200D01*
X304655915Y-145178528D01*
X304608575Y-145197534D01*
X304576780Y-145219072D01*
X304541441Y-145254005D01*
X304514406Y-145294904D01*
X304504729Y-145315792D01*
X304488382Y-145363233D01*
X304477839Y-145412287D01*
X304474931Y-145435471D01*
X304471061Y-145485823D01*
X304469083Y-145538376D01*
X304468581Y-145585925D01*
X304468581Y-145732959D01*
X304469470Y-145782204D01*
X304473082Y-145839554D01*
X304479473Y-145892228D01*
X304488643Y-145940228D01*
X304503315Y-145991656D01*
X304525489Y-146043147D01*
X304554791Y-146084831D01*
X304593116Y-146116277D01*
X304640463Y-146137485D01*
X304696833Y-146148454D01*
X304733096Y-146150126D01*
X304806369Y-146150126D01*
X304806369Y-145998939D01*
X304799530Y-145998939D01*
X304741889Y-146000405D01*
X304703542Y-145997474D01*
X304657199Y-145977098D01*
X304628996Y-145934290D01*
X304626606Y-145926888D01*
X304615741Y-145875436D01*
X304610517Y-145823640D01*
X304608794Y-145770089D01*
X304608776Y-145763733D01*
X304608776Y-145570537D01*
X304609516Y-145520601D01*
X304612355Y-145469493D01*
X304616348Y-145434250D01*
X304629838Y-145385337D01*
X304650786Y-145351452D01*
X304693249Y-145325144D01*
X304734806Y-145319944D01*
X304754101Y-145319944D01*
X304802705Y-145323608D01*
X304839097Y-145339484D01*
X304869606Y-145378647D01*
X304882328Y-145423747D01*
X304888021Y-145475809D01*
X304890571Y-145526787D01*
X304891121Y-145567851D01*
X304891121Y-145998939D01*
X305031316Y-145998939D01*
X305031316Y-145590077D01*
X305031316Y-145539529D01*
X305031316Y-145490035D01*
X305031316Y-145487983D01*
X305033881Y-145438341D01*
X305041575Y-145401277D01*
X305065302Y-145357554D01*
X305082852Y-145340949D01*
X305129184Y-145322426D01*
X305161009Y-145319944D01*
X305181526Y-145319944D01*
X305231314Y-145323164D01*
X305234038Y-145323608D01*
X305274338Y-145339484D01*
X305305988Y-145378647D01*
X305319279Y-145423747D01*
X305325446Y-145475809D01*
X305328209Y-145526787D01*
X305328804Y-145567851D01*
X305328804Y-145755429D01*
X305328014Y-145805381D01*
X305325096Y-145854715D01*
X305323187Y-145872910D01*
X305311569Y-145921365D01*
X305295587Y-145954243D01*
X305259447Y-145987502D01*
X305229153Y-145997474D01*
X305190318Y-146000405D01*
X305120953Y-145998939D01*
X305120953Y-146150126D01*
X305174931Y-146150126D01*
X305224696Y-146149088D01*
X305260172Y-146145973D01*
X305306928Y-146131608D01*
X305350280Y-146106152D01*
X305358113Y-146099812D01*
X305393404Y-146065684D01*
X305423553Y-146021510D01*
X305442530Y-145976125D01*
X305448483Y-145954243D01*
X305458401Y-145900499D01*
X305464492Y-145847147D01*
X305467717Y-145796157D01*
X305468979Y-145741146D01*
X305469000Y-145732959D01*
X305469000Y-145585925D01*
G37*
G36*
X312581000Y-146600998D02*
G01*
X312174091Y-146987390D01*
X312174091Y-147305150D01*
X312581000Y-147303685D01*
X312581000Y-147454871D01*
X311580581Y-147454871D01*
X311580581Y-146868444D01*
X311580718Y-146861361D01*
X311720776Y-146861361D01*
X311720776Y-147305150D01*
X312033896Y-147305150D01*
X312033896Y-146841821D01*
X312033569Y-146812412D01*
X312030959Y-146760136D01*
X312024614Y-146710174D01*
X312013526Y-146672724D01*
X311984558Y-146631040D01*
X311943589Y-146608552D01*
X311893700Y-146602219D01*
X311858041Y-146602219D01*
X311810216Y-146608390D01*
X311766450Y-146634459D01*
X311741964Y-146671767D01*
X311728592Y-146719211D01*
X311724142Y-146759700D01*
X311721539Y-146808963D01*
X311720776Y-146861361D01*
X311580718Y-146861361D01*
X311581546Y-146818534D01*
X311585469Y-146760548D01*
X311592408Y-146707452D01*
X311602365Y-146659245D01*
X311618297Y-146607851D01*
X311642374Y-146556790D01*
X311668930Y-146520849D01*
X311708463Y-146488316D01*
X311757207Y-146465905D01*
X311806317Y-146454751D01*
X311862193Y-146451033D01*
X311903958Y-146451033D01*
X311920578Y-146451361D01*
X311974601Y-146457679D01*
X312022172Y-146472038D01*
X312068639Y-146498294D01*
X312106680Y-146535052D01*
X312110827Y-146540386D01*
X312136172Y-146582313D01*
X312155066Y-146632282D01*
X312166125Y-146681512D01*
X312172445Y-146736650D01*
X312174091Y-146787111D01*
X312581000Y-146398032D01*
X312581000Y-146600998D01*
G37*
G36*
X312342435Y-145153367D02*
G01*
X312391894Y-145164205D01*
X312439362Y-145186762D01*
X312478173Y-145220293D01*
X312503054Y-145252450D01*
X312529342Y-145299428D01*
X312547325Y-145346506D01*
X312560239Y-145398590D01*
X312568328Y-145448435D01*
X312574431Y-145502441D01*
X312578080Y-145552044D01*
X312580270Y-145604703D01*
X312581000Y-145660419D01*
X312580270Y-145715222D01*
X312578080Y-145767157D01*
X312574431Y-145816224D01*
X312568328Y-145869844D01*
X312560239Y-145919560D01*
X312551002Y-145959102D01*
X312534173Y-146007470D01*
X312509072Y-146055935D01*
X312477441Y-146098102D01*
X312447786Y-146125035D01*
X312402275Y-146149942D01*
X312354846Y-146162903D01*
X312300853Y-146167223D01*
X312276816Y-146166192D01*
X312226975Y-146156890D01*
X312180197Y-146137913D01*
X312156615Y-146123478D01*
X312117533Y-146088111D01*
X312086896Y-146045590D01*
X312068983Y-146069298D01*
X312033978Y-146103416D01*
X311989932Y-146131075D01*
X311967870Y-146140537D01*
X311918891Y-146154323D01*
X311868299Y-146158918D01*
X311826259Y-146156506D01*
X311775334Y-146145782D01*
X311725050Y-146123463D01*
X311682186Y-146090286D01*
X311665451Y-146071949D01*
X311636356Y-146028199D01*
X311615681Y-145982179D01*
X311599471Y-145928936D01*
X311589129Y-145877551D01*
X311582993Y-145832632D01*
X311580581Y-145781075D01*
X311580581Y-145761875D01*
X311580581Y-145710931D01*
X311580581Y-145660419D01*
X311580581Y-145642940D01*
X311580581Y-145629644D01*
X311720776Y-145629644D01*
X311720776Y-145682889D01*
X311721234Y-145728898D01*
X311723359Y-145782490D01*
X311728103Y-145831389D01*
X311729035Y-145838739D01*
X311738721Y-145891534D01*
X311756409Y-145942501D01*
X311788676Y-145983796D01*
X311820666Y-146000159D01*
X311869764Y-146007732D01*
X311903287Y-146004194D01*
X311949387Y-145982575D01*
X311981965Y-145943746D01*
X312000678Y-145897090D01*
X312005885Y-145877921D01*
X312015293Y-145828697D01*
X312018752Y-145776678D01*
X312018752Y-145544403D01*
X312158948Y-145544403D01*
X312158948Y-145776678D01*
X312159778Y-145803746D01*
X312165722Y-145854760D01*
X312176289Y-145902708D01*
X312194268Y-145951601D01*
X312225626Y-145992345D01*
X312252023Y-146007684D01*
X312300609Y-146016036D01*
X312338655Y-146010756D01*
X312381209Y-145984040D01*
X312408161Y-145942685D01*
X312425417Y-145894403D01*
X312428934Y-145877070D01*
X312436007Y-145828610D01*
X312440804Y-145778144D01*
X312440804Y-145764579D01*
X312440804Y-145713152D01*
X312440804Y-145660419D01*
X312440804Y-145641730D01*
X312440804Y-145592214D01*
X312440804Y-145541472D01*
X312440629Y-145524303D01*
X312437633Y-145473404D01*
X312429569Y-145423992D01*
X312417909Y-145388881D01*
X312392977Y-145345081D01*
X312350950Y-145311755D01*
X312302807Y-145302114D01*
X312270910Y-145305652D01*
X312226603Y-145327271D01*
X312222601Y-145330395D01*
X312193280Y-145370043D01*
X312176533Y-145416176D01*
X312169681Y-145444601D01*
X312161850Y-145492841D01*
X312158948Y-145544403D01*
X312018752Y-145544403D01*
X312018117Y-145521712D01*
X312012381Y-145472075D01*
X312000678Y-145421793D01*
X311981965Y-145374636D01*
X311949387Y-145335576D01*
X311919515Y-145319288D01*
X311869764Y-145310419D01*
X311835349Y-145313956D01*
X311788676Y-145335576D01*
X311765600Y-145360872D01*
X311744713Y-145407792D01*
X311731982Y-145462930D01*
X311725020Y-145519399D01*
X311721837Y-145571461D01*
X311720776Y-145629644D01*
X311580581Y-145629644D01*
X311580581Y-145590984D01*
X311580581Y-145540251D01*
X311582137Y-145494549D01*
X311587664Y-145443531D01*
X311592431Y-145416913D01*
X311604464Y-145367734D01*
X311622713Y-145317196D01*
X311649121Y-145268455D01*
X311681453Y-145229330D01*
X311724672Y-145196153D01*
X311769220Y-145175778D01*
X311819537Y-145163982D01*
X311868299Y-145160698D01*
X311891849Y-145161685D01*
X311941697Y-145170600D01*
X311989932Y-145188786D01*
X312014440Y-145202382D01*
X312055057Y-145235135D01*
X312086896Y-145274027D01*
X312104133Y-145247595D01*
X312137816Y-145210059D01*
X312180197Y-145180482D01*
X312201406Y-145170438D01*
X312249598Y-145155806D01*
X312300853Y-145150928D01*
X312342435Y-145153367D01*
G37*
D12*
%TO.C,R1*%
X319009500Y-135181742D02*
X319009500Y-135656258D01*
X320054500Y-135181742D02*
X320054500Y-135656258D01*
%TO.C,D1*%
X330989000Y-156782500D02*
X330989000Y-159067500D01*
X332459000Y-156782500D02*
X330989000Y-156782500D01*
X332459000Y-159067500D02*
X332459000Y-156782500D01*
D13*
%TO.C,C5*%
X319493900Y-145161000D02*
X319493900Y-145923000D01*
X319874900Y-145542000D02*
X319112900Y-145542000D01*
D14*
X321062000Y-143992000D02*
X322962000Y-142042000D01*
D13*
X321081400Y-142011400D02*
X321081400Y-144663160D01*
X321081400Y-146420840D02*
X321081400Y-149072600D01*
X321081400Y-149072600D02*
X328142600Y-149072600D01*
D14*
X321112000Y-147192000D02*
X323012000Y-149042000D01*
D13*
X328142600Y-142011400D02*
X321081400Y-142011400D01*
X328142600Y-144663160D02*
X328142600Y-142011400D01*
X328142600Y-149072600D02*
X328142600Y-146420840D01*
D12*
%TO.C,R7*%
X310676258Y-148829500D02*
X310201742Y-148829500D01*
X310676258Y-149874500D02*
X310201742Y-149874500D01*
%TO.C,C2*%
X317244000Y-135522580D02*
X317244000Y-135241420D01*
X318264000Y-135522580D02*
X318264000Y-135241420D01*
%TO.C,J2*%
X287856030Y-154541913D02*
X294532446Y-152372612D01*
X290352887Y-162226449D02*
X287856030Y-154541913D01*
X291993187Y-152356500D02*
X292563820Y-152171090D01*
X292463914Y-152834428D02*
X291993187Y-152356500D01*
X292563820Y-152171090D02*
X292463914Y-152834428D01*
X294532446Y-152372612D02*
X294903267Y-153513881D01*
X294903267Y-153513881D02*
X296520062Y-152988551D01*
X296520062Y-152988551D02*
X298275280Y-158390555D01*
X296658484Y-158915881D02*
X297029303Y-160057150D01*
X297029303Y-160057150D02*
X290352887Y-162226449D01*
X298275280Y-158390555D02*
X296658484Y-158915881D01*
D15*
%TO.C,U3*%
X303130517Y-154234833D02*
X303130517Y-171559833D01*
X305035517Y-173464833D02*
X319005517Y-173464833D01*
X307515517Y-167581833D02*
X316514517Y-167581833D01*
X307515517Y-174933833D02*
X307515517Y-167581833D01*
X314560517Y-162923833D02*
X314560517Y-163685832D01*
X314941517Y-163304833D02*
X314179517Y-163304833D01*
X314941518Y-165209833D02*
X314179517Y-165209833D01*
X316510517Y-174933833D02*
X307515517Y-174933833D01*
X316514517Y-167581833D02*
X316514517Y-174934833D01*
X319005517Y-152329833D02*
X305035517Y-152329833D01*
X320910517Y-154234833D02*
X320910517Y-171559833D01*
X303130517Y-154234833D02*
G75*
G02*
X305035517Y-152329833I1905000J0D01*
G01*
X305035517Y-173464833D02*
G75*
G02*
X303130517Y-171559833I0J1905000D01*
G01*
X319005517Y-152329833D02*
G75*
G02*
X320910517Y-154234833I0J-1905000D01*
G01*
X320910517Y-171559833D02*
G75*
G02*
X319005517Y-173464833I-1905001J1D01*
G01*
D16*
X321926517Y-170670833D02*
G75*
G02*
X321672517Y-170670833I-127000J0D01*
G01*
X321672517Y-170670833D02*
G75*
G02*
X321926517Y-170670833I127000J0D01*
G01*
D12*
%TO.C,C4*%
X313549420Y-148842000D02*
X313830580Y-148842000D01*
X313549420Y-149862000D02*
X313830580Y-149862000D01*
%TO.C,J1*%
X305756002Y-128972000D02*
X305756001Y-131632001D01*
X310896000Y-128971999D02*
X305756002Y-128972000D01*
X310896000Y-128971999D02*
X310896000Y-131632000D01*
X310896000Y-131632000D02*
X305756001Y-131632001D01*
X312166000Y-128972000D02*
X313496000Y-128972000D01*
X313496000Y-128972000D02*
X313496000Y-130302000D01*
D15*
%TO.C,D2*%
X300394000Y-159314999D02*
X300394000Y-156464999D01*
X302094000Y-156464999D02*
X302094000Y-159314999D01*
D17*
X301344000Y-154889999D02*
G75*
G02*
X301144000Y-154889999I-100000J0D01*
G01*
X301144000Y-154889999D02*
G75*
G02*
X301344000Y-154889999I100000J0D01*
G01*
D12*
%TO.C,J4*%
X330664000Y-149114000D02*
X330664000Y-143054000D01*
X332784000Y-143054000D02*
X330664000Y-143054000D01*
X332784000Y-149114000D02*
X330664000Y-149114000D01*
X332784000Y-149114000D02*
X332784000Y-143054000D01*
X332784000Y-150114000D02*
X332784000Y-151174000D01*
X332784000Y-151174000D02*
X331724000Y-151174000D01*
D15*
%TO.C,VR1*%
X297216000Y-148507000D02*
X298046000Y-148507000D01*
X297216000Y-151007000D02*
X297216000Y-148507000D01*
X297216000Y-151007000D02*
X298046000Y-151007000D01*
X301716000Y-148507000D02*
X300886000Y-148507000D01*
X301716000Y-151007000D02*
X300886000Y-151007000D01*
X301716000Y-151007000D02*
X301716000Y-148507000D01*
D17*
X301066000Y-145952000D02*
G75*
G02*
X300866000Y-145952000I-100000J0D01*
G01*
X300866000Y-145952000D02*
G75*
G02*
X301066000Y-145952000I100000J0D01*
G01*
D12*
%TO.C,R4*%
X306309500Y-143747258D02*
X306309500Y-143272742D01*
X307354500Y-143747258D02*
X307354500Y-143272742D01*
%TO.C,J5*%
X316104468Y-129197384D02*
X315379385Y-131189533D01*
X321073922Y-133262175D02*
X315379385Y-131189533D01*
X321799005Y-131270026D02*
X316104468Y-129197384D01*
X321799005Y-131270026D02*
X321073922Y-133262175D01*
X322738697Y-131612047D02*
X323734771Y-131974588D01*
X323734771Y-131974588D02*
X323372230Y-132970662D01*
D18*
%TO.C,U1*%
X305555000Y-135824500D02*
X315407000Y-135824500D01*
X305555000Y-139367500D02*
X305555000Y-135824500D01*
X315407000Y-135824500D02*
X315407000Y-139367500D01*
X315407000Y-139367500D02*
X305555000Y-139367500D01*
D10*
X314856000Y-136577000D02*
G75*
G02*
X314556000Y-136577000I-150000J0D01*
G01*
X314556000Y-136577000D02*
G75*
G02*
X314856000Y-136577000I150000J0D01*
G01*
X315480500Y-134730000D02*
G75*
G02*
X315179500Y-134730000I-150500J0D01*
G01*
X315179500Y-134730000D02*
G75*
G02*
X315480500Y-134730000I150500J0D01*
G01*
D12*
%TO.C,R6*%
X309865500Y-143222742D02*
X309865500Y-143697258D01*
X310910500Y-143222742D02*
X310910500Y-143697258D01*
%TO.C,JP3*%
X323757000Y-157496000D02*
X326557000Y-157496000D01*
X323757000Y-159496000D02*
X323757000Y-157496000D01*
X326557000Y-157496000D02*
X326557000Y-159496000D01*
X326557000Y-159496000D02*
X323757000Y-159496000D01*
%TO.C,C1*%
X316990000Y-143369420D02*
X316990000Y-143650580D01*
X318010000Y-143369420D02*
X318010000Y-143650580D01*
%TO.C,R10*%
X319009500Y-138921258D02*
X319009500Y-138446742D01*
X320054500Y-138921258D02*
X320054500Y-138446742D01*
%TO.C,R9*%
X313361500Y-143222742D02*
X313361500Y-143697258D01*
X314406500Y-143222742D02*
X314406500Y-143697258D01*
%TO.C,R2*%
X330470742Y-160259500D02*
X330945258Y-160259500D01*
X330470742Y-161304500D02*
X330945258Y-161304500D01*
%TO.C,JP2*%
X323757000Y-153686000D02*
X326557000Y-153686000D01*
X323757000Y-155686000D02*
X323757000Y-153686000D01*
X326557000Y-153686000D02*
X326557000Y-155686000D01*
X326557000Y-155686000D02*
X323757000Y-155686000D01*
%TO.C,C3*%
X308100000Y-143650581D02*
X308100000Y-143369419D01*
X309120000Y-143650581D02*
X309120000Y-143369419D01*
%TO.C,R5*%
X310201742Y-150480500D02*
X310676258Y-150480500D01*
X310201742Y-151525500D02*
X310676258Y-151525500D01*
%TO.C,J3*%
X290770000Y-147126000D02*
X290770000Y-141926000D01*
X293370000Y-144526000D02*
X293370000Y-147126000D01*
X293370000Y-147126000D02*
X290770000Y-147126000D01*
X295970000Y-141926000D02*
X290770000Y-141926000D01*
X295970000Y-144526000D02*
X293370000Y-144526000D01*
X295970000Y-144526000D02*
X295970000Y-141926000D01*
X295970000Y-145796000D02*
X295970000Y-147126000D01*
X295970000Y-147126000D02*
X294640000Y-147126000D01*
%TO.C,C6*%
X315212000Y-143382420D02*
X315212000Y-143663580D01*
X316232000Y-143382420D02*
X316232000Y-143663580D01*
%TO.C,R11*%
X317231500Y-138921258D02*
X317231500Y-138446742D01*
X318276500Y-138921258D02*
X318276500Y-138446742D01*
%TO.C,JP1*%
X327604000Y-157496000D02*
X330404000Y-157496000D01*
X327604000Y-159496000D02*
X327604000Y-157496000D01*
X330404000Y-157496000D02*
X330404000Y-159496000D01*
X330404000Y-159496000D02*
X327604000Y-159496000D01*
%TO.C,R3*%
X304531500Y-143272742D02*
X304531500Y-143747258D01*
X305576500Y-143272742D02*
X305576500Y-143747258D01*
%TO.C,R8*%
X311643500Y-143222742D02*
X311643500Y-143697258D01*
X312688500Y-143222742D02*
X312688500Y-143697258D01*
%TD*%
%LPC*%
D19*
%TO.C,VR1*%
X298536000Y-148172000D02*
X297396000Y-148172000D01*
X297396000Y-146532000D01*
X298536000Y-146532000D01*
X298536000Y-148172000D01*
G36*
X298536000Y-148172000D02*
G01*
X297396000Y-148172000D01*
X297396000Y-146532000D01*
X298536000Y-146532000D01*
X298536000Y-148172000D01*
G37*
X301536000Y-148172000D02*
X300396000Y-148172000D01*
X300396000Y-146532000D01*
X301536000Y-146532000D01*
X301536000Y-148172000D01*
G36*
X301536000Y-148172000D02*
G01*
X300396000Y-148172000D01*
X300396000Y-146532000D01*
X301536000Y-146532000D01*
X301536000Y-148172000D01*
G37*
X300036000Y-148367000D02*
X300636000Y-148967000D01*
X300636000Y-151237000D01*
X299701000Y-152172000D01*
X299231000Y-152172000D01*
X298296000Y-151237000D01*
X298296000Y-148967000D01*
X298896000Y-148367000D01*
X298896000Y-146532000D01*
X300036000Y-146532000D01*
X300036000Y-148367000D01*
G36*
X300036000Y-148367000D02*
G01*
X300636000Y-148967000D01*
X300636000Y-151237000D01*
X299701000Y-152172000D01*
X299231000Y-152172000D01*
X298296000Y-151237000D01*
X298296000Y-148967000D01*
X298896000Y-148367000D01*
X298896000Y-146532000D01*
X300036000Y-146532000D01*
X300036000Y-148367000D01*
G37*
%TD*%
D20*
%TO.C,R1*%
X319532000Y-134594000D03*
X319532000Y-136244000D03*
%TD*%
D21*
%TO.C,D1*%
X331724000Y-157480000D03*
X331724000Y-159055000D03*
%TD*%
D22*
%TO.C,C5*%
X321957700Y-145542000D03*
X327266300Y-145542000D03*
%TD*%
D23*
%TO.C,R7*%
X311264000Y-149352000D03*
X309614000Y-149352000D03*
%TD*%
D24*
%TO.C,C2*%
X317754000Y-136157000D03*
X317754000Y-134607000D03*
%TD*%
D25*
%TO.C,J2*%
X293162292Y-154983815D03*
D26*
X294386000Y-158750000D03*
%TD*%
D27*
%TO.C,U3*%
X320075517Y-170629833D03*
X320075517Y-168089833D03*
X320075517Y-165549833D03*
X320075517Y-163009833D03*
X320075517Y-160469833D03*
X320075517Y-157929833D03*
X320075517Y-155389833D03*
X303910517Y-155389833D03*
X303910517Y-157929833D03*
X303910517Y-160469833D03*
X303910517Y-163009833D03*
X303910517Y-165549833D03*
X303910517Y-168089833D03*
X303910517Y-170629833D03*
D28*
X316465517Y-163304833D03*
X316465516Y-165209833D03*
%TD*%
D29*
%TO.C,C4*%
X312915000Y-149352000D03*
X314465000Y-149352000D03*
%TD*%
D30*
%TO.C,J1*%
X312166000Y-130302000D03*
D31*
X309626001Y-130302000D03*
X307086001Y-130302000D03*
%TD*%
D32*
%TO.C,D2*%
X301244000Y-159569998D03*
X301244000Y-156210000D03*
%TD*%
D33*
%TO.C,J4*%
X331724000Y-150114000D03*
D34*
X331724000Y-148113999D03*
X331724000Y-146114000D03*
X331724000Y-144114000D03*
%TD*%
D35*
%TO.C,R4*%
X306832000Y-144335000D03*
X306832000Y-142685000D03*
%TD*%
D36*
%TO.C,J5*%
X322376156Y-132608121D03*
D37*
X320496771Y-131924081D03*
X318617386Y-131240039D03*
X316738000Y-130556000D03*
%TD*%
D38*
%TO.C,U1*%
X314706000Y-134730000D03*
X314056000Y-134730000D03*
X313406000Y-134730000D03*
X312756000Y-134730000D03*
X312106000Y-134729999D03*
X311456000Y-134730000D03*
X310806000Y-134730000D03*
X310156000Y-134730000D03*
X309506000Y-134730000D03*
X308856000Y-134729999D03*
X308206000Y-134730000D03*
X307556000Y-134730000D03*
X306906000Y-134730000D03*
X306256000Y-134730000D03*
X306256000Y-140462000D03*
X306906000Y-140462000D03*
X307556000Y-140462000D03*
X308206000Y-140462000D03*
X308856000Y-140462001D03*
X309506000Y-140462000D03*
X310156000Y-140462000D03*
X310806000Y-140462000D03*
X311456000Y-140462000D03*
X312106000Y-140462001D03*
X312756000Y-140462000D03*
X313406000Y-140462000D03*
X314056000Y-140462000D03*
X314706000Y-140462000D03*
D39*
X310481000Y-137596000D03*
%TD*%
D20*
%TO.C,R6*%
X310388000Y-142635000D03*
X310388000Y-144285000D03*
%TD*%
D40*
%TO.C,JP3*%
X324432000Y-158496000D03*
D41*
X325882000Y-158496000D03*
%TD*%
D42*
%TO.C,H3*%
X298505005Y-137871616D03*
%TD*%
%TO.C,H4*%
X325375062Y-137871616D03*
%TD*%
D43*
%TO.C,C1*%
X317500000Y-142735000D03*
X317500000Y-144285000D03*
%TD*%
D35*
%TO.C,R10*%
X319532000Y-139509000D03*
X319532000Y-137859000D03*
%TD*%
D20*
%TO.C,R9*%
X313884000Y-142635000D03*
X313884000Y-144285000D03*
%TD*%
D44*
%TO.C,R2*%
X329883000Y-160782000D03*
X331533000Y-160782000D03*
%TD*%
D40*
%TO.C,JP2*%
X324432000Y-154686000D03*
D41*
X325882000Y-154686000D03*
%TD*%
D42*
%TO.C,H2*%
X325375062Y-164741673D03*
%TD*%
%TO.C,H1*%
X298505005Y-164741673D03*
%TD*%
D24*
%TO.C,C3*%
X308610000Y-144285000D03*
X308610000Y-142735000D03*
%TD*%
D44*
%TO.C,R5*%
X309614000Y-151003000D03*
X311264000Y-151003000D03*
%TD*%
D30*
%TO.C,J3*%
X294640000Y-145796000D03*
D31*
X292100000Y-145796000D03*
X294640000Y-143256000D03*
X292100000Y-143256000D03*
%TD*%
D43*
%TO.C,C6*%
X315722000Y-142748000D03*
X315722000Y-144298000D03*
%TD*%
D35*
%TO.C,R11*%
X317754000Y-139509000D03*
X317754000Y-137859000D03*
%TD*%
D40*
%TO.C,JP1*%
X328279000Y-158496000D03*
D41*
X329729000Y-158496000D03*
%TD*%
D20*
%TO.C,R3*%
X305054000Y-142685000D03*
X305054000Y-144335000D03*
%TD*%
%TO.C,R8*%
X312166000Y-142635000D03*
X312166000Y-144285000D03*
%TD*%
%LPD*%
M02*
