%TF.GenerationSoftware,KiCad,Pcbnew,8.0.4*%
%TF.CreationDate,2025-06-19T10:42:41-04:00*%
%TF.ProjectId,foc_pcb,666f635f-7063-4622-9e6b-696361645f70,2.0*%
%TF.SameCoordinates,Original*%
%TF.FileFunction,Copper,L1,Top*%
%TF.FilePolarity,Positive*%
%FSLAX46Y46*%
G04 Gerber Fmt 4.6, Leading zero omitted, Abs format (unit mm)*
G04 Created by KiCad (PCBNEW 8.0.4) date 2025-06-19 10:42:41*
%MOMM*%
%LPD*%
G01*
G04 APERTURE LIST*
G04 Aperture macros list*
%AMRoundRect*
0 Rectangle with rounded corners*
0 $1 Rounding radius*
0 $2 $3 $4 $5 $6 $7 $8 $9 X,Y pos of 4 corners*
0 Add a 4 corners polygon primitive as box body*
4,1,4,$2,$3,$4,$5,$6,$7,$8,$9,$2,$3,0*
0 Add four circle primitives for the rounded corners*
1,1,$1+$1,$2,$3*
1,1,$1+$1,$4,$5*
1,1,$1+$1,$6,$7*
1,1,$1+$1,$8,$9*
0 Add four rect primitives between the rounded corners*
20,1,$1+$1,$2,$3,$4,$5,0*
20,1,$1+$1,$4,$5,$6,$7,0*
20,1,$1+$1,$6,$7,$8,$9,0*
20,1,$1+$1,$8,$9,$2,$3,0*%
%AMHorizOval*
0 Thick line with rounded ends*
0 $1 width*
0 $2 $3 position (X,Y) of the first rounded end (center of the circle)*
0 $4 $5 position (X,Y) of the second rounded end (center of the circle)*
0 Add line between two ends*
20,1,$1,$2,$3,$4,$5,0*
0 Add two circle primitives to create the rounded ends*
1,1,$1,$2,$3*
1,1,$1,$4,$5*%
%AMRotRect*
0 Rectangle, with rotation*
0 The origin of the aperture is its center*
0 $1 length*
0 $2 width*
0 $3 Rotation angle, in degrees counterclockwise*
0 Add horizontal line*
21,1,$1,$2,0,0,$3*%
%AMFreePoly0*
4,1,21,3.853536,1.103536,4.753536,0.203536,4.755000,0.200000,4.755000,-0.200000,4.753536,-0.203536,3.853536,-1.103536,3.850000,-1.105000,1.650000,-1.105000,1.646464,-1.103536,1.047928,-0.505000,-0.750000,-0.505000,-0.753536,-0.503536,-0.755000,-0.500000,-0.755000,0.500000,-0.753536,0.503536,-0.750000,0.505000,1.047928,0.505000,1.646464,1.103536,1.650000,1.105000,3.850000,1.105000,
3.853536,1.103536,3.853536,1.103536,$1*%
%AMFreePoly1*
4,1,6,1.000000,0.000000,0.500000,-0.750000,-0.500000,-0.750000,-0.500000,0.750000,0.500000,0.750000,1.000000,0.000000,1.000000,0.000000,$1*%
%AMFreePoly2*
4,1,6,0.500000,-0.750000,-0.650000,-0.750000,-0.150000,0.000000,-0.650000,0.750000,0.500000,0.750000,0.500000,-0.750000,0.500000,-0.750000,$1*%
G04 Aperture macros list end*
%TA.AperFunction,SMDPad,CuDef*%
%ADD10RoundRect,0.200000X-0.275000X0.200000X-0.275000X-0.200000X0.275000X-0.200000X0.275000X0.200000X0*%
%TD*%
%TA.AperFunction,SMDPad,CuDef*%
%ADD11RoundRect,0.218750X-0.256250X0.218750X-0.256250X-0.218750X0.256250X-0.218750X0.256250X0.218750X0*%
%TD*%
%TA.AperFunction,SMDPad,CuDef*%
%ADD12R,2.692400X1.092200*%
%TD*%
%TA.AperFunction,SMDPad,CuDef*%
%ADD13RoundRect,0.200000X0.200000X0.275000X-0.200000X0.275000X-0.200000X-0.275000X0.200000X-0.275000X0*%
%TD*%
%TA.AperFunction,SMDPad,CuDef*%
%ADD14RoundRect,0.225000X0.250000X-0.225000X0.250000X0.225000X-0.250000X0.225000X-0.250000X-0.225000X0*%
%TD*%
%TA.AperFunction,ComponentPad*%
%ADD15RoundRect,0.250001X-1.386080X0.706243X-0.706243X-1.386080X1.386080X-0.706243X0.706243X1.386080X0*%
%TD*%
%TA.AperFunction,ComponentPad*%
%ADD16C,2.700000*%
%TD*%
%TA.AperFunction,SMDPad,CuDef*%
%ADD17RoundRect,0.500000X0.875000X0.500000X-0.875000X0.500000X-0.875000X-0.500000X0.875000X-0.500000X0*%
%TD*%
%TA.AperFunction,SMDPad,CuDef*%
%ADD18RoundRect,0.317500X-0.825500X0.317500X-0.825500X-0.317500X0.825500X-0.317500X0.825500X0.317500X0*%
%TD*%
%TA.AperFunction,SMDPad,CuDef*%
%ADD19RoundRect,0.225000X-0.225000X-0.250000X0.225000X-0.250000X0.225000X0.250000X-0.225000X0.250000X0*%
%TD*%
%TA.AperFunction,ComponentPad*%
%ADD20R,1.700000X1.700000*%
%TD*%
%TA.AperFunction,ComponentPad*%
%ADD21O,1.700000X1.700000*%
%TD*%
%TA.AperFunction,SMDPad,CuDef*%
%ADD22R,0.730000X1.210000*%
%TD*%
%TA.AperFunction,ComponentPad*%
%ADD23R,1.350000X1.350000*%
%TD*%
%TA.AperFunction,ComponentPad*%
%ADD24O,1.350000X1.350000*%
%TD*%
%TA.AperFunction,SMDPad,CuDef*%
%ADD25R,1.000000X1.500000*%
%TD*%
%TA.AperFunction,SMDPad,CuDef*%
%ADD26FreePoly0,270.000000*%
%TD*%
%TA.AperFunction,SMDPad,CuDef*%
%ADD27RoundRect,0.200000X0.275000X-0.200000X0.275000X0.200000X-0.275000X0.200000X-0.275000X-0.200000X0*%
%TD*%
%TA.AperFunction,ComponentPad*%
%ADD28RotRect,1.350000X1.350000X250.000000*%
%TD*%
%TA.AperFunction,ComponentPad*%
%ADD29HorizOval,1.350000X0.000000X0.000000X0.000000X0.000000X0*%
%TD*%
%TA.AperFunction,SMDPad,CuDef*%
%ADD30O,0.343000X1.731500*%
%TD*%
%TA.AperFunction,SMDPad,CuDef*%
%ADD31R,6.200000X2.750000*%
%TD*%
%TA.AperFunction,SMDPad,CuDef*%
%ADD32FreePoly1,0.000000*%
%TD*%
%TA.AperFunction,SMDPad,CuDef*%
%ADD33FreePoly2,0.000000*%
%TD*%
%TA.AperFunction,SMDPad,CuDef*%
%ADD34RoundRect,0.225000X-0.250000X0.225000X-0.250000X-0.225000X0.250000X-0.225000X0.250000X0.225000X0*%
%TD*%
%TA.AperFunction,SMDPad,CuDef*%
%ADD35RoundRect,0.200000X-0.200000X-0.275000X0.200000X-0.275000X0.200000X0.275000X-0.200000X0.275000X0*%
%TD*%
%TA.AperFunction,ViaPad*%
%ADD36C,0.600000*%
%TD*%
%TA.AperFunction,ViaPad*%
%ADD37C,0.800000*%
%TD*%
%TA.AperFunction,Conductor*%
%ADD38C,0.250000*%
%TD*%
%TA.AperFunction,Conductor*%
%ADD39C,0.525000*%
%TD*%
%TA.AperFunction,Conductor*%
%ADD40C,0.450000*%
%TD*%
G04 APERTURE END LIST*
D10*
%TO.P,R1,1*%
%TO.N,/en*%
X319532000Y-134594000D03*
%TO.P,R1,2*%
%TO.N,Net-(U1-EN1)*%
X319532000Y-136244000D03*
%TD*%
D11*
%TO.P,D1,1,K*%
%TO.N,GND*%
X331724000Y-157480000D03*
%TO.P,D1,2,A*%
%TO.N,Net-(D1-A)*%
X331724000Y-159055000D03*
%TD*%
D12*
%TO.P,C5,1*%
%TO.N,VCC*%
X321957700Y-145542000D03*
%TO.P,C5,2*%
%TO.N,GND*%
X327266300Y-145542000D03*
%TD*%
D13*
%TO.P,R7,1*%
%TO.N,+3.3V*%
X311264000Y-149352000D03*
%TO.P,R7,2*%
%TO.N,/sda*%
X309614000Y-149352000D03*
%TD*%
D14*
%TO.P,C2,1*%
%TO.N,Net-(U1-CPL)*%
X317754000Y-136157000D03*
%TO.P,C2,2*%
%TO.N,Net-(U1-CPH)*%
X317754000Y-134607000D03*
%TD*%
D15*
%TO.P,J2,1,Pin_1*%
%TO.N,GND*%
X293162292Y-154983815D03*
D16*
%TO.P,J2,2,Pin_2*%
%TO.N,VCC*%
X294386000Y-158750000D03*
%TD*%
D17*
%TO.P,U3,1,PA02_A0_D0*%
%TO.N,/en*%
X320075517Y-170629833D03*
%TO.P,U3,2,PA4_A1_D1*%
%TO.N,/in1*%
X320075517Y-168089833D03*
%TO.P,U3,3,PA10_A2_D2*%
%TO.N,/in2*%
X320075517Y-165549833D03*
%TO.P,U3,4,PA11_A3_D3*%
%TO.N,/in3*%
X320075517Y-163009833D03*
%TO.P,U3,5,PA8_A4_D4_SDA*%
%TO.N,/sda*%
X320075517Y-160469833D03*
%TO.P,U3,6,PA9_A5_D5_SCL*%
%TO.N,/scl*%
X320075517Y-157929833D03*
%TO.P,U3,7,PB08_D6_TX*%
%TO.N,unconnected-(U3-PB08_D6_TX-Pad7)*%
X320075517Y-155389833D03*
%TO.P,U3,8,PB09_D7_RX*%
%TO.N,unconnected-(U3-PB09_D7_RX-Pad8)*%
X303910517Y-155389833D03*
%TO.P,U3,9,PA7_A8_D8_SCK*%
%TO.N,/esp_scl*%
X303910517Y-157929833D03*
%TO.P,U3,10,PA5_A9_D9_MISO*%
%TO.N,/esp_sda*%
X303910517Y-160469833D03*
%TO.P,U3,11,PA6_A10_D10_MOSI*%
%TO.N,unconnected-(U3-PA6_A10_D10_MOSI-Pad11)*%
X303910517Y-163009833D03*
%TO.P,U3,12,3V3*%
%TO.N,Net-(JP3-A)*%
X303910517Y-165549833D03*
%TO.P,U3,13,GND*%
%TO.N,GND*%
X303910517Y-168089833D03*
%TO.P,U3,14,5V*%
%TO.N,Net-(JP2-A)*%
X303910517Y-170629833D03*
D18*
%TO.P,U3,15,BAT+*%
%TO.N,unconnected-(U3-BAT+-Pad15)*%
X316465517Y-163304833D03*
%TO.P,U3,16,BAT-*%
%TO.N,unconnected-(U3-BAT--Pad16)*%
X316465516Y-165209833D03*
%TD*%
D19*
%TO.P,C4,1*%
%TO.N,GND*%
X312915000Y-149352000D03*
%TO.P,C4,2*%
%TO.N,+3.3V*%
X314465000Y-149352000D03*
%TD*%
D20*
%TO.P,J1,1,Pin_1*%
%TO.N,/out1*%
X312166000Y-130302000D03*
D21*
%TO.P,J1,2,Pin_2*%
%TO.N,/out2*%
X309626001Y-130302000D03*
%TO.P,J1,3,Pin_3*%
%TO.N,/out3*%
X307086001Y-130302000D03*
%TD*%
D22*
%TO.P,D2,A*%
%TO.N,+5V*%
X301244000Y-159569998D03*
%TO.P,D2,C*%
%TO.N,Net-(JP2-A)*%
X301244000Y-156210000D03*
%TD*%
D23*
%TO.P,J4,1,Pin_1*%
%TO.N,GND*%
X331724000Y-150114000D03*
D24*
%TO.P,J4,2,Pin_2*%
%TO.N,+3.3V*%
X331724000Y-148113999D03*
%TO.P,J4,3,Pin_3*%
%TO.N,/sda*%
X331724000Y-146114000D03*
%TO.P,J4,4,Pin_4*%
%TO.N,/scl*%
X331724000Y-144114000D03*
%TD*%
D25*
%TO.P,VR1,1,ADJUSTMENT*%
%TO.N,Net-(VR1-ADJUSTMENT)*%
X300966000Y-147352000D03*
D26*
%TO.P,VR1,2,OUTPUT*%
%TO.N,+5V*%
X299466000Y-147351999D03*
D25*
%TO.P,VR1,3,INPUT*%
%TO.N,VCC*%
X297966000Y-147352000D03*
%TD*%
D27*
%TO.P,R4,1*%
%TO.N,Net-(VR1-ADJUSTMENT)*%
X306832000Y-144335000D03*
%TO.P,R4,2*%
%TO.N,GND*%
X306832000Y-142685000D03*
%TD*%
D28*
%TO.P,J5,1,Pin_1*%
%TO.N,GND*%
X322376156Y-132608121D03*
D29*
%TO.P,J5,2,Pin_2*%
%TO.N,unconnected-(J5-Pin_2-Pad2)*%
X320496771Y-131924081D03*
%TO.P,J5,3,Pin_3*%
%TO.N,/esp_sda*%
X318617386Y-131240039D03*
%TO.P,J5,4,Pin_4*%
%TO.N,/esp_scl*%
X316738000Y-130556000D03*
%TD*%
D30*
%TO.P,U1,1,CPL*%
%TO.N,Net-(U1-CPL)*%
X314706000Y-134730000D03*
%TO.P,U1,2,CPH*%
%TO.N,Net-(U1-CPH)*%
X314056000Y-134730000D03*
%TO.P,U1,3,VCP*%
%TO.N,Net-(U1-VCP)*%
X313406000Y-134730000D03*
%TO.P,U1,4,VM*%
%TO.N,VCC*%
X312756000Y-134730000D03*
%TO.P,U1,5,OUT1*%
%TO.N,/out1*%
X312106000Y-134729999D03*
%TO.P,U1,6,PGND1*%
%TO.N,GND*%
X311456000Y-134730000D03*
%TO.P,U1,7,PGND2*%
X310806000Y-134730000D03*
%TO.P,U1,8,OUT2*%
%TO.N,/out2*%
X310156000Y-134730000D03*
%TO.P,U1,9,OUT3*%
%TO.N,/out3*%
X309506000Y-134730000D03*
%TO.P,U1,10,PGND3*%
%TO.N,GND*%
X308856000Y-134729999D03*
%TO.P,U1,11,VM*%
%TO.N,VCC*%
X308206000Y-134730000D03*
%TO.P,U1,12,COMPP*%
%TO.N,GND*%
X307556000Y-134730000D03*
%TO.P,U1,13,COMPN*%
X306906000Y-134730000D03*
%TO.P,U1,14,GND*%
X306256000Y-134730000D03*
%TO.P,U1,15,V3P3*%
%TO.N,/v3p3*%
X306256000Y-140462000D03*
%TO.P,U1,16,~{RESET}*%
%TO.N,/nRes*%
X306906000Y-140462000D03*
%TO.P,U1,17,~{SLEEP}*%
%TO.N,/nSlp*%
X307556000Y-140462000D03*
%TO.P,U1,18,~{FAULT}*%
%TO.N,/fault*%
X308206000Y-140462000D03*
%TO.P,U1,19,~{COMPO}*%
%TO.N,unconnected-(U1-~{COMPO}-Pad19)*%
X308856000Y-140462001D03*
%TO.P,U1,20,GND*%
%TO.N,GND*%
X309506000Y-140462000D03*
%TO.P,U1,21,NC*%
%TO.N,unconnected-(U1-NC-Pad21)*%
X310156000Y-140462000D03*
%TO.P,U1,22,EN3*%
%TO.N,Net-(U1-EN1)*%
X310806000Y-140462000D03*
%TO.P,U1,23,IN3*%
%TO.N,/in3*%
X311456000Y-140462000D03*
%TO.P,U1,24,EN2*%
%TO.N,Net-(U1-EN1)*%
X312106000Y-140462001D03*
%TO.P,U1,25,IN2*%
%TO.N,/in2*%
X312756000Y-140462000D03*
%TO.P,U1,26,EN1*%
%TO.N,Net-(U1-EN1)*%
X313406000Y-140462000D03*
%TO.P,U1,27,IN1*%
%TO.N,/in1*%
X314056000Y-140462000D03*
%TO.P,U1,28,GND*%
%TO.N,GND*%
X314706000Y-140462000D03*
D31*
%TO.P,U1,29,EXP*%
X310481000Y-137596000D03*
%TD*%
D10*
%TO.P,R6,1*%
%TO.N,/nRes*%
X310388000Y-142635000D03*
%TO.P,R6,2*%
%TO.N,/v3p3*%
X310388000Y-144285000D03*
%TD*%
D32*
%TO.P,JP3,1,A*%
%TO.N,Net-(JP3-A)*%
X324432000Y-158496000D03*
D33*
%TO.P,JP3,2,B*%
%TO.N,+3.3V*%
X325882000Y-158496000D03*
%TD*%
D34*
%TO.P,C1,1*%
%TO.N,Net-(U1-VCP)*%
X317500000Y-142735000D03*
%TO.P,C1,2*%
%TO.N,VCC*%
X317500000Y-144285000D03*
%TD*%
D27*
%TO.P,R10,1*%
%TO.N,/esp_scl*%
X319532000Y-139509000D03*
%TO.P,R10,2*%
%TO.N,+3.3V*%
X319532000Y-137859000D03*
%TD*%
D10*
%TO.P,R9,1*%
%TO.N,/fault*%
X313884000Y-142635000D03*
%TO.P,R9,2*%
%TO.N,/v3p3*%
X313884000Y-144285000D03*
%TD*%
D35*
%TO.P,R2,1*%
%TO.N,+5V*%
X329883000Y-160782000D03*
%TO.P,R2,2*%
%TO.N,Net-(D1-A)*%
X331533000Y-160782000D03*
%TD*%
D32*
%TO.P,JP2,1,A*%
%TO.N,Net-(JP2-A)*%
X324432000Y-154686000D03*
D33*
%TO.P,JP2,2,B*%
%TO.N,+5V*%
X325882000Y-154686000D03*
%TD*%
D14*
%TO.P,C3,1*%
%TO.N,VCC*%
X308610000Y-144285000D03*
%TO.P,C3,2*%
%TO.N,GND*%
X308610000Y-142735000D03*
%TD*%
D35*
%TO.P,R5,1*%
%TO.N,+3.3V*%
X309614000Y-151003000D03*
%TO.P,R5,2*%
%TO.N,/scl*%
X311264000Y-151003000D03*
%TD*%
D20*
%TO.P,J3,1,Pin_1*%
%TO.N,GND*%
X294640000Y-145796000D03*
D21*
%TO.P,J3,2,Pin_2*%
X292100000Y-145796000D03*
%TO.P,J3,3,Pin_3*%
%TO.N,+5V*%
X294640000Y-143256000D03*
%TO.P,J3,4,Pin_4*%
%TO.N,+3.3V*%
X292100000Y-143256000D03*
%TD*%
D34*
%TO.P,C6,1*%
%TO.N,GND*%
X315722000Y-142748000D03*
%TO.P,C6,2*%
%TO.N,/v3p3*%
X315722000Y-144298000D03*
%TD*%
D27*
%TO.P,R11,1*%
%TO.N,/esp_sda*%
X317754000Y-139509000D03*
%TO.P,R11,2*%
%TO.N,+3.3V*%
X317754000Y-137859000D03*
%TD*%
D32*
%TO.P,JP1,1,A*%
%TO.N,+3.3V*%
X328279000Y-158496000D03*
D33*
%TO.P,JP1,2,B*%
%TO.N,/v3p3*%
X329729000Y-158496000D03*
%TD*%
D10*
%TO.P,R3,1*%
%TO.N,+5V*%
X305054000Y-142685000D03*
%TO.P,R3,2*%
%TO.N,Net-(VR1-ADJUSTMENT)*%
X305054000Y-144335000D03*
%TD*%
%TO.P,R8,1*%
%TO.N,/nSlp*%
X312166000Y-142635000D03*
%TO.P,R8,2*%
%TO.N,/v3p3*%
X312166000Y-144285000D03*
%TD*%
D36*
%TO.N,GND*%
X331724000Y-156464000D03*
X315976000Y-141986000D03*
X311912000Y-136906000D03*
X308864000Y-137922000D03*
X310896000Y-136906000D03*
X306832000Y-142748000D03*
X309880000Y-137922000D03*
X314706000Y-148336000D03*
X310896000Y-137922000D03*
X303910517Y-168089833D03*
X309880000Y-136906000D03*
X308864000Y-136906000D03*
X327152000Y-145542000D03*
X311912000Y-137922000D03*
%TO.N,+3.3V*%
X309372000Y-155448000D03*
X318707000Y-138684000D03*
X292862000Y-141478000D03*
X328422000Y-160020000D03*
X308864000Y-150114000D03*
D37*
%TO.N,VCC*%
X305054000Y-136652000D03*
X307594000Y-132842000D03*
D36*
X308610000Y-144272000D03*
D37*
X313182000Y-132842000D03*
D36*
%TO.N,Net-(U1-VCP)*%
X317500000Y-141732000D03*
X314452000Y-136144000D03*
%TO.N,+5V*%
X325936903Y-154686336D03*
X299466000Y-147320000D03*
X327152000Y-160274000D03*
X305054000Y-142685000D03*
%TO.N,/v3p3*%
X329783903Y-158496618D03*
X316484000Y-145796000D03*
%TO.N,Net-(JP2-A)*%
X303973727Y-170635947D03*
X317754000Y-155702000D03*
X301244000Y-156210000D03*
%TO.N,Net-(JP3-A)*%
X303910517Y-165549833D03*
X322580000Y-159512000D03*
%TO.N,/sda*%
X317453299Y-157155948D03*
X331978000Y-154686000D03*
%TO.N,/scl*%
X328242000Y-154686000D03*
X318008000Y-157988000D03*
%TO.N,/nSlp*%
X307722741Y-141842095D03*
X312166000Y-142635000D03*
%TO.N,/fault*%
X313732478Y-141744677D03*
X308560481Y-141785001D03*
%TO.N,/nRes*%
X306832000Y-141732000D03*
X310388000Y-142635000D03*
%TO.N,/esp_sda*%
X303910517Y-160469833D03*
X322072000Y-152400000D03*
X320084000Y-140716000D03*
X316528000Y-154978003D03*
%TO.N,/esp_scl*%
X321564000Y-151638000D03*
X316528000Y-154178000D03*
X303910517Y-157929833D03*
X319532000Y-139446000D03*
%TO.N,/en*%
X320075517Y-170629833D03*
X319532000Y-134620000D03*
X322834000Y-153416000D03*
X317921647Y-154010353D03*
%TO.N,/in1*%
X315377500Y-140970000D03*
X317111881Y-150074001D03*
X314706000Y-146050000D03*
X317246000Y-151892000D03*
%TO.N,/in2*%
X312928000Y-145542000D03*
X312928000Y-141732000D03*
X325374000Y-160274000D03*
X316239323Y-150074000D03*
%TO.N,/in3*%
X324358000Y-160274000D03*
X311404000Y-141732000D03*
X311150000Y-145796000D03*
X312928000Y-147066000D03*
%TO.N,Net-(VR1-ADJUSTMENT)*%
X305054000Y-144335000D03*
X300966000Y-147352000D03*
%TD*%
D38*
%TO.N,GND*%
X306832000Y-142748000D02*
X307010000Y-142685000D01*
X315976000Y-140787854D02*
X315976000Y-141986000D01*
X314706000Y-140462000D02*
X314750000Y-140418000D01*
X306832000Y-142685000D02*
X306832000Y-142748000D01*
X309880000Y-136906000D02*
X309880000Y-136995000D01*
X312915000Y-149352000D02*
X313931000Y-148336000D01*
X308864000Y-136784407D02*
X308864000Y-136906000D01*
X310806000Y-134730000D02*
X310806000Y-137271000D01*
X309675593Y-137596000D02*
X309880000Y-137922000D01*
X306845000Y-142735000D02*
X306832000Y-142748000D01*
X310806000Y-137271000D02*
X310481000Y-137596000D01*
X307556000Y-134730000D02*
X307556000Y-135476407D01*
X309506000Y-138571000D02*
X310481000Y-137596000D01*
X315722000Y-142240000D02*
X315976000Y-141986000D01*
X315722000Y-142748000D02*
X315722000Y-142240000D01*
X313931000Y-148336000D02*
X314706000Y-148336000D01*
X311456000Y-136621000D02*
X310481000Y-137596000D01*
X308856000Y-135971000D02*
X309791000Y-136906000D01*
X308985593Y-136906000D02*
X309675593Y-137596000D01*
X309880000Y-137922000D02*
X310481000Y-137596000D01*
X311456000Y-134730000D02*
X311456000Y-136621000D01*
X306256000Y-134730000D02*
X306906000Y-134730000D01*
X314750000Y-140418000D02*
X315606146Y-140418000D01*
X315606146Y-140418000D02*
X315976000Y-140787854D01*
X307556000Y-135476407D02*
X308864000Y-136784407D01*
X308610000Y-142735000D02*
X306845000Y-142735000D01*
X331724000Y-157480000D02*
X331724000Y-156464000D01*
X307556000Y-134730000D02*
X306906000Y-134730000D01*
X309506000Y-140462000D02*
X309506000Y-138571000D01*
X309880000Y-136995000D02*
X310481000Y-137596000D01*
X309791000Y-136906000D02*
X309880000Y-136906000D01*
X308856000Y-134729999D02*
X308856000Y-135971000D01*
X308864000Y-136906000D02*
X308985593Y-136906000D01*
%TO.N,+3.3V*%
X308864000Y-150114000D02*
X308864000Y-150253000D01*
X325882000Y-158496000D02*
X328279000Y-158496000D01*
X328422000Y-160020000D02*
X328422000Y-158639000D01*
X318707000Y-138684000D02*
X319532000Y-137859000D01*
X308864000Y-150253000D02*
X309614000Y-151003000D01*
X309614000Y-151002000D02*
X311264000Y-149352000D01*
X312064000Y-150152000D02*
X313665000Y-150152000D01*
X318579000Y-138684000D02*
X318707000Y-138684000D01*
X311264000Y-149352000D02*
X312064000Y-150152000D01*
X313665000Y-150152000D02*
X314465000Y-149352000D01*
X309614000Y-151003000D02*
X309614000Y-151002000D01*
X317754000Y-137859000D02*
X318579000Y-138684000D01*
X328422000Y-158639000D02*
X328279000Y-158496000D01*
%TO.N,Net-(U1-CPL)*%
X317754000Y-136157000D02*
X316133000Y-136157000D01*
X316133000Y-136157000D02*
X314706000Y-134730000D01*
%TO.N,Net-(U1-CPH)*%
X314530581Y-133612250D02*
X316759250Y-133612250D01*
X314056000Y-134730000D02*
X314056000Y-134086831D01*
X314056000Y-134086831D02*
X314530581Y-133612250D01*
X316759250Y-133612250D02*
X317754000Y-134607000D01*
%TO.N,VCC*%
X308610000Y-144285000D02*
X308610000Y-144285000D01*
X316811000Y-143596000D02*
X309299000Y-143596000D01*
D39*
X297966000Y-145264000D02*
X297966000Y-147352000D01*
X295264985Y-150053015D02*
X297966000Y-147352000D01*
X307594000Y-132842000D02*
X308206000Y-133454000D01*
X308206000Y-133454000D02*
X308206000Y-134730000D01*
D38*
X309299000Y-143596000D02*
X308623000Y-144272000D01*
D39*
X305054000Y-136652000D02*
X305054000Y-138176000D01*
X305054000Y-138176000D02*
X297966000Y-145264000D01*
D38*
X318757000Y-145542000D02*
X317500000Y-144285000D01*
D39*
X312756000Y-133268000D02*
X313182000Y-132842000D01*
X295264985Y-157871015D02*
X295264985Y-150053015D01*
D40*
X312756000Y-134730000D02*
X312756000Y-133268000D01*
D38*
X317500000Y-144285000D02*
X316811000Y-143596000D01*
D39*
X294386000Y-158750000D02*
X295264985Y-157871015D01*
D38*
X308623000Y-144272000D02*
X308610000Y-144272000D01*
X321957700Y-145542000D02*
X318757000Y-145542000D01*
X308610000Y-144272000D02*
X308610000Y-144285000D01*
%TO.N,Net-(U1-VCP)*%
X317500000Y-142735000D02*
X317500000Y-141732000D01*
X313406000Y-135502750D02*
X313406000Y-134730000D01*
X314452000Y-136144000D02*
X314047250Y-136144000D01*
X314047250Y-136144000D02*
X313406000Y-135502750D01*
%TO.N,+5V*%
X327152000Y-160274000D02*
X327660000Y-160782000D01*
X299466000Y-157791998D02*
X299466000Y-147351999D01*
X327660000Y-160782000D02*
X329883000Y-160782000D01*
X301244000Y-159569998D02*
X299466000Y-157791998D01*
%TO.N,/v3p3*%
X304038000Y-144542004D02*
X304038000Y-142477996D01*
X316484000Y-145796000D02*
X316484000Y-145060000D01*
X313884000Y-144285000D02*
X315709000Y-144285000D01*
X316484000Y-145060000D02*
X315722000Y-144298000D01*
X306053996Y-140462000D02*
X306256000Y-140462000D01*
X310388000Y-144285000D02*
X309613000Y-145060000D01*
X315709000Y-144285000D02*
X315722000Y-144298000D01*
X310388000Y-144285000D02*
X313884000Y-144285000D01*
X304038000Y-142477996D02*
X306053996Y-140462000D01*
X304555996Y-145060000D02*
X304038000Y-144542004D01*
X309613000Y-145060000D02*
X304555996Y-145060000D01*
%TO.N,Net-(D1-A)*%
X331533000Y-159246000D02*
X331724000Y-159055000D01*
X331533000Y-160782000D02*
X331533000Y-159246000D01*
%TO.N,Net-(JP2-A)*%
X323883833Y-154137833D02*
X324432000Y-154686000D01*
X317754000Y-155702000D02*
X317754000Y-155265590D01*
X317754000Y-155265590D02*
X318881757Y-154137833D01*
X318881757Y-154137833D02*
X323883833Y-154137833D01*
%TO.N,Net-(JP3-A)*%
X323596000Y-158496000D02*
X324432000Y-158496000D01*
X322580000Y-159512000D02*
X323596000Y-158496000D01*
%TO.N,Net-(U1-EN1)*%
X313406000Y-139689250D02*
X314665250Y-138430000D01*
X313406000Y-140462000D02*
X313406000Y-139818831D01*
X312106000Y-140462001D02*
X312106000Y-139689251D01*
X314665250Y-138430000D02*
X316063234Y-138430000D01*
X317587234Y-136906000D02*
X318870000Y-136906000D01*
X312106000Y-139689251D02*
X311760999Y-139344250D01*
X313406000Y-139818831D02*
X312931419Y-139344250D01*
X311760999Y-139344250D02*
X311251750Y-139344250D01*
X316063234Y-138430000D02*
X317587234Y-136906000D01*
X310806000Y-139790000D02*
X310806000Y-140462000D01*
X318870000Y-136906000D02*
X319532000Y-136244000D01*
X312521750Y-139344250D02*
X312106000Y-139760000D01*
X313406000Y-140462000D02*
X313406000Y-139689250D01*
X311251750Y-139344250D02*
X310806000Y-139790000D01*
X312931419Y-139344250D02*
X312521750Y-139344250D01*
X312106000Y-139760000D02*
X312106000Y-140462001D01*
%TO.N,/sda*%
X317283000Y-158787000D02*
X318965833Y-160469833D01*
X317283000Y-157687695D02*
X317283000Y-158787000D01*
X314934646Y-147784000D02*
X311182000Y-147784000D01*
X311182000Y-147784000D02*
X309614000Y-149352000D01*
X315258000Y-148107354D02*
X314934646Y-147784000D01*
X331978000Y-154686000D02*
X327918000Y-150626000D01*
X315258000Y-149904000D02*
X315258000Y-148107354D01*
X317453299Y-157517396D02*
X317283000Y-157687695D01*
X323827350Y-156718000D02*
X320075517Y-160469833D01*
X329946000Y-156718000D02*
X323827350Y-156718000D01*
X327918000Y-150626000D02*
X315980000Y-150626000D01*
X318965833Y-160469833D02*
X320075517Y-160469833D01*
X317453299Y-157155948D02*
X317453299Y-157517396D01*
X331978000Y-154686000D02*
X329946000Y-156718000D01*
X315980000Y-150626000D02*
X315258000Y-149904000D01*
%TO.N,/scl*%
X328242000Y-154686000D02*
X327235000Y-155693000D01*
X318008000Y-157988000D02*
X320017350Y-157988000D01*
X322312350Y-155693000D02*
X320075517Y-157929833D01*
X328242000Y-154686000D02*
X324559000Y-151003000D01*
X327235000Y-155693000D02*
X322312350Y-155693000D01*
X324559000Y-151003000D02*
X311264000Y-151003000D01*
X320017350Y-157988000D02*
X320075517Y-157929833D01*
%TO.N,/nSlp*%
X307722741Y-141842095D02*
X307556000Y-141675354D01*
X307556000Y-141675354D02*
X307556000Y-140462000D01*
%TO.N,/fault*%
X313884000Y-142635000D02*
X313884000Y-141896199D01*
X308206000Y-141430520D02*
X308206000Y-140462000D01*
X313884000Y-141896199D02*
X313732478Y-141744677D01*
X308560481Y-141785001D02*
X308206000Y-141430520D01*
%TO.N,/nRes*%
X306832000Y-141732000D02*
X306832000Y-141282407D01*
X306906000Y-141208407D02*
X306906000Y-140462000D01*
X306832000Y-141282407D02*
X306906000Y-141208407D01*
D40*
%TO.N,/out2*%
X310156000Y-134730000D02*
X310156000Y-133682250D01*
D39*
X310156000Y-133682250D02*
X310156000Y-130831999D01*
X310156000Y-130831999D02*
X309626001Y-130302000D01*
%TO.N,/out3*%
X309504000Y-134728000D02*
X309504000Y-132719999D01*
X309506000Y-134730000D02*
X309504000Y-134728000D01*
X309504000Y-132719999D02*
X307086001Y-130302000D01*
%TO.N,/out1*%
X312106000Y-133540068D02*
X312104000Y-133538068D01*
X312104000Y-130364000D02*
X312166000Y-130302000D01*
X312106000Y-134729999D02*
X312106000Y-133540068D01*
X312104000Y-133538068D02*
X312104000Y-130364000D01*
D38*
%TO.N,/esp_sda*%
X318453000Y-140208000D02*
X317754000Y-139509000D01*
X322072000Y-152400000D02*
X321651000Y-152821000D01*
X321651000Y-152821000D02*
X317612158Y-152821000D01*
X319952766Y-140208000D02*
X318453000Y-140208000D01*
X318617386Y-131458910D02*
X320802000Y-133643524D01*
X320802000Y-133643524D02*
X320802000Y-139358766D01*
X317754000Y-139509000D02*
X318961000Y-140716000D01*
X317080000Y-154426003D02*
X316528000Y-154978003D01*
X317612158Y-152821000D02*
X317080000Y-153353158D01*
X318617386Y-131240039D02*
X318617386Y-131458910D01*
X320802000Y-139358766D02*
X319952766Y-140208000D01*
X317080000Y-153353158D02*
X317080000Y-154426003D01*
X318961000Y-140716000D02*
X320084000Y-140716000D01*
%TO.N,/esp_scl*%
X319532000Y-139446000D02*
X319532000Y-139509000D01*
X320294000Y-138747000D02*
X319595000Y-139446000D01*
X316738000Y-131510594D02*
X319085406Y-133858000D01*
X318262000Y-151638000D02*
X317798000Y-152102000D01*
X319085406Y-133858000D02*
X319915766Y-133858000D01*
X317474646Y-152444000D02*
X317456000Y-152444000D01*
X317798000Y-152102000D02*
X317798000Y-152120646D01*
X321564000Y-151638000D02*
X318262000Y-151638000D01*
X316738000Y-130556000D02*
X316738000Y-131510594D01*
X319595000Y-139446000D02*
X319532000Y-139446000D01*
X317798000Y-152120646D02*
X317474646Y-152444000D01*
X319532000Y-139509000D02*
X319532000Y-139509000D01*
X319915766Y-133858000D02*
X320294000Y-134236234D01*
X320294000Y-134236234D02*
X320294000Y-138747000D01*
X316528000Y-153372000D02*
X316528000Y-154178000D01*
X317456000Y-152444000D02*
X316528000Y-153372000D01*
%TO.N,/en*%
X317921647Y-154010353D02*
X318346167Y-153585833D01*
X322664167Y-153585833D02*
X322834000Y-153416000D01*
X318346167Y-153585833D02*
X322664167Y-153585833D01*
%TO.N,/in1*%
X315214000Y-146050000D02*
X314706000Y-146050000D01*
X317111881Y-147947881D02*
X315214000Y-146050000D01*
X314884628Y-141732000D02*
X315377500Y-141239128D01*
X315976000Y-158013158D02*
X318114517Y-160151675D01*
X318114517Y-166128833D02*
X320075517Y-168089833D01*
X314553250Y-141732000D02*
X314884628Y-141732000D01*
X315976000Y-153162000D02*
X315976000Y-158013158D01*
X315377500Y-141239128D02*
X315377500Y-140970000D01*
X314056000Y-140462000D02*
X314056000Y-141234750D01*
X317111881Y-150074001D02*
X317111881Y-147947881D01*
X317246000Y-151892000D02*
X315976000Y-153162000D01*
X318114517Y-160151675D02*
X318114517Y-166128833D01*
X314056000Y-141234750D02*
X314553250Y-141732000D01*
%TO.N,/in2*%
X323577158Y-160826000D02*
X321702517Y-162700641D01*
X316239323Y-148555519D02*
X313225804Y-145542000D01*
X316239323Y-150074000D02*
X316239323Y-148555519D01*
X325374000Y-160274000D02*
X324822000Y-160826000D01*
X321702517Y-162700641D02*
X321702517Y-163922833D01*
X312756000Y-141560000D02*
X312928000Y-141732000D01*
X324822000Y-160826000D02*
X323577158Y-160826000D01*
X313225804Y-145542000D02*
X312928000Y-145542000D01*
X312756000Y-140462000D02*
X312756000Y-141560000D01*
X321702517Y-163922833D02*
X320075517Y-165549833D01*
%TO.N,/in3*%
X311404000Y-141732000D02*
X311404000Y-140514000D01*
X324358000Y-160274000D02*
X323596000Y-160274000D01*
X312928000Y-147066000D02*
X312420000Y-147066000D01*
X320860167Y-163009833D02*
X320075517Y-163009833D01*
X323596000Y-160274000D02*
X320860167Y-163009833D01*
X312420000Y-147066000D02*
X311150000Y-145796000D01*
X311404000Y-140514000D02*
X311456000Y-140462000D01*
%TO.N,Net-(VR1-ADJUSTMENT)*%
X305054000Y-144335000D02*
X306832000Y-144335000D01*
%TD*%
M02*
