%TF.GenerationSoftware,KiCad,Pcbnew,8.0.4*%
%TF.CreationDate,2025-06-19T10:42:41-04:00*%
%TF.ProjectId,foc_pcb,666f635f-7063-4622-9e6b-696361645f70,2.0*%
%TF.SameCoordinates,Original*%
%TF.FileFunction,Other,Comment*%
%FSLAX46Y46*%
G04 Gerber Fmt 4.6, Leading zero omitted, Abs format (unit mm)*
G04 Created by KiCad (PCBNEW 8.0.4) date 2025-06-19 10:42:41*
%MOMM*%
%LPD*%
G01*
G04 APERTURE LIST*
%ADD10C,0.010000*%
%ADD11C,0.000000*%
%ADD12C,0.150000*%
G04 APERTURE END LIST*
D10*
%TO.C,U3*%
X303130516Y-154491033D02*
X303130516Y-154541833D01*
X303130516Y-154541833D02*
X303130516Y-154592633D01*
X303130516Y-154592633D02*
X303130516Y-154643433D01*
X303130516Y-154592633D02*
X304723518Y-154592633D01*
X303130516Y-154643433D02*
X303130517Y-154745034D01*
X303130516Y-158605833D02*
X303130516Y-158656633D01*
X303130516Y-158605833D02*
X303181317Y-158605832D01*
X303130516Y-158656633D02*
X303130517Y-159571033D01*
X303130516Y-160688633D02*
X303130516Y-160739433D01*
X303130516Y-160688633D02*
X305117217Y-160688632D01*
X303130516Y-160739433D02*
X303130516Y-160841033D01*
X303130516Y-160841033D02*
X303130516Y-160891833D01*
X303130516Y-160891833D02*
X303130516Y-160942633D01*
X303130516Y-160891833D02*
X304998517Y-160891833D01*
X303130516Y-160942633D02*
X303130517Y-161044234D01*
X303130516Y-162771433D02*
X303130516Y-162873033D01*
X303130516Y-162873033D02*
X303130516Y-162923833D01*
X303130516Y-162923833D02*
X303130516Y-162974633D01*
X303130516Y-162923833D02*
X305162516Y-162923833D01*
X303130516Y-162974633D02*
X303130517Y-163076234D01*
X303130516Y-164905033D02*
X303130516Y-164955833D01*
X303130516Y-164955833D02*
X303130516Y-165006633D01*
X303130516Y-164955833D02*
X304998517Y-164955833D01*
X303130516Y-165006633D02*
X303130517Y-165108234D01*
X303130516Y-171051833D02*
X303130516Y-171102633D01*
X303130516Y-171051833D02*
X304998517Y-171051833D01*
X303130516Y-171102633D02*
X303130516Y-171204233D01*
X303130516Y-171204233D02*
X303130516Y-171255033D01*
X303130516Y-171255033D02*
X303130516Y-171305833D01*
X303130516Y-171255033D02*
X304723517Y-171255034D01*
X303130516Y-171305833D02*
X303130517Y-171356634D01*
X303130516Y-171305833D02*
X303181317Y-171305834D01*
X303130517Y-154033833D02*
X303162217Y-154033833D01*
X303130517Y-154234833D02*
X303130516Y-154491033D01*
X303130517Y-154745034D02*
X303130517Y-154795834D01*
X303130517Y-154795834D02*
X303130516Y-171051833D01*
X303130517Y-154795834D02*
X303130517Y-154846634D01*
X303130517Y-154795834D02*
X304998517Y-154795833D01*
X303130517Y-154846634D02*
X303130517Y-154948233D01*
X303130517Y-154948233D02*
X303130517Y-154999033D01*
X303130517Y-154999033D02*
X303130517Y-155049833D01*
X303130517Y-154999033D02*
X305117217Y-154999033D01*
X303130517Y-155049833D02*
X303130517Y-155151433D01*
X303130517Y-155151433D02*
X303130517Y-155202233D01*
X303130517Y-155202233D02*
X303130517Y-155253033D01*
X303130517Y-155202233D02*
X305158717Y-155202233D01*
X303130517Y-155253033D02*
X303130517Y-155354633D01*
X303130517Y-155354633D02*
X303130517Y-155405433D01*
X303130517Y-155405433D02*
X303130517Y-155456233D01*
X303130517Y-155405433D02*
X305158717Y-155405433D01*
X303130517Y-155456233D02*
X303130517Y-155557833D01*
X303130517Y-155557833D02*
X303130517Y-155608633D01*
X303130517Y-155608633D02*
X303130517Y-155659433D01*
X303130517Y-155608633D02*
X305117217Y-155608633D01*
X303130517Y-155659433D02*
X303130517Y-155761033D01*
X303130517Y-155761033D02*
X303130517Y-155811833D01*
X303130517Y-155811833D02*
X303130517Y-155862633D01*
X303130517Y-155811833D02*
X304998516Y-155811833D01*
X303130517Y-155862633D02*
X303130517Y-155964233D01*
X303130517Y-155964233D02*
X303130517Y-156015033D01*
X303130517Y-156015033D02*
X303130517Y-156065833D01*
X303130517Y-156015033D02*
X304723517Y-156015033D01*
X303130517Y-156065833D02*
X303130517Y-156116633D01*
X303130517Y-156065833D02*
X303181317Y-156065833D01*
X303130517Y-156116633D02*
X303130517Y-157031033D01*
X303130517Y-157031033D02*
X303130517Y-157081833D01*
X303130517Y-157081833D02*
X303130517Y-157132633D01*
X303130517Y-157132633D02*
X303130517Y-157183433D01*
X303130517Y-157183433D02*
X303130517Y-157234233D01*
X303130517Y-157234233D02*
X303130517Y-157285033D01*
X303130517Y-157234233D02*
X304747917Y-157234233D01*
X303130517Y-157285033D02*
X303130517Y-157386633D01*
X303130517Y-157386633D02*
X303130517Y-157437433D01*
X303130517Y-157437433D02*
X303130517Y-157488233D01*
X303130517Y-157437433D02*
X304915917Y-157437432D01*
X303130517Y-157488233D02*
X303130517Y-157589833D01*
X303130517Y-157589833D02*
X303130517Y-157640633D01*
X303130517Y-157640633D02*
X303130517Y-157691433D01*
X303130517Y-157640633D02*
X304988117Y-157640632D01*
X303130517Y-157691433D02*
X303130517Y-157793033D01*
X303130517Y-157793033D02*
X303130517Y-157843833D01*
X303130517Y-157843833D02*
X303130517Y-157894633D01*
X303130517Y-157843833D02*
X304998217Y-157843833D01*
X303130517Y-157894633D02*
X303130517Y-157996233D01*
X303130517Y-157996233D02*
X303130517Y-158047033D01*
X303130517Y-158047033D02*
X303130517Y-158097833D01*
X303130517Y-158047033D02*
X304988117Y-158047033D01*
X303130517Y-158097833D02*
X303130517Y-158199433D01*
X303130517Y-158199433D02*
X303130517Y-158250233D01*
X303130517Y-158250233D02*
X303130517Y-158301033D01*
X303130517Y-158250233D02*
X304915917Y-158250233D01*
X303130517Y-158301033D02*
X303130517Y-158402633D01*
X303130517Y-158402633D02*
X303130517Y-158453432D01*
X303130517Y-158453432D02*
X303130517Y-158504232D01*
X303130517Y-158453432D02*
X304747917Y-158453433D01*
X303130517Y-158504232D02*
X303130517Y-158555032D01*
X303130517Y-158555032D02*
X303130516Y-158605833D01*
X303130517Y-159571033D02*
X303130517Y-159621833D01*
X303130517Y-159621833D02*
X303130517Y-159672633D01*
X303130517Y-159672633D02*
X303130517Y-159723433D01*
X303130517Y-159672633D02*
X304723517Y-159672633D01*
X303130517Y-159723433D02*
X303130517Y-159825033D01*
X303130517Y-159825033D02*
X303130517Y-159875833D01*
X303130517Y-159875833D02*
X303130517Y-159926633D01*
X303130517Y-159875833D02*
X304998516Y-159875833D01*
X303130517Y-159926633D02*
X303130517Y-160028233D01*
X303130517Y-160028233D02*
X303130517Y-160079033D01*
X303130517Y-160079033D02*
X303130517Y-160129833D01*
X303130517Y-160079033D02*
X305117217Y-160079033D01*
X303130517Y-160129833D02*
X303130517Y-160231433D01*
X303130517Y-160231433D02*
X303130517Y-160282233D01*
X303130517Y-160282233D02*
X303130517Y-160333033D01*
X303130517Y-160282233D02*
X305158717Y-160282233D01*
X303130517Y-160333033D02*
X303130517Y-160434633D01*
X303130517Y-160434633D02*
X303130517Y-160485433D01*
X303130517Y-160485433D02*
X303130517Y-160536232D01*
X303130517Y-160485433D02*
X305158717Y-160485433D01*
X303130517Y-160536232D02*
X303130517Y-160637832D01*
X303130517Y-160637832D02*
X303130516Y-160688633D01*
X303130517Y-161044234D02*
X303130517Y-161095034D01*
X303130517Y-161095034D02*
X303130517Y-161145833D01*
X303130517Y-161095034D02*
X304723517Y-161095034D01*
X303130517Y-161145833D02*
X303130517Y-161196633D01*
X303130517Y-161145833D02*
X303181317Y-161145833D01*
X303130517Y-161196633D02*
X303130517Y-162111033D01*
X303130517Y-162111033D02*
X303130517Y-162161833D01*
X303130517Y-162161833D02*
X303130517Y-162212633D01*
X303130517Y-162212633D02*
X303130517Y-162263433D01*
X303130517Y-162263433D02*
X303130517Y-162314233D01*
X303130517Y-162314233D02*
X303130517Y-162365033D01*
X303130517Y-162314233D02*
X304894317Y-162314233D01*
X303130517Y-162365033D02*
X303130517Y-162466633D01*
X303130517Y-162466633D02*
X303130517Y-162517433D01*
X303130517Y-162517433D02*
X303130517Y-162568233D01*
X303130517Y-162517433D02*
X305068917Y-162517433D01*
X303130517Y-162568233D02*
X303130517Y-162669832D01*
X303130517Y-162669832D02*
X303130517Y-162720632D01*
X303130517Y-162720632D02*
X303130516Y-162771433D01*
X303130517Y-162720632D02*
X305148016Y-162720633D01*
X303130517Y-163076234D02*
X303130517Y-163127034D01*
X303130517Y-163127034D02*
X303130517Y-163177834D01*
X303130517Y-163127034D02*
X305148016Y-163127033D01*
X303130517Y-163177834D02*
X303130517Y-163279433D01*
X303130517Y-163279433D02*
X303130517Y-163330233D01*
X303130517Y-163330233D02*
X303130517Y-163381033D01*
X303130517Y-163330233D02*
X305068917Y-163330233D01*
X303130517Y-163381033D02*
X303130517Y-163482633D01*
X303130517Y-163482633D02*
X303130517Y-163533433D01*
X303130517Y-163533433D02*
X303130517Y-163584233D01*
X303130517Y-163533433D02*
X304894317Y-163533433D01*
X303130517Y-163584233D02*
X303130517Y-163635033D01*
X303130517Y-163635033D02*
X303130517Y-163685833D01*
X303130517Y-163685833D02*
X303130517Y-163736633D01*
X303130517Y-163685833D02*
X303181317Y-163685833D01*
X303130517Y-163736633D02*
X303130517Y-164651033D01*
X303130517Y-164651033D02*
X303130517Y-164701832D01*
X303130517Y-164701832D02*
X303130517Y-164752632D01*
X303130517Y-164752632D02*
X303130517Y-164803432D01*
X303130517Y-164752632D02*
X304723517Y-164752632D01*
X303130517Y-164803432D02*
X303130516Y-164905033D01*
X303130517Y-165108234D02*
X303130517Y-165159034D01*
X303130517Y-165159034D02*
X303130517Y-165209834D01*
X303130517Y-165159034D02*
X305117217Y-165159034D01*
X303130517Y-165209834D02*
X303130517Y-165311433D01*
X303130517Y-165311433D02*
X303130517Y-165362233D01*
X303130517Y-165362233D02*
X303130517Y-165413033D01*
X303130517Y-165362233D02*
X305158717Y-165362233D01*
X303130517Y-165413033D02*
X303130517Y-165514633D01*
X303130517Y-165514633D02*
X303130517Y-165565433D01*
X303130517Y-165565433D02*
X303130517Y-165616233D01*
X303130517Y-165565433D02*
X305158717Y-165565433D01*
X303130517Y-165616233D02*
X303130517Y-165717833D01*
X303130517Y-165717833D02*
X303130517Y-165768633D01*
X303130517Y-165768633D02*
X303130517Y-165819433D01*
X303130517Y-165768633D02*
X305117217Y-165768633D01*
X303130517Y-165819433D02*
X303130517Y-165921033D01*
X303130517Y-165921033D02*
X303130517Y-165971833D01*
X303130517Y-165971833D02*
X303130517Y-166022633D01*
X303130517Y-165971833D02*
X304998516Y-165971833D01*
X303130517Y-166022633D02*
X303130517Y-166124233D01*
X303130517Y-166124233D02*
X303130517Y-166175033D01*
X303130517Y-166175033D02*
X303130517Y-166225833D01*
X303130517Y-166175033D02*
X304723517Y-166175033D01*
X303130517Y-166225833D02*
X303130517Y-166276633D01*
X303130517Y-166225833D02*
X303181317Y-166225833D01*
X303130517Y-166276633D02*
X303130517Y-167191034D01*
X303130517Y-167191034D02*
X303130517Y-167241834D01*
X303130517Y-167241834D02*
X303130517Y-167292634D01*
X303130517Y-167292634D02*
X303130517Y-167343433D01*
X303130517Y-167343433D02*
X303130517Y-167394233D01*
X303130517Y-167394233D02*
X303130517Y-167445033D01*
X303130517Y-167394233D02*
X304747917Y-167394233D01*
X303130517Y-167445033D02*
X303130517Y-167546633D01*
X303130517Y-167546633D02*
X303130517Y-167597433D01*
X303130517Y-167597433D02*
X303130517Y-167648233D01*
X303130517Y-167597433D02*
X304915917Y-167597433D01*
X303130517Y-167648233D02*
X303130517Y-167749833D01*
X303130517Y-167749833D02*
X303130517Y-167800633D01*
X303130517Y-167800633D02*
X303130517Y-167851433D01*
X303130517Y-167800633D02*
X304988117Y-167800632D01*
X303130517Y-167851433D02*
X303130517Y-167953033D01*
X303130517Y-167953033D02*
X303130517Y-168003833D01*
X303130517Y-168003833D02*
X303130517Y-168054633D01*
X303130517Y-168003833D02*
X304998217Y-168003833D01*
X303130517Y-168054633D02*
X303130517Y-168156233D01*
X303130517Y-168156233D02*
X303130517Y-168207033D01*
X303130517Y-168207033D02*
X303130517Y-168257833D01*
X303130517Y-168207033D02*
X304988117Y-168207034D01*
X303130517Y-168257833D02*
X303130517Y-168359433D01*
X303130517Y-168359433D02*
X303130517Y-168410233D01*
X303130517Y-168410233D02*
X303130517Y-168461033D01*
X303130517Y-168410233D02*
X304915917Y-168410233D01*
X303130517Y-168461033D02*
X303130517Y-168562633D01*
X303130517Y-168562633D02*
X303130517Y-168613433D01*
X303130517Y-168613433D02*
X303130517Y-168664233D01*
X303130517Y-168613433D02*
X304747917Y-168613433D01*
X303130517Y-168664233D02*
X303130517Y-168715033D01*
X303130517Y-168715033D02*
X303130517Y-168765833D01*
X303130517Y-168765833D02*
X303130517Y-168816632D01*
X303130517Y-168765833D02*
X303181317Y-168765833D01*
X303130517Y-168816632D02*
X303130517Y-169731033D01*
X303130517Y-169731033D02*
X303130517Y-169781833D01*
X303130517Y-169781833D02*
X303130517Y-169832633D01*
X303130517Y-169832633D02*
X303130517Y-169883433D01*
X303130517Y-169832633D02*
X304723517Y-169832633D01*
X303130517Y-169883433D02*
X303130517Y-169985033D01*
X303130517Y-169985033D02*
X303130517Y-170035833D01*
X303130517Y-170035833D02*
X303130517Y-170086633D01*
X303130517Y-170035833D02*
X304998516Y-170035833D01*
X303130517Y-170086633D02*
X303130517Y-170188233D01*
X303130517Y-170188233D02*
X303130517Y-170239033D01*
X303130517Y-170239033D02*
X303130517Y-170289833D01*
X303130517Y-170239033D02*
X305117217Y-170239033D01*
X303130517Y-170289833D02*
X303130517Y-170391433D01*
X303130517Y-170391433D02*
X303130517Y-170442233D01*
X303130517Y-170442233D02*
X303130517Y-170493033D01*
X303130517Y-170442233D02*
X305158717Y-170442233D01*
X303130517Y-170493033D02*
X303130517Y-170594633D01*
X303130517Y-170594633D02*
X303130517Y-170645433D01*
X303130517Y-170645433D02*
X303130517Y-170696233D01*
X303130517Y-170645433D02*
X305158717Y-170645433D01*
X303130517Y-170696233D02*
X303130517Y-170797833D01*
X303130517Y-170797833D02*
X303130517Y-170848633D01*
X303130517Y-170848633D02*
X303130517Y-170899432D01*
X303130517Y-170848633D02*
X305117217Y-170848633D01*
X303130517Y-170899432D02*
X303130517Y-171001032D01*
X303130517Y-171001032D02*
X303130516Y-171051833D01*
X303130517Y-171356634D02*
X303130517Y-171559833D01*
X303130517Y-171813833D02*
X303130517Y-154033833D01*
X303162217Y-154033833D02*
X305638717Y-154033833D01*
X303162217Y-171813833D02*
X303130517Y-171813833D01*
X303181316Y-154541833D02*
X303130516Y-154541833D01*
X303181317Y-156065833D02*
X304464017Y-156065833D01*
X303181317Y-157081833D02*
X303130517Y-157081833D01*
X303181317Y-158605832D02*
X304349717Y-158605833D01*
X303181317Y-159621833D02*
X303130517Y-159621833D01*
X303181317Y-161145833D02*
X304464017Y-161145833D01*
X303181317Y-162161833D02*
X303130517Y-162161833D01*
X303181317Y-163685833D02*
X304464017Y-163685833D01*
X303181317Y-164701832D02*
X303130517Y-164701832D01*
X303181317Y-166225833D02*
X304464017Y-166225833D01*
X303181317Y-167241834D02*
X303130517Y-167241834D01*
X303181317Y-168765833D02*
X304349717Y-168765833D01*
X303181317Y-169781833D02*
X303130517Y-169781833D01*
X303181317Y-171305834D02*
X304464017Y-171305833D01*
X304349717Y-157081833D02*
X303181317Y-157081833D01*
X304349717Y-158605833D02*
X304480617Y-158588033D01*
X304349717Y-167241833D02*
X303181317Y-167241834D01*
X304349717Y-168765833D02*
X304480617Y-168748033D01*
X304464017Y-154541833D02*
X303181316Y-154541833D01*
X304464017Y-156065833D02*
X304600316Y-156052433D01*
X304464017Y-159621833D02*
X303181317Y-159621833D01*
X304464017Y-161145833D02*
X304600317Y-161132433D01*
X304464017Y-162161833D02*
X303181317Y-162161833D01*
X304464017Y-163685833D02*
X304600317Y-163672433D01*
X304464017Y-164701833D02*
X303181317Y-164701832D01*
X304464017Y-166225833D02*
X304600317Y-166212432D01*
X304464017Y-169781833D02*
X303181317Y-169781833D01*
X304464017Y-171305833D02*
X304600317Y-171292433D01*
X304480617Y-157099633D02*
X304349717Y-157081833D01*
X304480617Y-158588033D02*
X304605517Y-158545033D01*
X304480617Y-167259633D02*
X304349717Y-167241833D01*
X304480617Y-168748033D02*
X304605517Y-168705033D01*
X304600316Y-156052433D02*
X304731317Y-156012634D01*
X304600317Y-154555233D02*
X304464017Y-154541833D01*
X304600317Y-159635233D02*
X304464017Y-159621833D01*
X304600317Y-161132433D02*
X304731317Y-161092633D01*
X304600317Y-162175233D02*
X304464017Y-162161833D01*
X304600317Y-163672433D02*
X304731317Y-163632633D01*
X304600317Y-164715233D02*
X304464017Y-164701833D01*
X304600317Y-166212432D02*
X304731316Y-166172633D01*
X304600317Y-169795234D02*
X304464017Y-169781833D01*
X304600317Y-171292433D02*
X304731317Y-171252633D01*
X304605517Y-157142633D02*
X304480617Y-157099633D01*
X304605517Y-158545033D02*
X304719717Y-158478433D01*
X304605517Y-167302633D02*
X304480617Y-167259633D01*
X304605517Y-168705033D02*
X304719717Y-168638433D01*
X304719717Y-157209233D02*
X304605517Y-157142633D01*
X304719717Y-158478433D02*
X304818617Y-158390933D01*
X304719717Y-167369233D02*
X304605517Y-167302633D01*
X304719717Y-168638433D02*
X304818617Y-168550933D01*
X304731316Y-159675033D02*
X304600317Y-159635233D01*
X304731316Y-166172633D02*
X304852117Y-166108134D01*
X304731317Y-154595033D02*
X304600317Y-154555233D01*
X304731317Y-156012634D02*
X304852117Y-155948133D01*
X304731317Y-161092633D02*
X304852117Y-161028133D01*
X304731317Y-162215033D02*
X304600317Y-162175233D01*
X304731317Y-163632633D02*
X304852117Y-163568132D01*
X304731317Y-164755033D02*
X304600317Y-164715233D01*
X304731317Y-169835032D02*
X304600317Y-169795234D01*
X304731317Y-171252633D02*
X304852117Y-171188133D01*
X304818617Y-157296733D02*
X304719717Y-157209233D01*
X304818617Y-158390933D02*
X304898617Y-158285733D01*
X304818617Y-167456733D02*
X304719717Y-167369233D01*
X304818617Y-168550933D02*
X304898617Y-168445733D01*
X304852117Y-154659533D02*
X304731317Y-154595033D01*
X304852117Y-155948133D02*
X304957917Y-155861233D01*
X304852117Y-159739532D02*
X304731316Y-159675033D01*
X304852117Y-161028133D02*
X304957916Y-160941233D01*
X304852117Y-162279534D02*
X304731317Y-162215033D01*
X304852117Y-163568132D02*
X304957917Y-163481233D01*
X304852117Y-164819533D02*
X304731317Y-164755033D01*
X304852117Y-166108134D02*
X304957917Y-166021233D01*
X304852117Y-169899533D02*
X304731317Y-169835032D01*
X304852117Y-171188133D02*
X304957916Y-171101233D01*
X304898617Y-157401933D02*
X304818617Y-157296733D01*
X304898617Y-158285733D02*
X304956517Y-158166933D01*
X304898617Y-167561933D02*
X304818617Y-167456733D01*
X304898617Y-168445733D02*
X304956517Y-168326933D01*
X304956517Y-157520733D02*
X304898617Y-157401933D01*
X304956517Y-158166933D02*
X304990117Y-158039233D01*
X304956517Y-167680733D02*
X304898617Y-167561933D01*
X304956517Y-168326933D02*
X304990117Y-168199233D01*
X304957916Y-154746433D02*
X304852117Y-154659533D01*
X304957916Y-160941233D02*
X305044817Y-160835433D01*
X304957916Y-164906433D02*
X304852117Y-164819533D01*
X304957916Y-171101233D02*
X305044817Y-170995433D01*
X304957917Y-155861233D02*
X305044817Y-155755433D01*
X304957917Y-159826433D02*
X304852117Y-159739532D01*
X304957917Y-162366433D02*
X304852117Y-162279534D01*
X304957917Y-163481233D02*
X305044817Y-163375432D01*
X304957917Y-166021233D02*
X305044817Y-165915433D01*
X304957917Y-169986433D02*
X304852117Y-169899533D01*
X304990117Y-157648433D02*
X304956517Y-157520733D01*
X304990117Y-158039233D02*
X304998217Y-157907333D01*
X304990117Y-167808433D02*
X304956517Y-167680733D01*
X304990117Y-168199233D02*
X304998217Y-168067333D01*
X304998217Y-157780333D02*
X304990117Y-157648433D01*
X304998217Y-157793033D02*
X304998217Y-157780333D01*
X304998217Y-157843833D02*
X304998217Y-157793033D01*
X304998217Y-157894633D02*
X304998217Y-157843833D01*
X304998217Y-157907333D02*
X304998217Y-157894633D01*
X304998217Y-167940333D02*
X304990117Y-167808433D01*
X304998217Y-167953033D02*
X304998217Y-167940333D01*
X304998217Y-168003833D02*
X304998217Y-167953033D01*
X304998217Y-168054633D02*
X304998217Y-168003833D01*
X304998217Y-168067333D02*
X304998217Y-168054633D01*
X305035517Y-173464833D02*
X319005517Y-173464833D01*
X305044817Y-154852233D02*
X304957916Y-154746433D01*
X305044817Y-155755433D02*
X305109317Y-155634633D01*
X305044817Y-159932232D02*
X304957917Y-159826433D01*
X305044817Y-160835433D02*
X305109317Y-160714633D01*
X305044817Y-162472234D02*
X304957917Y-162366433D01*
X305044817Y-163375432D02*
X305109317Y-163254633D01*
X305044817Y-165012233D02*
X304957916Y-164906433D01*
X305044817Y-165915433D02*
X305109317Y-165794633D01*
X305044817Y-170092233D02*
X304957917Y-169986433D01*
X305044817Y-170995433D02*
X305109317Y-170874633D01*
X305109317Y-154973033D02*
X305044817Y-154852233D01*
X305109317Y-155634633D02*
X305117217Y-155608633D01*
X305109317Y-160053033D02*
X305044817Y-159932232D01*
X305109317Y-160714633D02*
X305117217Y-160688632D01*
X305109317Y-162593033D02*
X305044817Y-162472234D01*
X305109317Y-163254633D02*
X305149117Y-163123633D01*
X305109317Y-165133033D02*
X305044817Y-165012233D01*
X305109317Y-165794633D02*
X305117217Y-165768633D01*
X305109317Y-170213033D02*
X305044817Y-170092233D01*
X305109317Y-170874633D02*
X305117217Y-170848633D01*
X305117217Y-154999033D02*
X305109317Y-154973033D01*
X305117217Y-155608633D02*
X305149117Y-155503633D01*
X305117217Y-160079033D02*
X305109317Y-160053033D01*
X305117217Y-160688632D02*
X305149117Y-160583633D01*
X305117217Y-165159034D02*
X305109317Y-165133033D01*
X305117217Y-165768633D02*
X305149117Y-165663633D01*
X305117217Y-170239033D02*
X305109317Y-170213033D01*
X305117217Y-170848633D02*
X305149117Y-170743633D01*
X305149117Y-155104033D02*
X305117217Y-154999033D01*
X305149117Y-155503633D02*
X305162517Y-155367333D01*
X305149117Y-160184033D02*
X305117217Y-160079033D01*
X305149117Y-160583633D02*
X305162516Y-160447333D01*
X305149117Y-162724033D02*
X305109317Y-162593033D01*
X305149117Y-163123633D02*
X305162517Y-162987333D01*
X305149117Y-165264033D02*
X305117217Y-165159034D01*
X305149117Y-165663633D02*
X305162517Y-165527333D01*
X305149117Y-170344033D02*
X305117217Y-170239033D01*
X305149117Y-170743633D02*
X305162516Y-170607333D01*
X305162516Y-155240333D02*
X305149117Y-155104033D01*
X305162516Y-160447333D02*
X305162517Y-160320333D01*
X305162516Y-162873033D02*
X305162517Y-162860333D01*
X305162516Y-162923833D02*
X305162516Y-162873033D01*
X305162516Y-162974633D02*
X305162516Y-162923833D01*
X305162516Y-165400333D02*
X305149117Y-165264033D01*
X305162516Y-170607333D02*
X305162517Y-170480333D01*
X305162517Y-155367333D02*
X305162516Y-155240333D01*
X305162517Y-160320333D02*
X305149117Y-160184033D01*
X305162517Y-162860333D02*
X305149117Y-162724033D01*
X305162517Y-162987333D02*
X305162516Y-162974633D01*
X305162517Y-165527333D02*
X305162516Y-165400333D01*
X305162517Y-170480333D02*
X305149117Y-170344033D01*
X305638717Y-154033833D02*
X305670517Y-154033833D01*
X305670517Y-154033833D02*
X305670517Y-171782133D01*
X305670517Y-171782133D02*
X305670517Y-171813833D01*
X305670517Y-171813833D02*
X303162217Y-171813833D01*
X315322517Y-162669833D02*
X315322517Y-163939833D01*
X315322517Y-163939833D02*
X315354217Y-163939833D01*
X315322517Y-164574833D02*
X315322517Y-165844833D01*
X315322517Y-165844833D02*
X315354218Y-165844833D01*
X315354217Y-162669832D02*
X315322517Y-162669833D01*
X315354217Y-163939833D02*
X317576717Y-163939833D01*
X315354217Y-164574833D02*
X315322517Y-164574833D01*
X315354218Y-165844833D02*
X317576716Y-165844833D01*
X317576716Y-165844833D02*
X317608516Y-165844833D01*
X317576717Y-163939833D02*
X317608517Y-163939833D01*
X317608516Y-165844833D02*
X317608517Y-164606633D01*
X317608517Y-162669832D02*
X315354217Y-162669832D01*
X317608517Y-162701533D02*
X317608517Y-162669832D01*
X317608517Y-163939833D02*
X317608517Y-162701533D01*
X317608517Y-164574833D02*
X315354217Y-164574833D01*
X317608517Y-164606633D02*
X317608517Y-164574833D01*
X318370517Y-154033833D02*
X320878817Y-154033833D01*
X318370517Y-154065633D02*
X318370517Y-154033833D01*
X318370517Y-171813833D02*
X318370517Y-154065633D01*
X318402217Y-171813833D02*
X318370517Y-171813833D01*
X318878517Y-155240333D02*
X318878517Y-155367334D01*
X318878517Y-155367334D02*
X318891917Y-155503633D01*
X318878517Y-160447333D02*
X318891917Y-160583633D01*
X318878517Y-162860333D02*
X318878517Y-162873033D01*
X318878517Y-162873033D02*
X318878517Y-162923833D01*
X318878517Y-162923833D02*
X318878517Y-162974633D01*
X318878517Y-162974633D02*
X318878517Y-162987333D01*
X318878517Y-162987333D02*
X318891917Y-163123633D01*
X318878517Y-165400333D02*
X318878517Y-165527334D01*
X318878517Y-165527334D02*
X318891917Y-165663633D01*
X318878517Y-170480332D02*
X318878517Y-170607333D01*
X318878517Y-170607333D02*
X318891917Y-170743633D01*
X318878518Y-160320333D02*
X318878517Y-160447333D01*
X318891917Y-155104033D02*
X318878517Y-155240333D01*
X318891917Y-155503633D02*
X318923816Y-155608633D01*
X318891917Y-160184033D02*
X318878518Y-160320333D01*
X318891917Y-160583633D02*
X318923817Y-160688633D01*
X318891917Y-162724033D02*
X318878517Y-162860333D01*
X318891917Y-163123633D02*
X318931717Y-163254633D01*
X318891917Y-165264033D02*
X318878517Y-165400333D01*
X318891917Y-165663633D02*
X318923817Y-165768632D01*
X318891917Y-170344033D02*
X318878517Y-170480332D01*
X318891917Y-170743633D02*
X318923817Y-170848633D01*
X318923816Y-155608633D02*
X318931717Y-155634633D01*
X318923817Y-154999033D02*
X318891917Y-155104033D01*
X318923817Y-160079033D02*
X318891917Y-160184033D01*
X318923817Y-160688633D02*
X318931717Y-160714633D01*
X318923817Y-165159033D02*
X318891917Y-165264033D01*
X318923817Y-165768632D02*
X318931717Y-165794633D01*
X318923817Y-170239034D02*
X318891917Y-170344033D01*
X318923817Y-170848633D02*
X318931717Y-170874634D01*
X318931717Y-155634633D02*
X318996217Y-155755433D01*
X318931717Y-160053033D02*
X318923817Y-160079033D01*
X318931717Y-160714633D02*
X318996217Y-160835433D01*
X318931717Y-162593033D02*
X318891917Y-162724033D01*
X318931717Y-163254633D02*
X318996217Y-163375433D01*
X318931717Y-165133033D02*
X318923817Y-165159033D01*
X318931717Y-165794633D02*
X318996217Y-165915433D01*
X318931717Y-170213033D02*
X318923817Y-170239034D01*
X318931717Y-170874634D02*
X318996217Y-170995434D01*
X318931718Y-154973033D02*
X318923817Y-154999033D01*
X318996217Y-154852232D02*
X318931718Y-154973033D01*
X318996217Y-155755433D02*
X319083117Y-155861233D01*
X318996217Y-159932233D02*
X318931717Y-160053033D01*
X318996217Y-160835433D02*
X319083117Y-160941233D01*
X318996217Y-162472233D02*
X318931717Y-162593033D01*
X318996217Y-163375433D02*
X319083117Y-163481233D01*
X318996217Y-165012233D02*
X318931717Y-165133033D01*
X318996217Y-165915433D02*
X319083118Y-166021233D01*
X318996217Y-170092233D02*
X318931717Y-170213033D01*
X318996217Y-170995434D02*
X319083117Y-171101233D01*
X319005517Y-152329833D02*
X305035517Y-152329833D01*
X319042817Y-157780333D02*
X319042817Y-157793033D01*
X319042817Y-157793033D02*
X319042817Y-157843833D01*
X319042817Y-157843833D02*
X319042817Y-157894633D01*
X319042817Y-157894633D02*
X319042817Y-157907333D01*
X319042817Y-157907333D02*
X319050917Y-158039233D01*
X319042817Y-167940333D02*
X319042817Y-167953033D01*
X319042817Y-167953033D02*
X319042817Y-168003833D01*
X319042817Y-168003833D02*
X319042817Y-168054633D01*
X319042817Y-168054633D02*
X319042817Y-168067333D01*
X319042817Y-168067333D02*
X319050917Y-168199233D01*
X319050917Y-157648433D02*
X319042817Y-157780333D01*
X319050917Y-158039233D02*
X319084517Y-158166933D01*
X319050917Y-167808433D02*
X319042817Y-167940333D01*
X319050917Y-168199233D02*
X319084517Y-168326933D01*
X319083117Y-154746433D02*
X318996217Y-154852232D01*
X319083117Y-155861233D02*
X319188917Y-155948133D01*
X319083117Y-160941233D02*
X319188917Y-161028133D01*
X319083117Y-162366433D02*
X318996217Y-162472233D01*
X319083117Y-163481233D02*
X319188917Y-163568133D01*
X319083117Y-164906433D02*
X318996217Y-165012233D01*
X319083117Y-169986432D02*
X318996217Y-170092233D01*
X319083117Y-171101233D02*
X319188917Y-171188134D01*
X319083118Y-159826433D02*
X318996217Y-159932233D01*
X319083118Y-166021233D02*
X319188917Y-166108133D01*
X319084517Y-157520732D02*
X319050917Y-157648433D01*
X319084517Y-158166933D02*
X319142417Y-158285734D01*
X319084517Y-167680733D02*
X319050917Y-167808433D01*
X319084517Y-168326933D02*
X319142417Y-168445732D01*
X319142417Y-157401934D02*
X319084517Y-157520732D01*
X319142417Y-158285734D02*
X319222417Y-158390933D01*
X319142417Y-167561932D02*
X319084517Y-167680733D01*
X319142417Y-168445732D02*
X319222417Y-168550934D01*
X319188917Y-154659532D02*
X319083117Y-154746433D01*
X319188917Y-155948133D02*
X319309717Y-156012633D01*
X319188917Y-159739533D02*
X319083118Y-159826433D01*
X319188917Y-161028133D02*
X319309717Y-161092634D01*
X319188917Y-162279533D02*
X319083117Y-162366433D01*
X319188917Y-163568133D02*
X319309717Y-163632633D01*
X319188917Y-164819533D02*
X319083117Y-164906433D01*
X319188917Y-166108133D02*
X319309717Y-166172633D01*
X319188917Y-169899533D02*
X319083117Y-169986432D01*
X319188917Y-171188134D02*
X319309716Y-171252633D01*
X319222417Y-157296732D02*
X319142417Y-157401934D01*
X319222417Y-158390933D02*
X319321316Y-158478433D01*
X319222417Y-167456733D02*
X319142417Y-167561932D01*
X319222417Y-168550934D02*
X319321316Y-168638433D01*
X319309716Y-171252633D02*
X319440717Y-171292433D01*
X319309717Y-154595034D02*
X319188917Y-154659532D01*
X319309717Y-156012633D02*
X319440717Y-156052433D01*
X319309717Y-159675033D02*
X319188917Y-159739533D01*
X319309717Y-161092634D02*
X319440717Y-161132432D01*
X319309717Y-162215033D02*
X319188917Y-162279533D01*
X319309717Y-163632633D02*
X319440717Y-163672433D01*
X319309717Y-164755032D02*
X319188917Y-164819533D01*
X319309717Y-166172633D02*
X319440717Y-166212433D01*
X319309717Y-169835033D02*
X319188917Y-169899533D01*
X319321316Y-158478433D02*
X319435517Y-158545033D01*
X319321316Y-167369233D02*
X319222417Y-167456733D01*
X319321316Y-168638433D02*
X319435517Y-168705033D01*
X319321317Y-157209234D02*
X319222417Y-157296732D01*
X319435517Y-157142633D02*
X319321317Y-157209234D01*
X319435517Y-158545033D02*
X319560418Y-158588033D01*
X319435517Y-167302633D02*
X319321316Y-167369233D01*
X319435517Y-168705033D02*
X319560417Y-168748033D01*
X319440717Y-154555233D02*
X319309717Y-154595034D01*
X319440717Y-156052433D02*
X319577017Y-156065833D01*
X319440717Y-159635233D02*
X319309717Y-159675033D01*
X319440717Y-161132432D02*
X319577017Y-161145833D01*
X319440717Y-162175232D02*
X319309717Y-162215033D01*
X319440717Y-163672433D02*
X319577017Y-163685832D01*
X319440717Y-164715234D02*
X319309717Y-164755032D01*
X319440717Y-166212433D02*
X319577017Y-166225834D01*
X319440717Y-169795233D02*
X319309717Y-169835033D01*
X319440717Y-171292433D02*
X319577017Y-171305833D01*
X319560417Y-157099633D02*
X319435517Y-157142633D01*
X319560417Y-168748033D02*
X319691317Y-168765833D01*
X319560418Y-158588033D02*
X319691316Y-158605833D01*
X319560418Y-167259633D02*
X319435517Y-167302633D01*
X319577017Y-154541833D02*
X319440717Y-154555233D01*
X319577017Y-156065833D02*
X320859717Y-156065833D01*
X319577017Y-161145833D02*
X320859717Y-161145833D01*
X319577017Y-162161833D02*
X319440717Y-162175232D01*
X319577017Y-163685832D02*
X320859717Y-163685832D01*
X319577017Y-164701833D02*
X319440717Y-164715234D01*
X319577017Y-166225834D02*
X320859717Y-166225834D01*
X319577017Y-169781833D02*
X319440717Y-169795233D01*
X319577017Y-171305833D02*
X320859717Y-171305833D01*
X319577018Y-159621833D02*
X319440717Y-159635233D01*
X319691316Y-158605833D02*
X320859717Y-158605833D01*
X319691317Y-157081833D02*
X319560417Y-157099633D01*
X319691317Y-167241834D02*
X319560418Y-167259633D01*
X319691317Y-168765833D02*
X320859717Y-168765833D01*
X320859717Y-154541833D02*
X319577017Y-154541833D01*
X320859717Y-156065833D02*
X320910517Y-156065833D01*
X320859717Y-157081833D02*
X319691317Y-157081833D01*
X320859717Y-158605833D02*
X320910517Y-158605833D01*
X320859717Y-159621832D02*
X319577018Y-159621833D01*
X320859717Y-161145833D02*
X320910517Y-161145833D01*
X320859717Y-162161833D02*
X319577017Y-162161833D01*
X320859717Y-163685832D02*
X320910517Y-163685832D01*
X320859717Y-164701833D02*
X319577017Y-164701833D01*
X320859717Y-166225834D02*
X320910517Y-166225834D01*
X320859717Y-167241833D02*
X319691317Y-167241834D01*
X320859717Y-168765833D02*
X320910517Y-168765833D01*
X320859717Y-169781833D02*
X319577017Y-169781833D01*
X320859717Y-171305833D02*
X320910517Y-171305833D01*
X320878817Y-154033833D02*
X320910517Y-154033833D01*
X320878817Y-171813833D02*
X318402217Y-171813833D01*
X320910517Y-154033833D02*
X320910517Y-171813833D01*
X320910517Y-154234833D02*
X320910517Y-154491033D01*
X320910517Y-154491033D02*
X320910517Y-154541833D01*
X320910517Y-154541833D02*
X320859717Y-154541833D01*
X320910517Y-154541833D02*
X320910517Y-154592633D01*
X320910517Y-154592633D02*
X319317517Y-154592633D01*
X320910517Y-154643433D02*
X320910517Y-154592633D01*
X320910517Y-154745033D02*
X320910517Y-154643433D01*
X320910517Y-154795833D02*
X319042517Y-154795834D01*
X320910517Y-154795833D02*
X320910517Y-154745033D01*
X320910517Y-154795833D02*
X320910517Y-171051833D01*
X320910517Y-154846633D02*
X320910517Y-154795833D01*
X320910517Y-154948233D02*
X320910517Y-154846633D01*
X320910517Y-154999033D02*
X318923817Y-154999033D01*
X320910517Y-154999033D02*
X320910517Y-154948233D01*
X320910517Y-155049833D02*
X320910517Y-154999033D01*
X320910517Y-155151433D02*
X320910517Y-155049833D01*
X320910517Y-155202233D02*
X318882317Y-155202233D01*
X320910517Y-155202233D02*
X320910517Y-155151433D01*
X320910517Y-155253033D02*
X320910517Y-155202233D01*
X320910517Y-155354632D02*
X320910517Y-155253033D01*
X320910517Y-155405432D02*
X318882217Y-155405433D01*
X320910517Y-155405432D02*
X320910517Y-155354632D01*
X320910517Y-155456232D02*
X320910517Y-155405432D01*
X320910517Y-155557832D02*
X320910517Y-155456232D01*
X320910517Y-155608632D02*
X318923816Y-155608633D01*
X320910517Y-155608632D02*
X320910517Y-155557832D01*
X320910517Y-155659434D02*
X320910517Y-155608632D01*
X320910517Y-155761034D02*
X320910517Y-155659434D01*
X320910517Y-155811834D02*
X319042517Y-155811833D01*
X320910517Y-155811834D02*
X320910517Y-155761034D01*
X320910517Y-155862634D02*
X320910517Y-155811834D01*
X320910517Y-155964233D02*
X320910517Y-155862634D01*
X320910517Y-156015033D02*
X319317517Y-156015033D01*
X320910517Y-156015033D02*
X320910517Y-155964233D01*
X320910517Y-156015033D02*
X320910517Y-156065833D01*
X320910517Y-156065833D02*
X320910517Y-156116633D01*
X320910517Y-156116633D02*
X320910517Y-157031033D01*
X320910517Y-157031033D02*
X320910517Y-157081833D01*
X320910517Y-157081833D02*
X320859717Y-157081833D01*
X320910517Y-157081833D02*
X320910517Y-157132633D01*
X320910517Y-157183433D02*
X320910517Y-157132633D01*
X320910517Y-157234233D02*
X319293117Y-157234233D01*
X320910517Y-157234233D02*
X320910517Y-157183433D01*
X320910517Y-157285033D02*
X320910517Y-157234233D01*
X320910517Y-157386633D02*
X320910517Y-157285033D01*
X320910517Y-157437432D02*
X319125117Y-157437433D01*
X320910517Y-157437432D02*
X320910517Y-157386633D01*
X320910517Y-157488232D02*
X320910517Y-157437432D01*
X320910517Y-157589832D02*
X320910517Y-157488232D01*
X320910517Y-157640632D02*
X319052917Y-157640633D01*
X320910517Y-157640632D02*
X320910517Y-157589832D01*
X320910517Y-157691432D02*
X320910517Y-157640632D01*
X320910517Y-157793034D02*
X320910517Y-157691432D01*
X320910517Y-157843834D02*
X319042817Y-157843833D01*
X320910517Y-157843834D02*
X320910517Y-157793034D01*
X320910517Y-157894634D02*
X320910517Y-157843834D01*
X320910517Y-157996234D02*
X320910517Y-157894634D01*
X320910517Y-158047033D02*
X319052917Y-158047033D01*
X320910517Y-158047033D02*
X320910517Y-157996234D01*
X320910517Y-158097833D02*
X320910517Y-158047033D01*
X320910517Y-158199433D02*
X320910517Y-158097833D01*
X320910517Y-158250233D02*
X319125117Y-158250233D01*
X320910517Y-158250233D02*
X320910517Y-158199433D01*
X320910517Y-158301033D02*
X320910517Y-158250233D01*
X320910517Y-158402633D02*
X320910517Y-158301033D01*
X320910517Y-158453433D02*
X319293117Y-158453432D01*
X320910517Y-158453433D02*
X320910517Y-158402633D01*
X320910517Y-158504233D02*
X320910517Y-158453433D01*
X320910517Y-158555033D02*
X320910517Y-158504233D01*
X320910517Y-158555033D02*
X320910517Y-158605833D01*
X320910517Y-158605833D02*
X320910517Y-158656633D01*
X320910517Y-158656633D02*
X320910517Y-159571032D01*
X320910517Y-159571032D02*
X320910517Y-159621832D01*
X320910517Y-159621832D02*
X320859717Y-159621832D01*
X320910517Y-159621832D02*
X320910517Y-159672632D01*
X320910517Y-159672632D02*
X319317516Y-159672633D01*
X320910517Y-159723432D02*
X320910517Y-159672632D01*
X320910517Y-159825034D02*
X320910517Y-159723432D01*
X320910517Y-159875834D02*
X319042517Y-159875833D01*
X320910517Y-159875834D02*
X320910517Y-159825034D01*
X320910517Y-159926634D02*
X320910517Y-159875834D01*
X320910517Y-160028234D02*
X320910517Y-159926634D01*
X320910517Y-160079033D02*
X318923817Y-160079033D01*
X320910517Y-160079033D02*
X320910517Y-160028234D01*
X320910517Y-160129833D02*
X320910517Y-160079033D01*
X320910517Y-160231433D02*
X320910517Y-160129833D01*
X320910517Y-160282233D02*
X318882317Y-160282233D01*
X320910517Y-160282233D02*
X320910517Y-160231433D01*
X320910517Y-160333033D02*
X320910517Y-160282233D01*
X320910517Y-160434633D02*
X320910517Y-160333033D01*
X320910517Y-160485433D02*
X318882217Y-160485433D01*
X320910517Y-160485433D02*
X320910517Y-160434633D01*
X320910517Y-160536233D02*
X320910517Y-160485433D01*
X320910517Y-160637833D02*
X320910517Y-160536233D01*
X320910517Y-160688633D02*
X318923817Y-160688633D01*
X320910517Y-160688633D02*
X320910517Y-160637833D01*
X320910517Y-160739433D02*
X320910517Y-160688633D01*
X320910517Y-160841033D02*
X320910517Y-160739433D01*
X320910517Y-160891833D02*
X319042517Y-160891834D01*
X320910517Y-160891833D02*
X320910517Y-160841033D01*
X320910517Y-160942633D02*
X320910517Y-160891833D01*
X320910517Y-161044233D02*
X320910517Y-160942633D01*
X320910517Y-161095033D02*
X319317517Y-161095033D01*
X320910517Y-161095033D02*
X320910517Y-161044233D01*
X320910517Y-161095033D02*
X320910517Y-161145833D01*
X320910517Y-161145833D02*
X320910517Y-161196633D01*
X320910517Y-161196633D02*
X320910517Y-162111034D01*
X320910517Y-162111034D02*
X320910517Y-162161833D01*
X320910517Y-162161833D02*
X320859717Y-162161833D01*
X320910517Y-162161833D02*
X320910517Y-162212633D01*
X320910517Y-162263433D02*
X320910517Y-162212633D01*
X320910517Y-162314233D02*
X319146717Y-162314233D01*
X320910517Y-162314233D02*
X320910517Y-162263433D01*
X320910517Y-162365033D02*
X320910517Y-162314233D01*
X320910517Y-162466633D02*
X320910517Y-162365033D01*
X320910517Y-162517433D02*
X318972117Y-162517433D01*
X320910517Y-162517433D02*
X320910517Y-162466633D01*
X320910517Y-162568233D02*
X320910517Y-162517433D01*
X320910517Y-162669833D02*
X320910517Y-162568233D01*
X320910517Y-162720633D02*
X318893017Y-162720633D01*
X320910517Y-162720633D02*
X320910517Y-162669833D01*
X320910517Y-162771433D02*
X320910517Y-162720633D01*
X320910517Y-162873033D02*
X320910517Y-162771433D01*
X320910517Y-162923833D02*
X318878517Y-162923833D01*
X320910517Y-162923833D02*
X320910517Y-162873033D01*
X320910517Y-162974633D02*
X320910517Y-162923833D01*
X320910517Y-163076233D02*
X320910517Y-162974633D01*
X320910517Y-163127033D02*
X318893017Y-163127033D01*
X320910517Y-163127033D02*
X320910517Y-163076233D01*
X320910517Y-163177833D02*
X320910517Y-163127033D01*
X320910517Y-163279433D02*
X320910517Y-163177833D01*
X320910517Y-163330233D02*
X318972117Y-163330233D01*
X320910517Y-163330233D02*
X320910517Y-163279433D01*
X320910517Y-163381033D02*
X320910517Y-163330233D01*
X320910517Y-163482633D02*
X320910517Y-163381033D01*
X320910517Y-163533433D02*
X319146717Y-163533433D01*
X320910517Y-163533433D02*
X320910517Y-163482633D01*
X320910517Y-163584233D02*
X320910517Y-163533433D01*
X320910517Y-163635032D02*
X320910517Y-163584233D01*
X320910517Y-163635032D02*
X320910517Y-163685832D01*
X320910517Y-163685832D02*
X320910517Y-163736632D01*
X320910517Y-163736632D02*
X320910517Y-164651033D01*
X320910517Y-164651033D02*
X320910517Y-164701833D01*
X320910517Y-164701833D02*
X320859717Y-164701833D01*
X320910517Y-164701833D02*
X320910517Y-164752633D01*
X320910517Y-164752633D02*
X319317517Y-164752633D01*
X320910517Y-164803433D02*
X320910517Y-164752633D01*
X320910517Y-164905033D02*
X320910517Y-164803433D01*
X320910517Y-164955833D02*
X319042518Y-164955833D01*
X320910517Y-164955833D02*
X320910517Y-164905033D01*
X320910517Y-165006633D02*
X320910517Y-164955833D01*
X320910517Y-165108233D02*
X320910517Y-165006633D01*
X320910517Y-165159033D02*
X318923817Y-165159033D01*
X320910517Y-165159033D02*
X320910517Y-165108233D01*
X320910517Y-165209833D02*
X320910517Y-165159033D01*
X320910517Y-165311433D02*
X320910517Y-165209833D01*
X320910517Y-165362233D02*
X318882317Y-165362233D01*
X320910517Y-165362233D02*
X320910517Y-165311433D01*
X320910517Y-165413033D02*
X320910517Y-165362233D01*
X320910517Y-165514633D02*
X320910517Y-165413033D01*
X320910517Y-165565433D02*
X318882217Y-165565433D01*
X320910517Y-165565433D02*
X320910517Y-165514633D01*
X320910517Y-165616233D02*
X320910517Y-165565433D01*
X320910517Y-165717832D02*
X320910517Y-165616233D01*
X320910517Y-165768632D02*
X318923817Y-165768632D01*
X320910517Y-165768632D02*
X320910517Y-165717832D01*
X320910517Y-165819432D02*
X320910517Y-165768632D01*
X320910517Y-165921032D02*
X320910517Y-165819432D01*
X320910517Y-165971832D02*
X319042517Y-165971833D01*
X320910517Y-165971832D02*
X320910517Y-165921032D01*
X320910517Y-166022634D02*
X320910517Y-165971832D01*
X320910517Y-166124234D02*
X320910517Y-166022634D01*
X320910517Y-166175034D02*
X319317516Y-166175033D01*
X320910517Y-166175034D02*
X320910517Y-166124234D01*
X320910517Y-166175034D02*
X320910517Y-166225834D01*
X320910517Y-166225834D02*
X320910517Y-166276634D01*
X320910517Y-166276634D02*
X320910517Y-167191033D01*
X320910517Y-167191033D02*
X320910517Y-167241833D01*
X320910517Y-167241833D02*
X320859717Y-167241833D01*
X320910517Y-167241833D02*
X320910517Y-167292633D01*
X320910517Y-167343433D02*
X320910517Y-167292633D01*
X320910517Y-167394233D02*
X319293117Y-167394233D01*
X320910517Y-167394233D02*
X320910517Y-167343433D01*
X320910517Y-167445033D02*
X320910517Y-167394233D01*
X320910517Y-167546633D02*
X320910517Y-167445033D01*
X320910517Y-167597433D02*
X319125117Y-167597433D01*
X320910517Y-167597433D02*
X320910517Y-167546633D01*
X320910517Y-167648233D02*
X320910517Y-167597433D01*
X320910517Y-167749833D02*
X320910517Y-167648233D01*
X320910517Y-167800632D02*
X319052917Y-167800633D01*
X320910517Y-167800632D02*
X320910517Y-167749833D01*
X320910517Y-167851432D02*
X320910517Y-167800632D01*
X320910517Y-167953032D02*
X320910517Y-167851432D01*
X320910517Y-168003832D02*
X319042817Y-168003833D01*
X320910517Y-168003832D02*
X320910517Y-167953032D01*
X320910517Y-168054632D02*
X320910517Y-168003832D01*
X320910517Y-168156234D02*
X320910517Y-168054632D01*
X320910517Y-168207034D02*
X319052917Y-168207033D01*
X320910517Y-168207034D02*
X320910517Y-168156234D01*
X320910517Y-168257834D02*
X320910517Y-168207034D01*
X320910517Y-168359434D02*
X320910517Y-168257834D01*
X320910517Y-168410233D02*
X319125117Y-168410233D01*
X320910517Y-168410233D02*
X320910517Y-168359434D01*
X320910517Y-168461033D02*
X320910517Y-168410233D01*
X320910517Y-168562633D02*
X320910517Y-168461033D01*
X320910517Y-168613433D02*
X319293117Y-168613433D01*
X320910517Y-168613433D02*
X320910517Y-168562633D01*
X320910517Y-168664233D02*
X320910517Y-168613433D01*
X320910517Y-168715033D02*
X320910517Y-168664233D01*
X320910517Y-168715033D02*
X320910517Y-168765833D01*
X320910517Y-168765833D02*
X320910517Y-168816633D01*
X320910517Y-168816633D02*
X320910517Y-169731033D01*
X320910517Y-169731033D02*
X320910517Y-169781833D01*
X320910517Y-169781833D02*
X320859717Y-169781833D01*
X320910517Y-169781833D02*
X320910517Y-169832633D01*
X320910517Y-169832633D02*
X319317517Y-169832633D01*
X320910517Y-169883432D02*
X320910517Y-169832633D01*
X320910517Y-169985032D02*
X320910517Y-169883432D01*
X320910517Y-170035832D02*
X319042517Y-170035833D01*
X320910517Y-170035832D02*
X320910517Y-169985032D01*
X320910517Y-170086632D02*
X320910517Y-170035832D01*
X320910517Y-170188234D02*
X320910517Y-170086632D01*
X320910517Y-170239034D02*
X318923817Y-170239034D01*
X320910517Y-170239034D02*
X320910517Y-170188234D01*
X320910517Y-170289834D02*
X320910517Y-170239034D01*
X320910517Y-170391434D02*
X320910517Y-170289834D01*
X320910517Y-170442234D02*
X318882317Y-170442234D01*
X320910517Y-170442234D02*
X320910517Y-170391434D01*
X320910517Y-170493033D02*
X320910517Y-170442234D01*
X320910517Y-170594633D02*
X320910517Y-170493033D01*
X320910517Y-170645433D02*
X318882217Y-170645433D01*
X320910517Y-170645433D02*
X320910517Y-170594633D01*
X320910517Y-170696233D02*
X320910517Y-170645433D01*
X320910517Y-170797833D02*
X320910517Y-170696233D01*
X320910517Y-170848633D02*
X318923817Y-170848633D01*
X320910517Y-170848633D02*
X320910517Y-170797833D01*
X320910517Y-170899433D02*
X320910517Y-170848633D01*
X320910517Y-171001033D02*
X320910517Y-170899433D01*
X320910517Y-171051833D02*
X319042517Y-171051832D01*
X320910517Y-171051833D02*
X320910517Y-171001033D01*
X320910517Y-171102633D02*
X320910517Y-171051833D01*
X320910517Y-171204233D02*
X320910517Y-171102633D01*
X320910517Y-171255033D02*
X319317517Y-171255033D01*
X320910517Y-171255033D02*
X320910517Y-171204233D01*
X320910517Y-171255033D02*
X320910517Y-171305833D01*
X320910517Y-171305833D02*
X320910517Y-171356633D01*
X320910517Y-171356633D02*
X320910517Y-171559833D01*
X320910517Y-171813833D02*
X320878817Y-171813833D01*
X303079716Y-154541833D02*
G75*
G02*
X303130516Y-154491032I50801J0D01*
G01*
X303079716Y-154541833D02*
G75*
G02*
X303181316Y-154541833I50800J0D01*
G01*
X303079716Y-158605833D02*
G75*
G02*
X303130517Y-158555032I50801J0D01*
G01*
X303079716Y-171305833D02*
G75*
G02*
X303130516Y-171255032I50801J0D01*
G01*
X303079717Y-156065833D02*
G75*
G02*
X303130517Y-156015033I50800J0D01*
G01*
X303079717Y-157081833D02*
G75*
G02*
X303130517Y-157031033I50800J0D01*
G01*
X303079717Y-157081833D02*
G75*
G02*
X303181317Y-157081833I50800J0D01*
G01*
X303079717Y-159621833D02*
G75*
G02*
X303130517Y-159571033I50800J0D01*
G01*
X303079717Y-159621833D02*
G75*
G02*
X303181317Y-159621833I50800J0D01*
G01*
X303079717Y-161145833D02*
G75*
G02*
X303130517Y-161095033I50800J0D01*
G01*
X303079717Y-162161833D02*
G75*
G02*
X303130517Y-162111033I50800J0D01*
G01*
X303079717Y-162161833D02*
G75*
G02*
X303181317Y-162161833I50800J0D01*
G01*
X303079717Y-163685833D02*
G75*
G02*
X303130517Y-163635033I50800J0D01*
G01*
X303079717Y-164701832D02*
G75*
G02*
X303130517Y-164651033I50800J-1D01*
G01*
X303079717Y-164701832D02*
G75*
G02*
X303181317Y-164701832I50800J0D01*
G01*
X303079717Y-166225833D02*
G75*
G02*
X303130517Y-166175033I50800J0D01*
G01*
X303079717Y-167241834D02*
G75*
G02*
X303130517Y-167191033I50800J1D01*
G01*
X303079717Y-167241834D02*
G75*
G02*
X303181317Y-167241834I50800J0D01*
G01*
X303079717Y-168765833D02*
G75*
G02*
X303130517Y-168715033I50800J0D01*
G01*
X303079717Y-169781833D02*
G75*
G02*
X303130517Y-169731033I50800J0D01*
G01*
X303079717Y-169781833D02*
G75*
G02*
X303181317Y-169781833I50800J0D01*
G01*
X303098817Y-154033833D02*
G75*
G02*
X303162217Y-154033833I31700J0D01*
G01*
X303128017Y-154234833D02*
G75*
G02*
X303133017Y-154234833I2500J0D01*
G01*
X303128017Y-171559833D02*
G75*
G02*
X303133017Y-171559833I2500J0D01*
G01*
X303130516Y-154592633D02*
G75*
G02*
X303079717Y-154541833I1J50800D01*
G01*
X303130516Y-154643433D02*
G75*
G02*
X303130516Y-154541833I1J50800D01*
G01*
X303130516Y-158656633D02*
G75*
G02*
X303079717Y-158605833I1J50800D01*
G01*
X303130516Y-160739433D02*
G75*
G02*
X303130517Y-160637833I1J50800D01*
G01*
X303130516Y-160942633D02*
G75*
G02*
X303130516Y-160841033I1J50800D01*
G01*
X303130516Y-162771433D02*
G75*
G02*
X303130517Y-162669833I1J50800D01*
G01*
X303130516Y-162974633D02*
G75*
G02*
X303130516Y-162873033I1J50800D01*
G01*
X303130516Y-165006633D02*
G75*
G02*
X303130516Y-164905033I1J50800D01*
G01*
X303130516Y-171102633D02*
G75*
G02*
X303130517Y-171001033I1J50800D01*
G01*
X303130516Y-171305833D02*
G75*
G02*
X303130516Y-171204233I1J50800D01*
G01*
X303130517Y-154065633D02*
G75*
G02*
X303130517Y-154002033I0J31800D01*
G01*
X303130517Y-154234833D02*
G75*
G02*
X305035517Y-152329833I1905000J0D01*
G01*
X303130517Y-154234833D02*
G75*
G02*
X305035517Y-152329833I1905000J0D01*
G01*
X303130517Y-154846634D02*
G75*
G02*
X303130517Y-154745032I0J50801D01*
G01*
X303130517Y-155049833D02*
G75*
G02*
X303130517Y-154948233I0J50800D01*
G01*
X303130517Y-155253033D02*
G75*
G02*
X303130517Y-155151433I0J50800D01*
G01*
X303130517Y-155456233D02*
G75*
G02*
X303130517Y-155354633I0J50800D01*
G01*
X303130517Y-155659433D02*
G75*
G02*
X303130517Y-155557833I0J50800D01*
G01*
X303130517Y-155862633D02*
G75*
G02*
X303130517Y-155761033I0J50800D01*
G01*
X303130517Y-156065833D02*
G75*
G02*
X303130517Y-155964233I0J50800D01*
G01*
X303130517Y-156116633D02*
G75*
G02*
X303079717Y-156065833I0J50800D01*
G01*
X303130517Y-157132633D02*
G75*
G02*
X303079717Y-157081833I0J50800D01*
G01*
X303130517Y-157285033D02*
G75*
G02*
X303130517Y-157183433I0J50800D01*
G01*
X303130517Y-157488233D02*
G75*
G02*
X303130517Y-157386633I0J50800D01*
G01*
X303130517Y-157691433D02*
G75*
G02*
X303130517Y-157589833I0J50800D01*
G01*
X303130517Y-157894633D02*
G75*
G02*
X303130517Y-157793033I0J50800D01*
G01*
X303130517Y-158097833D02*
G75*
G02*
X303130517Y-157996233I0J50800D01*
G01*
X303130517Y-158301033D02*
G75*
G02*
X303130517Y-158199433I0J50800D01*
G01*
X303130517Y-158504232D02*
G75*
G02*
X303130517Y-158402634I0J50799D01*
G01*
X303130517Y-159672633D02*
G75*
G02*
X303079717Y-159621833I0J50800D01*
G01*
X303130517Y-159723433D02*
G75*
G02*
X303130517Y-159621833I0J50800D01*
G01*
X303130517Y-159926633D02*
G75*
G02*
X303130517Y-159825033I0J50800D01*
G01*
X303130517Y-160129833D02*
G75*
G02*
X303130517Y-160028233I0J50800D01*
G01*
X303130517Y-160333033D02*
G75*
G02*
X303130517Y-160231433I0J50800D01*
G01*
X303130517Y-160536232D02*
G75*
G02*
X303130517Y-160434634I0J50799D01*
G01*
X303130517Y-161145833D02*
G75*
G02*
X303130517Y-161044233I0J50800D01*
G01*
X303130517Y-161196633D02*
G75*
G02*
X303079717Y-161145833I0J50800D01*
G01*
X303130517Y-162212633D02*
G75*
G02*
X303079717Y-162161833I0J50800D01*
G01*
X303130517Y-162365033D02*
G75*
G02*
X303130517Y-162263433I0J50800D01*
G01*
X303130517Y-162568233D02*
G75*
G02*
X303130517Y-162466633I0J50800D01*
G01*
X303130517Y-163177834D02*
G75*
G02*
X303130517Y-163076232I0J50801D01*
G01*
X303130517Y-163381033D02*
G75*
G02*
X303130517Y-163279433I0J50800D01*
G01*
X303130517Y-163584233D02*
G75*
G02*
X303130517Y-163482633I0J50800D01*
G01*
X303130517Y-163736633D02*
G75*
G02*
X303079717Y-163685833I0J50800D01*
G01*
X303130517Y-164752632D02*
G75*
G02*
X303079718Y-164701832I0J50799D01*
G01*
X303130517Y-164803432D02*
G75*
G02*
X303130517Y-164701834I0J50799D01*
G01*
X303130517Y-165209834D02*
G75*
G02*
X303130517Y-165108232I0J50801D01*
G01*
X303130517Y-165413033D02*
G75*
G02*
X303130517Y-165311433I0J50800D01*
G01*
X303130517Y-165616233D02*
G75*
G02*
X303130517Y-165514633I0J50800D01*
G01*
X303130517Y-165819433D02*
G75*
G02*
X303130517Y-165717833I0J50800D01*
G01*
X303130517Y-166022633D02*
G75*
G02*
X303130517Y-165921033I0J50800D01*
G01*
X303130517Y-166225833D02*
G75*
G02*
X303130517Y-166124233I0J50800D01*
G01*
X303130517Y-166276633D02*
G75*
G02*
X303079717Y-166225833I0J50800D01*
G01*
X303130517Y-167292634D02*
G75*
G02*
X303079716Y-167241834I0J50801D01*
G01*
X303130517Y-167445033D02*
G75*
G02*
X303130517Y-167343433I0J50800D01*
G01*
X303130517Y-167648233D02*
G75*
G02*
X303130517Y-167546633I0J50800D01*
G01*
X303130517Y-167851433D02*
G75*
G02*
X303130517Y-167749833I0J50800D01*
G01*
X303130517Y-168054633D02*
G75*
G02*
X303130517Y-167953033I0J50800D01*
G01*
X303130517Y-168257833D02*
G75*
G02*
X303130517Y-168156233I0J50800D01*
G01*
X303130517Y-168461033D02*
G75*
G02*
X303130517Y-168359433I0J50800D01*
G01*
X303130517Y-168664233D02*
G75*
G02*
X303130517Y-168562633I0J50800D01*
G01*
X303130517Y-168816632D02*
G75*
G02*
X303079718Y-168765833I0J50799D01*
G01*
X303130517Y-169832633D02*
G75*
G02*
X303079717Y-169781833I0J50800D01*
G01*
X303130517Y-169883433D02*
G75*
G02*
X303130517Y-169781833I0J50800D01*
G01*
X303130517Y-170086633D02*
G75*
G02*
X303130517Y-169985033I0J50800D01*
G01*
X303130517Y-170289833D02*
G75*
G02*
X303130517Y-170188233I0J50800D01*
G01*
X303130517Y-170493033D02*
G75*
G02*
X303130517Y-170391433I0J50800D01*
G01*
X303130517Y-170696233D02*
G75*
G02*
X303130517Y-170594633I0J50800D01*
G01*
X303130517Y-170899432D02*
G75*
G02*
X303130517Y-170797834I0J50799D01*
G01*
X303130517Y-171356634D02*
G75*
G02*
X303079716Y-171305833I0J50801D01*
G01*
X303130517Y-171845633D02*
G75*
G02*
X303130516Y-171782033I100J31800D01*
G01*
X303133017Y-154234833D02*
G75*
G02*
X303128017Y-154234833I-2500J0D01*
G01*
X303133017Y-171559833D02*
G75*
G02*
X303128017Y-171559833I-2500J0D01*
G01*
X303162217Y-171813833D02*
G75*
G02*
X303098817Y-171813833I-31700J0D01*
G01*
X303181317Y-156065833D02*
G75*
G02*
X303079717Y-156065833I-50800J0D01*
G01*
X303181317Y-158605832D02*
G75*
G02*
X303079717Y-158605833I-50800J-1D01*
G01*
X303181317Y-161145833D02*
G75*
G02*
X303079717Y-161145833I-50800J0D01*
G01*
X303181317Y-163685833D02*
G75*
G02*
X303079717Y-163685833I-50800J0D01*
G01*
X303181317Y-166225833D02*
G75*
G02*
X303079717Y-166225833I-50800J0D01*
G01*
X303181317Y-168765833D02*
G75*
G02*
X303079717Y-168765833I-50800J0D01*
G01*
X303181317Y-171305834D02*
G75*
G02*
X303079717Y-171305833I-50800J1D01*
G01*
X304342817Y-157132133D02*
G75*
G02*
X304356617Y-157031533I6900J50300D01*
G01*
X304342817Y-167292134D02*
G75*
G02*
X304356617Y-167191532I6900J50301D01*
G01*
X304349717Y-157031033D02*
G75*
G02*
X304349717Y-157132633I0J-50800D01*
G01*
X304349717Y-158555033D02*
G75*
G02*
X304349717Y-158656633I0J-50800D01*
G01*
X304349717Y-167191033D02*
G75*
G02*
X304349717Y-167292633I0J-50800D01*
G01*
X304349717Y-168715033D02*
G75*
G02*
X304349717Y-168816633I0J-50800D01*
G01*
X304356617Y-158656132D02*
G75*
G02*
X304342817Y-158555534I-6900J50299D01*
G01*
X304356617Y-168816133D02*
G75*
G02*
X304342817Y-168715533I-6900J50300D01*
G01*
X304459017Y-154592433D02*
G75*
G02*
X304469016Y-154491233I5000J50600D01*
G01*
X304459017Y-159672433D02*
G75*
G02*
X304469017Y-159571233I5000J50600D01*
G01*
X304459017Y-162212433D02*
G75*
G02*
X304469017Y-162111233I5000J50600D01*
G01*
X304459017Y-164752433D02*
G75*
G02*
X304469017Y-164651233I5000J50600D01*
G01*
X304459017Y-169832433D02*
G75*
G02*
X304469017Y-169731233I5000J50600D01*
G01*
X304464017Y-154491033D02*
G75*
G02*
X304464017Y-154592633I0J-50800D01*
G01*
X304464017Y-156015033D02*
G75*
G02*
X304464017Y-156116633I0J-50800D01*
G01*
X304464017Y-159571033D02*
G75*
G02*
X304464017Y-159672633I0J-50800D01*
G01*
X304464017Y-161095033D02*
G75*
G02*
X304464017Y-161196633I0J-50800D01*
G01*
X304464017Y-162111033D02*
G75*
G02*
X304464017Y-162212633I0J-50800D01*
G01*
X304464017Y-163635033D02*
G75*
G02*
X304464017Y-163736633I0J-50800D01*
G01*
X304464017Y-164651033D02*
G75*
G02*
X304464017Y-164752633I0J-50800D01*
G01*
X304464017Y-166175033D02*
G75*
G02*
X304464017Y-166276633I0J-50800D01*
G01*
X304464017Y-169731033D02*
G75*
G02*
X304464017Y-169832633I0J-50800D01*
G01*
X304464017Y-171255033D02*
G75*
G02*
X304464017Y-171356633I0J-50800D01*
G01*
X304464117Y-157147734D02*
G75*
G02*
X304497197Y-157051691I16600J48001D01*
G01*
X304464117Y-167307732D02*
G75*
G02*
X304497237Y-167211575I16500J48099D01*
G01*
X304469017Y-156116433D02*
G75*
G02*
X304459017Y-156015233I-5000J50600D01*
G01*
X304469017Y-161196433D02*
G75*
G02*
X304459017Y-161095233I-5000J50600D01*
G01*
X304469017Y-163736433D02*
G75*
G02*
X304459017Y-163635233I-5000J50600D01*
G01*
X304469017Y-166276433D02*
G75*
G02*
X304459017Y-166175233I-5000J50600D01*
G01*
X304469017Y-171356433D02*
G75*
G02*
X304459017Y-171255233I-5000J50600D01*
G01*
X304473817Y-158537633D02*
G75*
G02*
X304487529Y-158638418I6800J-50400D01*
G01*
X304473817Y-168697633D02*
G75*
G02*
X304487529Y-168798418I6800J-50400D01*
G01*
X304487517Y-157049333D02*
G75*
G02*
X304473828Y-157149948I-6900J-50300D01*
G01*
X304487517Y-167209333D02*
G75*
G02*
X304473828Y-167309948I-6900J-50300D01*
G01*
X304497217Y-158636033D02*
G75*
G02*
X304464137Y-158539992I-16600J48000D01*
G01*
X304497217Y-168796033D02*
G75*
G02*
X304464138Y-168699991I-16600J48000D01*
G01*
X304579917Y-157186533D02*
G75*
G02*
X304631124Y-157098820I25700J43800D01*
G01*
X304579917Y-167346533D02*
G75*
G02*
X304631110Y-167258845I25500J43900D01*
G01*
X304585517Y-154603833D02*
G75*
G02*
X304615009Y-154506661I14700J48600D01*
G01*
X304585517Y-159683833D02*
G75*
G02*
X304615009Y-159586661I14700J48600D01*
G01*
X304585517Y-162223833D02*
G75*
G02*
X304615009Y-162126661I14700J48600D01*
G01*
X304585517Y-164763833D02*
G75*
G02*
X304615009Y-164666661I14700J48600D01*
G01*
X304585517Y-169843833D02*
G75*
G02*
X304615009Y-169746661I14700J48600D01*
G01*
X304589017Y-158496933D02*
G75*
G02*
X304622137Y-158593092I16500J-48100D01*
G01*
X304589017Y-168656933D02*
G75*
G02*
X304622137Y-168753092I16500J-48100D01*
G01*
X304595317Y-156001832D02*
G75*
G02*
X304605307Y-156102835I5000J-50501D01*
G01*
X304595317Y-161081833D02*
G75*
G02*
X304605307Y-161182834I5000J-50500D01*
G01*
X304595317Y-163621833D02*
G75*
G02*
X304605307Y-163722834I5000J-50500D01*
G01*
X304595317Y-166161833D02*
G75*
G02*
X304605307Y-166262834I5000J-50500D01*
G01*
X304595317Y-171241833D02*
G75*
G02*
X304605307Y-171342834I5000J-50500D01*
G01*
X304605317Y-154504733D02*
G75*
G02*
X304595325Y-154605754I-5100J-50500D01*
G01*
X304605317Y-159584733D02*
G75*
G02*
X304595325Y-159685754I-5100J-50500D01*
G01*
X304605317Y-164664733D02*
G75*
G02*
X304595325Y-164765754I-5100J-50500D01*
G01*
X304605317Y-169744733D02*
G75*
G02*
X304595325Y-169845754I-5100J-50500D01*
G01*
X304605318Y-162124733D02*
G75*
G02*
X304595325Y-162225754I-5101J-50500D01*
G01*
X304615017Y-156101032D02*
G75*
G02*
X304585509Y-156003806I-14800J48599D01*
G01*
X304615017Y-161181033D02*
G75*
G02*
X304585509Y-161083805I-14800J48600D01*
G01*
X304615017Y-163721033D02*
G75*
G02*
X304585509Y-163623805I-14800J48600D01*
G01*
X304615017Y-166261033D02*
G75*
G02*
X304585509Y-166163805I-14800J48600D01*
G01*
X304615017Y-171341033D02*
G75*
G02*
X304585509Y-171243805I-14800J48600D01*
G01*
X304622117Y-157094633D02*
G75*
G02*
X304589037Y-157190674I-16600J-48000D01*
G01*
X304622117Y-167254633D02*
G75*
G02*
X304589037Y-167350674I-16600J-48000D01*
G01*
X304631117Y-158588833D02*
G75*
G02*
X304579961Y-158501208I-25600J43800D01*
G01*
X304631117Y-168748833D02*
G75*
G02*
X304579961Y-168661208I-25600J43800D01*
G01*
X304686017Y-157247233D02*
G75*
G02*
X304753323Y-157171127I33600J38100D01*
G01*
X304686017Y-167407234D02*
G75*
G02*
X304753323Y-167331126I33600J38101D01*
G01*
X304694117Y-158434533D02*
G75*
G02*
X304745317Y-158522333I25600J-43900D01*
G01*
X304694117Y-168594533D02*
G75*
G02*
X304745317Y-168682333I25600J-43900D01*
G01*
X304707417Y-159719833D02*
G75*
G02*
X304755295Y-159630275I23900J44800D01*
G01*
X304707417Y-162259833D02*
G75*
G02*
X304755295Y-162170275I23900J44800D01*
G01*
X304707417Y-164799833D02*
G75*
G02*
X304755295Y-164710275I23900J44800D01*
G01*
X304707417Y-169879833D02*
G75*
G02*
X304755296Y-169790275I23900J44800D01*
G01*
X304707418Y-154639833D02*
G75*
G02*
X304755295Y-154550275I23899J44800D01*
G01*
X304716617Y-155964033D02*
G75*
G02*
X304746016Y-156061233I14700J-48600D01*
G01*
X304716617Y-161044033D02*
G75*
G02*
X304746017Y-161141233I14700J-48600D01*
G01*
X304716617Y-163584032D02*
G75*
G02*
X304746017Y-163681234I14700J-48601D01*
G01*
X304716617Y-166124034D02*
G75*
G02*
X304746017Y-166221232I14700J-48599D01*
G01*
X304716617Y-171204033D02*
G75*
G02*
X304746017Y-171301233I14700J-48600D01*
G01*
X304723517Y-155964233D02*
G75*
G02*
X304723517Y-156065833I0J-50800D01*
G01*
X304723517Y-159621833D02*
G75*
G02*
X304723517Y-159723433I0J-50800D01*
G01*
X304723517Y-161044234D02*
G75*
G02*
X304723517Y-161145832I0J-50799D01*
G01*
X304723517Y-164701832D02*
G75*
G02*
X304723517Y-164803434I0J-50801D01*
G01*
X304723517Y-166124233D02*
G75*
G02*
X304723517Y-166225833I0J-50800D01*
G01*
X304723517Y-169781833D02*
G75*
G02*
X304723517Y-169883433I0J-50800D01*
G01*
X304723518Y-154541833D02*
G75*
G02*
X304723518Y-154643433I-1J-50800D01*
G01*
X304723518Y-171204233D02*
G75*
G02*
X304723517Y-171305833I-1J-50800D01*
G01*
X304745317Y-157165333D02*
G75*
G02*
X304694117Y-157253133I-25600J-43900D01*
G01*
X304745317Y-167325333D02*
G75*
G02*
X304694117Y-167413133I-25600J-43900D01*
G01*
X304746016Y-169786433D02*
G75*
G02*
X304716617Y-169883633I-14699J-48600D01*
G01*
X304746017Y-154546433D02*
G75*
G02*
X304716617Y-154643633I-14700J-48600D01*
G01*
X304746017Y-159626434D02*
G75*
G02*
X304716617Y-159723632I-14700J-48599D01*
G01*
X304746017Y-162166433D02*
G75*
G02*
X304716617Y-162263633I-14700J-48600D01*
G01*
X304746017Y-164706433D02*
G75*
G02*
X304716617Y-164803633I-14700J-48600D01*
G01*
X304747917Y-157183433D02*
G75*
G02*
X304747917Y-157285033I0J-50800D01*
G01*
X304747917Y-158402633D02*
G75*
G02*
X304747917Y-158504233I0J-50800D01*
G01*
X304747917Y-167343433D02*
G75*
G02*
X304747917Y-167445033I0J-50800D01*
G01*
X304747917Y-168562633D02*
G75*
G02*
X304747917Y-168664233I0J-50800D01*
G01*
X304753317Y-158516533D02*
G75*
G02*
X304686012Y-158440426I-33600J38100D01*
G01*
X304753317Y-168676533D02*
G75*
G02*
X304686012Y-168600426I-33600J38100D01*
G01*
X304755317Y-161137433D02*
G75*
G02*
X304707395Y-161047791I-24000J44800D01*
G01*
X304755317Y-163677433D02*
G75*
G02*
X304707395Y-163587791I-24000J44800D01*
G01*
X304755317Y-166217432D02*
G75*
G02*
X304707395Y-166127792I-24000J44799D01*
G01*
X304755317Y-171297433D02*
G75*
G02*
X304707396Y-171207791I-24000J44800D01*
G01*
X304755318Y-156057433D02*
G75*
G02*
X304707395Y-155967791I-24001J44800D01*
G01*
X304778217Y-157327533D02*
G75*
G02*
X304859102Y-157266045I40400J30800D01*
G01*
X304778217Y-167487533D02*
G75*
G02*
X304859102Y-167426045I40400J30800D01*
G01*
X304785017Y-168512833D02*
G75*
G02*
X304852311Y-168588927I33700J-38000D01*
G01*
X304785018Y-158352833D02*
G75*
G02*
X304852311Y-158428926I33699J-38000D01*
G01*
X304819816Y-162318833D02*
G75*
G02*
X304884358Y-162240183I32301J39300D01*
G01*
X304819817Y-154698833D02*
G75*
G02*
X304884357Y-154620184I32300J39300D01*
G01*
X304819817Y-159778833D02*
G75*
G02*
X304884357Y-159700184I32300J39300D01*
G01*
X304819817Y-164858834D02*
G75*
G02*
X304884358Y-164780183I32300J39301D01*
G01*
X304819817Y-169938833D02*
G75*
G02*
X304884357Y-169860184I32300J39300D01*
G01*
X304828116Y-163523333D02*
G75*
G02*
X304875995Y-163612892I23901J-44800D01*
G01*
X304828117Y-155903333D02*
G75*
G02*
X304875995Y-155992891I23900J-44800D01*
G01*
X304828117Y-160983333D02*
G75*
G02*
X304875995Y-161072891I23900J-44800D01*
G01*
X304828117Y-166063333D02*
G75*
G02*
X304875995Y-166152891I23900J-44800D01*
G01*
X304828117Y-171143333D02*
G75*
G02*
X304875995Y-171232891I23900J-44800D01*
G01*
X304852316Y-157258733D02*
G75*
G02*
X304785023Y-157334826I-33699J-38000D01*
G01*
X304852317Y-167418733D02*
G75*
G02*
X304785023Y-167494827I-33700J-38000D01*
G01*
X304852917Y-157424233D02*
G75*
G02*
X304944137Y-157379673I45600J22300D01*
G01*
X304852917Y-167584233D02*
G75*
G02*
X304944136Y-167539672I45600J22300D01*
G01*
X304858117Y-158254933D02*
G75*
G02*
X304939002Y-158316421I40400J-30800D01*
G01*
X304858117Y-168414933D02*
G75*
G02*
X304939002Y-168476421I40400J-30800D01*
G01*
X304859117Y-158421633D02*
G75*
G02*
X304778202Y-158360121I-40500J30700D01*
G01*
X304859117Y-168581633D02*
G75*
G02*
X304778202Y-168520121I-40500J30700D01*
G01*
X304876017Y-154614733D02*
G75*
G02*
X304828095Y-154704375I-24000J-44800D01*
G01*
X304876017Y-159694733D02*
G75*
G02*
X304828095Y-159784375I-24000J-44800D01*
G01*
X304876017Y-162234733D02*
G75*
G02*
X304828094Y-162324374I-24000J-44800D01*
G01*
X304876017Y-164774733D02*
G75*
G02*
X304828095Y-164864375I-24000J-44800D01*
G01*
X304876017Y-169854733D02*
G75*
G02*
X304828095Y-169944375I-24000J-44800D01*
G01*
X304884317Y-155987433D02*
G75*
G02*
X304819857Y-155908882I-32200J39300D01*
G01*
X304884317Y-161067433D02*
G75*
G02*
X304819858Y-160988882I-32200J39300D01*
G01*
X304884317Y-163607433D02*
G75*
G02*
X304819857Y-163528882I-32200J39300D01*
G01*
X304884317Y-166147433D02*
G75*
G02*
X304819857Y-166068882I-32200J39300D01*
G01*
X304884317Y-171227433D02*
G75*
G02*
X304819857Y-171148882I-32200J39300D01*
G01*
X304894317Y-162263433D02*
G75*
G02*
X304894317Y-162365033I0J-50800D01*
G01*
X304894317Y-163482633D02*
G75*
G02*
X304894317Y-163584233I0J-50800D01*
G01*
X304907417Y-157533634D02*
G75*
G02*
X305005642Y-157507726I49100J13001D01*
G01*
X304907417Y-167693632D02*
G75*
G02*
X305005641Y-167667726I49100J12999D01*
G01*
X304910818Y-158144733D02*
G75*
G02*
X305002177Y-158189213I45699J-22200D01*
G01*
X304910818Y-168304733D02*
G75*
G02*
X305002177Y-168349213I45699J-22200D01*
G01*
X304915917Y-157386633D02*
G75*
G02*
X304915916Y-157488233I0J-50800D01*
G01*
X304915917Y-158199433D02*
G75*
G02*
X304915917Y-158301033I0J-50800D01*
G01*
X304915917Y-167546633D02*
G75*
G02*
X304915917Y-167648233I0J-50800D01*
G01*
X304915917Y-168359434D02*
G75*
G02*
X304915917Y-168461032I0J-50799D01*
G01*
X304918617Y-159858631D02*
G75*
G02*
X304990116Y-159787134I39300J32198D01*
G01*
X304918617Y-162398631D02*
G75*
G02*
X304990116Y-162327134I39300J32198D01*
G01*
X304918617Y-164938631D02*
G75*
G02*
X304990116Y-164867134I39300J32198D01*
G01*
X304918617Y-170018631D02*
G75*
G02*
X304990116Y-169947134I39300J32198D01*
G01*
X304918618Y-154778631D02*
G75*
G02*
X304990116Y-154707135I39299J32198D01*
G01*
X304925719Y-155821931D02*
G75*
G02*
X304997217Y-155893433I32198J-39302D01*
G01*
X304925719Y-160901930D02*
G75*
G02*
X304997218Y-160973434I32198J-39303D01*
G01*
X304925719Y-163441932D02*
G75*
G02*
X304997217Y-163513433I32198J-39301D01*
G01*
X304925719Y-165981931D02*
G75*
G02*
X304997217Y-166053433I32198J-39302D01*
G01*
X304925719Y-171061931D02*
G75*
G02*
X304997217Y-171133433I32198J-39302D01*
G01*
X304939017Y-157371233D02*
G75*
G02*
X304858102Y-157432745I-40500J-30700D01*
G01*
X304939017Y-167531233D02*
G75*
G02*
X304858102Y-167592745I-40500J-30700D01*
G01*
X304939417Y-157651533D02*
G75*
G02*
X305040817Y-157645332I50700J3100D01*
G01*
X304939417Y-167811533D02*
G75*
G02*
X305040817Y-167805333I50700J3100D01*
G01*
X304941017Y-158026233D02*
G75*
G02*
X305039248Y-158052115I49100J-13000D01*
G01*
X304941017Y-168186233D02*
G75*
G02*
X305039248Y-168212115I49100J-13000D01*
G01*
X304944217Y-158308034D02*
G75*
G02*
X304852915Y-158263432I-45700J22201D01*
G01*
X304944217Y-168468032D02*
G75*
G02*
X304852916Y-168423432I-45700J22199D01*
G01*
X304947417Y-157780333D02*
G75*
G02*
X305049017Y-157780333I50800J0D01*
G01*
X304947417Y-167940333D02*
G75*
G02*
X305049017Y-167940333I50800J0D01*
G01*
X304947517Y-157904233D02*
G75*
G02*
X305048917Y-157910433I50700J-3100D01*
G01*
X304947517Y-168064233D02*
G75*
G02*
X305048917Y-168070433I50700J-3100D01*
G01*
X304988117Y-157589832D02*
G75*
G02*
X304988116Y-157691434I0J-50801D01*
G01*
X304988117Y-157996234D02*
G75*
G02*
X304988117Y-158097832I0J-50799D01*
G01*
X304988117Y-167749833D02*
G75*
G02*
X304988117Y-167851433I0J-50800D01*
G01*
X304988117Y-168156234D02*
G75*
G02*
X304988117Y-168257832I0J-50799D01*
G01*
X304990117Y-154707133D02*
G75*
G02*
X304925717Y-154785733I-32200J-39300D01*
G01*
X304990117Y-154707133D02*
G75*
G02*
X304997217Y-154714233I-32200J-39300D01*
G01*
X304990117Y-159787133D02*
G75*
G02*
X304925717Y-159865733I-32200J-39300D01*
G01*
X304990117Y-159787133D02*
G75*
G02*
X304997217Y-159794233I-32200J-39300D01*
G01*
X304990117Y-162327133D02*
G75*
G02*
X304925718Y-162405733I-32200J-39300D01*
G01*
X304990117Y-162327133D02*
G75*
G02*
X304997217Y-162334233I-32200J-39300D01*
G01*
X304990117Y-164867133D02*
G75*
G02*
X304925717Y-164945733I-32200J-39300D01*
G01*
X304990117Y-164867133D02*
G75*
G02*
X304997217Y-164874233I-32200J-39300D01*
G01*
X304990117Y-169947133D02*
G75*
G02*
X304925717Y-170025733I-32200J-39300D01*
G01*
X304990117Y-169947133D02*
G75*
G02*
X304997217Y-169954233I-32200J-39300D01*
G01*
X304997217Y-155893433D02*
G75*
G02*
X304918617Y-155829033I-39300J32200D01*
G01*
X304997217Y-155893433D02*
G75*
G02*
X304990117Y-155900533I-39300J32200D01*
G01*
X304997217Y-160973433D02*
G75*
G02*
X304918617Y-160909033I-39300J32200D01*
G01*
X304997217Y-160973433D02*
G75*
G02*
X304990117Y-160980533I-39300J32200D01*
G01*
X304997217Y-163513433D02*
G75*
G02*
X304918617Y-163449033I-39300J32200D01*
G01*
X304997217Y-163513433D02*
G75*
G02*
X304990117Y-163520533I-39300J32200D01*
G01*
X304997217Y-166053433D02*
G75*
G02*
X304918617Y-165989033I-39300J32200D01*
G01*
X304997217Y-166053433D02*
G75*
G02*
X304990117Y-166060533I-39300J32200D01*
G01*
X304997217Y-171133433D02*
G75*
G02*
X304918617Y-171069033I-39300J32200D01*
G01*
X304997217Y-171133433D02*
G75*
G02*
X304990117Y-171140533I-39300J32200D01*
G01*
X304998217Y-157793033D02*
G75*
G02*
X304998217Y-157894633I0J-50800D01*
G01*
X304998217Y-167953033D02*
G75*
G02*
X304998217Y-168054633I0J-50800D01*
G01*
X304998516Y-155761033D02*
G75*
G02*
X304998517Y-155862633I1J-50800D01*
G01*
X304998516Y-159825033D02*
G75*
G02*
X304998516Y-159926633I1J-50800D01*
G01*
X304998516Y-165921033D02*
G75*
G02*
X304998516Y-166022633I1J-50800D01*
G01*
X304998516Y-169985033D02*
G75*
G02*
X304998516Y-170086633I1J-50800D01*
G01*
X304998517Y-154745033D02*
G75*
G02*
X304998517Y-154846633I0J-50800D01*
G01*
X304998517Y-160841033D02*
G75*
G02*
X304998517Y-160942633I0J-50800D01*
G01*
X304998517Y-164905033D02*
G75*
G02*
X304998517Y-165006633I0J-50800D01*
G01*
X304998517Y-171001033D02*
G75*
G02*
X304998517Y-171102633I0J-50800D01*
G01*
X305000017Y-154876233D02*
G75*
G02*
X305089659Y-154828311I44800J24000D01*
G01*
X305000017Y-159956232D02*
G75*
G02*
X305089658Y-159908311I44800J23999D01*
G01*
X305000017Y-162496233D02*
G75*
G02*
X305089659Y-162448311I44800J24000D01*
G01*
X305000017Y-165036233D02*
G75*
G02*
X305089659Y-164988311I44800J24000D01*
G01*
X305000017Y-170116233D02*
G75*
G02*
X305089659Y-170068311I44800J24000D01*
G01*
X305002217Y-157498433D02*
G75*
G02*
X304910857Y-157542915I-45700J-22200D01*
G01*
X305002217Y-167658433D02*
G75*
G02*
X304910857Y-167702914I-45700J-22200D01*
G01*
X305005517Y-155723133D02*
G75*
G02*
X305084068Y-155787593I39300J-32200D01*
G01*
X305005517Y-160803133D02*
G75*
G02*
X305084068Y-160867593I39300J-32200D01*
G01*
X305005517Y-170963133D02*
G75*
G02*
X305084068Y-171027593I39300J-32200D01*
G01*
X305005518Y-163343133D02*
G75*
G02*
X305084067Y-163407592I39299J-32200D01*
G01*
X305005518Y-165883133D02*
G75*
G02*
X305084067Y-165947592I39299J-32200D01*
G01*
X305005616Y-168339933D02*
G75*
G02*
X304907393Y-168314027I-49099J13000D01*
G01*
X305005617Y-158179933D02*
G75*
G02*
X304907392Y-158154027I-49100J13000D01*
G01*
X305035517Y-152327333D02*
G75*
G02*
X305035517Y-152332333I0J-2500D01*
G01*
X305035517Y-152332333D02*
G75*
G02*
X305035517Y-152327333I0J2500D01*
G01*
X305035517Y-173462333D02*
G75*
G02*
X305035517Y-173467333I0J-2500D01*
G01*
X305035517Y-173464833D02*
G75*
G02*
X303130517Y-171559833I0J1905000D01*
G01*
X305035517Y-173464833D02*
G75*
G02*
X303130517Y-171559833I0J1905000D01*
G01*
X305035517Y-173467333D02*
G75*
G02*
X305035517Y-173462333I0J2500D01*
G01*
X305039317Y-157635533D02*
G75*
G02*
X304940948Y-157661451I-49200J-12900D01*
G01*
X305039317Y-167795533D02*
G75*
G02*
X304940948Y-167821451I-49200J-12900D01*
G01*
X305040817Y-158042333D02*
G75*
G02*
X304939417Y-158036133I-50700J3100D01*
G01*
X305040817Y-168202333D02*
G75*
G02*
X304939417Y-168196133I-50700J3100D01*
G01*
X305048917Y-157777233D02*
G75*
G02*
X304947517Y-157783433I-50700J-3100D01*
G01*
X305048917Y-167937233D02*
G75*
G02*
X304947517Y-167943433I-50700J-3100D01*
G01*
X305049017Y-157907333D02*
G75*
G02*
X304947417Y-157907333I-50800J0D01*
G01*
X305049017Y-168067333D02*
G75*
G02*
X304947417Y-168067333I-50800J0D01*
G01*
X305060717Y-154987733D02*
G75*
G02*
X305157917Y-154958333I48600J14700D01*
G01*
X305060717Y-160067733D02*
G75*
G02*
X305157917Y-160038333I48600J14700D01*
G01*
X305060717Y-162607734D02*
G75*
G02*
X305157917Y-162578333I48600J14701D01*
G01*
X305060717Y-165147733D02*
G75*
G02*
X305157917Y-165118333I48600J14700D01*
G01*
X305060717Y-170227733D02*
G75*
G02*
X305157917Y-170198333I48600J14700D01*
G01*
X305064517Y-155610732D02*
G75*
G02*
X305154076Y-155658611I44800J-23901D01*
G01*
X305064517Y-160690733D02*
G75*
G02*
X305154075Y-160738611I44800J-23900D01*
G01*
X305064517Y-163230733D02*
G75*
G02*
X305154075Y-163278611I44800J-23900D01*
G01*
X305064517Y-165770733D02*
G75*
G02*
X305154075Y-165818611I44800J-23900D01*
G01*
X305064517Y-170850733D02*
G75*
G02*
X305154075Y-170898611I44800J-23900D01*
G01*
X305068917Y-162466633D02*
G75*
G02*
X305068917Y-162568233I0J-50800D01*
G01*
X305068917Y-163279433D02*
G75*
G02*
X305068917Y-163381033I0J-50800D01*
G01*
X305084117Y-154820033D02*
G75*
G02*
X305005566Y-154884493I-39300J-32200D01*
G01*
X305084117Y-159900033D02*
G75*
G02*
X305005566Y-159964493I-39300J-32200D01*
G01*
X305084117Y-162440033D02*
G75*
G02*
X305005566Y-162504493I-39300J-32200D01*
G01*
X305084117Y-164980033D02*
G75*
G02*
X305005566Y-165044493I-39300J-32200D01*
G01*
X305084117Y-170060033D02*
G75*
G02*
X305005566Y-170124493I-39300J-32200D01*
G01*
X305089617Y-155779333D02*
G75*
G02*
X304999975Y-155731411I-44800J24000D01*
G01*
X305089617Y-160859333D02*
G75*
G02*
X304999975Y-160811411I-44800J24000D01*
G01*
X305089617Y-163399333D02*
G75*
G02*
X304999976Y-163351410I-44800J24000D01*
G01*
X305089617Y-165939333D02*
G75*
G02*
X304999975Y-165891412I-44800J24000D01*
G01*
X305089617Y-171019333D02*
G75*
G02*
X304999975Y-170971411I-44800J24000D01*
G01*
X305098517Y-160189033D02*
G75*
G02*
X305199716Y-160179023I50600J5000D01*
G01*
X305098517Y-162729033D02*
G75*
G02*
X305199716Y-162719023I50600J5000D01*
G01*
X305098517Y-165269033D02*
G75*
G02*
X305199716Y-165259023I50600J5000D01*
G01*
X305098517Y-170349033D02*
G75*
G02*
X305199716Y-170339023I50600J5000D01*
G01*
X305098518Y-155109033D02*
G75*
G02*
X305199715Y-155099023I50599J5000D01*
G01*
X305100517Y-155488833D02*
G75*
G02*
X305197745Y-155518341I48600J-14800D01*
G01*
X305100517Y-160568833D02*
G75*
G02*
X305197745Y-160598341I48600J-14800D01*
G01*
X305100517Y-163108833D02*
G75*
G02*
X305197745Y-163138341I48600J-14800D01*
G01*
X305100517Y-165648833D02*
G75*
G02*
X305197745Y-165678341I48600J-14800D01*
G01*
X305100517Y-170728833D02*
G75*
G02*
X305197745Y-170758342I48600J-14800D01*
G01*
X305111716Y-155240333D02*
G75*
G02*
X305213318Y-155240334I50801J0D01*
G01*
X305111716Y-165400333D02*
G75*
G02*
X305213316Y-165400333I50800J0D01*
G01*
X305111717Y-160320333D02*
G75*
G02*
X305213317Y-160320333I50800J0D01*
G01*
X305111717Y-162860333D02*
G75*
G02*
X305213317Y-162860333I50800J0D01*
G01*
X305111717Y-170480333D02*
G75*
G02*
X305213317Y-170480333I50800J0D01*
G01*
X305111917Y-155362333D02*
G75*
G02*
X305213117Y-155372333I50600J-5000D01*
G01*
X305111917Y-160442333D02*
G75*
G02*
X305213117Y-160452334I50600J-5000D01*
G01*
X305111917Y-162982333D02*
G75*
G02*
X305213117Y-162992333I50600J-5000D01*
G01*
X305111917Y-165522333D02*
G75*
G02*
X305213117Y-165532333I50600J-5000D01*
G01*
X305111917Y-170602333D02*
G75*
G02*
X305213117Y-170612333I50600J-5000D01*
G01*
X305117217Y-154948233D02*
G75*
G02*
X305117217Y-155049833I0J-50800D01*
G01*
X305117217Y-155557833D02*
G75*
G02*
X305117217Y-155659433I0J-50800D01*
G01*
X305117217Y-160028233D02*
G75*
G02*
X305117217Y-160129833I0J-50800D01*
G01*
X305117217Y-160637832D02*
G75*
G02*
X305117217Y-160739434I0J-50801D01*
G01*
X305117217Y-165108234D02*
G75*
G02*
X305117217Y-165209832I0J-50799D01*
G01*
X305117217Y-165717833D02*
G75*
G02*
X305117217Y-165819433I0J-50800D01*
G01*
X305117217Y-170188233D02*
G75*
G02*
X305117217Y-170289833I0J-50800D01*
G01*
X305117217Y-170797833D02*
G75*
G02*
X305117217Y-170899433I0J-50800D01*
G01*
X305148016Y-162669833D02*
G75*
G02*
X305148016Y-162771433I1J-50800D01*
G01*
X305148016Y-163076233D02*
G75*
G02*
X305148017Y-163177833I1J-50800D01*
G01*
X305154117Y-154949033D02*
G75*
G02*
X305064559Y-154996911I-44800J-23900D01*
G01*
X305154117Y-160029033D02*
G75*
G02*
X305064559Y-160076911I-44800J-23900D01*
G01*
X305154117Y-162569033D02*
G75*
G02*
X305064559Y-162616911I-44800J-23900D01*
G01*
X305154117Y-165109033D02*
G75*
G02*
X305064559Y-165156911I-44800J-23900D01*
G01*
X305154117Y-170189033D02*
G75*
G02*
X305064559Y-170236912I-44800J-23900D01*
G01*
X305157917Y-155649333D02*
G75*
G02*
X305060717Y-155619933I-48600J14700D01*
G01*
X305157917Y-160729333D02*
G75*
G02*
X305060717Y-160699933I-48600J14700D01*
G01*
X305157917Y-163269333D02*
G75*
G02*
X305060717Y-163239933I-48600J14700D01*
G01*
X305157917Y-165809333D02*
G75*
G02*
X305060717Y-165779933I-48600J14700D01*
G01*
X305157917Y-170889333D02*
G75*
G02*
X305060717Y-170859933I-48600J14700D01*
G01*
X305158717Y-155151433D02*
G75*
G02*
X305158717Y-155253033I0J-50800D01*
G01*
X305158717Y-155354633D02*
G75*
G02*
X305158717Y-155456233I0J-50800D01*
G01*
X305158717Y-160231433D02*
G75*
G02*
X305158717Y-160333033I0J-50800D01*
G01*
X305158717Y-160434633D02*
G75*
G02*
X305158717Y-160536233I0J-50800D01*
G01*
X305158717Y-165311433D02*
G75*
G02*
X305158717Y-165413033I0J-50800D01*
G01*
X305158717Y-165514633D02*
G75*
G02*
X305158717Y-165616233I0J-50800D01*
G01*
X305158717Y-170391433D02*
G75*
G02*
X305158717Y-170493033I0J-50800D01*
G01*
X305158717Y-170594633D02*
G75*
G02*
X305158717Y-170696233I0J-50800D01*
G01*
X305162516Y-162873033D02*
G75*
G02*
X305162516Y-162974633I1J-50800D01*
G01*
X305197717Y-160169333D02*
G75*
G02*
X305100489Y-160198841I-48600J-14800D01*
G01*
X305197717Y-162709333D02*
G75*
G02*
X305100489Y-162738841I-48600J-14800D01*
G01*
X305197717Y-165249333D02*
G75*
G02*
X305100489Y-165278841I-48600J-14800D01*
G01*
X305197717Y-170329333D02*
G75*
G02*
X305100545Y-170358825I-48600J-14700D01*
G01*
X305197718Y-155089333D02*
G75*
G02*
X305100488Y-155118842I-48601J-14800D01*
G01*
X305199617Y-155508633D02*
G75*
G02*
X305098596Y-155498641I-50500J5100D01*
G01*
X305199617Y-160588633D02*
G75*
G02*
X305098596Y-160578641I-50500J5100D01*
G01*
X305199617Y-165668633D02*
G75*
G02*
X305098596Y-165658641I-50500J5100D01*
G01*
X305199617Y-170748633D02*
G75*
G02*
X305098596Y-170738642I-50500J5100D01*
G01*
X305199618Y-163128633D02*
G75*
G02*
X305098595Y-163118641I-50501J5100D01*
G01*
X305213117Y-155235334D02*
G75*
G02*
X305111917Y-155245333I-50600J-4999D01*
G01*
X305213117Y-160315333D02*
G75*
G02*
X305111917Y-160325333I-50600J-5000D01*
G01*
X305213117Y-162855333D02*
G75*
G02*
X305111917Y-162865333I-50600J-5000D01*
G01*
X305213117Y-165395332D02*
G75*
G02*
X305111917Y-165405333I-50600J-5001D01*
G01*
X305213117Y-170475333D02*
G75*
G02*
X305111917Y-170485333I-50600J-5000D01*
G01*
X305213316Y-170607333D02*
G75*
G02*
X305111716Y-170607333I-50800J0D01*
G01*
X305213317Y-155367333D02*
G75*
G02*
X305111717Y-155367333I-50800J0D01*
G01*
X305213317Y-160447334D02*
G75*
G02*
X305111717Y-160447333I-50800J1D01*
G01*
X305213317Y-162987333D02*
G75*
G02*
X305111717Y-162987333I-50800J0D01*
G01*
X305213317Y-165527333D02*
G75*
G02*
X305111717Y-165527333I-50800J0D01*
G01*
X305638717Y-154033833D02*
G75*
G02*
X305702317Y-154033833I31800J0D01*
G01*
X305670517Y-154002033D02*
G75*
G02*
X305702317Y-154033833I0J-31800D01*
G01*
X305670517Y-171782133D02*
G75*
G02*
X305670516Y-171845533I-200J-31700D01*
G01*
X305670517Y-171845633D02*
G75*
G02*
X305638717Y-171813833I0J31800D01*
G01*
X305702317Y-154033833D02*
G75*
G02*
X305670517Y-154065633I-31800J0D01*
G01*
X305702317Y-171813833D02*
G75*
G02*
X305670517Y-171845633I-31800J0D01*
G01*
X309130517Y-168560133D02*
G75*
G02*
X309130518Y-168885533I0J-162700D01*
G01*
X309130518Y-168885533D02*
G75*
G02*
X309130517Y-168560133I-1J162700D01*
G01*
X310750517Y-163177833D02*
G75*
G02*
X310750517Y-164701833I0J-762000D01*
G01*
X310750517Y-164701833D02*
G75*
G02*
X310750517Y-163177833I0J762000D01*
G01*
X310750517Y-165717832D02*
G75*
G02*
X310750517Y-167241834I0J-762001D01*
G01*
X310750517Y-167241833D02*
G75*
G02*
X310750517Y-165717833I0J762000D01*
G01*
X310750517Y-169781833D02*
G75*
G02*
X310750518Y-168257833I0J762000D01*
G01*
X310750517Y-170797833D02*
G75*
G02*
X310750518Y-172321833I0J-762000D01*
G01*
X310750518Y-168257833D02*
G75*
G02*
X310750517Y-169781833I-1J-762000D01*
G01*
X310750518Y-172321833D02*
G75*
G02*
X310750517Y-170797833I-1J762000D01*
G01*
X313290517Y-163177833D02*
G75*
G02*
X313290517Y-164701833I0J-762000D01*
G01*
X313290517Y-164701833D02*
G75*
G02*
X313290517Y-163177833I0J762000D01*
G01*
X313290517Y-165717833D02*
G75*
G02*
X313290517Y-167241833I0J-762000D01*
G01*
X313290517Y-167241833D02*
G75*
G02*
X313290517Y-165717833I0J762000D01*
G01*
X313290517Y-168257833D02*
G75*
G02*
X313290517Y-169781833I0J-762000D01*
G01*
X313290517Y-169781833D02*
G75*
G02*
X313290517Y-168257833I0J762000D01*
G01*
X313290517Y-170797833D02*
G75*
G02*
X313290517Y-172321833I0J-762000D01*
G01*
X313290517Y-172321833D02*
G75*
G02*
X313290517Y-170797833I0J762000D01*
G01*
X314910517Y-168560133D02*
G75*
G02*
X314910517Y-168885533I0J-162700D01*
G01*
X314910517Y-168885533D02*
G75*
G02*
X314910517Y-168560133I0J162700D01*
G01*
X315290717Y-162669833D02*
G75*
G02*
X315354317Y-162669832I31800J-100D01*
G01*
X315290717Y-164574833D02*
G75*
G02*
X315354217Y-164574833I31750J0D01*
G01*
X315322517Y-162701533D02*
G75*
G02*
X315322517Y-162638133I0J31700D01*
G01*
X315322517Y-163971533D02*
G75*
G02*
X315322517Y-163908133I0J31700D01*
G01*
X315322517Y-164606633D02*
G75*
G02*
X315322517Y-164543033I0J31800D01*
G01*
X315322517Y-165876633D02*
G75*
G02*
X315322517Y-165813033I0J31800D01*
G01*
X315354217Y-163939833D02*
G75*
G02*
X315290717Y-163939833I-31750J-1D01*
G01*
X315354218Y-165844833D02*
G75*
G02*
X315290716Y-165844833I-31751J-1D01*
G01*
X317576717Y-162669832D02*
G75*
G02*
X317640117Y-162669834I31700J-201D01*
G01*
X317576717Y-164574833D02*
G75*
G02*
X317640217Y-164574833I31750J0D01*
G01*
X317608516Y-164543133D02*
G75*
G02*
X317608517Y-164606733I-99J-31800D01*
G01*
X317608517Y-162638133D02*
G75*
G02*
X317608517Y-162701533I0J-31700D01*
G01*
X317608517Y-163908133D02*
G75*
G02*
X317640217Y-163939833I0J-31700D01*
G01*
X317608517Y-165813133D02*
G75*
G02*
X317608515Y-165876533I-200J-31700D01*
G01*
X317640217Y-163939833D02*
G75*
G02*
X317576717Y-163939833I-31750J1D01*
G01*
X317640217Y-163939833D02*
G75*
G02*
X317608517Y-163971533I-31700J0D01*
G01*
X317640217Y-165844833D02*
G75*
G02*
X317576715Y-165844833I-31751J-1D01*
G01*
X318338817Y-154033833D02*
G75*
G02*
X318402217Y-154033833I31700J0D01*
G01*
X318370517Y-154065633D02*
G75*
G02*
X318370517Y-154002033I0J31800D01*
G01*
X318370517Y-171845633D02*
G75*
G02*
X318370517Y-171782033I0J31800D01*
G01*
X318402217Y-171813833D02*
G75*
G02*
X318338817Y-171813833I-31700J0D01*
G01*
X318827717Y-155240333D02*
G75*
G02*
X318929317Y-155240333I50800J0D01*
G01*
X318827717Y-160320334D02*
G75*
G02*
X318929317Y-160320333I50800J1D01*
G01*
X318827717Y-162860333D02*
G75*
G02*
X318929317Y-162860333I50800J0D01*
G01*
X318827717Y-165400333D02*
G75*
G02*
X318929317Y-165400333I50800J0D01*
G01*
X318827717Y-170480332D02*
G75*
G02*
X318929317Y-170480332I50800J0D01*
G01*
X318827916Y-165532333D02*
G75*
G02*
X318929118Y-165522333I50601J5000D01*
G01*
X318827917Y-155372333D02*
G75*
G02*
X318929117Y-155362333I50600J5000D01*
G01*
X318827917Y-160452333D02*
G75*
G02*
X318929117Y-160442333I50600J5000D01*
G01*
X318827917Y-162992333D02*
G75*
G02*
X318929117Y-162982333I50600J5000D01*
G01*
X318827917Y-170612333D02*
G75*
G02*
X318929117Y-170602333I50600J5000D01*
G01*
X318841416Y-155099033D02*
G75*
G02*
X318942518Y-155109033I50551J-5000D01*
G01*
X318841417Y-160179033D02*
G75*
G02*
X318942517Y-160189033I50550J-5000D01*
G01*
X318841417Y-162719033D02*
G75*
G02*
X318942517Y-162729033I50550J-5000D01*
G01*
X318841417Y-165259033D02*
G75*
G02*
X318942517Y-165269033I50550J-5000D01*
G01*
X318841417Y-170339033D02*
G75*
G02*
X318942517Y-170349033I50550J-5000D01*
G01*
X318843316Y-163138333D02*
G75*
G02*
X318940518Y-163108833I48601J14750D01*
G01*
X318843317Y-155518333D02*
G75*
G02*
X318940517Y-155488833I48600J14750D01*
G01*
X318843317Y-160598333D02*
G75*
G02*
X318940517Y-160568833I48600J14750D01*
G01*
X318843317Y-165678333D02*
G75*
G02*
X318940517Y-165648833I48600J14750D01*
G01*
X318843317Y-170758333D02*
G75*
G02*
X318940517Y-170728833I48600J14750D01*
G01*
X318878517Y-162974633D02*
G75*
G02*
X318878517Y-162873033I0J50800D01*
G01*
X318882217Y-155456233D02*
G75*
G02*
X318882217Y-155354633I0J50800D01*
G01*
X318882217Y-160536233D02*
G75*
G02*
X318882217Y-160434633I0J50800D01*
G01*
X318882217Y-165616233D02*
G75*
G02*
X318882217Y-165514633I0J50800D01*
G01*
X318882217Y-170696233D02*
G75*
G02*
X318882217Y-170594633I0J50800D01*
G01*
X318882317Y-155253033D02*
G75*
G02*
X318882317Y-155151433I0J50800D01*
G01*
X318882317Y-160333033D02*
G75*
G02*
X318882317Y-160231433I0J50800D01*
G01*
X318882317Y-165413033D02*
G75*
G02*
X318882317Y-165311433I0J50800D01*
G01*
X318882317Y-170493033D02*
G75*
G02*
X318882317Y-170391433I0J50800D01*
G01*
X318883117Y-154958333D02*
G75*
G02*
X318980317Y-154987732I48600J-14700D01*
G01*
X318883117Y-160038333D02*
G75*
G02*
X318980317Y-160067733I48600J-14700D01*
G01*
X318883117Y-162578333D02*
G75*
G02*
X318980317Y-162607733I48600J-14700D01*
G01*
X318883117Y-165118333D02*
G75*
G02*
X318980317Y-165147733I48600J-14700D01*
G01*
X318883117Y-170198333D02*
G75*
G02*
X318980317Y-170227733I48600J-14700D01*
G01*
X318886917Y-155658633D02*
G75*
G02*
X318976517Y-155610733I44800J23950D01*
G01*
X318886917Y-160738633D02*
G75*
G02*
X318976517Y-160690732I44800J23950D01*
G01*
X318886917Y-163278633D02*
G75*
G02*
X318976517Y-163230734I44800J23950D01*
G01*
X318886917Y-165818633D02*
G75*
G02*
X318976517Y-165770733I44800J23950D01*
G01*
X318886917Y-170898633D02*
G75*
G02*
X318976517Y-170850733I44800J23950D01*
G01*
X318893017Y-162771433D02*
G75*
G02*
X318893017Y-162669833I0J50800D01*
G01*
X318893017Y-163177833D02*
G75*
G02*
X318893017Y-163076233I0J50800D01*
G01*
X318923816Y-155659433D02*
G75*
G02*
X318923816Y-155557833I1J50800D01*
G01*
X318923817Y-155049833D02*
G75*
G02*
X318923817Y-154948233I0J50800D01*
G01*
X318923817Y-160129833D02*
G75*
G02*
X318923817Y-160028233I0J50800D01*
G01*
X318923817Y-160739433D02*
G75*
G02*
X318923817Y-160637833I0J50800D01*
G01*
X318923817Y-165209833D02*
G75*
G02*
X318923817Y-165108233I0J50800D01*
G01*
X318923817Y-165819432D02*
G75*
G02*
X318923817Y-165717834I0J50799D01*
G01*
X318923817Y-170289834D02*
G75*
G02*
X318923816Y-170188232I0J50801D01*
G01*
X318923817Y-170899433D02*
G75*
G02*
X318923817Y-170797833I0J50800D01*
G01*
X318929117Y-155245333D02*
G75*
G02*
X318827917Y-155235333I-50600J5000D01*
G01*
X318929117Y-162865333D02*
G75*
G02*
X318827917Y-162855333I-50600J5000D01*
G01*
X318929117Y-165405333D02*
G75*
G02*
X318827917Y-165395333I-50600J5000D01*
G01*
X318929118Y-160325333D02*
G75*
G02*
X318827916Y-160315333I-50601J5000D01*
G01*
X318929118Y-170485333D02*
G75*
G02*
X318827916Y-170475332I-50601J5000D01*
G01*
X318929317Y-155367334D02*
G75*
G02*
X318827717Y-155367334I-50800J0D01*
G01*
X318929317Y-160447333D02*
G75*
G02*
X318827717Y-160447333I-50800J0D01*
G01*
X318929317Y-162987333D02*
G75*
G02*
X318827717Y-162987333I-50800J0D01*
G01*
X318929317Y-170607333D02*
G75*
G02*
X318827717Y-170607333I-50800J0D01*
G01*
X318929318Y-165527333D02*
G75*
G02*
X318827716Y-165527334I-50801J0D01*
G01*
X318940517Y-155118833D02*
G75*
G02*
X318843289Y-155089325I-48600J14800D01*
G01*
X318940517Y-162738833D02*
G75*
G02*
X318843289Y-162709325I-48600J14800D01*
G01*
X318940517Y-165278833D02*
G75*
G02*
X318843289Y-165249325I-48600J14800D01*
G01*
X318940518Y-160198833D02*
G75*
G02*
X318843288Y-160169325I-48601J14800D01*
G01*
X318940518Y-170358833D02*
G75*
G02*
X318843288Y-170329324I-48601J14800D01*
G01*
X318942516Y-163118633D02*
G75*
G02*
X318841418Y-163128633I-50549J-5000D01*
G01*
X318942516Y-165658633D02*
G75*
G02*
X318841418Y-165668633I-50549J-5000D01*
G01*
X318942517Y-155498633D02*
G75*
G02*
X318841417Y-155508633I-50550J-5000D01*
G01*
X318942517Y-160578633D02*
G75*
G02*
X318841417Y-160588633I-50550J-5000D01*
G01*
X318942517Y-170738633D02*
G75*
G02*
X318841417Y-170748633I-50550J-5000D01*
G01*
X318951417Y-154828333D02*
G75*
G02*
X319040975Y-154876211I44800J-23900D01*
G01*
X318951417Y-162448333D02*
G75*
G02*
X319040975Y-162496211I44800J-23900D01*
G01*
X318951417Y-164988333D02*
G75*
G02*
X319040975Y-165036211I44800J-23900D01*
G01*
X318951418Y-159908333D02*
G75*
G02*
X319040975Y-159956210I44799J-23900D01*
G01*
X318951418Y-170068333D02*
G75*
G02*
X319040975Y-170116210I44799J-23900D01*
G01*
X318956917Y-155787633D02*
G75*
G02*
X319035517Y-155723133I39300J32250D01*
G01*
X318956917Y-160867633D02*
G75*
G02*
X319035517Y-160803133I39300J32250D01*
G01*
X318956917Y-163407633D02*
G75*
G02*
X319035517Y-163343133I39300J32250D01*
G01*
X318956917Y-165947633D02*
G75*
G02*
X319035517Y-165883133I39300J32250D01*
G01*
X318956917Y-171027633D02*
G75*
G02*
X319035517Y-170963133I39300J32250D01*
G01*
X318972117Y-162568233D02*
G75*
G02*
X318972117Y-162466633I0J50800D01*
G01*
X318972117Y-163381033D02*
G75*
G02*
X318972117Y-163279433I0J50800D01*
G01*
X318976517Y-154996933D02*
G75*
G02*
X318886959Y-154949055I-44800J23900D01*
G01*
X318976517Y-160076933D02*
G75*
G02*
X318886959Y-160029055I-44800J23900D01*
G01*
X318976517Y-162616932D02*
G75*
G02*
X318886876Y-162569011I-44800J23999D01*
G01*
X318976517Y-165156933D02*
G75*
G02*
X318886875Y-165109011I-44800J24000D01*
G01*
X318976517Y-170236933D02*
G75*
G02*
X318886875Y-170189011I-44800J24000D01*
G01*
X318980317Y-155619933D02*
G75*
G02*
X318883117Y-155649333I-48600J-14700D01*
G01*
X318980317Y-160699933D02*
G75*
G02*
X318883117Y-160729333I-48600J-14700D01*
G01*
X318980317Y-163239933D02*
G75*
G02*
X318883117Y-163269333I-48600J-14700D01*
G01*
X318980317Y-165779933D02*
G75*
G02*
X318883117Y-165809333I-48600J-14700D01*
G01*
X318980317Y-170859934D02*
G75*
G02*
X318883117Y-170889333I-48600J-14699D01*
G01*
X318992017Y-157780333D02*
G75*
G02*
X319093617Y-157780333I50800J0D01*
G01*
X318992017Y-167940333D02*
G75*
G02*
X319093617Y-167940333I50800J0D01*
G01*
X318992117Y-157910433D02*
G75*
G02*
X319093517Y-157904233I50700J3100D01*
G01*
X318992117Y-168070433D02*
G75*
G02*
X319093517Y-168064233I50700J3100D01*
G01*
X319000217Y-157645333D02*
G75*
G02*
X319101617Y-157651532I50700J-3100D01*
G01*
X319000217Y-167805333D02*
G75*
G02*
X319101617Y-167811533I50700J-3100D01*
G01*
X319001717Y-158052132D02*
G75*
G02*
X319100017Y-158026233I49150J12949D01*
G01*
X319001717Y-168212133D02*
G75*
G02*
X319100017Y-168186233I49150J12950D01*
G01*
X319005517Y-152329833D02*
G75*
G02*
X320910517Y-154234833I0J-1905000D01*
G01*
X319005517Y-152329833D02*
G75*
G02*
X320910517Y-154234833I0J-1905000D01*
G01*
X319005517Y-152332333D02*
G75*
G02*
X319005518Y-152327333I0J2500D01*
G01*
X319005517Y-173462333D02*
G75*
G02*
X319005517Y-173467333I0J-2500D01*
G01*
X319005517Y-173467333D02*
G75*
G02*
X319005517Y-173462333I0J2500D01*
G01*
X319005518Y-152327333D02*
G75*
G02*
X319005517Y-152332333I-1J-2500D01*
G01*
X319035417Y-157507733D02*
G75*
G02*
X319133592Y-157533626I49100J-12900D01*
G01*
X319035417Y-167667733D02*
G75*
G02*
X319133592Y-167693626I49100J-12900D01*
G01*
X319035517Y-154884533D02*
G75*
G02*
X318956868Y-154819993I-39300J32300D01*
G01*
X319035517Y-159964533D02*
G75*
G02*
X318956868Y-159899993I-39300J32300D01*
G01*
X319035517Y-162504533D02*
G75*
G02*
X318956868Y-162439993I-39300J32300D01*
G01*
X319035517Y-165044533D02*
G75*
G02*
X318956868Y-164979993I-39300J32300D01*
G01*
X319035517Y-170124533D02*
G75*
G02*
X318956868Y-170059993I-39300J32300D01*
G01*
X319038817Y-158189233D02*
G75*
G02*
X319130217Y-158144733I45700J22250D01*
G01*
X319038817Y-168349233D02*
G75*
G02*
X319130217Y-168304733I45700J22250D01*
G01*
X319041016Y-170971433D02*
G75*
G02*
X318951418Y-171019333I-44799J-23950D01*
G01*
X319041017Y-155731433D02*
G75*
G02*
X318951417Y-155779334I-44800J-23950D01*
G01*
X319041017Y-160811433D02*
G75*
G02*
X318951417Y-160859333I-44800J-23950D01*
G01*
X319041017Y-163351433D02*
G75*
G02*
X318951417Y-163399333I-44800J-23950D01*
G01*
X319041017Y-165891433D02*
G75*
G02*
X318951417Y-165939333I-44800J-23950D01*
G01*
X319042517Y-154846634D02*
G75*
G02*
X319042517Y-154745032I0J50801D01*
G01*
X319042517Y-155862633D02*
G75*
G02*
X319042517Y-155761033I0J50800D01*
G01*
X319042517Y-159926633D02*
G75*
G02*
X319042517Y-159825033I0J50800D01*
G01*
X319042517Y-160942634D02*
G75*
G02*
X319042518Y-160841032I0J50801D01*
G01*
X319042517Y-166022633D02*
G75*
G02*
X319042517Y-165921033I0J50800D01*
G01*
X319042517Y-170086633D02*
G75*
G02*
X319042517Y-169985033I0J50800D01*
G01*
X319042517Y-171102632D02*
G75*
G02*
X319042517Y-171001034I0J50799D01*
G01*
X319042518Y-165006633D02*
G75*
G02*
X319042518Y-164905033I-1J50800D01*
G01*
X319042817Y-157894633D02*
G75*
G02*
X319042817Y-157793033I0J50800D01*
G01*
X319042817Y-168054633D02*
G75*
G02*
X319042817Y-167953033I0J50800D01*
G01*
X319043817Y-154714233D02*
G75*
G02*
X319050917Y-154707133I39300J-32200D01*
G01*
X319043817Y-154714233D02*
G75*
G02*
X319122417Y-154778633I39300J-32200D01*
G01*
X319043817Y-159794233D02*
G75*
G02*
X319050917Y-159787133I39300J-32200D01*
G01*
X319043817Y-159794233D02*
G75*
G02*
X319122417Y-159858633I39300J-32200D01*
G01*
X319043817Y-162334233D02*
G75*
G02*
X319050917Y-162327133I39300J-32200D01*
G01*
X319043817Y-162334233D02*
G75*
G02*
X319122417Y-162398633I39300J-32200D01*
G01*
X319043817Y-164874233D02*
G75*
G02*
X319050917Y-164867133I39300J-32200D01*
G01*
X319043817Y-164874233D02*
G75*
G02*
X319122417Y-164938633I39300J-32200D01*
G01*
X319043817Y-169954233D02*
G75*
G02*
X319050917Y-169947133I39300J-32200D01*
G01*
X319043817Y-169954233D02*
G75*
G02*
X319122417Y-170018633I39300J-32200D01*
G01*
X319050917Y-155900533D02*
G75*
G02*
X319043817Y-155893433I32200J39300D01*
G01*
X319050917Y-155900533D02*
G75*
G02*
X319115317Y-155821933I32200J39300D01*
G01*
X319050917Y-160980533D02*
G75*
G02*
X319043817Y-160973433I32200J39300D01*
G01*
X319050917Y-160980533D02*
G75*
G02*
X319115317Y-160901933I32200J39300D01*
G01*
X319050917Y-163520533D02*
G75*
G02*
X319043817Y-163513433I32200J39300D01*
G01*
X319050917Y-163520533D02*
G75*
G02*
X319115317Y-163441933I32200J39300D01*
G01*
X319050917Y-166060533D02*
G75*
G02*
X319043817Y-166053433I32200J39300D01*
G01*
X319050917Y-166060533D02*
G75*
G02*
X319115317Y-165981933I32200J39300D01*
G01*
X319050917Y-171140533D02*
G75*
G02*
X319043817Y-171133433I32200J39300D01*
G01*
X319050917Y-171140533D02*
G75*
G02*
X319115317Y-171061933I32200J39300D01*
G01*
X319052917Y-157691433D02*
G75*
G02*
X319052917Y-157589833I0J50800D01*
G01*
X319052917Y-158097833D02*
G75*
G02*
X319052917Y-157996233I0J50800D01*
G01*
X319052917Y-167851433D02*
G75*
G02*
X319052917Y-167749833I0J50800D01*
G01*
X319052917Y-168257833D02*
G75*
G02*
X319052917Y-168156233I0J50800D01*
G01*
X319093517Y-157783433D02*
G75*
G02*
X318992117Y-157777233I-50700J3100D01*
G01*
X319093517Y-167943433D02*
G75*
G02*
X318992117Y-167937233I-50700J3100D01*
G01*
X319093617Y-157907333D02*
G75*
G02*
X318992017Y-157907333I-50800J0D01*
G01*
X319093617Y-168067333D02*
G75*
G02*
X318992017Y-168067333I-50800J0D01*
G01*
X319096817Y-157379633D02*
G75*
G02*
X319188119Y-157424234I45700J-22200D01*
G01*
X319096817Y-167539633D02*
G75*
G02*
X319188119Y-167584234I45700J-22200D01*
G01*
X319100017Y-157661433D02*
G75*
G02*
X319001717Y-157635533I-49150J12950D01*
G01*
X319100017Y-167821433D02*
G75*
G02*
X319001717Y-167795534I-49150J12950D01*
G01*
X319101617Y-158036133D02*
G75*
G02*
X319000217Y-158042333I-50700J-3100D01*
G01*
X319101617Y-168196134D02*
G75*
G02*
X319000217Y-168202333I-50700J-3099D01*
G01*
X319102017Y-158316433D02*
G75*
G02*
X319182917Y-158254933I40450J30750D01*
G01*
X319102017Y-168476434D02*
G75*
G02*
X319182917Y-168414933I40450J30751D01*
G01*
X319115317Y-154785733D02*
G75*
G02*
X319043817Y-154714233I-32200J39300D01*
G01*
X319115317Y-159865733D02*
G75*
G02*
X319043817Y-159794233I-32200J39300D01*
G01*
X319115317Y-162405733D02*
G75*
G02*
X319043817Y-162334233I-32200J39300D01*
G01*
X319115317Y-164945733D02*
G75*
G02*
X319043817Y-164874233I-32200J39300D01*
G01*
X319115317Y-170025733D02*
G75*
G02*
X319043817Y-169954233I-32200J39300D01*
G01*
X319122419Y-155829033D02*
G75*
G02*
X319050916Y-155900534I-39302J-32200D01*
G01*
X319122419Y-160909033D02*
G75*
G02*
X319050916Y-160980534I-39302J-32200D01*
G01*
X319122419Y-163449033D02*
G75*
G02*
X319050916Y-163520534I-39302J-32200D01*
G01*
X319122419Y-165989033D02*
G75*
G02*
X319050916Y-166060534I-39302J-32200D01*
G01*
X319122419Y-171069033D02*
G75*
G02*
X319050916Y-171140534I-39302J-32200D01*
G01*
X319125117Y-157488233D02*
G75*
G02*
X319125117Y-157386633I0J50800D01*
G01*
X319125117Y-158301033D02*
G75*
G02*
X319125117Y-158199433I0J50800D01*
G01*
X319125117Y-167648233D02*
G75*
G02*
X319125117Y-167546633I0J50800D01*
G01*
X319125117Y-168461033D02*
G75*
G02*
X319125117Y-168359433I0J50800D01*
G01*
X319130217Y-157542933D02*
G75*
G02*
X319038778Y-157498414I-45700J22300D01*
G01*
X319130217Y-167702933D02*
G75*
G02*
X319038778Y-167658414I-45700J22300D01*
G01*
X319133617Y-158154033D02*
G75*
G02*
X319035417Y-158179933I-49100J-12950D01*
G01*
X319133617Y-168314033D02*
G75*
G02*
X319035417Y-168339933I-49100J-12950D01*
G01*
X319146717Y-162365033D02*
G75*
G02*
X319146717Y-162263433I0J50800D01*
G01*
X319146717Y-163584233D02*
G75*
G02*
X319146717Y-163482633I0J50800D01*
G01*
X319156717Y-154620233D02*
G75*
G02*
X319221177Y-154698784I32200J-39300D01*
G01*
X319156717Y-162240233D02*
G75*
G02*
X319221177Y-162318784I32200J-39300D01*
G01*
X319156717Y-164780233D02*
G75*
G02*
X319221177Y-164858784I32200J-39300D01*
G01*
X319156718Y-159700233D02*
G75*
G02*
X319221176Y-159778784I32199J-39300D01*
G01*
X319156718Y-169860233D02*
G75*
G02*
X319221176Y-169938784I32199J-39300D01*
G01*
X319165017Y-155992934D02*
G75*
G02*
X319212895Y-155903374I23900J44801D01*
G01*
X319165017Y-161072933D02*
G75*
G02*
X319212895Y-160983375I23900J44800D01*
G01*
X319165017Y-163612933D02*
G75*
G02*
X319212895Y-163523375I23900J44800D01*
G01*
X319165017Y-171232933D02*
G75*
G02*
X319212895Y-171143375I23900J44800D01*
G01*
X319165018Y-166152933D02*
G75*
G02*
X319212895Y-166063375I23899J44800D01*
G01*
X319181917Y-157266033D02*
G75*
G02*
X319262832Y-157327545I40500J-30700D01*
G01*
X319181917Y-167426033D02*
G75*
G02*
X319262832Y-167487545I40500J-30700D01*
G01*
X319182917Y-157432733D02*
G75*
G02*
X319102032Y-157371245I-40400J30800D01*
G01*
X319182917Y-167592733D02*
G75*
G02*
X319102032Y-167531245I-40400J30800D01*
G01*
X319188117Y-158263433D02*
G75*
G02*
X319096817Y-158308033I-45660J-22280D01*
G01*
X319188117Y-168423433D02*
G75*
G02*
X319096817Y-168468033I-45660J-22280D01*
G01*
X319188717Y-158428933D02*
G75*
G02*
X319256017Y-158352833I33650J38050D01*
G01*
X319188717Y-168588933D02*
G75*
G02*
X319256017Y-168512833I33650J38050D01*
G01*
X319212917Y-154704333D02*
G75*
G02*
X319164995Y-154614691I-24000J44800D01*
G01*
X319212917Y-159784333D02*
G75*
G02*
X319164996Y-159694691I-24000J44800D01*
G01*
X319212917Y-162324333D02*
G75*
G02*
X319164995Y-162234691I-24000J44800D01*
G01*
X319212917Y-164864333D02*
G75*
G02*
X319164995Y-164774691I-24000J44800D01*
G01*
X319212917Y-169944333D02*
G75*
G02*
X319164996Y-169854691I-24000J44800D01*
G01*
X319221217Y-155908832D02*
G75*
G02*
X319156677Y-155987483I-32300J-39301D01*
G01*
X319221217Y-160988833D02*
G75*
G02*
X319156677Y-161067482I-32300J-39300D01*
G01*
X319221217Y-163528833D02*
G75*
G02*
X319156677Y-163607482I-32300J-39300D01*
G01*
X319221217Y-166068833D02*
G75*
G02*
X319156677Y-166147483I-32300J-39300D01*
G01*
X319221217Y-171148833D02*
G75*
G02*
X319156677Y-171227482I-32300J-39300D01*
G01*
X319256017Y-157334833D02*
G75*
G02*
X319188711Y-157258727I-33600J38100D01*
G01*
X319256017Y-167494833D02*
G75*
G02*
X319188711Y-167418727I-33600J38100D01*
G01*
X319262817Y-158360133D02*
G75*
G02*
X319181917Y-158421633I-40450J-30750D01*
G01*
X319262817Y-168520133D02*
G75*
G02*
X319181917Y-168581633I-40450J-30750D01*
G01*
X319285716Y-164710233D02*
G75*
G02*
X319333595Y-164799792I23901J-44800D01*
G01*
X319285717Y-154550233D02*
G75*
G02*
X319333595Y-154639791I23900J-44800D01*
G01*
X319285717Y-159630233D02*
G75*
G02*
X319333595Y-159719791I23900J-44800D01*
G01*
X319285717Y-162170233D02*
G75*
G02*
X319333595Y-162259791I23900J-44800D01*
G01*
X319285717Y-169790233D02*
G75*
G02*
X319333595Y-169879791I23900J-44800D01*
G01*
X319287717Y-157171133D02*
G75*
G02*
X319355023Y-157247239I33600J-38100D01*
G01*
X319287717Y-167331133D02*
G75*
G02*
X319355023Y-167407239I33600J-38100D01*
G01*
X319293117Y-157285033D02*
G75*
G02*
X319293117Y-157183433I0J50800D01*
G01*
X319293117Y-158504232D02*
G75*
G02*
X319293117Y-158402634I0J50799D01*
G01*
X319293117Y-167445033D02*
G75*
G02*
X319293117Y-167343433I0J50800D01*
G01*
X319293117Y-168664233D02*
G75*
G02*
X319293117Y-168562633I0J50800D01*
G01*
X319295017Y-156061233D02*
G75*
G02*
X319324417Y-155964033I14700J48600D01*
G01*
X319295017Y-161141232D02*
G75*
G02*
X319324417Y-161044034I14700J48599D01*
G01*
X319295017Y-163681233D02*
G75*
G02*
X319324417Y-163584033I14700J48600D01*
G01*
X319295017Y-166221233D02*
G75*
G02*
X319324417Y-166124033I14700J48600D01*
G01*
X319295017Y-171301232D02*
G75*
G02*
X319324417Y-171204034I14700J48599D01*
G01*
X319295716Y-158522333D02*
G75*
G02*
X319346917Y-158434533I25601J43900D01*
G01*
X319295717Y-168682332D02*
G75*
G02*
X319346917Y-168594534I25600J43899D01*
G01*
X319317516Y-159723433D02*
G75*
G02*
X319317516Y-159621833I1J50800D01*
G01*
X319317517Y-154643433D02*
G75*
G02*
X319317517Y-154541833I0J50800D01*
G01*
X319317517Y-156065833D02*
G75*
G02*
X319317517Y-155964233I0J50800D01*
G01*
X319317517Y-161145833D02*
G75*
G02*
X319317517Y-161044233I0J50800D01*
G01*
X319317517Y-164803433D02*
G75*
G02*
X319317517Y-164701833I0J50800D01*
G01*
X319317517Y-166225834D02*
G75*
G02*
X319317516Y-166124232I0J50801D01*
G01*
X319317517Y-169883432D02*
G75*
G02*
X319317517Y-169781834I0J50799D01*
G01*
X319317517Y-171305833D02*
G75*
G02*
X319317517Y-171204233I0J50800D01*
G01*
X319324416Y-154643633D02*
G75*
G02*
X319295017Y-154546433I-14699J48600D01*
G01*
X319324417Y-159723633D02*
G75*
G02*
X319295017Y-159626433I-14700J48600D01*
G01*
X319324417Y-162263633D02*
G75*
G02*
X319295017Y-162166433I-14700J48600D01*
G01*
X319324417Y-164803633D02*
G75*
G02*
X319295017Y-164706433I-14700J48600D01*
G01*
X319324417Y-169883633D02*
G75*
G02*
X319295017Y-169786433I-14700J48600D01*
G01*
X319333617Y-155967833D02*
G75*
G02*
X319285695Y-156057475I-24000J-44800D01*
G01*
X319333617Y-161047833D02*
G75*
G02*
X319285694Y-161137474I-24000J-44800D01*
G01*
X319333617Y-163587833D02*
G75*
G02*
X319285695Y-163677475I-24000J-44800D01*
G01*
X319333617Y-166127833D02*
G75*
G02*
X319285695Y-166217475I-24000J-44800D01*
G01*
X319333617Y-171207833D02*
G75*
G02*
X319285694Y-171297474I-24000J-44800D01*
G01*
X319346917Y-157253133D02*
G75*
G02*
X319295717Y-157165333I-25600J43900D01*
G01*
X319346917Y-167413133D02*
G75*
G02*
X319295716Y-167325333I-25600J43900D01*
G01*
X319355017Y-158440433D02*
G75*
G02*
X319287717Y-158516533I-33650J-38050D01*
G01*
X319355017Y-168600433D02*
G75*
G02*
X319287717Y-168676533I-33650J-38050D01*
G01*
X319409917Y-167258832D02*
G75*
G02*
X319461074Y-167346459I25600J-43801D01*
G01*
X319409918Y-157098833D02*
G75*
G02*
X319461160Y-157186607I25599J-43900D01*
G01*
X319418917Y-158593032D02*
G75*
G02*
X319452017Y-158496934I16550J48049D01*
G01*
X319418917Y-168753032D02*
G75*
G02*
X319452017Y-168656934I16550J48049D01*
G01*
X319426016Y-162126633D02*
G75*
G02*
X319455517Y-162223833I14751J-48600D01*
G01*
X319426017Y-154506633D02*
G75*
G02*
X319455517Y-154603833I14750J-48600D01*
G01*
X319426017Y-159586633D02*
G75*
G02*
X319455518Y-159683833I14750J-48600D01*
G01*
X319426017Y-164666633D02*
G75*
G02*
X319455517Y-164763833I14750J-48600D01*
G01*
X319426017Y-169746633D02*
G75*
G02*
X319455518Y-169843833I14750J-48600D01*
G01*
X319435717Y-156102932D02*
G75*
G02*
X319445717Y-156001834I5000J50549D01*
G01*
X319435717Y-161182933D02*
G75*
G02*
X319445717Y-161081833I5000J50550D01*
G01*
X319435717Y-163722933D02*
G75*
G02*
X319445717Y-163621833I5000J50550D01*
G01*
X319435717Y-166262933D02*
G75*
G02*
X319445717Y-166161833I5000J50550D01*
G01*
X319435717Y-171342933D02*
G75*
G02*
X319445717Y-171241833I5000J50550D01*
G01*
X319445717Y-154605833D02*
G75*
G02*
X319435717Y-154504733I-5000J50550D01*
G01*
X319445717Y-159685833D02*
G75*
G02*
X319435717Y-159584733I-5000J50550D01*
G01*
X319445717Y-162225832D02*
G75*
G02*
X319435717Y-162124734I-5000J50549D01*
G01*
X319445717Y-164765833D02*
G75*
G02*
X319435717Y-164664733I-5000J50550D01*
G01*
X319445717Y-169845833D02*
G75*
G02*
X319435717Y-169744733I-5000J50550D01*
G01*
X319452017Y-157190733D02*
G75*
G02*
X319418917Y-157094633I-16550J48050D01*
G01*
X319452017Y-167350733D02*
G75*
G02*
X319418917Y-167254633I-16550J48050D01*
G01*
X319455517Y-161083833D02*
G75*
G02*
X319426017Y-161181033I-14750J-48600D01*
G01*
X319455517Y-163623833D02*
G75*
G02*
X319426017Y-163721033I-14750J-48600D01*
G01*
X319455517Y-171243833D02*
G75*
G02*
X319426017Y-171341033I-14750J-48600D01*
G01*
X319455518Y-156003833D02*
G75*
G02*
X319426017Y-156101033I-14751J-48600D01*
G01*
X319455518Y-166163833D02*
G75*
G02*
X319426017Y-166261033I-14751J-48600D01*
G01*
X319461117Y-158501132D02*
G75*
G02*
X319409917Y-158588834I-25600J-43851D01*
G01*
X319461117Y-168661133D02*
G75*
G02*
X319409918Y-168748833I-25600J-43850D01*
G01*
X319543817Y-157051633D02*
G75*
G02*
X319576917Y-157147733I16550J-48050D01*
G01*
X319543817Y-167211633D02*
G75*
G02*
X319576917Y-167307733I16550J-48050D01*
G01*
X319553517Y-158638333D02*
G75*
G02*
X319567217Y-158537633I6850J50350D01*
G01*
X319553517Y-168798333D02*
G75*
G02*
X319567217Y-168697633I6850J50350D01*
G01*
X319567217Y-157150032D02*
G75*
G02*
X319553517Y-157049334I-6850J50349D01*
G01*
X319567217Y-167310033D02*
G75*
G02*
X319553517Y-167209333I-6850J50350D01*
G01*
X319572017Y-154491233D02*
G75*
G02*
X319582017Y-154592433I5000J-50600D01*
G01*
X319572017Y-159571233D02*
G75*
G02*
X319582018Y-159672433I5000J-50600D01*
G01*
X319572017Y-164651233D02*
G75*
G02*
X319582017Y-164752433I5000J-50600D01*
G01*
X319572017Y-169731233D02*
G75*
G02*
X319582018Y-169832433I5000J-50600D01*
G01*
X319572018Y-162111233D02*
G75*
G02*
X319582017Y-162212433I4999J-50600D01*
G01*
X319576917Y-158539933D02*
G75*
G02*
X319543817Y-158636033I-16550J-48050D01*
G01*
X319576917Y-168699933D02*
G75*
G02*
X319543817Y-168796033I-16550J-48050D01*
G01*
X319577017Y-154592633D02*
G75*
G02*
X319577017Y-154491033I0J50800D01*
G01*
X319577017Y-156116633D02*
G75*
G02*
X319577017Y-156015033I0J50800D01*
G01*
X319577017Y-161196633D02*
G75*
G02*
X319577017Y-161095033I0J50800D01*
G01*
X319577017Y-162212633D02*
G75*
G02*
X319577017Y-162111033I0J50800D01*
G01*
X319577017Y-164752633D02*
G75*
G02*
X319577017Y-164651033I0J50800D01*
G01*
X319577017Y-166276634D02*
G75*
G02*
X319577018Y-166175032I0J50801D01*
G01*
X319577017Y-169832633D02*
G75*
G02*
X319577017Y-169731033I0J50800D01*
G01*
X319577017Y-171356633D02*
G75*
G02*
X319577017Y-171255033I0J50800D01*
G01*
X319577018Y-159672633D02*
G75*
G02*
X319577018Y-159571033I-1J50800D01*
G01*
X319577018Y-163736633D02*
G75*
G02*
X319577017Y-163635033I-1J50800D01*
G01*
X319582017Y-161095233D02*
G75*
G02*
X319572017Y-161196433I-5000J-50600D01*
G01*
X319582017Y-163635233D02*
G75*
G02*
X319572018Y-163736433I-5000J-50600D01*
G01*
X319582017Y-171255233D02*
G75*
G02*
X319572017Y-171356433I-5000J-50600D01*
G01*
X319582018Y-156015233D02*
G75*
G02*
X319572017Y-156116433I-5001J-50600D01*
G01*
X319582018Y-166175233D02*
G75*
G02*
X319572017Y-166276433I-5001J-50600D01*
G01*
X319684417Y-157031533D02*
G75*
G02*
X319698217Y-157132133I6900J-50300D01*
G01*
X319684417Y-167191533D02*
G75*
G02*
X319698217Y-167292133I6900J-50300D01*
G01*
X319691316Y-158656633D02*
G75*
G02*
X319691316Y-158555033I1J50800D01*
G01*
X319691317Y-157132633D02*
G75*
G02*
X319691317Y-157031033I0J50800D01*
G01*
X319691317Y-167292634D02*
G75*
G02*
X319691316Y-167191032I0J50801D01*
G01*
X319691317Y-168816632D02*
G75*
G02*
X319691317Y-168715034I0J50799D01*
G01*
X319698217Y-158555533D02*
G75*
G02*
X319684417Y-158656133I-6900J-50300D01*
G01*
X319698217Y-168715533D02*
G75*
G02*
X319684417Y-168816133I-6900J-50300D01*
G01*
X320859717Y-154541833D02*
G75*
G02*
X320961317Y-154541833I50800J0D01*
G01*
X320859717Y-157081833D02*
G75*
G02*
X320961317Y-157081833I50800J0D01*
G01*
X320859717Y-159621832D02*
G75*
G02*
X320961317Y-159621832I50800J0D01*
G01*
X320859717Y-162161833D02*
G75*
G02*
X320961317Y-162161833I50800J0D01*
G01*
X320859717Y-164701833D02*
G75*
G02*
X320961317Y-164701833I50800J0D01*
G01*
X320859717Y-167241833D02*
G75*
G02*
X320961317Y-167241833I50800J0D01*
G01*
X320859717Y-169781833D02*
G75*
G02*
X320961317Y-169781833I50800J0D01*
G01*
X320878817Y-154033833D02*
G75*
G02*
X320942217Y-154033833I31700J0D01*
G01*
X320908017Y-154234833D02*
G75*
G02*
X320913017Y-154234833I2500J0D01*
G01*
X320908017Y-171559833D02*
G75*
G02*
X320913017Y-171559833I2500J0D01*
G01*
X320910517Y-154002033D02*
G75*
G02*
X320910517Y-154065633I0J-31800D01*
G01*
X320910517Y-154491033D02*
G75*
G02*
X320961317Y-154541833I0J-50800D01*
G01*
X320910517Y-154541833D02*
G75*
G02*
X320910517Y-154643433I0J-50800D01*
G01*
X320910517Y-154745033D02*
G75*
G02*
X320910517Y-154846633I0J-50800D01*
G01*
X320910517Y-154948233D02*
G75*
G02*
X320910517Y-155049833I0J-50800D01*
G01*
X320910517Y-155151433D02*
G75*
G02*
X320910517Y-155253033I0J-50800D01*
G01*
X320910517Y-155354632D02*
G75*
G02*
X320910517Y-155456232I0J-50800D01*
G01*
X320910517Y-155557832D02*
G75*
G02*
X320910517Y-155659434I-1J-50801D01*
G01*
X320910517Y-155761034D02*
G75*
G02*
X320910517Y-155862634I0J-50800D01*
G01*
X320910517Y-155964233D02*
G75*
G02*
X320910517Y-156065833I0J-50800D01*
G01*
X320910517Y-156015033D02*
G75*
G02*
X320961317Y-156065833I0J-50800D01*
G01*
X320910517Y-157031033D02*
G75*
G02*
X320961317Y-157081833I0J-50800D01*
G01*
X320910517Y-157183433D02*
G75*
G02*
X320910517Y-157285033I0J-50800D01*
G01*
X320910517Y-157386633D02*
G75*
G02*
X320910517Y-157488233I1J-50800D01*
G01*
X320910517Y-157589832D02*
G75*
G02*
X320910517Y-157691432I0J-50800D01*
G01*
X320910517Y-157793034D02*
G75*
G02*
X320910517Y-157894634I0J-50800D01*
G01*
X320910517Y-157996234D02*
G75*
G02*
X320910517Y-158097832I0J-50799D01*
G01*
X320910517Y-158199433D02*
G75*
G02*
X320910517Y-158301033I0J-50800D01*
G01*
X320910517Y-158402633D02*
G75*
G02*
X320910517Y-158504233I0J-50800D01*
G01*
X320910517Y-158555033D02*
G75*
G02*
X320961317Y-158605833I0J-50800D01*
G01*
X320910517Y-159571032D02*
G75*
G02*
X320961318Y-159621832I0J-50801D01*
G01*
X320910517Y-159621832D02*
G75*
G02*
X320910517Y-159723432I0J-50800D01*
G01*
X320910517Y-159825034D02*
G75*
G02*
X320910517Y-159926634I0J-50800D01*
G01*
X320910517Y-160028234D02*
G75*
G02*
X320910517Y-160129832I0J-50799D01*
G01*
X320910517Y-160231433D02*
G75*
G02*
X320910517Y-160333033I0J-50800D01*
G01*
X320910517Y-160434633D02*
G75*
G02*
X320910517Y-160536233I0J-50800D01*
G01*
X320910517Y-160637833D02*
G75*
G02*
X320910517Y-160739433I0J-50800D01*
G01*
X320910517Y-160841033D02*
G75*
G02*
X320910517Y-160942633I0J-50800D01*
G01*
X320910517Y-161044233D02*
G75*
G02*
X320910517Y-161145833I0J-50800D01*
G01*
X320910517Y-161095033D02*
G75*
G02*
X320961317Y-161145833I0J-50800D01*
G01*
X320910517Y-162111034D02*
G75*
G02*
X320961317Y-162161833I-2J-50802D01*
G01*
X320910517Y-162263433D02*
G75*
G02*
X320910517Y-162365033I0J-50800D01*
G01*
X320910517Y-162466633D02*
G75*
G02*
X320910517Y-162568233I0J-50800D01*
G01*
X320910517Y-162669833D02*
G75*
G02*
X320910517Y-162771433I0J-50800D01*
G01*
X320910517Y-162873033D02*
G75*
G02*
X320910517Y-162974633I0J-50800D01*
G01*
X320910517Y-163076233D02*
G75*
G02*
X320910517Y-163177833I0J-50800D01*
G01*
X320910517Y-163279433D02*
G75*
G02*
X320910517Y-163381033I0J-50800D01*
G01*
X320910517Y-163482633D02*
G75*
G02*
X320910517Y-163584233I0J-50800D01*
G01*
X320910517Y-163635032D02*
G75*
G02*
X320961318Y-163685832I0J-50801D01*
G01*
X320910517Y-164651033D02*
G75*
G02*
X320961317Y-164701833I0J-50800D01*
G01*
X320910517Y-164701833D02*
G75*
G02*
X320910517Y-164803433I0J-50800D01*
G01*
X320910517Y-164905033D02*
G75*
G02*
X320910517Y-165006633I0J-50800D01*
G01*
X320910517Y-165108233D02*
G75*
G02*
X320910517Y-165209833I0J-50800D01*
G01*
X320910517Y-165311433D02*
G75*
G02*
X320910517Y-165413033I0J-50800D01*
G01*
X320910517Y-165514633D02*
G75*
G02*
X320910517Y-165616233I0J-50800D01*
G01*
X320910517Y-165717832D02*
G75*
G02*
X320910517Y-165819432I0J-50800D01*
G01*
X320910517Y-165921032D02*
G75*
G02*
X320910517Y-166022634I-1J-50801D01*
G01*
X320910517Y-166124234D02*
G75*
G02*
X320910517Y-166225834I0J-50800D01*
G01*
X320910517Y-166175034D02*
G75*
G02*
X320961316Y-166225834I0J-50799D01*
G01*
X320910517Y-167191033D02*
G75*
G02*
X320961317Y-167241833I0J-50800D01*
G01*
X320910517Y-167343433D02*
G75*
G02*
X320910517Y-167445033I0J-50800D01*
G01*
X320910517Y-167546633D02*
G75*
G02*
X320910517Y-167648233I0J-50800D01*
G01*
X320910517Y-167749833D02*
G75*
G02*
X320910517Y-167851433I1J-50800D01*
G01*
X320910517Y-167953032D02*
G75*
G02*
X320910517Y-168054632I0J-50800D01*
G01*
X320910517Y-168156234D02*
G75*
G02*
X320910517Y-168257834I0J-50800D01*
G01*
X320910517Y-168359434D02*
G75*
G02*
X320910517Y-168461032I0J-50799D01*
G01*
X320910517Y-168562633D02*
G75*
G02*
X320910517Y-168664233I0J-50800D01*
G01*
X320910517Y-168715033D02*
G75*
G02*
X320961317Y-168765833I0J-50800D01*
G01*
X320910517Y-169731033D02*
G75*
G02*
X320961317Y-169781833I0J-50800D01*
G01*
X320910517Y-169781833D02*
G75*
G02*
X320910517Y-169883433I1J-50800D01*
G01*
X320910517Y-169985032D02*
G75*
G02*
X320910517Y-170086632I0J-50800D01*
G01*
X320910517Y-170188234D02*
G75*
G02*
X320910517Y-170289834I0J-50800D01*
G01*
X320910517Y-170391434D02*
G75*
G02*
X320910517Y-170493034I1J-50800D01*
G01*
X320910517Y-170594633D02*
G75*
G02*
X320910517Y-170696233I0J-50800D01*
G01*
X320910517Y-170797833D02*
G75*
G02*
X320910517Y-170899433I0J-50800D01*
G01*
X320910517Y-171001033D02*
G75*
G02*
X320910517Y-171102633I0J-50800D01*
G01*
X320910517Y-171204233D02*
G75*
G02*
X320910517Y-171305833I0J-50800D01*
G01*
X320910517Y-171255033D02*
G75*
G02*
X320961317Y-171305833I0J-50800D01*
G01*
X320910517Y-171559833D02*
G75*
G02*
X319005517Y-173464833I-1905001J1D01*
G01*
X320910517Y-171559833D02*
G75*
G02*
X319005517Y-173464833I-1905001J1D01*
G01*
X320910517Y-171782133D02*
G75*
G02*
X320910517Y-171845633I0J-31750D01*
G01*
X320913017Y-154234833D02*
G75*
G02*
X320908017Y-154234833I-2500J0D01*
G01*
X320913017Y-171559833D02*
G75*
G02*
X320908017Y-171559833I-2500J0D01*
G01*
X320942217Y-171813833D02*
G75*
G02*
X320878817Y-171813833I-31700J0D01*
G01*
X320961317Y-154541833D02*
G75*
G02*
X320910517Y-154592633I-50800J0D01*
G01*
X320961317Y-156065833D02*
G75*
G02*
X320859717Y-156065833I-50800J0D01*
G01*
X320961317Y-156065833D02*
G75*
G02*
X320910517Y-156116633I-50800J0D01*
G01*
X320961317Y-157081833D02*
G75*
G02*
X320910517Y-157132633I-50800J0D01*
G01*
X320961317Y-158605833D02*
G75*
G02*
X320859717Y-158605833I-50800J0D01*
G01*
X320961317Y-158605833D02*
G75*
G02*
X320910517Y-158656633I-50800J0D01*
G01*
X320961317Y-159621832D02*
G75*
G02*
X320910517Y-159672632I-50800J0D01*
G01*
X320961317Y-161145833D02*
G75*
G02*
X320859717Y-161145833I-50800J0D01*
G01*
X320961317Y-161145833D02*
G75*
G02*
X320910517Y-161196633I-50800J0D01*
G01*
X320961317Y-162161833D02*
G75*
G02*
X320910517Y-162212633I-50800J0D01*
G01*
X320961317Y-163685832D02*
G75*
G02*
X320859717Y-163685832I-50800J0D01*
G01*
X320961317Y-163685832D02*
G75*
G02*
X320910517Y-163736632I-50800J0D01*
G01*
X320961317Y-164701833D02*
G75*
G02*
X320910517Y-164752633I-50800J0D01*
G01*
X320961317Y-166225834D02*
G75*
G02*
X320859717Y-166225834I-50800J0D01*
G01*
X320961317Y-166225834D02*
G75*
G02*
X320910517Y-166276634I-50800J0D01*
G01*
X320961317Y-167241833D02*
G75*
G02*
X320910517Y-167292633I-50800J0D01*
G01*
X320961317Y-168765833D02*
G75*
G02*
X320859717Y-168765833I-50800J0D01*
G01*
X320961317Y-168765833D02*
G75*
G02*
X320910517Y-168816633I-50800J0D01*
G01*
X320961317Y-169781833D02*
G75*
G02*
X320910517Y-169832633I-50800J0D01*
G01*
X320961317Y-171305833D02*
G75*
G02*
X320859717Y-171305833I-50800J0D01*
G01*
X320961317Y-171305833D02*
G75*
G02*
X320910517Y-171356633I-50800J0D01*
G01*
X309430517Y-168722833D02*
G75*
G02*
X308830517Y-168722833I-300000J0D01*
G01*
X308830517Y-168722833D02*
G75*
G02*
X309430517Y-168722833I300000J0D01*
G01*
X315210517Y-168722833D02*
G75*
G02*
X314610517Y-168722833I-300000J0D01*
G01*
X314610517Y-168722833D02*
G75*
G02*
X315210517Y-168722833I300000J0D01*
G01*
D11*
G36*
X312275517Y-162174833D02*
G01*
X309525517Y-162174833D01*
X309525517Y-159674833D01*
X312275517Y-159674833D01*
X312275517Y-162174833D01*
G37*
D12*
%TO.C,H3*%
X301705005Y-137871616D02*
G75*
G02*
X295305005Y-137871616I-3200000J0D01*
G01*
X295305005Y-137871616D02*
G75*
G02*
X301705005Y-137871616I3200000J0D01*
G01*
%TO.C,H4*%
X328575062Y-137871616D02*
G75*
G02*
X322175062Y-137871616I-3200000J0D01*
G01*
X322175062Y-137871616D02*
G75*
G02*
X328575062Y-137871616I3200000J0D01*
G01*
%TO.C,H2*%
X328575062Y-164741673D02*
G75*
G02*
X322175062Y-164741673I-3200000J0D01*
G01*
X322175062Y-164741673D02*
G75*
G02*
X328575062Y-164741673I3200000J0D01*
G01*
%TO.C,H1*%
X301705005Y-164741673D02*
G75*
G02*
X295305005Y-164741673I-3200000J0D01*
G01*
X295305005Y-164741673D02*
G75*
G02*
X301705005Y-164741673I3200000J0D01*
G01*
%TD*%
M02*
