%TF.GenerationSoftware,KiCad,Pcbnew,8.0.4*%
%TF.CreationDate,2024-11-29T22:55:18-05:00*%
%TF.ProjectId,foc_pcb,666f635f-7063-4622-9e6b-696361645f70,2.0*%
%TF.SameCoordinates,Original*%
%TF.FileFunction,Legend,Top*%
%TF.FilePolarity,Positive*%
%FSLAX46Y46*%
G04 Gerber Fmt 4.6, Leading zero omitted, Abs format (unit mm)*
G04 Created by KiCad (PCBNEW 8.0.4) date 2024-11-29 22:55:18*
%MOMM*%
%LPD*%
G01*
G04 APERTURE LIST*
G04 Aperture macros list*
%AMRoundRect*
0 Rectangle with rounded corners*
0 $1 Rounding radius*
0 $2 $3 $4 $5 $6 $7 $8 $9 X,Y pos of 4 corners*
0 Add a 4 corners polygon primitive as box body*
4,1,4,$2,$3,$4,$5,$6,$7,$8,$9,$2,$3,0*
0 Add four circle primitives for the rounded corners*
1,1,$1+$1,$2,$3*
1,1,$1+$1,$4,$5*
1,1,$1+$1,$6,$7*
1,1,$1+$1,$8,$9*
0 Add four rect primitives between the rounded corners*
20,1,$1+$1,$2,$3,$4,$5,0*
20,1,$1+$1,$4,$5,$6,$7,0*
20,1,$1+$1,$6,$7,$8,$9,0*
20,1,$1+$1,$8,$9,$2,$3,0*%
G04 Aperture macros list end*
%ADD10C,0.150000*%
%ADD11C,0.120000*%
%ADD12C,0.152400*%
%ADD13C,0.254000*%
%ADD14C,0.127000*%
%ADD15C,0.200000*%
%ADD16C,0.152500*%
%ADD17C,0.300000*%
%ADD18C,0.010000*%
%ADD19RoundRect,0.200000X0.275000X-0.200000X0.275000X0.200000X-0.275000X0.200000X-0.275000X-0.200000X0*%
%ADD20RoundRect,0.225000X-0.250000X0.225000X-0.250000X-0.225000X0.250000X-0.225000X0.250000X0.225000X0*%
%ADD21R,2.692400X1.092200*%
%ADD22RoundRect,0.200000X-0.275000X0.200000X-0.275000X-0.200000X0.275000X-0.200000X0.275000X0.200000X0*%
%ADD23RoundRect,0.102000X-0.660400X-0.279400X0.660400X-0.279400X0.660400X0.279400X-0.660400X0.279400X0*%
%ADD24R,1.700000X1.700000*%
%ADD25O,1.700000X1.700000*%
%ADD26R,1.350000X1.800000*%
%ADD27RoundRect,0.200000X-0.200000X-0.275000X0.200000X-0.275000X0.200000X0.275000X-0.200000X0.275000X0*%
%ADD28RoundRect,0.225000X0.225000X0.250000X-0.225000X0.250000X-0.225000X-0.250000X0.225000X-0.250000X0*%
%ADD29RoundRect,0.102000X0.200000X0.675000X-0.200000X0.675000X-0.200000X-0.675000X0.200000X-0.675000X0*%
%ADD30RoundRect,0.102000X0.800000X0.700000X-0.800000X0.700000X-0.800000X-0.700000X0.800000X-0.700000X0*%
%ADD31RoundRect,0.102000X0.950000X0.950000X-0.950000X0.950000X-0.950000X-0.950000X0.950000X-0.950000X0*%
%ADD32O,1.104000X2.004000*%
%ADD33RoundRect,0.102000X1.858000X-1.858000X1.858000X1.858000X-1.858000X1.858000X-1.858000X-1.858000X0*%
%ADD34C,3.920000*%
%ADD35O,2.604000X1.404000*%
%ADD36O,0.343000X1.731500*%
%ADD37R,6.200000X2.750000*%
%ADD38RoundRect,0.225000X-0.225000X-0.250000X0.225000X-0.250000X0.225000X0.250000X-0.225000X0.250000X0*%
%ADD39RoundRect,0.218750X-0.218750X-0.256250X0.218750X-0.256250X0.218750X0.256250X-0.218750X0.256250X0*%
%ADD40C,3.200000*%
%ADD41RoundRect,0.550800X0.925800X0.550800X-0.925800X0.550800X-0.925800X-0.550800X0.925800X-0.550800X0*%
%ADD42RoundRect,0.368300X-0.876300X0.368300X-0.876300X-0.368300X0.876300X-0.368300X0.876300X0.368300X0*%
%ADD43RoundRect,0.200000X0.200000X0.275000X-0.200000X0.275000X-0.200000X-0.275000X0.200000X-0.275000X0*%
%ADD44RoundRect,0.102000X-1.200000X0.950000X-1.200000X-0.950000X1.200000X-0.950000X1.200000X0.950000X0*%
%ADD45RoundRect,0.225000X0.250000X-0.225000X0.250000X0.225000X-0.250000X0.225000X-0.250000X-0.225000X0*%
%ADD46RoundRect,0.094250X0.742750X0.282750X-0.742750X0.282750X-0.742750X-0.282750X0.742750X-0.282750X0*%
%ADD47RoundRect,0.094250X0.282750X0.742750X-0.282750X0.742750X-0.282750X-0.742750X0.282750X-0.742750X0*%
%ADD48RoundRect,0.150000X-0.825000X-0.150000X0.825000X-0.150000X0.825000X0.150000X-0.825000X0.150000X0*%
G04 APERTURE END LIST*
D10*
X266650000Y-123190000D02*
G75*
G02*
X228650000Y-123190000I-19000000J0D01*
G01*
X228650000Y-123190000D02*
G75*
G02*
X266650000Y-123190000I19000000J0D01*
G01*
X257810000Y-97760000D02*
X273050000Y-97760000D01*
X273050000Y-118140000D01*
X257810000Y-118140000D01*
X257810000Y-97760000D01*
X212414819Y-141167857D02*
X211938628Y-141501190D01*
X212414819Y-141739285D02*
X211414819Y-141739285D01*
X211414819Y-141739285D02*
X211414819Y-141358333D01*
X211414819Y-141358333D02*
X211462438Y-141263095D01*
X211462438Y-141263095D02*
X211510057Y-141215476D01*
X211510057Y-141215476D02*
X211605295Y-141167857D01*
X211605295Y-141167857D02*
X211748152Y-141167857D01*
X211748152Y-141167857D02*
X211843390Y-141215476D01*
X211843390Y-141215476D02*
X211891009Y-141263095D01*
X211891009Y-141263095D02*
X211938628Y-141358333D01*
X211938628Y-141358333D02*
X211938628Y-141739285D01*
X212414819Y-140215476D02*
X212414819Y-140786904D01*
X212414819Y-140501190D02*
X211414819Y-140501190D01*
X211414819Y-140501190D02*
X211557676Y-140596428D01*
X211557676Y-140596428D02*
X211652914Y-140691666D01*
X211652914Y-140691666D02*
X211700533Y-140786904D01*
X212414819Y-139739285D02*
X212414819Y-139548809D01*
X212414819Y-139548809D02*
X212367200Y-139453571D01*
X212367200Y-139453571D02*
X212319580Y-139405952D01*
X212319580Y-139405952D02*
X212176723Y-139310714D01*
X212176723Y-139310714D02*
X211986247Y-139263095D01*
X211986247Y-139263095D02*
X211605295Y-139263095D01*
X211605295Y-139263095D02*
X211510057Y-139310714D01*
X211510057Y-139310714D02*
X211462438Y-139358333D01*
X211462438Y-139358333D02*
X211414819Y-139453571D01*
X211414819Y-139453571D02*
X211414819Y-139644047D01*
X211414819Y-139644047D02*
X211462438Y-139739285D01*
X211462438Y-139739285D02*
X211510057Y-139786904D01*
X211510057Y-139786904D02*
X211605295Y-139834523D01*
X211605295Y-139834523D02*
X211843390Y-139834523D01*
X211843390Y-139834523D02*
X211938628Y-139786904D01*
X211938628Y-139786904D02*
X211986247Y-139739285D01*
X211986247Y-139739285D02*
X212033866Y-139644047D01*
X212033866Y-139644047D02*
X212033866Y-139453571D01*
X212033866Y-139453571D02*
X211986247Y-139358333D01*
X211986247Y-139358333D02*
X211938628Y-139310714D01*
X211938628Y-139310714D02*
X211843390Y-139263095D01*
X216419580Y-118276666D02*
X216467200Y-118324285D01*
X216467200Y-118324285D02*
X216514819Y-118467142D01*
X216514819Y-118467142D02*
X216514819Y-118562380D01*
X216514819Y-118562380D02*
X216467200Y-118705237D01*
X216467200Y-118705237D02*
X216371961Y-118800475D01*
X216371961Y-118800475D02*
X216276723Y-118848094D01*
X216276723Y-118848094D02*
X216086247Y-118895713D01*
X216086247Y-118895713D02*
X215943390Y-118895713D01*
X215943390Y-118895713D02*
X215752914Y-118848094D01*
X215752914Y-118848094D02*
X215657676Y-118800475D01*
X215657676Y-118800475D02*
X215562438Y-118705237D01*
X215562438Y-118705237D02*
X215514819Y-118562380D01*
X215514819Y-118562380D02*
X215514819Y-118467142D01*
X215514819Y-118467142D02*
X215562438Y-118324285D01*
X215562438Y-118324285D02*
X215610057Y-118276666D01*
X215848152Y-117419523D02*
X216514819Y-117419523D01*
X215467200Y-117657618D02*
X216181485Y-117895713D01*
X216181485Y-117895713D02*
X216181485Y-117276666D01*
X245622842Y-133709580D02*
X245575223Y-133757200D01*
X245575223Y-133757200D02*
X245432366Y-133804819D01*
X245432366Y-133804819D02*
X245337128Y-133804819D01*
X245337128Y-133804819D02*
X245194271Y-133757200D01*
X245194271Y-133757200D02*
X245099033Y-133661961D01*
X245099033Y-133661961D02*
X245051414Y-133566723D01*
X245051414Y-133566723D02*
X245003795Y-133376247D01*
X245003795Y-133376247D02*
X245003795Y-133233390D01*
X245003795Y-133233390D02*
X245051414Y-133042914D01*
X245051414Y-133042914D02*
X245099033Y-132947676D01*
X245099033Y-132947676D02*
X245194271Y-132852438D01*
X245194271Y-132852438D02*
X245337128Y-132804819D01*
X245337128Y-132804819D02*
X245432366Y-132804819D01*
X245432366Y-132804819D02*
X245575223Y-132852438D01*
X245575223Y-132852438D02*
X245622842Y-132900057D01*
X246575223Y-133804819D02*
X246003795Y-133804819D01*
X246289509Y-133804819D02*
X246289509Y-132804819D01*
X246289509Y-132804819D02*
X246194271Y-132947676D01*
X246194271Y-132947676D02*
X246099033Y-133042914D01*
X246099033Y-133042914D02*
X246003795Y-133090533D01*
X247527604Y-133804819D02*
X246956176Y-133804819D01*
X247241890Y-133804819D02*
X247241890Y-132804819D01*
X247241890Y-132804819D02*
X247146652Y-132947676D01*
X247146652Y-132947676D02*
X247051414Y-133042914D01*
X247051414Y-133042914D02*
X246956176Y-133090533D01*
X239374819Y-117006666D02*
X238898628Y-117339999D01*
X239374819Y-117578094D02*
X238374819Y-117578094D01*
X238374819Y-117578094D02*
X238374819Y-117197142D01*
X238374819Y-117197142D02*
X238422438Y-117101904D01*
X238422438Y-117101904D02*
X238470057Y-117054285D01*
X238470057Y-117054285D02*
X238565295Y-117006666D01*
X238565295Y-117006666D02*
X238708152Y-117006666D01*
X238708152Y-117006666D02*
X238803390Y-117054285D01*
X238803390Y-117054285D02*
X238851009Y-117101904D01*
X238851009Y-117101904D02*
X238898628Y-117197142D01*
X238898628Y-117197142D02*
X238898628Y-117578094D01*
X238374819Y-116673332D02*
X238374819Y-116006666D01*
X238374819Y-116006666D02*
X239374819Y-116435237D01*
X225933095Y-134619819D02*
X225933095Y-135429342D01*
X225933095Y-135429342D02*
X225980714Y-135524580D01*
X225980714Y-135524580D02*
X226028333Y-135572200D01*
X226028333Y-135572200D02*
X226123571Y-135619819D01*
X226123571Y-135619819D02*
X226314047Y-135619819D01*
X226314047Y-135619819D02*
X226409285Y-135572200D01*
X226409285Y-135572200D02*
X226456904Y-135524580D01*
X226456904Y-135524580D02*
X226504523Y-135429342D01*
X226504523Y-135429342D02*
X226504523Y-134619819D01*
X226885476Y-134619819D02*
X227504523Y-134619819D01*
X227504523Y-134619819D02*
X227171190Y-135000771D01*
X227171190Y-135000771D02*
X227314047Y-135000771D01*
X227314047Y-135000771D02*
X227409285Y-135048390D01*
X227409285Y-135048390D02*
X227456904Y-135096009D01*
X227456904Y-135096009D02*
X227504523Y-135191247D01*
X227504523Y-135191247D02*
X227504523Y-135429342D01*
X227504523Y-135429342D02*
X227456904Y-135524580D01*
X227456904Y-135524580D02*
X227409285Y-135572200D01*
X227409285Y-135572200D02*
X227314047Y-135619819D01*
X227314047Y-135619819D02*
X227028333Y-135619819D01*
X227028333Y-135619819D02*
X226933095Y-135572200D01*
X226933095Y-135572200D02*
X226885476Y-135524580D01*
X216354819Y-133267857D02*
X215878628Y-133601190D01*
X216354819Y-133839285D02*
X215354819Y-133839285D01*
X215354819Y-133839285D02*
X215354819Y-133458333D01*
X215354819Y-133458333D02*
X215402438Y-133363095D01*
X215402438Y-133363095D02*
X215450057Y-133315476D01*
X215450057Y-133315476D02*
X215545295Y-133267857D01*
X215545295Y-133267857D02*
X215688152Y-133267857D01*
X215688152Y-133267857D02*
X215783390Y-133315476D01*
X215783390Y-133315476D02*
X215831009Y-133363095D01*
X215831009Y-133363095D02*
X215878628Y-133458333D01*
X215878628Y-133458333D02*
X215878628Y-133839285D01*
X216354819Y-132315476D02*
X216354819Y-132886904D01*
X216354819Y-132601190D02*
X215354819Y-132601190D01*
X215354819Y-132601190D02*
X215497676Y-132696428D01*
X215497676Y-132696428D02*
X215592914Y-132791666D01*
X215592914Y-132791666D02*
X215640533Y-132886904D01*
X215354819Y-131982142D02*
X215354819Y-131315476D01*
X215354819Y-131315476D02*
X216354819Y-131744047D01*
X230806666Y-140424819D02*
X230806666Y-141139104D01*
X230806666Y-141139104D02*
X230759047Y-141281961D01*
X230759047Y-141281961D02*
X230663809Y-141377200D01*
X230663809Y-141377200D02*
X230520952Y-141424819D01*
X230520952Y-141424819D02*
X230425714Y-141424819D01*
X231711428Y-140758152D02*
X231711428Y-141424819D01*
X231473333Y-140377200D02*
X231235238Y-141091485D01*
X231235238Y-141091485D02*
X231854285Y-141091485D01*
X234419819Y-118276666D02*
X233943628Y-118609999D01*
X234419819Y-118848094D02*
X233419819Y-118848094D01*
X233419819Y-118848094D02*
X233419819Y-118467142D01*
X233419819Y-118467142D02*
X233467438Y-118371904D01*
X233467438Y-118371904D02*
X233515057Y-118324285D01*
X233515057Y-118324285D02*
X233610295Y-118276666D01*
X233610295Y-118276666D02*
X233753152Y-118276666D01*
X233753152Y-118276666D02*
X233848390Y-118324285D01*
X233848390Y-118324285D02*
X233896009Y-118371904D01*
X233896009Y-118371904D02*
X233943628Y-118467142D01*
X233943628Y-118467142D02*
X233943628Y-118848094D01*
X233419819Y-117419523D02*
X233419819Y-117609999D01*
X233419819Y-117609999D02*
X233467438Y-117705237D01*
X233467438Y-117705237D02*
X233515057Y-117752856D01*
X233515057Y-117752856D02*
X233657914Y-117848094D01*
X233657914Y-117848094D02*
X233848390Y-117895713D01*
X233848390Y-117895713D02*
X234229342Y-117895713D01*
X234229342Y-117895713D02*
X234324580Y-117848094D01*
X234324580Y-117848094D02*
X234372200Y-117800475D01*
X234372200Y-117800475D02*
X234419819Y-117705237D01*
X234419819Y-117705237D02*
X234419819Y-117514761D01*
X234419819Y-117514761D02*
X234372200Y-117419523D01*
X234372200Y-117419523D02*
X234324580Y-117371904D01*
X234324580Y-117371904D02*
X234229342Y-117324285D01*
X234229342Y-117324285D02*
X233991247Y-117324285D01*
X233991247Y-117324285D02*
X233896009Y-117371904D01*
X233896009Y-117371904D02*
X233848390Y-117419523D01*
X233848390Y-117419523D02*
X233800771Y-117514761D01*
X233800771Y-117514761D02*
X233800771Y-117705237D01*
X233800771Y-117705237D02*
X233848390Y-117800475D01*
X233848390Y-117800475D02*
X233896009Y-117848094D01*
X233896009Y-117848094D02*
X233991247Y-117895713D01*
X218841667Y-118730200D02*
X218984524Y-118777819D01*
X218984524Y-118777819D02*
X219222619Y-118777819D01*
X219222619Y-118777819D02*
X219317857Y-118730200D01*
X219317857Y-118730200D02*
X219365476Y-118682580D01*
X219365476Y-118682580D02*
X219413095Y-118587342D01*
X219413095Y-118587342D02*
X219413095Y-118492104D01*
X219413095Y-118492104D02*
X219365476Y-118396866D01*
X219365476Y-118396866D02*
X219317857Y-118349247D01*
X219317857Y-118349247D02*
X219222619Y-118301628D01*
X219222619Y-118301628D02*
X219032143Y-118254009D01*
X219032143Y-118254009D02*
X218936905Y-118206390D01*
X218936905Y-118206390D02*
X218889286Y-118158771D01*
X218889286Y-118158771D02*
X218841667Y-118063533D01*
X218841667Y-118063533D02*
X218841667Y-117968295D01*
X218841667Y-117968295D02*
X218889286Y-117873057D01*
X218889286Y-117873057D02*
X218936905Y-117825438D01*
X218936905Y-117825438D02*
X219032143Y-117777819D01*
X219032143Y-117777819D02*
X219270238Y-117777819D01*
X219270238Y-117777819D02*
X219413095Y-117825438D01*
X219746429Y-117777819D02*
X219984524Y-118777819D01*
X219984524Y-118777819D02*
X220175000Y-118063533D01*
X220175000Y-118063533D02*
X220365476Y-118777819D01*
X220365476Y-118777819D02*
X220603572Y-117777819D01*
X221508333Y-118777819D02*
X220936905Y-118777819D01*
X221222619Y-118777819D02*
X221222619Y-117777819D01*
X221222619Y-117777819D02*
X221127381Y-117920676D01*
X221127381Y-117920676D02*
X221032143Y-118015914D01*
X221032143Y-118015914D02*
X220936905Y-118063533D01*
X214432142Y-104434819D02*
X214098809Y-103958628D01*
X213860714Y-104434819D02*
X213860714Y-103434819D01*
X213860714Y-103434819D02*
X214241666Y-103434819D01*
X214241666Y-103434819D02*
X214336904Y-103482438D01*
X214336904Y-103482438D02*
X214384523Y-103530057D01*
X214384523Y-103530057D02*
X214432142Y-103625295D01*
X214432142Y-103625295D02*
X214432142Y-103768152D01*
X214432142Y-103768152D02*
X214384523Y-103863390D01*
X214384523Y-103863390D02*
X214336904Y-103911009D01*
X214336904Y-103911009D02*
X214241666Y-103958628D01*
X214241666Y-103958628D02*
X213860714Y-103958628D01*
X215384523Y-104434819D02*
X214813095Y-104434819D01*
X215098809Y-104434819D02*
X215098809Y-103434819D01*
X215098809Y-103434819D02*
X215003571Y-103577676D01*
X215003571Y-103577676D02*
X214908333Y-103672914D01*
X214908333Y-103672914D02*
X214813095Y-103720533D01*
X215717857Y-103434819D02*
X216336904Y-103434819D01*
X216336904Y-103434819D02*
X216003571Y-103815771D01*
X216003571Y-103815771D02*
X216146428Y-103815771D01*
X216146428Y-103815771D02*
X216241666Y-103863390D01*
X216241666Y-103863390D02*
X216289285Y-103911009D01*
X216289285Y-103911009D02*
X216336904Y-104006247D01*
X216336904Y-104006247D02*
X216336904Y-104244342D01*
X216336904Y-104244342D02*
X216289285Y-104339580D01*
X216289285Y-104339580D02*
X216241666Y-104387200D01*
X216241666Y-104387200D02*
X216146428Y-104434819D01*
X216146428Y-104434819D02*
X215860714Y-104434819D01*
X215860714Y-104434819D02*
X215765476Y-104387200D01*
X215765476Y-104387200D02*
X215717857Y-104339580D01*
X251293333Y-124914819D02*
X250960000Y-124438628D01*
X250721905Y-124914819D02*
X250721905Y-123914819D01*
X250721905Y-123914819D02*
X251102857Y-123914819D01*
X251102857Y-123914819D02*
X251198095Y-123962438D01*
X251198095Y-123962438D02*
X251245714Y-124010057D01*
X251245714Y-124010057D02*
X251293333Y-124105295D01*
X251293333Y-124105295D02*
X251293333Y-124248152D01*
X251293333Y-124248152D02*
X251245714Y-124343390D01*
X251245714Y-124343390D02*
X251198095Y-124391009D01*
X251198095Y-124391009D02*
X251102857Y-124438628D01*
X251102857Y-124438628D02*
X250721905Y-124438628D01*
X251674286Y-124010057D02*
X251721905Y-123962438D01*
X251721905Y-123962438D02*
X251817143Y-123914819D01*
X251817143Y-123914819D02*
X252055238Y-123914819D01*
X252055238Y-123914819D02*
X252150476Y-123962438D01*
X252150476Y-123962438D02*
X252198095Y-124010057D01*
X252198095Y-124010057D02*
X252245714Y-124105295D01*
X252245714Y-124105295D02*
X252245714Y-124200533D01*
X252245714Y-124200533D02*
X252198095Y-124343390D01*
X252198095Y-124343390D02*
X251626667Y-124914819D01*
X251626667Y-124914819D02*
X252245714Y-124914819D01*
X225933095Y-130809819D02*
X225933095Y-131619342D01*
X225933095Y-131619342D02*
X225980714Y-131714580D01*
X225980714Y-131714580D02*
X226028333Y-131762200D01*
X226028333Y-131762200D02*
X226123571Y-131809819D01*
X226123571Y-131809819D02*
X226314047Y-131809819D01*
X226314047Y-131809819D02*
X226409285Y-131762200D01*
X226409285Y-131762200D02*
X226456904Y-131714580D01*
X226456904Y-131714580D02*
X226504523Y-131619342D01*
X226504523Y-131619342D02*
X226504523Y-130809819D01*
X227409285Y-131143152D02*
X227409285Y-131809819D01*
X227171190Y-130762200D02*
X226933095Y-131476485D01*
X226933095Y-131476485D02*
X227552142Y-131476485D01*
X252563333Y-116089580D02*
X252515714Y-116137200D01*
X252515714Y-116137200D02*
X252372857Y-116184819D01*
X252372857Y-116184819D02*
X252277619Y-116184819D01*
X252277619Y-116184819D02*
X252134762Y-116137200D01*
X252134762Y-116137200D02*
X252039524Y-116041961D01*
X252039524Y-116041961D02*
X251991905Y-115946723D01*
X251991905Y-115946723D02*
X251944286Y-115756247D01*
X251944286Y-115756247D02*
X251944286Y-115613390D01*
X251944286Y-115613390D02*
X251991905Y-115422914D01*
X251991905Y-115422914D02*
X252039524Y-115327676D01*
X252039524Y-115327676D02*
X252134762Y-115232438D01*
X252134762Y-115232438D02*
X252277619Y-115184819D01*
X252277619Y-115184819D02*
X252372857Y-115184819D01*
X252372857Y-115184819D02*
X252515714Y-115232438D01*
X252515714Y-115232438D02*
X252563333Y-115280057D01*
X253039524Y-116184819D02*
X253230000Y-116184819D01*
X253230000Y-116184819D02*
X253325238Y-116137200D01*
X253325238Y-116137200D02*
X253372857Y-116089580D01*
X253372857Y-116089580D02*
X253468095Y-115946723D01*
X253468095Y-115946723D02*
X253515714Y-115756247D01*
X253515714Y-115756247D02*
X253515714Y-115375295D01*
X253515714Y-115375295D02*
X253468095Y-115280057D01*
X253468095Y-115280057D02*
X253420476Y-115232438D01*
X253420476Y-115232438D02*
X253325238Y-115184819D01*
X253325238Y-115184819D02*
X253134762Y-115184819D01*
X253134762Y-115184819D02*
X253039524Y-115232438D01*
X253039524Y-115232438D02*
X252991905Y-115280057D01*
X252991905Y-115280057D02*
X252944286Y-115375295D01*
X252944286Y-115375295D02*
X252944286Y-115613390D01*
X252944286Y-115613390D02*
X252991905Y-115708628D01*
X252991905Y-115708628D02*
X253039524Y-115756247D01*
X253039524Y-115756247D02*
X253134762Y-115803866D01*
X253134762Y-115803866D02*
X253325238Y-115803866D01*
X253325238Y-115803866D02*
X253420476Y-115756247D01*
X253420476Y-115756247D02*
X253468095Y-115708628D01*
X253468095Y-115708628D02*
X253515714Y-115613390D01*
X235410476Y-101054819D02*
X235410476Y-101769104D01*
X235410476Y-101769104D02*
X235362857Y-101911961D01*
X235362857Y-101911961D02*
X235267619Y-102007200D01*
X235267619Y-102007200D02*
X235124762Y-102054819D01*
X235124762Y-102054819D02*
X235029524Y-102054819D01*
X236410476Y-102054819D02*
X235839048Y-102054819D01*
X236124762Y-102054819D02*
X236124762Y-101054819D01*
X236124762Y-101054819D02*
X236029524Y-101197676D01*
X236029524Y-101197676D02*
X235934286Y-101292914D01*
X235934286Y-101292914D02*
X235839048Y-101340533D01*
X236791429Y-101150057D02*
X236839048Y-101102438D01*
X236839048Y-101102438D02*
X236934286Y-101054819D01*
X236934286Y-101054819D02*
X237172381Y-101054819D01*
X237172381Y-101054819D02*
X237267619Y-101102438D01*
X237267619Y-101102438D02*
X237315238Y-101150057D01*
X237315238Y-101150057D02*
X237362857Y-101245295D01*
X237362857Y-101245295D02*
X237362857Y-101340533D01*
X237362857Y-101340533D02*
X237315238Y-101483390D01*
X237315238Y-101483390D02*
X236743810Y-102054819D01*
X236743810Y-102054819D02*
X237362857Y-102054819D01*
X212814583Y-123523480D02*
X213529183Y-123523480D01*
X213529183Y-123523480D02*
X213672103Y-123571120D01*
X213672103Y-123571120D02*
X213767384Y-123666400D01*
X213767384Y-123666400D02*
X213815024Y-123809320D01*
X213815024Y-123809320D02*
X213815024Y-123904600D01*
X212814583Y-122570679D02*
X212814583Y-123047079D01*
X212814583Y-123047079D02*
X213290983Y-123094719D01*
X213290983Y-123094719D02*
X213243343Y-123047079D01*
X213243343Y-123047079D02*
X213195703Y-122951799D01*
X213195703Y-122951799D02*
X213195703Y-122713599D01*
X213195703Y-122713599D02*
X213243343Y-122618319D01*
X213243343Y-122618319D02*
X213290983Y-122570679D01*
X213290983Y-122570679D02*
X213386263Y-122523039D01*
X213386263Y-122523039D02*
X213624463Y-122523039D01*
X213624463Y-122523039D02*
X213719743Y-122570679D01*
X213719743Y-122570679D02*
X213767384Y-122618319D01*
X213767384Y-122618319D02*
X213815024Y-122713599D01*
X213815024Y-122713599D02*
X213815024Y-122951799D01*
X213815024Y-122951799D02*
X213767384Y-123047079D01*
X213767384Y-123047079D02*
X213719743Y-123094719D01*
X258806666Y-118654819D02*
X258806666Y-119369104D01*
X258806666Y-119369104D02*
X258759047Y-119511961D01*
X258759047Y-119511961D02*
X258663809Y-119607200D01*
X258663809Y-119607200D02*
X258520952Y-119654819D01*
X258520952Y-119654819D02*
X258425714Y-119654819D01*
X259806666Y-119654819D02*
X259235238Y-119654819D01*
X259520952Y-119654819D02*
X259520952Y-118654819D01*
X259520952Y-118654819D02*
X259425714Y-118797676D01*
X259425714Y-118797676D02*
X259330476Y-118892914D01*
X259330476Y-118892914D02*
X259235238Y-118940533D01*
X233424580Y-129706666D02*
X233472200Y-129754285D01*
X233472200Y-129754285D02*
X233519819Y-129897142D01*
X233519819Y-129897142D02*
X233519819Y-129992380D01*
X233519819Y-129992380D02*
X233472200Y-130135237D01*
X233472200Y-130135237D02*
X233376961Y-130230475D01*
X233376961Y-130230475D02*
X233281723Y-130278094D01*
X233281723Y-130278094D02*
X233091247Y-130325713D01*
X233091247Y-130325713D02*
X232948390Y-130325713D01*
X232948390Y-130325713D02*
X232757914Y-130278094D01*
X232757914Y-130278094D02*
X232662676Y-130230475D01*
X232662676Y-130230475D02*
X232567438Y-130135237D01*
X232567438Y-130135237D02*
X232519819Y-129992380D01*
X232519819Y-129992380D02*
X232519819Y-129897142D01*
X232519819Y-129897142D02*
X232567438Y-129754285D01*
X232567438Y-129754285D02*
X232615057Y-129706666D01*
X232615057Y-129325713D02*
X232567438Y-129278094D01*
X232567438Y-129278094D02*
X232519819Y-129182856D01*
X232519819Y-129182856D02*
X232519819Y-128944761D01*
X232519819Y-128944761D02*
X232567438Y-128849523D01*
X232567438Y-128849523D02*
X232615057Y-128801904D01*
X232615057Y-128801904D02*
X232710295Y-128754285D01*
X232710295Y-128754285D02*
X232805533Y-128754285D01*
X232805533Y-128754285D02*
X232948390Y-128801904D01*
X232948390Y-128801904D02*
X233519819Y-129373332D01*
X233519819Y-129373332D02*
X233519819Y-128754285D01*
X242236666Y-145504819D02*
X242236666Y-146219104D01*
X242236666Y-146219104D02*
X242189047Y-146361961D01*
X242189047Y-146361961D02*
X242093809Y-146457200D01*
X242093809Y-146457200D02*
X241950952Y-146504819D01*
X241950952Y-146504819D02*
X241855714Y-146504819D01*
X242617619Y-145504819D02*
X243236666Y-145504819D01*
X243236666Y-145504819D02*
X242903333Y-145885771D01*
X242903333Y-145885771D02*
X243046190Y-145885771D01*
X243046190Y-145885771D02*
X243141428Y-145933390D01*
X243141428Y-145933390D02*
X243189047Y-145981009D01*
X243189047Y-145981009D02*
X243236666Y-146076247D01*
X243236666Y-146076247D02*
X243236666Y-146314342D01*
X243236666Y-146314342D02*
X243189047Y-146409580D01*
X243189047Y-146409580D02*
X243141428Y-146457200D01*
X243141428Y-146457200D02*
X243046190Y-146504819D01*
X243046190Y-146504819D02*
X242760476Y-146504819D01*
X242760476Y-146504819D02*
X242665238Y-146457200D01*
X242665238Y-146457200D02*
X242617619Y-146409580D01*
X237763095Y-129938819D02*
X237763095Y-130748342D01*
X237763095Y-130748342D02*
X237810714Y-130843580D01*
X237810714Y-130843580D02*
X237858333Y-130891200D01*
X237858333Y-130891200D02*
X237953571Y-130938819D01*
X237953571Y-130938819D02*
X238144047Y-130938819D01*
X238144047Y-130938819D02*
X238239285Y-130891200D01*
X238239285Y-130891200D02*
X238286904Y-130843580D01*
X238286904Y-130843580D02*
X238334523Y-130748342D01*
X238334523Y-130748342D02*
X238334523Y-129938819D01*
X239334523Y-130938819D02*
X238763095Y-130938819D01*
X239048809Y-130938819D02*
X239048809Y-129938819D01*
X239048809Y-129938819D02*
X238953571Y-130081676D01*
X238953571Y-130081676D02*
X238858333Y-130176914D01*
X238858333Y-130176914D02*
X238763095Y-130224533D01*
X216194819Y-136252857D02*
X215718628Y-136586190D01*
X216194819Y-136824285D02*
X215194819Y-136824285D01*
X215194819Y-136824285D02*
X215194819Y-136443333D01*
X215194819Y-136443333D02*
X215242438Y-136348095D01*
X215242438Y-136348095D02*
X215290057Y-136300476D01*
X215290057Y-136300476D02*
X215385295Y-136252857D01*
X215385295Y-136252857D02*
X215528152Y-136252857D01*
X215528152Y-136252857D02*
X215623390Y-136300476D01*
X215623390Y-136300476D02*
X215671009Y-136348095D01*
X215671009Y-136348095D02*
X215718628Y-136443333D01*
X215718628Y-136443333D02*
X215718628Y-136824285D01*
X216194819Y-135300476D02*
X216194819Y-135871904D01*
X216194819Y-135586190D02*
X215194819Y-135586190D01*
X215194819Y-135586190D02*
X215337676Y-135681428D01*
X215337676Y-135681428D02*
X215432914Y-135776666D01*
X215432914Y-135776666D02*
X215480533Y-135871904D01*
X215194819Y-134395714D02*
X215194819Y-134871904D01*
X215194819Y-134871904D02*
X215671009Y-134919523D01*
X215671009Y-134919523D02*
X215623390Y-134871904D01*
X215623390Y-134871904D02*
X215575771Y-134776666D01*
X215575771Y-134776666D02*
X215575771Y-134538571D01*
X215575771Y-134538571D02*
X215623390Y-134443333D01*
X215623390Y-134443333D02*
X215671009Y-134395714D01*
X215671009Y-134395714D02*
X215766247Y-134348095D01*
X215766247Y-134348095D02*
X216004342Y-134348095D01*
X216004342Y-134348095D02*
X216099580Y-134395714D01*
X216099580Y-134395714D02*
X216147200Y-134443333D01*
X216147200Y-134443333D02*
X216194819Y-134538571D01*
X216194819Y-134538571D02*
X216194819Y-134776666D01*
X216194819Y-134776666D02*
X216147200Y-134871904D01*
X216147200Y-134871904D02*
X216099580Y-134919523D01*
X254627142Y-112119580D02*
X254579523Y-112167200D01*
X254579523Y-112167200D02*
X254436666Y-112214819D01*
X254436666Y-112214819D02*
X254341428Y-112214819D01*
X254341428Y-112214819D02*
X254198571Y-112167200D01*
X254198571Y-112167200D02*
X254103333Y-112071961D01*
X254103333Y-112071961D02*
X254055714Y-111976723D01*
X254055714Y-111976723D02*
X254008095Y-111786247D01*
X254008095Y-111786247D02*
X254008095Y-111643390D01*
X254008095Y-111643390D02*
X254055714Y-111452914D01*
X254055714Y-111452914D02*
X254103333Y-111357676D01*
X254103333Y-111357676D02*
X254198571Y-111262438D01*
X254198571Y-111262438D02*
X254341428Y-111214819D01*
X254341428Y-111214819D02*
X254436666Y-111214819D01*
X254436666Y-111214819D02*
X254579523Y-111262438D01*
X254579523Y-111262438D02*
X254627142Y-111310057D01*
X255579523Y-112214819D02*
X255008095Y-112214819D01*
X255293809Y-112214819D02*
X255293809Y-111214819D01*
X255293809Y-111214819D02*
X255198571Y-111357676D01*
X255198571Y-111357676D02*
X255103333Y-111452914D01*
X255103333Y-111452914D02*
X255008095Y-111500533D01*
X256198571Y-111214819D02*
X256293809Y-111214819D01*
X256293809Y-111214819D02*
X256389047Y-111262438D01*
X256389047Y-111262438D02*
X256436666Y-111310057D01*
X256436666Y-111310057D02*
X256484285Y-111405295D01*
X256484285Y-111405295D02*
X256531904Y-111595771D01*
X256531904Y-111595771D02*
X256531904Y-111833866D01*
X256531904Y-111833866D02*
X256484285Y-112024342D01*
X256484285Y-112024342D02*
X256436666Y-112119580D01*
X256436666Y-112119580D02*
X256389047Y-112167200D01*
X256389047Y-112167200D02*
X256293809Y-112214819D01*
X256293809Y-112214819D02*
X256198571Y-112214819D01*
X256198571Y-112214819D02*
X256103333Y-112167200D01*
X256103333Y-112167200D02*
X256055714Y-112119580D01*
X256055714Y-112119580D02*
X256008095Y-112024342D01*
X256008095Y-112024342D02*
X255960476Y-111833866D01*
X255960476Y-111833866D02*
X255960476Y-111595771D01*
X255960476Y-111595771D02*
X256008095Y-111405295D01*
X256008095Y-111405295D02*
X256055714Y-111310057D01*
X256055714Y-111310057D02*
X256103333Y-111262438D01*
X256103333Y-111262438D02*
X256198571Y-111214819D01*
X241754819Y-118752857D02*
X241278628Y-119086190D01*
X241754819Y-119324285D02*
X240754819Y-119324285D01*
X240754819Y-119324285D02*
X240754819Y-118943333D01*
X240754819Y-118943333D02*
X240802438Y-118848095D01*
X240802438Y-118848095D02*
X240850057Y-118800476D01*
X240850057Y-118800476D02*
X240945295Y-118752857D01*
X240945295Y-118752857D02*
X241088152Y-118752857D01*
X241088152Y-118752857D02*
X241183390Y-118800476D01*
X241183390Y-118800476D02*
X241231009Y-118848095D01*
X241231009Y-118848095D02*
X241278628Y-118943333D01*
X241278628Y-118943333D02*
X241278628Y-119324285D01*
X241754819Y-117800476D02*
X241754819Y-118371904D01*
X241754819Y-118086190D02*
X240754819Y-118086190D01*
X240754819Y-118086190D02*
X240897676Y-118181428D01*
X240897676Y-118181428D02*
X240992914Y-118276666D01*
X240992914Y-118276666D02*
X241040533Y-118371904D01*
X240850057Y-117419523D02*
X240802438Y-117371904D01*
X240802438Y-117371904D02*
X240754819Y-117276666D01*
X240754819Y-117276666D02*
X240754819Y-117038571D01*
X240754819Y-117038571D02*
X240802438Y-116943333D01*
X240802438Y-116943333D02*
X240850057Y-116895714D01*
X240850057Y-116895714D02*
X240945295Y-116848095D01*
X240945295Y-116848095D02*
X241040533Y-116848095D01*
X241040533Y-116848095D02*
X241183390Y-116895714D01*
X241183390Y-116895714D02*
X241754819Y-117467142D01*
X241754819Y-117467142D02*
X241754819Y-116848095D01*
X228433333Y-118564819D02*
X228100000Y-118088628D01*
X227861905Y-118564819D02*
X227861905Y-117564819D01*
X227861905Y-117564819D02*
X228242857Y-117564819D01*
X228242857Y-117564819D02*
X228338095Y-117612438D01*
X228338095Y-117612438D02*
X228385714Y-117660057D01*
X228385714Y-117660057D02*
X228433333Y-117755295D01*
X228433333Y-117755295D02*
X228433333Y-117898152D01*
X228433333Y-117898152D02*
X228385714Y-117993390D01*
X228385714Y-117993390D02*
X228338095Y-118041009D01*
X228338095Y-118041009D02*
X228242857Y-118088628D01*
X228242857Y-118088628D02*
X227861905Y-118088628D01*
X229338095Y-117564819D02*
X228861905Y-117564819D01*
X228861905Y-117564819D02*
X228814286Y-118041009D01*
X228814286Y-118041009D02*
X228861905Y-117993390D01*
X228861905Y-117993390D02*
X228957143Y-117945771D01*
X228957143Y-117945771D02*
X229195238Y-117945771D01*
X229195238Y-117945771D02*
X229290476Y-117993390D01*
X229290476Y-117993390D02*
X229338095Y-118041009D01*
X229338095Y-118041009D02*
X229385714Y-118136247D01*
X229385714Y-118136247D02*
X229385714Y-118374342D01*
X229385714Y-118374342D02*
X229338095Y-118469580D01*
X229338095Y-118469580D02*
X229290476Y-118517200D01*
X229290476Y-118517200D02*
X229195238Y-118564819D01*
X229195238Y-118564819D02*
X228957143Y-118564819D01*
X228957143Y-118564819D02*
X228861905Y-118517200D01*
X228861905Y-118517200D02*
X228814286Y-118469580D01*
X205484405Y-142534819D02*
X205484405Y-141534819D01*
X205484405Y-141534819D02*
X205722500Y-141534819D01*
X205722500Y-141534819D02*
X205865357Y-141582438D01*
X205865357Y-141582438D02*
X205960595Y-141677676D01*
X205960595Y-141677676D02*
X206008214Y-141772914D01*
X206008214Y-141772914D02*
X206055833Y-141963390D01*
X206055833Y-141963390D02*
X206055833Y-142106247D01*
X206055833Y-142106247D02*
X206008214Y-142296723D01*
X206008214Y-142296723D02*
X205960595Y-142391961D01*
X205960595Y-142391961D02*
X205865357Y-142487200D01*
X205865357Y-142487200D02*
X205722500Y-142534819D01*
X205722500Y-142534819D02*
X205484405Y-142534819D01*
X206960595Y-141534819D02*
X206484405Y-141534819D01*
X206484405Y-141534819D02*
X206436786Y-142011009D01*
X206436786Y-142011009D02*
X206484405Y-141963390D01*
X206484405Y-141963390D02*
X206579643Y-141915771D01*
X206579643Y-141915771D02*
X206817738Y-141915771D01*
X206817738Y-141915771D02*
X206912976Y-141963390D01*
X206912976Y-141963390D02*
X206960595Y-142011009D01*
X206960595Y-142011009D02*
X207008214Y-142106247D01*
X207008214Y-142106247D02*
X207008214Y-142344342D01*
X207008214Y-142344342D02*
X206960595Y-142439580D01*
X206960595Y-142439580D02*
X206912976Y-142487200D01*
X206912976Y-142487200D02*
X206817738Y-142534819D01*
X206817738Y-142534819D02*
X206579643Y-142534819D01*
X206579643Y-142534819D02*
X206484405Y-142487200D01*
X206484405Y-142487200D02*
X206436786Y-142439580D01*
X249428095Y-107134819D02*
X249428095Y-106134819D01*
X249428095Y-106611009D02*
X249999523Y-106611009D01*
X249999523Y-107134819D02*
X249999523Y-106134819D01*
X250428095Y-106230057D02*
X250475714Y-106182438D01*
X250475714Y-106182438D02*
X250570952Y-106134819D01*
X250570952Y-106134819D02*
X250809047Y-106134819D01*
X250809047Y-106134819D02*
X250904285Y-106182438D01*
X250904285Y-106182438D02*
X250951904Y-106230057D01*
X250951904Y-106230057D02*
X250999523Y-106325295D01*
X250999523Y-106325295D02*
X250999523Y-106420533D01*
X250999523Y-106420533D02*
X250951904Y-106563390D01*
X250951904Y-106563390D02*
X250380476Y-107134819D01*
X250380476Y-107134819D02*
X250999523Y-107134819D01*
X220038333Y-104339580D02*
X219990714Y-104387200D01*
X219990714Y-104387200D02*
X219847857Y-104434819D01*
X219847857Y-104434819D02*
X219752619Y-104434819D01*
X219752619Y-104434819D02*
X219609762Y-104387200D01*
X219609762Y-104387200D02*
X219514524Y-104291961D01*
X219514524Y-104291961D02*
X219466905Y-104196723D01*
X219466905Y-104196723D02*
X219419286Y-104006247D01*
X219419286Y-104006247D02*
X219419286Y-103863390D01*
X219419286Y-103863390D02*
X219466905Y-103672914D01*
X219466905Y-103672914D02*
X219514524Y-103577676D01*
X219514524Y-103577676D02*
X219609762Y-103482438D01*
X219609762Y-103482438D02*
X219752619Y-103434819D01*
X219752619Y-103434819D02*
X219847857Y-103434819D01*
X219847857Y-103434819D02*
X219990714Y-103482438D01*
X219990714Y-103482438D02*
X220038333Y-103530057D01*
X220371667Y-103434819D02*
X221038333Y-103434819D01*
X221038333Y-103434819D02*
X220609762Y-104434819D01*
X253028220Y-147815180D02*
X253028220Y-147005657D01*
X253028220Y-147005657D02*
X252980601Y-146910419D01*
X252980601Y-146910419D02*
X252932982Y-146862800D01*
X252932982Y-146862800D02*
X252837744Y-146815180D01*
X252837744Y-146815180D02*
X252647268Y-146815180D01*
X252647268Y-146815180D02*
X252552030Y-146862800D01*
X252552030Y-146862800D02*
X252504411Y-146910419D01*
X252504411Y-146910419D02*
X252456792Y-147005657D01*
X252456792Y-147005657D02*
X252456792Y-147815180D01*
X251552030Y-147815180D02*
X251742506Y-147815180D01*
X251742506Y-147815180D02*
X251837744Y-147767561D01*
X251837744Y-147767561D02*
X251885363Y-147719942D01*
X251885363Y-147719942D02*
X251980601Y-147577085D01*
X251980601Y-147577085D02*
X252028220Y-147386609D01*
X252028220Y-147386609D02*
X252028220Y-147005657D01*
X252028220Y-147005657D02*
X251980601Y-146910419D01*
X251980601Y-146910419D02*
X251932982Y-146862800D01*
X251932982Y-146862800D02*
X251837744Y-146815180D01*
X251837744Y-146815180D02*
X251647268Y-146815180D01*
X251647268Y-146815180D02*
X251552030Y-146862800D01*
X251552030Y-146862800D02*
X251504411Y-146910419D01*
X251504411Y-146910419D02*
X251456792Y-147005657D01*
X251456792Y-147005657D02*
X251456792Y-147243752D01*
X251456792Y-147243752D02*
X251504411Y-147338990D01*
X251504411Y-147338990D02*
X251552030Y-147386609D01*
X251552030Y-147386609D02*
X251647268Y-147434228D01*
X251647268Y-147434228D02*
X251837744Y-147434228D01*
X251837744Y-147434228D02*
X251932982Y-147386609D01*
X251932982Y-147386609D02*
X251980601Y-147338990D01*
X251980601Y-147338990D02*
X252028220Y-147243752D01*
X221434819Y-133267857D02*
X220958628Y-133601190D01*
X221434819Y-133839285D02*
X220434819Y-133839285D01*
X220434819Y-133839285D02*
X220434819Y-133458333D01*
X220434819Y-133458333D02*
X220482438Y-133363095D01*
X220482438Y-133363095D02*
X220530057Y-133315476D01*
X220530057Y-133315476D02*
X220625295Y-133267857D01*
X220625295Y-133267857D02*
X220768152Y-133267857D01*
X220768152Y-133267857D02*
X220863390Y-133315476D01*
X220863390Y-133315476D02*
X220911009Y-133363095D01*
X220911009Y-133363095D02*
X220958628Y-133458333D01*
X220958628Y-133458333D02*
X220958628Y-133839285D01*
X221434819Y-132315476D02*
X221434819Y-132886904D01*
X221434819Y-132601190D02*
X220434819Y-132601190D01*
X220434819Y-132601190D02*
X220577676Y-132696428D01*
X220577676Y-132696428D02*
X220672914Y-132791666D01*
X220672914Y-132791666D02*
X220720533Y-132886904D01*
X220863390Y-131744047D02*
X220815771Y-131839285D01*
X220815771Y-131839285D02*
X220768152Y-131886904D01*
X220768152Y-131886904D02*
X220672914Y-131934523D01*
X220672914Y-131934523D02*
X220625295Y-131934523D01*
X220625295Y-131934523D02*
X220530057Y-131886904D01*
X220530057Y-131886904D02*
X220482438Y-131839285D01*
X220482438Y-131839285D02*
X220434819Y-131744047D01*
X220434819Y-131744047D02*
X220434819Y-131553571D01*
X220434819Y-131553571D02*
X220482438Y-131458333D01*
X220482438Y-131458333D02*
X220530057Y-131410714D01*
X220530057Y-131410714D02*
X220625295Y-131363095D01*
X220625295Y-131363095D02*
X220672914Y-131363095D01*
X220672914Y-131363095D02*
X220768152Y-131410714D01*
X220768152Y-131410714D02*
X220815771Y-131458333D01*
X220815771Y-131458333D02*
X220863390Y-131553571D01*
X220863390Y-131553571D02*
X220863390Y-131744047D01*
X220863390Y-131744047D02*
X220911009Y-131839285D01*
X220911009Y-131839285D02*
X220958628Y-131886904D01*
X220958628Y-131886904D02*
X221053866Y-131934523D01*
X221053866Y-131934523D02*
X221244342Y-131934523D01*
X221244342Y-131934523D02*
X221339580Y-131886904D01*
X221339580Y-131886904D02*
X221387200Y-131839285D01*
X221387200Y-131839285D02*
X221434819Y-131744047D01*
X221434819Y-131744047D02*
X221434819Y-131553571D01*
X221434819Y-131553571D02*
X221387200Y-131458333D01*
X221387200Y-131458333D02*
X221339580Y-131410714D01*
X221339580Y-131410714D02*
X221244342Y-131363095D01*
X221244342Y-131363095D02*
X221053866Y-131363095D01*
X221053866Y-131363095D02*
X220958628Y-131410714D01*
X220958628Y-131410714D02*
X220911009Y-131458333D01*
X220911009Y-131458333D02*
X220863390Y-131553571D01*
X262128095Y-123644819D02*
X262128095Y-122644819D01*
X262128095Y-123121009D02*
X262699523Y-123121009D01*
X262699523Y-123644819D02*
X262699523Y-122644819D01*
X263604285Y-122978152D02*
X263604285Y-123644819D01*
X263366190Y-122597200D02*
X263128095Y-123311485D01*
X263128095Y-123311485D02*
X263747142Y-123311485D01*
X254627142Y-109579580D02*
X254579523Y-109627200D01*
X254579523Y-109627200D02*
X254436666Y-109674819D01*
X254436666Y-109674819D02*
X254341428Y-109674819D01*
X254341428Y-109674819D02*
X254198571Y-109627200D01*
X254198571Y-109627200D02*
X254103333Y-109531961D01*
X254103333Y-109531961D02*
X254055714Y-109436723D01*
X254055714Y-109436723D02*
X254008095Y-109246247D01*
X254008095Y-109246247D02*
X254008095Y-109103390D01*
X254008095Y-109103390D02*
X254055714Y-108912914D01*
X254055714Y-108912914D02*
X254103333Y-108817676D01*
X254103333Y-108817676D02*
X254198571Y-108722438D01*
X254198571Y-108722438D02*
X254341428Y-108674819D01*
X254341428Y-108674819D02*
X254436666Y-108674819D01*
X254436666Y-108674819D02*
X254579523Y-108722438D01*
X254579523Y-108722438D02*
X254627142Y-108770057D01*
X255579523Y-109674819D02*
X255008095Y-109674819D01*
X255293809Y-109674819D02*
X255293809Y-108674819D01*
X255293809Y-108674819D02*
X255198571Y-108817676D01*
X255198571Y-108817676D02*
X255103333Y-108912914D01*
X255103333Y-108912914D02*
X255008095Y-108960533D01*
X255960476Y-108770057D02*
X256008095Y-108722438D01*
X256008095Y-108722438D02*
X256103333Y-108674819D01*
X256103333Y-108674819D02*
X256341428Y-108674819D01*
X256341428Y-108674819D02*
X256436666Y-108722438D01*
X256436666Y-108722438D02*
X256484285Y-108770057D01*
X256484285Y-108770057D02*
X256531904Y-108865295D01*
X256531904Y-108865295D02*
X256531904Y-108960533D01*
X256531904Y-108960533D02*
X256484285Y-109103390D01*
X256484285Y-109103390D02*
X255912857Y-109674819D01*
X255912857Y-109674819D02*
X256531904Y-109674819D01*
X239387142Y-114659580D02*
X239339523Y-114707200D01*
X239339523Y-114707200D02*
X239196666Y-114754819D01*
X239196666Y-114754819D02*
X239101428Y-114754819D01*
X239101428Y-114754819D02*
X238958571Y-114707200D01*
X238958571Y-114707200D02*
X238863333Y-114611961D01*
X238863333Y-114611961D02*
X238815714Y-114516723D01*
X238815714Y-114516723D02*
X238768095Y-114326247D01*
X238768095Y-114326247D02*
X238768095Y-114183390D01*
X238768095Y-114183390D02*
X238815714Y-113992914D01*
X238815714Y-113992914D02*
X238863333Y-113897676D01*
X238863333Y-113897676D02*
X238958571Y-113802438D01*
X238958571Y-113802438D02*
X239101428Y-113754819D01*
X239101428Y-113754819D02*
X239196666Y-113754819D01*
X239196666Y-113754819D02*
X239339523Y-113802438D01*
X239339523Y-113802438D02*
X239387142Y-113850057D01*
X240339523Y-114754819D02*
X239768095Y-114754819D01*
X240053809Y-114754819D02*
X240053809Y-113754819D01*
X240053809Y-113754819D02*
X239958571Y-113897676D01*
X239958571Y-113897676D02*
X239863333Y-113992914D01*
X239863333Y-113992914D02*
X239768095Y-114040533D01*
X241196666Y-113754819D02*
X241006190Y-113754819D01*
X241006190Y-113754819D02*
X240910952Y-113802438D01*
X240910952Y-113802438D02*
X240863333Y-113850057D01*
X240863333Y-113850057D02*
X240768095Y-113992914D01*
X240768095Y-113992914D02*
X240720476Y-114183390D01*
X240720476Y-114183390D02*
X240720476Y-114564342D01*
X240720476Y-114564342D02*
X240768095Y-114659580D01*
X240768095Y-114659580D02*
X240815714Y-114707200D01*
X240815714Y-114707200D02*
X240910952Y-114754819D01*
X240910952Y-114754819D02*
X241101428Y-114754819D01*
X241101428Y-114754819D02*
X241196666Y-114707200D01*
X241196666Y-114707200D02*
X241244285Y-114659580D01*
X241244285Y-114659580D02*
X241291904Y-114564342D01*
X241291904Y-114564342D02*
X241291904Y-114326247D01*
X241291904Y-114326247D02*
X241244285Y-114231009D01*
X241244285Y-114231009D02*
X241196666Y-114183390D01*
X241196666Y-114183390D02*
X241101428Y-114135771D01*
X241101428Y-114135771D02*
X240910952Y-114135771D01*
X240910952Y-114135771D02*
X240815714Y-114183390D01*
X240815714Y-114183390D02*
X240768095Y-114231009D01*
X240768095Y-114231009D02*
X240720476Y-114326247D01*
X209352142Y-145394819D02*
X209018809Y-144918628D01*
X208780714Y-145394819D02*
X208780714Y-144394819D01*
X208780714Y-144394819D02*
X209161666Y-144394819D01*
X209161666Y-144394819D02*
X209256904Y-144442438D01*
X209256904Y-144442438D02*
X209304523Y-144490057D01*
X209304523Y-144490057D02*
X209352142Y-144585295D01*
X209352142Y-144585295D02*
X209352142Y-144728152D01*
X209352142Y-144728152D02*
X209304523Y-144823390D01*
X209304523Y-144823390D02*
X209256904Y-144871009D01*
X209256904Y-144871009D02*
X209161666Y-144918628D01*
X209161666Y-144918628D02*
X208780714Y-144918628D01*
X210304523Y-145394819D02*
X209733095Y-145394819D01*
X210018809Y-145394819D02*
X210018809Y-144394819D01*
X210018809Y-144394819D02*
X209923571Y-144537676D01*
X209923571Y-144537676D02*
X209828333Y-144632914D01*
X209828333Y-144632914D02*
X209733095Y-144680533D01*
X210923571Y-144394819D02*
X211018809Y-144394819D01*
X211018809Y-144394819D02*
X211114047Y-144442438D01*
X211114047Y-144442438D02*
X211161666Y-144490057D01*
X211161666Y-144490057D02*
X211209285Y-144585295D01*
X211209285Y-144585295D02*
X211256904Y-144775771D01*
X211256904Y-144775771D02*
X211256904Y-145013866D01*
X211256904Y-145013866D02*
X211209285Y-145204342D01*
X211209285Y-145204342D02*
X211161666Y-145299580D01*
X211161666Y-145299580D02*
X211114047Y-145347200D01*
X211114047Y-145347200D02*
X211018809Y-145394819D01*
X211018809Y-145394819D02*
X210923571Y-145394819D01*
X210923571Y-145394819D02*
X210828333Y-145347200D01*
X210828333Y-145347200D02*
X210780714Y-145299580D01*
X210780714Y-145299580D02*
X210733095Y-145204342D01*
X210733095Y-145204342D02*
X210685476Y-145013866D01*
X210685476Y-145013866D02*
X210685476Y-144775771D01*
X210685476Y-144775771D02*
X210733095Y-144585295D01*
X210733095Y-144585295D02*
X210780714Y-144490057D01*
X210780714Y-144490057D02*
X210828333Y-144442438D01*
X210828333Y-144442438D02*
X210923571Y-144394819D01*
X241278628Y-110331190D02*
X241754819Y-110331190D01*
X240754819Y-110664523D02*
X241278628Y-110331190D01*
X241278628Y-110331190D02*
X240754819Y-109997857D01*
X241754819Y-109140714D02*
X241754819Y-109712142D01*
X241754819Y-109426428D02*
X240754819Y-109426428D01*
X240754819Y-109426428D02*
X240897676Y-109521666D01*
X240897676Y-109521666D02*
X240992914Y-109616904D01*
X240992914Y-109616904D02*
X241040533Y-109712142D01*
X233879580Y-110656666D02*
X233927200Y-110704285D01*
X233927200Y-110704285D02*
X233974819Y-110847142D01*
X233974819Y-110847142D02*
X233974819Y-110942380D01*
X233974819Y-110942380D02*
X233927200Y-111085237D01*
X233927200Y-111085237D02*
X233831961Y-111180475D01*
X233831961Y-111180475D02*
X233736723Y-111228094D01*
X233736723Y-111228094D02*
X233546247Y-111275713D01*
X233546247Y-111275713D02*
X233403390Y-111275713D01*
X233403390Y-111275713D02*
X233212914Y-111228094D01*
X233212914Y-111228094D02*
X233117676Y-111180475D01*
X233117676Y-111180475D02*
X233022438Y-111085237D01*
X233022438Y-111085237D02*
X232974819Y-110942380D01*
X232974819Y-110942380D02*
X232974819Y-110847142D01*
X232974819Y-110847142D02*
X233022438Y-110704285D01*
X233022438Y-110704285D02*
X233070057Y-110656666D01*
X233403390Y-110085237D02*
X233355771Y-110180475D01*
X233355771Y-110180475D02*
X233308152Y-110228094D01*
X233308152Y-110228094D02*
X233212914Y-110275713D01*
X233212914Y-110275713D02*
X233165295Y-110275713D01*
X233165295Y-110275713D02*
X233070057Y-110228094D01*
X233070057Y-110228094D02*
X233022438Y-110180475D01*
X233022438Y-110180475D02*
X232974819Y-110085237D01*
X232974819Y-110085237D02*
X232974819Y-109894761D01*
X232974819Y-109894761D02*
X233022438Y-109799523D01*
X233022438Y-109799523D02*
X233070057Y-109751904D01*
X233070057Y-109751904D02*
X233165295Y-109704285D01*
X233165295Y-109704285D02*
X233212914Y-109704285D01*
X233212914Y-109704285D02*
X233308152Y-109751904D01*
X233308152Y-109751904D02*
X233355771Y-109799523D01*
X233355771Y-109799523D02*
X233403390Y-109894761D01*
X233403390Y-109894761D02*
X233403390Y-110085237D01*
X233403390Y-110085237D02*
X233451009Y-110180475D01*
X233451009Y-110180475D02*
X233498628Y-110228094D01*
X233498628Y-110228094D02*
X233593866Y-110275713D01*
X233593866Y-110275713D02*
X233784342Y-110275713D01*
X233784342Y-110275713D02*
X233879580Y-110228094D01*
X233879580Y-110228094D02*
X233927200Y-110180475D01*
X233927200Y-110180475D02*
X233974819Y-110085237D01*
X233974819Y-110085237D02*
X233974819Y-109894761D01*
X233974819Y-109894761D02*
X233927200Y-109799523D01*
X233927200Y-109799523D02*
X233879580Y-109751904D01*
X233879580Y-109751904D02*
X233784342Y-109704285D01*
X233784342Y-109704285D02*
X233593866Y-109704285D01*
X233593866Y-109704285D02*
X233498628Y-109751904D01*
X233498628Y-109751904D02*
X233451009Y-109799523D01*
X233451009Y-109799523D02*
X233403390Y-109894761D01*
X231648095Y-116294819D02*
X231648095Y-117104342D01*
X231648095Y-117104342D02*
X231695714Y-117199580D01*
X231695714Y-117199580D02*
X231743333Y-117247200D01*
X231743333Y-117247200D02*
X231838571Y-117294819D01*
X231838571Y-117294819D02*
X232029047Y-117294819D01*
X232029047Y-117294819D02*
X232124285Y-117247200D01*
X232124285Y-117247200D02*
X232171904Y-117199580D01*
X232171904Y-117199580D02*
X232219523Y-117104342D01*
X232219523Y-117104342D02*
X232219523Y-116294819D01*
X232648095Y-116390057D02*
X232695714Y-116342438D01*
X232695714Y-116342438D02*
X232790952Y-116294819D01*
X232790952Y-116294819D02*
X233029047Y-116294819D01*
X233029047Y-116294819D02*
X233124285Y-116342438D01*
X233124285Y-116342438D02*
X233171904Y-116390057D01*
X233171904Y-116390057D02*
X233219523Y-116485295D01*
X233219523Y-116485295D02*
X233219523Y-116580533D01*
X233219523Y-116580533D02*
X233171904Y-116723390D01*
X233171904Y-116723390D02*
X232600476Y-117294819D01*
X232600476Y-117294819D02*
X233219523Y-117294819D01*
X217305476Y-110119819D02*
X217638809Y-111119819D01*
X217638809Y-111119819D02*
X217972142Y-110119819D01*
X218876904Y-111119819D02*
X218543571Y-110643628D01*
X218305476Y-111119819D02*
X218305476Y-110119819D01*
X218305476Y-110119819D02*
X218686428Y-110119819D01*
X218686428Y-110119819D02*
X218781666Y-110167438D01*
X218781666Y-110167438D02*
X218829285Y-110215057D01*
X218829285Y-110215057D02*
X218876904Y-110310295D01*
X218876904Y-110310295D02*
X218876904Y-110453152D01*
X218876904Y-110453152D02*
X218829285Y-110548390D01*
X218829285Y-110548390D02*
X218781666Y-110596009D01*
X218781666Y-110596009D02*
X218686428Y-110643628D01*
X218686428Y-110643628D02*
X218305476Y-110643628D01*
X219829285Y-111119819D02*
X219257857Y-111119819D01*
X219543571Y-111119819D02*
X219543571Y-110119819D01*
X219543571Y-110119819D02*
X219448333Y-110262676D01*
X219448333Y-110262676D02*
X219353095Y-110357914D01*
X219353095Y-110357914D02*
X219257857Y-110405533D01*
X251293333Y-127454819D02*
X250960000Y-126978628D01*
X250721905Y-127454819D02*
X250721905Y-126454819D01*
X250721905Y-126454819D02*
X251102857Y-126454819D01*
X251102857Y-126454819D02*
X251198095Y-126502438D01*
X251198095Y-126502438D02*
X251245714Y-126550057D01*
X251245714Y-126550057D02*
X251293333Y-126645295D01*
X251293333Y-126645295D02*
X251293333Y-126788152D01*
X251293333Y-126788152D02*
X251245714Y-126883390D01*
X251245714Y-126883390D02*
X251198095Y-126931009D01*
X251198095Y-126931009D02*
X251102857Y-126978628D01*
X251102857Y-126978628D02*
X250721905Y-126978628D01*
X252245714Y-127454819D02*
X251674286Y-127454819D01*
X251960000Y-127454819D02*
X251960000Y-126454819D01*
X251960000Y-126454819D02*
X251864762Y-126597676D01*
X251864762Y-126597676D02*
X251769524Y-126692914D01*
X251769524Y-126692914D02*
X251674286Y-126740533D01*
X215566666Y-142964819D02*
X215566666Y-143679104D01*
X215566666Y-143679104D02*
X215519047Y-143821961D01*
X215519047Y-143821961D02*
X215423809Y-143917200D01*
X215423809Y-143917200D02*
X215280952Y-143964819D01*
X215280952Y-143964819D02*
X215185714Y-143964819D01*
X215995238Y-143060057D02*
X216042857Y-143012438D01*
X216042857Y-143012438D02*
X216138095Y-142964819D01*
X216138095Y-142964819D02*
X216376190Y-142964819D01*
X216376190Y-142964819D02*
X216471428Y-143012438D01*
X216471428Y-143012438D02*
X216519047Y-143060057D01*
X216519047Y-143060057D02*
X216566666Y-143155295D01*
X216566666Y-143155295D02*
X216566666Y-143250533D01*
X216566666Y-143250533D02*
X216519047Y-143393390D01*
X216519047Y-143393390D02*
X215947619Y-143964819D01*
X215947619Y-143964819D02*
X216566666Y-143964819D01*
X251293333Y-122374819D02*
X250960000Y-121898628D01*
X250721905Y-122374819D02*
X250721905Y-121374819D01*
X250721905Y-121374819D02*
X251102857Y-121374819D01*
X251102857Y-121374819D02*
X251198095Y-121422438D01*
X251198095Y-121422438D02*
X251245714Y-121470057D01*
X251245714Y-121470057D02*
X251293333Y-121565295D01*
X251293333Y-121565295D02*
X251293333Y-121708152D01*
X251293333Y-121708152D02*
X251245714Y-121803390D01*
X251245714Y-121803390D02*
X251198095Y-121851009D01*
X251198095Y-121851009D02*
X251102857Y-121898628D01*
X251102857Y-121898628D02*
X250721905Y-121898628D01*
X251626667Y-121374819D02*
X252245714Y-121374819D01*
X252245714Y-121374819D02*
X251912381Y-121755771D01*
X251912381Y-121755771D02*
X252055238Y-121755771D01*
X252055238Y-121755771D02*
X252150476Y-121803390D01*
X252150476Y-121803390D02*
X252198095Y-121851009D01*
X252198095Y-121851009D02*
X252245714Y-121946247D01*
X252245714Y-121946247D02*
X252245714Y-122184342D01*
X252245714Y-122184342D02*
X252198095Y-122279580D01*
X252198095Y-122279580D02*
X252150476Y-122327200D01*
X252150476Y-122327200D02*
X252055238Y-122374819D01*
X252055238Y-122374819D02*
X251769524Y-122374819D01*
X251769524Y-122374819D02*
X251674286Y-122327200D01*
X251674286Y-122327200D02*
X251626667Y-122279580D01*
X225933095Y-127089819D02*
X225933095Y-127899342D01*
X225933095Y-127899342D02*
X225980714Y-127994580D01*
X225980714Y-127994580D02*
X226028333Y-128042200D01*
X226028333Y-128042200D02*
X226123571Y-128089819D01*
X226123571Y-128089819D02*
X226314047Y-128089819D01*
X226314047Y-128089819D02*
X226409285Y-128042200D01*
X226409285Y-128042200D02*
X226456904Y-127994580D01*
X226456904Y-127994580D02*
X226504523Y-127899342D01*
X226504523Y-127899342D02*
X226504523Y-127089819D01*
X226885476Y-127089819D02*
X227552142Y-127089819D01*
X227552142Y-127089819D02*
X227123571Y-128089819D01*
X239387142Y-105769580D02*
X239339523Y-105817200D01*
X239339523Y-105817200D02*
X239196666Y-105864819D01*
X239196666Y-105864819D02*
X239101428Y-105864819D01*
X239101428Y-105864819D02*
X238958571Y-105817200D01*
X238958571Y-105817200D02*
X238863333Y-105721961D01*
X238863333Y-105721961D02*
X238815714Y-105626723D01*
X238815714Y-105626723D02*
X238768095Y-105436247D01*
X238768095Y-105436247D02*
X238768095Y-105293390D01*
X238768095Y-105293390D02*
X238815714Y-105102914D01*
X238815714Y-105102914D02*
X238863333Y-105007676D01*
X238863333Y-105007676D02*
X238958571Y-104912438D01*
X238958571Y-104912438D02*
X239101428Y-104864819D01*
X239101428Y-104864819D02*
X239196666Y-104864819D01*
X239196666Y-104864819D02*
X239339523Y-104912438D01*
X239339523Y-104912438D02*
X239387142Y-104960057D01*
X240339523Y-105864819D02*
X239768095Y-105864819D01*
X240053809Y-105864819D02*
X240053809Y-104864819D01*
X240053809Y-104864819D02*
X239958571Y-105007676D01*
X239958571Y-105007676D02*
X239863333Y-105102914D01*
X239863333Y-105102914D02*
X239768095Y-105150533D01*
X240672857Y-104864819D02*
X241339523Y-104864819D01*
X241339523Y-104864819D02*
X240910952Y-105864819D01*
X221434819Y-136252857D02*
X220958628Y-136586190D01*
X221434819Y-136824285D02*
X220434819Y-136824285D01*
X220434819Y-136824285D02*
X220434819Y-136443333D01*
X220434819Y-136443333D02*
X220482438Y-136348095D01*
X220482438Y-136348095D02*
X220530057Y-136300476D01*
X220530057Y-136300476D02*
X220625295Y-136252857D01*
X220625295Y-136252857D02*
X220768152Y-136252857D01*
X220768152Y-136252857D02*
X220863390Y-136300476D01*
X220863390Y-136300476D02*
X220911009Y-136348095D01*
X220911009Y-136348095D02*
X220958628Y-136443333D01*
X220958628Y-136443333D02*
X220958628Y-136824285D01*
X221434819Y-135300476D02*
X221434819Y-135871904D01*
X221434819Y-135586190D02*
X220434819Y-135586190D01*
X220434819Y-135586190D02*
X220577676Y-135681428D01*
X220577676Y-135681428D02*
X220672914Y-135776666D01*
X220672914Y-135776666D02*
X220720533Y-135871904D01*
X220434819Y-134443333D02*
X220434819Y-134633809D01*
X220434819Y-134633809D02*
X220482438Y-134729047D01*
X220482438Y-134729047D02*
X220530057Y-134776666D01*
X220530057Y-134776666D02*
X220672914Y-134871904D01*
X220672914Y-134871904D02*
X220863390Y-134919523D01*
X220863390Y-134919523D02*
X221244342Y-134919523D01*
X221244342Y-134919523D02*
X221339580Y-134871904D01*
X221339580Y-134871904D02*
X221387200Y-134824285D01*
X221387200Y-134824285D02*
X221434819Y-134729047D01*
X221434819Y-134729047D02*
X221434819Y-134538571D01*
X221434819Y-134538571D02*
X221387200Y-134443333D01*
X221387200Y-134443333D02*
X221339580Y-134395714D01*
X221339580Y-134395714D02*
X221244342Y-134348095D01*
X221244342Y-134348095D02*
X221006247Y-134348095D01*
X221006247Y-134348095D02*
X220911009Y-134395714D01*
X220911009Y-134395714D02*
X220863390Y-134443333D01*
X220863390Y-134443333D02*
X220815771Y-134538571D01*
X220815771Y-134538571D02*
X220815771Y-134729047D01*
X220815771Y-134729047D02*
X220863390Y-134824285D01*
X220863390Y-134824285D02*
X220911009Y-134871904D01*
X220911009Y-134871904D02*
X221006247Y-134919523D01*
X212814583Y-114633480D02*
X213529183Y-114633480D01*
X213529183Y-114633480D02*
X213672103Y-114681120D01*
X213672103Y-114681120D02*
X213767384Y-114776400D01*
X213767384Y-114776400D02*
X213815024Y-114919320D01*
X213815024Y-114919320D02*
X213815024Y-115014600D01*
X212814583Y-113728319D02*
X212814583Y-113918879D01*
X212814583Y-113918879D02*
X212862223Y-114014159D01*
X212862223Y-114014159D02*
X212909863Y-114061799D01*
X212909863Y-114061799D02*
X213052783Y-114157079D01*
X213052783Y-114157079D02*
X213243343Y-114204719D01*
X213243343Y-114204719D02*
X213624463Y-114204719D01*
X213624463Y-114204719D02*
X213719743Y-114157079D01*
X213719743Y-114157079D02*
X213767384Y-114109439D01*
X213767384Y-114109439D02*
X213815024Y-114014159D01*
X213815024Y-114014159D02*
X213815024Y-113823599D01*
X213815024Y-113823599D02*
X213767384Y-113728319D01*
X213767384Y-113728319D02*
X213719743Y-113680679D01*
X213719743Y-113680679D02*
X213624463Y-113633039D01*
X213624463Y-113633039D02*
X213386263Y-113633039D01*
X213386263Y-113633039D02*
X213290983Y-113680679D01*
X213290983Y-113680679D02*
X213243343Y-113728319D01*
X213243343Y-113728319D02*
X213195703Y-113823599D01*
X213195703Y-113823599D02*
X213195703Y-114014159D01*
X213195703Y-114014159D02*
X213243343Y-114109439D01*
X213243343Y-114109439D02*
X213290983Y-114157079D01*
X213290983Y-114157079D02*
X213386263Y-114204719D01*
X244348095Y-140154819D02*
X244348095Y-139154819D01*
X244348095Y-139631009D02*
X244919523Y-139631009D01*
X244919523Y-140154819D02*
X244919523Y-139154819D01*
X245300476Y-139154819D02*
X245919523Y-139154819D01*
X245919523Y-139154819D02*
X245586190Y-139535771D01*
X245586190Y-139535771D02*
X245729047Y-139535771D01*
X245729047Y-139535771D02*
X245824285Y-139583390D01*
X245824285Y-139583390D02*
X245871904Y-139631009D01*
X245871904Y-139631009D02*
X245919523Y-139726247D01*
X245919523Y-139726247D02*
X245919523Y-139964342D01*
X245919523Y-139964342D02*
X245871904Y-140059580D01*
X245871904Y-140059580D02*
X245824285Y-140107200D01*
X245824285Y-140107200D02*
X245729047Y-140154819D01*
X245729047Y-140154819D02*
X245443333Y-140154819D01*
X245443333Y-140154819D02*
X245348095Y-140107200D01*
X245348095Y-140107200D02*
X245300476Y-140059580D01*
X231648095Y-123644819D02*
X231648095Y-122644819D01*
X231648095Y-123121009D02*
X232219523Y-123121009D01*
X232219523Y-123644819D02*
X232219523Y-122644819D01*
X233219523Y-123644819D02*
X232648095Y-123644819D01*
X232933809Y-123644819D02*
X232933809Y-122644819D01*
X232933809Y-122644819D02*
X232838571Y-122787676D01*
X232838571Y-122787676D02*
X232743333Y-122882914D01*
X232743333Y-122882914D02*
X232648095Y-122930533D01*
X245618095Y-107854819D02*
X245618095Y-108664342D01*
X245618095Y-108664342D02*
X245665714Y-108759580D01*
X245665714Y-108759580D02*
X245713333Y-108807200D01*
X245713333Y-108807200D02*
X245808571Y-108854819D01*
X245808571Y-108854819D02*
X245999047Y-108854819D01*
X245999047Y-108854819D02*
X246094285Y-108807200D01*
X246094285Y-108807200D02*
X246141904Y-108759580D01*
X246141904Y-108759580D02*
X246189523Y-108664342D01*
X246189523Y-108664342D02*
X246189523Y-107854819D01*
X247141904Y-107854819D02*
X246665714Y-107854819D01*
X246665714Y-107854819D02*
X246618095Y-108331009D01*
X246618095Y-108331009D02*
X246665714Y-108283390D01*
X246665714Y-108283390D02*
X246760952Y-108235771D01*
X246760952Y-108235771D02*
X246999047Y-108235771D01*
X246999047Y-108235771D02*
X247094285Y-108283390D01*
X247094285Y-108283390D02*
X247141904Y-108331009D01*
X247141904Y-108331009D02*
X247189523Y-108426247D01*
X247189523Y-108426247D02*
X247189523Y-108664342D01*
X247189523Y-108664342D02*
X247141904Y-108759580D01*
X247141904Y-108759580D02*
X247094285Y-108807200D01*
X247094285Y-108807200D02*
X246999047Y-108854819D01*
X246999047Y-108854819D02*
X246760952Y-108854819D01*
X246760952Y-108854819D02*
X246665714Y-108807200D01*
X246665714Y-108807200D02*
X246618095Y-108759580D01*
X236739580Y-132741666D02*
X236787200Y-132789285D01*
X236787200Y-132789285D02*
X236834819Y-132932142D01*
X236834819Y-132932142D02*
X236834819Y-133027380D01*
X236834819Y-133027380D02*
X236787200Y-133170237D01*
X236787200Y-133170237D02*
X236691961Y-133265475D01*
X236691961Y-133265475D02*
X236596723Y-133313094D01*
X236596723Y-133313094D02*
X236406247Y-133360713D01*
X236406247Y-133360713D02*
X236263390Y-133360713D01*
X236263390Y-133360713D02*
X236072914Y-133313094D01*
X236072914Y-133313094D02*
X235977676Y-133265475D01*
X235977676Y-133265475D02*
X235882438Y-133170237D01*
X235882438Y-133170237D02*
X235834819Y-133027380D01*
X235834819Y-133027380D02*
X235834819Y-132932142D01*
X235834819Y-132932142D02*
X235882438Y-132789285D01*
X235882438Y-132789285D02*
X235930057Y-132741666D01*
X235834819Y-132408332D02*
X235834819Y-131789285D01*
X235834819Y-131789285D02*
X236215771Y-132122618D01*
X236215771Y-132122618D02*
X236215771Y-131979761D01*
X236215771Y-131979761D02*
X236263390Y-131884523D01*
X236263390Y-131884523D02*
X236311009Y-131836904D01*
X236311009Y-131836904D02*
X236406247Y-131789285D01*
X236406247Y-131789285D02*
X236644342Y-131789285D01*
X236644342Y-131789285D02*
X236739580Y-131836904D01*
X236739580Y-131836904D02*
X236787200Y-131884523D01*
X236787200Y-131884523D02*
X236834819Y-131979761D01*
X236834819Y-131979761D02*
X236834819Y-132265475D01*
X236834819Y-132265475D02*
X236787200Y-132360713D01*
X236787200Y-132360713D02*
X236739580Y-132408332D01*
X217797142Y-140154819D02*
X217463809Y-139678628D01*
X217225714Y-140154819D02*
X217225714Y-139154819D01*
X217225714Y-139154819D02*
X217606666Y-139154819D01*
X217606666Y-139154819D02*
X217701904Y-139202438D01*
X217701904Y-139202438D02*
X217749523Y-139250057D01*
X217749523Y-139250057D02*
X217797142Y-139345295D01*
X217797142Y-139345295D02*
X217797142Y-139488152D01*
X217797142Y-139488152D02*
X217749523Y-139583390D01*
X217749523Y-139583390D02*
X217701904Y-139631009D01*
X217701904Y-139631009D02*
X217606666Y-139678628D01*
X217606666Y-139678628D02*
X217225714Y-139678628D01*
X218178095Y-139250057D02*
X218225714Y-139202438D01*
X218225714Y-139202438D02*
X218320952Y-139154819D01*
X218320952Y-139154819D02*
X218559047Y-139154819D01*
X218559047Y-139154819D02*
X218654285Y-139202438D01*
X218654285Y-139202438D02*
X218701904Y-139250057D01*
X218701904Y-139250057D02*
X218749523Y-139345295D01*
X218749523Y-139345295D02*
X218749523Y-139440533D01*
X218749523Y-139440533D02*
X218701904Y-139583390D01*
X218701904Y-139583390D02*
X218130476Y-140154819D01*
X218130476Y-140154819D02*
X218749523Y-140154819D01*
X219368571Y-139154819D02*
X219463809Y-139154819D01*
X219463809Y-139154819D02*
X219559047Y-139202438D01*
X219559047Y-139202438D02*
X219606666Y-139250057D01*
X219606666Y-139250057D02*
X219654285Y-139345295D01*
X219654285Y-139345295D02*
X219701904Y-139535771D01*
X219701904Y-139535771D02*
X219701904Y-139773866D01*
X219701904Y-139773866D02*
X219654285Y-139964342D01*
X219654285Y-139964342D02*
X219606666Y-140059580D01*
X219606666Y-140059580D02*
X219559047Y-140107200D01*
X219559047Y-140107200D02*
X219463809Y-140154819D01*
X219463809Y-140154819D02*
X219368571Y-140154819D01*
X219368571Y-140154819D02*
X219273333Y-140107200D01*
X219273333Y-140107200D02*
X219225714Y-140059580D01*
X219225714Y-140059580D02*
X219178095Y-139964342D01*
X219178095Y-139964342D02*
X219130476Y-139773866D01*
X219130476Y-139773866D02*
X219130476Y-139535771D01*
X219130476Y-139535771D02*
X219178095Y-139345295D01*
X219178095Y-139345295D02*
X219225714Y-139250057D01*
X219225714Y-139250057D02*
X219273333Y-139202438D01*
X219273333Y-139202438D02*
X219368571Y-139154819D01*
X220164819Y-125171666D02*
X219688628Y-125504999D01*
X220164819Y-125743094D02*
X219164819Y-125743094D01*
X219164819Y-125743094D02*
X219164819Y-125362142D01*
X219164819Y-125362142D02*
X219212438Y-125266904D01*
X219212438Y-125266904D02*
X219260057Y-125219285D01*
X219260057Y-125219285D02*
X219355295Y-125171666D01*
X219355295Y-125171666D02*
X219498152Y-125171666D01*
X219498152Y-125171666D02*
X219593390Y-125219285D01*
X219593390Y-125219285D02*
X219641009Y-125266904D01*
X219641009Y-125266904D02*
X219688628Y-125362142D01*
X219688628Y-125362142D02*
X219688628Y-125743094D01*
X219593390Y-124600237D02*
X219545771Y-124695475D01*
X219545771Y-124695475D02*
X219498152Y-124743094D01*
X219498152Y-124743094D02*
X219402914Y-124790713D01*
X219402914Y-124790713D02*
X219355295Y-124790713D01*
X219355295Y-124790713D02*
X219260057Y-124743094D01*
X219260057Y-124743094D02*
X219212438Y-124695475D01*
X219212438Y-124695475D02*
X219164819Y-124600237D01*
X219164819Y-124600237D02*
X219164819Y-124409761D01*
X219164819Y-124409761D02*
X219212438Y-124314523D01*
X219212438Y-124314523D02*
X219260057Y-124266904D01*
X219260057Y-124266904D02*
X219355295Y-124219285D01*
X219355295Y-124219285D02*
X219402914Y-124219285D01*
X219402914Y-124219285D02*
X219498152Y-124266904D01*
X219498152Y-124266904D02*
X219545771Y-124314523D01*
X219545771Y-124314523D02*
X219593390Y-124409761D01*
X219593390Y-124409761D02*
X219593390Y-124600237D01*
X219593390Y-124600237D02*
X219641009Y-124695475D01*
X219641009Y-124695475D02*
X219688628Y-124743094D01*
X219688628Y-124743094D02*
X219783866Y-124790713D01*
X219783866Y-124790713D02*
X219974342Y-124790713D01*
X219974342Y-124790713D02*
X220069580Y-124743094D01*
X220069580Y-124743094D02*
X220117200Y-124695475D01*
X220117200Y-124695475D02*
X220164819Y-124600237D01*
X220164819Y-124600237D02*
X220164819Y-124409761D01*
X220164819Y-124409761D02*
X220117200Y-124314523D01*
X220117200Y-124314523D02*
X220069580Y-124266904D01*
X220069580Y-124266904D02*
X219974342Y-124219285D01*
X219974342Y-124219285D02*
X219783866Y-124219285D01*
X219783866Y-124219285D02*
X219688628Y-124266904D01*
X219688628Y-124266904D02*
X219641009Y-124314523D01*
X219641009Y-124314523D02*
X219593390Y-124409761D01*
X217624819Y-125171666D02*
X217148628Y-125504999D01*
X217624819Y-125743094D02*
X216624819Y-125743094D01*
X216624819Y-125743094D02*
X216624819Y-125362142D01*
X216624819Y-125362142D02*
X216672438Y-125266904D01*
X216672438Y-125266904D02*
X216720057Y-125219285D01*
X216720057Y-125219285D02*
X216815295Y-125171666D01*
X216815295Y-125171666D02*
X216958152Y-125171666D01*
X216958152Y-125171666D02*
X217053390Y-125219285D01*
X217053390Y-125219285D02*
X217101009Y-125266904D01*
X217101009Y-125266904D02*
X217148628Y-125362142D01*
X217148628Y-125362142D02*
X217148628Y-125743094D01*
X216958152Y-124314523D02*
X217624819Y-124314523D01*
X216577200Y-124552618D02*
X217291485Y-124790713D01*
X217291485Y-124790713D02*
X217291485Y-124171666D01*
X218273333Y-108309580D02*
X218225714Y-108357200D01*
X218225714Y-108357200D02*
X218082857Y-108404819D01*
X218082857Y-108404819D02*
X217987619Y-108404819D01*
X217987619Y-108404819D02*
X217844762Y-108357200D01*
X217844762Y-108357200D02*
X217749524Y-108261961D01*
X217749524Y-108261961D02*
X217701905Y-108166723D01*
X217701905Y-108166723D02*
X217654286Y-107976247D01*
X217654286Y-107976247D02*
X217654286Y-107833390D01*
X217654286Y-107833390D02*
X217701905Y-107642914D01*
X217701905Y-107642914D02*
X217749524Y-107547676D01*
X217749524Y-107547676D02*
X217844762Y-107452438D01*
X217844762Y-107452438D02*
X217987619Y-107404819D01*
X217987619Y-107404819D02*
X218082857Y-107404819D01*
X218082857Y-107404819D02*
X218225714Y-107452438D01*
X218225714Y-107452438D02*
X218273333Y-107500057D01*
X219130476Y-107404819D02*
X218940000Y-107404819D01*
X218940000Y-107404819D02*
X218844762Y-107452438D01*
X218844762Y-107452438D02*
X218797143Y-107500057D01*
X218797143Y-107500057D02*
X218701905Y-107642914D01*
X218701905Y-107642914D02*
X218654286Y-107833390D01*
X218654286Y-107833390D02*
X218654286Y-108214342D01*
X218654286Y-108214342D02*
X218701905Y-108309580D01*
X218701905Y-108309580D02*
X218749524Y-108357200D01*
X218749524Y-108357200D02*
X218844762Y-108404819D01*
X218844762Y-108404819D02*
X219035238Y-108404819D01*
X219035238Y-108404819D02*
X219130476Y-108357200D01*
X219130476Y-108357200D02*
X219178095Y-108309580D01*
X219178095Y-108309580D02*
X219225714Y-108214342D01*
X219225714Y-108214342D02*
X219225714Y-107976247D01*
X219225714Y-107976247D02*
X219178095Y-107881009D01*
X219178095Y-107881009D02*
X219130476Y-107833390D01*
X219130476Y-107833390D02*
X219035238Y-107785771D01*
X219035238Y-107785771D02*
X218844762Y-107785771D01*
X218844762Y-107785771D02*
X218749524Y-107833390D01*
X218749524Y-107833390D02*
X218701905Y-107881009D01*
X218701905Y-107881009D02*
X218654286Y-107976247D01*
X223980476Y-140424819D02*
X223980476Y-141139104D01*
X223980476Y-141139104D02*
X223932857Y-141281961D01*
X223932857Y-141281961D02*
X223837619Y-141377200D01*
X223837619Y-141377200D02*
X223694762Y-141424819D01*
X223694762Y-141424819D02*
X223599524Y-141424819D01*
X224980476Y-141424819D02*
X224409048Y-141424819D01*
X224694762Y-141424819D02*
X224694762Y-140424819D01*
X224694762Y-140424819D02*
X224599524Y-140567676D01*
X224599524Y-140567676D02*
X224504286Y-140662914D01*
X224504286Y-140662914D02*
X224409048Y-140710533D01*
X225599524Y-140424819D02*
X225694762Y-140424819D01*
X225694762Y-140424819D02*
X225790000Y-140472438D01*
X225790000Y-140472438D02*
X225837619Y-140520057D01*
X225837619Y-140520057D02*
X225885238Y-140615295D01*
X225885238Y-140615295D02*
X225932857Y-140805771D01*
X225932857Y-140805771D02*
X225932857Y-141043866D01*
X225932857Y-141043866D02*
X225885238Y-141234342D01*
X225885238Y-141234342D02*
X225837619Y-141329580D01*
X225837619Y-141329580D02*
X225790000Y-141377200D01*
X225790000Y-141377200D02*
X225694762Y-141424819D01*
X225694762Y-141424819D02*
X225599524Y-141424819D01*
X225599524Y-141424819D02*
X225504286Y-141377200D01*
X225504286Y-141377200D02*
X225456667Y-141329580D01*
X225456667Y-141329580D02*
X225409048Y-141234342D01*
X225409048Y-141234342D02*
X225361429Y-141043866D01*
X225361429Y-141043866D02*
X225361429Y-140805771D01*
X225361429Y-140805771D02*
X225409048Y-140615295D01*
X225409048Y-140615295D02*
X225456667Y-140520057D01*
X225456667Y-140520057D02*
X225504286Y-140472438D01*
X225504286Y-140472438D02*
X225599524Y-140424819D01*
X245469580Y-125896666D02*
X245517200Y-125944285D01*
X245517200Y-125944285D02*
X245564819Y-126087142D01*
X245564819Y-126087142D02*
X245564819Y-126182380D01*
X245564819Y-126182380D02*
X245517200Y-126325237D01*
X245517200Y-126325237D02*
X245421961Y-126420475D01*
X245421961Y-126420475D02*
X245326723Y-126468094D01*
X245326723Y-126468094D02*
X245136247Y-126515713D01*
X245136247Y-126515713D02*
X244993390Y-126515713D01*
X244993390Y-126515713D02*
X244802914Y-126468094D01*
X244802914Y-126468094D02*
X244707676Y-126420475D01*
X244707676Y-126420475D02*
X244612438Y-126325237D01*
X244612438Y-126325237D02*
X244564819Y-126182380D01*
X244564819Y-126182380D02*
X244564819Y-126087142D01*
X244564819Y-126087142D02*
X244612438Y-125944285D01*
X244612438Y-125944285D02*
X244660057Y-125896666D01*
X245564819Y-124944285D02*
X245564819Y-125515713D01*
X245564819Y-125229999D02*
X244564819Y-125229999D01*
X244564819Y-125229999D02*
X244707676Y-125325237D01*
X244707676Y-125325237D02*
X244802914Y-125420475D01*
X244802914Y-125420475D02*
X244850533Y-125515713D01*
X214432142Y-108244819D02*
X214098809Y-107768628D01*
X213860714Y-108244819D02*
X213860714Y-107244819D01*
X213860714Y-107244819D02*
X214241666Y-107244819D01*
X214241666Y-107244819D02*
X214336904Y-107292438D01*
X214336904Y-107292438D02*
X214384523Y-107340057D01*
X214384523Y-107340057D02*
X214432142Y-107435295D01*
X214432142Y-107435295D02*
X214432142Y-107578152D01*
X214432142Y-107578152D02*
X214384523Y-107673390D01*
X214384523Y-107673390D02*
X214336904Y-107721009D01*
X214336904Y-107721009D02*
X214241666Y-107768628D01*
X214241666Y-107768628D02*
X213860714Y-107768628D01*
X215384523Y-108244819D02*
X214813095Y-108244819D01*
X215098809Y-108244819D02*
X215098809Y-107244819D01*
X215098809Y-107244819D02*
X215003571Y-107387676D01*
X215003571Y-107387676D02*
X214908333Y-107482914D01*
X214908333Y-107482914D02*
X214813095Y-107530533D01*
X216241666Y-107578152D02*
X216241666Y-108244819D01*
X216003571Y-107197200D02*
X215765476Y-107911485D01*
X215765476Y-107911485D02*
X216384523Y-107911485D01*
D11*
%TO.C,R19*%
X212867500Y-140762258D02*
X212867500Y-140287742D01*
X213912500Y-140762258D02*
X213912500Y-140287742D01*
%TO.C,C4*%
X214120000Y-117969420D02*
X214120000Y-118250580D01*
X215140000Y-117969420D02*
X215140000Y-118250580D01*
D12*
%TO.C,C11*%
X241147600Y-132969000D02*
X241147600Y-133731000D01*
X241528600Y-133350000D02*
X240766600Y-133350000D01*
X242735100Y-129819400D02*
X242735100Y-132471160D01*
X242735100Y-134228840D02*
X242735100Y-136880600D01*
X242735100Y-136880600D02*
X249796300Y-136880600D01*
X249796300Y-129819400D02*
X242735100Y-129819400D01*
X249796300Y-132471160D02*
X249796300Y-129819400D01*
X249796300Y-136880600D02*
X249796300Y-134228840D01*
D11*
%TO.C,R7*%
X236967500Y-117872742D02*
X236967500Y-118347258D01*
X238012500Y-117872742D02*
X238012500Y-118347258D01*
D12*
%TO.C,U3*%
X223342200Y-136663600D02*
X224231200Y-136663600D01*
X224231200Y-133666400D02*
X223342200Y-133666400D01*
X224231200Y-134555400D02*
X224231200Y-133666400D01*
X224231200Y-136663600D02*
X224231200Y-135774600D01*
X223824800Y-133666400D02*
G75*
G02*
X223494600Y-133971200I-304748J-1115D01*
G01*
D11*
%TO.C,R17*%
X216647500Y-132417258D02*
X216647500Y-131942742D01*
X217692500Y-132417258D02*
X217692500Y-131942742D01*
%TO.C,J4*%
X227270000Y-142180000D02*
X227270000Y-147380000D01*
X229870000Y-142180000D02*
X227270000Y-142180000D01*
X229870000Y-142180000D02*
X229870000Y-144780000D01*
X229870000Y-144780000D02*
X232470000Y-144780000D01*
X231140000Y-142180000D02*
X232470000Y-142180000D01*
X232470000Y-142180000D02*
X232470000Y-143510000D01*
X232470000Y-144780000D02*
X232470000Y-147380000D01*
X232470000Y-147380000D02*
X227270000Y-147380000D01*
%TO.C,R6*%
X234872500Y-118347258D02*
X234872500Y-117872742D01*
X235917500Y-118347258D02*
X235917500Y-117872742D01*
D13*
%TO.C,SW1*%
X218175000Y-119150000D02*
X222175000Y-119150000D01*
X218175000Y-119519000D02*
X218175000Y-119150000D01*
X218175000Y-122150000D02*
X218175000Y-121781000D01*
X222175000Y-119150000D02*
X222175000Y-119519000D01*
X222175000Y-121781000D02*
X222175000Y-122150000D01*
X222175000Y-122150000D02*
X218175000Y-122150000D01*
X220937000Y-120650000D02*
G75*
G02*
X219413000Y-120650000I-762000J0D01*
G01*
X219413000Y-120650000D02*
G75*
G02*
X220937000Y-120650000I762000J0D01*
G01*
D11*
%TO.C,R13*%
X214837742Y-104887500D02*
X215312258Y-104887500D01*
X214837742Y-105932500D02*
X215312258Y-105932500D01*
%TO.C,R2*%
X247857742Y-123937500D02*
X248332258Y-123937500D01*
X247857742Y-124982500D02*
X248332258Y-124982500D01*
D12*
%TO.C,U4*%
X223342200Y-132853600D02*
X224231200Y-132853600D01*
X224231200Y-129856400D02*
X223342200Y-129856400D01*
X224231200Y-130745400D02*
X224231200Y-129856400D01*
X224231200Y-132853600D02*
X224231200Y-131964600D01*
X223824800Y-129856400D02*
G75*
G02*
X223494600Y-130161200I-304748J-1115D01*
G01*
D11*
%TO.C,C9*%
X252870580Y-113790000D02*
X252589420Y-113790000D01*
X252870580Y-114810000D02*
X252589420Y-114810000D01*
D14*
%TO.C,J12*%
X225560000Y-97610000D02*
X225560000Y-97840000D01*
X233160000Y-97610000D02*
X225560000Y-97610000D01*
X233160000Y-97610000D02*
X233160000Y-97840000D01*
D15*
X230760000Y-103110000D02*
G75*
G02*
X230560000Y-103110000I-100000J0D01*
G01*
X230560000Y-103110000D02*
G75*
G02*
X230760000Y-103110000I100000J0D01*
G01*
D14*
%TO.C,J5*%
X192850000Y-124330000D02*
X192850000Y-139830000D01*
X192850000Y-139830000D02*
X211050000Y-139830000D01*
X211050000Y-124330000D02*
X192850000Y-124330000D01*
X211050000Y-124330000D02*
X211050000Y-126302000D01*
X211050000Y-133502000D02*
X211050000Y-130658000D01*
X211050000Y-139830000D02*
X211050000Y-137858000D01*
X213360000Y-127000000D02*
X213360000Y-128270000D01*
X213360000Y-128270000D02*
X212090000Y-128270000D01*
X213360000Y-128270000D02*
X214630000Y-128270000D01*
X213360000Y-129540000D02*
X213360000Y-128270000D01*
D11*
%TO.C,J1*%
X257810000Y-115600000D02*
X257810000Y-97760000D01*
X260470000Y-97760000D02*
X257810000Y-97760000D01*
X260470000Y-115600000D02*
X257810000Y-115600000D01*
X260470000Y-115600000D02*
X260470000Y-97760000D01*
X260470000Y-116870000D02*
X260470000Y-118200000D01*
X260470000Y-118200000D02*
X259140000Y-118200000D01*
%TO.C,C2*%
X231125000Y-129399420D02*
X231125000Y-129680580D01*
X232145000Y-129399420D02*
X232145000Y-129680580D01*
%TO.C,J3*%
X233620000Y-147380000D02*
X233620000Y-146050000D01*
X234950000Y-147380000D02*
X233620000Y-147380000D01*
X236220000Y-144720000D02*
X241360000Y-144720000D01*
X236220000Y-147380000D02*
X236220000Y-144720000D01*
X236220000Y-147380000D02*
X241360000Y-147380000D01*
X241360000Y-147380000D02*
X241360000Y-144720000D01*
D16*
%TO.C,U1*%
X233599000Y-123632500D02*
X243451000Y-123632500D01*
X233599000Y-127175500D02*
X233599000Y-123632500D01*
X243451000Y-123632500D02*
X243451000Y-127175500D01*
X243451000Y-127175500D02*
X233599000Y-127175500D01*
D17*
X233826500Y-128270000D02*
G75*
G02*
X233525500Y-128270000I-150500J0D01*
G01*
X233525500Y-128270000D02*
G75*
G02*
X233826500Y-128270000I150500J0D01*
G01*
X234450000Y-126423000D02*
G75*
G02*
X234150000Y-126423000I-150000J0D01*
G01*
X234150000Y-126423000D02*
G75*
G02*
X234450000Y-126423000I150000J0D01*
G01*
D11*
%TO.C,R15*%
X216647500Y-135847258D02*
X216647500Y-135372742D01*
X217692500Y-135847258D02*
X217692500Y-135372742D01*
%TO.C,C10*%
X251814420Y-111250000D02*
X252095580Y-111250000D01*
X251814420Y-112270000D02*
X252095580Y-112270000D01*
%TO.C,R12*%
X239507500Y-119142742D02*
X239507500Y-119617258D01*
X240552500Y-119142742D02*
X240552500Y-119617258D01*
%TO.C,R5*%
X231347742Y-117587500D02*
X231822258Y-117587500D01*
X231347742Y-118632500D02*
X231822258Y-118632500D01*
%TO.C,D5*%
X204737500Y-142775000D02*
X204737500Y-144245000D01*
X204737500Y-144245000D02*
X207022500Y-144245000D01*
X207022500Y-142775000D02*
X204737500Y-142775000D01*
%TO.C,C7*%
X220064420Y-104900000D02*
X220345580Y-104900000D01*
X220064420Y-105920000D02*
X220345580Y-105920000D01*
D14*
%TO.C,U6*%
X253726000Y-129037750D02*
X253726000Y-146362750D01*
X255631000Y-148267750D02*
X269601000Y-148267750D01*
X258111000Y-142384750D02*
X267110000Y-142384750D01*
X258111000Y-149736750D02*
X258111000Y-142384750D01*
X265156000Y-137726750D02*
X265156000Y-138488750D01*
X265537000Y-138107750D02*
X264775000Y-138107750D01*
X265537000Y-140012750D02*
X264775000Y-140012750D01*
X267106000Y-149736750D02*
X258111000Y-149736750D01*
X267110000Y-142384750D02*
X267110000Y-149737750D01*
X269601000Y-127132750D02*
X255631000Y-127132750D01*
X271506000Y-129037750D02*
X271506000Y-146362750D01*
X253726000Y-129037750D02*
G75*
G02*
X255631000Y-127132750I1905000J0D01*
G01*
X255631000Y-148267750D02*
G75*
G02*
X253726000Y-146362750I0J1905000D01*
G01*
X269601000Y-127132750D02*
G75*
G02*
X271506000Y-129037750I0J-1905000D01*
G01*
X271506000Y-146362750D02*
G75*
G02*
X269601000Y-148267750I-1905001J1D01*
G01*
D13*
X272522000Y-145473750D02*
G75*
G02*
X272268000Y-145473750I-127000J0D01*
G01*
X272268000Y-145473750D02*
G75*
G02*
X272522000Y-145473750I127000J0D01*
G01*
D11*
%TO.C,R18*%
X219187500Y-132417258D02*
X219187500Y-131942742D01*
X220232500Y-132417258D02*
X220232500Y-131942742D01*
%TO.C,C12*%
X252095580Y-108710000D02*
X251814420Y-108710000D01*
X252095580Y-109730000D02*
X251814420Y-109730000D01*
%TO.C,C16*%
X236854420Y-113790000D02*
X237135580Y-113790000D01*
X236854420Y-114810000D02*
X237135580Y-114810000D01*
%TO.C,R10*%
X210232258Y-142987500D02*
X209757742Y-142987500D01*
X210232258Y-144032500D02*
X209757742Y-144032500D01*
D14*
%TO.C,Y1*%
X237160000Y-107210000D02*
X237160000Y-112210000D01*
X240360000Y-107210000D02*
X240360000Y-112210000D01*
D11*
%TO.C,C8*%
X234440000Y-110630580D02*
X234440000Y-110349420D01*
X235460000Y-110630580D02*
X235460000Y-110349420D01*
D14*
%TO.C,U2*%
X223830000Y-106990000D02*
X223830000Y-107095000D01*
X223830000Y-106990000D02*
X223935000Y-106990000D01*
X223830000Y-113990000D02*
X223830000Y-113885000D01*
X223830000Y-113990000D02*
X223935000Y-113990000D01*
X230830000Y-106990000D02*
X230725000Y-106990000D01*
X230830000Y-106990000D02*
X230830000Y-107095000D01*
X230830000Y-113990000D02*
X230725000Y-113990000D01*
X230830000Y-113990000D02*
X230830000Y-113885000D01*
D15*
X233270000Y-113290000D02*
G75*
G02*
X233070000Y-113290000I-100000J0D01*
G01*
X233070000Y-113290000D02*
G75*
G02*
X233270000Y-113290000I100000J0D01*
G01*
D14*
%TO.C,VR1*%
X217595000Y-112050000D02*
X217595000Y-112880000D01*
X217595000Y-116550000D02*
X217595000Y-115720000D01*
X220095000Y-112050000D02*
X217595000Y-112050000D01*
X220095000Y-112050000D02*
X220095000Y-112880000D01*
X220095000Y-116550000D02*
X217595000Y-116550000D01*
X220095000Y-116550000D02*
X220095000Y-115720000D01*
D15*
X215140000Y-112800000D02*
G75*
G02*
X214940000Y-112800000I-100000J0D01*
G01*
X214940000Y-112800000D02*
G75*
G02*
X215140000Y-112800000I100000J0D01*
G01*
D11*
%TO.C,R1*%
X248237742Y-126477500D02*
X248712258Y-126477500D01*
X248237742Y-127522500D02*
X248712258Y-127522500D01*
%TO.C,J2*%
X212030000Y-147380000D02*
X212030000Y-146050000D01*
X213360000Y-147380000D02*
X212030000Y-147380000D01*
X214630000Y-144720000D02*
X217230000Y-144720000D01*
X214630000Y-147380000D02*
X214630000Y-144720000D01*
X214630000Y-147380000D02*
X217230000Y-147380000D01*
X217230000Y-147380000D02*
X217230000Y-144720000D01*
%TO.C,R3*%
X247857742Y-121397500D02*
X248332258Y-121397500D01*
X247857742Y-122442500D02*
X248332258Y-122442500D01*
D12*
%TO.C,U7*%
X223342200Y-129043600D02*
X224231200Y-129043600D01*
X224231200Y-126046400D02*
X223342200Y-126046400D01*
X224231200Y-126935400D02*
X224231200Y-126046400D01*
X224231200Y-129043600D02*
X224231200Y-128154600D01*
X223824800Y-126046400D02*
G75*
G02*
X223494600Y-126351200I-304748J-1115D01*
G01*
D11*
%TO.C,C17*%
X236855580Y-104900000D02*
X236574420Y-104900000D01*
X236855580Y-105920000D02*
X236574420Y-105920000D01*
%TO.C,R16*%
X219187500Y-135847258D02*
X219187500Y-135372742D01*
X220232500Y-135847258D02*
X220232500Y-135372742D01*
D14*
%TO.C,J6*%
X192850000Y-106950000D02*
X192850000Y-122450000D01*
X192850000Y-122450000D02*
X211050000Y-122450000D01*
X211050000Y-106950000D02*
X192850000Y-106950000D01*
X211050000Y-106950000D02*
X211050000Y-108922000D01*
X211050000Y-116122000D02*
X211050000Y-113278000D01*
X211050000Y-122450000D02*
X211050000Y-120478000D01*
X213360000Y-109620000D02*
X213360000Y-110890000D01*
X213360000Y-110890000D02*
X212090000Y-110890000D01*
X213360000Y-110890000D02*
X214630000Y-110890000D01*
X213360000Y-112160000D02*
X213360000Y-110890000D01*
D11*
%TO.C,U5*%
X246380000Y-109240000D02*
X244430000Y-109240000D01*
X246380000Y-109240000D02*
X248330000Y-109240000D01*
X246380000Y-119360000D02*
X244430000Y-119360000D01*
X246380000Y-119360000D02*
X248330000Y-119360000D01*
X243680000Y-109295000D02*
X243440000Y-108965000D01*
X243920000Y-108965000D01*
X243680000Y-109295000D01*
G36*
X243680000Y-109295000D02*
G01*
X243440000Y-108965000D01*
X243920000Y-108965000D01*
X243680000Y-109295000D01*
G37*
%TO.C,C3*%
X234440000Y-132434420D02*
X234440000Y-132715580D01*
X235460000Y-132434420D02*
X235460000Y-132715580D01*
%TO.C,R20*%
X215377500Y-140762258D02*
X215377500Y-140287742D01*
X216422500Y-140762258D02*
X216422500Y-140287742D01*
%TO.C,R8*%
X219187500Y-128607258D02*
X219187500Y-128132742D01*
X220232500Y-128607258D02*
X220232500Y-128132742D01*
%TO.C,R4*%
X216647500Y-128607258D02*
X216647500Y-128132742D01*
X217692500Y-128607258D02*
X217692500Y-128132742D01*
%TO.C,C6*%
X220470000Y-109360580D02*
X220470000Y-109079420D01*
X221490000Y-109360580D02*
X221490000Y-109079420D01*
%TO.C,J10*%
X218380000Y-142180000D02*
X226120000Y-142180000D01*
X218380000Y-144780000D02*
X218380000Y-142180000D01*
X218380000Y-147380000D02*
X218380000Y-146050000D01*
X219710000Y-147380000D02*
X218380000Y-147380000D01*
X220980000Y-144780000D02*
X218380000Y-144780000D01*
X220980000Y-147380000D02*
X220980000Y-144780000D01*
X220980000Y-147380000D02*
X226120000Y-147380000D01*
X226120000Y-147380000D02*
X226120000Y-142180000D01*
%TO.C,C1*%
X244600000Y-123330580D02*
X244600000Y-123049420D01*
X245620000Y-123330580D02*
X245620000Y-123049420D01*
%TO.C,R14*%
X214837742Y-108697500D02*
X215312258Y-108697500D01*
X214837742Y-109742500D02*
X215312258Y-109742500D01*
%TD*%
%LPC*%
D18*
%TO.C,VR1*%
X217260000Y-113370000D02*
X215620000Y-113370000D01*
X215620000Y-112230000D01*
X217260000Y-112230000D01*
X217260000Y-113370000D01*
G36*
X217260000Y-113370000D02*
G01*
X215620000Y-113370000D01*
X215620000Y-112230000D01*
X217260000Y-112230000D01*
X217260000Y-113370000D01*
G37*
X217260000Y-116370000D02*
X215620000Y-116370000D01*
X215620000Y-115230000D01*
X217260000Y-115230000D01*
X217260000Y-116370000D01*
G36*
X217260000Y-116370000D02*
G01*
X215620000Y-116370000D01*
X215620000Y-115230000D01*
X217260000Y-115230000D01*
X217260000Y-116370000D01*
G37*
X221260000Y-114065000D02*
X221260000Y-114535000D01*
X220325000Y-115470000D01*
X218055000Y-115470000D01*
X217455000Y-114870000D01*
X215620000Y-114870000D01*
X215620000Y-113730000D01*
X217455000Y-113730000D01*
X218055000Y-113130000D01*
X220325000Y-113130000D01*
X221260000Y-114065000D01*
G36*
X221260000Y-114065000D02*
G01*
X221260000Y-114535000D01*
X220325000Y-115470000D01*
X218055000Y-115470000D01*
X217455000Y-114870000D01*
X215620000Y-114870000D01*
X215620000Y-113730000D01*
X217455000Y-113730000D01*
X218055000Y-113130000D01*
X220325000Y-113130000D01*
X221260000Y-114065000D01*
G37*
%TD*%
D19*
%TO.C,R19*%
X213390000Y-141350000D03*
X213390000Y-139700000D03*
%TD*%
D20*
%TO.C,C4*%
X214630000Y-117335000D03*
X214630000Y-118885000D03*
%TD*%
D21*
%TO.C,C11*%
X243611400Y-133350000D03*
X248920000Y-133350000D03*
%TD*%
D22*
%TO.C,R7*%
X237490000Y-117285000D03*
X237490000Y-118935000D03*
%TD*%
D23*
%TO.C,U3*%
X222504000Y-134225200D03*
X222504000Y-136104800D03*
X224536000Y-135165000D03*
%TD*%
D19*
%TO.C,R17*%
X217170000Y-133005000D03*
X217170000Y-131355000D03*
%TD*%
D24*
%TO.C,J4*%
X231140000Y-143510000D03*
D25*
X231140000Y-146050000D03*
X228600000Y-143510000D03*
X228600000Y-146050000D03*
%TD*%
D19*
%TO.C,R6*%
X235395000Y-118935000D03*
X235395000Y-117285000D03*
%TD*%
D26*
%TO.C,SW1*%
X218100000Y-120650000D03*
X222250000Y-120650000D03*
%TD*%
D27*
%TO.C,R13*%
X214250000Y-105410000D03*
X215900000Y-105410000D03*
%TD*%
%TO.C,R2*%
X247270000Y-124460000D03*
X248920000Y-124460000D03*
%TD*%
D23*
%TO.C,U4*%
X222504000Y-130415200D03*
X222504000Y-132294800D03*
X224536000Y-131355000D03*
%TD*%
D28*
%TO.C,C9*%
X253505000Y-114300000D03*
X251955000Y-114300000D03*
%TD*%
D29*
%TO.C,J12*%
X230660000Y-101735000D03*
X230010000Y-101735000D03*
X229360000Y-101735000D03*
X228710000Y-101735000D03*
X228060000Y-101735000D03*
D30*
X232560000Y-101510000D03*
X226160000Y-101510000D03*
D31*
X228160000Y-99060000D03*
X230560000Y-99060000D03*
D32*
X232660000Y-99060000D03*
X226060000Y-99060000D03*
%TD*%
D33*
%TO.C,J5*%
X209200000Y-128480000D03*
D34*
X209200000Y-135680000D03*
D35*
X203200000Y-125330000D03*
X203200000Y-138830000D03*
%TD*%
D24*
%TO.C,J1*%
X259140000Y-116870000D03*
D25*
X259140000Y-114330000D03*
X259140000Y-111790000D03*
X259140000Y-109250000D03*
X259140000Y-106710000D03*
X259140000Y-104170000D03*
X259140000Y-101630000D03*
X259140000Y-99090000D03*
%TD*%
D20*
%TO.C,C2*%
X231635000Y-128765000D03*
X231635000Y-130315000D03*
%TD*%
D24*
%TO.C,J3*%
X234950000Y-146050000D03*
D25*
X237490000Y-146050000D03*
X240030000Y-146050000D03*
%TD*%
D36*
%TO.C,U1*%
X234300000Y-128270000D03*
X234950000Y-128270000D03*
X235600000Y-128270000D03*
X236250000Y-128270000D03*
X236900000Y-128270000D03*
X237550000Y-128270000D03*
X238200000Y-128270000D03*
X238850000Y-128270000D03*
X239500000Y-128270000D03*
X240150000Y-128270000D03*
X240800000Y-128270000D03*
X241450000Y-128270000D03*
X242100000Y-128270000D03*
X242750000Y-128270000D03*
X242750000Y-122538000D03*
X242100000Y-122538000D03*
X241450000Y-122538000D03*
X240800000Y-122538000D03*
X240150000Y-122538000D03*
X239500000Y-122538000D03*
X238850000Y-122538000D03*
X238200000Y-122538000D03*
X237550000Y-122538000D03*
X236900000Y-122538000D03*
X236250000Y-122538000D03*
X235600000Y-122538000D03*
X234950000Y-122538000D03*
X234300000Y-122538000D03*
D37*
X238525000Y-125404000D03*
%TD*%
D19*
%TO.C,R15*%
X217170000Y-136435000D03*
X217170000Y-134785000D03*
%TD*%
D38*
%TO.C,C10*%
X251180000Y-111760000D03*
X252730000Y-111760000D03*
%TD*%
D22*
%TO.C,R12*%
X240030000Y-118555000D03*
X240030000Y-120205000D03*
%TD*%
D27*
%TO.C,R5*%
X230760000Y-118110000D03*
X232410000Y-118110000D03*
%TD*%
D39*
%TO.C,D5*%
X205435000Y-143510000D03*
X207010000Y-143510000D03*
%TD*%
D40*
%TO.C,H2*%
X247650000Y-104190000D03*
%TD*%
D38*
%TO.C,C7*%
X219430000Y-105410000D03*
X220980000Y-105410000D03*
%TD*%
D41*
%TO.C,U6*%
X270671000Y-145432750D03*
X270671000Y-142892750D03*
X270671000Y-140352750D03*
X270671000Y-137812750D03*
X270671000Y-135272750D03*
X270671000Y-132732750D03*
X270671000Y-130192750D03*
X254506000Y-130192750D03*
X254506000Y-132732750D03*
X254506000Y-135272750D03*
X254506000Y-137812750D03*
X254506000Y-140352750D03*
X254506000Y-142892750D03*
X254506000Y-145432750D03*
D42*
X267061000Y-138107750D03*
X267061000Y-140012750D03*
%TD*%
D19*
%TO.C,R18*%
X219710000Y-133005000D03*
X219710000Y-131355000D03*
%TD*%
D40*
%TO.C,H4*%
X266650000Y-123190000D03*
%TD*%
D28*
%TO.C,C12*%
X252730000Y-109220000D03*
X251180000Y-109220000D03*
%TD*%
D38*
%TO.C,C16*%
X236220000Y-114300000D03*
X237770000Y-114300000D03*
%TD*%
D43*
%TO.C,R10*%
X210820000Y-143510000D03*
X209170000Y-143510000D03*
%TD*%
D44*
%TO.C,Y1*%
X238760000Y-107660000D03*
X238760000Y-111760000D03*
%TD*%
D45*
%TO.C,C8*%
X234950000Y-111265000D03*
X234950000Y-109715000D03*
%TD*%
D46*
%TO.C,U2*%
X231500000Y-113290000D03*
X231500000Y-112490000D03*
X231500000Y-111690000D03*
X231500000Y-110890000D03*
X231500000Y-110090000D03*
X231500000Y-109290000D03*
X231500000Y-108490000D03*
X231500000Y-107690000D03*
D47*
X230130000Y-106320000D03*
X229330000Y-106320000D03*
X228530000Y-106320000D03*
X227730000Y-106320000D03*
X226930000Y-106320000D03*
X226130000Y-106320000D03*
X225330000Y-106320000D03*
X224530000Y-106320000D03*
D46*
X223160000Y-107690000D03*
X223160000Y-108490000D03*
X223160000Y-109290000D03*
X223160000Y-110090000D03*
X223160000Y-110890000D03*
X223160000Y-111690000D03*
X223160000Y-112490000D03*
X223160000Y-113290000D03*
D47*
X224530000Y-114660000D03*
X225330000Y-114660000D03*
X226130000Y-114660000D03*
X226930000Y-114660000D03*
X227730000Y-114660000D03*
X228530000Y-114660000D03*
X229330000Y-114660000D03*
X230130000Y-114660000D03*
%TD*%
D27*
%TO.C,R1*%
X247650000Y-127000000D03*
X249300000Y-127000000D03*
%TD*%
D24*
%TO.C,J2*%
X213360000Y-146050000D03*
D25*
X215900000Y-146050000D03*
%TD*%
D27*
%TO.C,R3*%
X247270000Y-121920000D03*
X248920000Y-121920000D03*
%TD*%
D23*
%TO.C,U7*%
X222504000Y-126605200D03*
X222504000Y-128484800D03*
X224536000Y-127545000D03*
%TD*%
D28*
%TO.C,C17*%
X237490000Y-105410000D03*
X235940000Y-105410000D03*
%TD*%
D19*
%TO.C,R16*%
X219710000Y-136435000D03*
X219710000Y-134785000D03*
%TD*%
D33*
%TO.C,J6*%
X209200000Y-111100000D03*
D34*
X209200000Y-118300000D03*
D35*
X203200000Y-107950000D03*
X203200000Y-121450000D03*
%TD*%
D40*
%TO.C,H3*%
X247650000Y-142190000D03*
%TD*%
%TO.C,H1*%
X228650000Y-123190000D03*
%TD*%
D48*
%TO.C,U5*%
X243905000Y-109855000D03*
X243905000Y-111125000D03*
X243905000Y-112395000D03*
X243905000Y-113665000D03*
X243905000Y-114935000D03*
X243905000Y-116205000D03*
X243905000Y-117475000D03*
X243905000Y-118745000D03*
X248855000Y-118745000D03*
X248855000Y-117475000D03*
X248855000Y-116205000D03*
X248855000Y-114935000D03*
X248855000Y-113665000D03*
X248855000Y-112395000D03*
X248855000Y-111125000D03*
X248855000Y-109855000D03*
%TD*%
D20*
%TO.C,C3*%
X234950000Y-131800000D03*
X234950000Y-133350000D03*
%TD*%
D19*
%TO.C,R20*%
X215900000Y-141350000D03*
X215900000Y-139700000D03*
%TD*%
%TO.C,R8*%
X219710000Y-129195000D03*
X219710000Y-127545000D03*
%TD*%
%TO.C,R4*%
X217170000Y-129195000D03*
X217170000Y-127545000D03*
%TD*%
D45*
%TO.C,C6*%
X220980000Y-109995000D03*
X220980000Y-108445000D03*
%TD*%
D24*
%TO.C,J10*%
X219710000Y-146050000D03*
D25*
X219710000Y-143510000D03*
X222250000Y-146050000D03*
X222250000Y-143510000D03*
X224790000Y-146050000D03*
X224790000Y-143510000D03*
%TD*%
D45*
%TO.C,C1*%
X245110000Y-123965000D03*
X245110000Y-122415000D03*
%TD*%
D27*
%TO.C,R14*%
X214250000Y-109220000D03*
X215900000Y-109220000D03*
%TD*%
%LPD*%
M02*
