%TF.GenerationSoftware,KiCad,Pcbnew,8.0.4*%
%TF.CreationDate,2024-11-29T22:55:18-05:00*%
%TF.ProjectId,foc_pcb,666f635f-7063-4622-9e6b-696361645f70,2.0*%
%TF.SameCoordinates,Original*%
%TF.FileFunction,Copper,L1,Top*%
%TF.FilePolarity,Positive*%
%FSLAX46Y46*%
G04 Gerber Fmt 4.6, Leading zero omitted, Abs format (unit mm)*
G04 Created by KiCad (PCBNEW 8.0.4) date 2024-11-29 22:55:18*
%MOMM*%
%LPD*%
G01*
G04 APERTURE LIST*
G04 Aperture macros list*
%AMRoundRect*
0 Rectangle with rounded corners*
0 $1 Rounding radius*
0 $2 $3 $4 $5 $6 $7 $8 $9 X,Y pos of 4 corners*
0 Add a 4 corners polygon primitive as box body*
4,1,4,$2,$3,$4,$5,$6,$7,$8,$9,$2,$3,0*
0 Add four circle primitives for the rounded corners*
1,1,$1+$1,$2,$3*
1,1,$1+$1,$4,$5*
1,1,$1+$1,$6,$7*
1,1,$1+$1,$8,$9*
0 Add four rect primitives between the rounded corners*
20,1,$1+$1,$2,$3,$4,$5,0*
20,1,$1+$1,$4,$5,$6,$7,0*
20,1,$1+$1,$6,$7,$8,$9,0*
20,1,$1+$1,$8,$9,$2,$3,0*%
%AMFreePoly0*
4,1,21,3.853536,1.103536,4.753536,0.203536,4.755000,0.200000,4.755000,-0.200000,4.753536,-0.203536,3.853536,-1.103536,3.850000,-1.105000,1.650000,-1.105000,1.646464,-1.103536,1.047928,-0.505000,-0.750000,-0.505000,-0.753536,-0.503536,-0.755000,-0.500000,-0.755000,0.500000,-0.753536,0.503536,-0.750000,0.505000,1.047928,0.505000,1.646464,1.103536,1.650000,1.105000,3.850000,1.105000,
3.853536,1.103536,3.853536,1.103536,$1*%
G04 Aperture macros list end*
%TA.AperFunction,SMDPad,CuDef*%
%ADD10RoundRect,0.200000X0.275000X-0.200000X0.275000X0.200000X-0.275000X0.200000X-0.275000X-0.200000X0*%
%TD*%
%TA.AperFunction,SMDPad,CuDef*%
%ADD11RoundRect,0.225000X-0.250000X0.225000X-0.250000X-0.225000X0.250000X-0.225000X0.250000X0.225000X0*%
%TD*%
%TA.AperFunction,SMDPad,CuDef*%
%ADD12R,2.692400X1.092200*%
%TD*%
%TA.AperFunction,SMDPad,CuDef*%
%ADD13RoundRect,0.200000X-0.275000X0.200000X-0.275000X-0.200000X0.275000X-0.200000X0.275000X0.200000X0*%
%TD*%
%TA.AperFunction,SMDPad,CuDef*%
%ADD14R,1.320800X0.558800*%
%TD*%
%TA.AperFunction,ComponentPad*%
%ADD15R,1.700000X1.700000*%
%TD*%
%TA.AperFunction,ComponentPad*%
%ADD16O,1.700000X1.700000*%
%TD*%
%TA.AperFunction,SMDPad,CuDef*%
%ADD17R,1.350000X1.800000*%
%TD*%
%TA.AperFunction,SMDPad,CuDef*%
%ADD18RoundRect,0.200000X-0.200000X-0.275000X0.200000X-0.275000X0.200000X0.275000X-0.200000X0.275000X0*%
%TD*%
%TA.AperFunction,SMDPad,CuDef*%
%ADD19RoundRect,0.225000X0.225000X0.250000X-0.225000X0.250000X-0.225000X-0.250000X0.225000X-0.250000X0*%
%TD*%
%TA.AperFunction,SMDPad,CuDef*%
%ADD20R,0.400000X1.350000*%
%TD*%
%TA.AperFunction,SMDPad,CuDef*%
%ADD21R,1.600000X1.400000*%
%TD*%
%TA.AperFunction,SMDPad,CuDef*%
%ADD22R,1.900000X1.900000*%
%TD*%
%TA.AperFunction,ComponentPad*%
%ADD23O,0.900000X1.800000*%
%TD*%
%TA.AperFunction,ComponentPad*%
%ADD24R,3.716000X3.716000*%
%TD*%
%TA.AperFunction,ComponentPad*%
%ADD25C,3.716000*%
%TD*%
%TA.AperFunction,ComponentPad*%
%ADD26O,2.400000X1.200000*%
%TD*%
%TA.AperFunction,SMDPad,CuDef*%
%ADD27O,0.343000X1.731500*%
%TD*%
%TA.AperFunction,SMDPad,CuDef*%
%ADD28R,6.200000X2.750000*%
%TD*%
%TA.AperFunction,SMDPad,CuDef*%
%ADD29RoundRect,0.225000X-0.225000X-0.250000X0.225000X-0.250000X0.225000X0.250000X-0.225000X0.250000X0*%
%TD*%
%TA.AperFunction,SMDPad,CuDef*%
%ADD30RoundRect,0.218750X-0.218750X-0.256250X0.218750X-0.256250X0.218750X0.256250X-0.218750X0.256250X0*%
%TD*%
%TA.AperFunction,SMDPad,CuDef*%
%ADD31RoundRect,0.500000X0.875000X0.500000X-0.875000X0.500000X-0.875000X-0.500000X0.875000X-0.500000X0*%
%TD*%
%TA.AperFunction,SMDPad,CuDef*%
%ADD32RoundRect,0.317500X-0.825500X0.317500X-0.825500X-0.317500X0.825500X-0.317500X0.825500X0.317500X0*%
%TD*%
%TA.AperFunction,SMDPad,CuDef*%
%ADD33RoundRect,0.200000X0.200000X0.275000X-0.200000X0.275000X-0.200000X-0.275000X0.200000X-0.275000X0*%
%TD*%
%TA.AperFunction,SMDPad,CuDef*%
%ADD34R,2.400000X1.900000*%
%TD*%
%TA.AperFunction,SMDPad,CuDef*%
%ADD35RoundRect,0.225000X0.250000X-0.225000X0.250000X0.225000X-0.250000X0.225000X-0.250000X-0.225000X0*%
%TD*%
%TA.AperFunction,SMDPad,CuDef*%
%ADD36RoundRect,0.068750X0.666250X0.206250X-0.666250X0.206250X-0.666250X-0.206250X0.666250X-0.206250X0*%
%TD*%
%TA.AperFunction,SMDPad,CuDef*%
%ADD37RoundRect,0.068750X0.206250X0.666250X-0.206250X0.666250X-0.206250X-0.666250X0.206250X-0.666250X0*%
%TD*%
%TA.AperFunction,SMDPad,CuDef*%
%ADD38R,1.500000X1.000000*%
%TD*%
%TA.AperFunction,SMDPad,CuDef*%
%ADD39FreePoly0,0.000000*%
%TD*%
%TA.AperFunction,SMDPad,CuDef*%
%ADD40RoundRect,0.150000X-0.825000X-0.150000X0.825000X-0.150000X0.825000X0.150000X-0.825000X0.150000X0*%
%TD*%
%TA.AperFunction,ViaPad*%
%ADD41C,0.800000*%
%TD*%
%TA.AperFunction,Conductor*%
%ADD42C,0.250000*%
%TD*%
%TA.AperFunction,Conductor*%
%ADD43C,0.525000*%
%TD*%
G04 APERTURE END LIST*
D10*
%TO.P,R19,1*%
%TO.N,/esp_scl_0*%
X213390000Y-141350000D03*
%TO.P,R19,2*%
%TO.N,+3.3V*%
X213390000Y-139700000D03*
%TD*%
D11*
%TO.P,C4,1*%
%TO.N,VCC*%
X214630000Y-117335000D03*
%TO.P,C4,2*%
%TO.N,GND*%
X214630000Y-118885000D03*
%TD*%
D12*
%TO.P,C11,1*%
%TO.N,VCC*%
X243611400Y-133350000D03*
%TO.P,C11,2*%
%TO.N,GND*%
X248920000Y-133350000D03*
%TD*%
D13*
%TO.P,R7,1*%
%TO.N,/uTX*%
X237490000Y-117285000D03*
%TO.P,R7,2*%
%TO.N,Net-(U5-RXD)*%
X237490000Y-118935000D03*
%TD*%
D14*
%TO.P,U3,1,G*%
%TO.N,+3.3V*%
X222504000Y-134225200D03*
%TO.P,U3,2,S*%
%TO.N,/esp_mosi*%
X222504000Y-136104800D03*
%TO.P,U3,3,D*%
%TO.N,/mosi*%
X224536000Y-135165000D03*
%TD*%
D10*
%TO.P,R17,1*%
%TO.N,+3.3V*%
X217170000Y-133005000D03*
%TO.P,R17,2*%
%TO.N,/esp_miso*%
X217170000Y-131355000D03*
%TD*%
D15*
%TO.P,J4,1,Pin_1*%
%TO.N,GND*%
X231140000Y-143510000D03*
D16*
%TO.P,J4,2,Pin_2*%
X231140000Y-146050000D03*
%TO.P,J4,3,Pin_3*%
%TO.N,+5V*%
X228600000Y-143510000D03*
%TO.P,J4,4,Pin_4*%
%TO.N,+3.3V*%
X228600000Y-146050000D03*
%TD*%
D10*
%TO.P,R6,1*%
%TO.N,Net-(U5-TXD)*%
X235395000Y-118935000D03*
%TO.P,R6,2*%
%TO.N,/uRX*%
X235395000Y-117285000D03*
%TD*%
D17*
%TO.P,SW1,1,1*%
%TO.N,GND*%
X218100000Y-120650000D03*
%TO.P,SW1,2,2*%
%TO.N,/rst*%
X222250000Y-120650000D03*
%TD*%
D18*
%TO.P,R13,1*%
%TO.N,+5V*%
X214250000Y-105410000D03*
%TO.P,R13,2*%
%TO.N,Net-(VR1-ADJUSTMENT)*%
X215900000Y-105410000D03*
%TD*%
%TO.P,R2,1*%
%TO.N,/nSlp*%
X247270000Y-124460000D03*
%TO.P,R2,2*%
%TO.N,+3.3V*%
X248920000Y-124460000D03*
%TD*%
D14*
%TO.P,U4,1,G*%
%TO.N,+3.3V*%
X222504000Y-130415200D03*
%TO.P,U4,2,S*%
%TO.N,/esp_miso*%
X222504000Y-132294800D03*
%TO.P,U4,3,D*%
%TO.N,/miso*%
X224536000Y-131355000D03*
%TD*%
D19*
%TO.P,C9,1*%
%TO.N,/rst*%
X253505000Y-114300000D03*
%TO.P,C9,2*%
%TO.N,Net-(U5-~{DTR})*%
X251955000Y-114300000D03*
%TD*%
D20*
%TO.P,J12,1,VUSB*%
%TO.N,+5V*%
X230660000Y-101735000D03*
%TO.P,J12,2,D-*%
%TO.N,/ud-*%
X230010000Y-101735000D03*
%TO.P,J12,3,D+*%
%TO.N,/ud+*%
X229360000Y-101735000D03*
%TO.P,J12,4,ID*%
%TO.N,unconnected-(J12-ID-Pad4)*%
X228710000Y-101735000D03*
%TO.P,J12,5,GND*%
%TO.N,GND*%
X228060000Y-101735000D03*
D21*
%TO.P,J12,S1,SHIELD*%
%TO.N,unconnected-(J12-SHIELD-PadS1)*%
X232560000Y-101510000D03*
%TO.P,J12,S2,SHIELD__1*%
%TO.N,unconnected-(J12-SHIELD__1-PadS2)*%
X226160000Y-101510000D03*
D22*
%TO.P,J12,S3,SHIELD__2*%
%TO.N,unconnected-(J12-SHIELD__2-PadS3)*%
X228160000Y-99060000D03*
%TO.P,J12,S4,SHIELD__3*%
%TO.N,unconnected-(J12-SHIELD__3-PadS4)*%
X230560000Y-99060000D03*
D23*
%TO.P,J12,S5,SHIELD__4*%
%TO.N,unconnected-(J12-SHIELD__4-PadS5)*%
X232660000Y-99060000D03*
%TO.P,J12,S6,SHIELD__5*%
%TO.N,unconnected-(J12-SHIELD__5-PadS6)*%
X226060000Y-99060000D03*
%TD*%
D24*
%TO.P,J5,1,+*%
%TO.N,VCC*%
X209200000Y-128480000D03*
D25*
%TO.P,J5,2,-*%
%TO.N,GND*%
X209200000Y-135680000D03*
D26*
%TO.P,J5,S1*%
%TO.N,N/C*%
X203200000Y-125330000D03*
%TO.P,J5,S2*%
X203200000Y-138830000D03*
%TD*%
D15*
%TO.P,J1,1,Pin_1*%
%TO.N,+3.3V*%
X259140000Y-116870000D03*
D16*
%TO.P,J1,2,Pin_2*%
%TO.N,GND*%
X259140000Y-114330000D03*
%TO.P,J1,3,Pin_3*%
%TO.N,/esp_scl_1*%
X259140000Y-111790000D03*
%TO.P,J1,4,Pin_4*%
%TO.N,/esp_sda_1*%
X259140000Y-109250000D03*
%TO.P,J1,5,Pin_5*%
%TO.N,unconnected-(J1-Pin_5-Pad5)*%
X259140000Y-106710000D03*
%TO.P,J1,6,Pin_6*%
%TO.N,unconnected-(J1-Pin_6-Pad6)*%
X259140000Y-104170000D03*
%TO.P,J1,7,Pin_7*%
%TO.N,unconnected-(J1-Pin_7-Pad7)*%
X259140000Y-101630000D03*
%TO.P,J1,8,Pin_8*%
%TO.N,unconnected-(J1-Pin_8-Pad8)*%
X259140000Y-99090000D03*
%TD*%
D11*
%TO.P,C2,1*%
%TO.N,Net-(U1-CPL)*%
X231635000Y-128765000D03*
%TO.P,C2,2*%
%TO.N,Net-(U1-CPH)*%
X231635000Y-130315000D03*
%TD*%
D15*
%TO.P,J3,1,Pin_1*%
%TO.N,/out1*%
X234950000Y-146050000D03*
D16*
%TO.P,J3,2,Pin_2*%
%TO.N,/out2*%
X237490000Y-146050000D03*
%TO.P,J3,3,Pin_3*%
%TO.N,/out3*%
X240030000Y-146050000D03*
%TD*%
D27*
%TO.P,U1,1,CPL*%
%TO.N,Net-(U1-CPL)*%
X234300000Y-128270000D03*
%TO.P,U1,2,CPH*%
%TO.N,Net-(U1-CPH)*%
X234950000Y-128270000D03*
%TO.P,U1,3,VCP*%
%TO.N,Net-(U1-VCP)*%
X235600000Y-128270000D03*
%TO.P,U1,4,VM*%
%TO.N,VCC*%
X236250000Y-128270000D03*
%TO.P,U1,5,OUT1*%
%TO.N,/out1*%
X236900000Y-128270000D03*
%TO.P,U1,6,PGND1*%
%TO.N,GND*%
X237550000Y-128270000D03*
%TO.P,U1,7,PGND2*%
X238200000Y-128270000D03*
%TO.P,U1,8,OUT2*%
%TO.N,/out2*%
X238850000Y-128270000D03*
%TO.P,U1,9,OUT3*%
%TO.N,/out3*%
X239500000Y-128270000D03*
%TO.P,U1,10,PGND3*%
%TO.N,GND*%
X240150000Y-128270000D03*
%TO.P,U1,11,VM*%
%TO.N,VCC*%
X240800000Y-128270000D03*
%TO.P,U1,12,COMPP*%
%TO.N,GND*%
X241450000Y-128270000D03*
%TO.P,U1,13,COMPN*%
X242100000Y-128270000D03*
%TO.P,U1,14,GND*%
X242750000Y-128270000D03*
%TO.P,U1,15,V3P3*%
%TO.N,+3.3V*%
X242750000Y-122538000D03*
%TO.P,U1,16,~{RESET}*%
%TO.N,/nRes*%
X242100000Y-122538000D03*
%TO.P,U1,17,~{SLEEP}*%
%TO.N,/nSlp*%
X241450000Y-122538000D03*
%TO.P,U1,18,~{FAULT}*%
%TO.N,/fault*%
X240800000Y-122538000D03*
%TO.P,U1,19,~{COMPO}*%
%TO.N,unconnected-(U1-~{COMPO}-Pad19)*%
X240150000Y-122538000D03*
%TO.P,U1,20,GND*%
%TO.N,GND*%
X239500000Y-122538000D03*
%TO.P,U1,21,NC*%
%TO.N,unconnected-(U1-NC-Pad21)*%
X238850000Y-122538000D03*
%TO.P,U1,22,EN3*%
%TO.N,/en*%
X238200000Y-122538000D03*
%TO.P,U1,23,IN3*%
%TO.N,/in3*%
X237550000Y-122538000D03*
%TO.P,U1,24,EN2*%
%TO.N,/en*%
X236900000Y-122538000D03*
%TO.P,U1,25,IN2*%
%TO.N,/in2*%
X236250000Y-122538000D03*
%TO.P,U1,26,EN1*%
%TO.N,/en*%
X235600000Y-122538000D03*
%TO.P,U1,27,IN1*%
%TO.N,/in1*%
X234950000Y-122538000D03*
%TO.P,U1,28,GND*%
%TO.N,GND*%
X234300000Y-122538000D03*
D28*
%TO.P,U1,29,EXP*%
X238525000Y-125404000D03*
%TD*%
D10*
%TO.P,R15,1*%
%TO.N,+3.3V*%
X217170000Y-136435000D03*
%TO.P,R15,2*%
%TO.N,/esp_mosi*%
X217170000Y-134785000D03*
%TD*%
D29*
%TO.P,C10,1*%
%TO.N,Net-(U5-VCC)*%
X251180000Y-111760000D03*
%TO.P,C10,2*%
%TO.N,GND*%
X252730000Y-111760000D03*
%TD*%
D13*
%TO.P,R12,1*%
%TO.N,Net-(U2-PD7)*%
X240030000Y-118555000D03*
%TO.P,R12,2*%
%TO.N,/en*%
X240030000Y-120205000D03*
%TD*%
D18*
%TO.P,R5,1*%
%TO.N,/rst*%
X230760000Y-118110000D03*
%TO.P,R5,2*%
%TO.N,+5V*%
X232410000Y-118110000D03*
%TD*%
D30*
%TO.P,D5,1,K*%
%TO.N,GND*%
X205435000Y-143510000D03*
%TO.P,D5,2,A*%
%TO.N,Net-(D5-A)*%
X207010000Y-143510000D03*
%TD*%
D29*
%TO.P,C7,1*%
%TO.N,GND*%
X219430000Y-105410000D03*
%TO.P,C7,2*%
%TO.N,+5V*%
X220980000Y-105410000D03*
%TD*%
D31*
%TO.P,U6,1,PA02_A0_D0*%
%TO.N,unconnected-(U6-PA02_A0_D0-Pad1)*%
X270671000Y-145432750D03*
%TO.P,U6,2,PA4_A1_D1*%
%TO.N,unconnected-(U6-PA4_A1_D1-Pad2)*%
X270671000Y-142892750D03*
%TO.P,U6,3,PA10_A2_D2*%
%TO.N,/esp_sda_0*%
X270671000Y-140352750D03*
%TO.P,U6,4,PA11_A3_D3*%
%TO.N,/esp_scl_0*%
X270671000Y-137812750D03*
%TO.P,U6,5,PA8_A4_D4_SDA*%
%TO.N,/esp_sda_1*%
X270671000Y-135272750D03*
%TO.P,U6,6,PA9_A5_D5_SCL*%
%TO.N,/esp_scl_1*%
X270671000Y-132732750D03*
%TO.P,U6,7,PB08_D6_TX*%
%TO.N,unconnected-(U6-PB08_D6_TX-Pad7)*%
X270671000Y-130192750D03*
%TO.P,U6,8,PB09_D7_RX*%
%TO.N,unconnected-(U6-PB09_D7_RX-Pad8)*%
X254506000Y-130192750D03*
%TO.P,U6,9,PA7_A8_D8_SCK*%
%TO.N,/esp_sck*%
X254506000Y-132732750D03*
%TO.P,U6,10,PA5_A9_D9_MISO*%
%TO.N,/esp_miso*%
X254506000Y-135272750D03*
%TO.P,U6,11,PA6_A10_D10_MOSI*%
%TO.N,/esp_mosi*%
X254506000Y-137812750D03*
%TO.P,U6,12,3V3*%
%TO.N,unconnected-(U6-3V3-Pad12)*%
X254506000Y-140352750D03*
%TO.P,U6,13,GND*%
%TO.N,GND*%
X254506000Y-142892750D03*
%TO.P,U6,14,5V*%
%TO.N,+5V*%
X254506000Y-145432750D03*
D32*
%TO.P,U6,15,BAT+*%
%TO.N,unconnected-(U6-BAT+-Pad15)*%
X267061000Y-138107750D03*
%TO.P,U6,16,BAT-*%
%TO.N,unconnected-(U6-BAT--Pad16)*%
X267061000Y-140012750D03*
%TD*%
D10*
%TO.P,R18,1*%
%TO.N,+5V*%
X219710000Y-133005000D03*
%TO.P,R18,2*%
%TO.N,/miso*%
X219710000Y-131355000D03*
%TD*%
D19*
%TO.P,C12,1*%
%TO.N,GND*%
X252730000Y-109220000D03*
%TO.P,C12,2*%
%TO.N,Net-(U5-VCC)*%
X251180000Y-109220000D03*
%TD*%
D29*
%TO.P,C16,1*%
%TO.N,GND*%
X236220000Y-114300000D03*
%TO.P,C16,2*%
%TO.N,/x1*%
X237770000Y-114300000D03*
%TD*%
D33*
%TO.P,R10,1*%
%TO.N,+5V*%
X210820000Y-143510000D03*
%TO.P,R10,2*%
%TO.N,Net-(D5-A)*%
X209170000Y-143510000D03*
%TD*%
D34*
%TO.P,Y1,1*%
%TO.N,/x2*%
X238760000Y-107660000D03*
%TO.P,Y1,2*%
%TO.N,/x1*%
X238760000Y-111760000D03*
%TD*%
D35*
%TO.P,C8,1*%
%TO.N,GND*%
X234950000Y-111265000D03*
%TO.P,C8,2*%
%TO.N,+5V*%
X234950000Y-109715000D03*
%TD*%
D36*
%TO.P,U2,1,PD3*%
%TO.N,/in1*%
X231500000Y-113290000D03*
%TO.P,U2,2,PD4*%
%TO.N,unconnected-(U2-PD4-Pad2)*%
X231500000Y-112490000D03*
%TO.P,U2,3,GND*%
%TO.N,GND*%
X231500000Y-111690000D03*
%TO.P,U2,4,VCC*%
%TO.N,+5V*%
X231500000Y-110890000D03*
%TO.P,U2,5,GND*%
%TO.N,GND*%
X231500000Y-110090000D03*
%TO.P,U2,6,VCC*%
%TO.N,+5V*%
X231500000Y-109290000D03*
%TO.P,U2,7,PB6*%
%TO.N,/x1*%
X231500000Y-108490000D03*
%TO.P,U2,8,PB7*%
%TO.N,/x2*%
X231500000Y-107690000D03*
D37*
%TO.P,U2,9,PD5*%
%TO.N,/in2*%
X230130000Y-106320000D03*
%TO.P,U2,10,PD6*%
%TO.N,/in3*%
X229330000Y-106320000D03*
%TO.P,U2,11,PD7*%
%TO.N,Net-(U2-PD7)*%
X228530000Y-106320000D03*
%TO.P,U2,12,PB0*%
%TO.N,unconnected-(U2-PB0-Pad12)*%
X227730000Y-106320000D03*
%TO.P,U2,13,PB1*%
%TO.N,unconnected-(U2-PB1-Pad13)*%
X226930000Y-106320000D03*
%TO.P,U2,14,PB2*%
%TO.N,GND*%
X226130000Y-106320000D03*
%TO.P,U2,15,PB3*%
%TO.N,/mosi*%
X225330000Y-106320000D03*
%TO.P,U2,16,PB4*%
%TO.N,/miso*%
X224530000Y-106320000D03*
D36*
%TO.P,U2,17,PB5*%
%TO.N,/sck*%
X223160000Y-107690000D03*
%TO.P,U2,18,AVCC*%
%TO.N,+5V*%
X223160000Y-108490000D03*
%TO.P,U2,19,ADC6*%
%TO.N,unconnected-(U2-ADC6-Pad19)*%
X223160000Y-109290000D03*
%TO.P,U2,20,AREF*%
%TO.N,/aref*%
X223160000Y-110090000D03*
%TO.P,U2,21,GND*%
%TO.N,GND*%
X223160000Y-110890000D03*
%TO.P,U2,22,ADC7*%
%TO.N,unconnected-(U2-ADC7-Pad22)*%
X223160000Y-111690000D03*
%TO.P,U2,23,PC0*%
%TO.N,/gpio_1*%
X223160000Y-112490000D03*
%TO.P,U2,24,PC1*%
%TO.N,/gpio_2*%
X223160000Y-113290000D03*
D37*
%TO.P,U2,25,PC2*%
%TO.N,unconnected-(U2-PC2-Pad25)*%
X224530000Y-114660000D03*
%TO.P,U2,26,PC3*%
%TO.N,unconnected-(U2-PC3-Pad26)*%
X225330000Y-114660000D03*
%TO.P,U2,27,PC4*%
%TO.N,/sda*%
X226130000Y-114660000D03*
%TO.P,U2,28,PC5*%
%TO.N,/scl*%
X226930000Y-114660000D03*
%TO.P,U2,29,PC6/~{RESET}*%
%TO.N,/rst*%
X227730000Y-114660000D03*
%TO.P,U2,30,PD0*%
%TO.N,/uRX*%
X228530000Y-114660000D03*
%TO.P,U2,31,PD1*%
%TO.N,/uTX*%
X229330000Y-114660000D03*
%TO.P,U2,32,PD2*%
%TO.N,unconnected-(U2-PD2-Pad32)*%
X230130000Y-114660000D03*
%TD*%
D38*
%TO.P,VR1,1,ADJUSTMENT*%
%TO.N,Net-(VR1-ADJUSTMENT)*%
X216440000Y-112800000D03*
D39*
%TO.P,VR1,2,OUTPUT*%
%TO.N,+5V*%
X216440000Y-114300000D03*
D38*
%TO.P,VR1,3,INPUT*%
%TO.N,VCC*%
X216440000Y-115800000D03*
%TD*%
D18*
%TO.P,R1,1*%
%TO.N,/fault*%
X247650000Y-127000000D03*
%TO.P,R1,2*%
%TO.N,+3.3V*%
X249300000Y-127000000D03*
%TD*%
D15*
%TO.P,J2,1,Pin_1*%
%TO.N,/esp_scl_0*%
X213360000Y-146050000D03*
D16*
%TO.P,J2,2,Pin_2*%
%TO.N,/esp_sda_0*%
X215900000Y-146050000D03*
%TD*%
D18*
%TO.P,R3,1*%
%TO.N,/nRes*%
X247270000Y-121920000D03*
%TO.P,R3,2*%
%TO.N,+3.3V*%
X248920000Y-121920000D03*
%TD*%
D14*
%TO.P,U7,1,G*%
%TO.N,+3.3V*%
X222504000Y-126605200D03*
%TO.P,U7,2,S*%
%TO.N,/esp_sck*%
X222504000Y-128484800D03*
%TO.P,U7,3,D*%
%TO.N,/sck*%
X224536000Y-127545000D03*
%TD*%
D19*
%TO.P,C17,1*%
%TO.N,/x2*%
X237490000Y-105410000D03*
%TO.P,C17,2*%
%TO.N,GND*%
X235940000Y-105410000D03*
%TD*%
D10*
%TO.P,R16,1*%
%TO.N,+5V*%
X219710000Y-136435000D03*
%TO.P,R16,2*%
%TO.N,/mosi*%
X219710000Y-134785000D03*
%TD*%
D24*
%TO.P,J6,1,+*%
%TO.N,VCC*%
X209200000Y-111100000D03*
D25*
%TO.P,J6,2,-*%
%TO.N,GND*%
X209200000Y-118300000D03*
D26*
%TO.P,J6,S1*%
%TO.N,N/C*%
X203200000Y-107950000D03*
%TO.P,J6,S2*%
X203200000Y-121450000D03*
%TD*%
D40*
%TO.P,U5,1,GND*%
%TO.N,GND*%
X243905000Y-109855000D03*
%TO.P,U5,2,TXD*%
%TO.N,Net-(U5-TXD)*%
X243905000Y-111125000D03*
%TO.P,U5,3,RXD*%
%TO.N,Net-(U5-RXD)*%
X243905000Y-112395000D03*
%TO.P,U5,4,V3*%
%TO.N,+5V*%
X243905000Y-113665000D03*
%TO.P,U5,5,UD+*%
%TO.N,/ud+*%
X243905000Y-114935000D03*
%TO.P,U5,6,UD-*%
%TO.N,/ud-*%
X243905000Y-116205000D03*
%TO.P,U5,7,NC*%
%TO.N,unconnected-(U5-NC-Pad7)*%
X243905000Y-117475000D03*
%TO.P,U5,8,NC*%
%TO.N,unconnected-(U5-NC-Pad8)*%
X243905000Y-118745000D03*
%TO.P,U5,9,~{CTS}*%
%TO.N,unconnected-(U5-~{CTS}-Pad9)*%
X248855000Y-118745000D03*
%TO.P,U5,10,~{DSR}*%
%TO.N,unconnected-(U5-~{DSR}-Pad10)*%
X248855000Y-117475000D03*
%TO.P,U5,11,~{RI}*%
%TO.N,unconnected-(U5-~{RI}-Pad11)*%
X248855000Y-116205000D03*
%TO.P,U5,12,~{DCD}*%
%TO.N,unconnected-(U5-~{DCD}-Pad12)*%
X248855000Y-114935000D03*
%TO.P,U5,13,~{DTR}*%
%TO.N,Net-(U5-~{DTR})*%
X248855000Y-113665000D03*
%TO.P,U5,14,~{RTS}*%
%TO.N,unconnected-(U5-~{RTS}-Pad14)*%
X248855000Y-112395000D03*
%TO.P,U5,15,R232*%
%TO.N,unconnected-(U5-R232-Pad15)*%
X248855000Y-111125000D03*
%TO.P,U5,16,VCC*%
%TO.N,Net-(U5-VCC)*%
X248855000Y-109855000D03*
%TD*%
D11*
%TO.P,C3,1*%
%TO.N,Net-(U1-VCP)*%
X234950000Y-131800000D03*
%TO.P,C3,2*%
%TO.N,VCC*%
X234950000Y-133350000D03*
%TD*%
D10*
%TO.P,R20,1*%
%TO.N,/esp_sda_0*%
X215900000Y-141350000D03*
%TO.P,R20,2*%
%TO.N,+3.3V*%
X215900000Y-139700000D03*
%TD*%
%TO.P,R8,1*%
%TO.N,+5V*%
X219710000Y-129195000D03*
%TO.P,R8,2*%
%TO.N,/sck*%
X219710000Y-127545000D03*
%TD*%
%TO.P,R4,1*%
%TO.N,+3.3V*%
X217170000Y-129195000D03*
%TO.P,R4,2*%
%TO.N,/esp_sck*%
X217170000Y-127545000D03*
%TD*%
D35*
%TO.P,C6,1*%
%TO.N,/aref*%
X220980000Y-109995000D03*
%TO.P,C6,2*%
%TO.N,GND*%
X220980000Y-108445000D03*
%TD*%
D15*
%TO.P,J10,1,Pin_1*%
%TO.N,/miso*%
X219710000Y-146050000D03*
D16*
%TO.P,J10,2,Pin_2*%
%TO.N,/sck*%
X219710000Y-143510000D03*
%TO.P,J10,3,Pin_3*%
%TO.N,/rst*%
X222250000Y-146050000D03*
%TO.P,J10,4,Pin_4*%
%TO.N,+5V*%
X222250000Y-143510000D03*
%TO.P,J10,5,Pin_5*%
%TO.N,/mosi*%
X224790000Y-146050000D03*
%TO.P,J10,6,Pin_6*%
%TO.N,GND*%
X224790000Y-143510000D03*
%TD*%
D35*
%TO.P,C1,1*%
%TO.N,GND*%
X245110000Y-123965000D03*
%TO.P,C1,2*%
%TO.N,+3.3V*%
X245110000Y-122415000D03*
%TD*%
D18*
%TO.P,R14,1*%
%TO.N,Net-(VR1-ADJUSTMENT)*%
X214250000Y-109220000D03*
%TO.P,R14,2*%
%TO.N,GND*%
X215900000Y-109220000D03*
%TD*%
D41*
%TO.N,+5V*%
X252222000Y-145432750D03*
%TO.N,GND*%
X240030000Y-124460000D03*
X252730000Y-107950000D03*
X237490000Y-124460000D03*
X237490000Y-125730000D03*
X215900000Y-119380000D03*
X236220000Y-125730000D03*
X219710000Y-107950000D03*
X251460000Y-133350000D03*
X252730000Y-125730000D03*
X238760001Y-125730000D03*
X242570000Y-107950000D03*
X220980000Y-111760000D03*
X236220000Y-124460000D03*
X245110000Y-127000000D03*
X219710000Y-104140000D03*
X240030000Y-125730000D03*
X252222000Y-143510000D03*
X226060000Y-107950000D03*
X203200000Y-143510000D03*
X227166282Y-104043427D03*
X236220000Y-111760000D03*
X234950000Y-114300000D03*
X238760000Y-124460000D03*
X234950000Y-104140000D03*
%TO.N,+3.3V*%
X246380000Y-125730000D03*
X248920000Y-128270000D03*
%TO.N,VCC*%
X242512900Y-135890000D03*
X236220000Y-130810000D03*
%TO.N,+5V*%
X246380000Y-114300000D03*
X252730000Y-119380000D03*
X220980000Y-104140000D03*
X224790000Y-136435000D03*
X236220000Y-110490000D03*
X224790000Y-132625000D03*
X224790000Y-120650000D03*
X234950000Y-102870000D03*
X233680000Y-118110000D03*
X212090000Y-143510000D03*
X212981652Y-104288065D03*
X224790000Y-128815000D03*
%TO.N,/rst*%
X223520000Y-121920000D03*
X255270000Y-114300000D03*
X228600000Y-116840000D03*
%TO.N,/sda*%
X226060000Y-116840000D03*
%TO.N,/scl*%
X227330000Y-116840000D03*
%TO.N,/ud+*%
X241300000Y-115570000D03*
X233680000Y-106680000D03*
%TO.N,/ud-*%
X241300000Y-116840000D03*
X233680000Y-105410000D03*
%TO.N,Net-(U5-TXD)*%
X238760000Y-115570000D03*
X232543980Y-119246020D03*
%TO.N,/sck*%
X223520000Y-127545000D03*
X222250000Y-106680000D03*
%TO.N,Net-(U2-PD7)*%
X241300000Y-119380000D03*
X227330000Y-107950000D03*
%TO.N,/en*%
X231140000Y-119380000D03*
X243839696Y-119644999D03*
%TO.N,/esp_sck*%
X236220000Y-134620000D03*
X218440000Y-129690200D03*
X251460000Y-134620000D03*
X227330000Y-132080000D03*
%TO.N,/esp_mosi*%
X234950000Y-138430000D03*
X251460000Y-137160000D03*
%TO.N,/in1*%
X232982750Y-121421020D03*
X233680000Y-114300000D03*
%TO.N,/in2*%
X229870000Y-107950000D03*
X234950000Y-119971020D03*
%TO.N,/in3*%
X237787347Y-120947347D03*
X228600000Y-109220000D03*
%TO.N,/esp_miso*%
X218440000Y-132080000D03*
X251460000Y-135890000D03*
X236220000Y-135890000D03*
X227330000Y-133350000D03*
%TO.N,/miso*%
X223520000Y-131355000D03*
X222250000Y-104140000D03*
%TO.N,/mosi*%
X227545223Y-137375223D03*
X224790000Y-109220000D03*
%TO.N,/esp_scl_0*%
X267970000Y-135890000D03*
%TO.N,/esp_sda_0*%
X268146689Y-141428750D03*
%TD*%
D42*
%TO.N,+5V*%
X252222000Y-145432750D02*
X254506000Y-145432750D01*
%TO.N,GND*%
X252222000Y-143510000D02*
X252839250Y-142892750D01*
X252839250Y-142892750D02*
X254506000Y-142892750D01*
X234950000Y-111265000D02*
X235725000Y-111265000D01*
X242570000Y-107950000D02*
X243905000Y-109285000D01*
X227166282Y-104043427D02*
X227166282Y-103898718D01*
X220980000Y-111760000D02*
X221850000Y-110890000D01*
X203200000Y-143510000D02*
X205435000Y-143510000D01*
X241450000Y-127154250D02*
X241450000Y-128270000D01*
D43*
X248920000Y-133350000D02*
X251460000Y-133350000D01*
D42*
X219710000Y-107950000D02*
X220485000Y-107950000D01*
X232560000Y-111365000D02*
X232235000Y-111690000D01*
X219430000Y-104420000D02*
X219710000Y-104140000D01*
X237550000Y-128270000D02*
X237550000Y-125790000D01*
X220485000Y-107950000D02*
X220980000Y-108445000D01*
X238200000Y-128270000D02*
X238200000Y-125729000D01*
X242750000Y-128270000D02*
X241450000Y-128270000D01*
X221850000Y-110890000D02*
X223160000Y-110890000D01*
X234300000Y-123653750D02*
X235106250Y-124460000D01*
X234525000Y-111690000D02*
X234950000Y-111265000D01*
X240150000Y-128270000D02*
X240150000Y-127154250D01*
X240225000Y-127079250D02*
X241375000Y-127079250D01*
X215900000Y-109220000D02*
X218440000Y-109220000D01*
X232131252Y-110090000D02*
X232560000Y-110518748D01*
X235106250Y-124460000D02*
X236220000Y-124460000D01*
X235725000Y-111265000D02*
X236220000Y-111760000D01*
X234950000Y-104420000D02*
X235940000Y-105410000D01*
X245110000Y-123965000D02*
X245110000Y-127000000D01*
D43*
X214630000Y-118885000D02*
X215405000Y-118885000D01*
D42*
X234300000Y-122538000D02*
X234300000Y-123653750D01*
X238200000Y-125729000D02*
X238525000Y-125404000D01*
X240150000Y-125850000D02*
X240150000Y-128270000D01*
X239500000Y-122538000D02*
X239500000Y-123930000D01*
X226060000Y-106390000D02*
X226130000Y-106320000D01*
X252730000Y-109220000D02*
X252730000Y-111760000D01*
X241375000Y-127079250D02*
X241450000Y-127154250D01*
X231500000Y-110090000D02*
X232131252Y-110090000D01*
X219430000Y-105410000D02*
X219430000Y-104420000D01*
X243905000Y-109285000D02*
X243905000Y-109855000D01*
X237550000Y-125790000D02*
X237490000Y-125730000D01*
X217170000Y-120650000D02*
X215900000Y-119380000D01*
X218440000Y-109220000D02*
X219710000Y-107950000D01*
X239500000Y-123930000D02*
X240030000Y-124460000D01*
X236220000Y-114300000D02*
X234950000Y-114300000D01*
X218100000Y-120650000D02*
X217170000Y-120650000D01*
X228060000Y-103149709D02*
X228060000Y-101735000D01*
X252730000Y-107950000D02*
X252730000Y-109220000D01*
X226060000Y-107950000D02*
X226060000Y-106390000D01*
X227166282Y-104043427D02*
X228060000Y-103149709D01*
X232235000Y-111690000D02*
X231500000Y-111690000D01*
X240030000Y-125730000D02*
X240150000Y-125850000D01*
X231500000Y-111690000D02*
X234525000Y-111690000D01*
D43*
X215405000Y-118885000D02*
X215900000Y-119380000D01*
D42*
X240150000Y-127154250D02*
X240225000Y-127079250D01*
X234950000Y-104140000D02*
X234950000Y-104420000D01*
X232560000Y-110518748D02*
X232560000Y-111365000D01*
%TO.N,+3.3V*%
X216671996Y-134060000D02*
X222338800Y-134060000D01*
X242750000Y-122538000D02*
X244987000Y-122538000D01*
X216370000Y-135635000D02*
X216370000Y-134361996D01*
X215900000Y-139700000D02*
X215900000Y-137705000D01*
X216370000Y-130931996D02*
X216886796Y-130415200D01*
X226060000Y-142240000D02*
X227330000Y-143510000D01*
X227330000Y-143510000D02*
X227330000Y-144780000D01*
X246380000Y-125730000D02*
X246380000Y-123685000D01*
X217170000Y-133005000D02*
X216370000Y-132205000D01*
X248920000Y-127380000D02*
X249300000Y-127000000D01*
X217170000Y-129195000D02*
X216370000Y-128395000D01*
X248920000Y-124460000D02*
X248920000Y-121920000D01*
X217170000Y-136435000D02*
X216370000Y-135635000D01*
X249300000Y-127000000D02*
X249300000Y-124840000D01*
X253970000Y-116870000D02*
X248920000Y-121920000D01*
X246380000Y-123685000D02*
X245110000Y-122415000D01*
X216370000Y-134361996D02*
X216671996Y-134060000D01*
X222338800Y-134060000D02*
X222504000Y-134225200D01*
X248920000Y-128270000D02*
X248920000Y-127380000D01*
X217170000Y-136435000D02*
X222975000Y-142240000D01*
X217170000Y-129195000D02*
X217170000Y-130131996D01*
X222975000Y-142240000D02*
X226060000Y-142240000D01*
X216370000Y-127075000D02*
X216839800Y-126605200D01*
X216839800Y-126605200D02*
X222504000Y-126605200D01*
X216886796Y-130415200D02*
X222504000Y-130415200D01*
X217170000Y-130131996D02*
X216886796Y-130415200D01*
X216370000Y-128395000D02*
X216370000Y-127075000D01*
X227330000Y-144780000D02*
X228600000Y-146050000D01*
X213390000Y-139700000D02*
X215900000Y-139700000D01*
X244987000Y-122538000D02*
X245110000Y-122415000D01*
X216370000Y-132205000D02*
X216370000Y-130931996D01*
X217170000Y-133005000D02*
X217170000Y-133561996D01*
X217170000Y-133561996D02*
X216671996Y-134060000D01*
X215900000Y-137705000D02*
X217170000Y-136435000D01*
X259140000Y-116870000D02*
X253970000Y-116870000D01*
X249300000Y-124840000D02*
X248920000Y-124460000D01*
%TO.N,Net-(U1-CPL)*%
X231635000Y-128765000D02*
X233805000Y-128765000D01*
X233805000Y-128765000D02*
X234300000Y-128270000D01*
%TO.N,Net-(U1-CPH)*%
X234950000Y-129385750D02*
X234950000Y-128270000D01*
X234020750Y-130315000D02*
X234950000Y-129385750D01*
X231635000Y-130315000D02*
X234020750Y-130315000D01*
D43*
%TO.N,VCC*%
X240800000Y-128270000D02*
X240800000Y-134177100D01*
X211315252Y-111100000D02*
X216092752Y-115877500D01*
X219927500Y-119287500D02*
X216440000Y-115800000D01*
X236250000Y-130780000D02*
X236250000Y-128270000D01*
X242650400Y-135752500D02*
X242650400Y-133510900D01*
X234950000Y-133350000D02*
X232410000Y-133350000D01*
X219927500Y-120867500D02*
X219927500Y-119287500D01*
X232410000Y-133350000D02*
X219927500Y-120867500D01*
X236220000Y-130810000D02*
X236250000Y-130780000D01*
X205740000Y-125020000D02*
X209200000Y-128480000D01*
X205740000Y-114560000D02*
X205740000Y-125020000D01*
X242512900Y-135890000D02*
X242650400Y-135752500D01*
X236220000Y-132080000D02*
X236220000Y-130810000D01*
X240800000Y-134177100D02*
X242512900Y-135890000D01*
X214905000Y-117335000D02*
X216440000Y-115800000D01*
X242650400Y-133510900D02*
X242811300Y-133350000D01*
X209200000Y-111100000D02*
X211315252Y-111100000D01*
X214630000Y-117335000D02*
X214905000Y-117335000D01*
X234950000Y-133350000D02*
X236220000Y-132080000D01*
X209200000Y-111100000D02*
X205740000Y-114560000D01*
%TO.N,Net-(U1-VCP)*%
X235598000Y-129465362D02*
X235598000Y-128270000D01*
X234950000Y-131800000D02*
X234950000Y-130113362D01*
X234950000Y-130113362D02*
X235598000Y-129465362D01*
D42*
%TO.N,+5V*%
X213525000Y-111925000D02*
X215900000Y-114300000D01*
X219710000Y-133005000D02*
X224410000Y-133005000D01*
X246380000Y-114300000D02*
X245745000Y-113665000D01*
X213128065Y-104288065D02*
X214250000Y-105410000D01*
X230868748Y-110890000D02*
X231500000Y-110890000D01*
X231795000Y-102870000D02*
X230660000Y-101735000D01*
X220980000Y-107045000D02*
X220980000Y-105410000D01*
X230440000Y-110461252D02*
X230868748Y-110890000D01*
X222425000Y-108490000D02*
X220980000Y-107045000D01*
X223160000Y-108490000D02*
X222425000Y-108490000D01*
X224410000Y-129195000D02*
X224790000Y-128815000D01*
X220980000Y-136435000D02*
X221254200Y-136709200D01*
X245745000Y-113665000D02*
X243905000Y-113665000D01*
X230868748Y-109290000D02*
X230440000Y-109718748D01*
X224515800Y-136709200D02*
X224790000Y-136435000D01*
X234950000Y-109715000D02*
X234525000Y-109290000D01*
X215900000Y-114300000D02*
X216440000Y-114300000D01*
X234950000Y-109715000D02*
X235445000Y-109715000D01*
X214250000Y-105410000D02*
X213525000Y-106135000D01*
X231500000Y-109290000D02*
X230868748Y-109290000D01*
X234950000Y-102870000D02*
X231795000Y-102870000D01*
X230440000Y-109718748D02*
X230440000Y-110461252D01*
X232410000Y-118110000D02*
X233680000Y-118110000D01*
X221254200Y-136709200D02*
X224515800Y-136709200D01*
X212981652Y-104288065D02*
X213128065Y-104288065D01*
X213525000Y-106135000D02*
X213525000Y-111925000D01*
X235445000Y-109715000D02*
X236220000Y-110490000D01*
X219710000Y-129195000D02*
X224410000Y-129195000D01*
X224410000Y-133005000D02*
X224790000Y-132625000D01*
X220980000Y-105410000D02*
X220980000Y-104140000D01*
X234525000Y-109290000D02*
X231500000Y-109290000D01*
X219710000Y-136435000D02*
X220980000Y-136435000D01*
X210820000Y-143510000D02*
X212090000Y-143510000D01*
%TO.N,/aref*%
X223065000Y-109995000D02*
X223160000Y-110090000D01*
X220980000Y-109995000D02*
X223065000Y-109995000D01*
%TO.N,/rst*%
X224790000Y-118110000D02*
X230760000Y-118110000D01*
X230760000Y-118110000D02*
X229870000Y-118110000D01*
X253505000Y-114300000D02*
X255270000Y-114300000D01*
X227730000Y-115970000D02*
X227730000Y-114660000D01*
X223520000Y-121920000D02*
X222250000Y-120650000D01*
X229870000Y-118110000D02*
X228600000Y-116840000D01*
X228600000Y-116840000D02*
X227730000Y-115970000D01*
X222250000Y-120650000D02*
X224790000Y-118110000D01*
%TO.N,Net-(U5-~{DTR})*%
X251955000Y-114300000D02*
X249490000Y-114300000D01*
X249490000Y-114300000D02*
X248855000Y-113665000D01*
%TO.N,Net-(U5-VCC)*%
X250545000Y-109855000D02*
X251180000Y-109220000D01*
X248855000Y-109855000D02*
X249275000Y-109855000D01*
X248855000Y-109855000D02*
X250545000Y-109855000D01*
X249275000Y-109855000D02*
X251180000Y-111760000D01*
%TO.N,/sda*%
X226130000Y-114660000D02*
X226130000Y-116770000D01*
X226130000Y-116770000D02*
X226060000Y-116840000D01*
%TO.N,/scl*%
X226930000Y-114660000D02*
X226930000Y-116440000D01*
X226930000Y-116440000D02*
X227330000Y-116840000D01*
%TO.N,Net-(D5-A)*%
X209170000Y-143510000D02*
X207010000Y-143510000D01*
%TO.N,/esp_scl_1*%
X261620000Y-126365000D02*
X267987750Y-132732750D01*
X267987750Y-132732750D02*
X270671000Y-132732750D01*
X261620000Y-114269999D02*
X261620000Y-126365000D01*
X259140000Y-111790000D02*
X259140001Y-111790000D01*
X259140001Y-111790000D02*
X261620000Y-114269999D01*
%TO.N,/esp_sda_1*%
X259140000Y-109250000D02*
X257965000Y-110425000D01*
X259781842Y-112965000D02*
X260985000Y-114168158D01*
X258653299Y-112965000D02*
X259781842Y-112965000D01*
X260985000Y-126961750D02*
X269296000Y-135272750D01*
X257965000Y-110425000D02*
X257965000Y-112276701D01*
X257965000Y-112276701D02*
X258653299Y-112965000D01*
X260985000Y-114168158D02*
X260985000Y-126961750D01*
X269296000Y-135272750D02*
X270671000Y-135272750D01*
%TO.N,/ud+*%
X229360000Y-103930000D02*
X229360000Y-101735000D01*
X233680000Y-106680000D02*
X232110000Y-106680000D01*
X241935000Y-114935000D02*
X241300000Y-115570000D01*
X232110000Y-106680000D02*
X229360000Y-103930000D01*
X243905000Y-114935000D02*
X241935000Y-114935000D01*
%TO.N,/ud-*%
X231490000Y-105410000D02*
X230010000Y-103930000D01*
X233680000Y-105410000D02*
X231490000Y-105410000D01*
X230010000Y-103930000D02*
X230010000Y-101735000D01*
X241935000Y-116205000D02*
X241300000Y-116840000D01*
X243905000Y-116205000D02*
X241935000Y-116205000D01*
%TO.N,/nSlp*%
X247270000Y-125865305D02*
X245410305Y-127725000D01*
X244809695Y-127725000D02*
X244385000Y-127300305D01*
X245410305Y-127725000D02*
X244809695Y-127725000D01*
X241450000Y-123284407D02*
X241450000Y-122538000D01*
X244385000Y-126219407D02*
X241450000Y-123284407D01*
X247270000Y-124460000D02*
X247270000Y-125865305D01*
X244385000Y-127300305D02*
X244385000Y-126219407D01*
%TO.N,/fault*%
X247543254Y-120970250D02*
X241621343Y-120970250D01*
X240800000Y-121791593D02*
X240800000Y-122538000D01*
X247650000Y-127000000D02*
X247995000Y-126655000D01*
X247995000Y-121421996D02*
X247543254Y-120970250D01*
X247995000Y-126655000D02*
X247995000Y-124460000D01*
X241621343Y-120970250D02*
X240800000Y-121791593D01*
X247995000Y-124460000D02*
X247995000Y-121421996D01*
%TO.N,/nRes*%
X246697250Y-121347250D02*
X242175000Y-121347250D01*
X242175000Y-121347250D02*
X242100000Y-121422250D01*
X242100000Y-121422250D02*
X242100000Y-122538000D01*
X247270000Y-121920000D02*
X246697250Y-121347250D01*
D43*
%TO.N,/out2*%
X237490000Y-146050000D02*
X238125000Y-145415000D01*
D42*
X238850000Y-129016407D02*
X238850000Y-128270000D01*
D43*
X238850000Y-129210861D02*
X238850000Y-128270000D01*
X238125000Y-129935861D02*
X238850000Y-129210861D01*
X238125000Y-145415000D02*
X238125000Y-129935861D01*
%TO.N,/out3*%
X239395000Y-145415000D02*
X239395000Y-129587929D01*
X240030000Y-146050000D02*
X239395000Y-145415000D01*
D42*
X239500000Y-129232815D02*
X239500000Y-128270000D01*
D43*
X239395000Y-129587929D02*
X239502000Y-129480929D01*
X239502000Y-129480929D02*
X239502000Y-128272000D01*
%TO.N,/out1*%
X237082500Y-143917500D02*
X237082500Y-130452740D01*
X234950000Y-146050000D02*
X237082500Y-143917500D01*
D42*
X236945000Y-128315000D02*
X236900000Y-128270000D01*
D43*
X237082500Y-130452740D02*
X236902000Y-130272240D01*
X236902000Y-130272240D02*
X236902000Y-128270000D01*
D42*
%TO.N,/uRX*%
X235395000Y-117285000D02*
X234125000Y-117285000D01*
X228530000Y-115291252D02*
X228530000Y-114660000D01*
X233777000Y-116937000D02*
X230175748Y-116937000D01*
X234125000Y-117285000D02*
X233777000Y-116937000D01*
X230175748Y-116937000D02*
X228530000Y-115291252D01*
%TO.N,Net-(U5-TXD)*%
X232543980Y-119246020D02*
X235083980Y-119246020D01*
X238760000Y-115570000D02*
X243205000Y-111125000D01*
X243205000Y-111125000D02*
X243905000Y-111125000D01*
X235083980Y-119246020D02*
X235395000Y-118935000D01*
%TO.N,/uTX*%
X230495000Y-116560000D02*
X229330000Y-115395000D01*
X237490000Y-117285000D02*
X236765000Y-116560000D01*
X236765000Y-116560000D02*
X230495000Y-116560000D01*
X229330000Y-115395000D02*
X229330000Y-114660000D01*
%TO.N,Net-(U5-RXD)*%
X237490000Y-118522500D02*
X240575000Y-115437500D01*
X243205000Y-112395000D02*
X243905000Y-112395000D01*
X240575000Y-115025000D02*
X243205000Y-112395000D01*
X237490000Y-118935000D02*
X237490000Y-118522500D01*
X240575000Y-115437500D02*
X240575000Y-115025000D01*
%TO.N,/sck*%
X222250000Y-106680000D02*
X222250000Y-106780000D01*
X222250000Y-106780000D02*
X223160000Y-107690000D01*
X224536000Y-127545000D02*
X223520000Y-127545000D01*
X219710000Y-127545000D02*
X224536000Y-127545000D01*
%TO.N,Net-(U2-PD7)*%
X227531252Y-107950000D02*
X228530000Y-106951252D01*
X228530000Y-106951252D02*
X228530000Y-106320000D01*
X227330000Y-107950000D02*
X227531252Y-107950000D01*
X240855000Y-119380000D02*
X240030000Y-118555000D01*
X241300000Y-119380000D02*
X240855000Y-119380000D01*
%TO.N,/en*%
X238200000Y-121560000D02*
X238200000Y-122538000D01*
X243279695Y-120205000D02*
X240030000Y-120205000D01*
X236900000Y-120809389D02*
X238122042Y-119587347D01*
X238122042Y-119587347D02*
X239412347Y-119587347D01*
X231731020Y-119971020D02*
X231140000Y-119380000D01*
X243839696Y-119644999D02*
X243279695Y-120205000D01*
X235600000Y-121791593D02*
X233779427Y-119971020D01*
X233779427Y-119971020D02*
X231731020Y-119971020D01*
X239412347Y-119587347D02*
X240030000Y-120205000D01*
X235600000Y-122538000D02*
X235600000Y-121791593D01*
X236900000Y-122538000D02*
X236900000Y-120809389D01*
X240030000Y-120205000D02*
X239555000Y-120205000D01*
X239555000Y-120205000D02*
X238200000Y-121560000D01*
%TO.N,/esp_sck*%
X217895000Y-128270000D02*
X222289200Y-128270000D01*
X217170000Y-127545000D02*
X217895000Y-128270000D01*
X227330000Y-132080000D02*
X229870000Y-134620000D01*
X253347250Y-132732750D02*
X254506000Y-132732750D01*
X218440000Y-128815000D02*
X218440000Y-129690200D01*
X229870000Y-134620000D02*
X236220000Y-134620000D01*
X251460000Y-134620000D02*
X253347250Y-132732750D01*
X217170000Y-127545000D02*
X218440000Y-128815000D01*
X222289200Y-128270000D02*
X222504000Y-128484800D01*
%TO.N,/esp_mosi*%
X217927000Y-135968996D02*
X220388004Y-138430000D01*
X217927000Y-135542000D02*
X217927000Y-135968996D01*
X253853250Y-137160000D02*
X254506000Y-137812750D01*
X220388004Y-138430000D02*
X234950000Y-138430000D01*
X221941200Y-135542000D02*
X222504000Y-136104800D01*
X217927000Y-135542000D02*
X221941200Y-135542000D01*
X251460000Y-137160000D02*
X253853250Y-137160000D01*
X217170000Y-134785000D02*
X217927000Y-135542000D01*
%TO.N,/in1*%
X232670000Y-113290000D02*
X233680000Y-114300000D01*
X233056520Y-121347250D02*
X234505657Y-121347250D01*
X232982750Y-121421020D02*
X233056520Y-121347250D01*
X231500000Y-113290000D02*
X232670000Y-113290000D01*
X234950000Y-121791593D02*
X234950000Y-122538000D01*
X234505657Y-121347250D02*
X234950000Y-121791593D01*
%TO.N,/in2*%
X234950000Y-119971020D02*
X236250000Y-121271020D01*
X230130000Y-107690000D02*
X229870000Y-107950000D01*
X230130000Y-106320000D02*
X230130000Y-107690000D01*
X236250000Y-121271020D02*
X236250000Y-122538000D01*
%TO.N,/in3*%
X237550000Y-121980000D02*
X237490000Y-121920000D01*
X228600000Y-109220000D02*
X228600000Y-108194695D01*
X229330000Y-107464695D02*
X229330000Y-106320000D01*
X237787347Y-120947347D02*
X237550000Y-121184694D01*
X237550000Y-121184694D02*
X237550000Y-122538000D01*
X228600000Y-108194695D02*
X229330000Y-107464695D01*
%TO.N,/x2*%
X238760000Y-107660000D02*
X231530000Y-107660000D01*
X231530000Y-107660000D02*
X231500000Y-107690000D01*
X237490000Y-106390000D02*
X237490000Y-105410000D01*
X238760000Y-107660000D02*
X237490000Y-106390000D01*
%TO.N,/esp_miso*%
X229870000Y-135890000D02*
X236220000Y-135890000D01*
X222289200Y-132080000D02*
X222504000Y-132294800D01*
X218440000Y-132080000D02*
X222289200Y-132080000D01*
X251460000Y-135890000D02*
X252077250Y-135272750D01*
X217715000Y-131355000D02*
X218440000Y-132080000D01*
X227330000Y-133350000D02*
X229870000Y-135890000D01*
X252077250Y-135272750D02*
X254506000Y-135272750D01*
X217170000Y-131355000D02*
X217715000Y-131355000D01*
%TO.N,/x1*%
X237770000Y-114300000D02*
X237770000Y-112750000D01*
X237770000Y-112750000D02*
X238760000Y-111760000D01*
X238760000Y-111760000D02*
X235490000Y-108490000D01*
X235490000Y-108490000D02*
X231500000Y-108490000D01*
%TO.N,Net-(VR1-ADJUSTMENT)*%
X215900000Y-105410000D02*
X215900000Y-107570000D01*
X215900000Y-107570000D02*
X214250000Y-109220000D01*
X214250000Y-110610000D02*
X216440000Y-112800000D01*
X214250000Y-109220000D02*
X214250000Y-110610000D01*
%TO.N,/miso*%
X222350000Y-104140000D02*
X224530000Y-106320000D01*
X222250000Y-104140000D02*
X222350000Y-104140000D01*
X224536000Y-131355000D02*
X223520000Y-131355000D01*
X219710000Y-131355000D02*
X224536000Y-131355000D01*
%TO.N,/mosi*%
X225335000Y-135165000D02*
X227545223Y-137375223D01*
X224790000Y-109220000D02*
X225330000Y-108680000D01*
X225330000Y-108680000D02*
X225330000Y-106320000D01*
X220090000Y-135165000D02*
X224536000Y-135165000D01*
X219710000Y-134785000D02*
X220090000Y-135165000D01*
X224536000Y-135165000D02*
X225335000Y-135165000D01*
%TO.N,/esp_scl_0*%
X213390000Y-146020000D02*
X213360000Y-146050000D01*
X269892750Y-137812750D02*
X270671000Y-137812750D01*
X267970000Y-135890000D02*
X269892750Y-137812750D01*
X213390000Y-141350000D02*
X213390000Y-146020000D01*
%TO.N,/esp_sda_0*%
X269870000Y-141153750D02*
X270671000Y-140352750D01*
X268421689Y-141153750D02*
X269870000Y-141153750D01*
X215900000Y-141350000D02*
X215900000Y-146050000D01*
X268146689Y-141428750D02*
X268421689Y-141153750D01*
%TD*%
M02*
