%TF.GenerationSoftware,KiCad,Pcbnew,8.0.4*%
%TF.CreationDate,2024-11-29T22:55:19-05:00*%
%TF.ProjectId,foc_pcb,666f635f-7063-4622-9e6b-696361645f70,2.0*%
%TF.SameCoordinates,Original*%
%TF.FileFunction,Paste,Top*%
%TF.FilePolarity,Positive*%
%FSLAX46Y46*%
G04 Gerber Fmt 4.6, Leading zero omitted, Abs format (unit mm)*
G04 Created by KiCad (PCBNEW 8.0.4) date 2024-11-29 22:55:19*
%MOMM*%
%LPD*%
G01*
G04 APERTURE LIST*
G04 Aperture macros list*
%AMRoundRect*
0 Rectangle with rounded corners*
0 $1 Rounding radius*
0 $2 $3 $4 $5 $6 $7 $8 $9 X,Y pos of 4 corners*
0 Add a 4 corners polygon primitive as box body*
4,1,4,$2,$3,$4,$5,$6,$7,$8,$9,$2,$3,0*
0 Add four circle primitives for the rounded corners*
1,1,$1+$1,$2,$3*
1,1,$1+$1,$4,$5*
1,1,$1+$1,$6,$7*
1,1,$1+$1,$8,$9*
0 Add four rect primitives between the rounded corners*
20,1,$1+$1,$2,$3,$4,$5,0*
20,1,$1+$1,$4,$5,$6,$7,0*
20,1,$1+$1,$6,$7,$8,$9,0*
20,1,$1+$1,$8,$9,$2,$3,0*%
G04 Aperture macros list end*
%ADD10C,0.010000*%
%ADD11RoundRect,0.200000X0.275000X-0.200000X0.275000X0.200000X-0.275000X0.200000X-0.275000X-0.200000X0*%
%ADD12RoundRect,0.225000X-0.250000X0.225000X-0.250000X-0.225000X0.250000X-0.225000X0.250000X0.225000X0*%
%ADD13R,2.692400X1.092200*%
%ADD14RoundRect,0.200000X-0.275000X0.200000X-0.275000X-0.200000X0.275000X-0.200000X0.275000X0.200000X0*%
%ADD15R,1.320800X0.558800*%
%ADD16R,1.350000X1.800000*%
%ADD17RoundRect,0.200000X-0.200000X-0.275000X0.200000X-0.275000X0.200000X0.275000X-0.200000X0.275000X0*%
%ADD18RoundRect,0.225000X0.225000X0.250000X-0.225000X0.250000X-0.225000X-0.250000X0.225000X-0.250000X0*%
%ADD19R,0.400000X1.350000*%
%ADD20R,1.600000X1.400000*%
%ADD21R,1.900000X1.900000*%
%ADD22O,0.343000X1.731500*%
%ADD23R,6.200000X2.750000*%
%ADD24RoundRect,0.225000X-0.225000X-0.250000X0.225000X-0.250000X0.225000X0.250000X-0.225000X0.250000X0*%
%ADD25RoundRect,0.218750X-0.218750X-0.256250X0.218750X-0.256250X0.218750X0.256250X-0.218750X0.256250X0*%
%ADD26RoundRect,0.500000X0.875000X0.500000X-0.875000X0.500000X-0.875000X-0.500000X0.875000X-0.500000X0*%
%ADD27RoundRect,0.317500X-0.825500X0.317500X-0.825500X-0.317500X0.825500X-0.317500X0.825500X0.317500X0*%
%ADD28RoundRect,0.200000X0.200000X0.275000X-0.200000X0.275000X-0.200000X-0.275000X0.200000X-0.275000X0*%
%ADD29R,2.400000X1.900000*%
%ADD30RoundRect,0.225000X0.250000X-0.225000X0.250000X0.225000X-0.250000X0.225000X-0.250000X-0.225000X0*%
%ADD31RoundRect,0.068750X0.666250X0.206250X-0.666250X0.206250X-0.666250X-0.206250X0.666250X-0.206250X0*%
%ADD32RoundRect,0.068750X0.206250X0.666250X-0.206250X0.666250X-0.206250X-0.666250X0.206250X-0.666250X0*%
%ADD33R,1.500000X1.000000*%
%ADD34RoundRect,0.150000X-0.825000X-0.150000X0.825000X-0.150000X0.825000X0.150000X-0.825000X0.150000X0*%
G04 APERTURE END LIST*
D10*
%TO.C,VR1*%
X221190000Y-114100000D02*
X221190000Y-114500000D01*
X220290000Y-115400000D01*
X218090000Y-115400000D01*
X217490000Y-114800000D01*
X215690000Y-114800000D01*
X215690000Y-113800000D01*
X217490000Y-113800000D01*
X218090000Y-113200000D01*
X220290000Y-113200000D01*
X221190000Y-114100000D01*
G36*
X221190000Y-114100000D02*
G01*
X221190000Y-114500000D01*
X220290000Y-115400000D01*
X218090000Y-115400000D01*
X217490000Y-114800000D01*
X215690000Y-114800000D01*
X215690000Y-113800000D01*
X217490000Y-113800000D01*
X218090000Y-113200000D01*
X220290000Y-113200000D01*
X221190000Y-114100000D01*
G37*
%TD*%
D11*
%TO.C,R19*%
X213390000Y-141350000D03*
X213390000Y-139700000D03*
%TD*%
D12*
%TO.C,C4*%
X214630000Y-117335000D03*
X214630000Y-118885000D03*
%TD*%
D13*
%TO.C,C11*%
X243611400Y-133350000D03*
X248920000Y-133350000D03*
%TD*%
D14*
%TO.C,R7*%
X237490000Y-117285000D03*
X237490000Y-118935000D03*
%TD*%
D15*
%TO.C,U3*%
X222504000Y-134225200D03*
X222504000Y-136104800D03*
X224536000Y-135165000D03*
%TD*%
D11*
%TO.C,R17*%
X217170000Y-133005000D03*
X217170000Y-131355000D03*
%TD*%
%TO.C,R6*%
X235395000Y-118935000D03*
X235395000Y-117285000D03*
%TD*%
D16*
%TO.C,SW1*%
X218100000Y-120650000D03*
X222250000Y-120650000D03*
%TD*%
D17*
%TO.C,R13*%
X214250000Y-105410000D03*
X215900000Y-105410000D03*
%TD*%
%TO.C,R2*%
X247270000Y-124460000D03*
X248920000Y-124460000D03*
%TD*%
D15*
%TO.C,U4*%
X222504000Y-130415200D03*
X222504000Y-132294800D03*
X224536000Y-131355000D03*
%TD*%
D18*
%TO.C,C9*%
X253505000Y-114300000D03*
X251955000Y-114300000D03*
%TD*%
D19*
%TO.C,J12*%
X230660000Y-101735000D03*
X230010000Y-101735000D03*
X229360000Y-101735000D03*
X228710000Y-101735000D03*
X228060000Y-101735000D03*
D20*
X232560000Y-101510000D03*
X226160000Y-101510000D03*
D21*
X228160000Y-99060000D03*
X230560000Y-99060000D03*
%TD*%
D12*
%TO.C,C2*%
X231635000Y-128765000D03*
X231635000Y-130315000D03*
%TD*%
D22*
%TO.C,U1*%
X234300000Y-128270000D03*
X234950000Y-128270000D03*
X235600000Y-128270000D03*
X236250000Y-128270000D03*
X236900000Y-128270000D03*
X237550000Y-128270000D03*
X238200000Y-128270000D03*
X238850000Y-128270000D03*
X239500000Y-128270000D03*
X240150000Y-128270000D03*
X240800000Y-128270000D03*
X241450000Y-128270000D03*
X242100000Y-128270000D03*
X242750000Y-128270000D03*
X242750000Y-122538000D03*
X242100000Y-122538000D03*
X241450000Y-122538000D03*
X240800000Y-122538000D03*
X240150000Y-122538000D03*
X239500000Y-122538000D03*
X238850000Y-122538000D03*
X238200000Y-122538000D03*
X237550000Y-122538000D03*
X236900000Y-122538000D03*
X236250000Y-122538000D03*
X235600000Y-122538000D03*
X234950000Y-122538000D03*
X234300000Y-122538000D03*
D23*
X238525000Y-125404000D03*
%TD*%
D11*
%TO.C,R15*%
X217170000Y-136435000D03*
X217170000Y-134785000D03*
%TD*%
D24*
%TO.C,C10*%
X251180000Y-111760000D03*
X252730000Y-111760000D03*
%TD*%
D14*
%TO.C,R12*%
X240030000Y-118555000D03*
X240030000Y-120205000D03*
%TD*%
D17*
%TO.C,R5*%
X230760000Y-118110000D03*
X232410000Y-118110000D03*
%TD*%
D25*
%TO.C,D5*%
X205435000Y-143510000D03*
X207010000Y-143510000D03*
%TD*%
D24*
%TO.C,C7*%
X219430000Y-105410000D03*
X220980000Y-105410000D03*
%TD*%
D26*
%TO.C,U6*%
X270671000Y-145432750D03*
X270671000Y-142892750D03*
X270671000Y-140352750D03*
X270671000Y-137812750D03*
X270671000Y-135272750D03*
X270671000Y-132732750D03*
X270671000Y-130192750D03*
X254506000Y-130192750D03*
X254506000Y-132732750D03*
X254506000Y-135272750D03*
X254506000Y-137812750D03*
X254506000Y-140352750D03*
X254506000Y-142892750D03*
X254506000Y-145432750D03*
D27*
X267061000Y-138107750D03*
X267061000Y-140012750D03*
%TD*%
D11*
%TO.C,R18*%
X219710000Y-133005000D03*
X219710000Y-131355000D03*
%TD*%
D18*
%TO.C,C12*%
X252730000Y-109220000D03*
X251180000Y-109220000D03*
%TD*%
D24*
%TO.C,C16*%
X236220000Y-114300000D03*
X237770000Y-114300000D03*
%TD*%
D28*
%TO.C,R10*%
X210820000Y-143510000D03*
X209170000Y-143510000D03*
%TD*%
D29*
%TO.C,Y1*%
X238760000Y-107660000D03*
X238760000Y-111760000D03*
%TD*%
D30*
%TO.C,C8*%
X234950000Y-111265000D03*
X234950000Y-109715000D03*
%TD*%
D31*
%TO.C,U2*%
X231500000Y-113290000D03*
X231500000Y-112490000D03*
X231500000Y-111690000D03*
X231500000Y-110890000D03*
X231500000Y-110090000D03*
X231500000Y-109290000D03*
X231500000Y-108490000D03*
X231500000Y-107690000D03*
D32*
X230130000Y-106320000D03*
X229330000Y-106320000D03*
X228530000Y-106320000D03*
X227730000Y-106320000D03*
X226930000Y-106320000D03*
X226130000Y-106320000D03*
X225330000Y-106320000D03*
X224530000Y-106320000D03*
D31*
X223160000Y-107690000D03*
X223160000Y-108490000D03*
X223160000Y-109290000D03*
X223160000Y-110090000D03*
X223160000Y-110890000D03*
X223160000Y-111690000D03*
X223160000Y-112490000D03*
X223160000Y-113290000D03*
D32*
X224530000Y-114660000D03*
X225330000Y-114660000D03*
X226130000Y-114660000D03*
X226930000Y-114660000D03*
X227730000Y-114660000D03*
X228530000Y-114660000D03*
X229330000Y-114660000D03*
X230130000Y-114660000D03*
%TD*%
D33*
%TO.C,VR1*%
X216440000Y-112800000D03*
X216440000Y-115800000D03*
%TD*%
D17*
%TO.C,R1*%
X247650000Y-127000000D03*
X249300000Y-127000000D03*
%TD*%
%TO.C,R3*%
X247270000Y-121920000D03*
X248920000Y-121920000D03*
%TD*%
D15*
%TO.C,U7*%
X222504000Y-126605200D03*
X222504000Y-128484800D03*
X224536000Y-127545000D03*
%TD*%
D18*
%TO.C,C17*%
X237490000Y-105410000D03*
X235940000Y-105410000D03*
%TD*%
D11*
%TO.C,R16*%
X219710000Y-136435000D03*
X219710000Y-134785000D03*
%TD*%
D34*
%TO.C,U5*%
X243905000Y-109855000D03*
X243905000Y-111125000D03*
X243905000Y-112395000D03*
X243905000Y-113665000D03*
X243905000Y-114935000D03*
X243905000Y-116205000D03*
X243905000Y-117475000D03*
X243905000Y-118745000D03*
X248855000Y-118745000D03*
X248855000Y-117475000D03*
X248855000Y-116205000D03*
X248855000Y-114935000D03*
X248855000Y-113665000D03*
X248855000Y-112395000D03*
X248855000Y-111125000D03*
X248855000Y-109855000D03*
%TD*%
D12*
%TO.C,C3*%
X234950000Y-131800000D03*
X234950000Y-133350000D03*
%TD*%
D11*
%TO.C,R20*%
X215900000Y-141350000D03*
X215900000Y-139700000D03*
%TD*%
%TO.C,R8*%
X219710000Y-129195000D03*
X219710000Y-127545000D03*
%TD*%
%TO.C,R4*%
X217170000Y-129195000D03*
X217170000Y-127545000D03*
%TD*%
D30*
%TO.C,C6*%
X220980000Y-109995000D03*
X220980000Y-108445000D03*
%TD*%
%TO.C,C1*%
X245110000Y-123965000D03*
X245110000Y-122415000D03*
%TD*%
D17*
%TO.C,R14*%
X214250000Y-109220000D03*
X215900000Y-109220000D03*
%TD*%
M02*
