%TF.GenerationSoftware,KiCad,Pcbnew,8.0.4*%
%TF.CreationDate,2024-11-29T22:55:19-05:00*%
%TF.ProjectId,foc_pcb,666f635f-7063-4622-9e6b-696361645f70,2.0*%
%TF.SameCoordinates,Original*%
%TF.FileFunction,Other,Comment*%
%FSLAX46Y46*%
G04 Gerber Fmt 4.6, Leading zero omitted, Abs format (unit mm)*
G04 Created by KiCad (PCBNEW 8.0.4) date 2024-11-29 22:55:19*
%MOMM*%
%LPD*%
G01*
G04 APERTURE LIST*
%ADD10C,0.150000*%
%ADD11C,0.010000*%
%ADD12C,0.000000*%
G04 APERTURE END LIST*
D10*
%TO.C,H2*%
X250850000Y-104190000D02*
G75*
G02*
X244450000Y-104190000I-3200000J0D01*
G01*
X244450000Y-104190000D02*
G75*
G02*
X250850000Y-104190000I3200000J0D01*
G01*
D11*
%TO.C,U6*%
X253726000Y-128836750D02*
X253757700Y-128836750D01*
X253726000Y-129037750D02*
X253726000Y-129293950D01*
X253726000Y-129293950D02*
X253726000Y-129344750D01*
X253726000Y-129344750D02*
X253726000Y-129395550D01*
X253726000Y-129395550D02*
X253726000Y-129446350D01*
X253726000Y-129395550D02*
X255319000Y-129395550D01*
X253726000Y-129446350D02*
X253726000Y-129547950D01*
X253726000Y-129547950D02*
X253726000Y-129598750D01*
X253726000Y-129598750D02*
X253726000Y-129649550D01*
X253726000Y-129598750D02*
X253726000Y-145854750D01*
X253726000Y-129598750D02*
X255594000Y-129598750D01*
X253726000Y-129649550D02*
X253726000Y-129751150D01*
X253726000Y-129751150D02*
X253726000Y-129801950D01*
X253726000Y-129801950D02*
X253726000Y-129852750D01*
X253726000Y-129801950D02*
X255712700Y-129801950D01*
X253726000Y-129852750D02*
X253726000Y-129954350D01*
X253726000Y-129954350D02*
X253726000Y-130005150D01*
X253726000Y-130005150D02*
X253726000Y-130055950D01*
X253726000Y-130005150D02*
X255754200Y-130005150D01*
X253726000Y-130055950D02*
X253726000Y-130157550D01*
X253726000Y-130157550D02*
X253726000Y-130208350D01*
X253726000Y-130208350D02*
X253726000Y-130259150D01*
X253726000Y-130208350D02*
X255754200Y-130208350D01*
X253726000Y-130259150D02*
X253726000Y-130360750D01*
X253726000Y-130360750D02*
X253726000Y-130411550D01*
X253726000Y-130411550D02*
X253726000Y-130462350D01*
X253726000Y-130411550D02*
X255712700Y-130411550D01*
X253726000Y-130462350D02*
X253726000Y-130563950D01*
X253726000Y-130563950D02*
X253726000Y-130614750D01*
X253726000Y-130614750D02*
X253726000Y-130665550D01*
X253726000Y-130614750D02*
X255594000Y-130614750D01*
X253726000Y-130665550D02*
X253726000Y-130767150D01*
X253726000Y-130767150D02*
X253726000Y-130817950D01*
X253726000Y-130817950D02*
X253726000Y-130868750D01*
X253726000Y-130817950D02*
X255319000Y-130817950D01*
X253726000Y-130868750D02*
X253726000Y-130919550D01*
X253726000Y-130868750D02*
X253776800Y-130868750D01*
X253726000Y-130919550D02*
X253726000Y-131833950D01*
X253726000Y-131833950D02*
X253726000Y-131884750D01*
X253726000Y-131884750D02*
X253726000Y-131935550D01*
X253726000Y-131935550D02*
X253726000Y-131986350D01*
X253726000Y-131986350D02*
X253726000Y-132037150D01*
X253726000Y-132037150D02*
X253726000Y-132087950D01*
X253726000Y-132037150D02*
X255343400Y-132037150D01*
X253726000Y-132087950D02*
X253726000Y-132189550D01*
X253726000Y-132189550D02*
X253726000Y-132240350D01*
X253726000Y-132240350D02*
X253726000Y-132291150D01*
X253726000Y-132240350D02*
X255511400Y-132240350D01*
X253726000Y-132291150D02*
X253726000Y-132392750D01*
X253726000Y-132392750D02*
X253726000Y-132443550D01*
X253726000Y-132443550D02*
X253726000Y-132494350D01*
X253726000Y-132443550D02*
X255583600Y-132443550D01*
X253726000Y-132494350D02*
X253726000Y-132595950D01*
X253726000Y-132595950D02*
X253726000Y-132646750D01*
X253726000Y-132646750D02*
X253726000Y-132697550D01*
X253726000Y-132646750D02*
X255593700Y-132646750D01*
X253726000Y-132697550D02*
X253726000Y-132799150D01*
X253726000Y-132799150D02*
X253726000Y-132849950D01*
X253726000Y-132849950D02*
X253726000Y-132900750D01*
X253726000Y-132849950D02*
X255583600Y-132849950D01*
X253726000Y-132900750D02*
X253726000Y-133002350D01*
X253726000Y-133002350D02*
X253726000Y-133053150D01*
X253726000Y-133053150D02*
X253726000Y-133103950D01*
X253726000Y-133053150D02*
X255511400Y-133053150D01*
X253726000Y-133103950D02*
X253726000Y-133205550D01*
X253726000Y-133205550D02*
X253726000Y-133256350D01*
X253726000Y-133256350D02*
X253726000Y-133307150D01*
X253726000Y-133256350D02*
X255343400Y-133256350D01*
X253726000Y-133307150D02*
X253726000Y-133357950D01*
X253726000Y-133357950D02*
X253726000Y-133408750D01*
X253726000Y-133408750D02*
X253726000Y-133459550D01*
X253726000Y-133408750D02*
X253776800Y-133408750D01*
X253726000Y-133459550D02*
X253726000Y-134373950D01*
X253726000Y-134373950D02*
X253726000Y-134424750D01*
X253726000Y-134424750D02*
X253726000Y-134475550D01*
X253726000Y-134475550D02*
X253726000Y-134526350D01*
X253726000Y-134475550D02*
X255319000Y-134475550D01*
X253726000Y-134526350D02*
X253726000Y-134627950D01*
X253726000Y-134627950D02*
X253726000Y-134678750D01*
X253726000Y-134678750D02*
X253726000Y-134729550D01*
X253726000Y-134678750D02*
X255594000Y-134678750D01*
X253726000Y-134729550D02*
X253726000Y-134831150D01*
X253726000Y-134831150D02*
X253726000Y-134881950D01*
X253726000Y-134881950D02*
X253726000Y-134932750D01*
X253726000Y-134881950D02*
X255712700Y-134881950D01*
X253726000Y-134932750D02*
X253726000Y-135034350D01*
X253726000Y-135034350D02*
X253726000Y-135085150D01*
X253726000Y-135085150D02*
X253726000Y-135135950D01*
X253726000Y-135085150D02*
X255754200Y-135085150D01*
X253726000Y-135135950D02*
X253726000Y-135237550D01*
X253726000Y-135237550D02*
X253726000Y-135288350D01*
X253726000Y-135288350D02*
X253726000Y-135339150D01*
X253726000Y-135288350D02*
X255754200Y-135288350D01*
X253726000Y-135339150D02*
X253726000Y-135440750D01*
X253726000Y-135440750D02*
X253726000Y-135491550D01*
X253726000Y-135491550D02*
X253726000Y-135542350D01*
X253726000Y-135491550D02*
X255712700Y-135491550D01*
X253726000Y-135542350D02*
X253726000Y-135643950D01*
X253726000Y-135643950D02*
X253726000Y-135694750D01*
X253726000Y-135694750D02*
X253726000Y-135745550D01*
X253726000Y-135694750D02*
X255594000Y-135694750D01*
X253726000Y-135745550D02*
X253726000Y-135847150D01*
X253726000Y-135847150D02*
X253726000Y-135897950D01*
X253726000Y-135897950D02*
X253726000Y-135948750D01*
X253726000Y-135897950D02*
X255319000Y-135897950D01*
X253726000Y-135948750D02*
X253726000Y-135999550D01*
X253726000Y-135948750D02*
X253776800Y-135948750D01*
X253726000Y-135999550D02*
X253726000Y-136913950D01*
X253726000Y-136913950D02*
X253726000Y-136964750D01*
X253726000Y-136964750D02*
X253726000Y-137015550D01*
X253726000Y-137015550D02*
X253726000Y-137066350D01*
X253726000Y-137066350D02*
X253726000Y-137117150D01*
X253726000Y-137117150D02*
X253726000Y-137167950D01*
X253726000Y-137117150D02*
X255489800Y-137117150D01*
X253726000Y-137167950D02*
X253726000Y-137269550D01*
X253726000Y-137269550D02*
X253726000Y-137320350D01*
X253726000Y-137320350D02*
X253726000Y-137371150D01*
X253726000Y-137320350D02*
X255664400Y-137320350D01*
X253726000Y-137371150D02*
X253726000Y-137472750D01*
X253726000Y-137472750D02*
X253726000Y-137523550D01*
X253726000Y-137523550D02*
X253726000Y-137574350D01*
X253726000Y-137523550D02*
X255743500Y-137523550D01*
X253726000Y-137574350D02*
X253726000Y-137675950D01*
X253726000Y-137675950D02*
X253726000Y-137726750D01*
X253726000Y-137726750D02*
X253726000Y-137777550D01*
X253726000Y-137726750D02*
X255758000Y-137726750D01*
X253726000Y-137777550D02*
X253726000Y-137879150D01*
X253726000Y-137879150D02*
X253726000Y-137929950D01*
X253726000Y-137929950D02*
X253726000Y-137980750D01*
X253726000Y-137929950D02*
X255743500Y-137929950D01*
X253726000Y-137980750D02*
X253726000Y-138082350D01*
X253726000Y-138082350D02*
X253726000Y-138133150D01*
X253726000Y-138133150D02*
X253726000Y-138183950D01*
X253726000Y-138133150D02*
X255664400Y-138133150D01*
X253726000Y-138183950D02*
X253726000Y-138285550D01*
X253726000Y-138285550D02*
X253726000Y-138336350D01*
X253726000Y-138336350D02*
X253726000Y-138387150D01*
X253726000Y-138336350D02*
X255489800Y-138336350D01*
X253726000Y-138387150D02*
X253726000Y-138437950D01*
X253726000Y-138437950D02*
X253726000Y-138488750D01*
X253726000Y-138488750D02*
X253726000Y-138539550D01*
X253726000Y-138488750D02*
X253776800Y-138488750D01*
X253726000Y-138539550D02*
X253726000Y-139453950D01*
X253726000Y-139453950D02*
X253726000Y-139504750D01*
X253726000Y-139504750D02*
X253726000Y-139555550D01*
X253726000Y-139555550D02*
X253726000Y-139606350D01*
X253726000Y-139555550D02*
X255319000Y-139555550D01*
X253726000Y-139606350D02*
X253726000Y-139707950D01*
X253726000Y-139707950D02*
X253726000Y-139758750D01*
X253726000Y-139758750D02*
X253726000Y-139809550D01*
X253726000Y-139758750D02*
X255594000Y-139758750D01*
X253726000Y-139809550D02*
X253726000Y-139911150D01*
X253726000Y-139911150D02*
X253726000Y-139961950D01*
X253726000Y-139961950D02*
X253726000Y-140012750D01*
X253726000Y-139961950D02*
X255712700Y-139961950D01*
X253726000Y-140012750D02*
X253726000Y-140114350D01*
X253726000Y-140114350D02*
X253726000Y-140165150D01*
X253726000Y-140165150D02*
X253726000Y-140215950D01*
X253726000Y-140165150D02*
X255754200Y-140165150D01*
X253726000Y-140215950D02*
X253726000Y-140317550D01*
X253726000Y-140317550D02*
X253726000Y-140368350D01*
X253726000Y-140368350D02*
X253726000Y-140419150D01*
X253726000Y-140368350D02*
X255754200Y-140368350D01*
X253726000Y-140419150D02*
X253726000Y-140520750D01*
X253726000Y-140520750D02*
X253726000Y-140571550D01*
X253726000Y-140571550D02*
X253726000Y-140622350D01*
X253726000Y-140571550D02*
X255712700Y-140571550D01*
X253726000Y-140622350D02*
X253726000Y-140723950D01*
X253726000Y-140723950D02*
X253726000Y-140774750D01*
X253726000Y-140774750D02*
X253726000Y-140825550D01*
X253726000Y-140774750D02*
X255594000Y-140774750D01*
X253726000Y-140825550D02*
X253726000Y-140927150D01*
X253726000Y-140927150D02*
X253726000Y-140977950D01*
X253726000Y-140977950D02*
X253726000Y-141028750D01*
X253726000Y-140977950D02*
X255319000Y-140977950D01*
X253726000Y-141028750D02*
X253726000Y-141079550D01*
X253726000Y-141028750D02*
X253776800Y-141028750D01*
X253726000Y-141079550D02*
X253726000Y-141993950D01*
X253726000Y-141993950D02*
X253726000Y-142044750D01*
X253726000Y-142044750D02*
X253726000Y-142095550D01*
X253726000Y-142095550D02*
X253726000Y-142146350D01*
X253726000Y-142146350D02*
X253726000Y-142197150D01*
X253726000Y-142197150D02*
X253726000Y-142247950D01*
X253726000Y-142197150D02*
X255343400Y-142197150D01*
X253726000Y-142247950D02*
X253726000Y-142349550D01*
X253726000Y-142349550D02*
X253726000Y-142400350D01*
X253726000Y-142400350D02*
X253726000Y-142451150D01*
X253726000Y-142400350D02*
X255511400Y-142400350D01*
X253726000Y-142451150D02*
X253726000Y-142552750D01*
X253726000Y-142552750D02*
X253726000Y-142603550D01*
X253726000Y-142603550D02*
X253726000Y-142654350D01*
X253726000Y-142603550D02*
X255583600Y-142603550D01*
X253726000Y-142654350D02*
X253726000Y-142755950D01*
X253726000Y-142755950D02*
X253726000Y-142806750D01*
X253726000Y-142806750D02*
X253726000Y-142857550D01*
X253726000Y-142806750D02*
X255593700Y-142806750D01*
X253726000Y-142857550D02*
X253726000Y-142959150D01*
X253726000Y-142959150D02*
X253726000Y-143009950D01*
X253726000Y-143009950D02*
X253726000Y-143060750D01*
X253726000Y-143009950D02*
X255583600Y-143009950D01*
X253726000Y-143060750D02*
X253726000Y-143162350D01*
X253726000Y-143162350D02*
X253726000Y-143213150D01*
X253726000Y-143213150D02*
X253726000Y-143263950D01*
X253726000Y-143213150D02*
X255511400Y-143213150D01*
X253726000Y-143263950D02*
X253726000Y-143365550D01*
X253726000Y-143365550D02*
X253726000Y-143416350D01*
X253726000Y-143416350D02*
X253726000Y-143467150D01*
X253726000Y-143416350D02*
X255343400Y-143416350D01*
X253726000Y-143467150D02*
X253726000Y-143517950D01*
X253726000Y-143517950D02*
X253726000Y-143568750D01*
X253726000Y-143568750D02*
X253726000Y-143619550D01*
X253726000Y-143568750D02*
X253776800Y-143568750D01*
X253726000Y-143619550D02*
X253726000Y-144533950D01*
X253726000Y-144533950D02*
X253726000Y-144584750D01*
X253726000Y-144584750D02*
X253726000Y-144635550D01*
X253726000Y-144635550D02*
X253726000Y-144686350D01*
X253726000Y-144635550D02*
X255319000Y-144635550D01*
X253726000Y-144686350D02*
X253726000Y-144787950D01*
X253726000Y-144787950D02*
X253726000Y-144838750D01*
X253726000Y-144838750D02*
X253726000Y-144889550D01*
X253726000Y-144838750D02*
X255594000Y-144838750D01*
X253726000Y-144889550D02*
X253726000Y-144991150D01*
X253726000Y-144991150D02*
X253726000Y-145041950D01*
X253726000Y-145041950D02*
X253726000Y-145092750D01*
X253726000Y-145041950D02*
X255712700Y-145041950D01*
X253726000Y-145092750D02*
X253726000Y-145194350D01*
X253726000Y-145194350D02*
X253726000Y-145245150D01*
X253726000Y-145245150D02*
X253726000Y-145295950D01*
X253726000Y-145245150D02*
X255754200Y-145245150D01*
X253726000Y-145295950D02*
X253726000Y-145397550D01*
X253726000Y-145397550D02*
X253726000Y-145448350D01*
X253726000Y-145448350D02*
X253726000Y-145499150D01*
X253726000Y-145448350D02*
X255754200Y-145448350D01*
X253726000Y-145499150D02*
X253726000Y-145600750D01*
X253726000Y-145600750D02*
X253726000Y-145651550D01*
X253726000Y-145651550D02*
X253726000Y-145702350D01*
X253726000Y-145651550D02*
X255712700Y-145651550D01*
X253726000Y-145702350D02*
X253726000Y-145803950D01*
X253726000Y-145803950D02*
X253726000Y-145854750D01*
X253726000Y-145854750D02*
X253726000Y-145905550D01*
X253726000Y-145854750D02*
X255594000Y-145854750D01*
X253726000Y-145905550D02*
X253726000Y-146007150D01*
X253726000Y-146007150D02*
X253726000Y-146057950D01*
X253726000Y-146057950D02*
X253726000Y-146108750D01*
X253726000Y-146057950D02*
X255319000Y-146057950D01*
X253726000Y-146108750D02*
X253726000Y-146159550D01*
X253726000Y-146108750D02*
X253776800Y-146108750D01*
X253726000Y-146159550D02*
X253726000Y-146362750D01*
X253726000Y-146616750D02*
X253726000Y-128836750D01*
X253757700Y-128836750D02*
X256234200Y-128836750D01*
X253757700Y-146616750D02*
X253726000Y-146616750D01*
X253776800Y-129344750D02*
X253726000Y-129344750D01*
X253776800Y-130868750D02*
X255059500Y-130868750D01*
X253776800Y-131884750D02*
X253726000Y-131884750D01*
X253776800Y-133408750D02*
X254945200Y-133408750D01*
X253776800Y-134424750D02*
X253726000Y-134424750D01*
X253776800Y-135948750D02*
X255059500Y-135948750D01*
X253776800Y-136964750D02*
X253726000Y-136964750D01*
X253776800Y-138488750D02*
X255059500Y-138488750D01*
X253776800Y-139504750D02*
X253726000Y-139504750D01*
X253776800Y-141028750D02*
X255059500Y-141028750D01*
X253776800Y-142044750D02*
X253726000Y-142044750D01*
X253776800Y-143568750D02*
X254945200Y-143568750D01*
X253776800Y-144584750D02*
X253726000Y-144584750D01*
X253776800Y-146108750D02*
X255059500Y-146108750D01*
X254945200Y-131884750D02*
X253776800Y-131884750D01*
X254945200Y-133408750D02*
X255076100Y-133390950D01*
X254945200Y-142044750D02*
X253776800Y-142044750D01*
X254945200Y-143568750D02*
X255076100Y-143550950D01*
X255059500Y-129344750D02*
X253776800Y-129344750D01*
X255059500Y-130868750D02*
X255195800Y-130855350D01*
X255059500Y-134424750D02*
X253776800Y-134424750D01*
X255059500Y-135948750D02*
X255195800Y-135935350D01*
X255059500Y-136964750D02*
X253776800Y-136964750D01*
X255059500Y-138488750D02*
X255195800Y-138475350D01*
X255059500Y-139504750D02*
X253776800Y-139504750D01*
X255059500Y-141028750D02*
X255195800Y-141015350D01*
X255059500Y-144584750D02*
X253776800Y-144584750D01*
X255059500Y-146108750D02*
X255195800Y-146095350D01*
X255076100Y-131902550D02*
X254945200Y-131884750D01*
X255076100Y-133390950D02*
X255201000Y-133347950D01*
X255076100Y-142062550D02*
X254945200Y-142044750D01*
X255076100Y-143550950D02*
X255201000Y-143507950D01*
X255195800Y-129358150D02*
X255059500Y-129344750D01*
X255195800Y-130855350D02*
X255326800Y-130815550D01*
X255195800Y-134438150D02*
X255059500Y-134424750D01*
X255195800Y-135935350D02*
X255326800Y-135895550D01*
X255195800Y-136978150D02*
X255059500Y-136964750D01*
X255195800Y-138475350D02*
X255326800Y-138435550D01*
X255195800Y-139518150D02*
X255059500Y-139504750D01*
X255195800Y-141015350D02*
X255326800Y-140975550D01*
X255195800Y-144598150D02*
X255059500Y-144584750D01*
X255195800Y-146095350D02*
X255326800Y-146055550D01*
X255201000Y-131945550D02*
X255076100Y-131902550D01*
X255201000Y-133347950D02*
X255315200Y-133281350D01*
X255201000Y-142105550D02*
X255076100Y-142062550D01*
X255201000Y-143507950D02*
X255315200Y-143441350D01*
X255315200Y-132012150D02*
X255201000Y-131945550D01*
X255315200Y-133281350D02*
X255414100Y-133193850D01*
X255315200Y-142172150D02*
X255201000Y-142105550D01*
X255315200Y-143441350D02*
X255414100Y-143353850D01*
X255326800Y-129397950D02*
X255195800Y-129358150D01*
X255326800Y-130815550D02*
X255447600Y-130751050D01*
X255326800Y-134477950D02*
X255195800Y-134438150D01*
X255326800Y-135895550D02*
X255447600Y-135831050D01*
X255326800Y-137017950D02*
X255195800Y-136978150D01*
X255326800Y-138435550D02*
X255447600Y-138371050D01*
X255326800Y-139557950D02*
X255195800Y-139518150D01*
X255326800Y-140975550D02*
X255447600Y-140911050D01*
X255326800Y-144637950D02*
X255195800Y-144598150D01*
X255326800Y-146055550D02*
X255447600Y-145991050D01*
X255414100Y-132099650D02*
X255315200Y-132012150D01*
X255414100Y-133193850D02*
X255494100Y-133088650D01*
X255414100Y-142259650D02*
X255315200Y-142172150D01*
X255414100Y-143353850D02*
X255494100Y-143248650D01*
X255447600Y-129462450D02*
X255326800Y-129397950D01*
X255447600Y-130751050D02*
X255553400Y-130664150D01*
X255447600Y-134542450D02*
X255326800Y-134477950D01*
X255447600Y-135831050D02*
X255553400Y-135744150D01*
X255447600Y-137082450D02*
X255326800Y-137017950D01*
X255447600Y-138371050D02*
X255553400Y-138284150D01*
X255447600Y-139622450D02*
X255326800Y-139557950D01*
X255447600Y-140911050D02*
X255553400Y-140824150D01*
X255447600Y-144702450D02*
X255326800Y-144637950D01*
X255447600Y-145991050D02*
X255553400Y-145904150D01*
X255494100Y-132204850D02*
X255414100Y-132099650D01*
X255494100Y-133088650D02*
X255552000Y-132969850D01*
X255494100Y-142364850D02*
X255414100Y-142259650D01*
X255494100Y-143248650D02*
X255552000Y-143129850D01*
X255552000Y-132323650D02*
X255494100Y-132204850D01*
X255552000Y-132969850D02*
X255585600Y-132842150D01*
X255552000Y-142483650D02*
X255494100Y-142364850D01*
X255552000Y-143129850D02*
X255585600Y-143002150D01*
X255553400Y-129549350D02*
X255447600Y-129462450D01*
X255553400Y-130664150D02*
X255640300Y-130558350D01*
X255553400Y-134629350D02*
X255447600Y-134542450D01*
X255553400Y-135744150D02*
X255640300Y-135638350D01*
X255553400Y-137169350D02*
X255447600Y-137082450D01*
X255553400Y-138284150D02*
X255640300Y-138178350D01*
X255553400Y-139709350D02*
X255447600Y-139622450D01*
X255553400Y-140824150D02*
X255640300Y-140718350D01*
X255553400Y-144789350D02*
X255447600Y-144702450D01*
X255553400Y-145904150D02*
X255640300Y-145798350D01*
X255585600Y-132451350D02*
X255552000Y-132323650D01*
X255585600Y-132842150D02*
X255593700Y-132710250D01*
X255585600Y-142611350D02*
X255552000Y-142483650D01*
X255585600Y-143002150D02*
X255593700Y-142870250D01*
X255593700Y-132583250D02*
X255585600Y-132451350D01*
X255593700Y-132595950D02*
X255593700Y-132583250D01*
X255593700Y-132646750D02*
X255593700Y-132595950D01*
X255593700Y-132697550D02*
X255593700Y-132646750D01*
X255593700Y-132710250D02*
X255593700Y-132697550D01*
X255593700Y-142743250D02*
X255585600Y-142611350D01*
X255593700Y-142755950D02*
X255593700Y-142743250D01*
X255593700Y-142806750D02*
X255593700Y-142755950D01*
X255593700Y-142857550D02*
X255593700Y-142806750D01*
X255593700Y-142870250D02*
X255593700Y-142857550D01*
X255631000Y-148267750D02*
X269601000Y-148267750D01*
X255640300Y-129655150D02*
X255553400Y-129549350D01*
X255640300Y-130558350D02*
X255704800Y-130437550D01*
X255640300Y-134735150D02*
X255553400Y-134629350D01*
X255640300Y-135638350D02*
X255704800Y-135517550D01*
X255640300Y-137275150D02*
X255553400Y-137169350D01*
X255640300Y-138178350D02*
X255704800Y-138057550D01*
X255640300Y-139815150D02*
X255553400Y-139709350D01*
X255640300Y-140718350D02*
X255704800Y-140597550D01*
X255640300Y-144895150D02*
X255553400Y-144789350D01*
X255640300Y-145798350D02*
X255704800Y-145677550D01*
X255704800Y-129775950D02*
X255640300Y-129655150D01*
X255704800Y-130437550D02*
X255712700Y-130411550D01*
X255704800Y-134855950D02*
X255640300Y-134735150D01*
X255704800Y-135517550D02*
X255712700Y-135491550D01*
X255704800Y-137395950D02*
X255640300Y-137275150D01*
X255704800Y-138057550D02*
X255744600Y-137926550D01*
X255704800Y-139935950D02*
X255640300Y-139815150D01*
X255704800Y-140597550D02*
X255712700Y-140571550D01*
X255704800Y-145015950D02*
X255640300Y-144895150D01*
X255704800Y-145677550D02*
X255712700Y-145651550D01*
X255712700Y-129801950D02*
X255704800Y-129775950D01*
X255712700Y-130411550D02*
X255744600Y-130306550D01*
X255712700Y-134881950D02*
X255704800Y-134855950D01*
X255712700Y-135491550D02*
X255744600Y-135386550D01*
X255712700Y-139961950D02*
X255704800Y-139935950D01*
X255712700Y-140571550D02*
X255744600Y-140466550D01*
X255712700Y-145041950D02*
X255704800Y-145015950D01*
X255712700Y-145651550D02*
X255744600Y-145546550D01*
X255744600Y-129906950D02*
X255712700Y-129801950D01*
X255744600Y-130306550D02*
X255758000Y-130170250D01*
X255744600Y-134986950D02*
X255712700Y-134881950D01*
X255744600Y-135386550D02*
X255758000Y-135250250D01*
X255744600Y-137526950D02*
X255704800Y-137395950D01*
X255744600Y-137926550D02*
X255758000Y-137790250D01*
X255744600Y-140066950D02*
X255712700Y-139961950D01*
X255744600Y-140466550D02*
X255758000Y-140330250D01*
X255744600Y-145146950D02*
X255712700Y-145041950D01*
X255744600Y-145546550D02*
X255758000Y-145410250D01*
X255758000Y-130043250D02*
X255744600Y-129906950D01*
X255758000Y-130170250D02*
X255758000Y-130043250D01*
X255758000Y-135123250D02*
X255744600Y-134986950D01*
X255758000Y-135250250D02*
X255758000Y-135123250D01*
X255758000Y-137663250D02*
X255744600Y-137526950D01*
X255758000Y-137675950D02*
X255758000Y-137663250D01*
X255758000Y-137726750D02*
X255758000Y-137675950D01*
X255758000Y-137777550D02*
X255758000Y-137726750D01*
X255758000Y-137790250D02*
X255758000Y-137777550D01*
X255758000Y-140203250D02*
X255744600Y-140066950D01*
X255758000Y-140330250D02*
X255758000Y-140203250D01*
X255758000Y-145283250D02*
X255744600Y-145146950D01*
X255758000Y-145410250D02*
X255758000Y-145283250D01*
X256234200Y-128836750D02*
X256266000Y-128836750D01*
X256266000Y-128836750D02*
X256266000Y-146585050D01*
X256266000Y-146585050D02*
X256266000Y-146616750D01*
X256266000Y-146616750D02*
X253757700Y-146616750D01*
X265918000Y-137472750D02*
X265918000Y-138742750D01*
X265918000Y-138742750D02*
X265949700Y-138742750D01*
X265918000Y-139377750D02*
X265918000Y-140647750D01*
X265918000Y-140647750D02*
X265949700Y-140647750D01*
X265949700Y-137472750D02*
X265918000Y-137472750D01*
X265949700Y-138742750D02*
X268172200Y-138742750D01*
X265949700Y-139377750D02*
X265918000Y-139377750D01*
X265949700Y-140647750D02*
X268172200Y-140647750D01*
X268172200Y-138742750D02*
X268204000Y-138742750D01*
X268172200Y-140647750D02*
X268204000Y-140647750D01*
X268204000Y-137472750D02*
X265949700Y-137472750D01*
X268204000Y-137504450D02*
X268204000Y-137472750D01*
X268204000Y-138742750D02*
X268204000Y-137504450D01*
X268204000Y-139377750D02*
X265949700Y-139377750D01*
X268204000Y-139409550D02*
X268204000Y-139377750D01*
X268204000Y-140647750D02*
X268204000Y-139409550D01*
X268966000Y-128836750D02*
X271474300Y-128836750D01*
X268966000Y-128868550D02*
X268966000Y-128836750D01*
X268966000Y-146616750D02*
X268966000Y-128868550D01*
X268997700Y-146616750D02*
X268966000Y-146616750D01*
X269474000Y-130043250D02*
X269474000Y-130170250D01*
X269474000Y-130170250D02*
X269487400Y-130306550D01*
X269474000Y-135123250D02*
X269474000Y-135250250D01*
X269474000Y-135250250D02*
X269487400Y-135386550D01*
X269474000Y-137663250D02*
X269474000Y-137675950D01*
X269474000Y-137675950D02*
X269474000Y-137726750D01*
X269474000Y-137726750D02*
X269474000Y-137777550D01*
X269474000Y-137777550D02*
X269474000Y-137790250D01*
X269474000Y-137790250D02*
X269487400Y-137926550D01*
X269474000Y-140203250D02*
X269474000Y-140330250D01*
X269474000Y-140330250D02*
X269487400Y-140466550D01*
X269474000Y-145283250D02*
X269474000Y-145410250D01*
X269474000Y-145410250D02*
X269487400Y-145546550D01*
X269487400Y-129906950D02*
X269474000Y-130043250D01*
X269487400Y-130306550D02*
X269519300Y-130411550D01*
X269487400Y-134986950D02*
X269474000Y-135123250D01*
X269487400Y-135386550D02*
X269519300Y-135491550D01*
X269487400Y-137526950D02*
X269474000Y-137663250D01*
X269487400Y-137926550D02*
X269527200Y-138057550D01*
X269487400Y-140066950D02*
X269474000Y-140203250D01*
X269487400Y-140466550D02*
X269519300Y-140571550D01*
X269487400Y-145146950D02*
X269474000Y-145283250D01*
X269487400Y-145546550D02*
X269519300Y-145651550D01*
X269519300Y-129801950D02*
X269487400Y-129906950D01*
X269519300Y-130411550D02*
X269527200Y-130437550D01*
X269519300Y-134881950D02*
X269487400Y-134986950D01*
X269519300Y-135491550D02*
X269527200Y-135517550D01*
X269519300Y-139961950D02*
X269487400Y-140066950D01*
X269519300Y-140571550D02*
X269527200Y-140597550D01*
X269519300Y-145041950D02*
X269487400Y-145146950D01*
X269519300Y-145651550D02*
X269527200Y-145677550D01*
X269527200Y-129775950D02*
X269519300Y-129801950D01*
X269527200Y-130437550D02*
X269591700Y-130558350D01*
X269527200Y-134855950D02*
X269519300Y-134881950D01*
X269527200Y-135517550D02*
X269591700Y-135638350D01*
X269527200Y-137395950D02*
X269487400Y-137526950D01*
X269527200Y-138057550D02*
X269591700Y-138178350D01*
X269527200Y-139935950D02*
X269519300Y-139961950D01*
X269527200Y-140597550D02*
X269591700Y-140718350D01*
X269527200Y-145015950D02*
X269519300Y-145041950D01*
X269527200Y-145677550D02*
X269591700Y-145798350D01*
X269591700Y-129655150D02*
X269527200Y-129775950D01*
X269591700Y-130558350D02*
X269678600Y-130664150D01*
X269591700Y-134735150D02*
X269527200Y-134855950D01*
X269591700Y-135638350D02*
X269678600Y-135744150D01*
X269591700Y-137275150D02*
X269527200Y-137395950D01*
X269591700Y-138178350D02*
X269678600Y-138284150D01*
X269591700Y-139815150D02*
X269527200Y-139935950D01*
X269591700Y-140718350D02*
X269678600Y-140824150D01*
X269591700Y-144895150D02*
X269527200Y-145015950D01*
X269591700Y-145798350D02*
X269678600Y-145904150D01*
X269601000Y-127132750D02*
X255631000Y-127132750D01*
X269638300Y-132583250D02*
X269638300Y-132595950D01*
X269638300Y-132595950D02*
X269638300Y-132646750D01*
X269638300Y-132646750D02*
X269638300Y-132697550D01*
X269638300Y-132697550D02*
X269638300Y-132710250D01*
X269638300Y-132710250D02*
X269646400Y-132842150D01*
X269638300Y-142743250D02*
X269638300Y-142755950D01*
X269638300Y-142755950D02*
X269638300Y-142806750D01*
X269638300Y-142806750D02*
X269638300Y-142857550D01*
X269638300Y-142857550D02*
X269638300Y-142870250D01*
X269638300Y-142870250D02*
X269646400Y-143002150D01*
X269646400Y-132451350D02*
X269638300Y-132583250D01*
X269646400Y-132842150D02*
X269680000Y-132969850D01*
X269646400Y-142611350D02*
X269638300Y-142743250D01*
X269646400Y-143002150D02*
X269680000Y-143129850D01*
X269678600Y-129549350D02*
X269591700Y-129655150D01*
X269678600Y-130664150D02*
X269784400Y-130751050D01*
X269678600Y-134629350D02*
X269591700Y-134735150D01*
X269678600Y-135744150D02*
X269784400Y-135831050D01*
X269678600Y-137169350D02*
X269591700Y-137275150D01*
X269678600Y-138284150D02*
X269784400Y-138371050D01*
X269678600Y-139709350D02*
X269591700Y-139815150D01*
X269678600Y-140824150D02*
X269784400Y-140911050D01*
X269678600Y-144789350D02*
X269591700Y-144895150D01*
X269678600Y-145904150D02*
X269784400Y-145991050D01*
X269680000Y-132323650D02*
X269646400Y-132451350D01*
X269680000Y-132969850D02*
X269737900Y-133088650D01*
X269680000Y-142483650D02*
X269646400Y-142611350D01*
X269680000Y-143129850D02*
X269737900Y-143248650D01*
X269737900Y-132204850D02*
X269680000Y-132323650D01*
X269737900Y-133088650D02*
X269817900Y-133193850D01*
X269737900Y-142364850D02*
X269680000Y-142483650D01*
X269737900Y-143248650D02*
X269817900Y-143353850D01*
X269784400Y-129462450D02*
X269678600Y-129549350D01*
X269784400Y-130751050D02*
X269905200Y-130815550D01*
X269784400Y-134542450D02*
X269678600Y-134629350D01*
X269784400Y-135831050D02*
X269905200Y-135895550D01*
X269784400Y-137082450D02*
X269678600Y-137169350D01*
X269784400Y-138371050D02*
X269905200Y-138435550D01*
X269784400Y-139622450D02*
X269678600Y-139709350D01*
X269784400Y-140911050D02*
X269905200Y-140975550D01*
X269784400Y-144702450D02*
X269678600Y-144789350D01*
X269784400Y-145991050D02*
X269905200Y-146055550D01*
X269817900Y-132099650D02*
X269737900Y-132204850D01*
X269817900Y-133193850D02*
X269916800Y-133281350D01*
X269817900Y-142259650D02*
X269737900Y-142364850D01*
X269817900Y-143353850D02*
X269916800Y-143441350D01*
X269905200Y-129397950D02*
X269784400Y-129462450D01*
X269905200Y-130815550D02*
X270036200Y-130855350D01*
X269905200Y-134477950D02*
X269784400Y-134542450D01*
X269905200Y-135895550D02*
X270036200Y-135935350D01*
X269905200Y-137017950D02*
X269784400Y-137082450D01*
X269905200Y-138435550D02*
X270036200Y-138475350D01*
X269905200Y-139557950D02*
X269784400Y-139622450D01*
X269905200Y-140975550D02*
X270036200Y-141015350D01*
X269905200Y-144637950D02*
X269784400Y-144702450D01*
X269905200Y-146055550D02*
X270036200Y-146095350D01*
X269916800Y-132012150D02*
X269817900Y-132099650D01*
X269916800Y-133281350D02*
X270031000Y-133347950D01*
X269916800Y-142172150D02*
X269817900Y-142259650D01*
X269916800Y-143441350D02*
X270031000Y-143507950D01*
X270031000Y-131945550D02*
X269916800Y-132012150D01*
X270031000Y-133347950D02*
X270155900Y-133390950D01*
X270031000Y-142105550D02*
X269916800Y-142172150D01*
X270031000Y-143507950D02*
X270155900Y-143550950D01*
X270036200Y-129358150D02*
X269905200Y-129397950D01*
X270036200Y-130855350D02*
X270172500Y-130868750D01*
X270036200Y-134438150D02*
X269905200Y-134477950D01*
X270036200Y-135935350D02*
X270172500Y-135948750D01*
X270036200Y-136978150D02*
X269905200Y-137017950D01*
X270036200Y-138475350D02*
X270172500Y-138488750D01*
X270036200Y-139518150D02*
X269905200Y-139557950D01*
X270036200Y-141015350D02*
X270172500Y-141028750D01*
X270036200Y-144598150D02*
X269905200Y-144637950D01*
X270036200Y-146095350D02*
X270172500Y-146108750D01*
X270155900Y-131902550D02*
X270031000Y-131945550D01*
X270155900Y-133390950D02*
X270286800Y-133408750D01*
X270155900Y-142062550D02*
X270031000Y-142105550D01*
X270155900Y-143550950D02*
X270286800Y-143568750D01*
X270172500Y-129344750D02*
X270036200Y-129358150D01*
X270172500Y-130868750D02*
X271455200Y-130868750D01*
X270172500Y-134424750D02*
X270036200Y-134438150D01*
X270172500Y-135948750D02*
X271455200Y-135948750D01*
X270172500Y-136964750D02*
X270036200Y-136978150D01*
X270172500Y-138488750D02*
X271455200Y-138488750D01*
X270172500Y-139504750D02*
X270036200Y-139518150D01*
X270172500Y-141028750D02*
X271455200Y-141028750D01*
X270172500Y-144584750D02*
X270036200Y-144598150D01*
X270172500Y-146108750D02*
X271455200Y-146108750D01*
X270286800Y-131884750D02*
X270155900Y-131902550D01*
X270286800Y-133408750D02*
X271455200Y-133408750D01*
X270286800Y-142044750D02*
X270155900Y-142062550D01*
X270286800Y-143568750D02*
X271455200Y-143568750D01*
X271455200Y-129344750D02*
X270172500Y-129344750D01*
X271455200Y-130868750D02*
X271506000Y-130868750D01*
X271455200Y-131884750D02*
X270286800Y-131884750D01*
X271455200Y-133408750D02*
X271506000Y-133408750D01*
X271455200Y-134424750D02*
X270172500Y-134424750D01*
X271455200Y-135948750D02*
X271506000Y-135948750D01*
X271455200Y-136964750D02*
X270172500Y-136964750D01*
X271455200Y-138488750D02*
X271506000Y-138488750D01*
X271455200Y-139504750D02*
X270172500Y-139504750D01*
X271455200Y-141028750D02*
X271506000Y-141028750D01*
X271455200Y-142044750D02*
X270286800Y-142044750D01*
X271455200Y-143568750D02*
X271506000Y-143568750D01*
X271455200Y-144584750D02*
X270172500Y-144584750D01*
X271455200Y-146108750D02*
X271506000Y-146108750D01*
X271474300Y-128836750D02*
X271506000Y-128836750D01*
X271474300Y-146616750D02*
X268997700Y-146616750D01*
X271506000Y-128836750D02*
X271506000Y-146616750D01*
X271506000Y-129037750D02*
X271506000Y-129293950D01*
X271506000Y-129293950D02*
X271506000Y-129344750D01*
X271506000Y-129344750D02*
X271455200Y-129344750D01*
X271506000Y-129344750D02*
X271506000Y-129395550D01*
X271506000Y-129395550D02*
X269913000Y-129395550D01*
X271506000Y-129446350D02*
X271506000Y-129395550D01*
X271506000Y-129547950D02*
X271506000Y-129446350D01*
X271506000Y-129598750D02*
X269638000Y-129598750D01*
X271506000Y-129598750D02*
X271506000Y-129547950D01*
X271506000Y-129598750D02*
X271506000Y-145854750D01*
X271506000Y-129649550D02*
X271506000Y-129598750D01*
X271506000Y-129751150D02*
X271506000Y-129649550D01*
X271506000Y-129801950D02*
X269519300Y-129801950D01*
X271506000Y-129801950D02*
X271506000Y-129751150D01*
X271506000Y-129852750D02*
X271506000Y-129801950D01*
X271506000Y-129954350D02*
X271506000Y-129852750D01*
X271506000Y-130005150D02*
X269477800Y-130005150D01*
X271506000Y-130005150D02*
X271506000Y-129954350D01*
X271506000Y-130055950D02*
X271506000Y-130005150D01*
X271506000Y-130157550D02*
X271506000Y-130055950D01*
X271506000Y-130208350D02*
X269477700Y-130208350D01*
X271506000Y-130208350D02*
X271506000Y-130157550D01*
X271506000Y-130259150D02*
X271506000Y-130208350D01*
X271506000Y-130360750D02*
X271506000Y-130259150D01*
X271506000Y-130411550D02*
X269519300Y-130411550D01*
X271506000Y-130411550D02*
X271506000Y-130360750D01*
X271506000Y-130462350D02*
X271506000Y-130411550D01*
X271506000Y-130563950D02*
X271506000Y-130462350D01*
X271506000Y-130614750D02*
X269638000Y-130614750D01*
X271506000Y-130614750D02*
X271506000Y-130563950D01*
X271506000Y-130665550D02*
X271506000Y-130614750D01*
X271506000Y-130767150D02*
X271506000Y-130665550D01*
X271506000Y-130817950D02*
X269913000Y-130817950D01*
X271506000Y-130817950D02*
X271506000Y-130767150D01*
X271506000Y-130817950D02*
X271506000Y-130868750D01*
X271506000Y-130868750D02*
X271506000Y-130919550D01*
X271506000Y-130919550D02*
X271506000Y-131833950D01*
X271506000Y-131833950D02*
X271506000Y-131884750D01*
X271506000Y-131884750D02*
X271455200Y-131884750D01*
X271506000Y-131884750D02*
X271506000Y-131935550D01*
X271506000Y-131986350D02*
X271506000Y-131935550D01*
X271506000Y-132037150D02*
X269888600Y-132037150D01*
X271506000Y-132037150D02*
X271506000Y-131986350D01*
X271506000Y-132087950D02*
X271506000Y-132037150D01*
X271506000Y-132189550D02*
X271506000Y-132087950D01*
X271506000Y-132240350D02*
X269720600Y-132240350D01*
X271506000Y-132240350D02*
X271506000Y-132189550D01*
X271506000Y-132291150D02*
X271506000Y-132240350D01*
X271506000Y-132392750D02*
X271506000Y-132291150D01*
X271506000Y-132443550D02*
X269648400Y-132443550D01*
X271506000Y-132443550D02*
X271506000Y-132392750D01*
X271506000Y-132494350D02*
X271506000Y-132443550D01*
X271506000Y-132595950D02*
X271506000Y-132494350D01*
X271506000Y-132646750D02*
X269638300Y-132646750D01*
X271506000Y-132646750D02*
X271506000Y-132595950D01*
X271506000Y-132697550D02*
X271506000Y-132646750D01*
X271506000Y-132799150D02*
X271506000Y-132697550D01*
X271506000Y-132849950D02*
X269648400Y-132849950D01*
X271506000Y-132849950D02*
X271506000Y-132799150D01*
X271506000Y-132900750D02*
X271506000Y-132849950D01*
X271506000Y-133002350D02*
X271506000Y-132900750D01*
X271506000Y-133053150D02*
X269720600Y-133053150D01*
X271506000Y-133053150D02*
X271506000Y-133002350D01*
X271506000Y-133103950D02*
X271506000Y-133053150D01*
X271506000Y-133205550D02*
X271506000Y-133103950D01*
X271506000Y-133256350D02*
X269888600Y-133256350D01*
X271506000Y-133256350D02*
X271506000Y-133205550D01*
X271506000Y-133307150D02*
X271506000Y-133256350D01*
X271506000Y-133357950D02*
X271506000Y-133307150D01*
X271506000Y-133357950D02*
X271506000Y-133408750D01*
X271506000Y-133408750D02*
X271506000Y-133459550D01*
X271506000Y-133459550D02*
X271506000Y-134373950D01*
X271506000Y-134373950D02*
X271506000Y-134424750D01*
X271506000Y-134424750D02*
X271455200Y-134424750D01*
X271506000Y-134424750D02*
X271506000Y-134475550D01*
X271506000Y-134475550D02*
X269913000Y-134475550D01*
X271506000Y-134526350D02*
X271506000Y-134475550D01*
X271506000Y-134627950D02*
X271506000Y-134526350D01*
X271506000Y-134678750D02*
X269638000Y-134678750D01*
X271506000Y-134678750D02*
X271506000Y-134627950D01*
X271506000Y-134729550D02*
X271506000Y-134678750D01*
X271506000Y-134831150D02*
X271506000Y-134729550D01*
X271506000Y-134881950D02*
X269519300Y-134881950D01*
X271506000Y-134881950D02*
X271506000Y-134831150D01*
X271506000Y-134932750D02*
X271506000Y-134881950D01*
X271506000Y-135034350D02*
X271506000Y-134932750D01*
X271506000Y-135085150D02*
X269477800Y-135085150D01*
X271506000Y-135085150D02*
X271506000Y-135034350D01*
X271506000Y-135135950D02*
X271506000Y-135085150D01*
X271506000Y-135237550D02*
X271506000Y-135135950D01*
X271506000Y-135288350D02*
X269477700Y-135288350D01*
X271506000Y-135288350D02*
X271506000Y-135237550D01*
X271506000Y-135339150D02*
X271506000Y-135288350D01*
X271506000Y-135440750D02*
X271506000Y-135339150D01*
X271506000Y-135491550D02*
X269519300Y-135491550D01*
X271506000Y-135491550D02*
X271506000Y-135440750D01*
X271506000Y-135542350D02*
X271506000Y-135491550D01*
X271506000Y-135643950D02*
X271506000Y-135542350D01*
X271506000Y-135694750D02*
X269638000Y-135694750D01*
X271506000Y-135694750D02*
X271506000Y-135643950D01*
X271506000Y-135745550D02*
X271506000Y-135694750D01*
X271506000Y-135847150D02*
X271506000Y-135745550D01*
X271506000Y-135897950D02*
X269913000Y-135897950D01*
X271506000Y-135897950D02*
X271506000Y-135847150D01*
X271506000Y-135897950D02*
X271506000Y-135948750D01*
X271506000Y-135948750D02*
X271506000Y-135999550D01*
X271506000Y-135999550D02*
X271506000Y-136913950D01*
X271506000Y-136913950D02*
X271506000Y-136964750D01*
X271506000Y-136964750D02*
X271455200Y-136964750D01*
X271506000Y-136964750D02*
X271506000Y-137015550D01*
X271506000Y-137066350D02*
X271506000Y-137015550D01*
X271506000Y-137117150D02*
X269742200Y-137117150D01*
X271506000Y-137117150D02*
X271506000Y-137066350D01*
X271506000Y-137167950D02*
X271506000Y-137117150D01*
X271506000Y-137269550D02*
X271506000Y-137167950D01*
X271506000Y-137320350D02*
X269567600Y-137320350D01*
X271506000Y-137320350D02*
X271506000Y-137269550D01*
X271506000Y-137371150D02*
X271506000Y-137320350D01*
X271506000Y-137472750D02*
X271506000Y-137371150D01*
X271506000Y-137523550D02*
X269488500Y-137523550D01*
X271506000Y-137523550D02*
X271506000Y-137472750D01*
X271506000Y-137574350D02*
X271506000Y-137523550D01*
X271506000Y-137675950D02*
X271506000Y-137574350D01*
X271506000Y-137726750D02*
X269474000Y-137726750D01*
X271506000Y-137726750D02*
X271506000Y-137675950D01*
X271506000Y-137777550D02*
X271506000Y-137726750D01*
X271506000Y-137879150D02*
X271506000Y-137777550D01*
X271506000Y-137929950D02*
X269488500Y-137929950D01*
X271506000Y-137929950D02*
X271506000Y-137879150D01*
X271506000Y-137980750D02*
X271506000Y-137929950D01*
X271506000Y-138082350D02*
X271506000Y-137980750D01*
X271506000Y-138133150D02*
X269567600Y-138133150D01*
X271506000Y-138133150D02*
X271506000Y-138082350D01*
X271506000Y-138183950D02*
X271506000Y-138133150D01*
X271506000Y-138285550D02*
X271506000Y-138183950D01*
X271506000Y-138336350D02*
X269742200Y-138336350D01*
X271506000Y-138336350D02*
X271506000Y-138285550D01*
X271506000Y-138387150D02*
X271506000Y-138336350D01*
X271506000Y-138437950D02*
X271506000Y-138387150D01*
X271506000Y-138437950D02*
X271506000Y-138488750D01*
X271506000Y-138488750D02*
X271506000Y-138539550D01*
X271506000Y-138539550D02*
X271506000Y-139453950D01*
X271506000Y-139453950D02*
X271506000Y-139504750D01*
X271506000Y-139504750D02*
X271455200Y-139504750D01*
X271506000Y-139504750D02*
X271506000Y-139555550D01*
X271506000Y-139555550D02*
X269913000Y-139555550D01*
X271506000Y-139606350D02*
X271506000Y-139555550D01*
X271506000Y-139707950D02*
X271506000Y-139606350D01*
X271506000Y-139758750D02*
X269638000Y-139758750D01*
X271506000Y-139758750D02*
X271506000Y-139707950D01*
X271506000Y-139809550D02*
X271506000Y-139758750D01*
X271506000Y-139911150D02*
X271506000Y-139809550D01*
X271506000Y-139961950D02*
X269519300Y-139961950D01*
X271506000Y-139961950D02*
X271506000Y-139911150D01*
X271506000Y-140012750D02*
X271506000Y-139961950D01*
X271506000Y-140114350D02*
X271506000Y-140012750D01*
X271506000Y-140165150D02*
X269477800Y-140165150D01*
X271506000Y-140165150D02*
X271506000Y-140114350D01*
X271506000Y-140215950D02*
X271506000Y-140165150D01*
X271506000Y-140317550D02*
X271506000Y-140215950D01*
X271506000Y-140368350D02*
X269477700Y-140368350D01*
X271506000Y-140368350D02*
X271506000Y-140317550D01*
X271506000Y-140419150D02*
X271506000Y-140368350D01*
X271506000Y-140520750D02*
X271506000Y-140419150D01*
X271506000Y-140571550D02*
X269519300Y-140571550D01*
X271506000Y-140571550D02*
X271506000Y-140520750D01*
X271506000Y-140622350D02*
X271506000Y-140571550D01*
X271506000Y-140723950D02*
X271506000Y-140622350D01*
X271506000Y-140774750D02*
X269638000Y-140774750D01*
X271506000Y-140774750D02*
X271506000Y-140723950D01*
X271506000Y-140825550D02*
X271506000Y-140774750D01*
X271506000Y-140927150D02*
X271506000Y-140825550D01*
X271506000Y-140977950D02*
X269913000Y-140977950D01*
X271506000Y-140977950D02*
X271506000Y-140927150D01*
X271506000Y-140977950D02*
X271506000Y-141028750D01*
X271506000Y-141028750D02*
X271506000Y-141079550D01*
X271506000Y-141079550D02*
X271506000Y-141993950D01*
X271506000Y-141993950D02*
X271506000Y-142044750D01*
X271506000Y-142044750D02*
X271455200Y-142044750D01*
X271506000Y-142044750D02*
X271506000Y-142095550D01*
X271506000Y-142146350D02*
X271506000Y-142095550D01*
X271506000Y-142197150D02*
X269888600Y-142197150D01*
X271506000Y-142197150D02*
X271506000Y-142146350D01*
X271506000Y-142247950D02*
X271506000Y-142197150D01*
X271506000Y-142349550D02*
X271506000Y-142247950D01*
X271506000Y-142400350D02*
X269720600Y-142400350D01*
X271506000Y-142400350D02*
X271506000Y-142349550D01*
X271506000Y-142451150D02*
X271506000Y-142400350D01*
X271506000Y-142552750D02*
X271506000Y-142451150D01*
X271506000Y-142603550D02*
X269648400Y-142603550D01*
X271506000Y-142603550D02*
X271506000Y-142552750D01*
X271506000Y-142654350D02*
X271506000Y-142603550D01*
X271506000Y-142755950D02*
X271506000Y-142654350D01*
X271506000Y-142806750D02*
X269638300Y-142806750D01*
X271506000Y-142806750D02*
X271506000Y-142755950D01*
X271506000Y-142857550D02*
X271506000Y-142806750D01*
X271506000Y-142959150D02*
X271506000Y-142857550D01*
X271506000Y-143009950D02*
X269648400Y-143009950D01*
X271506000Y-143009950D02*
X271506000Y-142959150D01*
X271506000Y-143060750D02*
X271506000Y-143009950D01*
X271506000Y-143162350D02*
X271506000Y-143060750D01*
X271506000Y-143213150D02*
X269720600Y-143213150D01*
X271506000Y-143213150D02*
X271506000Y-143162350D01*
X271506000Y-143263950D02*
X271506000Y-143213150D01*
X271506000Y-143365550D02*
X271506000Y-143263950D01*
X271506000Y-143416350D02*
X269888600Y-143416350D01*
X271506000Y-143416350D02*
X271506000Y-143365550D01*
X271506000Y-143467150D02*
X271506000Y-143416350D01*
X271506000Y-143517950D02*
X271506000Y-143467150D01*
X271506000Y-143517950D02*
X271506000Y-143568750D01*
X271506000Y-143568750D02*
X271506000Y-143619550D01*
X271506000Y-143619550D02*
X271506000Y-144533950D01*
X271506000Y-144533950D02*
X271506000Y-144584750D01*
X271506000Y-144584750D02*
X271455200Y-144584750D01*
X271506000Y-144584750D02*
X271506000Y-144635550D01*
X271506000Y-144635550D02*
X269913000Y-144635550D01*
X271506000Y-144686350D02*
X271506000Y-144635550D01*
X271506000Y-144787950D02*
X271506000Y-144686350D01*
X271506000Y-144838750D02*
X269638000Y-144838750D01*
X271506000Y-144838750D02*
X271506000Y-144787950D01*
X271506000Y-144889550D02*
X271506000Y-144838750D01*
X271506000Y-144991150D02*
X271506000Y-144889550D01*
X271506000Y-145041950D02*
X269519300Y-145041950D01*
X271506000Y-145041950D02*
X271506000Y-144991150D01*
X271506000Y-145092750D02*
X271506000Y-145041950D01*
X271506000Y-145194350D02*
X271506000Y-145092750D01*
X271506000Y-145245150D02*
X269477800Y-145245150D01*
X271506000Y-145245150D02*
X271506000Y-145194350D01*
X271506000Y-145295950D02*
X271506000Y-145245150D01*
X271506000Y-145397550D02*
X271506000Y-145295950D01*
X271506000Y-145448350D02*
X269477700Y-145448350D01*
X271506000Y-145448350D02*
X271506000Y-145397550D01*
X271506000Y-145499150D02*
X271506000Y-145448350D01*
X271506000Y-145600750D02*
X271506000Y-145499150D01*
X271506000Y-145651550D02*
X269519300Y-145651550D01*
X271506000Y-145651550D02*
X271506000Y-145600750D01*
X271506000Y-145702350D02*
X271506000Y-145651550D01*
X271506000Y-145803950D02*
X271506000Y-145702350D01*
X271506000Y-145854750D02*
X269638000Y-145854750D01*
X271506000Y-145854750D02*
X271506000Y-145803950D01*
X271506000Y-145905550D02*
X271506000Y-145854750D01*
X271506000Y-146007150D02*
X271506000Y-145905550D01*
X271506000Y-146057950D02*
X269913000Y-146057950D01*
X271506000Y-146057950D02*
X271506000Y-146007150D01*
X271506000Y-146057950D02*
X271506000Y-146108750D01*
X271506000Y-146108750D02*
X271506000Y-146159550D01*
X271506000Y-146159550D02*
X271506000Y-146362750D01*
X271506000Y-146616750D02*
X271474300Y-146616750D01*
X253675200Y-129344750D02*
G75*
G02*
X253726000Y-129293950I50800J0D01*
G01*
X253675200Y-129344750D02*
G75*
G02*
X253776800Y-129344750I50800J0D01*
G01*
X253675200Y-130868750D02*
G75*
G02*
X253726000Y-130817950I50800J0D01*
G01*
X253675200Y-131884750D02*
G75*
G02*
X253726000Y-131833950I50800J0D01*
G01*
X253675200Y-131884750D02*
G75*
G02*
X253776800Y-131884750I50800J0D01*
G01*
X253675200Y-133408750D02*
G75*
G02*
X253726000Y-133357950I50800J0D01*
G01*
X253675200Y-134424750D02*
G75*
G02*
X253726000Y-134373950I50800J0D01*
G01*
X253675200Y-134424750D02*
G75*
G02*
X253776800Y-134424750I50800J0D01*
G01*
X253675200Y-135948750D02*
G75*
G02*
X253726000Y-135897950I50800J0D01*
G01*
X253675200Y-136964750D02*
G75*
G02*
X253726000Y-136913950I50800J0D01*
G01*
X253675200Y-136964750D02*
G75*
G02*
X253776800Y-136964750I50800J0D01*
G01*
X253675200Y-138488750D02*
G75*
G02*
X253726000Y-138437950I50800J0D01*
G01*
X253675200Y-139504750D02*
G75*
G02*
X253726000Y-139453950I50800J0D01*
G01*
X253675200Y-139504750D02*
G75*
G02*
X253776800Y-139504750I50800J0D01*
G01*
X253675200Y-141028750D02*
G75*
G02*
X253726000Y-140977950I50800J0D01*
G01*
X253675200Y-142044750D02*
G75*
G02*
X253726000Y-141993950I50800J0D01*
G01*
X253675200Y-142044750D02*
G75*
G02*
X253776800Y-142044750I50800J0D01*
G01*
X253675200Y-143568750D02*
G75*
G02*
X253726000Y-143517950I50800J0D01*
G01*
X253675200Y-144584750D02*
G75*
G02*
X253726000Y-144533950I50800J0D01*
G01*
X253675200Y-144584750D02*
G75*
G02*
X253776800Y-144584750I50800J0D01*
G01*
X253675200Y-146108750D02*
G75*
G02*
X253726000Y-146057950I50800J0D01*
G01*
X253694300Y-128836750D02*
G75*
G02*
X253757700Y-128836750I31700J0D01*
G01*
X253723500Y-129037750D02*
G75*
G02*
X253728500Y-129037750I2500J0D01*
G01*
X253723500Y-146362750D02*
G75*
G02*
X253728500Y-146362750I2500J0D01*
G01*
X253726000Y-128868550D02*
G75*
G02*
X253726000Y-128804950I0J31800D01*
G01*
X253726000Y-129037750D02*
G75*
G02*
X255631000Y-127132750I1905000J0D01*
G01*
X253726000Y-129037750D02*
G75*
G02*
X255631000Y-127132750I1905000J0D01*
G01*
X253726000Y-129395550D02*
G75*
G02*
X253675200Y-129344750I0J50800D01*
G01*
X253726000Y-129446350D02*
G75*
G02*
X253726000Y-129344750I0J50800D01*
G01*
X253726000Y-129649550D02*
G75*
G02*
X253726000Y-129547950I0J50800D01*
G01*
X253726000Y-129852750D02*
G75*
G02*
X253726000Y-129751150I0J50800D01*
G01*
X253726000Y-130055950D02*
G75*
G02*
X253726000Y-129954350I0J50800D01*
G01*
X253726000Y-130259150D02*
G75*
G02*
X253726000Y-130157550I0J50800D01*
G01*
X253726000Y-130462350D02*
G75*
G02*
X253726000Y-130360750I0J50800D01*
G01*
X253726000Y-130665550D02*
G75*
G02*
X253726000Y-130563950I0J50800D01*
G01*
X253726000Y-130868750D02*
G75*
G02*
X253726000Y-130767150I0J50800D01*
G01*
X253726000Y-130919550D02*
G75*
G02*
X253675200Y-130868750I0J50800D01*
G01*
X253726000Y-131935550D02*
G75*
G02*
X253675200Y-131884750I0J50800D01*
G01*
X253726000Y-132087950D02*
G75*
G02*
X253726000Y-131986350I0J50800D01*
G01*
X253726000Y-132291150D02*
G75*
G02*
X253726000Y-132189550I0J50800D01*
G01*
X253726000Y-132494350D02*
G75*
G02*
X253726000Y-132392750I0J50800D01*
G01*
X253726000Y-132697550D02*
G75*
G02*
X253726000Y-132595950I0J50800D01*
G01*
X253726000Y-132900750D02*
G75*
G02*
X253726000Y-132799150I0J50800D01*
G01*
X253726000Y-133103950D02*
G75*
G02*
X253726000Y-133002350I0J50800D01*
G01*
X253726000Y-133307150D02*
G75*
G02*
X253726000Y-133205550I0J50800D01*
G01*
X253726000Y-133459550D02*
G75*
G02*
X253675200Y-133408750I0J50800D01*
G01*
X253726000Y-134475550D02*
G75*
G02*
X253675200Y-134424750I0J50800D01*
G01*
X253726000Y-134526350D02*
G75*
G02*
X253726000Y-134424750I0J50800D01*
G01*
X253726000Y-134729550D02*
G75*
G02*
X253726000Y-134627950I0J50800D01*
G01*
X253726000Y-134932750D02*
G75*
G02*
X253726000Y-134831150I0J50800D01*
G01*
X253726000Y-135135950D02*
G75*
G02*
X253726000Y-135034350I0J50800D01*
G01*
X253726000Y-135339150D02*
G75*
G02*
X253726000Y-135237550I0J50800D01*
G01*
X253726000Y-135542350D02*
G75*
G02*
X253726000Y-135440750I0J50800D01*
G01*
X253726000Y-135745550D02*
G75*
G02*
X253726000Y-135643950I0J50800D01*
G01*
X253726000Y-135948750D02*
G75*
G02*
X253726000Y-135847150I0J50800D01*
G01*
X253726000Y-135999550D02*
G75*
G02*
X253675200Y-135948750I0J50800D01*
G01*
X253726000Y-137015550D02*
G75*
G02*
X253675200Y-136964750I0J50800D01*
G01*
X253726000Y-137167950D02*
G75*
G02*
X253726000Y-137066350I0J50800D01*
G01*
X253726000Y-137371150D02*
G75*
G02*
X253726000Y-137269550I0J50800D01*
G01*
X253726000Y-137574350D02*
G75*
G02*
X253726000Y-137472750I0J50800D01*
G01*
X253726000Y-137777550D02*
G75*
G02*
X253726000Y-137675950I0J50800D01*
G01*
X253726000Y-137980750D02*
G75*
G02*
X253726000Y-137879150I0J50800D01*
G01*
X253726000Y-138183950D02*
G75*
G02*
X253726000Y-138082350I0J50800D01*
G01*
X253726000Y-138387150D02*
G75*
G02*
X253726000Y-138285550I0J50800D01*
G01*
X253726000Y-138539550D02*
G75*
G02*
X253675200Y-138488750I0J50800D01*
G01*
X253726000Y-139555550D02*
G75*
G02*
X253675200Y-139504750I0J50800D01*
G01*
X253726000Y-139606350D02*
G75*
G02*
X253726000Y-139504750I0J50800D01*
G01*
X253726000Y-139809550D02*
G75*
G02*
X253726000Y-139707950I0J50800D01*
G01*
X253726000Y-140012750D02*
G75*
G02*
X253726000Y-139911150I0J50800D01*
G01*
X253726000Y-140215950D02*
G75*
G02*
X253726000Y-140114350I0J50800D01*
G01*
X253726000Y-140419150D02*
G75*
G02*
X253726000Y-140317550I0J50800D01*
G01*
X253726000Y-140622350D02*
G75*
G02*
X253726000Y-140520750I0J50800D01*
G01*
X253726000Y-140825550D02*
G75*
G02*
X253726000Y-140723950I0J50800D01*
G01*
X253726000Y-141028750D02*
G75*
G02*
X253726000Y-140927150I0J50800D01*
G01*
X253726000Y-141079550D02*
G75*
G02*
X253675200Y-141028750I0J50800D01*
G01*
X253726000Y-142095550D02*
G75*
G02*
X253675200Y-142044750I0J50800D01*
G01*
X253726000Y-142247950D02*
G75*
G02*
X253726000Y-142146350I0J50800D01*
G01*
X253726000Y-142451150D02*
G75*
G02*
X253726000Y-142349550I0J50800D01*
G01*
X253726000Y-142654350D02*
G75*
G02*
X253726000Y-142552750I0J50800D01*
G01*
X253726000Y-142857550D02*
G75*
G02*
X253726000Y-142755950I0J50800D01*
G01*
X253726000Y-143060750D02*
G75*
G02*
X253726000Y-142959150I0J50800D01*
G01*
X253726000Y-143263950D02*
G75*
G02*
X253726000Y-143162350I0J50800D01*
G01*
X253726000Y-143467150D02*
G75*
G02*
X253726000Y-143365550I0J50800D01*
G01*
X253726000Y-143619550D02*
G75*
G02*
X253675200Y-143568750I0J50800D01*
G01*
X253726000Y-144635550D02*
G75*
G02*
X253675200Y-144584750I0J50800D01*
G01*
X253726000Y-144686350D02*
G75*
G02*
X253726000Y-144584750I0J50800D01*
G01*
X253726000Y-144889550D02*
G75*
G02*
X253726000Y-144787950I0J50800D01*
G01*
X253726000Y-145092750D02*
G75*
G02*
X253726000Y-144991150I0J50800D01*
G01*
X253726000Y-145295950D02*
G75*
G02*
X253726000Y-145194350I0J50800D01*
G01*
X253726000Y-145499150D02*
G75*
G02*
X253726000Y-145397550I0J50800D01*
G01*
X253726000Y-145702350D02*
G75*
G02*
X253726000Y-145600750I0J50800D01*
G01*
X253726000Y-145905550D02*
G75*
G02*
X253726000Y-145803950I0J50800D01*
G01*
X253726000Y-146108750D02*
G75*
G02*
X253726000Y-146007150I0J50800D01*
G01*
X253726000Y-146159550D02*
G75*
G02*
X253675200Y-146108750I0J50800D01*
G01*
X253726000Y-146648550D02*
G75*
G02*
X253726000Y-146584950I0J31800D01*
G01*
X253728500Y-129037750D02*
G75*
G02*
X253723500Y-129037750I-2500J0D01*
G01*
X253728500Y-146362750D02*
G75*
G02*
X253723500Y-146362750I-2500J0D01*
G01*
X253757700Y-146616750D02*
G75*
G02*
X253694300Y-146616750I-31700J0D01*
G01*
X253776800Y-130868750D02*
G75*
G02*
X253675200Y-130868750I-50800J0D01*
G01*
X253776800Y-133408750D02*
G75*
G02*
X253675200Y-133408750I-50800J0D01*
G01*
X253776800Y-135948750D02*
G75*
G02*
X253675200Y-135948750I-50800J0D01*
G01*
X253776800Y-138488750D02*
G75*
G02*
X253675200Y-138488750I-50800J0D01*
G01*
X253776800Y-141028750D02*
G75*
G02*
X253675200Y-141028750I-50800J0D01*
G01*
X253776800Y-143568750D02*
G75*
G02*
X253675200Y-143568750I-50800J0D01*
G01*
X253776800Y-146108750D02*
G75*
G02*
X253675200Y-146108750I-50800J0D01*
G01*
X254938300Y-131935050D02*
G75*
G02*
X254952100Y-131834450I6900J50300D01*
G01*
X254938300Y-142095050D02*
G75*
G02*
X254952100Y-141994450I6900J50300D01*
G01*
X254945200Y-131833950D02*
G75*
G02*
X254945200Y-131935550I0J-50800D01*
G01*
X254945200Y-133357950D02*
G75*
G02*
X254945200Y-133459550I0J-50800D01*
G01*
X254945200Y-141993950D02*
G75*
G02*
X254945200Y-142095550I0J-50800D01*
G01*
X254945200Y-143517950D02*
G75*
G02*
X254945200Y-143619550I0J-50800D01*
G01*
X254952100Y-133459050D02*
G75*
G02*
X254938300Y-133358450I-6900J50300D01*
G01*
X254952100Y-143619050D02*
G75*
G02*
X254938300Y-143518450I-6900J50300D01*
G01*
X255054500Y-129395350D02*
G75*
G02*
X255064500Y-129294150I5000J50600D01*
G01*
X255054500Y-134475350D02*
G75*
G02*
X255064500Y-134374150I5000J50600D01*
G01*
X255054500Y-137015350D02*
G75*
G02*
X255064500Y-136914150I5000J50600D01*
G01*
X255054500Y-139555350D02*
G75*
G02*
X255064500Y-139454150I5000J50600D01*
G01*
X255054500Y-144635350D02*
G75*
G02*
X255064500Y-144534150I5000J50600D01*
G01*
X255059500Y-129293950D02*
G75*
G02*
X255059500Y-129395550I0J-50800D01*
G01*
X255059500Y-130817950D02*
G75*
G02*
X255059500Y-130919550I0J-50800D01*
G01*
X255059500Y-134373950D02*
G75*
G02*
X255059500Y-134475550I0J-50800D01*
G01*
X255059500Y-135897950D02*
G75*
G02*
X255059500Y-135999550I0J-50800D01*
G01*
X255059500Y-136913950D02*
G75*
G02*
X255059500Y-137015550I0J-50800D01*
G01*
X255059500Y-138437950D02*
G75*
G02*
X255059500Y-138539550I0J-50800D01*
G01*
X255059500Y-139453950D02*
G75*
G02*
X255059500Y-139555550I0J-50800D01*
G01*
X255059500Y-140977950D02*
G75*
G02*
X255059500Y-141079550I0J-50800D01*
G01*
X255059500Y-144533950D02*
G75*
G02*
X255059500Y-144635550I0J-50800D01*
G01*
X255059500Y-146057950D02*
G75*
G02*
X255059500Y-146159550I0J-50800D01*
G01*
X255059600Y-131950650D02*
G75*
G02*
X255092680Y-131854609I16600J48000D01*
G01*
X255059600Y-142110650D02*
G75*
G02*
X255092720Y-142014491I16500J48100D01*
G01*
X255064500Y-130919350D02*
G75*
G02*
X255054500Y-130818150I-5000J50600D01*
G01*
X255064500Y-135999350D02*
G75*
G02*
X255054500Y-135898150I-5000J50600D01*
G01*
X255064500Y-138539350D02*
G75*
G02*
X255054500Y-138438150I-5000J50600D01*
G01*
X255064500Y-141079350D02*
G75*
G02*
X255054500Y-140978150I-5000J50600D01*
G01*
X255064500Y-146159350D02*
G75*
G02*
X255054500Y-146058150I-5000J50600D01*
G01*
X255069300Y-133340550D02*
G75*
G02*
X255083012Y-133441335I6800J-50400D01*
G01*
X255069300Y-143500550D02*
G75*
G02*
X255083012Y-143601335I6800J-50400D01*
G01*
X255083000Y-131852250D02*
G75*
G02*
X255069311Y-131952865I-6900J-50300D01*
G01*
X255083000Y-142012250D02*
G75*
G02*
X255069311Y-142112865I-6900J-50300D01*
G01*
X255092700Y-133438950D02*
G75*
G02*
X255059620Y-133342909I-16600J48000D01*
G01*
X255092700Y-143598950D02*
G75*
G02*
X255059620Y-143502909I-16600J48000D01*
G01*
X255175400Y-131989450D02*
G75*
G02*
X255226607Y-131901737I25700J43800D01*
G01*
X255175400Y-142149450D02*
G75*
G02*
X255226593Y-142061762I25500J43900D01*
G01*
X255181000Y-129406750D02*
G75*
G02*
X255210492Y-129309578I14700J48600D01*
G01*
X255181000Y-134486750D02*
G75*
G02*
X255210492Y-134389578I14700J48600D01*
G01*
X255181000Y-137026750D02*
G75*
G02*
X255210492Y-136929578I14700J48600D01*
G01*
X255181000Y-139566750D02*
G75*
G02*
X255210492Y-139469578I14700J48600D01*
G01*
X255181000Y-144646750D02*
G75*
G02*
X255210492Y-144549578I14700J48600D01*
G01*
X255184500Y-133299850D02*
G75*
G02*
X255217620Y-133396009I16500J-48100D01*
G01*
X255184500Y-143459850D02*
G75*
G02*
X255217620Y-143556009I16500J-48100D01*
G01*
X255190800Y-130804750D02*
G75*
G02*
X255200810Y-130905949I5000J-50600D01*
G01*
X255190800Y-135884750D02*
G75*
G02*
X255200810Y-135985949I5000J-50600D01*
G01*
X255190800Y-138424750D02*
G75*
G02*
X255200810Y-138525949I5000J-50600D01*
G01*
X255190800Y-140964750D02*
G75*
G02*
X255200810Y-141065949I5000J-50600D01*
G01*
X255190800Y-146044750D02*
G75*
G02*
X255200810Y-146145949I5000J-50600D01*
G01*
X255200800Y-129307650D02*
G75*
G02*
X255190808Y-129408671I-5100J-50500D01*
G01*
X255200800Y-134387650D02*
G75*
G02*
X255190808Y-134488671I-5100J-50500D01*
G01*
X255200800Y-136927650D02*
G75*
G02*
X255190808Y-137028671I-5100J-50500D01*
G01*
X255200800Y-139467650D02*
G75*
G02*
X255190808Y-139568671I-5100J-50500D01*
G01*
X255200800Y-144547650D02*
G75*
G02*
X255190808Y-144648671I-5100J-50500D01*
G01*
X255210500Y-130903950D02*
G75*
G02*
X255180992Y-130806722I-14800J48600D01*
G01*
X255210500Y-135983950D02*
G75*
G02*
X255180992Y-135886722I-14800J48600D01*
G01*
X255210500Y-138523950D02*
G75*
G02*
X255180992Y-138426722I-14800J48600D01*
G01*
X255210500Y-141063950D02*
G75*
G02*
X255180992Y-140966722I-14800J48600D01*
G01*
X255210500Y-146143950D02*
G75*
G02*
X255180992Y-146046722I-14800J48600D01*
G01*
X255217600Y-131897550D02*
G75*
G02*
X255184520Y-131993591I-16600J-48000D01*
G01*
X255217600Y-142057550D02*
G75*
G02*
X255184520Y-142153591I-16600J-48000D01*
G01*
X255226600Y-133391750D02*
G75*
G02*
X255175356Y-133303975I-25600J43900D01*
G01*
X255226600Y-143551750D02*
G75*
G02*
X255175356Y-143463975I-25600J43900D01*
G01*
X255281500Y-132050150D02*
G75*
G02*
X255348806Y-131974044I33600J38100D01*
G01*
X255281500Y-142210150D02*
G75*
G02*
X255348806Y-142134044I33600J38100D01*
G01*
X255289600Y-133237450D02*
G75*
G02*
X255340800Y-133325250I25600J-43900D01*
G01*
X255289600Y-143397450D02*
G75*
G02*
X255340800Y-143485250I25600J-43900D01*
G01*
X255302900Y-129442750D02*
G75*
G02*
X255350778Y-129353192I23900J44800D01*
G01*
X255302900Y-134522750D02*
G75*
G02*
X255350778Y-134433192I23900J44800D01*
G01*
X255302900Y-137062750D02*
G75*
G02*
X255350778Y-136973192I23900J44800D01*
G01*
X255302900Y-139602750D02*
G75*
G02*
X255350778Y-139513192I23900J44800D01*
G01*
X255302900Y-144682750D02*
G75*
G02*
X255350778Y-144593192I23900J44800D01*
G01*
X255312100Y-130766950D02*
G75*
G02*
X255341500Y-130864150I14700J-48600D01*
G01*
X255312100Y-135846950D02*
G75*
G02*
X255341500Y-135944150I14700J-48600D01*
G01*
X255312100Y-138386950D02*
G75*
G02*
X255341500Y-138484150I14700J-48600D01*
G01*
X255312100Y-140926950D02*
G75*
G02*
X255341500Y-141024150I14700J-48600D01*
G01*
X255312100Y-146006950D02*
G75*
G02*
X255341500Y-146104150I14700J-48600D01*
G01*
X255319000Y-129344750D02*
G75*
G02*
X255319000Y-129446350I0J-50800D01*
G01*
X255319000Y-130767150D02*
G75*
G02*
X255319000Y-130868750I0J-50800D01*
G01*
X255319000Y-134424750D02*
G75*
G02*
X255319000Y-134526350I0J-50800D01*
G01*
X255319000Y-135847150D02*
G75*
G02*
X255319000Y-135948750I0J-50800D01*
G01*
X255319000Y-139504750D02*
G75*
G02*
X255319000Y-139606350I0J-50800D01*
G01*
X255319000Y-140927150D02*
G75*
G02*
X255319000Y-141028750I0J-50800D01*
G01*
X255319000Y-144584750D02*
G75*
G02*
X255319000Y-144686350I0J-50800D01*
G01*
X255319000Y-146007150D02*
G75*
G02*
X255319000Y-146108750I0J-50800D01*
G01*
X255340800Y-131968250D02*
G75*
G02*
X255289600Y-132056050I-25600J-43900D01*
G01*
X255340800Y-142128250D02*
G75*
G02*
X255289600Y-142216050I-25600J-43900D01*
G01*
X255341500Y-129349350D02*
G75*
G02*
X255312100Y-129446550I-14700J-48600D01*
G01*
X255341500Y-134429350D02*
G75*
G02*
X255312100Y-134526550I-14700J-48600D01*
G01*
X255341500Y-136969350D02*
G75*
G02*
X255312100Y-137066550I-14700J-48600D01*
G01*
X255341500Y-139509350D02*
G75*
G02*
X255312100Y-139606550I-14700J-48600D01*
G01*
X255341500Y-144589350D02*
G75*
G02*
X255312100Y-144686550I-14700J-48600D01*
G01*
X255343400Y-131986350D02*
G75*
G02*
X255343400Y-132087950I0J-50800D01*
G01*
X255343400Y-133205550D02*
G75*
G02*
X255343400Y-133307150I0J-50800D01*
G01*
X255343400Y-142146350D02*
G75*
G02*
X255343400Y-142247950I0J-50800D01*
G01*
X255343400Y-143365550D02*
G75*
G02*
X255343400Y-143467150I0J-50800D01*
G01*
X255348800Y-133319450D02*
G75*
G02*
X255281494Y-133243344I-33600J38100D01*
G01*
X255348800Y-143479450D02*
G75*
G02*
X255281494Y-143403344I-33600J38100D01*
G01*
X255350800Y-130860350D02*
G75*
G02*
X255302878Y-130770708I-24000J44800D01*
G01*
X255350800Y-135940350D02*
G75*
G02*
X255302878Y-135850708I-24000J44800D01*
G01*
X255350800Y-138480350D02*
G75*
G02*
X255302878Y-138390708I-24000J44800D01*
G01*
X255350800Y-141020350D02*
G75*
G02*
X255302878Y-140930708I-24000J44800D01*
G01*
X255350800Y-146100350D02*
G75*
G02*
X255302878Y-146010708I-24000J44800D01*
G01*
X255373700Y-132130450D02*
G75*
G02*
X255454585Y-132068962I40400J30800D01*
G01*
X255373700Y-142290450D02*
G75*
G02*
X255454585Y-142228962I40400J30800D01*
G01*
X255380500Y-133155750D02*
G75*
G02*
X255447794Y-133231844I33700J-38000D01*
G01*
X255380500Y-143315750D02*
G75*
G02*
X255447794Y-143391844I33700J-38000D01*
G01*
X255415300Y-129501750D02*
G75*
G02*
X255479840Y-129423101I32300J39300D01*
G01*
X255415300Y-134581750D02*
G75*
G02*
X255479840Y-134503101I32300J39300D01*
G01*
X255415300Y-137121750D02*
G75*
G02*
X255479840Y-137043101I32300J39300D01*
G01*
X255415300Y-139661750D02*
G75*
G02*
X255479840Y-139583101I32300J39300D01*
G01*
X255415300Y-144741750D02*
G75*
G02*
X255479840Y-144663101I32300J39300D01*
G01*
X255423600Y-130706250D02*
G75*
G02*
X255471478Y-130795808I23900J-44800D01*
G01*
X255423600Y-135786250D02*
G75*
G02*
X255471478Y-135875808I23900J-44800D01*
G01*
X255423600Y-138326250D02*
G75*
G02*
X255471478Y-138415808I23900J-44800D01*
G01*
X255423600Y-140866250D02*
G75*
G02*
X255471478Y-140955808I23900J-44800D01*
G01*
X255423600Y-145946250D02*
G75*
G02*
X255471478Y-146035808I23900J-44800D01*
G01*
X255447800Y-132061650D02*
G75*
G02*
X255380506Y-132137744I-33700J-38000D01*
G01*
X255447800Y-142221650D02*
G75*
G02*
X255380506Y-142297744I-33700J-38000D01*
G01*
X255448400Y-132227150D02*
G75*
G02*
X255539781Y-132182511I45700J22300D01*
G01*
X255448400Y-142387150D02*
G75*
G02*
X255539781Y-142342511I45700J22300D01*
G01*
X255453600Y-133057850D02*
G75*
G02*
X255534485Y-133119338I40400J-30800D01*
G01*
X255453600Y-143217850D02*
G75*
G02*
X255534485Y-143279338I40400J-30800D01*
G01*
X255454600Y-133224550D02*
G75*
G02*
X255373685Y-133163038I-40500J30700D01*
G01*
X255454600Y-143384550D02*
G75*
G02*
X255373685Y-143323038I-40500J30700D01*
G01*
X255471500Y-129417650D02*
G75*
G02*
X255423578Y-129507292I-24000J-44800D01*
G01*
X255471500Y-134497650D02*
G75*
G02*
X255423578Y-134587292I-24000J-44800D01*
G01*
X255471500Y-137037650D02*
G75*
G02*
X255423578Y-137127292I-24000J-44800D01*
G01*
X255471500Y-139577650D02*
G75*
G02*
X255423578Y-139667292I-24000J-44800D01*
G01*
X255471500Y-144657650D02*
G75*
G02*
X255423578Y-144747292I-24000J-44800D01*
G01*
X255479800Y-130790350D02*
G75*
G02*
X255415340Y-130711799I-32200J39300D01*
G01*
X255479800Y-135870350D02*
G75*
G02*
X255415340Y-135791799I-32200J39300D01*
G01*
X255479800Y-138410350D02*
G75*
G02*
X255415340Y-138331799I-32200J39300D01*
G01*
X255479800Y-140950350D02*
G75*
G02*
X255415340Y-140871799I-32200J39300D01*
G01*
X255479800Y-146030350D02*
G75*
G02*
X255415340Y-145951799I-32200J39300D01*
G01*
X255489800Y-137066350D02*
G75*
G02*
X255489800Y-137167950I0J-50800D01*
G01*
X255489800Y-138285550D02*
G75*
G02*
X255489800Y-138387150I0J-50800D01*
G01*
X255502900Y-132336550D02*
G75*
G02*
X255601125Y-132310644I49100J13000D01*
G01*
X255502900Y-142496550D02*
G75*
G02*
X255601125Y-142470644I49100J13000D01*
G01*
X255506300Y-132947650D02*
G75*
G02*
X255597661Y-132992131I45700J-22200D01*
G01*
X255506300Y-143107650D02*
G75*
G02*
X255597661Y-143152131I45700J-22200D01*
G01*
X255511400Y-132189550D02*
G75*
G02*
X255511400Y-132291150I0J-50800D01*
G01*
X255511400Y-133002350D02*
G75*
G02*
X255511400Y-133103950I0J-50800D01*
G01*
X255511400Y-142349550D02*
G75*
G02*
X255511400Y-142451150I0J-50800D01*
G01*
X255511400Y-143162350D02*
G75*
G02*
X255511400Y-143263950I0J-50800D01*
G01*
X255514100Y-129581548D02*
G75*
G02*
X255585599Y-129510051I39300J32198D01*
G01*
X255514100Y-134661548D02*
G75*
G02*
X255585599Y-134590051I39300J32198D01*
G01*
X255514100Y-137201548D02*
G75*
G02*
X255585599Y-137130051I39300J32198D01*
G01*
X255514100Y-139741548D02*
G75*
G02*
X255585599Y-139670051I39300J32198D01*
G01*
X255514100Y-144821548D02*
G75*
G02*
X255585599Y-144750051I39300J32198D01*
G01*
X255521202Y-130624848D02*
G75*
G02*
X255592700Y-130696350I32198J-39302D01*
G01*
X255521202Y-135704848D02*
G75*
G02*
X255592700Y-135776350I32198J-39302D01*
G01*
X255521202Y-138244848D02*
G75*
G02*
X255592700Y-138316350I32198J-39302D01*
G01*
X255521202Y-140784848D02*
G75*
G02*
X255592700Y-140856350I32198J-39302D01*
G01*
X255521202Y-145864848D02*
G75*
G02*
X255592700Y-145936350I32198J-39302D01*
G01*
X255534500Y-132174150D02*
G75*
G02*
X255453585Y-132235662I-40500J-30700D01*
G01*
X255534500Y-142334150D02*
G75*
G02*
X255453585Y-142395662I-40500J-30700D01*
G01*
X255534900Y-132454450D02*
G75*
G02*
X255636300Y-132448250I50700J3100D01*
G01*
X255534900Y-142614450D02*
G75*
G02*
X255636300Y-142608250I50700J3100D01*
G01*
X255536500Y-132829150D02*
G75*
G02*
X255634731Y-132855032I49100J-13000D01*
G01*
X255536500Y-142989150D02*
G75*
G02*
X255634731Y-143015032I49100J-13000D01*
G01*
X255539700Y-133110950D02*
G75*
G02*
X255448398Y-133066349I-45700J22200D01*
G01*
X255539700Y-143270950D02*
G75*
G02*
X255448398Y-143226349I-45700J22200D01*
G01*
X255542900Y-132583250D02*
G75*
G02*
X255644500Y-132583250I50800J0D01*
G01*
X255542900Y-142743250D02*
G75*
G02*
X255644500Y-142743250I50800J0D01*
G01*
X255543000Y-132707150D02*
G75*
G02*
X255644400Y-132713350I50700J-3100D01*
G01*
X255543000Y-142867150D02*
G75*
G02*
X255644400Y-142873350I50700J-3100D01*
G01*
X255583600Y-132392750D02*
G75*
G02*
X255583600Y-132494350I0J-50800D01*
G01*
X255583600Y-132799150D02*
G75*
G02*
X255583600Y-132900750I0J-50800D01*
G01*
X255583600Y-142552750D02*
G75*
G02*
X255583600Y-142654350I0J-50800D01*
G01*
X255583600Y-142959150D02*
G75*
G02*
X255583600Y-143060750I0J-50800D01*
G01*
X255585600Y-129510050D02*
G75*
G02*
X255521200Y-129588650I-32200J-39300D01*
G01*
X255585600Y-129510050D02*
G75*
G02*
X255592700Y-129517150I-32200J-39300D01*
G01*
X255585600Y-134590050D02*
G75*
G02*
X255521200Y-134668650I-32200J-39300D01*
G01*
X255585600Y-134590050D02*
G75*
G02*
X255592700Y-134597150I-32200J-39300D01*
G01*
X255585600Y-137130050D02*
G75*
G02*
X255521200Y-137208650I-32200J-39300D01*
G01*
X255585600Y-137130050D02*
G75*
G02*
X255592700Y-137137150I-32200J-39300D01*
G01*
X255585600Y-139670050D02*
G75*
G02*
X255521200Y-139748650I-32200J-39300D01*
G01*
X255585600Y-139670050D02*
G75*
G02*
X255592700Y-139677150I-32200J-39300D01*
G01*
X255585600Y-144750050D02*
G75*
G02*
X255521200Y-144828650I-32200J-39300D01*
G01*
X255585600Y-144750050D02*
G75*
G02*
X255592700Y-144757150I-32200J-39300D01*
G01*
X255592700Y-130696350D02*
G75*
G02*
X255514100Y-130631950I-39300J32200D01*
G01*
X255592700Y-130696350D02*
G75*
G02*
X255585600Y-130703450I-39300J32200D01*
G01*
X255592700Y-135776350D02*
G75*
G02*
X255514100Y-135711950I-39300J32200D01*
G01*
X255592700Y-135776350D02*
G75*
G02*
X255585600Y-135783450I-39300J32200D01*
G01*
X255592700Y-138316350D02*
G75*
G02*
X255514100Y-138251950I-39300J32200D01*
G01*
X255592700Y-138316350D02*
G75*
G02*
X255585600Y-138323450I-39300J32200D01*
G01*
X255592700Y-140856350D02*
G75*
G02*
X255514100Y-140791950I-39300J32200D01*
G01*
X255592700Y-140856350D02*
G75*
G02*
X255585600Y-140863450I-39300J32200D01*
G01*
X255592700Y-145936350D02*
G75*
G02*
X255514100Y-145871950I-39300J32200D01*
G01*
X255592700Y-145936350D02*
G75*
G02*
X255585600Y-145943450I-39300J32200D01*
G01*
X255593700Y-132595950D02*
G75*
G02*
X255593700Y-132697550I0J-50800D01*
G01*
X255593700Y-142755950D02*
G75*
G02*
X255593700Y-142857550I0J-50800D01*
G01*
X255594000Y-129547950D02*
G75*
G02*
X255594000Y-129649550I0J-50800D01*
G01*
X255594000Y-130563950D02*
G75*
G02*
X255594000Y-130665550I0J-50800D01*
G01*
X255594000Y-134627950D02*
G75*
G02*
X255594000Y-134729550I0J-50800D01*
G01*
X255594000Y-135643950D02*
G75*
G02*
X255594000Y-135745550I0J-50800D01*
G01*
X255594000Y-139707950D02*
G75*
G02*
X255594000Y-139809550I0J-50800D01*
G01*
X255594000Y-140723950D02*
G75*
G02*
X255594000Y-140825550I0J-50800D01*
G01*
X255594000Y-144787950D02*
G75*
G02*
X255594000Y-144889550I0J-50800D01*
G01*
X255594000Y-145803950D02*
G75*
G02*
X255594000Y-145905550I0J-50800D01*
G01*
X255595500Y-129679150D02*
G75*
G02*
X255685142Y-129631228I44800J24000D01*
G01*
X255595500Y-134759150D02*
G75*
G02*
X255685142Y-134711228I44800J24000D01*
G01*
X255595500Y-137299150D02*
G75*
G02*
X255685142Y-137251228I44800J24000D01*
G01*
X255595500Y-139839150D02*
G75*
G02*
X255685142Y-139791228I44800J24000D01*
G01*
X255595500Y-144919150D02*
G75*
G02*
X255685142Y-144871228I44800J24000D01*
G01*
X255597700Y-132301350D02*
G75*
G02*
X255506339Y-132345831I-45700J-22200D01*
G01*
X255597700Y-142461350D02*
G75*
G02*
X255506339Y-142505831I-45700J-22200D01*
G01*
X255601000Y-130526050D02*
G75*
G02*
X255679551Y-130590510I39300J-32200D01*
G01*
X255601000Y-135606050D02*
G75*
G02*
X255679551Y-135670510I39300J-32200D01*
G01*
X255601000Y-138146050D02*
G75*
G02*
X255679551Y-138210510I39300J-32200D01*
G01*
X255601000Y-140686050D02*
G75*
G02*
X255679551Y-140750510I39300J-32200D01*
G01*
X255601000Y-145766050D02*
G75*
G02*
X255679551Y-145830510I39300J-32200D01*
G01*
X255601100Y-132982850D02*
G75*
G02*
X255502875Y-132956944I-49100J13000D01*
G01*
X255601100Y-143142850D02*
G75*
G02*
X255502875Y-143116944I-49100J13000D01*
G01*
X255631000Y-127130250D02*
G75*
G02*
X255631000Y-127135250I0J-2500D01*
G01*
X255631000Y-127135250D02*
G75*
G02*
X255631000Y-127130250I0J2500D01*
G01*
X255631000Y-148265250D02*
G75*
G02*
X255631000Y-148270250I0J-2500D01*
G01*
X255631000Y-148267750D02*
G75*
G02*
X253726000Y-146362750I0J1905000D01*
G01*
X255631000Y-148267750D02*
G75*
G02*
X253726000Y-146362750I0J1905000D01*
G01*
X255631000Y-148270250D02*
G75*
G02*
X255631000Y-148265250I0J2500D01*
G01*
X255634800Y-132438450D02*
G75*
G02*
X255536431Y-132464368I-49200J-12900D01*
G01*
X255634800Y-142598450D02*
G75*
G02*
X255536431Y-142624368I-49200J-12900D01*
G01*
X255636300Y-132845250D02*
G75*
G02*
X255534900Y-132839050I-50700J3100D01*
G01*
X255636300Y-143005250D02*
G75*
G02*
X255534900Y-142999050I-50700J3100D01*
G01*
X255644400Y-132580150D02*
G75*
G02*
X255543000Y-132586350I-50700J-3100D01*
G01*
X255644400Y-142740150D02*
G75*
G02*
X255543000Y-142746350I-50700J-3100D01*
G01*
X255644500Y-132710250D02*
G75*
G02*
X255542900Y-132710250I-50800J0D01*
G01*
X255644500Y-142870250D02*
G75*
G02*
X255542900Y-142870250I-50800J0D01*
G01*
X255656200Y-129790650D02*
G75*
G02*
X255753400Y-129761250I48600J14700D01*
G01*
X255656200Y-134870650D02*
G75*
G02*
X255753400Y-134841250I48600J14700D01*
G01*
X255656200Y-137410650D02*
G75*
G02*
X255753400Y-137381250I48600J14700D01*
G01*
X255656200Y-139950650D02*
G75*
G02*
X255753400Y-139921250I48600J14700D01*
G01*
X255656200Y-145030650D02*
G75*
G02*
X255753400Y-145001250I48600J14700D01*
G01*
X255660000Y-130413650D02*
G75*
G02*
X255749558Y-130461528I44800J-23900D01*
G01*
X255660000Y-135493650D02*
G75*
G02*
X255749558Y-135541528I44800J-23900D01*
G01*
X255660000Y-138033650D02*
G75*
G02*
X255749558Y-138081528I44800J-23900D01*
G01*
X255660000Y-140573650D02*
G75*
G02*
X255749558Y-140621528I44800J-23900D01*
G01*
X255660000Y-145653650D02*
G75*
G02*
X255749558Y-145701528I44800J-23900D01*
G01*
X255664400Y-137269550D02*
G75*
G02*
X255664400Y-137371150I0J-50800D01*
G01*
X255664400Y-138082350D02*
G75*
G02*
X255664400Y-138183950I0J-50800D01*
G01*
X255679600Y-129622950D02*
G75*
G02*
X255601049Y-129687410I-39300J-32200D01*
G01*
X255679600Y-134702950D02*
G75*
G02*
X255601049Y-134767410I-39300J-32200D01*
G01*
X255679600Y-137242950D02*
G75*
G02*
X255601049Y-137307410I-39300J-32200D01*
G01*
X255679600Y-139782950D02*
G75*
G02*
X255601049Y-139847410I-39300J-32200D01*
G01*
X255679600Y-144862950D02*
G75*
G02*
X255601049Y-144927410I-39300J-32200D01*
G01*
X255685100Y-130582250D02*
G75*
G02*
X255595458Y-130534328I-44800J24000D01*
G01*
X255685100Y-135662250D02*
G75*
G02*
X255595458Y-135614328I-44800J24000D01*
G01*
X255685100Y-138202250D02*
G75*
G02*
X255595458Y-138154328I-44800J24000D01*
G01*
X255685100Y-140742250D02*
G75*
G02*
X255595458Y-140694328I-44800J24000D01*
G01*
X255685100Y-145822250D02*
G75*
G02*
X255595458Y-145774328I-44800J24000D01*
G01*
X255694000Y-129911950D02*
G75*
G02*
X255795001Y-129901960I50500J5000D01*
G01*
X255694000Y-134991950D02*
G75*
G02*
X255795001Y-134981960I50500J5000D01*
G01*
X255694000Y-137531950D02*
G75*
G02*
X255795001Y-137521960I50500J5000D01*
G01*
X255694000Y-140071950D02*
G75*
G02*
X255795001Y-140061960I50500J5000D01*
G01*
X255694000Y-145151950D02*
G75*
G02*
X255795001Y-145141960I50500J5000D01*
G01*
X255696000Y-130291750D02*
G75*
G02*
X255793228Y-130321258I48600J-14800D01*
G01*
X255696000Y-135371750D02*
G75*
G02*
X255793228Y-135401258I48600J-14800D01*
G01*
X255696000Y-137911750D02*
G75*
G02*
X255793228Y-137941258I48600J-14800D01*
G01*
X255696000Y-140451750D02*
G75*
G02*
X255793228Y-140481258I48600J-14800D01*
G01*
X255696000Y-145531750D02*
G75*
G02*
X255793228Y-145561258I48600J-14800D01*
G01*
X255707200Y-130043250D02*
G75*
G02*
X255808800Y-130043250I50800J0D01*
G01*
X255707200Y-135123250D02*
G75*
G02*
X255808800Y-135123250I50800J0D01*
G01*
X255707200Y-137663250D02*
G75*
G02*
X255808800Y-137663250I50800J0D01*
G01*
X255707200Y-140203250D02*
G75*
G02*
X255808800Y-140203250I50800J0D01*
G01*
X255707200Y-145283250D02*
G75*
G02*
X255808800Y-145283250I50800J0D01*
G01*
X255707400Y-130165250D02*
G75*
G02*
X255808600Y-130175250I50600J-5000D01*
G01*
X255707400Y-135245250D02*
G75*
G02*
X255808600Y-135255250I50600J-5000D01*
G01*
X255707400Y-137785250D02*
G75*
G02*
X255808600Y-137795250I50600J-5000D01*
G01*
X255707400Y-140325250D02*
G75*
G02*
X255808600Y-140335250I50600J-5000D01*
G01*
X255707400Y-145405250D02*
G75*
G02*
X255808600Y-145415250I50600J-5000D01*
G01*
X255712700Y-129751150D02*
G75*
G02*
X255712700Y-129852750I0J-50800D01*
G01*
X255712700Y-130360750D02*
G75*
G02*
X255712700Y-130462350I0J-50800D01*
G01*
X255712700Y-134831150D02*
G75*
G02*
X255712700Y-134932750I0J-50800D01*
G01*
X255712700Y-135440750D02*
G75*
G02*
X255712700Y-135542350I0J-50800D01*
G01*
X255712700Y-139911150D02*
G75*
G02*
X255712700Y-140012750I0J-50800D01*
G01*
X255712700Y-140520750D02*
G75*
G02*
X255712700Y-140622350I0J-50800D01*
G01*
X255712700Y-144991150D02*
G75*
G02*
X255712700Y-145092750I0J-50800D01*
G01*
X255712700Y-145600750D02*
G75*
G02*
X255712700Y-145702350I0J-50800D01*
G01*
X255743500Y-137472750D02*
G75*
G02*
X255743500Y-137574350I0J-50800D01*
G01*
X255743500Y-137879150D02*
G75*
G02*
X255743500Y-137980750I0J-50800D01*
G01*
X255749600Y-129751950D02*
G75*
G02*
X255660042Y-129799828I-44800J-23900D01*
G01*
X255749600Y-134831950D02*
G75*
G02*
X255660042Y-134879828I-44800J-23900D01*
G01*
X255749600Y-137371950D02*
G75*
G02*
X255660042Y-137419828I-44800J-23900D01*
G01*
X255749600Y-139911950D02*
G75*
G02*
X255660042Y-139959828I-44800J-23900D01*
G01*
X255749600Y-144991950D02*
G75*
G02*
X255660042Y-145039828I-44800J-23900D01*
G01*
X255753400Y-130452250D02*
G75*
G02*
X255656200Y-130422850I-48600J14700D01*
G01*
X255753400Y-135532250D02*
G75*
G02*
X255656200Y-135502850I-48600J14700D01*
G01*
X255753400Y-138072250D02*
G75*
G02*
X255656200Y-138042850I-48600J14700D01*
G01*
X255753400Y-140612250D02*
G75*
G02*
X255656200Y-140582850I-48600J14700D01*
G01*
X255753400Y-145692250D02*
G75*
G02*
X255656200Y-145662850I-48600J14700D01*
G01*
X255754200Y-129954350D02*
G75*
G02*
X255754200Y-130055950I0J-50800D01*
G01*
X255754200Y-130157550D02*
G75*
G02*
X255754200Y-130259150I0J-50800D01*
G01*
X255754200Y-135034350D02*
G75*
G02*
X255754200Y-135135950I0J-50800D01*
G01*
X255754200Y-135237550D02*
G75*
G02*
X255754200Y-135339150I0J-50800D01*
G01*
X255754200Y-140114350D02*
G75*
G02*
X255754200Y-140215950I0J-50800D01*
G01*
X255754200Y-140317550D02*
G75*
G02*
X255754200Y-140419150I0J-50800D01*
G01*
X255754200Y-145194350D02*
G75*
G02*
X255754200Y-145295950I0J-50800D01*
G01*
X255754200Y-145397550D02*
G75*
G02*
X255754200Y-145499150I0J-50800D01*
G01*
X255758000Y-137675950D02*
G75*
G02*
X255758000Y-137777550I0J-50800D01*
G01*
X255793200Y-129892250D02*
G75*
G02*
X255695972Y-129921758I-48600J-14800D01*
G01*
X255793200Y-134972250D02*
G75*
G02*
X255695972Y-135001758I-48600J-14800D01*
G01*
X255793200Y-137512250D02*
G75*
G02*
X255695972Y-137541758I-48600J-14800D01*
G01*
X255793200Y-140052250D02*
G75*
G02*
X255695972Y-140081758I-48600J-14800D01*
G01*
X255793200Y-145132250D02*
G75*
G02*
X255696028Y-145161742I-48600J-14700D01*
G01*
X255795100Y-130311550D02*
G75*
G02*
X255694079Y-130301558I-50500J5100D01*
G01*
X255795100Y-135391550D02*
G75*
G02*
X255694079Y-135381558I-50500J5100D01*
G01*
X255795100Y-137931550D02*
G75*
G02*
X255694079Y-137921558I-50500J5100D01*
G01*
X255795100Y-140471550D02*
G75*
G02*
X255694079Y-140461558I-50500J5100D01*
G01*
X255795100Y-145551550D02*
G75*
G02*
X255694079Y-145541558I-50500J5100D01*
G01*
X255808600Y-130038250D02*
G75*
G02*
X255707400Y-130048250I-50600J-5000D01*
G01*
X255808600Y-135118250D02*
G75*
G02*
X255707400Y-135128250I-50600J-5000D01*
G01*
X255808600Y-137658250D02*
G75*
G02*
X255707400Y-137668250I-50600J-5000D01*
G01*
X255808600Y-140198250D02*
G75*
G02*
X255707400Y-140208250I-50600J-5000D01*
G01*
X255808600Y-145278250D02*
G75*
G02*
X255707400Y-145288250I-50600J-5000D01*
G01*
X255808800Y-130170250D02*
G75*
G02*
X255707200Y-130170250I-50800J0D01*
G01*
X255808800Y-135250250D02*
G75*
G02*
X255707200Y-135250250I-50800J0D01*
G01*
X255808800Y-137790250D02*
G75*
G02*
X255707200Y-137790250I-50800J0D01*
G01*
X255808800Y-140330250D02*
G75*
G02*
X255707200Y-140330250I-50800J0D01*
G01*
X255808800Y-145410250D02*
G75*
G02*
X255707200Y-145410250I-50800J0D01*
G01*
X256234200Y-128836750D02*
G75*
G02*
X256297800Y-128836750I31800J0D01*
G01*
X256266000Y-128804950D02*
G75*
G02*
X256297800Y-128836750I0J-31800D01*
G01*
X256266000Y-146585050D02*
G75*
G02*
X256265999Y-146648450I-200J-31700D01*
G01*
X256266000Y-146648550D02*
G75*
G02*
X256234200Y-146616750I0J31800D01*
G01*
X256297800Y-128836750D02*
G75*
G02*
X256266000Y-128868550I-31800J0D01*
G01*
X256297800Y-146616750D02*
G75*
G02*
X256266000Y-146648550I-31800J0D01*
G01*
X259726000Y-143363050D02*
G75*
G02*
X259726000Y-143688450I0J-162700D01*
G01*
X259726000Y-143688450D02*
G75*
G02*
X259726000Y-143363050I0J162700D01*
G01*
X261346000Y-137980750D02*
G75*
G02*
X261346000Y-139504750I0J-762000D01*
G01*
X261346000Y-139504750D02*
G75*
G02*
X261346000Y-137980750I0J762000D01*
G01*
X261346000Y-140520750D02*
G75*
G02*
X261346000Y-142044750I0J-762000D01*
G01*
X261346000Y-142044750D02*
G75*
G02*
X261346000Y-140520750I0J762000D01*
G01*
X261346000Y-143060750D02*
G75*
G02*
X261346000Y-144584750I0J-762000D01*
G01*
X261346000Y-144584750D02*
G75*
G02*
X261346000Y-143060750I0J762000D01*
G01*
X261346000Y-145600750D02*
G75*
G02*
X261346000Y-147124750I0J-762000D01*
G01*
X261346000Y-147124750D02*
G75*
G02*
X261346000Y-145600750I0J762000D01*
G01*
X263886000Y-137980750D02*
G75*
G02*
X263886000Y-139504750I0J-762000D01*
G01*
X263886000Y-139504750D02*
G75*
G02*
X263886000Y-137980750I0J762000D01*
G01*
X263886000Y-140520750D02*
G75*
G02*
X263886000Y-142044750I0J-762000D01*
G01*
X263886000Y-142044750D02*
G75*
G02*
X263886000Y-140520750I0J762000D01*
G01*
X263886000Y-143060750D02*
G75*
G02*
X263886000Y-144584750I0J-762000D01*
G01*
X263886000Y-144584750D02*
G75*
G02*
X263886000Y-143060750I0J762000D01*
G01*
X263886000Y-145600750D02*
G75*
G02*
X263886000Y-147124750I0J-762000D01*
G01*
X263886000Y-147124750D02*
G75*
G02*
X263886000Y-145600750I0J762000D01*
G01*
X265506000Y-143363050D02*
G75*
G02*
X265506000Y-143688450I0J-162700D01*
G01*
X265506000Y-143688450D02*
G75*
G02*
X265506000Y-143363050I0J162700D01*
G01*
X265886200Y-137472750D02*
G75*
G02*
X265949700Y-137472750I31750J0D01*
G01*
X265886200Y-139377750D02*
G75*
G02*
X265949700Y-139377750I31750J0D01*
G01*
X265918000Y-137504450D02*
G75*
G02*
X265918000Y-137441050I0J31700D01*
G01*
X265918000Y-138774450D02*
G75*
G02*
X265918000Y-138711050I0J31700D01*
G01*
X265918000Y-139409550D02*
G75*
G02*
X265918000Y-139345950I0J31800D01*
G01*
X265918000Y-140679550D02*
G75*
G02*
X265918000Y-140615950I0J31800D01*
G01*
X265949700Y-138742750D02*
G75*
G02*
X265886200Y-138742750I-31750J0D01*
G01*
X265949700Y-140647750D02*
G75*
G02*
X265886200Y-140647750I-31750J0D01*
G01*
X268172200Y-137472750D02*
G75*
G02*
X268235700Y-137472750I31750J0D01*
G01*
X268172200Y-139377750D02*
G75*
G02*
X268235700Y-139377750I31750J0D01*
G01*
X268204000Y-137441050D02*
G75*
G02*
X268204000Y-137504450I0J-31700D01*
G01*
X268204000Y-138711050D02*
G75*
G02*
X268235700Y-138742750I0J-31700D01*
G01*
X268204000Y-139346050D02*
G75*
G02*
X268203999Y-139409450I-200J-31700D01*
G01*
X268204000Y-140616050D02*
G75*
G02*
X268203999Y-140679450I-200J-31700D01*
G01*
X268235700Y-138742750D02*
G75*
G02*
X268172200Y-138742750I-31750J0D01*
G01*
X268235700Y-138742750D02*
G75*
G02*
X268204000Y-138774450I-31700J0D01*
G01*
X268235700Y-140647750D02*
G75*
G02*
X268172200Y-140647750I-31750J0D01*
G01*
X268934300Y-128836750D02*
G75*
G02*
X268997700Y-128836750I31700J0D01*
G01*
X268966000Y-128868550D02*
G75*
G02*
X268966000Y-128804950I0J31800D01*
G01*
X268966000Y-146648550D02*
G75*
G02*
X268966000Y-146584950I0J31800D01*
G01*
X268997700Y-146616750D02*
G75*
G02*
X268934300Y-146616750I-31700J0D01*
G01*
X269423200Y-130043250D02*
G75*
G02*
X269524800Y-130043250I50800J0D01*
G01*
X269423200Y-135123250D02*
G75*
G02*
X269524800Y-135123250I50800J0D01*
G01*
X269423200Y-137663250D02*
G75*
G02*
X269524800Y-137663250I50800J0D01*
G01*
X269423200Y-140203250D02*
G75*
G02*
X269524800Y-140203250I50800J0D01*
G01*
X269423200Y-145283250D02*
G75*
G02*
X269524800Y-145283250I50800J0D01*
G01*
X269423400Y-130175250D02*
G75*
G02*
X269524600Y-130165250I50600J5000D01*
G01*
X269423400Y-135255250D02*
G75*
G02*
X269524600Y-135245250I50600J5000D01*
G01*
X269423400Y-137795250D02*
G75*
G02*
X269524600Y-137785250I50600J5000D01*
G01*
X269423400Y-140335250D02*
G75*
G02*
X269524600Y-140325250I50600J5000D01*
G01*
X269423400Y-145415250D02*
G75*
G02*
X269524600Y-145405250I50600J5000D01*
G01*
X269436900Y-129901950D02*
G75*
G02*
X269538000Y-129911950I50550J-5000D01*
G01*
X269436900Y-134981950D02*
G75*
G02*
X269538000Y-134991950I50550J-5000D01*
G01*
X269436900Y-137521950D02*
G75*
G02*
X269538000Y-137531950I50550J-5000D01*
G01*
X269436900Y-140061950D02*
G75*
G02*
X269538000Y-140071950I50550J-5000D01*
G01*
X269436900Y-145141950D02*
G75*
G02*
X269538000Y-145151950I50550J-5000D01*
G01*
X269438800Y-130321250D02*
G75*
G02*
X269536000Y-130291750I48600J14750D01*
G01*
X269438800Y-135401250D02*
G75*
G02*
X269536000Y-135371750I48600J14750D01*
G01*
X269438800Y-137941250D02*
G75*
G02*
X269536000Y-137911750I48600J14750D01*
G01*
X269438800Y-140481250D02*
G75*
G02*
X269536000Y-140451750I48600J14750D01*
G01*
X269438800Y-145561250D02*
G75*
G02*
X269536000Y-145531750I48600J14750D01*
G01*
X269474000Y-137777550D02*
G75*
G02*
X269474000Y-137675950I0J50800D01*
G01*
X269477700Y-130259150D02*
G75*
G02*
X269477700Y-130157550I0J50800D01*
G01*
X269477700Y-135339150D02*
G75*
G02*
X269477700Y-135237550I0J50800D01*
G01*
X269477700Y-140419150D02*
G75*
G02*
X269477700Y-140317550I0J50800D01*
G01*
X269477700Y-145499150D02*
G75*
G02*
X269477700Y-145397550I0J50800D01*
G01*
X269477800Y-130055950D02*
G75*
G02*
X269477800Y-129954350I0J50800D01*
G01*
X269477800Y-135135950D02*
G75*
G02*
X269477800Y-135034350I0J50800D01*
G01*
X269477800Y-140215950D02*
G75*
G02*
X269477800Y-140114350I0J50800D01*
G01*
X269477800Y-145295950D02*
G75*
G02*
X269477800Y-145194350I0J50800D01*
G01*
X269478600Y-129761250D02*
G75*
G02*
X269575800Y-129790650I48600J-14700D01*
G01*
X269478600Y-134841250D02*
G75*
G02*
X269575800Y-134870650I48600J-14700D01*
G01*
X269478600Y-137381250D02*
G75*
G02*
X269575800Y-137410650I48600J-14700D01*
G01*
X269478600Y-139921250D02*
G75*
G02*
X269575800Y-139950650I48600J-14700D01*
G01*
X269478600Y-145001250D02*
G75*
G02*
X269575800Y-145030650I48600J-14700D01*
G01*
X269482400Y-130461550D02*
G75*
G02*
X269572000Y-130413650I44800J23950D01*
G01*
X269482400Y-135541550D02*
G75*
G02*
X269572000Y-135493650I44800J23950D01*
G01*
X269482400Y-138081550D02*
G75*
G02*
X269572000Y-138033650I44800J23950D01*
G01*
X269482400Y-140621550D02*
G75*
G02*
X269572000Y-140573650I44800J23950D01*
G01*
X269482400Y-145701550D02*
G75*
G02*
X269572000Y-145653650I44800J23950D01*
G01*
X269488500Y-137574350D02*
G75*
G02*
X269488500Y-137472750I0J50800D01*
G01*
X269488500Y-137980750D02*
G75*
G02*
X269488500Y-137879150I0J50800D01*
G01*
X269519300Y-129852750D02*
G75*
G02*
X269519300Y-129751150I0J50800D01*
G01*
X269519300Y-130462350D02*
G75*
G02*
X269519300Y-130360750I0J50800D01*
G01*
X269519300Y-134932750D02*
G75*
G02*
X269519300Y-134831150I0J50800D01*
G01*
X269519300Y-135542350D02*
G75*
G02*
X269519300Y-135440750I0J50800D01*
G01*
X269519300Y-140012750D02*
G75*
G02*
X269519300Y-139911150I0J50800D01*
G01*
X269519300Y-140622350D02*
G75*
G02*
X269519300Y-140520750I0J50800D01*
G01*
X269519300Y-145092750D02*
G75*
G02*
X269519300Y-144991150I0J50800D01*
G01*
X269519300Y-145702350D02*
G75*
G02*
X269519300Y-145600750I0J50800D01*
G01*
X269524600Y-130048250D02*
G75*
G02*
X269423400Y-130038250I-50600J5000D01*
G01*
X269524600Y-135128250D02*
G75*
G02*
X269423400Y-135118250I-50600J5000D01*
G01*
X269524600Y-137668250D02*
G75*
G02*
X269423400Y-137658250I-50600J5000D01*
G01*
X269524600Y-140208250D02*
G75*
G02*
X269423400Y-140198250I-50600J5000D01*
G01*
X269524600Y-145288250D02*
G75*
G02*
X269423400Y-145278250I-50600J5000D01*
G01*
X269524800Y-130170250D02*
G75*
G02*
X269423200Y-130170250I-50800J0D01*
G01*
X269524800Y-135250250D02*
G75*
G02*
X269423200Y-135250250I-50800J0D01*
G01*
X269524800Y-137790250D02*
G75*
G02*
X269423200Y-137790250I-50800J0D01*
G01*
X269524800Y-140330250D02*
G75*
G02*
X269423200Y-140330250I-50800J0D01*
G01*
X269524800Y-145410250D02*
G75*
G02*
X269423200Y-145410250I-50800J0D01*
G01*
X269536000Y-129921750D02*
G75*
G02*
X269438772Y-129892242I-48600J14800D01*
G01*
X269536000Y-135001750D02*
G75*
G02*
X269438772Y-134972242I-48600J14800D01*
G01*
X269536000Y-137541750D02*
G75*
G02*
X269438772Y-137512242I-48600J14800D01*
G01*
X269536000Y-140081750D02*
G75*
G02*
X269438772Y-140052242I-48600J14800D01*
G01*
X269536000Y-145161750D02*
G75*
G02*
X269438772Y-145132242I-48600J14800D01*
G01*
X269538000Y-130301550D02*
G75*
G02*
X269436900Y-130311550I-50550J-5000D01*
G01*
X269538000Y-135381550D02*
G75*
G02*
X269436900Y-135391550I-50550J-5000D01*
G01*
X269538000Y-137921550D02*
G75*
G02*
X269436900Y-137931550I-50550J-5000D01*
G01*
X269538000Y-140461550D02*
G75*
G02*
X269436900Y-140471550I-50550J-5000D01*
G01*
X269538000Y-145541550D02*
G75*
G02*
X269436900Y-145551550I-50550J-5000D01*
G01*
X269546900Y-129631250D02*
G75*
G02*
X269636458Y-129679128I44800J-23900D01*
G01*
X269546900Y-134711250D02*
G75*
G02*
X269636458Y-134759128I44800J-23900D01*
G01*
X269546900Y-137251250D02*
G75*
G02*
X269636458Y-137299128I44800J-23900D01*
G01*
X269546900Y-139791250D02*
G75*
G02*
X269636458Y-139839128I44800J-23900D01*
G01*
X269546900Y-144871250D02*
G75*
G02*
X269636458Y-144919128I44800J-23900D01*
G01*
X269552400Y-130590550D02*
G75*
G02*
X269631000Y-130526050I39300J32250D01*
G01*
X269552400Y-135670550D02*
G75*
G02*
X269631000Y-135606050I39300J32250D01*
G01*
X269552400Y-138210550D02*
G75*
G02*
X269631000Y-138146050I39300J32250D01*
G01*
X269552400Y-140750550D02*
G75*
G02*
X269631000Y-140686050I39300J32250D01*
G01*
X269552400Y-145830550D02*
G75*
G02*
X269631000Y-145766050I39300J32250D01*
G01*
X269567600Y-137371150D02*
G75*
G02*
X269567600Y-137269550I0J50800D01*
G01*
X269567600Y-138183950D02*
G75*
G02*
X269567600Y-138082350I0J50800D01*
G01*
X269572000Y-129799850D02*
G75*
G02*
X269482442Y-129751972I-44800J23900D01*
G01*
X269572000Y-134879850D02*
G75*
G02*
X269482442Y-134831972I-44800J23900D01*
G01*
X269572000Y-137419850D02*
G75*
G02*
X269482358Y-137371928I-44800J24000D01*
G01*
X269572000Y-139959850D02*
G75*
G02*
X269482358Y-139911928I-44800J24000D01*
G01*
X269572000Y-145039850D02*
G75*
G02*
X269482358Y-144991928I-44800J24000D01*
G01*
X269575800Y-130422850D02*
G75*
G02*
X269478600Y-130452250I-48600J-14700D01*
G01*
X269575800Y-135502850D02*
G75*
G02*
X269478600Y-135532250I-48600J-14700D01*
G01*
X269575800Y-138042850D02*
G75*
G02*
X269478600Y-138072250I-48600J-14700D01*
G01*
X269575800Y-140582850D02*
G75*
G02*
X269478600Y-140612250I-48600J-14700D01*
G01*
X269575800Y-145662850D02*
G75*
G02*
X269478600Y-145692250I-48600J-14700D01*
G01*
X269587500Y-132583250D02*
G75*
G02*
X269689100Y-132583250I50800J0D01*
G01*
X269587500Y-142743250D02*
G75*
G02*
X269689100Y-142743250I50800J0D01*
G01*
X269587600Y-132713350D02*
G75*
G02*
X269689000Y-132707150I50700J3100D01*
G01*
X269587600Y-142873350D02*
G75*
G02*
X269689000Y-142867150I50700J3100D01*
G01*
X269595700Y-132448250D02*
G75*
G02*
X269697100Y-132454450I50700J-3100D01*
G01*
X269595700Y-142608250D02*
G75*
G02*
X269697100Y-142614450I50700J-3100D01*
G01*
X269597200Y-132855050D02*
G75*
G02*
X269695500Y-132829150I49150J12950D01*
G01*
X269597200Y-143015050D02*
G75*
G02*
X269695500Y-142989150I49150J12950D01*
G01*
X269601000Y-127130250D02*
G75*
G02*
X269601000Y-127135250I0J-2500D01*
G01*
X269601000Y-127132750D02*
G75*
G02*
X271506000Y-129037750I0J-1905000D01*
G01*
X269601000Y-127132750D02*
G75*
G02*
X271506000Y-129037750I0J-1905000D01*
G01*
X269601000Y-127135250D02*
G75*
G02*
X269601000Y-127130250I0J2500D01*
G01*
X269601000Y-148265250D02*
G75*
G02*
X269601000Y-148270250I0J-2500D01*
G01*
X269601000Y-148270250D02*
G75*
G02*
X269601000Y-148265250I0J2500D01*
G01*
X269630900Y-132310650D02*
G75*
G02*
X269729075Y-132336543I49100J-12900D01*
G01*
X269630900Y-142470650D02*
G75*
G02*
X269729075Y-142496543I49100J-12900D01*
G01*
X269631000Y-129687450D02*
G75*
G02*
X269552351Y-129622910I-39300J32300D01*
G01*
X269631000Y-134767450D02*
G75*
G02*
X269552351Y-134702910I-39300J32300D01*
G01*
X269631000Y-137307450D02*
G75*
G02*
X269552351Y-137242910I-39300J32300D01*
G01*
X269631000Y-139847450D02*
G75*
G02*
X269552351Y-139782910I-39300J32300D01*
G01*
X269631000Y-144927450D02*
G75*
G02*
X269552351Y-144862910I-39300J32300D01*
G01*
X269634300Y-132992150D02*
G75*
G02*
X269725700Y-132947650I45700J22250D01*
G01*
X269634300Y-143152150D02*
G75*
G02*
X269725700Y-143107650I45700J22250D01*
G01*
X269636500Y-130534350D02*
G75*
G02*
X269546900Y-130582250I-44800J-23950D01*
G01*
X269636500Y-135614350D02*
G75*
G02*
X269546900Y-135662250I-44800J-23950D01*
G01*
X269636500Y-138154350D02*
G75*
G02*
X269546900Y-138202250I-44800J-23950D01*
G01*
X269636500Y-140694350D02*
G75*
G02*
X269546900Y-140742250I-44800J-23950D01*
G01*
X269636500Y-145774350D02*
G75*
G02*
X269546900Y-145822250I-44800J-23950D01*
G01*
X269638000Y-129649550D02*
G75*
G02*
X269638000Y-129547950I0J50800D01*
G01*
X269638000Y-130665550D02*
G75*
G02*
X269638000Y-130563950I0J50800D01*
G01*
X269638000Y-134729550D02*
G75*
G02*
X269638000Y-134627950I0J50800D01*
G01*
X269638000Y-135745550D02*
G75*
G02*
X269638000Y-135643950I0J50800D01*
G01*
X269638000Y-139809550D02*
G75*
G02*
X269638000Y-139707950I0J50800D01*
G01*
X269638000Y-140825550D02*
G75*
G02*
X269638000Y-140723950I0J50800D01*
G01*
X269638000Y-144889550D02*
G75*
G02*
X269638000Y-144787950I0J50800D01*
G01*
X269638000Y-145905550D02*
G75*
G02*
X269638000Y-145803950I0J50800D01*
G01*
X269638300Y-132697550D02*
G75*
G02*
X269638300Y-132595950I0J50800D01*
G01*
X269638300Y-142857550D02*
G75*
G02*
X269638300Y-142755950I0J50800D01*
G01*
X269639300Y-129517150D02*
G75*
G02*
X269646400Y-129510050I39300J-32200D01*
G01*
X269639300Y-129517150D02*
G75*
G02*
X269717900Y-129581550I39300J-32200D01*
G01*
X269639300Y-134597150D02*
G75*
G02*
X269646400Y-134590050I39300J-32200D01*
G01*
X269639300Y-134597150D02*
G75*
G02*
X269717900Y-134661550I39300J-32200D01*
G01*
X269639300Y-137137150D02*
G75*
G02*
X269646400Y-137130050I39300J-32200D01*
G01*
X269639300Y-137137150D02*
G75*
G02*
X269717900Y-137201550I39300J-32200D01*
G01*
X269639300Y-139677150D02*
G75*
G02*
X269646400Y-139670050I39300J-32200D01*
G01*
X269639300Y-139677150D02*
G75*
G02*
X269717900Y-139741550I39300J-32200D01*
G01*
X269639300Y-144757150D02*
G75*
G02*
X269646400Y-144750050I39300J-32200D01*
G01*
X269639300Y-144757150D02*
G75*
G02*
X269717900Y-144821550I39300J-32200D01*
G01*
X269646400Y-130703450D02*
G75*
G02*
X269639300Y-130696350I32200J39300D01*
G01*
X269646400Y-130703450D02*
G75*
G02*
X269710800Y-130624850I32200J39300D01*
G01*
X269646400Y-135783450D02*
G75*
G02*
X269639300Y-135776350I32200J39300D01*
G01*
X269646400Y-135783450D02*
G75*
G02*
X269710800Y-135704850I32200J39300D01*
G01*
X269646400Y-138323450D02*
G75*
G02*
X269639300Y-138316350I32200J39300D01*
G01*
X269646400Y-138323450D02*
G75*
G02*
X269710800Y-138244850I32200J39300D01*
G01*
X269646400Y-140863450D02*
G75*
G02*
X269639300Y-140856350I32200J39300D01*
G01*
X269646400Y-140863450D02*
G75*
G02*
X269710800Y-140784850I32200J39300D01*
G01*
X269646400Y-145943450D02*
G75*
G02*
X269639300Y-145936350I32200J39300D01*
G01*
X269646400Y-145943450D02*
G75*
G02*
X269710800Y-145864850I32200J39300D01*
G01*
X269648400Y-132494350D02*
G75*
G02*
X269648400Y-132392750I0J50800D01*
G01*
X269648400Y-132900750D02*
G75*
G02*
X269648400Y-132799150I0J50800D01*
G01*
X269648400Y-142654350D02*
G75*
G02*
X269648400Y-142552750I0J50800D01*
G01*
X269648400Y-143060750D02*
G75*
G02*
X269648400Y-142959150I0J50800D01*
G01*
X269689000Y-132586350D02*
G75*
G02*
X269587600Y-132580150I-50700J3100D01*
G01*
X269689000Y-142746350D02*
G75*
G02*
X269587600Y-142740150I-50700J3100D01*
G01*
X269689100Y-132710250D02*
G75*
G02*
X269587500Y-132710250I-50800J0D01*
G01*
X269689100Y-142870250D02*
G75*
G02*
X269587500Y-142870250I-50800J0D01*
G01*
X269692300Y-132182550D02*
G75*
G02*
X269783602Y-132227151I45700J-22200D01*
G01*
X269692300Y-142342550D02*
G75*
G02*
X269783602Y-142387151I45700J-22200D01*
G01*
X269695500Y-132464350D02*
G75*
G02*
X269597200Y-132438450I-49150J12950D01*
G01*
X269695500Y-142624350D02*
G75*
G02*
X269597200Y-142598450I-49150J12950D01*
G01*
X269697100Y-132839050D02*
G75*
G02*
X269595700Y-132845250I-50700J-3100D01*
G01*
X269697100Y-142999050D02*
G75*
G02*
X269595700Y-143005250I-50700J-3100D01*
G01*
X269697500Y-133119350D02*
G75*
G02*
X269778400Y-133057850I40450J30750D01*
G01*
X269697500Y-143279350D02*
G75*
G02*
X269778400Y-143217850I40450J30750D01*
G01*
X269710800Y-129588650D02*
G75*
G02*
X269639300Y-129517150I-32200J39300D01*
G01*
X269710800Y-134668650D02*
G75*
G02*
X269639300Y-134597150I-32200J39300D01*
G01*
X269710800Y-137208650D02*
G75*
G02*
X269639300Y-137137150I-32200J39300D01*
G01*
X269710800Y-139748650D02*
G75*
G02*
X269639300Y-139677150I-32200J39300D01*
G01*
X269710800Y-144828650D02*
G75*
G02*
X269639300Y-144757150I-32200J39300D01*
G01*
X269717902Y-130631950D02*
G75*
G02*
X269646399Y-130703451I-39302J-32200D01*
G01*
X269717902Y-135711950D02*
G75*
G02*
X269646399Y-135783451I-39302J-32200D01*
G01*
X269717902Y-138251950D02*
G75*
G02*
X269646399Y-138323451I-39302J-32200D01*
G01*
X269717902Y-140791950D02*
G75*
G02*
X269646399Y-140863451I-39302J-32200D01*
G01*
X269717902Y-145871950D02*
G75*
G02*
X269646399Y-145943451I-39302J-32200D01*
G01*
X269720600Y-132291150D02*
G75*
G02*
X269720600Y-132189550I0J50800D01*
G01*
X269720600Y-133103950D02*
G75*
G02*
X269720600Y-133002350I0J50800D01*
G01*
X269720600Y-142451150D02*
G75*
G02*
X269720600Y-142349550I0J50800D01*
G01*
X269720600Y-143263950D02*
G75*
G02*
X269720600Y-143162350I0J50800D01*
G01*
X269725700Y-132345850D02*
G75*
G02*
X269634261Y-132301331I-45700J22300D01*
G01*
X269725700Y-142505850D02*
G75*
G02*
X269634261Y-142461331I-45700J22300D01*
G01*
X269729100Y-132956950D02*
G75*
G02*
X269630900Y-132982850I-49100J-12950D01*
G01*
X269729100Y-143116950D02*
G75*
G02*
X269630900Y-143142850I-49100J-12950D01*
G01*
X269742200Y-137167950D02*
G75*
G02*
X269742200Y-137066350I0J50800D01*
G01*
X269742200Y-138387150D02*
G75*
G02*
X269742200Y-138285550I0J50800D01*
G01*
X269752200Y-129423150D02*
G75*
G02*
X269816660Y-129501701I32200J-39300D01*
G01*
X269752200Y-134503150D02*
G75*
G02*
X269816660Y-134581701I32200J-39300D01*
G01*
X269752200Y-137043150D02*
G75*
G02*
X269816660Y-137121701I32200J-39300D01*
G01*
X269752200Y-139583150D02*
G75*
G02*
X269816660Y-139661701I32200J-39300D01*
G01*
X269752200Y-144663150D02*
G75*
G02*
X269816660Y-144741701I32200J-39300D01*
G01*
X269760500Y-130795850D02*
G75*
G02*
X269808378Y-130706292I23900J44800D01*
G01*
X269760500Y-135875850D02*
G75*
G02*
X269808378Y-135786292I23900J44800D01*
G01*
X269760500Y-138415850D02*
G75*
G02*
X269808378Y-138326292I23900J44800D01*
G01*
X269760500Y-140955850D02*
G75*
G02*
X269808378Y-140866292I23900J44800D01*
G01*
X269760500Y-146035850D02*
G75*
G02*
X269808378Y-145946292I23900J44800D01*
G01*
X269777400Y-132068950D02*
G75*
G02*
X269858315Y-132130462I40500J-30700D01*
G01*
X269777400Y-142228950D02*
G75*
G02*
X269858315Y-142290462I40500J-30700D01*
G01*
X269778400Y-132235650D02*
G75*
G02*
X269697515Y-132174162I-40400J30800D01*
G01*
X269778400Y-142395650D02*
G75*
G02*
X269697515Y-142334162I-40400J30800D01*
G01*
X269783600Y-133066350D02*
G75*
G02*
X269692300Y-133110950I-45660J-22280D01*
G01*
X269783600Y-143226350D02*
G75*
G02*
X269692300Y-143270950I-45660J-22280D01*
G01*
X269784200Y-133231850D02*
G75*
G02*
X269851500Y-133155750I33650J38050D01*
G01*
X269784200Y-143391850D02*
G75*
G02*
X269851500Y-143315750I33650J38050D01*
G01*
X269808400Y-129507250D02*
G75*
G02*
X269760478Y-129417608I-24000J44800D01*
G01*
X269808400Y-134587250D02*
G75*
G02*
X269760478Y-134497608I-24000J44800D01*
G01*
X269808400Y-137127250D02*
G75*
G02*
X269760478Y-137037608I-24000J44800D01*
G01*
X269808400Y-139667250D02*
G75*
G02*
X269760478Y-139577608I-24000J44800D01*
G01*
X269808400Y-144747250D02*
G75*
G02*
X269760478Y-144657608I-24000J44800D01*
G01*
X269816700Y-130711750D02*
G75*
G02*
X269752160Y-130790399I-32300J-39300D01*
G01*
X269816700Y-135791750D02*
G75*
G02*
X269752160Y-135870399I-32300J-39300D01*
G01*
X269816700Y-138331750D02*
G75*
G02*
X269752160Y-138410399I-32300J-39300D01*
G01*
X269816700Y-140871750D02*
G75*
G02*
X269752160Y-140950399I-32300J-39300D01*
G01*
X269816700Y-145951750D02*
G75*
G02*
X269752160Y-146030399I-32300J-39300D01*
G01*
X269851500Y-132137750D02*
G75*
G02*
X269784194Y-132061644I-33600J38100D01*
G01*
X269851500Y-142297750D02*
G75*
G02*
X269784194Y-142221644I-33600J38100D01*
G01*
X269858300Y-133163050D02*
G75*
G02*
X269777400Y-133224550I-40450J-30750D01*
G01*
X269858300Y-143323050D02*
G75*
G02*
X269777400Y-143384550I-40450J-30750D01*
G01*
X269881200Y-129353150D02*
G75*
G02*
X269929078Y-129442708I23900J-44800D01*
G01*
X269881200Y-134433150D02*
G75*
G02*
X269929078Y-134522708I23900J-44800D01*
G01*
X269881200Y-136973150D02*
G75*
G02*
X269929078Y-137062708I23900J-44800D01*
G01*
X269881200Y-139513150D02*
G75*
G02*
X269929078Y-139602708I23900J-44800D01*
G01*
X269881200Y-144593150D02*
G75*
G02*
X269929078Y-144682708I23900J-44800D01*
G01*
X269883200Y-131974050D02*
G75*
G02*
X269950506Y-132050156I33600J-38100D01*
G01*
X269883200Y-142134050D02*
G75*
G02*
X269950506Y-142210156I33600J-38100D01*
G01*
X269888600Y-132087950D02*
G75*
G02*
X269888600Y-131986350I0J50800D01*
G01*
X269888600Y-133307150D02*
G75*
G02*
X269888600Y-133205550I0J50800D01*
G01*
X269888600Y-142247950D02*
G75*
G02*
X269888600Y-142146350I0J50800D01*
G01*
X269888600Y-143467150D02*
G75*
G02*
X269888600Y-143365550I0J50800D01*
G01*
X269890500Y-130864150D02*
G75*
G02*
X269919900Y-130766950I14700J48600D01*
G01*
X269890500Y-135944150D02*
G75*
G02*
X269919900Y-135846950I14700J48600D01*
G01*
X269890500Y-138484150D02*
G75*
G02*
X269919900Y-138386950I14700J48600D01*
G01*
X269890500Y-141024150D02*
G75*
G02*
X269919900Y-140926950I14700J48600D01*
G01*
X269890500Y-146104150D02*
G75*
G02*
X269919900Y-146006950I14700J48600D01*
G01*
X269891200Y-133325250D02*
G75*
G02*
X269942400Y-133237450I25600J43900D01*
G01*
X269891200Y-143485250D02*
G75*
G02*
X269942400Y-143397450I25600J43900D01*
G01*
X269913000Y-129446350D02*
G75*
G02*
X269913000Y-129344750I0J50800D01*
G01*
X269913000Y-130868750D02*
G75*
G02*
X269913000Y-130767150I0J50800D01*
G01*
X269913000Y-134526350D02*
G75*
G02*
X269913000Y-134424750I0J50800D01*
G01*
X269913000Y-135948750D02*
G75*
G02*
X269913000Y-135847150I0J50800D01*
G01*
X269913000Y-139606350D02*
G75*
G02*
X269913000Y-139504750I0J50800D01*
G01*
X269913000Y-141028750D02*
G75*
G02*
X269913000Y-140927150I0J50800D01*
G01*
X269913000Y-144686350D02*
G75*
G02*
X269913000Y-144584750I0J50800D01*
G01*
X269913000Y-146108750D02*
G75*
G02*
X269913000Y-146007150I0J50800D01*
G01*
X269919900Y-129446550D02*
G75*
G02*
X269890500Y-129349350I-14700J48600D01*
G01*
X269919900Y-134526550D02*
G75*
G02*
X269890500Y-134429350I-14700J48600D01*
G01*
X269919900Y-137066550D02*
G75*
G02*
X269890500Y-136969350I-14700J48600D01*
G01*
X269919900Y-139606550D02*
G75*
G02*
X269890500Y-139509350I-14700J48600D01*
G01*
X269919900Y-144686550D02*
G75*
G02*
X269890500Y-144589350I-14700J48600D01*
G01*
X269929100Y-130770750D02*
G75*
G02*
X269881178Y-130860392I-24000J-44800D01*
G01*
X269929100Y-135850750D02*
G75*
G02*
X269881178Y-135940392I-24000J-44800D01*
G01*
X269929100Y-138390750D02*
G75*
G02*
X269881178Y-138480392I-24000J-44800D01*
G01*
X269929100Y-140930750D02*
G75*
G02*
X269881178Y-141020392I-24000J-44800D01*
G01*
X269929100Y-146010750D02*
G75*
G02*
X269881178Y-146100392I-24000J-44800D01*
G01*
X269942400Y-132056050D02*
G75*
G02*
X269891200Y-131968250I-25600J43900D01*
G01*
X269942400Y-142216050D02*
G75*
G02*
X269891200Y-142128250I-25600J43900D01*
G01*
X269950500Y-133243350D02*
G75*
G02*
X269883200Y-133319450I-33650J-38050D01*
G01*
X269950500Y-143403350D02*
G75*
G02*
X269883200Y-143479450I-33650J-38050D01*
G01*
X270005400Y-131901750D02*
G75*
G02*
X270056556Y-131989375I25600J-43800D01*
G01*
X270005400Y-142061750D02*
G75*
G02*
X270056644Y-142149525I25600J-43900D01*
G01*
X270014400Y-133395950D02*
G75*
G02*
X270047500Y-133299850I16550J48050D01*
G01*
X270014400Y-143555950D02*
G75*
G02*
X270047500Y-143459850I16550J48050D01*
G01*
X270021500Y-129309550D02*
G75*
G02*
X270051000Y-129406750I14750J-48600D01*
G01*
X270021500Y-134389550D02*
G75*
G02*
X270051000Y-134486750I14750J-48600D01*
G01*
X270021500Y-136929550D02*
G75*
G02*
X270051000Y-137026750I14750J-48600D01*
G01*
X270021500Y-139469550D02*
G75*
G02*
X270051000Y-139566750I14750J-48600D01*
G01*
X270021500Y-144549550D02*
G75*
G02*
X270051000Y-144646750I14750J-48600D01*
G01*
X270031200Y-130905850D02*
G75*
G02*
X270041200Y-130804750I5000J50550D01*
G01*
X270031200Y-135985850D02*
G75*
G02*
X270041200Y-135884750I5000J50550D01*
G01*
X270031200Y-138525850D02*
G75*
G02*
X270041200Y-138424750I5000J50550D01*
G01*
X270031200Y-141065850D02*
G75*
G02*
X270041200Y-140964750I5000J50550D01*
G01*
X270031200Y-146145850D02*
G75*
G02*
X270041200Y-146044750I5000J50550D01*
G01*
X270041200Y-129408750D02*
G75*
G02*
X270031200Y-129307650I-5000J50550D01*
G01*
X270041200Y-134488750D02*
G75*
G02*
X270031200Y-134387650I-5000J50550D01*
G01*
X270041200Y-137028750D02*
G75*
G02*
X270031200Y-136927650I-5000J50550D01*
G01*
X270041200Y-139568750D02*
G75*
G02*
X270031200Y-139467650I-5000J50550D01*
G01*
X270041200Y-144648750D02*
G75*
G02*
X270031200Y-144547650I-5000J50550D01*
G01*
X270047500Y-131993650D02*
G75*
G02*
X270014400Y-131897550I-16550J48050D01*
G01*
X270047500Y-142153650D02*
G75*
G02*
X270014400Y-142057550I-16550J48050D01*
G01*
X270051000Y-130806750D02*
G75*
G02*
X270021500Y-130903950I-14750J-48600D01*
G01*
X270051000Y-135886750D02*
G75*
G02*
X270021500Y-135983950I-14750J-48600D01*
G01*
X270051000Y-138426750D02*
G75*
G02*
X270021500Y-138523950I-14750J-48600D01*
G01*
X270051000Y-140966750D02*
G75*
G02*
X270021500Y-141063950I-14750J-48600D01*
G01*
X270051000Y-146046750D02*
G75*
G02*
X270021500Y-146143950I-14750J-48600D01*
G01*
X270056600Y-133304050D02*
G75*
G02*
X270005400Y-133391750I-25600J-43850D01*
G01*
X270056600Y-143464050D02*
G75*
G02*
X270005400Y-143551750I-25600J-43850D01*
G01*
X270139300Y-131854550D02*
G75*
G02*
X270172400Y-131950650I16550J-48050D01*
G01*
X270139300Y-142014550D02*
G75*
G02*
X270172400Y-142110650I16550J-48050D01*
G01*
X270149000Y-133441250D02*
G75*
G02*
X270162700Y-133340550I6850J50350D01*
G01*
X270149000Y-143601250D02*
G75*
G02*
X270162700Y-143500550I6850J50350D01*
G01*
X270162700Y-131952950D02*
G75*
G02*
X270149000Y-131852250I-6850J50350D01*
G01*
X270162700Y-142112950D02*
G75*
G02*
X270149000Y-142012250I-6850J50350D01*
G01*
X270167500Y-129294150D02*
G75*
G02*
X270177500Y-129395350I5000J-50600D01*
G01*
X270167500Y-134374150D02*
G75*
G02*
X270177500Y-134475350I5000J-50600D01*
G01*
X270167500Y-136914150D02*
G75*
G02*
X270177500Y-137015350I5000J-50600D01*
G01*
X270167500Y-139454150D02*
G75*
G02*
X270177500Y-139555350I5000J-50600D01*
G01*
X270167500Y-144534150D02*
G75*
G02*
X270177500Y-144635350I5000J-50600D01*
G01*
X270172400Y-133342850D02*
G75*
G02*
X270139300Y-133438950I-16550J-48050D01*
G01*
X270172400Y-143502850D02*
G75*
G02*
X270139300Y-143598950I-16550J-48050D01*
G01*
X270172500Y-129395550D02*
G75*
G02*
X270172500Y-129293950I0J50800D01*
G01*
X270172500Y-130919550D02*
G75*
G02*
X270172500Y-130817950I0J50800D01*
G01*
X270172500Y-134475550D02*
G75*
G02*
X270172500Y-134373950I0J50800D01*
G01*
X270172500Y-135999550D02*
G75*
G02*
X270172500Y-135897950I0J50800D01*
G01*
X270172500Y-137015550D02*
G75*
G02*
X270172500Y-136913950I0J50800D01*
G01*
X270172500Y-138539550D02*
G75*
G02*
X270172500Y-138437950I0J50800D01*
G01*
X270172500Y-139555550D02*
G75*
G02*
X270172500Y-139453950I0J50800D01*
G01*
X270172500Y-141079550D02*
G75*
G02*
X270172500Y-140977950I0J50800D01*
G01*
X270172500Y-144635550D02*
G75*
G02*
X270172500Y-144533950I0J50800D01*
G01*
X270172500Y-146159550D02*
G75*
G02*
X270172500Y-146057950I0J50800D01*
G01*
X270177500Y-130818150D02*
G75*
G02*
X270167500Y-130919350I-5000J-50600D01*
G01*
X270177500Y-135898150D02*
G75*
G02*
X270167500Y-135999350I-5000J-50600D01*
G01*
X270177500Y-138438150D02*
G75*
G02*
X270167500Y-138539350I-5000J-50600D01*
G01*
X270177500Y-140978150D02*
G75*
G02*
X270167500Y-141079350I-5000J-50600D01*
G01*
X270177500Y-146058150D02*
G75*
G02*
X270167500Y-146159350I-5000J-50600D01*
G01*
X270279900Y-131834450D02*
G75*
G02*
X270293700Y-131935050I6900J-50300D01*
G01*
X270279900Y-141994450D02*
G75*
G02*
X270293700Y-142095050I6900J-50300D01*
G01*
X270286800Y-131935550D02*
G75*
G02*
X270286800Y-131833950I0J50800D01*
G01*
X270286800Y-133459550D02*
G75*
G02*
X270286800Y-133357950I0J50800D01*
G01*
X270286800Y-142095550D02*
G75*
G02*
X270286800Y-141993950I0J50800D01*
G01*
X270286800Y-143619550D02*
G75*
G02*
X270286800Y-143517950I0J50800D01*
G01*
X270293700Y-133358450D02*
G75*
G02*
X270279900Y-133459050I-6900J-50300D01*
G01*
X270293700Y-143518450D02*
G75*
G02*
X270279900Y-143619050I-6900J-50300D01*
G01*
X271455200Y-129344750D02*
G75*
G02*
X271556800Y-129344750I50800J0D01*
G01*
X271455200Y-131884750D02*
G75*
G02*
X271556800Y-131884750I50800J0D01*
G01*
X271455200Y-134424750D02*
G75*
G02*
X271556800Y-134424750I50800J0D01*
G01*
X271455200Y-136964750D02*
G75*
G02*
X271556800Y-136964750I50800J0D01*
G01*
X271455200Y-139504750D02*
G75*
G02*
X271556800Y-139504750I50800J0D01*
G01*
X271455200Y-142044750D02*
G75*
G02*
X271556800Y-142044750I50800J0D01*
G01*
X271455200Y-144584750D02*
G75*
G02*
X271556800Y-144584750I50800J0D01*
G01*
X271474300Y-128836750D02*
G75*
G02*
X271537700Y-128836750I31700J0D01*
G01*
X271503500Y-129037750D02*
G75*
G02*
X271508500Y-129037750I2500J0D01*
G01*
X271503500Y-146362750D02*
G75*
G02*
X271508500Y-146362750I2500J0D01*
G01*
X271506000Y-128804950D02*
G75*
G02*
X271506000Y-128868550I0J-31800D01*
G01*
X271506000Y-129293950D02*
G75*
G02*
X271556800Y-129344750I0J-50800D01*
G01*
X271506000Y-129344750D02*
G75*
G02*
X271506000Y-129446350I0J-50800D01*
G01*
X271506000Y-129547950D02*
G75*
G02*
X271506000Y-129649550I0J-50800D01*
G01*
X271506000Y-129751150D02*
G75*
G02*
X271506000Y-129852750I0J-50800D01*
G01*
X271506000Y-129954350D02*
G75*
G02*
X271506000Y-130055950I0J-50800D01*
G01*
X271506000Y-130157550D02*
G75*
G02*
X271506000Y-130259150I0J-50800D01*
G01*
X271506000Y-130360750D02*
G75*
G02*
X271506000Y-130462350I0J-50800D01*
G01*
X271506000Y-130563950D02*
G75*
G02*
X271506000Y-130665550I0J-50800D01*
G01*
X271506000Y-130767150D02*
G75*
G02*
X271506000Y-130868750I0J-50800D01*
G01*
X271506000Y-130817950D02*
G75*
G02*
X271556800Y-130868750I0J-50800D01*
G01*
X271506000Y-131833950D02*
G75*
G02*
X271556800Y-131884750I0J-50800D01*
G01*
X271506000Y-131986350D02*
G75*
G02*
X271506000Y-132087950I0J-50800D01*
G01*
X271506000Y-132189550D02*
G75*
G02*
X271506000Y-132291150I0J-50800D01*
G01*
X271506000Y-132392750D02*
G75*
G02*
X271506000Y-132494350I0J-50800D01*
G01*
X271506000Y-132595950D02*
G75*
G02*
X271506000Y-132697550I0J-50800D01*
G01*
X271506000Y-132799150D02*
G75*
G02*
X271506000Y-132900750I0J-50800D01*
G01*
X271506000Y-133002350D02*
G75*
G02*
X271506000Y-133103950I0J-50800D01*
G01*
X271506000Y-133205550D02*
G75*
G02*
X271506000Y-133307150I0J-50800D01*
G01*
X271506000Y-133357950D02*
G75*
G02*
X271556800Y-133408750I0J-50800D01*
G01*
X271506000Y-134373950D02*
G75*
G02*
X271556800Y-134424750I0J-50800D01*
G01*
X271506000Y-134424750D02*
G75*
G02*
X271506000Y-134526350I0J-50800D01*
G01*
X271506000Y-134627950D02*
G75*
G02*
X271506000Y-134729550I0J-50800D01*
G01*
X271506000Y-134831150D02*
G75*
G02*
X271506000Y-134932750I0J-50800D01*
G01*
X271506000Y-135034350D02*
G75*
G02*
X271506000Y-135135950I0J-50800D01*
G01*
X271506000Y-135237550D02*
G75*
G02*
X271506000Y-135339150I0J-50800D01*
G01*
X271506000Y-135440750D02*
G75*
G02*
X271506000Y-135542350I0J-50800D01*
G01*
X271506000Y-135643950D02*
G75*
G02*
X271506000Y-135745550I0J-50800D01*
G01*
X271506000Y-135847150D02*
G75*
G02*
X271506000Y-135948750I0J-50800D01*
G01*
X271506000Y-135897950D02*
G75*
G02*
X271556800Y-135948750I0J-50800D01*
G01*
X271506000Y-136913950D02*
G75*
G02*
X271556800Y-136964750I0J-50800D01*
G01*
X271506000Y-137066350D02*
G75*
G02*
X271506000Y-137167950I0J-50800D01*
G01*
X271506000Y-137269550D02*
G75*
G02*
X271506000Y-137371150I0J-50800D01*
G01*
X271506000Y-137472750D02*
G75*
G02*
X271506000Y-137574350I0J-50800D01*
G01*
X271506000Y-137675950D02*
G75*
G02*
X271506000Y-137777550I0J-50800D01*
G01*
X271506000Y-137879150D02*
G75*
G02*
X271506000Y-137980750I0J-50800D01*
G01*
X271506000Y-138082350D02*
G75*
G02*
X271506000Y-138183950I0J-50800D01*
G01*
X271506000Y-138285550D02*
G75*
G02*
X271506000Y-138387150I0J-50800D01*
G01*
X271506000Y-138437950D02*
G75*
G02*
X271556800Y-138488750I0J-50800D01*
G01*
X271506000Y-139453950D02*
G75*
G02*
X271556800Y-139504750I0J-50800D01*
G01*
X271506000Y-139504750D02*
G75*
G02*
X271506000Y-139606350I0J-50800D01*
G01*
X271506000Y-139707950D02*
G75*
G02*
X271506000Y-139809550I0J-50800D01*
G01*
X271506000Y-139911150D02*
G75*
G02*
X271506000Y-140012750I0J-50800D01*
G01*
X271506000Y-140114350D02*
G75*
G02*
X271506000Y-140215950I0J-50800D01*
G01*
X271506000Y-140317550D02*
G75*
G02*
X271506000Y-140419150I0J-50800D01*
G01*
X271506000Y-140520750D02*
G75*
G02*
X271506000Y-140622350I0J-50800D01*
G01*
X271506000Y-140723950D02*
G75*
G02*
X271506000Y-140825550I0J-50800D01*
G01*
X271506000Y-140927150D02*
G75*
G02*
X271506000Y-141028750I0J-50800D01*
G01*
X271506000Y-140977950D02*
G75*
G02*
X271556800Y-141028750I0J-50800D01*
G01*
X271506000Y-141993950D02*
G75*
G02*
X271556800Y-142044750I0J-50800D01*
G01*
X271506000Y-142146350D02*
G75*
G02*
X271506000Y-142247950I0J-50800D01*
G01*
X271506000Y-142349550D02*
G75*
G02*
X271506000Y-142451150I0J-50800D01*
G01*
X271506000Y-142552750D02*
G75*
G02*
X271506000Y-142654350I0J-50800D01*
G01*
X271506000Y-142755950D02*
G75*
G02*
X271506000Y-142857550I0J-50800D01*
G01*
X271506000Y-142959150D02*
G75*
G02*
X271506000Y-143060750I0J-50800D01*
G01*
X271506000Y-143162350D02*
G75*
G02*
X271506000Y-143263950I0J-50800D01*
G01*
X271506000Y-143365550D02*
G75*
G02*
X271506000Y-143467150I0J-50800D01*
G01*
X271506000Y-143517950D02*
G75*
G02*
X271556800Y-143568750I0J-50800D01*
G01*
X271506000Y-144533950D02*
G75*
G02*
X271556800Y-144584750I0J-50800D01*
G01*
X271506000Y-144584750D02*
G75*
G02*
X271506000Y-144686350I0J-50800D01*
G01*
X271506000Y-144787950D02*
G75*
G02*
X271506000Y-144889550I0J-50800D01*
G01*
X271506000Y-144991150D02*
G75*
G02*
X271506000Y-145092750I0J-50800D01*
G01*
X271506000Y-145194350D02*
G75*
G02*
X271506000Y-145295950I0J-50800D01*
G01*
X271506000Y-145397550D02*
G75*
G02*
X271506000Y-145499150I0J-50800D01*
G01*
X271506000Y-145600750D02*
G75*
G02*
X271506000Y-145702350I0J-50800D01*
G01*
X271506000Y-145803950D02*
G75*
G02*
X271506000Y-145905550I0J-50800D01*
G01*
X271506000Y-146007150D02*
G75*
G02*
X271506000Y-146108750I0J-50800D01*
G01*
X271506000Y-146057950D02*
G75*
G02*
X271556800Y-146108750I0J-50800D01*
G01*
X271506000Y-146362750D02*
G75*
G02*
X269601000Y-148267750I-1905001J1D01*
G01*
X271506000Y-146362750D02*
G75*
G02*
X269601000Y-148267750I-1905001J1D01*
G01*
X271506000Y-146585050D02*
G75*
G02*
X271506000Y-146648550I0J-31750D01*
G01*
X271508500Y-129037750D02*
G75*
G02*
X271503500Y-129037750I-2500J0D01*
G01*
X271508500Y-146362750D02*
G75*
G02*
X271503500Y-146362750I-2500J0D01*
G01*
X271537700Y-146616750D02*
G75*
G02*
X271474300Y-146616750I-31700J0D01*
G01*
X271556800Y-129344750D02*
G75*
G02*
X271506000Y-129395550I-50800J0D01*
G01*
X271556800Y-130868750D02*
G75*
G02*
X271455200Y-130868750I-50800J0D01*
G01*
X271556800Y-130868750D02*
G75*
G02*
X271506000Y-130919550I-50800J0D01*
G01*
X271556800Y-131884750D02*
G75*
G02*
X271506000Y-131935550I-50800J0D01*
G01*
X271556800Y-133408750D02*
G75*
G02*
X271455200Y-133408750I-50800J0D01*
G01*
X271556800Y-133408750D02*
G75*
G02*
X271506000Y-133459550I-50800J0D01*
G01*
X271556800Y-134424750D02*
G75*
G02*
X271506000Y-134475550I-50800J0D01*
G01*
X271556800Y-135948750D02*
G75*
G02*
X271455200Y-135948750I-50800J0D01*
G01*
X271556800Y-135948750D02*
G75*
G02*
X271506000Y-135999550I-50800J0D01*
G01*
X271556800Y-136964750D02*
G75*
G02*
X271506000Y-137015550I-50800J0D01*
G01*
X271556800Y-138488750D02*
G75*
G02*
X271455200Y-138488750I-50800J0D01*
G01*
X271556800Y-138488750D02*
G75*
G02*
X271506000Y-138539550I-50800J0D01*
G01*
X271556800Y-139504750D02*
G75*
G02*
X271506000Y-139555550I-50800J0D01*
G01*
X271556800Y-141028750D02*
G75*
G02*
X271455200Y-141028750I-50800J0D01*
G01*
X271556800Y-141028750D02*
G75*
G02*
X271506000Y-141079550I-50800J0D01*
G01*
X271556800Y-142044750D02*
G75*
G02*
X271506000Y-142095550I-50800J0D01*
G01*
X271556800Y-143568750D02*
G75*
G02*
X271455200Y-143568750I-50800J0D01*
G01*
X271556800Y-143568750D02*
G75*
G02*
X271506000Y-143619550I-50800J0D01*
G01*
X271556800Y-144584750D02*
G75*
G02*
X271506000Y-144635550I-50800J0D01*
G01*
X271556800Y-146108750D02*
G75*
G02*
X271455200Y-146108750I-50800J0D01*
G01*
X271556800Y-146108750D02*
G75*
G02*
X271506000Y-146159550I-50800J0D01*
G01*
X260026000Y-143525750D02*
G75*
G02*
X259426000Y-143525750I-300000J0D01*
G01*
X259426000Y-143525750D02*
G75*
G02*
X260026000Y-143525750I300000J0D01*
G01*
X265806000Y-143525750D02*
G75*
G02*
X265206000Y-143525750I-300000J0D01*
G01*
X265206000Y-143525750D02*
G75*
G02*
X265806000Y-143525750I300000J0D01*
G01*
D12*
G36*
X262871000Y-136977750D02*
G01*
X260121000Y-136977750D01*
X260121000Y-134477750D01*
X262871000Y-134477750D01*
X262871000Y-136977750D01*
G37*
D10*
%TO.C,H4*%
X269850000Y-123190000D02*
G75*
G02*
X263450000Y-123190000I-3200000J0D01*
G01*
X263450000Y-123190000D02*
G75*
G02*
X269850000Y-123190000I3200000J0D01*
G01*
%TO.C,H3*%
X250850000Y-142190000D02*
G75*
G02*
X244450000Y-142190000I-3200000J0D01*
G01*
X244450000Y-142190000D02*
G75*
G02*
X250850000Y-142190000I3200000J0D01*
G01*
%TO.C,H1*%
X231850000Y-123190000D02*
G75*
G02*
X225450000Y-123190000I-3200000J0D01*
G01*
X225450000Y-123190000D02*
G75*
G02*
X231850000Y-123190000I3200000J0D01*
G01*
%TD*%
M02*
