%TF.GenerationSoftware,KiCad,Pcbnew,8.0.4*%
%TF.CreationDate,2024-11-29T22:55:19-05:00*%
%TF.ProjectId,foc_pcb,666f635f-7063-4622-9e6b-696361645f70,2.0*%
%TF.SameCoordinates,Original*%
%TF.FileFunction,Copper,L3,Inr*%
%TF.FilePolarity,Positive*%
%FSLAX46Y46*%
G04 Gerber Fmt 4.6, Leading zero omitted, Abs format (unit mm)*
G04 Created by KiCad (PCBNEW 8.0.4) date 2024-11-29 22:55:19*
%MOMM*%
%LPD*%
G01*
G04 APERTURE LIST*
%TA.AperFunction,ComponentPad*%
%ADD10R,1.700000X1.700000*%
%TD*%
%TA.AperFunction,ComponentPad*%
%ADD11O,1.700000X1.700000*%
%TD*%
%TA.AperFunction,ComponentPad*%
%ADD12O,0.900000X1.800000*%
%TD*%
%TA.AperFunction,ComponentPad*%
%ADD13R,3.716000X3.716000*%
%TD*%
%TA.AperFunction,ComponentPad*%
%ADD14C,3.716000*%
%TD*%
%TA.AperFunction,ComponentPad*%
%ADD15O,2.400000X1.200000*%
%TD*%
%TA.AperFunction,ViaPad*%
%ADD16C,0.800000*%
%TD*%
G04 APERTURE END LIST*
D10*
%TO.N,GND*%
%TO.C,J4*%
X231140000Y-143510000D03*
D11*
X231140000Y-146050000D03*
%TO.N,+5V*%
X228600000Y-143510000D03*
%TO.N,+3.3V*%
X228600000Y-146050000D03*
%TD*%
D12*
%TO.N,unconnected-(J12-SHIELD__4-PadS5)*%
%TO.C,J12*%
X232660000Y-99060000D03*
%TO.N,unconnected-(J12-SHIELD__5-PadS6)*%
X226060000Y-99060000D03*
%TD*%
D13*
%TO.N,VCC*%
%TO.C,J5*%
X209200000Y-128480000D03*
D14*
%TO.N,GND*%
X209200000Y-135680000D03*
D15*
%TO.N,N/C*%
X203200000Y-125330000D03*
X203200000Y-138830000D03*
%TD*%
D10*
%TO.N,+3.3V*%
%TO.C,J1*%
X259140000Y-116870000D03*
D11*
%TO.N,GND*%
X259140000Y-114330000D03*
%TO.N,/esp_scl_1*%
X259140000Y-111790000D03*
%TO.N,/esp_sda_1*%
X259140000Y-109250000D03*
%TO.N,unconnected-(J1-Pin_5-Pad5)*%
X259140000Y-106710000D03*
%TO.N,unconnected-(J1-Pin_6-Pad6)*%
X259140000Y-104170000D03*
%TO.N,unconnected-(J1-Pin_7-Pad7)*%
X259140000Y-101630000D03*
%TO.N,unconnected-(J1-Pin_8-Pad8)*%
X259140000Y-99090000D03*
%TD*%
D10*
%TO.N,/out1*%
%TO.C,J3*%
X234950000Y-146050000D03*
D11*
%TO.N,/out2*%
X237490000Y-146050000D03*
%TO.N,/out3*%
X240030000Y-146050000D03*
%TD*%
D10*
%TO.N,/esp_scl_0*%
%TO.C,J2*%
X213360000Y-146050000D03*
D11*
%TO.N,/esp_sda_0*%
X215900000Y-146050000D03*
%TD*%
D13*
%TO.N,VCC*%
%TO.C,J6*%
X209200000Y-111100000D03*
D14*
%TO.N,GND*%
X209200000Y-118300000D03*
D15*
%TO.N,N/C*%
X203200000Y-107950000D03*
X203200000Y-121450000D03*
%TD*%
D10*
%TO.N,/miso*%
%TO.C,J10*%
X219710000Y-146050000D03*
D11*
%TO.N,/sck*%
X219710000Y-143510000D03*
%TO.N,/rst*%
X222250000Y-146050000D03*
%TO.N,+5V*%
X222250000Y-143510000D03*
%TO.N,/mosi*%
X224790000Y-146050000D03*
%TO.N,GND*%
X224790000Y-143510000D03*
%TD*%
D16*
%TO.N,+5V*%
X252222000Y-145432750D03*
%TO.N,GND*%
X240030000Y-124460000D03*
X252730000Y-107950000D03*
X237490000Y-124460000D03*
X237490000Y-125730000D03*
X215900000Y-119380000D03*
X236220000Y-125730000D03*
X219710000Y-107950000D03*
X251460000Y-133350000D03*
X252730000Y-125730000D03*
X238760001Y-125730000D03*
X242570000Y-107950000D03*
X220980000Y-111760000D03*
X236220000Y-124460000D03*
X245110000Y-127000000D03*
X219710000Y-104140000D03*
X240030000Y-125730000D03*
X252222000Y-143510000D03*
X226060000Y-107950000D03*
X203200000Y-143510000D03*
X227166282Y-104043427D03*
X236220000Y-111760000D03*
X234950000Y-114300000D03*
X238760000Y-124460000D03*
X234950000Y-104140000D03*
%TO.N,+3.3V*%
X246380000Y-125730000D03*
X248920000Y-128270000D03*
%TO.N,VCC*%
X242512900Y-135890000D03*
X236220000Y-130810000D03*
%TO.N,+5V*%
X246380000Y-114300000D03*
X252730000Y-119380000D03*
X220980000Y-104140000D03*
X224790000Y-136435000D03*
X236220000Y-110490000D03*
X224790000Y-132625000D03*
X224790000Y-120650000D03*
X234950000Y-102870000D03*
X233680000Y-118110000D03*
X212090000Y-143510000D03*
X212981652Y-104288065D03*
X224790000Y-128815000D03*
%TO.N,/rst*%
X223520000Y-121920000D03*
X255270000Y-114300000D03*
X228600000Y-116840000D03*
%TO.N,/sda*%
X226060000Y-116840000D03*
%TO.N,/scl*%
X227330000Y-116840000D03*
%TO.N,/ud+*%
X241300000Y-115570000D03*
X233680000Y-106680000D03*
%TO.N,/ud-*%
X241300000Y-116840000D03*
X233680000Y-105410000D03*
%TO.N,Net-(U5-TXD)*%
X238760000Y-115570000D03*
X232543980Y-119246020D03*
%TO.N,/sck*%
X223520000Y-127545000D03*
X222250000Y-106680000D03*
%TO.N,Net-(U2-PD7)*%
X241300000Y-119380000D03*
X227330000Y-107950000D03*
%TO.N,/en*%
X231140000Y-119380000D03*
X243839696Y-119644999D03*
%TO.N,/esp_sck*%
X236220000Y-134620000D03*
X218440000Y-129690200D03*
X251460000Y-134620000D03*
X227330000Y-132080000D03*
%TO.N,/esp_mosi*%
X234950000Y-138430000D03*
X251460000Y-137160000D03*
%TO.N,/in1*%
X232982750Y-121421020D03*
X233680000Y-114300000D03*
%TO.N,/in2*%
X229870000Y-107950000D03*
X234950000Y-119971020D03*
%TO.N,/in3*%
X237787347Y-120947347D03*
X228600000Y-109220000D03*
%TO.N,/esp_miso*%
X218440000Y-132080000D03*
X251460000Y-135890000D03*
X236220000Y-135890000D03*
X227330000Y-133350000D03*
%TO.N,/miso*%
X223520000Y-131355000D03*
X222250000Y-104140000D03*
%TO.N,/mosi*%
X227545223Y-137375223D03*
X224790000Y-109220000D03*
%TO.N,/esp_scl_0*%
X267970000Y-135890000D03*
%TO.N,/esp_sda_0*%
X268146689Y-141428750D03*
%TD*%
%TA.AperFunction,Conductor*%
%TO.N,GND*%
G36*
X225052539Y-99079685D02*
G01*
X225098294Y-99132489D01*
X225109500Y-99184000D01*
X225109500Y-99603620D01*
X225146025Y-99787243D01*
X225146027Y-99787251D01*
X225217676Y-99960228D01*
X225217681Y-99960237D01*
X225321697Y-100115907D01*
X225321700Y-100115911D01*
X225454088Y-100248299D01*
X225454092Y-100248302D01*
X225609762Y-100352318D01*
X225609768Y-100352321D01*
X225609769Y-100352322D01*
X225782749Y-100423973D01*
X225943585Y-100455965D01*
X225966379Y-100460499D01*
X225966383Y-100460500D01*
X225966384Y-100460500D01*
X226153617Y-100460500D01*
X226153618Y-100460499D01*
X226337251Y-100423973D01*
X226510231Y-100352322D01*
X226665908Y-100248302D01*
X226798302Y-100115908D01*
X226902322Y-99960231D01*
X226973973Y-99787251D01*
X227010500Y-99603616D01*
X227010500Y-99184000D01*
X227030185Y-99116961D01*
X227082989Y-99071206D01*
X227134500Y-99060000D01*
X231585500Y-99060000D01*
X231652539Y-99079685D01*
X231698294Y-99132489D01*
X231709500Y-99184000D01*
X231709500Y-99603620D01*
X231746025Y-99787243D01*
X231746027Y-99787251D01*
X231817676Y-99960228D01*
X231817681Y-99960237D01*
X231921697Y-100115907D01*
X231921700Y-100115911D01*
X232054088Y-100248299D01*
X232054092Y-100248302D01*
X232209762Y-100352318D01*
X232209768Y-100352321D01*
X232209769Y-100352322D01*
X232382749Y-100423973D01*
X232543585Y-100455965D01*
X232566379Y-100460499D01*
X232566383Y-100460500D01*
X232566384Y-100460500D01*
X232753617Y-100460500D01*
X232753618Y-100460499D01*
X232937251Y-100423973D01*
X233110231Y-100352322D01*
X233265908Y-100248302D01*
X233398302Y-100115908D01*
X233502322Y-99960231D01*
X233573973Y-99787251D01*
X233610500Y-99603616D01*
X233610500Y-99184000D01*
X233630185Y-99116961D01*
X233682989Y-99071206D01*
X233734500Y-99060000D01*
X257668092Y-99060000D01*
X257735131Y-99079685D01*
X257780886Y-99132489D01*
X257791620Y-99173193D01*
X257804936Y-99325402D01*
X257804938Y-99325413D01*
X257866094Y-99553655D01*
X257866096Y-99553659D01*
X257866097Y-99553663D01*
X257929891Y-99690469D01*
X257965965Y-99767830D01*
X257965967Y-99767834D01*
X258101501Y-99961395D01*
X258101506Y-99961402D01*
X258268597Y-100128493D01*
X258268603Y-100128498D01*
X258454158Y-100258425D01*
X258497783Y-100313002D01*
X258504977Y-100382500D01*
X258473454Y-100444855D01*
X258454158Y-100461575D01*
X258268597Y-100591505D01*
X258101505Y-100758597D01*
X257965965Y-100952169D01*
X257965964Y-100952171D01*
X257866098Y-101166335D01*
X257866094Y-101166344D01*
X257804938Y-101394586D01*
X257804936Y-101394596D01*
X257784341Y-101629999D01*
X257784341Y-101630000D01*
X257804936Y-101865403D01*
X257804938Y-101865413D01*
X257866094Y-102093655D01*
X257866096Y-102093659D01*
X257866097Y-102093663D01*
X257914336Y-102197111D01*
X257965965Y-102307830D01*
X257965967Y-102307834D01*
X258101501Y-102501395D01*
X258101506Y-102501402D01*
X258268597Y-102668493D01*
X258268603Y-102668498D01*
X258454158Y-102798425D01*
X258497783Y-102853002D01*
X258504977Y-102922500D01*
X258473454Y-102984855D01*
X258454158Y-103001575D01*
X258268597Y-103131505D01*
X258101505Y-103298597D01*
X257965965Y-103492169D01*
X257965964Y-103492171D01*
X257866098Y-103706335D01*
X257866094Y-103706344D01*
X257804938Y-103934586D01*
X257804936Y-103934596D01*
X257784341Y-104169999D01*
X257784341Y-104170000D01*
X257804936Y-104405403D01*
X257804938Y-104405413D01*
X257866094Y-104633655D01*
X257866096Y-104633659D01*
X257866097Y-104633663D01*
X257876676Y-104656349D01*
X257965965Y-104847830D01*
X257965967Y-104847834D01*
X258101501Y-105041395D01*
X258101506Y-105041402D01*
X258268597Y-105208493D01*
X258268603Y-105208498D01*
X258454158Y-105338425D01*
X258497783Y-105393002D01*
X258504977Y-105462500D01*
X258473454Y-105524855D01*
X258454158Y-105541575D01*
X258268597Y-105671505D01*
X258101505Y-105838597D01*
X257965965Y-106032169D01*
X257965964Y-106032171D01*
X257866098Y-106246335D01*
X257866094Y-106246344D01*
X257804938Y-106474586D01*
X257804936Y-106474596D01*
X257784341Y-106709999D01*
X257784341Y-106710000D01*
X257804936Y-106945403D01*
X257804938Y-106945413D01*
X257866094Y-107173655D01*
X257866096Y-107173659D01*
X257866097Y-107173663D01*
X257965965Y-107387830D01*
X257965967Y-107387834D01*
X258101501Y-107581395D01*
X258101506Y-107581402D01*
X258268597Y-107748493D01*
X258268603Y-107748498D01*
X258454158Y-107878425D01*
X258497783Y-107933002D01*
X258504977Y-108002500D01*
X258473454Y-108064855D01*
X258454158Y-108081575D01*
X258268597Y-108211505D01*
X258101505Y-108378597D01*
X257965965Y-108572169D01*
X257965964Y-108572171D01*
X257866098Y-108786335D01*
X257866094Y-108786344D01*
X257804938Y-109014586D01*
X257804936Y-109014596D01*
X257784341Y-109249999D01*
X257784341Y-109250000D01*
X257804936Y-109485403D01*
X257804938Y-109485413D01*
X257866094Y-109713655D01*
X257866096Y-109713659D01*
X257866097Y-109713663D01*
X257884074Y-109752214D01*
X257965965Y-109927830D01*
X257965967Y-109927834D01*
X258101501Y-110121395D01*
X258101506Y-110121402D01*
X258268597Y-110288493D01*
X258268603Y-110288498D01*
X258454158Y-110418425D01*
X258497783Y-110473002D01*
X258504977Y-110542500D01*
X258473454Y-110604855D01*
X258454158Y-110621575D01*
X258268597Y-110751505D01*
X258101505Y-110918597D01*
X257965965Y-111112169D01*
X257965964Y-111112171D01*
X257866098Y-111326335D01*
X257866094Y-111326344D01*
X257804938Y-111554586D01*
X257804936Y-111554596D01*
X257784341Y-111789999D01*
X257784341Y-111790000D01*
X257804936Y-112025403D01*
X257804938Y-112025413D01*
X257866094Y-112253655D01*
X257866096Y-112253659D01*
X257866097Y-112253663D01*
X257965965Y-112467830D01*
X257965967Y-112467834D01*
X258101501Y-112661395D01*
X258101506Y-112661402D01*
X258268597Y-112828493D01*
X258268603Y-112828498D01*
X258454594Y-112958730D01*
X258498219Y-113013307D01*
X258505413Y-113082805D01*
X258473890Y-113145160D01*
X258454595Y-113161880D01*
X258268922Y-113291890D01*
X258268920Y-113291891D01*
X258101891Y-113458920D01*
X258101886Y-113458926D01*
X257966400Y-113652420D01*
X257966399Y-113652422D01*
X257866570Y-113866507D01*
X257866567Y-113866513D01*
X257809364Y-114079999D01*
X257809364Y-114080000D01*
X258706988Y-114080000D01*
X258674075Y-114137007D01*
X258640000Y-114264174D01*
X258640000Y-114395826D01*
X258674075Y-114522993D01*
X258706988Y-114580000D01*
X257809364Y-114580000D01*
X257866567Y-114793486D01*
X257866570Y-114793492D01*
X257966399Y-115007578D01*
X258101894Y-115201082D01*
X258223946Y-115323134D01*
X258257431Y-115384457D01*
X258252447Y-115454149D01*
X258210575Y-115510082D01*
X258179598Y-115526997D01*
X258047671Y-115576202D01*
X258047664Y-115576206D01*
X257932455Y-115662452D01*
X257932452Y-115662455D01*
X257846206Y-115777664D01*
X257846202Y-115777671D01*
X257795908Y-115912517D01*
X257791109Y-115957159D01*
X257789501Y-115972123D01*
X257789500Y-115972135D01*
X257789500Y-117767870D01*
X257789501Y-117767876D01*
X257795908Y-117827483D01*
X257846202Y-117962328D01*
X257846206Y-117962335D01*
X257932452Y-118077544D01*
X257932455Y-118077547D01*
X258047664Y-118163793D01*
X258047671Y-118163797D01*
X258182517Y-118214091D01*
X258182516Y-118214091D01*
X258189444Y-118214835D01*
X258242127Y-118220500D01*
X260037872Y-118220499D01*
X260097483Y-118214091D01*
X260232331Y-118163796D01*
X260347546Y-118077546D01*
X260433796Y-117962331D01*
X260484091Y-117827483D01*
X260490500Y-117767873D01*
X260490499Y-115972128D01*
X260484091Y-115912517D01*
X260433796Y-115777669D01*
X260433795Y-115777668D01*
X260433793Y-115777664D01*
X260347547Y-115662455D01*
X260347544Y-115662452D01*
X260232335Y-115576206D01*
X260232328Y-115576202D01*
X260100401Y-115526997D01*
X260044467Y-115485126D01*
X260020050Y-115419662D01*
X260034902Y-115351389D01*
X260056053Y-115323133D01*
X260178108Y-115201078D01*
X260313600Y-115007578D01*
X260413429Y-114793492D01*
X260413432Y-114793486D01*
X260470636Y-114580000D01*
X259573012Y-114580000D01*
X259605925Y-114522993D01*
X259640000Y-114395826D01*
X259640000Y-114264174D01*
X259605925Y-114137007D01*
X259573012Y-114080000D01*
X260470636Y-114080000D01*
X260470635Y-114079999D01*
X260413432Y-113866513D01*
X260413429Y-113866507D01*
X260313600Y-113652422D01*
X260313599Y-113652420D01*
X260178113Y-113458926D01*
X260178108Y-113458920D01*
X260011078Y-113291890D01*
X259825405Y-113161879D01*
X259781780Y-113107302D01*
X259774588Y-113037804D01*
X259806110Y-112975449D01*
X259825406Y-112958730D01*
X260011401Y-112828495D01*
X260178495Y-112661401D01*
X260314035Y-112467830D01*
X260413903Y-112253663D01*
X260475063Y-112025408D01*
X260495659Y-111790000D01*
X260475063Y-111554592D01*
X260413903Y-111326337D01*
X260314035Y-111112171D01*
X260178495Y-110918599D01*
X260178494Y-110918597D01*
X260011402Y-110751506D01*
X260011396Y-110751501D01*
X259825842Y-110621575D01*
X259782217Y-110566998D01*
X259775023Y-110497500D01*
X259806546Y-110435145D01*
X259825842Y-110418425D01*
X259992485Y-110301740D01*
X260011401Y-110288495D01*
X260178495Y-110121401D01*
X260314035Y-109927830D01*
X260413903Y-109713663D01*
X260475063Y-109485408D01*
X260495659Y-109250000D01*
X260475063Y-109014592D01*
X260428626Y-108841285D01*
X260413905Y-108786344D01*
X260413904Y-108786343D01*
X260413903Y-108786337D01*
X260314035Y-108572171D01*
X260218584Y-108435851D01*
X260178494Y-108378597D01*
X260011402Y-108211506D01*
X260011396Y-108211501D01*
X259825842Y-108081575D01*
X259782217Y-108026998D01*
X259775023Y-107957500D01*
X259806546Y-107895145D01*
X259825842Y-107878425D01*
X259992485Y-107761740D01*
X260011401Y-107748495D01*
X260178495Y-107581401D01*
X260314035Y-107387830D01*
X260413903Y-107173663D01*
X260475063Y-106945408D01*
X260495659Y-106710000D01*
X260475063Y-106474592D01*
X260413903Y-106246337D01*
X260314035Y-106032171D01*
X260309030Y-106025022D01*
X260178494Y-105838597D01*
X260011402Y-105671506D01*
X260011396Y-105671501D01*
X259825842Y-105541575D01*
X259782217Y-105486998D01*
X259775023Y-105417500D01*
X259806546Y-105355145D01*
X259825842Y-105338425D01*
X259992485Y-105221740D01*
X260011401Y-105208495D01*
X260178495Y-105041401D01*
X260314035Y-104847830D01*
X260413903Y-104633663D01*
X260475063Y-104405408D01*
X260495659Y-104170000D01*
X260475063Y-103934592D01*
X260413903Y-103706337D01*
X260314035Y-103492171D01*
X260290670Y-103458801D01*
X260178494Y-103298597D01*
X260011402Y-103131506D01*
X260011396Y-103131501D01*
X259825842Y-103001575D01*
X259782217Y-102946998D01*
X259775023Y-102877500D01*
X259806546Y-102815145D01*
X259825842Y-102798425D01*
X259992485Y-102681740D01*
X260011401Y-102668495D01*
X260178495Y-102501401D01*
X260314035Y-102307830D01*
X260413903Y-102093663D01*
X260475063Y-101865408D01*
X260495659Y-101630000D01*
X260475063Y-101394592D01*
X260413903Y-101166337D01*
X260314035Y-100952171D01*
X260178495Y-100758599D01*
X260178494Y-100758597D01*
X260011402Y-100591506D01*
X260011396Y-100591501D01*
X259825842Y-100461575D01*
X259782217Y-100406998D01*
X259775023Y-100337500D01*
X259806546Y-100275145D01*
X259825842Y-100258425D01*
X259864353Y-100231459D01*
X260011401Y-100128495D01*
X260178495Y-99961401D01*
X260314035Y-99767830D01*
X260413903Y-99553663D01*
X260475063Y-99325408D01*
X260488380Y-99173191D01*
X260513832Y-99108124D01*
X260570423Y-99067145D01*
X260611908Y-99060000D01*
X271334588Y-99060000D01*
X271401627Y-99079685D01*
X271408897Y-99084732D01*
X271440145Y-99108124D01*
X271511061Y-99161211D01*
X271524431Y-99172797D01*
X271667202Y-99315568D01*
X271678788Y-99328938D01*
X271799798Y-99490587D01*
X271809357Y-99505462D01*
X271906128Y-99682685D01*
X271913474Y-99698771D01*
X271984041Y-99887967D01*
X271989025Y-99904943D01*
X272031944Y-100102239D01*
X272034462Y-100119750D01*
X272049184Y-100325580D01*
X272049500Y-100334427D01*
X272049500Y-146045572D01*
X272049184Y-146054419D01*
X272034462Y-146260249D01*
X272031944Y-146277760D01*
X271989025Y-146475056D01*
X271984041Y-146492032D01*
X271913474Y-146681228D01*
X271906125Y-146697319D01*
X271889466Y-146727830D01*
X271809364Y-146874527D01*
X271799798Y-146889412D01*
X271678788Y-147051061D01*
X271667202Y-147064431D01*
X271524431Y-147207202D01*
X271511061Y-147218788D01*
X271349412Y-147339798D01*
X271334530Y-147349361D01*
X271270551Y-147384297D01*
X271157320Y-147446125D01*
X271141228Y-147453474D01*
X270952032Y-147524041D01*
X270935056Y-147529025D01*
X270737760Y-147571944D01*
X270720249Y-147574462D01*
X270531400Y-147587969D01*
X270514417Y-147589184D01*
X270505572Y-147589500D01*
X240444315Y-147589500D01*
X240377276Y-147569815D01*
X240331521Y-147517011D01*
X240321577Y-147447853D01*
X240350602Y-147384297D01*
X240409380Y-147346523D01*
X240412222Y-147345725D01*
X240461039Y-147332644D01*
X240493663Y-147323903D01*
X240707830Y-147224035D01*
X240901401Y-147088495D01*
X241068495Y-146921401D01*
X241204035Y-146727830D01*
X241303903Y-146513663D01*
X241365063Y-146285408D01*
X241385659Y-146050000D01*
X241365063Y-145814592D01*
X241303903Y-145586337D01*
X241232284Y-145432750D01*
X251316540Y-145432750D01*
X251336326Y-145621006D01*
X251336327Y-145621009D01*
X251394818Y-145801027D01*
X251394821Y-145801034D01*
X251489467Y-145964966D01*
X251566032Y-146050000D01*
X251616129Y-146105638D01*
X251769265Y-146216898D01*
X251769270Y-146216901D01*
X251942192Y-146293892D01*
X251942197Y-146293894D01*
X252127354Y-146333250D01*
X252127355Y-146333250D01*
X252316644Y-146333250D01*
X252316646Y-146333250D01*
X252501803Y-146293894D01*
X252674730Y-146216901D01*
X252827871Y-146105638D01*
X252954533Y-145964966D01*
X253049179Y-145801034D01*
X253107674Y-145621006D01*
X253127460Y-145432750D01*
X253107674Y-145244494D01*
X253049179Y-145064466D01*
X252954533Y-144900534D01*
X252827871Y-144759862D01*
X252824620Y-144757500D01*
X252674734Y-144648601D01*
X252674729Y-144648598D01*
X252501807Y-144571607D01*
X252501802Y-144571605D01*
X252356001Y-144540615D01*
X252316646Y-144532250D01*
X252127354Y-144532250D01*
X252094897Y-144539148D01*
X251942197Y-144571605D01*
X251942192Y-144571607D01*
X251769270Y-144648598D01*
X251769265Y-144648601D01*
X251616129Y-144759861D01*
X251489466Y-144900535D01*
X251394821Y-145064465D01*
X251394818Y-145064472D01*
X251357632Y-145178920D01*
X251336326Y-145244494D01*
X251316540Y-145432750D01*
X241232284Y-145432750D01*
X241204035Y-145372171D01*
X241198731Y-145364595D01*
X241068494Y-145178597D01*
X240901402Y-145011506D01*
X240901395Y-145011501D01*
X240707834Y-144875967D01*
X240707830Y-144875965D01*
X240694028Y-144869529D01*
X240493663Y-144776097D01*
X240493659Y-144776096D01*
X240493655Y-144776094D01*
X240265413Y-144714938D01*
X240265403Y-144714936D01*
X240030001Y-144694341D01*
X240029999Y-144694341D01*
X239794596Y-144714936D01*
X239794586Y-144714938D01*
X239566344Y-144776094D01*
X239566335Y-144776098D01*
X239352171Y-144875964D01*
X239352169Y-144875965D01*
X239158597Y-145011505D01*
X238991505Y-145178597D01*
X238861575Y-145364158D01*
X238806998Y-145407783D01*
X238737500Y-145414977D01*
X238675145Y-145383454D01*
X238658425Y-145364158D01*
X238528494Y-145178597D01*
X238361402Y-145011506D01*
X238361395Y-145011501D01*
X238167834Y-144875967D01*
X238167830Y-144875965D01*
X238154028Y-144869529D01*
X237953663Y-144776097D01*
X237953659Y-144776096D01*
X237953655Y-144776094D01*
X237725413Y-144714938D01*
X237725403Y-144714936D01*
X237490001Y-144694341D01*
X237489999Y-144694341D01*
X237254596Y-144714936D01*
X237254586Y-144714938D01*
X237026344Y-144776094D01*
X237026335Y-144776098D01*
X236812171Y-144875964D01*
X236812169Y-144875965D01*
X236618600Y-145011503D01*
X236496673Y-145133430D01*
X236435350Y-145166914D01*
X236365658Y-145161930D01*
X236309725Y-145120058D01*
X236292810Y-145089081D01*
X236243797Y-144957671D01*
X236243793Y-144957664D01*
X236157547Y-144842455D01*
X236157544Y-144842452D01*
X236042335Y-144756206D01*
X236042328Y-144756202D01*
X235907482Y-144705908D01*
X235907483Y-144705908D01*
X235847883Y-144699501D01*
X235847881Y-144699500D01*
X235847873Y-144699500D01*
X235847864Y-144699500D01*
X234052129Y-144699500D01*
X234052123Y-144699501D01*
X233992516Y-144705908D01*
X233857671Y-144756202D01*
X233857664Y-144756206D01*
X233742455Y-144842452D01*
X233742452Y-144842455D01*
X233656206Y-144957664D01*
X233656202Y-144957671D01*
X233605908Y-145092517D01*
X233599501Y-145152116D01*
X233599500Y-145152135D01*
X233599500Y-146947870D01*
X233599501Y-146947876D01*
X233605908Y-147007483D01*
X233656202Y-147142328D01*
X233656206Y-147142335D01*
X233742452Y-147257544D01*
X233742455Y-147257547D01*
X233857664Y-147343793D01*
X233857671Y-147343797D01*
X233872473Y-147349318D01*
X233928407Y-147391189D01*
X233952824Y-147456654D01*
X233937972Y-147524927D01*
X233888567Y-147574332D01*
X233829140Y-147589500D01*
X231552382Y-147589500D01*
X231485343Y-147569815D01*
X231439588Y-147517011D01*
X231429644Y-147447853D01*
X231458669Y-147384297D01*
X231517447Y-147346523D01*
X231520289Y-147345725D01*
X231603483Y-147323433D01*
X231603492Y-147323429D01*
X231817578Y-147223600D01*
X232011082Y-147088105D01*
X232178105Y-146921082D01*
X232313600Y-146727578D01*
X232413429Y-146513492D01*
X232413432Y-146513486D01*
X232470636Y-146300000D01*
X231573012Y-146300000D01*
X231605925Y-146242993D01*
X231640000Y-146115826D01*
X231640000Y-145984174D01*
X231605925Y-145857007D01*
X231573012Y-145800000D01*
X232470636Y-145800000D01*
X232470635Y-145799999D01*
X232413432Y-145586513D01*
X232413429Y-145586507D01*
X232313600Y-145372422D01*
X232313599Y-145372420D01*
X232178113Y-145178926D01*
X232178108Y-145178920D01*
X232055665Y-145056477D01*
X232022180Y-144995154D01*
X232027164Y-144925462D01*
X232069036Y-144869529D01*
X232100013Y-144852614D01*
X232232086Y-144803354D01*
X232232093Y-144803350D01*
X232347187Y-144717190D01*
X232347190Y-144717187D01*
X232433350Y-144602093D01*
X232433354Y-144602086D01*
X232483596Y-144467379D01*
X232483598Y-144467372D01*
X232489999Y-144407844D01*
X232490000Y-144407827D01*
X232490000Y-143760000D01*
X231573012Y-143760000D01*
X231605925Y-143702993D01*
X231640000Y-143575826D01*
X231640000Y-143444174D01*
X231605925Y-143317007D01*
X231573012Y-143260000D01*
X232490000Y-143260000D01*
X232490000Y-142612172D01*
X232489999Y-142612155D01*
X232483598Y-142552627D01*
X232483596Y-142552620D01*
X232433354Y-142417913D01*
X232433350Y-142417906D01*
X232347190Y-142302812D01*
X232347187Y-142302809D01*
X232232093Y-142216649D01*
X232232086Y-142216645D01*
X232097379Y-142166403D01*
X232097372Y-142166401D01*
X232037844Y-142160000D01*
X231390000Y-142160000D01*
X231390000Y-143076988D01*
X231332993Y-143044075D01*
X231205826Y-143010000D01*
X231074174Y-143010000D01*
X230947007Y-143044075D01*
X230890000Y-143076988D01*
X230890000Y-142160000D01*
X230242155Y-142160000D01*
X230182627Y-142166401D01*
X230182620Y-142166403D01*
X230047913Y-142216645D01*
X230047906Y-142216649D01*
X229932812Y-142302809D01*
X229932809Y-142302812D01*
X229846649Y-142417906D01*
X229846645Y-142417913D01*
X229797578Y-142549470D01*
X229755707Y-142605404D01*
X229690242Y-142629821D01*
X229621969Y-142614969D01*
X229593715Y-142593819D01*
X229549366Y-142549470D01*
X229471401Y-142471505D01*
X229471397Y-142471502D01*
X229471396Y-142471501D01*
X229277834Y-142335967D01*
X229277830Y-142335965D01*
X229206727Y-142302809D01*
X229063663Y-142236097D01*
X229063659Y-142236096D01*
X229063655Y-142236094D01*
X228835413Y-142174938D01*
X228835403Y-142174936D01*
X228600001Y-142154341D01*
X228599999Y-142154341D01*
X228364596Y-142174936D01*
X228364586Y-142174938D01*
X228136344Y-142236094D01*
X228136335Y-142236098D01*
X227922171Y-142335964D01*
X227922169Y-142335965D01*
X227728597Y-142471505D01*
X227561505Y-142638597D01*
X227425965Y-142832169D01*
X227425964Y-142832171D01*
X227326098Y-143046335D01*
X227326094Y-143046344D01*
X227264938Y-143274586D01*
X227264936Y-143274596D01*
X227244341Y-143509999D01*
X227244341Y-143510000D01*
X227264936Y-143745403D01*
X227264938Y-143745413D01*
X227326094Y-143973655D01*
X227326096Y-143973659D01*
X227326097Y-143973663D01*
X227406004Y-144145023D01*
X227425965Y-144187830D01*
X227425967Y-144187834D01*
X227500412Y-144294151D01*
X227561501Y-144381396D01*
X227561506Y-144381402D01*
X227728597Y-144548493D01*
X227728603Y-144548498D01*
X227914158Y-144678425D01*
X227957783Y-144733002D01*
X227964977Y-144802500D01*
X227933454Y-144864855D01*
X227914158Y-144881575D01*
X227728597Y-145011505D01*
X227561505Y-145178597D01*
X227425965Y-145372169D01*
X227425964Y-145372171D01*
X227326098Y-145586335D01*
X227326094Y-145586344D01*
X227264938Y-145814586D01*
X227264936Y-145814596D01*
X227244341Y-146049999D01*
X227244341Y-146050000D01*
X227264936Y-146285403D01*
X227264938Y-146285413D01*
X227326094Y-146513655D01*
X227326096Y-146513659D01*
X227326097Y-146513663D01*
X227406004Y-146685023D01*
X227425965Y-146727830D01*
X227425967Y-146727834D01*
X227528683Y-146874527D01*
X227561505Y-146921401D01*
X227728599Y-147088495D01*
X227825384Y-147156265D01*
X227922165Y-147224032D01*
X227922167Y-147224033D01*
X227922170Y-147224035D01*
X228136337Y-147323903D01*
X228136343Y-147323904D01*
X228136344Y-147323905D01*
X228217778Y-147345725D01*
X228277439Y-147382090D01*
X228307968Y-147444937D01*
X228299674Y-147514312D01*
X228255188Y-147568190D01*
X228188636Y-147589465D01*
X228185685Y-147589500D01*
X225204315Y-147589500D01*
X225137276Y-147569815D01*
X225091521Y-147517011D01*
X225081577Y-147447853D01*
X225110602Y-147384297D01*
X225169380Y-147346523D01*
X225172222Y-147345725D01*
X225221039Y-147332644D01*
X225253663Y-147323903D01*
X225467830Y-147224035D01*
X225661401Y-147088495D01*
X225828495Y-146921401D01*
X225964035Y-146727830D01*
X226063903Y-146513663D01*
X226125063Y-146285408D01*
X226145659Y-146050000D01*
X226125063Y-145814592D01*
X226063903Y-145586337D01*
X225964035Y-145372171D01*
X225958731Y-145364595D01*
X225828494Y-145178597D01*
X225661402Y-145011506D01*
X225661401Y-145011505D01*
X225475405Y-144881269D01*
X225431781Y-144826692D01*
X225424588Y-144757193D01*
X225456110Y-144694839D01*
X225475405Y-144678119D01*
X225661082Y-144548105D01*
X225828105Y-144381082D01*
X225963600Y-144187578D01*
X226063429Y-143973492D01*
X226063432Y-143973486D01*
X226120636Y-143760000D01*
X225223012Y-143760000D01*
X225255925Y-143702993D01*
X225290000Y-143575826D01*
X225290000Y-143444174D01*
X225255925Y-143317007D01*
X225223012Y-143260000D01*
X226120636Y-143260000D01*
X226120635Y-143259999D01*
X226063432Y-143046513D01*
X226063429Y-143046507D01*
X225963600Y-142832422D01*
X225963599Y-142832420D01*
X225828113Y-142638926D01*
X225828108Y-142638920D01*
X225661082Y-142471894D01*
X225467578Y-142336399D01*
X225253492Y-142236570D01*
X225253486Y-142236567D01*
X225040000Y-142179364D01*
X225040000Y-143076988D01*
X224982993Y-143044075D01*
X224855826Y-143010000D01*
X224724174Y-143010000D01*
X224597007Y-143044075D01*
X224540000Y-143076988D01*
X224540000Y-142179364D01*
X224539999Y-142179364D01*
X224326513Y-142236567D01*
X224326507Y-142236570D01*
X224112422Y-142336399D01*
X224112420Y-142336400D01*
X223918926Y-142471886D01*
X223918920Y-142471891D01*
X223751891Y-142638920D01*
X223751890Y-142638922D01*
X223621880Y-142824595D01*
X223567303Y-142868219D01*
X223497804Y-142875412D01*
X223435450Y-142843890D01*
X223418730Y-142824594D01*
X223288494Y-142638597D01*
X223121402Y-142471506D01*
X223121395Y-142471501D01*
X222927834Y-142335967D01*
X222927830Y-142335965D01*
X222856727Y-142302809D01*
X222713663Y-142236097D01*
X222713659Y-142236096D01*
X222713655Y-142236094D01*
X222485413Y-142174938D01*
X222485403Y-142174936D01*
X222250001Y-142154341D01*
X222249999Y-142154341D01*
X222014596Y-142174936D01*
X222014586Y-142174938D01*
X221786344Y-142236094D01*
X221786335Y-142236098D01*
X221572171Y-142335964D01*
X221572169Y-142335965D01*
X221378597Y-142471505D01*
X221211505Y-142638597D01*
X221081575Y-142824158D01*
X221026998Y-142867783D01*
X220957500Y-142874977D01*
X220895145Y-142843454D01*
X220878425Y-142824158D01*
X220748494Y-142638597D01*
X220581402Y-142471506D01*
X220581395Y-142471501D01*
X220387834Y-142335967D01*
X220387830Y-142335965D01*
X220316727Y-142302809D01*
X220173663Y-142236097D01*
X220173659Y-142236096D01*
X220173655Y-142236094D01*
X219945413Y-142174938D01*
X219945403Y-142174936D01*
X219710001Y-142154341D01*
X219709999Y-142154341D01*
X219474596Y-142174936D01*
X219474586Y-142174938D01*
X219246344Y-142236094D01*
X219246335Y-142236098D01*
X219032171Y-142335964D01*
X219032169Y-142335965D01*
X218838597Y-142471505D01*
X218671505Y-142638597D01*
X218535965Y-142832169D01*
X218535964Y-142832171D01*
X218436098Y-143046335D01*
X218436094Y-143046344D01*
X218374938Y-143274586D01*
X218374936Y-143274596D01*
X218354341Y-143509999D01*
X218354341Y-143510000D01*
X218374936Y-143745403D01*
X218374938Y-143745413D01*
X218436094Y-143973655D01*
X218436096Y-143973659D01*
X218436097Y-143973663D01*
X218516004Y-144145023D01*
X218535965Y-144187830D01*
X218535967Y-144187834D01*
X218610412Y-144294151D01*
X218671501Y-144381396D01*
X218671506Y-144381402D01*
X218793430Y-144503326D01*
X218826915Y-144564649D01*
X218821931Y-144634341D01*
X218780059Y-144690274D01*
X218749083Y-144707189D01*
X218617669Y-144756203D01*
X218617664Y-144756206D01*
X218502455Y-144842452D01*
X218502452Y-144842455D01*
X218416206Y-144957664D01*
X218416202Y-144957671D01*
X218365908Y-145092517D01*
X218359501Y-145152116D01*
X218359500Y-145152135D01*
X218359500Y-146947870D01*
X218359501Y-146947876D01*
X218365908Y-147007483D01*
X218416202Y-147142328D01*
X218416206Y-147142335D01*
X218502452Y-147257544D01*
X218502455Y-147257547D01*
X218617664Y-147343793D01*
X218617671Y-147343797D01*
X218632473Y-147349318D01*
X218688407Y-147391189D01*
X218712824Y-147456654D01*
X218697972Y-147524927D01*
X218648567Y-147574332D01*
X218589140Y-147589500D01*
X216314315Y-147589500D01*
X216247276Y-147569815D01*
X216201521Y-147517011D01*
X216191577Y-147447853D01*
X216220602Y-147384297D01*
X216279380Y-147346523D01*
X216282222Y-147345725D01*
X216331039Y-147332644D01*
X216363663Y-147323903D01*
X216577830Y-147224035D01*
X216771401Y-147088495D01*
X216938495Y-146921401D01*
X217074035Y-146727830D01*
X217173903Y-146513663D01*
X217235063Y-146285408D01*
X217255659Y-146050000D01*
X217235063Y-145814592D01*
X217173903Y-145586337D01*
X217074035Y-145372171D01*
X217068731Y-145364595D01*
X216938494Y-145178597D01*
X216771402Y-145011506D01*
X216771395Y-145011501D01*
X216577834Y-144875967D01*
X216577830Y-144875965D01*
X216564028Y-144869529D01*
X216363663Y-144776097D01*
X216363659Y-144776096D01*
X216363655Y-144776094D01*
X216135413Y-144714938D01*
X216135403Y-144714936D01*
X215900001Y-144694341D01*
X215899999Y-144694341D01*
X215664596Y-144714936D01*
X215664586Y-144714938D01*
X215436344Y-144776094D01*
X215436335Y-144776098D01*
X215222171Y-144875964D01*
X215222169Y-144875965D01*
X215028600Y-145011503D01*
X214906673Y-145133430D01*
X214845350Y-145166914D01*
X214775658Y-145161930D01*
X214719725Y-145120058D01*
X214702810Y-145089081D01*
X214653797Y-144957671D01*
X214653793Y-144957664D01*
X214567547Y-144842455D01*
X214567544Y-144842452D01*
X214452335Y-144756206D01*
X214452328Y-144756202D01*
X214317482Y-144705908D01*
X214317483Y-144705908D01*
X214257883Y-144699501D01*
X214257881Y-144699500D01*
X214257873Y-144699500D01*
X214257864Y-144699500D01*
X212462129Y-144699500D01*
X212462123Y-144699501D01*
X212402516Y-144705908D01*
X212267671Y-144756202D01*
X212267664Y-144756206D01*
X212152455Y-144842452D01*
X212152452Y-144842455D01*
X212066206Y-144957664D01*
X212066202Y-144957671D01*
X212015908Y-145092517D01*
X212009501Y-145152116D01*
X212009500Y-145152135D01*
X212009500Y-146947870D01*
X212009501Y-146947876D01*
X212015908Y-147007483D01*
X212066202Y-147142328D01*
X212066206Y-147142335D01*
X212152452Y-147257544D01*
X212152455Y-147257547D01*
X212267664Y-147343793D01*
X212267671Y-147343797D01*
X212282473Y-147349318D01*
X212338407Y-147391189D01*
X212362824Y-147456654D01*
X212347972Y-147524927D01*
X212298567Y-147574332D01*
X212239140Y-147589500D01*
X201934428Y-147589500D01*
X201925582Y-147589184D01*
X201719751Y-147574462D01*
X201702239Y-147571944D01*
X201504943Y-147529025D01*
X201487967Y-147524041D01*
X201298771Y-147453474D01*
X201282685Y-147446128D01*
X201105462Y-147349357D01*
X201090587Y-147339798D01*
X200928938Y-147218788D01*
X200915568Y-147207202D01*
X200772797Y-147064431D01*
X200761211Y-147051061D01*
X200640199Y-146889409D01*
X200630644Y-146874541D01*
X200533868Y-146697308D01*
X200526525Y-146681228D01*
X200485086Y-146570126D01*
X200455955Y-146492024D01*
X200450976Y-146475065D01*
X200408054Y-146277757D01*
X200405537Y-146260248D01*
X200390816Y-146054418D01*
X200390500Y-146045572D01*
X200390500Y-143510000D01*
X211184540Y-143510000D01*
X211204326Y-143698256D01*
X211204327Y-143698259D01*
X211262818Y-143878277D01*
X211262821Y-143878284D01*
X211357467Y-144042216D01*
X211449643Y-144144587D01*
X211484129Y-144182888D01*
X211637265Y-144294148D01*
X211637270Y-144294151D01*
X211810192Y-144371142D01*
X211810197Y-144371144D01*
X211995354Y-144410500D01*
X211995355Y-144410500D01*
X212184644Y-144410500D01*
X212184646Y-144410500D01*
X212369803Y-144371144D01*
X212542730Y-144294151D01*
X212695871Y-144182888D01*
X212822533Y-144042216D01*
X212917179Y-143878284D01*
X212975674Y-143698256D01*
X212995460Y-143510000D01*
X212975674Y-143321744D01*
X212917179Y-143141716D01*
X212822533Y-142977784D01*
X212695871Y-142837112D01*
X212689413Y-142832420D01*
X212542734Y-142725851D01*
X212542729Y-142725848D01*
X212369807Y-142648857D01*
X212369802Y-142648855D01*
X212224001Y-142617865D01*
X212184646Y-142609500D01*
X211995354Y-142609500D01*
X211969624Y-142614969D01*
X211810197Y-142648855D01*
X211810192Y-142648857D01*
X211637270Y-142725848D01*
X211637265Y-142725851D01*
X211484129Y-142837111D01*
X211357466Y-142977785D01*
X211262821Y-143141715D01*
X211262818Y-143141722D01*
X211219645Y-143274596D01*
X211204326Y-143321744D01*
X211184540Y-143510000D01*
X200390500Y-143510000D01*
X200390500Y-142068711D01*
X245799500Y-142068711D01*
X245799500Y-142311288D01*
X245830856Y-142549470D01*
X245831162Y-142551789D01*
X245857171Y-142648855D01*
X245893947Y-142786104D01*
X245930760Y-142874977D01*
X245986776Y-143010212D01*
X246108064Y-143220289D01*
X246108066Y-143220292D01*
X246108067Y-143220293D01*
X246255733Y-143412736D01*
X246255739Y-143412743D01*
X246427256Y-143584260D01*
X246427263Y-143584266D01*
X246540321Y-143671018D01*
X246619711Y-143731936D01*
X246829788Y-143853224D01*
X247053900Y-143946054D01*
X247288211Y-144008838D01*
X247468586Y-144032584D01*
X247528711Y-144040500D01*
X247528712Y-144040500D01*
X247771289Y-144040500D01*
X247819388Y-144034167D01*
X248011789Y-144008838D01*
X248246100Y-143946054D01*
X248470212Y-143853224D01*
X248680289Y-143731936D01*
X248872738Y-143584265D01*
X249044265Y-143412738D01*
X249191936Y-143220289D01*
X249313224Y-143010212D01*
X249406054Y-142786100D01*
X249468838Y-142551789D01*
X249500500Y-142311288D01*
X249500500Y-142068712D01*
X249468838Y-141828211D01*
X249406054Y-141593900D01*
X249337647Y-141428750D01*
X267241229Y-141428750D01*
X267261015Y-141617006D01*
X267261016Y-141617009D01*
X267319507Y-141797027D01*
X267319510Y-141797034D01*
X267414156Y-141960966D01*
X267511170Y-142068711D01*
X267540818Y-142101638D01*
X267693954Y-142212898D01*
X267693959Y-142212901D01*
X267866881Y-142289892D01*
X267866886Y-142289894D01*
X268052043Y-142329250D01*
X268052044Y-142329250D01*
X268241333Y-142329250D01*
X268241335Y-142329250D01*
X268426492Y-142289894D01*
X268599419Y-142212901D01*
X268752560Y-142101638D01*
X268879222Y-141960966D01*
X268973868Y-141797034D01*
X269032363Y-141617006D01*
X269052149Y-141428750D01*
X269032363Y-141240494D01*
X268973868Y-141060466D01*
X268879222Y-140896534D01*
X268752560Y-140755862D01*
X268752559Y-140755861D01*
X268599423Y-140644601D01*
X268599418Y-140644598D01*
X268426496Y-140567607D01*
X268426491Y-140567605D01*
X268280690Y-140536615D01*
X268241335Y-140528250D01*
X268052043Y-140528250D01*
X268019586Y-140535148D01*
X267866886Y-140567605D01*
X267866881Y-140567607D01*
X267693959Y-140644598D01*
X267693954Y-140644601D01*
X267540818Y-140755861D01*
X267414155Y-140896535D01*
X267319510Y-141060465D01*
X267319507Y-141060472D01*
X267287263Y-141159711D01*
X267261015Y-141240494D01*
X267241229Y-141428750D01*
X249337647Y-141428750D01*
X249313224Y-141369788D01*
X249191936Y-141159711D01*
X249044265Y-140967262D01*
X249044260Y-140967256D01*
X248872743Y-140795739D01*
X248872736Y-140795733D01*
X248680293Y-140648067D01*
X248680292Y-140648066D01*
X248680289Y-140648064D01*
X248470212Y-140526776D01*
X248470205Y-140526773D01*
X248246104Y-140433947D01*
X248011785Y-140371161D01*
X247771289Y-140339500D01*
X247771288Y-140339500D01*
X247528712Y-140339500D01*
X247528711Y-140339500D01*
X247288214Y-140371161D01*
X247053895Y-140433947D01*
X246829794Y-140526773D01*
X246829785Y-140526777D01*
X246619706Y-140648067D01*
X246427263Y-140795733D01*
X246427256Y-140795739D01*
X246255739Y-140967256D01*
X246255733Y-140967263D01*
X246108067Y-141159706D01*
X245986777Y-141369785D01*
X245986773Y-141369794D01*
X245893947Y-141593895D01*
X245831161Y-141828214D01*
X245799500Y-142068711D01*
X200390500Y-142068711D01*
X200390500Y-138743389D01*
X201499500Y-138743389D01*
X201499500Y-138916611D01*
X201526598Y-139087701D01*
X201580127Y-139252445D01*
X201658768Y-139406788D01*
X201760586Y-139546928D01*
X201883072Y-139669414D01*
X202023212Y-139771232D01*
X202177555Y-139849873D01*
X202342299Y-139903402D01*
X202513389Y-139930500D01*
X202513390Y-139930500D01*
X203886610Y-139930500D01*
X203886611Y-139930500D01*
X204057701Y-139903402D01*
X204222445Y-139849873D01*
X204376788Y-139771232D01*
X204516928Y-139669414D01*
X204639414Y-139546928D01*
X204741232Y-139406788D01*
X204819873Y-139252445D01*
X204873402Y-139087701D01*
X204900500Y-138916611D01*
X204900500Y-138743389D01*
X204873402Y-138572299D01*
X204827166Y-138430000D01*
X234044540Y-138430000D01*
X234064326Y-138618256D01*
X234064327Y-138618259D01*
X234122818Y-138798277D01*
X234122821Y-138798284D01*
X234217467Y-138962216D01*
X234330451Y-139087697D01*
X234344129Y-139102888D01*
X234497265Y-139214148D01*
X234497270Y-139214151D01*
X234670192Y-139291142D01*
X234670197Y-139291144D01*
X234855354Y-139330500D01*
X234855355Y-139330500D01*
X235044644Y-139330500D01*
X235044646Y-139330500D01*
X235229803Y-139291144D01*
X235402730Y-139214151D01*
X235555871Y-139102888D01*
X235682533Y-138962216D01*
X235777179Y-138798284D01*
X235835674Y-138618256D01*
X235855460Y-138430000D01*
X235835674Y-138241744D01*
X235777179Y-138061716D01*
X235682533Y-137897784D01*
X235555871Y-137757112D01*
X235555164Y-137756598D01*
X235402734Y-137645851D01*
X235402729Y-137645848D01*
X235229807Y-137568857D01*
X235229802Y-137568855D01*
X235084001Y-137537865D01*
X235044646Y-137529500D01*
X234855354Y-137529500D01*
X234822897Y-137536398D01*
X234670197Y-137568855D01*
X234670192Y-137568857D01*
X234497270Y-137645848D01*
X234497265Y-137645851D01*
X234344129Y-137757111D01*
X234217466Y-137897785D01*
X234122821Y-138061715D01*
X234122818Y-138061722D01*
X234066073Y-138236367D01*
X234064326Y-138241744D01*
X234044540Y-138430000D01*
X204827166Y-138430000D01*
X204819873Y-138407555D01*
X204741232Y-138253212D01*
X204639414Y-138113072D01*
X204516928Y-137990586D01*
X204376788Y-137888768D01*
X204222445Y-137810127D01*
X204057701Y-137756598D01*
X204057699Y-137756597D01*
X204057698Y-137756597D01*
X203926271Y-137735781D01*
X203886611Y-137729500D01*
X202513389Y-137729500D01*
X202473728Y-137735781D01*
X202342302Y-137756597D01*
X202177552Y-137810128D01*
X202023211Y-137888768D01*
X201946988Y-137944148D01*
X201883072Y-137990586D01*
X201883070Y-137990588D01*
X201883069Y-137990588D01*
X201760588Y-138113069D01*
X201760588Y-138113070D01*
X201760586Y-138113072D01*
X201726948Y-138159371D01*
X201658768Y-138253211D01*
X201580128Y-138407552D01*
X201526597Y-138572302D01*
X201499500Y-138743389D01*
X200390500Y-138743389D01*
X200390500Y-135680000D01*
X206836941Y-135680000D01*
X206857157Y-135988439D01*
X206857159Y-135988451D01*
X206917458Y-136291597D01*
X206917462Y-136291612D01*
X207016816Y-136584299D01*
X207016825Y-136584320D01*
X207153528Y-136861526D01*
X207325257Y-137118537D01*
X207325262Y-137118543D01*
X207363872Y-137162571D01*
X207363875Y-137162571D01*
X208084728Y-136441717D01*
X208170278Y-136559466D01*
X208320534Y-136709722D01*
X208438281Y-136795270D01*
X207717427Y-137516123D01*
X207717427Y-137516124D01*
X207761463Y-137554742D01*
X208018473Y-137726471D01*
X208295679Y-137863174D01*
X208295700Y-137863183D01*
X208588387Y-137962537D01*
X208588402Y-137962541D01*
X208891548Y-138022840D01*
X208891560Y-138022842D01*
X209200000Y-138043058D01*
X209508439Y-138022842D01*
X209508451Y-138022840D01*
X209811597Y-137962541D01*
X209811612Y-137962537D01*
X210104299Y-137863183D01*
X210104320Y-137863174D01*
X210381526Y-137726471D01*
X210638540Y-137554740D01*
X210682571Y-137516125D01*
X210682571Y-137516124D01*
X210541670Y-137375223D01*
X226639763Y-137375223D01*
X226659549Y-137563479D01*
X226659550Y-137563482D01*
X226718041Y-137743500D01*
X226718044Y-137743507D01*
X226812690Y-137907439D01*
X226887556Y-137990586D01*
X226939352Y-138048111D01*
X227092488Y-138159371D01*
X227092493Y-138159374D01*
X227265415Y-138236365D01*
X227265420Y-138236367D01*
X227450577Y-138275723D01*
X227450578Y-138275723D01*
X227639867Y-138275723D01*
X227639869Y-138275723D01*
X227825026Y-138236367D01*
X227997953Y-138159374D01*
X228151094Y-138048111D01*
X228277756Y-137907439D01*
X228372402Y-137743507D01*
X228430897Y-137563479D01*
X228450683Y-137375223D01*
X228430897Y-137186967D01*
X228372402Y-137006939D01*
X228277756Y-136843007D01*
X228151094Y-136702335D01*
X228112298Y-136674148D01*
X227997957Y-136591074D01*
X227997952Y-136591071D01*
X227825030Y-136514080D01*
X227825025Y-136514078D01*
X227644211Y-136475646D01*
X227639869Y-136474723D01*
X227450577Y-136474723D01*
X227446235Y-136475646D01*
X227265420Y-136514078D01*
X227265415Y-136514080D01*
X227092493Y-136591071D01*
X227092488Y-136591074D01*
X226939352Y-136702334D01*
X226812689Y-136843008D01*
X226718044Y-137006938D01*
X226718041Y-137006945D01*
X226659550Y-137186963D01*
X226659549Y-137186967D01*
X226639763Y-137375223D01*
X210541670Y-137375223D01*
X209961717Y-136795270D01*
X210079466Y-136709722D01*
X210229722Y-136559466D01*
X210315270Y-136441717D01*
X211036124Y-137162571D01*
X211036125Y-137162571D01*
X211074740Y-137118540D01*
X211246471Y-136861526D01*
X211383174Y-136584320D01*
X211383183Y-136584299D01*
X211433863Y-136435000D01*
X223884540Y-136435000D01*
X223904326Y-136623256D01*
X223904327Y-136623259D01*
X223962818Y-136803277D01*
X223962821Y-136803284D01*
X224057467Y-136967216D01*
X224184129Y-137107888D01*
X224337265Y-137219148D01*
X224337270Y-137219151D01*
X224510192Y-137296142D01*
X224510197Y-137296144D01*
X224695354Y-137335500D01*
X224695355Y-137335500D01*
X224884644Y-137335500D01*
X224884646Y-137335500D01*
X225069803Y-137296144D01*
X225242730Y-137219151D01*
X225395871Y-137107888D01*
X225522533Y-136967216D01*
X225617179Y-136803284D01*
X225675674Y-136623256D01*
X225695460Y-136435000D01*
X225675674Y-136246744D01*
X225617179Y-136066716D01*
X225522533Y-135902784D01*
X225395871Y-135762112D01*
X225395870Y-135762111D01*
X225242734Y-135650851D01*
X225242729Y-135650848D01*
X225069807Y-135573857D01*
X225069802Y-135573855D01*
X224924001Y-135542865D01*
X224884646Y-135534500D01*
X224695354Y-135534500D01*
X224662897Y-135541398D01*
X224510197Y-135573855D01*
X224510192Y-135573857D01*
X224337270Y-135650848D01*
X224337265Y-135650851D01*
X224184129Y-135762111D01*
X224057466Y-135902785D01*
X223962821Y-136066715D01*
X223962818Y-136066722D01*
X223920092Y-136198220D01*
X223904326Y-136246744D01*
X223884540Y-136435000D01*
X211433863Y-136435000D01*
X211482537Y-136291612D01*
X211482541Y-136291597D01*
X211542840Y-135988451D01*
X211542842Y-135988439D01*
X211563058Y-135680000D01*
X211542842Y-135371560D01*
X211542840Y-135371548D01*
X211482541Y-135068402D01*
X211482537Y-135068387D01*
X211383183Y-134775700D01*
X211383174Y-134775679D01*
X211306401Y-134620000D01*
X235314540Y-134620000D01*
X235334326Y-134808256D01*
X235334327Y-134808259D01*
X235392818Y-134988277D01*
X235392821Y-134988284D01*
X235487467Y-135152216D01*
X235497806Y-135163699D01*
X235505307Y-135172030D01*
X235535535Y-135235022D01*
X235526909Y-135304357D01*
X235505307Y-135337970D01*
X235487466Y-135357785D01*
X235392821Y-135521715D01*
X235392818Y-135521722D01*
X235350862Y-135650851D01*
X235334326Y-135701744D01*
X235314540Y-135890000D01*
X235334326Y-136078256D01*
X235334327Y-136078259D01*
X235392818Y-136258277D01*
X235392821Y-136258284D01*
X235487467Y-136422216D01*
X235611048Y-136559466D01*
X235614129Y-136562888D01*
X235767265Y-136674148D01*
X235767270Y-136674151D01*
X235940192Y-136751142D01*
X235940197Y-136751144D01*
X236125354Y-136790500D01*
X236125355Y-136790500D01*
X236314644Y-136790500D01*
X236314646Y-136790500D01*
X236499803Y-136751144D01*
X236672730Y-136674151D01*
X236825871Y-136562888D01*
X236952533Y-136422216D01*
X237047179Y-136258284D01*
X237105674Y-136078256D01*
X237125460Y-135890000D01*
X241607440Y-135890000D01*
X241627226Y-136078256D01*
X241627227Y-136078259D01*
X241685718Y-136258277D01*
X241685721Y-136258284D01*
X241780367Y-136422216D01*
X241903948Y-136559466D01*
X241907029Y-136562888D01*
X242060165Y-136674148D01*
X242060170Y-136674151D01*
X242233092Y-136751142D01*
X242233097Y-136751144D01*
X242418254Y-136790500D01*
X242418255Y-136790500D01*
X242607544Y-136790500D01*
X242607546Y-136790500D01*
X242792703Y-136751144D01*
X242965630Y-136674151D01*
X243118771Y-136562888D01*
X243245433Y-136422216D01*
X243340079Y-136258284D01*
X243398574Y-136078256D01*
X243418360Y-135890000D01*
X243398574Y-135701744D01*
X243340079Y-135521716D01*
X243245433Y-135357784D01*
X243118771Y-135217112D01*
X243118770Y-135217111D01*
X242965634Y-135105851D01*
X242965629Y-135105848D01*
X242792707Y-135028857D01*
X242792702Y-135028855D01*
X242646901Y-134997865D01*
X242607546Y-134989500D01*
X242418254Y-134989500D01*
X242385797Y-134996398D01*
X242233097Y-135028855D01*
X242233092Y-135028857D01*
X242060170Y-135105848D01*
X242060165Y-135105851D01*
X241907029Y-135217111D01*
X241780366Y-135357785D01*
X241685721Y-135521715D01*
X241685718Y-135521722D01*
X241643762Y-135650851D01*
X241627226Y-135701744D01*
X241607440Y-135890000D01*
X237125460Y-135890000D01*
X237105674Y-135701744D01*
X237047179Y-135521716D01*
X236952533Y-135357784D01*
X236934693Y-135337971D01*
X236904464Y-135274981D01*
X236913089Y-135205646D01*
X236934694Y-135172028D01*
X236943921Y-135161780D01*
X236952533Y-135152216D01*
X237047179Y-134988284D01*
X237105674Y-134808256D01*
X237125460Y-134620000D01*
X250554540Y-134620000D01*
X250574326Y-134808256D01*
X250574327Y-134808259D01*
X250632818Y-134988277D01*
X250632821Y-134988284D01*
X250727467Y-135152216D01*
X250737806Y-135163699D01*
X250745307Y-135172030D01*
X250775535Y-135235022D01*
X250766909Y-135304357D01*
X250745307Y-135337970D01*
X250727466Y-135357785D01*
X250632821Y-135521715D01*
X250632818Y-135521722D01*
X250590862Y-135650851D01*
X250574326Y-135701744D01*
X250554540Y-135890000D01*
X250574326Y-136078256D01*
X250574327Y-136078259D01*
X250632818Y-136258277D01*
X250632821Y-136258284D01*
X250727467Y-136422216D01*
X250737806Y-136433699D01*
X250745307Y-136442030D01*
X250775535Y-136505022D01*
X250766909Y-136574357D01*
X250745307Y-136607970D01*
X250727466Y-136627785D01*
X250632821Y-136791715D01*
X250632818Y-136791722D01*
X250587534Y-136931094D01*
X250574326Y-136971744D01*
X250554540Y-137160000D01*
X250574326Y-137348256D01*
X250574327Y-137348259D01*
X250632818Y-137528277D01*
X250632821Y-137528284D01*
X250727467Y-137692216D01*
X250785437Y-137756598D01*
X250854129Y-137832888D01*
X251007265Y-137944148D01*
X251007270Y-137944151D01*
X251180192Y-138021142D01*
X251180197Y-138021144D01*
X251365354Y-138060500D01*
X251365355Y-138060500D01*
X251554644Y-138060500D01*
X251554646Y-138060500D01*
X251739803Y-138021144D01*
X251912730Y-137944151D01*
X252065871Y-137832888D01*
X252192533Y-137692216D01*
X252287179Y-137528284D01*
X252345674Y-137348256D01*
X252365460Y-137160000D01*
X252345674Y-136971744D01*
X252287179Y-136791716D01*
X252192533Y-136627784D01*
X252174693Y-136607971D01*
X252144464Y-136544981D01*
X252153089Y-136475646D01*
X252174694Y-136442028D01*
X252192533Y-136422216D01*
X252287179Y-136258284D01*
X252345674Y-136078256D01*
X252365460Y-135890000D01*
X267064540Y-135890000D01*
X267084326Y-136078256D01*
X267084327Y-136078259D01*
X267142818Y-136258277D01*
X267142821Y-136258284D01*
X267237467Y-136422216D01*
X267361048Y-136559466D01*
X267364129Y-136562888D01*
X267517265Y-136674148D01*
X267517270Y-136674151D01*
X267690192Y-136751142D01*
X267690197Y-136751144D01*
X267875354Y-136790500D01*
X267875355Y-136790500D01*
X268064644Y-136790500D01*
X268064646Y-136790500D01*
X268249803Y-136751144D01*
X268422730Y-136674151D01*
X268575871Y-136562888D01*
X268702533Y-136422216D01*
X268797179Y-136258284D01*
X268855674Y-136078256D01*
X268875460Y-135890000D01*
X268855674Y-135701744D01*
X268797179Y-135521716D01*
X268702533Y-135357784D01*
X268575871Y-135217112D01*
X268575870Y-135217111D01*
X268422734Y-135105851D01*
X268422729Y-135105848D01*
X268249807Y-135028857D01*
X268249802Y-135028855D01*
X268104001Y-134997865D01*
X268064646Y-134989500D01*
X267875354Y-134989500D01*
X267842897Y-134996398D01*
X267690197Y-135028855D01*
X267690192Y-135028857D01*
X267517270Y-135105848D01*
X267517265Y-135105851D01*
X267364129Y-135217111D01*
X267237466Y-135357785D01*
X267142821Y-135521715D01*
X267142818Y-135521722D01*
X267100862Y-135650851D01*
X267084326Y-135701744D01*
X267064540Y-135890000D01*
X252365460Y-135890000D01*
X252345674Y-135701744D01*
X252287179Y-135521716D01*
X252192533Y-135357784D01*
X252174693Y-135337971D01*
X252144464Y-135274981D01*
X252153089Y-135205646D01*
X252174694Y-135172028D01*
X252183921Y-135161780D01*
X252192533Y-135152216D01*
X252287179Y-134988284D01*
X252345674Y-134808256D01*
X252365460Y-134620000D01*
X252345674Y-134431744D01*
X252287179Y-134251716D01*
X252192533Y-134087784D01*
X252065871Y-133947112D01*
X252065870Y-133947111D01*
X251912734Y-133835851D01*
X251912729Y-133835848D01*
X251739807Y-133758857D01*
X251739802Y-133758855D01*
X251594001Y-133727865D01*
X251554646Y-133719500D01*
X251365354Y-133719500D01*
X251332897Y-133726398D01*
X251180197Y-133758855D01*
X251180192Y-133758857D01*
X251007270Y-133835848D01*
X251007265Y-133835851D01*
X250854129Y-133947111D01*
X250727466Y-134087785D01*
X250632821Y-134251715D01*
X250632818Y-134251722D01*
X250575248Y-134428906D01*
X250574326Y-134431744D01*
X250554540Y-134620000D01*
X237125460Y-134620000D01*
X237105674Y-134431744D01*
X237047179Y-134251716D01*
X236952533Y-134087784D01*
X236825871Y-133947112D01*
X236825870Y-133947111D01*
X236672734Y-133835851D01*
X236672729Y-133835848D01*
X236499807Y-133758857D01*
X236499802Y-133758855D01*
X236354001Y-133727865D01*
X236314646Y-133719500D01*
X236125354Y-133719500D01*
X236092897Y-133726398D01*
X235940197Y-133758855D01*
X235940192Y-133758857D01*
X235767270Y-133835848D01*
X235767265Y-133835851D01*
X235614129Y-133947111D01*
X235487466Y-134087785D01*
X235392821Y-134251715D01*
X235392818Y-134251722D01*
X235335248Y-134428906D01*
X235334326Y-134431744D01*
X235314540Y-134620000D01*
X211306401Y-134620000D01*
X211246474Y-134498480D01*
X211246465Y-134498465D01*
X211074742Y-134241463D01*
X211036124Y-134197427D01*
X211036123Y-134197427D01*
X210315269Y-134918281D01*
X210229722Y-134800534D01*
X210079466Y-134650278D01*
X209961717Y-134564729D01*
X210682571Y-133843875D01*
X210682571Y-133843872D01*
X210638543Y-133805262D01*
X210638537Y-133805257D01*
X210381526Y-133633528D01*
X210104320Y-133496825D01*
X210104299Y-133496816D01*
X209811612Y-133397462D01*
X209811597Y-133397458D01*
X209508451Y-133337159D01*
X209508439Y-133337157D01*
X209200000Y-133316941D01*
X208891560Y-133337157D01*
X208891548Y-133337159D01*
X208588402Y-133397458D01*
X208588387Y-133397462D01*
X208295700Y-133496816D01*
X208295679Y-133496825D01*
X208018480Y-133633525D01*
X208018465Y-133633534D01*
X207761459Y-133805260D01*
X207761452Y-133805265D01*
X207717427Y-133843872D01*
X207717427Y-133843874D01*
X208438282Y-134564729D01*
X208320534Y-134650278D01*
X208170278Y-134800534D01*
X208084729Y-134918282D01*
X207363874Y-134197427D01*
X207363872Y-134197427D01*
X207325265Y-134241452D01*
X207325260Y-134241459D01*
X207153534Y-134498465D01*
X207153525Y-134498480D01*
X207016825Y-134775679D01*
X207016816Y-134775700D01*
X206917462Y-135068387D01*
X206917458Y-135068402D01*
X206857159Y-135371548D01*
X206857157Y-135371560D01*
X206836941Y-135680000D01*
X200390500Y-135680000D01*
X200390500Y-132080000D01*
X217534540Y-132080000D01*
X217554326Y-132268256D01*
X217554327Y-132268259D01*
X217612818Y-132448277D01*
X217612821Y-132448284D01*
X217707467Y-132612216D01*
X217834129Y-132752888D01*
X217987265Y-132864148D01*
X217987270Y-132864151D01*
X218160192Y-132941142D01*
X218160197Y-132941144D01*
X218345354Y-132980500D01*
X218345355Y-132980500D01*
X218534644Y-132980500D01*
X218534646Y-132980500D01*
X218719803Y-132941144D01*
X218892730Y-132864151D01*
X219045871Y-132752888D01*
X219172533Y-132612216D01*
X219267179Y-132448284D01*
X219325674Y-132268256D01*
X219345460Y-132080000D01*
X219325674Y-131891744D01*
X219267179Y-131711716D01*
X219172533Y-131547784D01*
X219045871Y-131407112D01*
X218974145Y-131355000D01*
X222614540Y-131355000D01*
X222634326Y-131543256D01*
X222634327Y-131543259D01*
X222692818Y-131723277D01*
X222692821Y-131723284D01*
X222787467Y-131887216D01*
X222845899Y-131952111D01*
X222914129Y-132027888D01*
X223067265Y-132139148D01*
X223067270Y-132139151D01*
X223240192Y-132216142D01*
X223240197Y-132216144D01*
X223425354Y-132255500D01*
X223425355Y-132255500D01*
X223614644Y-132255500D01*
X223614646Y-132255500D01*
X223778994Y-132220567D01*
X223848661Y-132225883D01*
X223904395Y-132268020D01*
X223928500Y-132333600D01*
X223922706Y-132380174D01*
X223904327Y-132436739D01*
X223904327Y-132436740D01*
X223904326Y-132436744D01*
X223884540Y-132625000D01*
X223904326Y-132813256D01*
X223904327Y-132813259D01*
X223962818Y-132993277D01*
X223962821Y-132993284D01*
X224057467Y-133157216D01*
X224184129Y-133297888D01*
X224337265Y-133409148D01*
X224337270Y-133409151D01*
X224510192Y-133486142D01*
X224510197Y-133486144D01*
X224695354Y-133525500D01*
X224695355Y-133525500D01*
X224884644Y-133525500D01*
X224884646Y-133525500D01*
X225069803Y-133486144D01*
X225242730Y-133409151D01*
X225395871Y-133297888D01*
X225522533Y-133157216D01*
X225617179Y-132993284D01*
X225675674Y-132813256D01*
X225695460Y-132625000D01*
X225675674Y-132436744D01*
X225617179Y-132256716D01*
X225522533Y-132092784D01*
X225511022Y-132080000D01*
X226424540Y-132080000D01*
X226444326Y-132268256D01*
X226444327Y-132268259D01*
X226502818Y-132448277D01*
X226502821Y-132448284D01*
X226597467Y-132612216D01*
X226607806Y-132623699D01*
X226615307Y-132632030D01*
X226645535Y-132695022D01*
X226636909Y-132764357D01*
X226615307Y-132797970D01*
X226597466Y-132817785D01*
X226502821Y-132981715D01*
X226502818Y-132981722D01*
X226445798Y-133157214D01*
X226444326Y-133161744D01*
X226424540Y-133350000D01*
X226444326Y-133538256D01*
X226444327Y-133538259D01*
X226502818Y-133718277D01*
X226502821Y-133718284D01*
X226597467Y-133882216D01*
X226655899Y-133947111D01*
X226724129Y-134022888D01*
X226877265Y-134134148D01*
X226877270Y-134134151D01*
X227050192Y-134211142D01*
X227050197Y-134211144D01*
X227235354Y-134250500D01*
X227235355Y-134250500D01*
X227424644Y-134250500D01*
X227424646Y-134250500D01*
X227609803Y-134211144D01*
X227782730Y-134134151D01*
X227935871Y-134022888D01*
X228062533Y-133882216D01*
X228157179Y-133718284D01*
X228215674Y-133538256D01*
X228235460Y-133350000D01*
X228215674Y-133161744D01*
X228157179Y-132981716D01*
X228062533Y-132817784D01*
X228044693Y-132797971D01*
X228014464Y-132734981D01*
X228023089Y-132665646D01*
X228044694Y-132632028D01*
X228062533Y-132612216D01*
X228157179Y-132448284D01*
X228215674Y-132268256D01*
X228235460Y-132080000D01*
X228215674Y-131891744D01*
X228157179Y-131711716D01*
X228062533Y-131547784D01*
X227935871Y-131407112D01*
X227864145Y-131355000D01*
X227782734Y-131295851D01*
X227782729Y-131295848D01*
X227609807Y-131218857D01*
X227609802Y-131218855D01*
X227464001Y-131187865D01*
X227424646Y-131179500D01*
X227235354Y-131179500D01*
X227202897Y-131186398D01*
X227050197Y-131218855D01*
X227050192Y-131218857D01*
X226877270Y-131295848D01*
X226877265Y-131295851D01*
X226724129Y-131407111D01*
X226597466Y-131547785D01*
X226502821Y-131711715D01*
X226502818Y-131711722D01*
X226460862Y-131840851D01*
X226444326Y-131891744D01*
X226424540Y-132080000D01*
X225511022Y-132080000D01*
X225395871Y-131952112D01*
X225395870Y-131952111D01*
X225242734Y-131840851D01*
X225242729Y-131840848D01*
X225069807Y-131763857D01*
X225069802Y-131763855D01*
X224924001Y-131732865D01*
X224884646Y-131724500D01*
X224695354Y-131724500D01*
X224581148Y-131748774D01*
X224531004Y-131759433D01*
X224461337Y-131754116D01*
X224405604Y-131711978D01*
X224381499Y-131646398D01*
X224387294Y-131599822D01*
X224404202Y-131547785D01*
X224405674Y-131543256D01*
X224425460Y-131355000D01*
X224405674Y-131166744D01*
X224347179Y-130986716D01*
X224252533Y-130822784D01*
X224241022Y-130810000D01*
X235314540Y-130810000D01*
X235334326Y-130998256D01*
X235334327Y-130998259D01*
X235392818Y-131178277D01*
X235392821Y-131178284D01*
X235487467Y-131342216D01*
X235545899Y-131407111D01*
X235614129Y-131482888D01*
X235767265Y-131594148D01*
X235767270Y-131594151D01*
X235940192Y-131671142D01*
X235940197Y-131671144D01*
X236125354Y-131710500D01*
X236125355Y-131710500D01*
X236314644Y-131710500D01*
X236314646Y-131710500D01*
X236499803Y-131671144D01*
X236672730Y-131594151D01*
X236825871Y-131482888D01*
X236952533Y-131342216D01*
X237047179Y-131178284D01*
X237105674Y-130998256D01*
X237125460Y-130810000D01*
X237105674Y-130621744D01*
X237047179Y-130441716D01*
X236952533Y-130277784D01*
X236825871Y-130137112D01*
X236825870Y-130137111D01*
X236672734Y-130025851D01*
X236672729Y-130025848D01*
X236499807Y-129948857D01*
X236499802Y-129948855D01*
X236354001Y-129917865D01*
X236314646Y-129909500D01*
X236125354Y-129909500D01*
X236092897Y-129916398D01*
X235940197Y-129948855D01*
X235940192Y-129948857D01*
X235767270Y-130025848D01*
X235767265Y-130025851D01*
X235614129Y-130137111D01*
X235487466Y-130277785D01*
X235392821Y-130441715D01*
X235392818Y-130441722D01*
X235334327Y-130621740D01*
X235334326Y-130621744D01*
X235314540Y-130810000D01*
X224241022Y-130810000D01*
X224125871Y-130682112D01*
X224125870Y-130682111D01*
X223972734Y-130570851D01*
X223972729Y-130570848D01*
X223799807Y-130493857D01*
X223799802Y-130493855D01*
X223654001Y-130462865D01*
X223614646Y-130454500D01*
X223425354Y-130454500D01*
X223392897Y-130461398D01*
X223240197Y-130493855D01*
X223240192Y-130493857D01*
X223067270Y-130570848D01*
X223067265Y-130570851D01*
X222914129Y-130682111D01*
X222787466Y-130822785D01*
X222692821Y-130986715D01*
X222692818Y-130986722D01*
X222634327Y-131166740D01*
X222634326Y-131166744D01*
X222614540Y-131355000D01*
X218974145Y-131355000D01*
X218892734Y-131295851D01*
X218892729Y-131295848D01*
X218719807Y-131218857D01*
X218719802Y-131218855D01*
X218574001Y-131187865D01*
X218534646Y-131179500D01*
X218345354Y-131179500D01*
X218312897Y-131186398D01*
X218160197Y-131218855D01*
X218160192Y-131218857D01*
X217987270Y-131295848D01*
X217987265Y-131295851D01*
X217834129Y-131407111D01*
X217707466Y-131547785D01*
X217612821Y-131711715D01*
X217612818Y-131711722D01*
X217570862Y-131840851D01*
X217554326Y-131891744D01*
X217534540Y-132080000D01*
X200390500Y-132080000D01*
X200390500Y-126574135D01*
X206841500Y-126574135D01*
X206841500Y-130385870D01*
X206841501Y-130385876D01*
X206847908Y-130445483D01*
X206898202Y-130580328D01*
X206898206Y-130580335D01*
X206984452Y-130695544D01*
X206984455Y-130695547D01*
X207099664Y-130781793D01*
X207099671Y-130781797D01*
X207234517Y-130832091D01*
X207234516Y-130832091D01*
X207241444Y-130832835D01*
X207294127Y-130838500D01*
X211105872Y-130838499D01*
X211165483Y-130832091D01*
X211300331Y-130781796D01*
X211415546Y-130695546D01*
X211501796Y-130580331D01*
X211552091Y-130445483D01*
X211558500Y-130385873D01*
X211558500Y-129690200D01*
X217534540Y-129690200D01*
X217554326Y-129878456D01*
X217554327Y-129878459D01*
X217612818Y-130058477D01*
X217612821Y-130058484D01*
X217707467Y-130222416D01*
X217757321Y-130277784D01*
X217834129Y-130363088D01*
X217987265Y-130474348D01*
X217987270Y-130474351D01*
X218160192Y-130551342D01*
X218160197Y-130551344D01*
X218345354Y-130590700D01*
X218345355Y-130590700D01*
X218534644Y-130590700D01*
X218534646Y-130590700D01*
X218719803Y-130551344D01*
X218892730Y-130474351D01*
X219045871Y-130363088D01*
X219172533Y-130222416D01*
X219267179Y-130058484D01*
X219325674Y-129878456D01*
X219345460Y-129690200D01*
X219325674Y-129501944D01*
X219267179Y-129321916D01*
X219172533Y-129157984D01*
X219045871Y-129017312D01*
X219026529Y-129003259D01*
X218892734Y-128906051D01*
X218892729Y-128906048D01*
X218719807Y-128829057D01*
X218719802Y-128829055D01*
X218574001Y-128798065D01*
X218534646Y-128789700D01*
X218345354Y-128789700D01*
X218312897Y-128796598D01*
X218160197Y-128829055D01*
X218160192Y-128829057D01*
X217987270Y-128906048D01*
X217987265Y-128906051D01*
X217834129Y-129017311D01*
X217707466Y-129157985D01*
X217612821Y-129321915D01*
X217612818Y-129321922D01*
X217604600Y-129347216D01*
X217554326Y-129501944D01*
X217534540Y-129690200D01*
X211558500Y-129690200D01*
X211558499Y-127545000D01*
X222614540Y-127545000D01*
X222634326Y-127733256D01*
X222634327Y-127733259D01*
X222692818Y-127913277D01*
X222692821Y-127913284D01*
X222787467Y-128077216D01*
X222845899Y-128142111D01*
X222914129Y-128217888D01*
X223067265Y-128329148D01*
X223067270Y-128329151D01*
X223240192Y-128406142D01*
X223240197Y-128406144D01*
X223425354Y-128445500D01*
X223425355Y-128445500D01*
X223614644Y-128445500D01*
X223614646Y-128445500D01*
X223778994Y-128410567D01*
X223848661Y-128415883D01*
X223904395Y-128458020D01*
X223928500Y-128523600D01*
X223922706Y-128570174D01*
X223904327Y-128626739D01*
X223904327Y-128626740D01*
X223904326Y-128626744D01*
X223884540Y-128815000D01*
X223904326Y-129003256D01*
X223904327Y-129003259D01*
X223962818Y-129183277D01*
X223962821Y-129183284D01*
X224057467Y-129347216D01*
X224184129Y-129487888D01*
X224337265Y-129599148D01*
X224337270Y-129599151D01*
X224510192Y-129676142D01*
X224510197Y-129676144D01*
X224695354Y-129715500D01*
X224695355Y-129715500D01*
X224884644Y-129715500D01*
X224884646Y-129715500D01*
X225069803Y-129676144D01*
X225242730Y-129599151D01*
X225395871Y-129487888D01*
X225522533Y-129347216D01*
X225617179Y-129183284D01*
X225675674Y-129003256D01*
X225695460Y-128815000D01*
X225675674Y-128626744D01*
X225617179Y-128446716D01*
X225522533Y-128282784D01*
X225511022Y-128270000D01*
X248014540Y-128270000D01*
X248034326Y-128458256D01*
X248034327Y-128458259D01*
X248092818Y-128638277D01*
X248092821Y-128638284D01*
X248187467Y-128802216D01*
X248211635Y-128829057D01*
X248314129Y-128942888D01*
X248467265Y-129054148D01*
X248467270Y-129054151D01*
X248640192Y-129131142D01*
X248640197Y-129131144D01*
X248825354Y-129170500D01*
X248825355Y-129170500D01*
X249014644Y-129170500D01*
X249014646Y-129170500D01*
X249199803Y-129131144D01*
X249372730Y-129054151D01*
X249525871Y-128942888D01*
X249652533Y-128802216D01*
X249747179Y-128638284D01*
X249805674Y-128458256D01*
X249825460Y-128270000D01*
X249805674Y-128081744D01*
X249747179Y-127901716D01*
X249652533Y-127737784D01*
X249525871Y-127597112D01*
X249454145Y-127545000D01*
X249372734Y-127485851D01*
X249372729Y-127485848D01*
X249199807Y-127408857D01*
X249199802Y-127408855D01*
X249054001Y-127377865D01*
X249014646Y-127369500D01*
X248825354Y-127369500D01*
X248792897Y-127376398D01*
X248640197Y-127408855D01*
X248640192Y-127408857D01*
X248467270Y-127485848D01*
X248467265Y-127485851D01*
X248314129Y-127597111D01*
X248187466Y-127737785D01*
X248092821Y-127901715D01*
X248092818Y-127901722D01*
X248050862Y-128030851D01*
X248034326Y-128081744D01*
X248014540Y-128270000D01*
X225511022Y-128270000D01*
X225395871Y-128142112D01*
X225395870Y-128142111D01*
X225242734Y-128030851D01*
X225242729Y-128030848D01*
X225069807Y-127953857D01*
X225069802Y-127953855D01*
X224924001Y-127922865D01*
X224884646Y-127914500D01*
X224695354Y-127914500D01*
X224581148Y-127938774D01*
X224531004Y-127949433D01*
X224461337Y-127944116D01*
X224405604Y-127901978D01*
X224381499Y-127836398D01*
X224387294Y-127789822D01*
X224404202Y-127737785D01*
X224405674Y-127733256D01*
X224425460Y-127545000D01*
X224405674Y-127356744D01*
X224347179Y-127176716D01*
X224252533Y-127012784D01*
X224125871Y-126872112D01*
X224125870Y-126872111D01*
X223972734Y-126760851D01*
X223972729Y-126760848D01*
X223799807Y-126683857D01*
X223799802Y-126683855D01*
X223654001Y-126652865D01*
X223614646Y-126644500D01*
X223425354Y-126644500D01*
X223392897Y-126651398D01*
X223240197Y-126683855D01*
X223240192Y-126683857D01*
X223067270Y-126760848D01*
X223067265Y-126760851D01*
X222914129Y-126872111D01*
X222787466Y-127012785D01*
X222692821Y-127176715D01*
X222692818Y-127176722D01*
X222634327Y-127356740D01*
X222634326Y-127356744D01*
X222614540Y-127545000D01*
X211558499Y-127545000D01*
X211558499Y-126574128D01*
X211552091Y-126514517D01*
X211551954Y-126514151D01*
X211501797Y-126379671D01*
X211501793Y-126379664D01*
X211415547Y-126264455D01*
X211415544Y-126264452D01*
X211300335Y-126178206D01*
X211300328Y-126178202D01*
X211165482Y-126127908D01*
X211165483Y-126127908D01*
X211105883Y-126121501D01*
X211105881Y-126121500D01*
X211105873Y-126121500D01*
X211105864Y-126121500D01*
X207294129Y-126121500D01*
X207294123Y-126121501D01*
X207234516Y-126127908D01*
X207099671Y-126178202D01*
X207099664Y-126178206D01*
X206984455Y-126264452D01*
X206984452Y-126264455D01*
X206898206Y-126379664D01*
X206898202Y-126379671D01*
X206847908Y-126514517D01*
X206841501Y-126574116D01*
X206841501Y-126574123D01*
X206841500Y-126574135D01*
X200390500Y-126574135D01*
X200390500Y-125243389D01*
X201499500Y-125243389D01*
X201499500Y-125416611D01*
X201526598Y-125587701D01*
X201580127Y-125752445D01*
X201658768Y-125906788D01*
X201760586Y-126046928D01*
X201883072Y-126169414D01*
X202023212Y-126271232D01*
X202177555Y-126349873D01*
X202342299Y-126403402D01*
X202513389Y-126430500D01*
X202513390Y-126430500D01*
X203886610Y-126430500D01*
X203886611Y-126430500D01*
X204057701Y-126403402D01*
X204222445Y-126349873D01*
X204376788Y-126271232D01*
X204516928Y-126169414D01*
X204639414Y-126046928D01*
X204741232Y-125906788D01*
X204819873Y-125752445D01*
X204827166Y-125730000D01*
X245474540Y-125730000D01*
X245494326Y-125918256D01*
X245494327Y-125918259D01*
X245552818Y-126098277D01*
X245552821Y-126098284D01*
X245647467Y-126262216D01*
X245753224Y-126379671D01*
X245774129Y-126402888D01*
X245927265Y-126514148D01*
X245927270Y-126514151D01*
X246100192Y-126591142D01*
X246100197Y-126591144D01*
X246285354Y-126630500D01*
X246285355Y-126630500D01*
X246474644Y-126630500D01*
X246474646Y-126630500D01*
X246659803Y-126591144D01*
X246832730Y-126514151D01*
X246985871Y-126402888D01*
X247112533Y-126262216D01*
X247207179Y-126098284D01*
X247265674Y-125918256D01*
X247285460Y-125730000D01*
X247265674Y-125541744D01*
X247207179Y-125361716D01*
X247112533Y-125197784D01*
X246985871Y-125057112D01*
X246985870Y-125057111D01*
X246832734Y-124945851D01*
X246832729Y-124945848D01*
X246659807Y-124868857D01*
X246659802Y-124868855D01*
X246514001Y-124837865D01*
X246474646Y-124829500D01*
X246285354Y-124829500D01*
X246252897Y-124836398D01*
X246100197Y-124868855D01*
X246100192Y-124868857D01*
X245927270Y-124945848D01*
X245927265Y-124945851D01*
X245774129Y-125057111D01*
X245647466Y-125197785D01*
X245552821Y-125361715D01*
X245552818Y-125361722D01*
X245534984Y-125416611D01*
X245494326Y-125541744D01*
X245474540Y-125730000D01*
X204827166Y-125730000D01*
X204873402Y-125587701D01*
X204900500Y-125416611D01*
X204900500Y-125243389D01*
X204873402Y-125072299D01*
X204819873Y-124907555D01*
X204741232Y-124753212D01*
X204639414Y-124613072D01*
X204516928Y-124490586D01*
X204376788Y-124388768D01*
X204222445Y-124310127D01*
X204057701Y-124256598D01*
X204057699Y-124256597D01*
X204057698Y-124256597D01*
X203926271Y-124235781D01*
X203886611Y-124229500D01*
X202513389Y-124229500D01*
X202473728Y-124235781D01*
X202342302Y-124256597D01*
X202177552Y-124310128D01*
X202023211Y-124388768D01*
X201990220Y-124412738D01*
X201883072Y-124490586D01*
X201883070Y-124490588D01*
X201883069Y-124490588D01*
X201760588Y-124613069D01*
X201760588Y-124613070D01*
X201760586Y-124613072D01*
X201716859Y-124673256D01*
X201658768Y-124753211D01*
X201580128Y-124907552D01*
X201526597Y-125072302D01*
X201506723Y-125197784D01*
X201499500Y-125243389D01*
X200390500Y-125243389D01*
X200390500Y-123068711D01*
X226799500Y-123068711D01*
X226799500Y-123311288D01*
X226831161Y-123551785D01*
X226893947Y-123786104D01*
X226986773Y-124010205D01*
X226986776Y-124010212D01*
X227108064Y-124220289D01*
X227108066Y-124220292D01*
X227108067Y-124220293D01*
X227255733Y-124412736D01*
X227255739Y-124412743D01*
X227427256Y-124584260D01*
X227427262Y-124584265D01*
X227619711Y-124731936D01*
X227829788Y-124853224D01*
X228053900Y-124946054D01*
X228288211Y-125008838D01*
X228468586Y-125032584D01*
X228528711Y-125040500D01*
X228528712Y-125040500D01*
X228771289Y-125040500D01*
X228819388Y-125034167D01*
X229011789Y-125008838D01*
X229246100Y-124946054D01*
X229470212Y-124853224D01*
X229680289Y-124731936D01*
X229872738Y-124584265D01*
X230044265Y-124412738D01*
X230191936Y-124220289D01*
X230313224Y-124010212D01*
X230406054Y-123786100D01*
X230468838Y-123551789D01*
X230500500Y-123311288D01*
X230500500Y-123068712D01*
X230500500Y-123068711D01*
X264799500Y-123068711D01*
X264799500Y-123311288D01*
X264831161Y-123551785D01*
X264893947Y-123786104D01*
X264986773Y-124010205D01*
X264986776Y-124010212D01*
X265108064Y-124220289D01*
X265108066Y-124220292D01*
X265108067Y-124220293D01*
X265255733Y-124412736D01*
X265255739Y-124412743D01*
X265427256Y-124584260D01*
X265427262Y-124584265D01*
X265619711Y-124731936D01*
X265829788Y-124853224D01*
X266053900Y-124946054D01*
X266288211Y-125008838D01*
X266468586Y-125032584D01*
X266528711Y-125040500D01*
X266528712Y-125040500D01*
X266771289Y-125040500D01*
X266819388Y-125034167D01*
X267011789Y-125008838D01*
X267246100Y-124946054D01*
X267470212Y-124853224D01*
X267680289Y-124731936D01*
X267872738Y-124584265D01*
X268044265Y-124412738D01*
X268191936Y-124220289D01*
X268313224Y-124010212D01*
X268406054Y-123786100D01*
X268468838Y-123551789D01*
X268500500Y-123311288D01*
X268500500Y-123068712D01*
X268468838Y-122828211D01*
X268406054Y-122593900D01*
X268313224Y-122369788D01*
X268191936Y-122159711D01*
X268044265Y-121967262D01*
X268044260Y-121967256D01*
X267872743Y-121795739D01*
X267872736Y-121795733D01*
X267680293Y-121648067D01*
X267680292Y-121648066D01*
X267680289Y-121648064D01*
X267470212Y-121526776D01*
X267432473Y-121511144D01*
X267246104Y-121433947D01*
X267073826Y-121387785D01*
X267011789Y-121371162D01*
X267011788Y-121371161D01*
X267011785Y-121371161D01*
X266771289Y-121339500D01*
X266771288Y-121339500D01*
X266528712Y-121339500D01*
X266528711Y-121339500D01*
X266288214Y-121371161D01*
X266053895Y-121433947D01*
X265829794Y-121526773D01*
X265829785Y-121526777D01*
X265619706Y-121648067D01*
X265427263Y-121795733D01*
X265427256Y-121795739D01*
X265255739Y-121967256D01*
X265255733Y-121967263D01*
X265108067Y-122159706D01*
X264986777Y-122369785D01*
X264986773Y-122369794D01*
X264893947Y-122593895D01*
X264831161Y-122828214D01*
X264799500Y-123068711D01*
X230500500Y-123068711D01*
X230468838Y-122828211D01*
X230406054Y-122593900D01*
X230313224Y-122369788D01*
X230191936Y-122159711D01*
X230044265Y-121967262D01*
X230044260Y-121967256D01*
X229872743Y-121795739D01*
X229872736Y-121795733D01*
X229680293Y-121648067D01*
X229680292Y-121648066D01*
X229680289Y-121648064D01*
X229470212Y-121526776D01*
X229432473Y-121511144D01*
X229246104Y-121433947D01*
X229197860Y-121421020D01*
X232077290Y-121421020D01*
X232097076Y-121609276D01*
X232097077Y-121609279D01*
X232155568Y-121789297D01*
X232155571Y-121789304D01*
X232250217Y-121953236D01*
X232316444Y-122026788D01*
X232376879Y-122093908D01*
X232530015Y-122205168D01*
X232530020Y-122205171D01*
X232702942Y-122282162D01*
X232702947Y-122282164D01*
X232888104Y-122321520D01*
X232888105Y-122321520D01*
X233077394Y-122321520D01*
X233077396Y-122321520D01*
X233262553Y-122282164D01*
X233435480Y-122205171D01*
X233588621Y-122093908D01*
X233715283Y-121953236D01*
X233809929Y-121789304D01*
X233868424Y-121609276D01*
X233888210Y-121421020D01*
X233868424Y-121232764D01*
X233809929Y-121052736D01*
X233749083Y-120947347D01*
X236881887Y-120947347D01*
X236901673Y-121135603D01*
X236901674Y-121135606D01*
X236960165Y-121315624D01*
X236960168Y-121315631D01*
X237054814Y-121479563D01*
X237171611Y-121609279D01*
X237181476Y-121620235D01*
X237334612Y-121731495D01*
X237334617Y-121731498D01*
X237507539Y-121808489D01*
X237507544Y-121808491D01*
X237692701Y-121847847D01*
X237692702Y-121847847D01*
X237881991Y-121847847D01*
X237881993Y-121847847D01*
X238067150Y-121808491D01*
X238240077Y-121731498D01*
X238393218Y-121620235D01*
X238519880Y-121479563D01*
X238614526Y-121315631D01*
X238673021Y-121135603D01*
X238692807Y-120947347D01*
X238673021Y-120759091D01*
X238614526Y-120579063D01*
X238519880Y-120415131D01*
X238393218Y-120274459D01*
X238347364Y-120241144D01*
X238240081Y-120163198D01*
X238240076Y-120163195D01*
X238067154Y-120086204D01*
X238067149Y-120086202D01*
X237910414Y-120052888D01*
X237881993Y-120046847D01*
X237692701Y-120046847D01*
X237664280Y-120052888D01*
X237507544Y-120086202D01*
X237507539Y-120086204D01*
X237334617Y-120163195D01*
X237334612Y-120163198D01*
X237181476Y-120274458D01*
X237054813Y-120415132D01*
X236960168Y-120579062D01*
X236960165Y-120579069D01*
X236901674Y-120759087D01*
X236901673Y-120759091D01*
X236881887Y-120947347D01*
X233749083Y-120947347D01*
X233715283Y-120888804D01*
X233588621Y-120748132D01*
X233567890Y-120733070D01*
X233435484Y-120636871D01*
X233435479Y-120636868D01*
X233262557Y-120559877D01*
X233262552Y-120559875D01*
X233116751Y-120528885D01*
X233077396Y-120520520D01*
X232888104Y-120520520D01*
X232855647Y-120527418D01*
X232702947Y-120559875D01*
X232702942Y-120559877D01*
X232530020Y-120636868D01*
X232530015Y-120636871D01*
X232376879Y-120748131D01*
X232250216Y-120888805D01*
X232155571Y-121052735D01*
X232155568Y-121052742D01*
X232097077Y-121232760D01*
X232097076Y-121232764D01*
X232077290Y-121421020D01*
X229197860Y-121421020D01*
X229073826Y-121387785D01*
X229011789Y-121371162D01*
X229011788Y-121371161D01*
X229011785Y-121371161D01*
X228771289Y-121339500D01*
X228771288Y-121339500D01*
X228528712Y-121339500D01*
X228528711Y-121339500D01*
X228288214Y-121371161D01*
X228053895Y-121433947D01*
X227829794Y-121526773D01*
X227829785Y-121526777D01*
X227619706Y-121648067D01*
X227427263Y-121795733D01*
X227427256Y-121795739D01*
X227255739Y-121967256D01*
X227255733Y-121967263D01*
X227108067Y-122159706D01*
X226986777Y-122369785D01*
X226986773Y-122369794D01*
X226893947Y-122593895D01*
X226831161Y-122828214D01*
X226799500Y-123068711D01*
X200390500Y-123068711D01*
X200390500Y-121363389D01*
X201499500Y-121363389D01*
X201499500Y-121536611D01*
X201501893Y-121551722D01*
X201521446Y-121675176D01*
X201526598Y-121707701D01*
X201580127Y-121872445D01*
X201658768Y-122026788D01*
X201760586Y-122166928D01*
X201883072Y-122289414D01*
X202023212Y-122391232D01*
X202177555Y-122469873D01*
X202342299Y-122523402D01*
X202513389Y-122550500D01*
X202513390Y-122550500D01*
X203886610Y-122550500D01*
X203886611Y-122550500D01*
X204057701Y-122523402D01*
X204222445Y-122469873D01*
X204376788Y-122391232D01*
X204516928Y-122289414D01*
X204639414Y-122166928D01*
X204741232Y-122026788D01*
X204795643Y-121920000D01*
X222614540Y-121920000D01*
X222634326Y-122108256D01*
X222634327Y-122108259D01*
X222692818Y-122288277D01*
X222692821Y-122288284D01*
X222787467Y-122452216D01*
X222875963Y-122550500D01*
X222914129Y-122592888D01*
X223067265Y-122704148D01*
X223067270Y-122704151D01*
X223240192Y-122781142D01*
X223240197Y-122781144D01*
X223425354Y-122820500D01*
X223425355Y-122820500D01*
X223614644Y-122820500D01*
X223614646Y-122820500D01*
X223799803Y-122781144D01*
X223972730Y-122704151D01*
X224125871Y-122592888D01*
X224252533Y-122452216D01*
X224347179Y-122288284D01*
X224405674Y-122108256D01*
X224425460Y-121920000D01*
X224405674Y-121731744D01*
X224387292Y-121675173D01*
X224385298Y-121605335D01*
X224421378Y-121545502D01*
X224484078Y-121514673D01*
X224531005Y-121515567D01*
X224583726Y-121526773D01*
X224695354Y-121550500D01*
X224695355Y-121550500D01*
X224884644Y-121550500D01*
X224884646Y-121550500D01*
X225069803Y-121511144D01*
X225242730Y-121434151D01*
X225395871Y-121322888D01*
X225522533Y-121182216D01*
X225617179Y-121018284D01*
X225675674Y-120838256D01*
X225695460Y-120650000D01*
X225675674Y-120461744D01*
X225617179Y-120281716D01*
X225522533Y-120117784D01*
X225395871Y-119977112D01*
X225387486Y-119971020D01*
X225242734Y-119865851D01*
X225242729Y-119865848D01*
X225069807Y-119788857D01*
X225069802Y-119788855D01*
X224924001Y-119757865D01*
X224884646Y-119749500D01*
X224695354Y-119749500D01*
X224662897Y-119756398D01*
X224510197Y-119788855D01*
X224510192Y-119788857D01*
X224337270Y-119865848D01*
X224337265Y-119865851D01*
X224184129Y-119977111D01*
X224057466Y-120117785D01*
X223962821Y-120281715D01*
X223962818Y-120281722D01*
X223904327Y-120461740D01*
X223904326Y-120461744D01*
X223884540Y-120650000D01*
X223904326Y-120838256D01*
X223904327Y-120838259D01*
X223922706Y-120894824D01*
X223924701Y-120964665D01*
X223888621Y-121024498D01*
X223825920Y-121055326D01*
X223778995Y-121054433D01*
X223752862Y-121048878D01*
X223614646Y-121019500D01*
X223425354Y-121019500D01*
X223401840Y-121024498D01*
X223240197Y-121058855D01*
X223240192Y-121058857D01*
X223067270Y-121135848D01*
X223067265Y-121135851D01*
X222914129Y-121247111D01*
X222787466Y-121387785D01*
X222692821Y-121551715D01*
X222692818Y-121551722D01*
X222661515Y-121648064D01*
X222634326Y-121731744D01*
X222614540Y-121920000D01*
X204795643Y-121920000D01*
X204819873Y-121872445D01*
X204873402Y-121707701D01*
X204900500Y-121536611D01*
X204900500Y-121363389D01*
X204873402Y-121192299D01*
X204819873Y-121027555D01*
X204741232Y-120873212D01*
X204639414Y-120733072D01*
X204516928Y-120610586D01*
X204376788Y-120508768D01*
X204222445Y-120430127D01*
X204057701Y-120376598D01*
X204057699Y-120376597D01*
X204057698Y-120376597D01*
X203926271Y-120355781D01*
X203886611Y-120349500D01*
X202513389Y-120349500D01*
X202473728Y-120355781D01*
X202342302Y-120376597D01*
X202342299Y-120376598D01*
X202223705Y-120415132D01*
X202177552Y-120430128D01*
X202023211Y-120508768D01*
X201972656Y-120545499D01*
X201883072Y-120610586D01*
X201883070Y-120610588D01*
X201883069Y-120610588D01*
X201760588Y-120733069D01*
X201760588Y-120733070D01*
X201760586Y-120733072D01*
X201744530Y-120755171D01*
X201658768Y-120873211D01*
X201580128Y-121027552D01*
X201526597Y-121192302D01*
X201517916Y-121247112D01*
X201499500Y-121363389D01*
X200390500Y-121363389D01*
X200390500Y-118300000D01*
X206836941Y-118300000D01*
X206857157Y-118608439D01*
X206857159Y-118608451D01*
X206917458Y-118911597D01*
X206917462Y-118911612D01*
X207016816Y-119204299D01*
X207016825Y-119204320D01*
X207153528Y-119481526D01*
X207325257Y-119738537D01*
X207325262Y-119738543D01*
X207363872Y-119782571D01*
X207363875Y-119782571D01*
X208084728Y-119061717D01*
X208170278Y-119179466D01*
X208320534Y-119329722D01*
X208438281Y-119415270D01*
X207717427Y-120136123D01*
X207717427Y-120136124D01*
X207761463Y-120174742D01*
X208018473Y-120346471D01*
X208295679Y-120483174D01*
X208295700Y-120483183D01*
X208588387Y-120582537D01*
X208588402Y-120582541D01*
X208891548Y-120642840D01*
X208891560Y-120642842D01*
X209200000Y-120663058D01*
X209508439Y-120642842D01*
X209508451Y-120642840D01*
X209811597Y-120582541D01*
X209811612Y-120582537D01*
X210104299Y-120483183D01*
X210104320Y-120483174D01*
X210381526Y-120346471D01*
X210638540Y-120174740D01*
X210682571Y-120136125D01*
X210682571Y-120136124D01*
X209961717Y-119415270D01*
X210079466Y-119329722D01*
X210229722Y-119179466D01*
X210315270Y-119061717D01*
X211036124Y-119782571D01*
X211036125Y-119782571D01*
X211074740Y-119738540D01*
X211246471Y-119481526D01*
X211296538Y-119380000D01*
X230234540Y-119380000D01*
X230254326Y-119568256D01*
X230254327Y-119568259D01*
X230312818Y-119748277D01*
X230312821Y-119748284D01*
X230407467Y-119912216D01*
X230528690Y-120046847D01*
X230534129Y-120052888D01*
X230687265Y-120164148D01*
X230687270Y-120164151D01*
X230860192Y-120241142D01*
X230860197Y-120241144D01*
X231045354Y-120280500D01*
X231045355Y-120280500D01*
X231234644Y-120280500D01*
X231234646Y-120280500D01*
X231419803Y-120241144D01*
X231592730Y-120164151D01*
X231745871Y-120052888D01*
X231820116Y-119970429D01*
X231879601Y-119933782D01*
X231949458Y-119935112D01*
X231985147Y-119953083D01*
X232067996Y-120013276D01*
X232091250Y-120030171D01*
X232264172Y-120107162D01*
X232264177Y-120107164D01*
X232449334Y-120146520D01*
X232449335Y-120146520D01*
X232638624Y-120146520D01*
X232638626Y-120146520D01*
X232823783Y-120107164D01*
X232996710Y-120030171D01*
X233078125Y-119971020D01*
X234044540Y-119971020D01*
X234064326Y-120159276D01*
X234064327Y-120159279D01*
X234122818Y-120339297D01*
X234122821Y-120339304D01*
X234217467Y-120503236D01*
X234337790Y-120636868D01*
X234344129Y-120643908D01*
X234497265Y-120755168D01*
X234497270Y-120755171D01*
X234670192Y-120832162D01*
X234670197Y-120832164D01*
X234855354Y-120871520D01*
X234855355Y-120871520D01*
X235044644Y-120871520D01*
X235044646Y-120871520D01*
X235229803Y-120832164D01*
X235402730Y-120755171D01*
X235555871Y-120643908D01*
X235682533Y-120503236D01*
X235777179Y-120339304D01*
X235835674Y-120159276D01*
X235855460Y-119971020D01*
X235835674Y-119782764D01*
X235777179Y-119602736D01*
X235682533Y-119438804D01*
X235629585Y-119380000D01*
X240394540Y-119380000D01*
X240414326Y-119568256D01*
X240414327Y-119568259D01*
X240472818Y-119748277D01*
X240472821Y-119748284D01*
X240567467Y-119912216D01*
X240688690Y-120046847D01*
X240694129Y-120052888D01*
X240847265Y-120164148D01*
X240847270Y-120164151D01*
X241020192Y-120241142D01*
X241020197Y-120241144D01*
X241205354Y-120280500D01*
X241205355Y-120280500D01*
X241394644Y-120280500D01*
X241394646Y-120280500D01*
X241579803Y-120241144D01*
X241752730Y-120164151D01*
X241905871Y-120052888D01*
X242032533Y-119912216D01*
X242127179Y-119748284D01*
X242160739Y-119644999D01*
X242934236Y-119644999D01*
X242954022Y-119833255D01*
X242954023Y-119833258D01*
X243012514Y-120013276D01*
X243012517Y-120013283D01*
X243107163Y-120177215D01*
X243201262Y-120281722D01*
X243233825Y-120317887D01*
X243386961Y-120429147D01*
X243386966Y-120429150D01*
X243559888Y-120506141D01*
X243559893Y-120506143D01*
X243745050Y-120545499D01*
X243745051Y-120545499D01*
X243934340Y-120545499D01*
X243934342Y-120545499D01*
X244119499Y-120506143D01*
X244292426Y-120429150D01*
X244445567Y-120317887D01*
X244572229Y-120177215D01*
X244666875Y-120013283D01*
X244725370Y-119833255D01*
X244745156Y-119644999D01*
X244725370Y-119456743D01*
X244700435Y-119380000D01*
X251824540Y-119380000D01*
X251844326Y-119568256D01*
X251844327Y-119568259D01*
X251902818Y-119748277D01*
X251902821Y-119748284D01*
X251997467Y-119912216D01*
X252118690Y-120046847D01*
X252124129Y-120052888D01*
X252277265Y-120164148D01*
X252277270Y-120164151D01*
X252450192Y-120241142D01*
X252450197Y-120241144D01*
X252635354Y-120280500D01*
X252635355Y-120280500D01*
X252824644Y-120280500D01*
X252824646Y-120280500D01*
X253009803Y-120241144D01*
X253182730Y-120164151D01*
X253335871Y-120052888D01*
X253462533Y-119912216D01*
X253557179Y-119748284D01*
X253615674Y-119568256D01*
X253635460Y-119380000D01*
X253615674Y-119191744D01*
X253557179Y-119011716D01*
X253462533Y-118847784D01*
X253335871Y-118707112D01*
X253335870Y-118707111D01*
X253182734Y-118595851D01*
X253182729Y-118595848D01*
X253009807Y-118518857D01*
X253009802Y-118518855D01*
X252864001Y-118487865D01*
X252824646Y-118479500D01*
X252635354Y-118479500D01*
X252602897Y-118486398D01*
X252450197Y-118518855D01*
X252450192Y-118518857D01*
X252277270Y-118595848D01*
X252277265Y-118595851D01*
X252124129Y-118707111D01*
X251997466Y-118847785D01*
X251902821Y-119011715D01*
X251902818Y-119011722D01*
X251859415Y-119145305D01*
X251844326Y-119191744D01*
X251824540Y-119380000D01*
X244700435Y-119380000D01*
X244666875Y-119276715D01*
X244572229Y-119112783D01*
X244445567Y-118972111D01*
X244444236Y-118971144D01*
X244292430Y-118860850D01*
X244292425Y-118860847D01*
X244119503Y-118783856D01*
X244119498Y-118783854D01*
X243973697Y-118752864D01*
X243934342Y-118744499D01*
X243745050Y-118744499D01*
X243712593Y-118751397D01*
X243559893Y-118783854D01*
X243559888Y-118783856D01*
X243386966Y-118860847D01*
X243386961Y-118860850D01*
X243233825Y-118972110D01*
X243107162Y-119112784D01*
X243012517Y-119276714D01*
X243012514Y-119276721D01*
X242959850Y-119438805D01*
X242954022Y-119456743D01*
X242934236Y-119644999D01*
X242160739Y-119644999D01*
X242185674Y-119568256D01*
X242205460Y-119380000D01*
X242185674Y-119191744D01*
X242127179Y-119011716D01*
X242032533Y-118847784D01*
X241905871Y-118707112D01*
X241905870Y-118707111D01*
X241752734Y-118595851D01*
X241752729Y-118595848D01*
X241579807Y-118518857D01*
X241579802Y-118518855D01*
X241434001Y-118487865D01*
X241394646Y-118479500D01*
X241205354Y-118479500D01*
X241172897Y-118486398D01*
X241020197Y-118518855D01*
X241020192Y-118518857D01*
X240847270Y-118595848D01*
X240847265Y-118595851D01*
X240694129Y-118707111D01*
X240567466Y-118847785D01*
X240472821Y-119011715D01*
X240472818Y-119011722D01*
X240429415Y-119145305D01*
X240414326Y-119191744D01*
X240394540Y-119380000D01*
X235629585Y-119380000D01*
X235555871Y-119298132D01*
X235555870Y-119298131D01*
X235402734Y-119186871D01*
X235402729Y-119186868D01*
X235229807Y-119109877D01*
X235229802Y-119109875D01*
X235073133Y-119076575D01*
X235044646Y-119070520D01*
X234855354Y-119070520D01*
X234826867Y-119076575D01*
X234670197Y-119109875D01*
X234670192Y-119109877D01*
X234497270Y-119186868D01*
X234497265Y-119186871D01*
X234344129Y-119298131D01*
X234217466Y-119438805D01*
X234122821Y-119602735D01*
X234122818Y-119602742D01*
X234064327Y-119782760D01*
X234064326Y-119782764D01*
X234044540Y-119971020D01*
X233078125Y-119971020D01*
X233149851Y-119918908D01*
X233276513Y-119778236D01*
X233371159Y-119614304D01*
X233429654Y-119434276D01*
X233449440Y-119246020D01*
X233438854Y-119145302D01*
X233451423Y-119076575D01*
X233499155Y-119025551D01*
X233566896Y-119008433D01*
X233578884Y-119009924D01*
X233578895Y-119009821D01*
X233585353Y-119010500D01*
X233585354Y-119010500D01*
X233774644Y-119010500D01*
X233774646Y-119010500D01*
X233959803Y-118971144D01*
X234132730Y-118894151D01*
X234285871Y-118782888D01*
X234412533Y-118642216D01*
X234507179Y-118478284D01*
X234565674Y-118298256D01*
X234585460Y-118110000D01*
X234565674Y-117921744D01*
X234507179Y-117741716D01*
X234412533Y-117577784D01*
X234285871Y-117437112D01*
X234285870Y-117437111D01*
X234132734Y-117325851D01*
X234132729Y-117325848D01*
X233959807Y-117248857D01*
X233959802Y-117248855D01*
X233814001Y-117217865D01*
X233774646Y-117209500D01*
X233585354Y-117209500D01*
X233552897Y-117216398D01*
X233400197Y-117248855D01*
X233400192Y-117248857D01*
X233227270Y-117325848D01*
X233227265Y-117325851D01*
X233074129Y-117437111D01*
X232947466Y-117577785D01*
X232852821Y-117741715D01*
X232852818Y-117741722D01*
X232824953Y-117827483D01*
X232794326Y-117921744D01*
X232777951Y-118077544D01*
X232774540Y-118110000D01*
X232785125Y-118210717D01*
X232772555Y-118279446D01*
X232724823Y-118330470D01*
X232657082Y-118347587D01*
X232645094Y-118346095D01*
X232645084Y-118346199D01*
X232638626Y-118345520D01*
X232449334Y-118345520D01*
X232416877Y-118352418D01*
X232264177Y-118384875D01*
X232264172Y-118384877D01*
X232091250Y-118461868D01*
X232091245Y-118461871D01*
X231938109Y-118573131D01*
X231938108Y-118573132D01*
X231863863Y-118655589D01*
X231804376Y-118692237D01*
X231734519Y-118690906D01*
X231698829Y-118672934D01*
X231592734Y-118595851D01*
X231592729Y-118595848D01*
X231419807Y-118518857D01*
X231419802Y-118518855D01*
X231274001Y-118487865D01*
X231234646Y-118479500D01*
X231045354Y-118479500D01*
X231012897Y-118486398D01*
X230860197Y-118518855D01*
X230860192Y-118518857D01*
X230687270Y-118595848D01*
X230687265Y-118595851D01*
X230534129Y-118707111D01*
X230407466Y-118847785D01*
X230312821Y-119011715D01*
X230312818Y-119011722D01*
X230269415Y-119145305D01*
X230254326Y-119191744D01*
X230234540Y-119380000D01*
X211296538Y-119380000D01*
X211383174Y-119204320D01*
X211383183Y-119204299D01*
X211482537Y-118911612D01*
X211482541Y-118911597D01*
X211542840Y-118608451D01*
X211542842Y-118608439D01*
X211563058Y-118300000D01*
X211542842Y-117991560D01*
X211542840Y-117991548D01*
X211482541Y-117688402D01*
X211482537Y-117688387D01*
X211383183Y-117395700D01*
X211383174Y-117395679D01*
X211246474Y-117118480D01*
X211246465Y-117118465D01*
X211074742Y-116861463D01*
X211055920Y-116840000D01*
X225154540Y-116840000D01*
X225174326Y-117028256D01*
X225174327Y-117028259D01*
X225232818Y-117208277D01*
X225232821Y-117208284D01*
X225327467Y-117372216D01*
X225370973Y-117420534D01*
X225454129Y-117512888D01*
X225607265Y-117624148D01*
X225607270Y-117624151D01*
X225780192Y-117701142D01*
X225780197Y-117701144D01*
X225965354Y-117740500D01*
X225965355Y-117740500D01*
X226154644Y-117740500D01*
X226154646Y-117740500D01*
X226339803Y-117701144D01*
X226512730Y-117624151D01*
X226622117Y-117544676D01*
X226687920Y-117521198D01*
X226755974Y-117537023D01*
X226767871Y-117544668D01*
X226833632Y-117592446D01*
X226877270Y-117624151D01*
X227050192Y-117701142D01*
X227050197Y-117701144D01*
X227235354Y-117740500D01*
X227235355Y-117740500D01*
X227424644Y-117740500D01*
X227424646Y-117740500D01*
X227609803Y-117701144D01*
X227782730Y-117624151D01*
X227892117Y-117544676D01*
X227957920Y-117521198D01*
X228025974Y-117537023D01*
X228037871Y-117544668D01*
X228103632Y-117592446D01*
X228147270Y-117624151D01*
X228320192Y-117701142D01*
X228320197Y-117701144D01*
X228505354Y-117740500D01*
X228505355Y-117740500D01*
X228694644Y-117740500D01*
X228694646Y-117740500D01*
X228879803Y-117701144D01*
X229052730Y-117624151D01*
X229205871Y-117512888D01*
X229332533Y-117372216D01*
X229427179Y-117208284D01*
X229485674Y-117028256D01*
X229505460Y-116840000D01*
X229485674Y-116651744D01*
X229427179Y-116471716D01*
X229332533Y-116307784D01*
X229205871Y-116167112D01*
X229194432Y-116158801D01*
X229052734Y-116055851D01*
X229052729Y-116055848D01*
X228879807Y-115978857D01*
X228879802Y-115978855D01*
X228734001Y-115947865D01*
X228694646Y-115939500D01*
X228505354Y-115939500D01*
X228472897Y-115946398D01*
X228320197Y-115978855D01*
X228320192Y-115978857D01*
X228147270Y-116055848D01*
X228147265Y-116055851D01*
X228037885Y-116135321D01*
X227972079Y-116158801D01*
X227904025Y-116142975D01*
X227892115Y-116135321D01*
X227782734Y-116055851D01*
X227782729Y-116055848D01*
X227609807Y-115978857D01*
X227609802Y-115978855D01*
X227464001Y-115947865D01*
X227424646Y-115939500D01*
X227235354Y-115939500D01*
X227202897Y-115946398D01*
X227050197Y-115978855D01*
X227050192Y-115978857D01*
X226877270Y-116055848D01*
X226877265Y-116055851D01*
X226767885Y-116135321D01*
X226702079Y-116158801D01*
X226634025Y-116142975D01*
X226622115Y-116135321D01*
X226512734Y-116055851D01*
X226512729Y-116055848D01*
X226339807Y-115978857D01*
X226339802Y-115978855D01*
X226194001Y-115947865D01*
X226154646Y-115939500D01*
X225965354Y-115939500D01*
X225932897Y-115946398D01*
X225780197Y-115978855D01*
X225780192Y-115978857D01*
X225607270Y-116055848D01*
X225607265Y-116055851D01*
X225454129Y-116167111D01*
X225327466Y-116307785D01*
X225232821Y-116471715D01*
X225232818Y-116471722D01*
X225174327Y-116651740D01*
X225174326Y-116651744D01*
X225154540Y-116840000D01*
X211055920Y-116840000D01*
X211036124Y-116817427D01*
X211036123Y-116817427D01*
X210315269Y-117538281D01*
X210229722Y-117420534D01*
X210079466Y-117270278D01*
X209961717Y-117184729D01*
X210682571Y-116463875D01*
X210682571Y-116463872D01*
X210638543Y-116425262D01*
X210638537Y-116425257D01*
X210381526Y-116253528D01*
X210104320Y-116116825D01*
X210104299Y-116116816D01*
X209811612Y-116017462D01*
X209811597Y-116017458D01*
X209508451Y-115957159D01*
X209508439Y-115957157D01*
X209200000Y-115936941D01*
X208891560Y-115957157D01*
X208891548Y-115957159D01*
X208588402Y-116017458D01*
X208588387Y-116017462D01*
X208295700Y-116116816D01*
X208295679Y-116116825D01*
X208018480Y-116253525D01*
X208018465Y-116253534D01*
X207761459Y-116425260D01*
X207761452Y-116425265D01*
X207717427Y-116463872D01*
X207717427Y-116463874D01*
X208438282Y-117184729D01*
X208320534Y-117270278D01*
X208170278Y-117420534D01*
X208084729Y-117538282D01*
X207363874Y-116817427D01*
X207363872Y-116817427D01*
X207325265Y-116861452D01*
X207325260Y-116861459D01*
X207153534Y-117118465D01*
X207153525Y-117118480D01*
X207016825Y-117395679D01*
X207016816Y-117395700D01*
X206917462Y-117688387D01*
X206917458Y-117688402D01*
X206857159Y-117991548D01*
X206857157Y-117991560D01*
X206836941Y-118300000D01*
X200390500Y-118300000D01*
X200390500Y-115570000D01*
X237854540Y-115570000D01*
X237874326Y-115758256D01*
X237874327Y-115758259D01*
X237932818Y-115938277D01*
X237932821Y-115938284D01*
X238027467Y-116102216D01*
X238154129Y-116242888D01*
X238307265Y-116354148D01*
X238307270Y-116354151D01*
X238480192Y-116431142D01*
X238480197Y-116431144D01*
X238665354Y-116470500D01*
X238665355Y-116470500D01*
X238854644Y-116470500D01*
X238854646Y-116470500D01*
X239039803Y-116431144D01*
X239212730Y-116354151D01*
X239365871Y-116242888D01*
X239492533Y-116102216D01*
X239587179Y-115938284D01*
X239645674Y-115758256D01*
X239665460Y-115570000D01*
X240394540Y-115570000D01*
X240414326Y-115758256D01*
X240414327Y-115758259D01*
X240472818Y-115938277D01*
X240472821Y-115938284D01*
X240567467Y-116102216D01*
X240577806Y-116113699D01*
X240585307Y-116122030D01*
X240615535Y-116185022D01*
X240606909Y-116254357D01*
X240585307Y-116287970D01*
X240567466Y-116307785D01*
X240472821Y-116471715D01*
X240472818Y-116471722D01*
X240414327Y-116651740D01*
X240414326Y-116651744D01*
X240394540Y-116840000D01*
X240414326Y-117028256D01*
X240414327Y-117028259D01*
X240472818Y-117208277D01*
X240472821Y-117208284D01*
X240567467Y-117372216D01*
X240610973Y-117420534D01*
X240694129Y-117512888D01*
X240847265Y-117624148D01*
X240847270Y-117624151D01*
X241020192Y-117701142D01*
X241020197Y-117701144D01*
X241205354Y-117740500D01*
X241205355Y-117740500D01*
X241394644Y-117740500D01*
X241394646Y-117740500D01*
X241579803Y-117701144D01*
X241752730Y-117624151D01*
X241905871Y-117512888D01*
X242032533Y-117372216D01*
X242127179Y-117208284D01*
X242185674Y-117028256D01*
X242205460Y-116840000D01*
X242185674Y-116651744D01*
X242127179Y-116471716D01*
X242032533Y-116307784D01*
X242014693Y-116287971D01*
X241984464Y-116224981D01*
X241993089Y-116155646D01*
X242014694Y-116122028D01*
X242032533Y-116102216D01*
X242127179Y-115938284D01*
X242185674Y-115758256D01*
X242205460Y-115570000D01*
X242185674Y-115381744D01*
X242127179Y-115201716D01*
X242032533Y-115037784D01*
X241905871Y-114897112D01*
X241905870Y-114897111D01*
X241752734Y-114785851D01*
X241752729Y-114785848D01*
X241579807Y-114708857D01*
X241579802Y-114708855D01*
X241434001Y-114677865D01*
X241394646Y-114669500D01*
X241205354Y-114669500D01*
X241172897Y-114676398D01*
X241020197Y-114708855D01*
X241020192Y-114708857D01*
X240847270Y-114785848D01*
X240847265Y-114785851D01*
X240694129Y-114897111D01*
X240567466Y-115037785D01*
X240472821Y-115201715D01*
X240472818Y-115201722D01*
X240424189Y-115351389D01*
X240414326Y-115381744D01*
X240394540Y-115570000D01*
X239665460Y-115570000D01*
X239645674Y-115381744D01*
X239587179Y-115201716D01*
X239492533Y-115037784D01*
X239365871Y-114897112D01*
X239365870Y-114897111D01*
X239212734Y-114785851D01*
X239212729Y-114785848D01*
X239039807Y-114708857D01*
X239039802Y-114708855D01*
X238894001Y-114677865D01*
X238854646Y-114669500D01*
X238665354Y-114669500D01*
X238632897Y-114676398D01*
X238480197Y-114708855D01*
X238480192Y-114708857D01*
X238307270Y-114785848D01*
X238307265Y-114785851D01*
X238154129Y-114897111D01*
X238027466Y-115037785D01*
X237932821Y-115201715D01*
X237932818Y-115201722D01*
X237884189Y-115351389D01*
X237874326Y-115381744D01*
X237854540Y-115570000D01*
X200390500Y-115570000D01*
X200390500Y-114300000D01*
X232774540Y-114300000D01*
X232794326Y-114488256D01*
X232794327Y-114488259D01*
X232852818Y-114668277D01*
X232852821Y-114668284D01*
X232947467Y-114832216D01*
X233005899Y-114897111D01*
X233074129Y-114972888D01*
X233227265Y-115084148D01*
X233227270Y-115084151D01*
X233400192Y-115161142D01*
X233400197Y-115161144D01*
X233585354Y-115200500D01*
X233585355Y-115200500D01*
X233774644Y-115200500D01*
X233774646Y-115200500D01*
X233959803Y-115161144D01*
X234132730Y-115084151D01*
X234285871Y-114972888D01*
X234412533Y-114832216D01*
X234507179Y-114668284D01*
X234565674Y-114488256D01*
X234585460Y-114300000D01*
X245474540Y-114300000D01*
X245494326Y-114488256D01*
X245494327Y-114488259D01*
X245552818Y-114668277D01*
X245552821Y-114668284D01*
X245647467Y-114832216D01*
X245705899Y-114897111D01*
X245774129Y-114972888D01*
X245927265Y-115084148D01*
X245927270Y-115084151D01*
X246100192Y-115161142D01*
X246100197Y-115161144D01*
X246285354Y-115200500D01*
X246285355Y-115200500D01*
X246474644Y-115200500D01*
X246474646Y-115200500D01*
X246659803Y-115161144D01*
X246832730Y-115084151D01*
X246985871Y-114972888D01*
X247112533Y-114832216D01*
X247207179Y-114668284D01*
X247265674Y-114488256D01*
X247285460Y-114300000D01*
X254364540Y-114300000D01*
X254384326Y-114488256D01*
X254384327Y-114488259D01*
X254442818Y-114668277D01*
X254442821Y-114668284D01*
X254537467Y-114832216D01*
X254595899Y-114897111D01*
X254664129Y-114972888D01*
X254817265Y-115084148D01*
X254817270Y-115084151D01*
X254990192Y-115161142D01*
X254990197Y-115161144D01*
X255175354Y-115200500D01*
X255175355Y-115200500D01*
X255364644Y-115200500D01*
X255364646Y-115200500D01*
X255549803Y-115161144D01*
X255722730Y-115084151D01*
X255875871Y-114972888D01*
X256002533Y-114832216D01*
X256097179Y-114668284D01*
X256155674Y-114488256D01*
X256175460Y-114300000D01*
X256155674Y-114111744D01*
X256097179Y-113931716D01*
X256002533Y-113767784D01*
X255875871Y-113627112D01*
X255875870Y-113627111D01*
X255722734Y-113515851D01*
X255722729Y-113515848D01*
X255549807Y-113438857D01*
X255549802Y-113438855D01*
X255404001Y-113407865D01*
X255364646Y-113399500D01*
X255175354Y-113399500D01*
X255142897Y-113406398D01*
X254990197Y-113438855D01*
X254990192Y-113438857D01*
X254817270Y-113515848D01*
X254817265Y-113515851D01*
X254664129Y-113627111D01*
X254537466Y-113767785D01*
X254442821Y-113931715D01*
X254442818Y-113931722D01*
X254394640Y-114080000D01*
X254384326Y-114111744D01*
X254364540Y-114300000D01*
X247285460Y-114300000D01*
X247265674Y-114111744D01*
X247207179Y-113931716D01*
X247112533Y-113767784D01*
X246985871Y-113627112D01*
X246985870Y-113627111D01*
X246832734Y-113515851D01*
X246832729Y-113515848D01*
X246659807Y-113438857D01*
X246659802Y-113438855D01*
X246514001Y-113407865D01*
X246474646Y-113399500D01*
X246285354Y-113399500D01*
X246252897Y-113406398D01*
X246100197Y-113438855D01*
X246100192Y-113438857D01*
X245927270Y-113515848D01*
X245927265Y-113515851D01*
X245774129Y-113627111D01*
X245647466Y-113767785D01*
X245552821Y-113931715D01*
X245552818Y-113931722D01*
X245504640Y-114080000D01*
X245494326Y-114111744D01*
X245474540Y-114300000D01*
X234585460Y-114300000D01*
X234565674Y-114111744D01*
X234507179Y-113931716D01*
X234412533Y-113767784D01*
X234285871Y-113627112D01*
X234285870Y-113627111D01*
X234132734Y-113515851D01*
X234132729Y-113515848D01*
X233959807Y-113438857D01*
X233959802Y-113438855D01*
X233814001Y-113407865D01*
X233774646Y-113399500D01*
X233585354Y-113399500D01*
X233552897Y-113406398D01*
X233400197Y-113438855D01*
X233400192Y-113438857D01*
X233227270Y-113515848D01*
X233227265Y-113515851D01*
X233074129Y-113627111D01*
X232947466Y-113767785D01*
X232852821Y-113931715D01*
X232852818Y-113931722D01*
X232804640Y-114080000D01*
X232794326Y-114111744D01*
X232774540Y-114300000D01*
X200390500Y-114300000D01*
X200390500Y-109194135D01*
X206841500Y-109194135D01*
X206841500Y-113005870D01*
X206841501Y-113005876D01*
X206847908Y-113065483D01*
X206898202Y-113200328D01*
X206898206Y-113200335D01*
X206984452Y-113315544D01*
X206984455Y-113315547D01*
X207099664Y-113401793D01*
X207099671Y-113401797D01*
X207234517Y-113452091D01*
X207234516Y-113452091D01*
X207241444Y-113452835D01*
X207294127Y-113458500D01*
X211105872Y-113458499D01*
X211165483Y-113452091D01*
X211300331Y-113401796D01*
X211415546Y-113315546D01*
X211501796Y-113200331D01*
X211552091Y-113065483D01*
X211558500Y-113005873D01*
X211558499Y-110490000D01*
X235314540Y-110490000D01*
X235334326Y-110678256D01*
X235334327Y-110678259D01*
X235392818Y-110858277D01*
X235392821Y-110858284D01*
X235487467Y-111022216D01*
X235568463Y-111112171D01*
X235614129Y-111162888D01*
X235767265Y-111274148D01*
X235767270Y-111274151D01*
X235940192Y-111351142D01*
X235940197Y-111351144D01*
X236125354Y-111390500D01*
X236125355Y-111390500D01*
X236314644Y-111390500D01*
X236314646Y-111390500D01*
X236499803Y-111351144D01*
X236672730Y-111274151D01*
X236825871Y-111162888D01*
X236952533Y-111022216D01*
X237047179Y-110858284D01*
X237105674Y-110678256D01*
X237125460Y-110490000D01*
X237105674Y-110301744D01*
X237047179Y-110121716D01*
X236952533Y-109957784D01*
X236825871Y-109817112D01*
X236825870Y-109817111D01*
X236672734Y-109705851D01*
X236672729Y-109705848D01*
X236499807Y-109628857D01*
X236499802Y-109628855D01*
X236354001Y-109597865D01*
X236314646Y-109589500D01*
X236125354Y-109589500D01*
X236092897Y-109596398D01*
X235940197Y-109628855D01*
X235940192Y-109628857D01*
X235767270Y-109705848D01*
X235767265Y-109705851D01*
X235614129Y-109817111D01*
X235487466Y-109957785D01*
X235392821Y-110121715D01*
X235392818Y-110121722D01*
X235338631Y-110288495D01*
X235334326Y-110301744D01*
X235314540Y-110490000D01*
X211558499Y-110490000D01*
X211558499Y-109220000D01*
X223884540Y-109220000D01*
X223904326Y-109408256D01*
X223904327Y-109408259D01*
X223962818Y-109588277D01*
X223962821Y-109588284D01*
X224057467Y-109752216D01*
X224115899Y-109817111D01*
X224184129Y-109892888D01*
X224337265Y-110004148D01*
X224337270Y-110004151D01*
X224510192Y-110081142D01*
X224510197Y-110081144D01*
X224695354Y-110120500D01*
X224695355Y-110120500D01*
X224884644Y-110120500D01*
X224884646Y-110120500D01*
X225069803Y-110081144D01*
X225242730Y-110004151D01*
X225395871Y-109892888D01*
X225522533Y-109752216D01*
X225617179Y-109588284D01*
X225675674Y-109408256D01*
X225695460Y-109220000D01*
X225675674Y-109031744D01*
X225617179Y-108851716D01*
X225522533Y-108687784D01*
X225395871Y-108547112D01*
X225395870Y-108547111D01*
X225242734Y-108435851D01*
X225242729Y-108435848D01*
X225069807Y-108358857D01*
X225069802Y-108358855D01*
X224908160Y-108324498D01*
X224884646Y-108319500D01*
X224695354Y-108319500D01*
X224671840Y-108324498D01*
X224510197Y-108358855D01*
X224510192Y-108358857D01*
X224337270Y-108435848D01*
X224337265Y-108435851D01*
X224184129Y-108547111D01*
X224057466Y-108687785D01*
X223962821Y-108851715D01*
X223962818Y-108851722D01*
X223904327Y-109031740D01*
X223904326Y-109031744D01*
X223884540Y-109220000D01*
X211558499Y-109220000D01*
X211558499Y-109194128D01*
X211552091Y-109134517D01*
X211513758Y-109031742D01*
X211501797Y-108999671D01*
X211501793Y-108999664D01*
X211415547Y-108884455D01*
X211415544Y-108884452D01*
X211300335Y-108798206D01*
X211300328Y-108798202D01*
X211165482Y-108747908D01*
X211165483Y-108747908D01*
X211105883Y-108741501D01*
X211105881Y-108741500D01*
X211105873Y-108741500D01*
X211105864Y-108741500D01*
X207294129Y-108741500D01*
X207294123Y-108741501D01*
X207234516Y-108747908D01*
X207099671Y-108798202D01*
X207099664Y-108798206D01*
X206984455Y-108884452D01*
X206984452Y-108884455D01*
X206898206Y-108999664D01*
X206898202Y-108999671D01*
X206847908Y-109134517D01*
X206841501Y-109194116D01*
X206841501Y-109194123D01*
X206841500Y-109194135D01*
X200390500Y-109194135D01*
X200390500Y-107863389D01*
X201499500Y-107863389D01*
X201499500Y-108036610D01*
X201515599Y-108138260D01*
X201526598Y-108207701D01*
X201580127Y-108372445D01*
X201658768Y-108526788D01*
X201760586Y-108666928D01*
X201883072Y-108789414D01*
X202023212Y-108891232D01*
X202177555Y-108969873D01*
X202342299Y-109023402D01*
X202513389Y-109050500D01*
X202513390Y-109050500D01*
X203886610Y-109050500D01*
X203886611Y-109050500D01*
X204057701Y-109023402D01*
X204222445Y-108969873D01*
X204376788Y-108891232D01*
X204516928Y-108789414D01*
X204639414Y-108666928D01*
X204741232Y-108526788D01*
X204819873Y-108372445D01*
X204873402Y-108207701D01*
X204900500Y-108036611D01*
X204900500Y-107950000D01*
X226424540Y-107950000D01*
X226444326Y-108138256D01*
X226444327Y-108138259D01*
X226502818Y-108318277D01*
X226502821Y-108318284D01*
X226597467Y-108482216D01*
X226678463Y-108572171D01*
X226724129Y-108622888D01*
X226877265Y-108734148D01*
X226877270Y-108734151D01*
X227050192Y-108811142D01*
X227050197Y-108811144D01*
X227235354Y-108850500D01*
X227235355Y-108850500D01*
X227424644Y-108850500D01*
X227424646Y-108850500D01*
X227588994Y-108815567D01*
X227658661Y-108820883D01*
X227714395Y-108863020D01*
X227738500Y-108928600D01*
X227732706Y-108975174D01*
X227714327Y-109031739D01*
X227714327Y-109031740D01*
X227714326Y-109031744D01*
X227694540Y-109220000D01*
X227714326Y-109408256D01*
X227714327Y-109408259D01*
X227772818Y-109588277D01*
X227772821Y-109588284D01*
X227867467Y-109752216D01*
X227925899Y-109817111D01*
X227994129Y-109892888D01*
X228147265Y-110004148D01*
X228147270Y-110004151D01*
X228320192Y-110081142D01*
X228320197Y-110081144D01*
X228505354Y-110120500D01*
X228505355Y-110120500D01*
X228694644Y-110120500D01*
X228694646Y-110120500D01*
X228879803Y-110081144D01*
X229052730Y-110004151D01*
X229205871Y-109892888D01*
X229332533Y-109752216D01*
X229427179Y-109588284D01*
X229485674Y-109408256D01*
X229505460Y-109220000D01*
X229485674Y-109031744D01*
X229467292Y-108975173D01*
X229465298Y-108905335D01*
X229501378Y-108845502D01*
X229564078Y-108814673D01*
X229611005Y-108815567D01*
X229681774Y-108830609D01*
X229775354Y-108850500D01*
X229775355Y-108850500D01*
X229964644Y-108850500D01*
X229964646Y-108850500D01*
X230149803Y-108811144D01*
X230322730Y-108734151D01*
X230475871Y-108622888D01*
X230602533Y-108482216D01*
X230697179Y-108318284D01*
X230755674Y-108138256D01*
X230775460Y-107950000D01*
X230755674Y-107761744D01*
X230697179Y-107581716D01*
X230602533Y-107417784D01*
X230475871Y-107277112D01*
X230475870Y-107277111D01*
X230322734Y-107165851D01*
X230322729Y-107165848D01*
X230149807Y-107088857D01*
X230149802Y-107088855D01*
X230004001Y-107057865D01*
X229964646Y-107049500D01*
X229775354Y-107049500D01*
X229742897Y-107056398D01*
X229590197Y-107088855D01*
X229590192Y-107088857D01*
X229417270Y-107165848D01*
X229417265Y-107165851D01*
X229264129Y-107277111D01*
X229137466Y-107417785D01*
X229042821Y-107581715D01*
X229042818Y-107581722D01*
X228988631Y-107748495D01*
X228984326Y-107761744D01*
X228964540Y-107950000D01*
X228984326Y-108138256D01*
X228984327Y-108138259D01*
X229002706Y-108194824D01*
X229004701Y-108264665D01*
X228968621Y-108324498D01*
X228905920Y-108355326D01*
X228858995Y-108354433D01*
X228832862Y-108348878D01*
X228694646Y-108319500D01*
X228505354Y-108319500D01*
X228391148Y-108343774D01*
X228341004Y-108354433D01*
X228271337Y-108349116D01*
X228215604Y-108306978D01*
X228191499Y-108241398D01*
X228197294Y-108194822D01*
X228215674Y-108138256D01*
X228235460Y-107950000D01*
X228215674Y-107761744D01*
X228157179Y-107581716D01*
X228062533Y-107417784D01*
X227935871Y-107277112D01*
X227935870Y-107277111D01*
X227782734Y-107165851D01*
X227782729Y-107165848D01*
X227609807Y-107088857D01*
X227609802Y-107088855D01*
X227464001Y-107057865D01*
X227424646Y-107049500D01*
X227235354Y-107049500D01*
X227202897Y-107056398D01*
X227050197Y-107088855D01*
X227050192Y-107088857D01*
X226877270Y-107165848D01*
X226877265Y-107165851D01*
X226724129Y-107277111D01*
X226597466Y-107417785D01*
X226502821Y-107581715D01*
X226502818Y-107581722D01*
X226448631Y-107748495D01*
X226444326Y-107761744D01*
X226424540Y-107950000D01*
X204900500Y-107950000D01*
X204900500Y-107863389D01*
X204873402Y-107692299D01*
X204819873Y-107527555D01*
X204741232Y-107373212D01*
X204639414Y-107233072D01*
X204516928Y-107110586D01*
X204376788Y-107008768D01*
X204222445Y-106930127D01*
X204057701Y-106876598D01*
X204057699Y-106876597D01*
X204057698Y-106876597D01*
X203926271Y-106855781D01*
X203886611Y-106849500D01*
X202513389Y-106849500D01*
X202473728Y-106855781D01*
X202342302Y-106876597D01*
X202177552Y-106930128D01*
X202023211Y-107008768D01*
X201968823Y-107048284D01*
X201883072Y-107110586D01*
X201883070Y-107110588D01*
X201883069Y-107110588D01*
X201760588Y-107233069D01*
X201760588Y-107233070D01*
X201760586Y-107233072D01*
X201728590Y-107277111D01*
X201658768Y-107373211D01*
X201580128Y-107527552D01*
X201526597Y-107692302D01*
X201499500Y-107863389D01*
X200390500Y-107863389D01*
X200390500Y-106680000D01*
X221344540Y-106680000D01*
X221364326Y-106868256D01*
X221364327Y-106868259D01*
X221422818Y-107048277D01*
X221422821Y-107048284D01*
X221517467Y-107212216D01*
X221575899Y-107277111D01*
X221644129Y-107352888D01*
X221797265Y-107464148D01*
X221797270Y-107464151D01*
X221970192Y-107541142D01*
X221970197Y-107541144D01*
X222155354Y-107580500D01*
X222155355Y-107580500D01*
X222344644Y-107580500D01*
X222344646Y-107580500D01*
X222529803Y-107541144D01*
X222702730Y-107464151D01*
X222855871Y-107352888D01*
X222982533Y-107212216D01*
X223077179Y-107048284D01*
X223135674Y-106868256D01*
X223155460Y-106680000D01*
X223135674Y-106491744D01*
X223077179Y-106311716D01*
X222982533Y-106147784D01*
X222855871Y-106007112D01*
X222855870Y-106007111D01*
X222702734Y-105895851D01*
X222702729Y-105895848D01*
X222529807Y-105818857D01*
X222529802Y-105818855D01*
X222384001Y-105787865D01*
X222344646Y-105779500D01*
X222155354Y-105779500D01*
X222122897Y-105786398D01*
X221970197Y-105818855D01*
X221970192Y-105818857D01*
X221797270Y-105895848D01*
X221797265Y-105895851D01*
X221644129Y-106007111D01*
X221517466Y-106147785D01*
X221422821Y-106311715D01*
X221422818Y-106311722D01*
X221364327Y-106491740D01*
X221364326Y-106491744D01*
X221344540Y-106680000D01*
X200390500Y-106680000D01*
X200390500Y-105410000D01*
X232774540Y-105410000D01*
X232794326Y-105598256D01*
X232794327Y-105598259D01*
X232852818Y-105778277D01*
X232852821Y-105778284D01*
X232947467Y-105942216D01*
X232950921Y-105946052D01*
X232965307Y-105962030D01*
X232995535Y-106025022D01*
X232986909Y-106094357D01*
X232965307Y-106127970D01*
X232947466Y-106147785D01*
X232852821Y-106311715D01*
X232852818Y-106311722D01*
X232794327Y-106491740D01*
X232794326Y-106491744D01*
X232774540Y-106680000D01*
X232794326Y-106868256D01*
X232794327Y-106868259D01*
X232852818Y-107048277D01*
X232852821Y-107048284D01*
X232947467Y-107212216D01*
X233005899Y-107277111D01*
X233074129Y-107352888D01*
X233227265Y-107464148D01*
X233227270Y-107464151D01*
X233400192Y-107541142D01*
X233400197Y-107541144D01*
X233585354Y-107580500D01*
X233585355Y-107580500D01*
X233774644Y-107580500D01*
X233774646Y-107580500D01*
X233959803Y-107541144D01*
X234132730Y-107464151D01*
X234285871Y-107352888D01*
X234412533Y-107212216D01*
X234507179Y-107048284D01*
X234565674Y-106868256D01*
X234585460Y-106680000D01*
X234565674Y-106491744D01*
X234507179Y-106311716D01*
X234412533Y-106147784D01*
X234394693Y-106127971D01*
X234364464Y-106064981D01*
X234373089Y-105995646D01*
X234394694Y-105962028D01*
X234412533Y-105942216D01*
X234507179Y-105778284D01*
X234565674Y-105598256D01*
X234585460Y-105410000D01*
X234565674Y-105221744D01*
X234507179Y-105041716D01*
X234412533Y-104877784D01*
X234285871Y-104737112D01*
X234285870Y-104737111D01*
X234132734Y-104625851D01*
X234132729Y-104625848D01*
X233959807Y-104548857D01*
X233959802Y-104548855D01*
X233814001Y-104517865D01*
X233774646Y-104509500D01*
X233585354Y-104509500D01*
X233552897Y-104516398D01*
X233400197Y-104548855D01*
X233400192Y-104548857D01*
X233227270Y-104625848D01*
X233227265Y-104625851D01*
X233074129Y-104737111D01*
X232947466Y-104877785D01*
X232852821Y-105041715D01*
X232852818Y-105041722D01*
X232794797Y-105220293D01*
X232794326Y-105221744D01*
X232774540Y-105410000D01*
X200390500Y-105410000D01*
X200390500Y-104288065D01*
X212076192Y-104288065D01*
X212095978Y-104476321D01*
X212095979Y-104476324D01*
X212154470Y-104656342D01*
X212154473Y-104656349D01*
X212249119Y-104820281D01*
X212300896Y-104877785D01*
X212375781Y-104960953D01*
X212528917Y-105072213D01*
X212528922Y-105072216D01*
X212701844Y-105149207D01*
X212701849Y-105149209D01*
X212887006Y-105188565D01*
X212887007Y-105188565D01*
X213076296Y-105188565D01*
X213076298Y-105188565D01*
X213261455Y-105149209D01*
X213434382Y-105072216D01*
X213587523Y-104960953D01*
X213714185Y-104820281D01*
X213808831Y-104656349D01*
X213867326Y-104476321D01*
X213887112Y-104288065D01*
X213871550Y-104140000D01*
X220074540Y-104140000D01*
X220094326Y-104328256D01*
X220094327Y-104328259D01*
X220152818Y-104508277D01*
X220152821Y-104508284D01*
X220247467Y-104672216D01*
X220305899Y-104737111D01*
X220374129Y-104812888D01*
X220527265Y-104924148D01*
X220527270Y-104924151D01*
X220700192Y-105001142D01*
X220700197Y-105001144D01*
X220885354Y-105040500D01*
X220885355Y-105040500D01*
X221074644Y-105040500D01*
X221074646Y-105040500D01*
X221259803Y-105001144D01*
X221432730Y-104924151D01*
X221542117Y-104844676D01*
X221607920Y-104821198D01*
X221675974Y-104837023D01*
X221687871Y-104844668D01*
X221797266Y-104924148D01*
X221797270Y-104924151D01*
X221970192Y-105001142D01*
X221970197Y-105001144D01*
X222155354Y-105040500D01*
X222155355Y-105040500D01*
X222344644Y-105040500D01*
X222344646Y-105040500D01*
X222529803Y-105001144D01*
X222702730Y-104924151D01*
X222855871Y-104812888D01*
X222982533Y-104672216D01*
X223077179Y-104508284D01*
X223135674Y-104328256D01*
X223155460Y-104140000D01*
X223147967Y-104068711D01*
X245799500Y-104068711D01*
X245799500Y-104311288D01*
X245830775Y-104548856D01*
X245831162Y-104551789D01*
X245851007Y-104625851D01*
X245893947Y-104786104D01*
X245986773Y-105010205D01*
X245986777Y-105010214D01*
X246004783Y-105041401D01*
X246108064Y-105220289D01*
X246108066Y-105220292D01*
X246108067Y-105220293D01*
X246255733Y-105412736D01*
X246255739Y-105412743D01*
X246427256Y-105584260D01*
X246427262Y-105584265D01*
X246619711Y-105731936D01*
X246829788Y-105853224D01*
X247053900Y-105946054D01*
X247288211Y-106008838D01*
X247465431Y-106032169D01*
X247528711Y-106040500D01*
X247528712Y-106040500D01*
X247771289Y-106040500D01*
X247834569Y-106032169D01*
X248011789Y-106008838D01*
X248246100Y-105946054D01*
X248470212Y-105853224D01*
X248680289Y-105731936D01*
X248872738Y-105584265D01*
X249044265Y-105412738D01*
X249191936Y-105220289D01*
X249313224Y-105010212D01*
X249406054Y-104786100D01*
X249468838Y-104551789D01*
X249500500Y-104311288D01*
X249500500Y-104068712D01*
X249468838Y-103828211D01*
X249406054Y-103593900D01*
X249313224Y-103369788D01*
X249191936Y-103159711D01*
X249044265Y-102967262D01*
X249044260Y-102967256D01*
X248872743Y-102795739D01*
X248872736Y-102795733D01*
X248680293Y-102648067D01*
X248680292Y-102648066D01*
X248680289Y-102648064D01*
X248470212Y-102526776D01*
X248470205Y-102526773D01*
X248246104Y-102433947D01*
X248011785Y-102371161D01*
X247771289Y-102339500D01*
X247771288Y-102339500D01*
X247528712Y-102339500D01*
X247528711Y-102339500D01*
X247288214Y-102371161D01*
X247053895Y-102433947D01*
X246829794Y-102526773D01*
X246829785Y-102526777D01*
X246619706Y-102648067D01*
X246427263Y-102795733D01*
X246427256Y-102795739D01*
X246255739Y-102967256D01*
X246255733Y-102967263D01*
X246108067Y-103159706D01*
X245986777Y-103369785D01*
X245986773Y-103369794D01*
X245893947Y-103593895D01*
X245831161Y-103828214D01*
X245799500Y-104068711D01*
X223147967Y-104068711D01*
X223135674Y-103951744D01*
X223077179Y-103771716D01*
X222982533Y-103607784D01*
X222855871Y-103467112D01*
X222844432Y-103458801D01*
X222702734Y-103355851D01*
X222702729Y-103355848D01*
X222529807Y-103278857D01*
X222529802Y-103278855D01*
X222384001Y-103247865D01*
X222344646Y-103239500D01*
X222155354Y-103239500D01*
X222122897Y-103246398D01*
X221970197Y-103278855D01*
X221970192Y-103278857D01*
X221797270Y-103355848D01*
X221797265Y-103355851D01*
X221687885Y-103435321D01*
X221622079Y-103458801D01*
X221554025Y-103442975D01*
X221542115Y-103435321D01*
X221432734Y-103355851D01*
X221432729Y-103355848D01*
X221259807Y-103278857D01*
X221259802Y-103278855D01*
X221114001Y-103247865D01*
X221074646Y-103239500D01*
X220885354Y-103239500D01*
X220852897Y-103246398D01*
X220700197Y-103278855D01*
X220700192Y-103278857D01*
X220527270Y-103355848D01*
X220527265Y-103355851D01*
X220374129Y-103467111D01*
X220247466Y-103607785D01*
X220152821Y-103771715D01*
X220152818Y-103771722D01*
X220094327Y-103951740D01*
X220094326Y-103951744D01*
X220074540Y-104140000D01*
X213871550Y-104140000D01*
X213867326Y-104099809D01*
X213808831Y-103919781D01*
X213714185Y-103755849D01*
X213587523Y-103615177D01*
X213577349Y-103607785D01*
X213434386Y-103503916D01*
X213434381Y-103503913D01*
X213261459Y-103426922D01*
X213261454Y-103426920D01*
X213115653Y-103395930D01*
X213076298Y-103387565D01*
X212887006Y-103387565D01*
X212854549Y-103394463D01*
X212701849Y-103426920D01*
X212701844Y-103426922D01*
X212528922Y-103503913D01*
X212528917Y-103503916D01*
X212375781Y-103615176D01*
X212249118Y-103755850D01*
X212154473Y-103919780D01*
X212154470Y-103919787D01*
X212106082Y-104068711D01*
X212095978Y-104099809D01*
X212076192Y-104288065D01*
X200390500Y-104288065D01*
X200390500Y-102870000D01*
X234044540Y-102870000D01*
X234064326Y-103058256D01*
X234064327Y-103058259D01*
X234122818Y-103238277D01*
X234122821Y-103238284D01*
X234217467Y-103402216D01*
X234344129Y-103542888D01*
X234497265Y-103654148D01*
X234497270Y-103654151D01*
X234670192Y-103731142D01*
X234670197Y-103731144D01*
X234855354Y-103770500D01*
X234855355Y-103770500D01*
X235044644Y-103770500D01*
X235044646Y-103770500D01*
X235229803Y-103731144D01*
X235402730Y-103654151D01*
X235555871Y-103542888D01*
X235682533Y-103402216D01*
X235777179Y-103238284D01*
X235835674Y-103058256D01*
X235855460Y-102870000D01*
X235835674Y-102681744D01*
X235777179Y-102501716D01*
X235682533Y-102337784D01*
X235555871Y-102197112D01*
X235555870Y-102197111D01*
X235402734Y-102085851D01*
X235402729Y-102085848D01*
X235229807Y-102008857D01*
X235229802Y-102008855D01*
X235084001Y-101977865D01*
X235044646Y-101969500D01*
X234855354Y-101969500D01*
X234822897Y-101976398D01*
X234670197Y-102008855D01*
X234670192Y-102008857D01*
X234497270Y-102085848D01*
X234497265Y-102085851D01*
X234344129Y-102197111D01*
X234217466Y-102337785D01*
X234122821Y-102501715D01*
X234122818Y-102501722D01*
X234068631Y-102668495D01*
X234064326Y-102681744D01*
X234044540Y-102870000D01*
X200390500Y-102870000D01*
X200390500Y-100334427D01*
X200390816Y-100325581D01*
X200402940Y-100156066D01*
X200405537Y-100119745D01*
X200408055Y-100102239D01*
X200450977Y-99904930D01*
X200455954Y-99887979D01*
X200526527Y-99698764D01*
X200533865Y-99682697D01*
X200630647Y-99505452D01*
X200640194Y-99490596D01*
X200761218Y-99328929D01*
X200772790Y-99315575D01*
X200915575Y-99172790D01*
X200928939Y-99161211D01*
X201031102Y-99084733D01*
X201096566Y-99060316D01*
X201105412Y-99060000D01*
X224985500Y-99060000D01*
X225052539Y-99079685D01*
G37*
%TD.AperFunction*%
%TA.AperFunction,Conductor*%
G36*
X231390000Y-145616988D02*
G01*
X231332993Y-145584075D01*
X231205826Y-145550000D01*
X231074174Y-145550000D01*
X230947007Y-145584075D01*
X230890000Y-145616988D01*
X230890000Y-143943012D01*
X230947007Y-143975925D01*
X231074174Y-144010000D01*
X231205826Y-144010000D01*
X231332993Y-143975925D01*
X231390000Y-143943012D01*
X231390000Y-145616988D01*
G37*
%TD.AperFunction*%
%TD*%
M02*
