%TF.GenerationSoftware,KiCad,Pcbnew,8.0.4*%
%TF.CreationDate,2024-11-29T22:55:19-05:00*%
%TF.ProjectId,foc_pcb,666f635f-7063-4622-9e6b-696361645f70,2.0*%
%TF.SameCoordinates,Original*%
%TF.FileFunction,Copper,L4,Bot*%
%TF.FilePolarity,Positive*%
%FSLAX46Y46*%
G04 Gerber Fmt 4.6, Leading zero omitted, Abs format (unit mm)*
G04 Created by KiCad (PCBNEW 8.0.4) date 2024-11-29 22:55:19*
%MOMM*%
%LPD*%
G01*
G04 APERTURE LIST*
G04 Aperture macros list*
%AMRoundRect*
0 Rectangle with rounded corners*
0 $1 Rounding radius*
0 $2 $3 $4 $5 $6 $7 $8 $9 X,Y pos of 4 corners*
0 Add a 4 corners polygon primitive as box body*
4,1,4,$2,$3,$4,$5,$6,$7,$8,$9,$2,$3,0*
0 Add four circle primitives for the rounded corners*
1,1,$1+$1,$2,$3*
1,1,$1+$1,$4,$5*
1,1,$1+$1,$6,$7*
1,1,$1+$1,$8,$9*
0 Add four rect primitives between the rounded corners*
20,1,$1+$1,$2,$3,$4,$5,0*
20,1,$1+$1,$4,$5,$6,$7,0*
20,1,$1+$1,$6,$7,$8,$9,0*
20,1,$1+$1,$8,$9,$2,$3,0*%
G04 Aperture macros list end*
%TA.AperFunction,ComponentPad*%
%ADD10R,1.700000X1.700000*%
%TD*%
%TA.AperFunction,ComponentPad*%
%ADD11O,1.700000X1.700000*%
%TD*%
%TA.AperFunction,ComponentPad*%
%ADD12O,0.900000X1.800000*%
%TD*%
%TA.AperFunction,ComponentPad*%
%ADD13R,3.716000X3.716000*%
%TD*%
%TA.AperFunction,ComponentPad*%
%ADD14C,3.716000*%
%TD*%
%TA.AperFunction,ComponentPad*%
%ADD15O,2.400000X1.200000*%
%TD*%
%TA.AperFunction,SMDPad,CuDef*%
%ADD16RoundRect,0.225000X-0.250000X0.225000X-0.250000X-0.225000X0.250000X-0.225000X0.250000X0.225000X0*%
%TD*%
%TA.AperFunction,SMDPad,CuDef*%
%ADD17RoundRect,0.225000X-0.225000X-0.250000X0.225000X-0.250000X0.225000X0.250000X-0.225000X0.250000X0*%
%TD*%
%TA.AperFunction,SMDPad,CuDef*%
%ADD18R,1.500000X0.650000*%
%TD*%
%TA.AperFunction,SMDPad,CuDef*%
%ADD19RoundRect,0.200000X0.275000X-0.200000X0.275000X0.200000X-0.275000X0.200000X-0.275000X-0.200000X0*%
%TD*%
%TA.AperFunction,ViaPad*%
%ADD20C,0.800000*%
%TD*%
%TA.AperFunction,Conductor*%
%ADD21C,0.250000*%
%TD*%
%TA.AperFunction,Conductor*%
%ADD22C,0.525000*%
%TD*%
G04 APERTURE END LIST*
D10*
%TO.P,J4,1,Pin_1*%
%TO.N,GND*%
X231140000Y-143510000D03*
D11*
%TO.P,J4,2,Pin_2*%
X231140000Y-146050000D03*
%TO.P,J4,3,Pin_3*%
%TO.N,+5V*%
X228600000Y-143510000D03*
%TO.P,J4,4,Pin_4*%
%TO.N,+3.3V*%
X228600000Y-146050000D03*
%TD*%
D12*
%TO.P,J12,S5,SHIELD__4*%
%TO.N,unconnected-(J12-SHIELD__4-PadS5)*%
X232660000Y-99060000D03*
%TO.P,J12,S6,SHIELD__5*%
%TO.N,unconnected-(J12-SHIELD__5-PadS6)*%
X226060000Y-99060000D03*
%TD*%
D13*
%TO.P,J5,1,+*%
%TO.N,VCC*%
X209200000Y-128480000D03*
D14*
%TO.P,J5,2,-*%
%TO.N,GND*%
X209200000Y-135680000D03*
D15*
%TO.P,J5,S1*%
%TO.N,N/C*%
X203200000Y-125330000D03*
%TO.P,J5,S2*%
X203200000Y-138830000D03*
%TD*%
D10*
%TO.P,J1,1,Pin_1*%
%TO.N,+3.3V*%
X259140000Y-116870000D03*
D11*
%TO.P,J1,2,Pin_2*%
%TO.N,GND*%
X259140000Y-114330000D03*
%TO.P,J1,3,Pin_3*%
%TO.N,/esp_scl_1*%
X259140000Y-111790000D03*
%TO.P,J1,4,Pin_4*%
%TO.N,/esp_sda_1*%
X259140000Y-109250000D03*
%TO.P,J1,5,Pin_5*%
%TO.N,unconnected-(J1-Pin_5-Pad5)*%
X259140000Y-106710000D03*
%TO.P,J1,6,Pin_6*%
%TO.N,unconnected-(J1-Pin_6-Pad6)*%
X259140000Y-104170000D03*
%TO.P,J1,7,Pin_7*%
%TO.N,unconnected-(J1-Pin_7-Pad7)*%
X259140000Y-101630000D03*
%TO.P,J1,8,Pin_8*%
%TO.N,unconnected-(J1-Pin_8-Pad8)*%
X259140000Y-99090000D03*
%TD*%
D10*
%TO.P,J3,1,Pin_1*%
%TO.N,/out1*%
X234950000Y-146050000D03*
D11*
%TO.P,J3,2,Pin_2*%
%TO.N,/out2*%
X237490000Y-146050000D03*
%TO.P,J3,3,Pin_3*%
%TO.N,/out3*%
X240030000Y-146050000D03*
%TD*%
D10*
%TO.P,J2,1,Pin_1*%
%TO.N,/esp_scl_0*%
X213360000Y-146050000D03*
D11*
%TO.P,J2,2,Pin_2*%
%TO.N,/esp_sda_0*%
X215900000Y-146050000D03*
%TD*%
D13*
%TO.P,J6,1,+*%
%TO.N,VCC*%
X209200000Y-111100000D03*
D14*
%TO.P,J6,2,-*%
%TO.N,GND*%
X209200000Y-118300000D03*
D15*
%TO.P,J6,S1*%
%TO.N,N/C*%
X203200000Y-107950000D03*
%TO.P,J6,S2*%
X203200000Y-121450000D03*
%TD*%
D10*
%TO.P,J10,1,Pin_1*%
%TO.N,/miso*%
X219710000Y-146050000D03*
D11*
%TO.P,J10,2,Pin_2*%
%TO.N,/sck*%
X219710000Y-143510000D03*
%TO.P,J10,3,Pin_3*%
%TO.N,/rst*%
X222250000Y-146050000D03*
%TO.P,J10,4,Pin_4*%
%TO.N,+5V*%
X222250000Y-143510000D03*
%TO.P,J10,5,Pin_5*%
%TO.N,/mosi*%
X224790000Y-146050000D03*
%TO.P,J10,6,Pin_6*%
%TO.N,GND*%
X224790000Y-143510000D03*
%TD*%
D16*
%TO.P,C14,1*%
%TO.N,Net-(IC1-VDD3V3)*%
X254000000Y-122415000D03*
%TO.P,C14,2*%
%TO.N,GND*%
X254000000Y-123965000D03*
%TD*%
D17*
%TO.P,C13,1*%
%TO.N,+5V*%
X253225000Y-120650000D03*
%TO.P,C13,2*%
%TO.N,GND*%
X254775000Y-120650000D03*
%TD*%
D18*
%TO.P,IC1,1,VDD5V*%
%TO.N,+5V*%
X250350000Y-121285000D03*
%TO.P,IC1,2,VDD3V3*%
%TO.N,Net-(IC1-VDD3V3)*%
X250350000Y-122555000D03*
%TO.P,IC1,3,OUT*%
%TO.N,unconnected-(IC1-OUT-Pad3)*%
X250350000Y-123825000D03*
%TO.P,IC1,4,GND*%
%TO.N,GND*%
X250350000Y-125095000D03*
%TO.P,IC1,5,PGO*%
%TO.N,unconnected-(IC1-PGO-Pad5)*%
X244950000Y-125095000D03*
%TO.P,IC1,6,SDA*%
%TO.N,/sda*%
X244950000Y-123825000D03*
%TO.P,IC1,7,SCL*%
%TO.N,/scl*%
X244950000Y-122555000D03*
%TO.P,IC1,8,DIR*%
%TO.N,GND*%
X244950000Y-121285000D03*
%TD*%
D19*
%TO.P,R9,1*%
%TO.N,+5V*%
X222250000Y-118935000D03*
%TO.P,R9,2*%
%TO.N,/scl*%
X222250000Y-117285000D03*
%TD*%
%TO.P,R11,1*%
%TO.N,+5V*%
X224790000Y-118935000D03*
%TO.P,R11,2*%
%TO.N,/sda*%
X224790000Y-117285000D03*
%TD*%
D20*
%TO.N,+5V*%
X252222000Y-145432750D03*
%TO.N,GND*%
X240030000Y-124460000D03*
X252730000Y-107950000D03*
X237490000Y-124460000D03*
X237490000Y-125730000D03*
X215900000Y-119380000D03*
X236220000Y-125730000D03*
X219710000Y-107950000D03*
X251460000Y-133350000D03*
X252730000Y-125730000D03*
X238760001Y-125730000D03*
X242570000Y-107950000D03*
X220980000Y-111760000D03*
X236220000Y-124460000D03*
X245110000Y-127000000D03*
X219710000Y-104140000D03*
X240030000Y-125730000D03*
X252222000Y-143510000D03*
X226060000Y-107950000D03*
X203200000Y-143510000D03*
X227166282Y-104043427D03*
X236220000Y-111760000D03*
X234950000Y-114300000D03*
X238760000Y-124460000D03*
X234950000Y-104140000D03*
%TO.N,+3.3V*%
X246380000Y-125730000D03*
X248920000Y-128270000D03*
%TO.N,VCC*%
X242512900Y-135890000D03*
X236220000Y-130810000D03*
%TO.N,+5V*%
X246380000Y-114300000D03*
X252730000Y-119380000D03*
X220980000Y-104140000D03*
X224790000Y-136435000D03*
X236220000Y-110490000D03*
X224790000Y-132625000D03*
X224790000Y-120650000D03*
X234950000Y-102870000D03*
X233680000Y-118110000D03*
X212090000Y-143510000D03*
X212981652Y-104288065D03*
X224790000Y-128815000D03*
%TO.N,/rst*%
X223520000Y-121920000D03*
X255270000Y-114300000D03*
X228600000Y-116840000D03*
%TO.N,/sda*%
X226060000Y-116840000D03*
%TO.N,/scl*%
X227330000Y-116840000D03*
%TO.N,/ud+*%
X241300000Y-115570000D03*
X233680000Y-106680000D03*
%TO.N,/ud-*%
X241300000Y-116840000D03*
X233680000Y-105410000D03*
%TO.N,Net-(U5-TXD)*%
X238760000Y-115570000D03*
X232543980Y-119246020D03*
%TO.N,/sck*%
X223520000Y-127545000D03*
X222250000Y-106680000D03*
%TO.N,Net-(U2-PD7)*%
X241300000Y-119380000D03*
X227330000Y-107950000D03*
%TO.N,/en*%
X231140000Y-119380000D03*
X243839696Y-119644999D03*
%TO.N,/esp_sck*%
X236220000Y-134620000D03*
X218440000Y-129690200D03*
X251460000Y-134620000D03*
X227330000Y-132080000D03*
%TO.N,/esp_mosi*%
X234950000Y-138430000D03*
X251460000Y-137160000D03*
%TO.N,/in1*%
X232982750Y-121421020D03*
X233680000Y-114300000D03*
%TO.N,/in2*%
X229870000Y-107950000D03*
X234950000Y-119971020D03*
%TO.N,/in3*%
X237787347Y-120947347D03*
X228600000Y-109220000D03*
%TO.N,/esp_miso*%
X218440000Y-132080000D03*
X251460000Y-135890000D03*
X236220000Y-135890000D03*
X227330000Y-133350000D03*
%TO.N,/miso*%
X223520000Y-131355000D03*
X222250000Y-104140000D03*
%TO.N,/mosi*%
X227545223Y-137375223D03*
X224790000Y-109220000D03*
%TO.N,/esp_scl_0*%
X267970000Y-135890000D03*
%TO.N,/esp_sda_0*%
X268146689Y-141428750D03*
%TD*%
D21*
%TO.N,GND*%
X245375000Y-121285000D02*
X249185000Y-125095000D01*
X254800000Y-120675000D02*
X254800000Y-123165000D01*
X254000000Y-124460000D02*
X252730000Y-125730000D01*
X254000000Y-123965000D02*
X254000000Y-124460000D01*
X244950000Y-121285000D02*
X245375000Y-121285000D01*
X249185000Y-125095000D02*
X250350000Y-125095000D01*
X254800000Y-123165000D02*
X254000000Y-123965000D01*
X252095000Y-125095000D02*
X252730000Y-125730000D01*
X254775000Y-120650000D02*
X254800000Y-120675000D01*
X250350000Y-125095000D02*
X252095000Y-125095000D01*
%TO.N,+3.3V*%
X232410000Y-133985000D02*
X232410000Y-132715000D01*
X232410000Y-132715000D02*
X236478000Y-128647000D01*
X226695000Y-139700000D02*
X232410000Y-133985000D01*
X226695000Y-144145000D02*
X226695000Y-139700000D01*
X246380000Y-125730000D02*
X248920000Y-128270000D01*
X236478000Y-128647000D02*
X244733000Y-128647000D01*
X228600000Y-146050000D02*
X226695000Y-144145000D01*
X246380000Y-127000000D02*
X246380000Y-125730000D01*
X244733000Y-128647000D02*
X246380000Y-127000000D01*
D22*
%TO.N,VCC*%
X241300000Y-135890000D02*
X236220000Y-130810000D01*
X242512900Y-135890000D02*
X241300000Y-135890000D01*
D21*
%TO.N,+5V*%
X253225000Y-119875000D02*
X252730000Y-119380000D01*
X223075000Y-118935000D02*
X224790000Y-120650000D01*
X253225000Y-120650000D02*
X253225000Y-119875000D01*
X250985000Y-120650000D02*
X250350000Y-121285000D01*
X222250000Y-118935000D02*
X223075000Y-118935000D01*
X253225000Y-120650000D02*
X250985000Y-120650000D01*
X224790000Y-118935000D02*
X224790000Y-120650000D01*
%TO.N,/rst*%
X229493000Y-131768701D02*
X229493000Y-134402141D01*
X250210000Y-114300000D02*
X255270000Y-114300000D01*
X228600000Y-116840000D02*
X228600000Y-119329079D01*
X229493000Y-134402141D02*
X223458841Y-140436299D01*
X223520000Y-121920000D02*
X225306000Y-123706000D01*
X223458841Y-140436299D02*
X221075000Y-142820140D01*
X225306000Y-127581701D02*
X229493000Y-131768701D01*
X221075000Y-142820140D02*
X221075000Y-144875000D01*
X228600000Y-119329079D02*
X232837921Y-123567000D01*
X221075000Y-144875000D02*
X222250000Y-146050000D01*
X225306000Y-123706000D02*
X225306000Y-127581701D01*
X232837921Y-123567000D02*
X240943000Y-123567000D01*
X240943000Y-123567000D02*
X250210000Y-114300000D01*
%TO.N,Net-(IC1-VDD3V3)*%
X250350000Y-122555000D02*
X253860000Y-122555000D01*
X253860000Y-122555000D02*
X254000000Y-122415000D01*
%TO.N,/sda*%
X239632500Y-128270000D02*
X244077500Y-123825000D01*
X225615000Y-117285000D02*
X226060000Y-116840000D01*
X226060000Y-116840000D02*
X226060000Y-127000000D01*
X227330000Y-128270000D02*
X239632500Y-128270000D01*
X224790000Y-117285000D02*
X225615000Y-117285000D01*
X226060000Y-127000000D02*
X227330000Y-128270000D01*
X244077500Y-123825000D02*
X244950000Y-123825000D01*
%TO.N,/scl*%
X222250000Y-117285000D02*
X223420000Y-116115000D01*
X223420000Y-116115000D02*
X226605000Y-116115000D01*
X226605000Y-116115000D02*
X227330000Y-116840000D01*
X226671000Y-117499000D02*
X226671000Y-127077842D01*
X227330000Y-116840000D02*
X226671000Y-117499000D01*
X226671000Y-127077842D02*
X227486158Y-127893000D01*
X244500000Y-122555000D02*
X244950000Y-122555000D01*
X227486158Y-127893000D02*
X239162000Y-127893000D01*
X239162000Y-127893000D02*
X244500000Y-122555000D01*
%TO.N,/ud+*%
X241300000Y-113563158D02*
X234416842Y-106680000D01*
X241300000Y-115570000D02*
X241300000Y-113563158D01*
X234416842Y-106680000D02*
X233680000Y-106680000D01*
%TO.N,/ud-*%
X242025000Y-116115000D02*
X242025000Y-113755000D01*
X241300000Y-116840000D02*
X242025000Y-116115000D01*
X242025000Y-113755000D02*
X233680000Y-105410000D01*
%TO.N,Net-(U5-TXD)*%
X238760000Y-116840000D02*
X238760000Y-115570000D01*
X232543980Y-119246020D02*
X236353980Y-119246020D01*
X236353980Y-119246020D02*
X238760000Y-116840000D01*
%TO.N,/sck*%
X220255000Y-108675000D02*
X222250000Y-106680000D01*
X223520000Y-127545000D02*
X223712859Y-127737859D01*
X220255000Y-119925000D02*
X220255000Y-108675000D01*
X224929000Y-124599000D02*
X220255000Y-119925000D01*
X219710000Y-143510000D02*
X229116000Y-134104000D01*
X229116000Y-131924859D02*
X224929000Y-127737859D01*
X223712859Y-127737859D02*
X224929000Y-127737859D01*
X229116000Y-134104000D02*
X229116000Y-131924859D01*
X224929000Y-127737859D02*
X224929000Y-124599000D01*
%TO.N,Net-(U2-PD7)*%
X233680000Y-113030000D02*
X237245305Y-113030000D01*
X228600000Y-107950000D02*
X233680000Y-113030000D01*
X227330000Y-107950000D02*
X228600000Y-107950000D01*
X239485000Y-117565000D02*
X241300000Y-119380000D01*
X239485000Y-115269695D02*
X239485000Y-117565000D01*
X237245305Y-113030000D02*
X239485000Y-115269695D01*
%TO.N,/en*%
X237487042Y-120222347D02*
X240583883Y-120222347D01*
X240583883Y-120222347D02*
X240843536Y-120482000D01*
X237013369Y-120696020D02*
X237487042Y-120222347D01*
X232456020Y-120696020D02*
X237013369Y-120696020D01*
X243002695Y-120482000D02*
X243839696Y-119644999D01*
X231140000Y-119380000D02*
X232456020Y-120696020D01*
X240843536Y-120482000D02*
X243002695Y-120482000D01*
%TO.N,/esp_sck*%
X238215000Y-136615000D02*
X249465000Y-136615000D01*
X236220000Y-134620000D02*
X238215000Y-136615000D01*
X224940200Y-129690200D02*
X227330000Y-132080000D01*
X249465000Y-136615000D02*
X251460000Y-134620000D01*
X218440000Y-129690200D02*
X224940200Y-129690200D01*
%TO.N,/esp_mosi*%
X250190000Y-138430000D02*
X251460000Y-137160000D01*
X234950000Y-138430000D02*
X250190000Y-138430000D01*
%TO.N,/in1*%
X229870000Y-118110000D02*
X233680000Y-114300000D01*
X232982750Y-121421020D02*
X231911020Y-121421020D01*
X229870000Y-119380000D02*
X229870000Y-118110000D01*
X231911020Y-121421020D02*
X229870000Y-119380000D01*
%TO.N,/in2*%
X242025000Y-118904203D02*
X240417667Y-117296870D01*
X236510138Y-119623020D02*
X236753158Y-119380000D01*
X241600305Y-120105000D02*
X242025000Y-119680305D01*
X236753158Y-119380000D02*
X240274695Y-119380000D01*
X240417667Y-117296870D02*
X240417667Y-115669203D01*
X240274695Y-119380000D02*
X240999695Y-120105000D01*
X237401464Y-112653000D02*
X234573000Y-112653000D01*
X234573000Y-112653000D02*
X229870000Y-107950000D01*
X234950000Y-119971020D02*
X235298000Y-119623020D01*
X240999695Y-120105000D02*
X241600305Y-120105000D01*
X240417667Y-115669203D02*
X237401464Y-112653000D01*
X235298000Y-119623020D02*
X236510138Y-119623020D01*
X242025000Y-119680305D02*
X242025000Y-118904203D01*
%TO.N,/in3*%
X229325000Y-109945000D02*
X228600000Y-109220000D01*
X237787347Y-120947347D02*
X235544694Y-123190000D01*
X229325000Y-119470000D02*
X229325000Y-109945000D01*
X235544694Y-123190000D02*
X233045000Y-123190000D01*
X233045000Y-123190000D02*
X229325000Y-119470000D01*
%TO.N,/esp_miso*%
X238383000Y-138053000D02*
X249297000Y-138053000D01*
X249297000Y-138053000D02*
X251460000Y-135890000D01*
X219710000Y-133350000D02*
X227330000Y-133350000D01*
X236220000Y-135890000D02*
X238383000Y-138053000D01*
X218440000Y-132080000D02*
X219710000Y-133350000D01*
%TO.N,/miso*%
X223520000Y-131355000D02*
X217895000Y-131355000D01*
X222005305Y-104140000D02*
X217170000Y-108975305D01*
X217170000Y-108975305D02*
X217170000Y-132080000D01*
X217170000Y-143510000D02*
X217170000Y-132080000D01*
X219710000Y-146050000D02*
X217170000Y-143510000D01*
X222250000Y-104140000D02*
X222005305Y-104140000D01*
X217895000Y-131355000D02*
X217170000Y-132080000D01*
%TO.N,/mosi*%
X229870000Y-135050446D02*
X229870000Y-131343159D01*
X221450000Y-112560000D02*
X224790000Y-109220000D01*
X224790000Y-146050000D02*
X223615000Y-144875000D01*
X225188004Y-118110000D02*
X221851996Y-118110000D01*
X225683000Y-118604996D02*
X225188004Y-118110000D01*
X225683000Y-127156159D02*
X225683000Y-118604996D01*
X223615000Y-144875000D02*
X223615000Y-141305446D01*
X221450000Y-117708004D02*
X221450000Y-112560000D01*
X229870000Y-131343159D02*
X225683000Y-127156159D01*
X223615000Y-141305446D02*
X229870000Y-135050446D01*
X221851996Y-118110000D02*
X221450000Y-117708004D01*
%TO.N,/esp_scl_0*%
X215475000Y-148165000D02*
X255695000Y-148165000D01*
X213360000Y-146050000D02*
X215475000Y-148165000D01*
X255695000Y-148165000D02*
X267970000Y-135890000D01*
%TO.N,/esp_sda_0*%
X255609695Y-147225000D02*
X217075000Y-147225000D01*
X268695000Y-139536880D02*
X268695000Y-135589695D01*
X268146689Y-140085191D02*
X268695000Y-139536880D01*
X217075000Y-147225000D02*
X215900000Y-146050000D01*
X268695000Y-135589695D02*
X268270305Y-135165000D01*
X267669695Y-135165000D02*
X255609695Y-147225000D01*
X268146689Y-141428750D02*
X268146689Y-140085191D01*
X268270305Y-135165000D02*
X267669695Y-135165000D01*
%TD*%
M02*
