M48
; DRILL file {KiCad 8.0.4} date 2024-11-29T22:55:19-0500
; FORMAT={-:-/ absolute / inch / decimal}
; #@! TF.CreationDate,2024-11-29T22:55:19-05:00
; #@! TF.GenerationSoftware,Kicad,Pcbnew,8.0.4
; #@! TF.FileFunction,Plated,1,4,PTH
FMAT,2
INCH
; #@! TA.AperFunction,Plated,PTH,ViaDrill
T1C0.0157
; #@! TA.AperFunction,Plated,PTH,ComponentDrill
T2C0.0197
; #@! TA.AperFunction,Plated,PTH,ComponentDrill
T3C0.0236
; #@! TA.AperFunction,Plated,PTH,ComponentDrill
T4C0.0394
; #@! TA.AperFunction,Plated,PTH,ComponentDrill
T5C0.1063
%
G90
G05
T1
X8.0Y-5.65
X8.35Y-5.65
X8.3851Y-4.1058
X8.5Y-4.7
X8.6Y-5.1059
X8.6Y-5.2
X8.65Y-4.1
X8.65Y-4.25
X8.7Y-4.1
X8.7Y-4.4
X8.75Y-4.1
X8.75Y-4.2
X8.8Y-4.8
X8.8Y-5.0215
X8.8Y-5.1715
X8.85Y-4.3
X8.85Y-4.75
X8.85Y-5.0715
X8.85Y-5.2215
X8.85Y-5.3715
X8.9Y-4.25
X8.9Y-4.6
X8.9436Y-4.0962
X8.95Y-4.25
X8.95Y-4.6
X8.95Y-5.2
X8.95Y-5.25
X8.9585Y-5.4085
X9.0Y-4.3
X9.0Y-4.6
X9.05Y-4.25
X9.1Y-4.7
X9.1553Y-4.6947
X9.1725Y-4.7804
X9.2Y-4.15
X9.2Y-4.2
X9.2Y-4.5
X9.2Y-4.65
X9.25Y-4.05
X9.25Y-4.1
X9.25Y-4.5
X9.25Y-4.7233
X9.25Y-5.45
X9.3Y-4.35
X9.3Y-4.4
X9.3Y-4.9
X9.3Y-4.95
X9.3Y-5.15
X9.3Y-5.3
X9.3Y-5.35
X9.35Y-4.9
X9.35Y-4.95
X9.3617Y-4.7617
X9.4Y-4.55
X9.4Y-4.9
X9.4Y-4.95
X9.45Y-4.9
X9.45Y-4.95
X9.5Y-4.55
X9.5Y-4.6
X9.5Y-4.7
X9.5478Y-5.35
X9.55Y-4.25
X9.6Y-4.7104
X9.65Y-5.0
X9.7Y-4.5
X9.7Y-4.95
X9.8Y-5.05
X9.9Y-5.25
X9.9Y-5.3
X9.9Y-5.35
X9.9Y-5.4
X9.93Y-5.65
X9.93Y-5.7257
X9.95Y-4.25
X9.95Y-4.7
X9.95Y-4.95
X10.05Y-4.5
X10.55Y-5.35
X10.557Y-5.5681
T4
X8.4Y-5.75
X8.5Y-5.75
X8.65Y-5.65
X8.65Y-5.75
X8.75Y-5.65
X8.75Y-5.75
X8.85Y-5.65
X8.85Y-5.75
X9.0Y-5.65
X9.0Y-5.75
X9.1Y-5.65
X9.1Y-5.75
X9.25Y-5.75
X9.35Y-5.75
X9.45Y-5.75
X10.2024Y-3.9012
X10.2024Y-4.0012
X10.2024Y-4.1012
X10.2024Y-4.2012
X10.2024Y-4.3012
X10.2024Y-4.4012
X10.2024Y-4.5012
X10.2024Y-4.6012
T5
X8.2362Y-4.374
X8.2362Y-4.6575
X8.2362Y-5.0583
X8.2362Y-5.3417
T2
G00X8.9Y-3.9138
M15
G01X8.9Y-3.8862
M16
G05
G00X9.1598Y-3.9138
M15
G01X9.1598Y-3.8862
M16
G05
T3
G00X7.9783Y-4.25
M15
G01X8.0217Y-4.25
M16
G05
G00X7.9783Y-4.7815
M15
G01X8.0217Y-4.7815
M16
G05
G00X7.9783Y-4.9343
M15
G01X8.0217Y-4.9343
M16
G05
G00X7.9783Y-5.4657
M15
G01X8.0217Y-5.4657
M16
G05
M30
