%TF.GenerationSoftware,KiCad,Pcbnew,8.0.4*%
%TF.CreationDate,2024-11-29T22:55:19-05:00*%
%TF.ProjectId,foc_pcb,666f635f-7063-4622-9e6b-696361645f70,2.0*%
%TF.SameCoordinates,Original*%
%TF.FileFunction,Soldermask,Bot*%
%TF.FilePolarity,Negative*%
%FSLAX46Y46*%
G04 Gerber Fmt 4.6, Leading zero omitted, Abs format (unit mm)*
G04 Created by KiCad (PCBNEW 8.0.4) date 2024-11-29 22:55:19*
%MOMM*%
%LPD*%
G01*
G04 APERTURE LIST*
G04 Aperture macros list*
%AMRoundRect*
0 Rectangle with rounded corners*
0 $1 Rounding radius*
0 $2 $3 $4 $5 $6 $7 $8 $9 X,Y pos of 4 corners*
0 Add a 4 corners polygon primitive as box body*
4,1,4,$2,$3,$4,$5,$6,$7,$8,$9,$2,$3,0*
0 Add four circle primitives for the rounded corners*
1,1,$1+$1,$2,$3*
1,1,$1+$1,$4,$5*
1,1,$1+$1,$6,$7*
1,1,$1+$1,$8,$9*
0 Add four rect primitives between the rounded corners*
20,1,$1+$1,$2,$3,$4,$5,0*
20,1,$1+$1,$4,$5,$6,$7,0*
20,1,$1+$1,$6,$7,$8,$9,0*
20,1,$1+$1,$8,$9,$2,$3,0*%
G04 Aperture macros list end*
%ADD10R,1.700000X1.700000*%
%ADD11O,1.700000X1.700000*%
%ADD12O,1.104000X2.004000*%
%ADD13RoundRect,0.102000X1.858000X-1.858000X1.858000X1.858000X-1.858000X1.858000X-1.858000X-1.858000X0*%
%ADD14C,3.920000*%
%ADD15O,2.604000X1.404000*%
%ADD16C,3.200000*%
%ADD17RoundRect,0.225000X-0.250000X0.225000X-0.250000X-0.225000X0.250000X-0.225000X0.250000X0.225000X0*%
%ADD18RoundRect,0.225000X-0.225000X-0.250000X0.225000X-0.250000X0.225000X0.250000X-0.225000X0.250000X0*%
%ADD19RoundRect,0.102000X0.750000X0.325000X-0.750000X0.325000X-0.750000X-0.325000X0.750000X-0.325000X0*%
%ADD20RoundRect,0.200000X0.275000X-0.200000X0.275000X0.200000X-0.275000X0.200000X-0.275000X-0.200000X0*%
G04 APERTURE END LIST*
D10*
%TO.C,J4*%
X231140000Y-143510000D03*
D11*
X231140000Y-146050000D03*
X228600000Y-143510000D03*
X228600000Y-146050000D03*
%TD*%
D12*
%TO.C,J12*%
X232660000Y-99060000D03*
X226060000Y-99060000D03*
%TD*%
D13*
%TO.C,J5*%
X209200000Y-128480000D03*
D14*
X209200000Y-135680000D03*
D15*
X203200000Y-125330000D03*
X203200000Y-138830000D03*
%TD*%
D10*
%TO.C,J1*%
X259140000Y-116870000D03*
D11*
X259140000Y-114330000D03*
X259140000Y-111790000D03*
X259140000Y-109250000D03*
X259140000Y-106710000D03*
X259140000Y-104170000D03*
X259140000Y-101630000D03*
X259140000Y-99090000D03*
%TD*%
D10*
%TO.C,J3*%
X234950000Y-146050000D03*
D11*
X237490000Y-146050000D03*
X240030000Y-146050000D03*
%TD*%
D16*
%TO.C,H2*%
X247650000Y-104190000D03*
%TD*%
%TO.C,H4*%
X266650000Y-123190000D03*
%TD*%
D10*
%TO.C,J2*%
X213360000Y-146050000D03*
D11*
X215900000Y-146050000D03*
%TD*%
D13*
%TO.C,J6*%
X209200000Y-111100000D03*
D14*
X209200000Y-118300000D03*
D15*
X203200000Y-107950000D03*
X203200000Y-121450000D03*
%TD*%
D16*
%TO.C,H3*%
X247650000Y-142190000D03*
%TD*%
%TO.C,H1*%
X228650000Y-123190000D03*
%TD*%
D10*
%TO.C,J10*%
X219710000Y-146050000D03*
D11*
X219710000Y-143510000D03*
X222250000Y-146050000D03*
X222250000Y-143510000D03*
X224790000Y-146050000D03*
X224790000Y-143510000D03*
%TD*%
D17*
%TO.C,C14*%
X254000000Y-122415000D03*
X254000000Y-123965000D03*
%TD*%
D18*
%TO.C,C13*%
X253225000Y-120650000D03*
X254775000Y-120650000D03*
%TD*%
D19*
%TO.C,IC1*%
X250350000Y-121285000D03*
X250350000Y-122555000D03*
X250350000Y-123825000D03*
X250350000Y-125095000D03*
X244950000Y-125095000D03*
X244950000Y-123825000D03*
X244950000Y-122555000D03*
X244950000Y-121285000D03*
%TD*%
D20*
%TO.C,R9*%
X222250000Y-118935000D03*
X222250000Y-117285000D03*
%TD*%
%TO.C,R11*%
X224790000Y-118935000D03*
X224790000Y-117285000D03*
%TD*%
M02*
