<?xml version="1.0" standalone="no"?>
 <!DOCTYPE svg PUBLIC "-//W3C//DTD SVG 1.1//EN" 
 "http://www.w3.org/Graphics/SVG/1.1/DTD/svg11.dtd"> 
<svg
  xmlns:svg="http://www.w3.org/2000/svg"
  xmlns="http://www.w3.org/2000/svg"
  xmlns:xlink="http://www.w3.org/1999/xlink"
  version="1.1"
  width="48.9458mm" height="48.5140mm" viewBox="0.0000 0.0000 48.9458 48.5140">
<title>SVG Image created as foc_pcb-F_Paste.svg date 2025/07/07 16:43:58 </title>
  <desc>Image generated by PCBNEW </desc>
<g style="fill:#000000; fill-opacity:1.0000;stroke:#000000; stroke-opacity:1.0000;
stroke-linecap:round; stroke-linejoin:round;"
 transform="translate(0 0) scale(1 1)">
<path style="fill:#000000; fill-opacity:1.0000; 
stroke:#000000; stroke-width:0.0100; stroke-opacity:1; 
stroke-linecap:round; stroke-linejoin:round;fill-rule:evenodd;"
d="M 12.6264,21.4967
13.2264,22.0967
13.2264,24.2967
12.3264,25.1967
11.9264,25.1967
11.0264,24.2967
11.0264,22.0967
11.6264,21.4967
11.6264,19.6967
12.6264,19.6967
Z" /> 
<path style="fill:#000000; fill-opacity:1.0000; stroke:none;fill-rule:evenodd;"
d="M 32.4674,7.2887
32.5439,7.3039
32.6088,7.3472
32.6522,7.4121
32.6674,7.4887
32.6674,7.8887
32.6522,7.9652
32.6088,8.0301
32.5439,8.0734
32.4674,8.0887
31.9174,8.0887
31.8409,8.0734
31.7760,8.0301
31.7326,7.9652
31.7174,7.8887
31.7174,7.4887
31.7326,7.4121
31.7760,7.3472
31.8409,7.3039
31.9174,7.2887
Z" /> 
<path style="fill:#000000; fill-opacity:1.0000; stroke:none;fill-rule:evenodd;"
d="M 32.4674,8.9387
32.5439,8.9539
32.6088,8.9972
32.6522,9.0621
32.6674,9.1387
32.6674,9.5387
32.6522,9.6152
32.6088,9.6801
32.5439,9.7234
32.4674,9.7387
31.9174,9.7387
31.8409,9.7234
31.7760,9.6801
31.7326,9.6152
31.7174,9.5387
31.7174,9.1387
31.7326,9.0621
31.7760,8.9972
31.8409,8.9539
31.9174,8.9387
Z" /> 
<path style="fill:#000000; fill-opacity:1.0000; stroke:none;fill-rule:evenodd;"
d="M 44.6407,30.1372
44.7244,30.1538
44.7953,30.2012
44.8427,30.2722
44.8594,30.3559
44.8594,30.7934
44.8427,30.8771
44.7953,30.9481
44.7244,30.9955
44.6407,31.0122
44.1281,31.0122
44.0444,30.9955
43.9735,30.9481
43.9261,30.8771
43.9094,30.7934
43.9094,30.3559
43.9261,30.2722
43.9735,30.2012
44.0444,30.1538
44.1281,30.1372
Z" /> 
<path style="fill:#000000; fill-opacity:1.0000; stroke:none;fill-rule:evenodd;"
d="M 44.6407,31.7122
44.7244,31.7288
44.7953,31.7762
44.8427,31.8472
44.8594,31.9309
44.8594,32.3684
44.8427,32.4521
44.7953,32.5231
44.7244,32.5705
44.6407,32.5872
44.1281,32.5872
44.0444,32.5705
43.9735,32.5231
43.9261,32.4521
43.9094,32.3684
43.9094,31.9309
43.9261,31.8472
43.9735,31.7762
44.0444,31.7288
44.1281,31.7122
Z" /> 
<path style="fill:#000000; fill-opacity:1.0000; stroke:none;fill-rule:evenodd;"
d="M 33.2719,19.1828
33.2719,18.0906
35.9643,18.0906
35.9643,19.1828
Z" /> 
<path style="fill:#000000; fill-opacity:1.0000; stroke:none;fill-rule:evenodd;"
d="M 38.5805,19.1828
38.5805,18.0906
41.2729,18.0906
41.2729,19.1828
Z" /> 
<path style="fill:#000000; fill-opacity:1.0000; stroke:none;fill-rule:evenodd;"
d="M 24.3244,22.7217
24.3092,22.7982
24.2658,22.8631
24.2009,22.9064
24.1244,22.9217
23.7244,22.9217
23.6479,22.9064
23.5830,22.8631
23.5396,22.7982
23.5244,22.7217
23.5244,22.1717
23.5396,22.0951
23.5830,22.0302
23.6479,21.9869
23.7244,21.9717
24.1244,21.9717
24.2009,21.9869
24.2658,22.0302
24.3092,22.0951
24.3244,22.1717
Z" /> 
<path style="fill:#000000; fill-opacity:1.0000; stroke:none;fill-rule:evenodd;"
d="M 22.6744,22.7217
22.6592,22.7982
22.6158,22.8631
22.5509,22.9064
22.4744,22.9217
22.0744,22.9217
21.9979,22.9064
21.9330,22.8631
21.8896,22.7982
21.8744,22.7217
21.8744,22.1717
21.8896,22.0951
21.9330,22.0302
21.9979,21.9869
22.0744,21.9717
22.4744,21.9717
22.5509,21.9869
22.6158,22.0302
22.6592,22.0951
22.6744,22.1717
Z" /> 
<path style="fill:#000000; fill-opacity:1.0000; stroke:none;fill-rule:evenodd;"
d="M 30.1644,9.7017
30.0783,9.6845
30.0053,9.6358
29.9565,9.5628
29.9394,9.4767
29.9394,9.0267
29.9565,8.9406
30.0053,8.8676
30.0783,8.8188
30.1644,8.8017
30.6644,8.8017
30.7505,8.8188
30.8235,8.8676
30.8723,8.9406
30.8894,9.0267
30.8894,9.4767
30.8723,9.5628
30.8235,9.6358
30.7505,9.6845
30.6644,9.7017
Z" /> 
<path style="fill:#000000; fill-opacity:1.0000; stroke:none;fill-rule:evenodd;"
d="M 30.1644,8.1517
30.0783,8.1345
30.0053,8.0858
29.9565,8.0128
29.9394,7.9267
29.9394,7.4767
29.9565,7.3906
30.0053,7.3176
30.0783,7.2688
30.1644,7.2517
30.6644,7.2517
30.7505,7.2688
30.8235,7.3176
30.8723,7.3906
30.8894,7.4767
30.8894,7.9267
30.8723,8.0128
30.8235,8.0858
30.7505,8.1345
30.6644,8.1517
Z" /> 
<path style="fill:#000000; fill-opacity:1.0000; stroke:none;fill-rule:evenodd;"
d="M 34.1109,44.2245
34.0995,44.3308
34.0498,44.4641
33.9645,44.5780
33.8505,44.6633
33.7172,44.7131
33.6109,44.7245
31.8609,44.7245
31.7546,44.7131
31.6213,44.6633
31.5074,44.5780
31.4221,44.4641
31.3723,44.3308
31.3609,44.2245
31.3609,43.2245
31.3723,43.1182
31.4221,42.9849
31.5074,42.8709
31.6213,42.7857
31.7546,42.7359
31.8609,42.7245
33.6109,42.7245
33.7172,42.7359
33.8505,42.7857
33.9645,42.8709
34.0498,42.9849
34.0995,43.1182
34.1109,43.2245
Z" /> 
<path style="fill:#000000; fill-opacity:1.0000; stroke:none;fill-rule:evenodd;"
d="M 34.1109,41.6845
34.0995,41.7908
34.0498,41.9241
33.9645,42.0380
33.8505,42.1233
33.7172,42.1731
33.6109,42.1845
31.8609,42.1845
31.7546,42.1731
31.6213,42.1233
31.5074,42.0380
31.4221,41.9241
31.3723,41.7908
31.3609,41.6845
31.3609,40.6845
31.3723,40.5782
31.4221,40.4449
31.5074,40.3309
31.6213,40.2457
31.7546,40.1959
31.8609,40.1845
33.6109,40.1845
33.7172,40.1959
33.8505,40.2457
33.9645,40.3309
34.0498,40.4449
34.0995,40.5782
34.1109,40.6845
Z" /> 
<path style="fill:#000000; fill-opacity:1.0000; stroke:none;fill-rule:evenodd;"
d="M 34.1109,39.1445
34.0995,39.2508
34.0498,39.3841
33.9645,39.4980
33.8505,39.5833
33.7172,39.6331
33.6109,39.6445
31.8609,39.6445
31.7546,39.6331
31.6213,39.5833
31.5074,39.4980
31.4221,39.3841
31.3723,39.2508
31.3609,39.1445
31.3609,38.1445
31.3723,38.0382
31.4221,37.9049
31.5074,37.7909
31.6213,37.7057
31.7546,37.6559
31.8609,37.6445
33.6109,37.6445
33.7172,37.6559
33.8505,37.7057
33.9645,37.7909
34.0498,37.9049
34.0995,38.0382
34.1109,38.1445
Z" /> 
<path style="fill:#000000; fill-opacity:1.0000; stroke:none;fill-rule:evenodd;"
d="M 34.1109,36.6045
34.0995,36.7108
34.0498,36.8441
33.9645,36.9580
33.8505,37.0433
33.7172,37.0931
33.6109,37.1045
31.8609,37.1045
31.7546,37.0931
31.6213,37.0433
31.5074,36.9580
31.4221,36.8441
31.3723,36.7108
31.3609,36.6045
31.3609,35.6045
31.3723,35.4982
31.4221,35.3649
31.5074,35.2509
31.6213,35.1657
31.7546,35.1159
31.8609,35.1045
33.6109,35.1045
33.7172,35.1159
33.8505,35.1657
33.9645,35.2509
34.0498,35.3649
34.0995,35.4982
34.1109,35.6045
Z" /> 
<path style="fill:#000000; fill-opacity:1.0000; stroke:none;fill-rule:evenodd;"
d="M 34.1109,34.0645
34.0995,34.1708
34.0498,34.3041
33.9645,34.4180
33.8505,34.5033
33.7172,34.5531
33.6109,34.5645
31.8609,34.5645
31.7546,34.5531
31.6213,34.5033
31.5074,34.4180
31.4221,34.3041
31.3723,34.1708
31.3609,34.0645
31.3609,33.0645
31.3723,32.9582
31.4221,32.8249
31.5074,32.7109
31.6213,32.6257
31.7546,32.5759
31.8609,32.5645
33.6109,32.5645
33.7172,32.5759
33.8505,32.6257
33.9645,32.7109
34.0498,32.8249
34.0995,32.9582
34.1109,33.0645
Z" /> 
<path style="fill:#000000; fill-opacity:1.0000; stroke:none;fill-rule:evenodd;"
d="M 34.1109,31.5245
34.0995,31.6308
34.0498,31.7641
33.9645,31.8780
33.8505,31.9633
33.7172,32.0131
33.6109,32.0245
31.8609,32.0245
31.7546,32.0131
31.6213,31.9633
31.5074,31.8780
31.4221,31.7641
31.3723,31.6308
31.3609,31.5245
31.3609,30.5245
31.3723,30.4182
31.4221,30.2849
31.5074,30.1709
31.6213,30.0857
31.7546,30.0359
31.8609,30.0245
33.6109,30.0245
33.7172,30.0359
33.8505,30.0857
33.9645,30.1709
34.0498,30.2849
34.0995,30.4182
34.1109,30.5245
Z" /> 
<path style="fill:#000000; fill-opacity:1.0000; stroke:none;fill-rule:evenodd;"
d="M 34.1109,28.9845
34.0995,29.0908
34.0498,29.2241
33.9645,29.3380
33.8505,29.4233
33.7172,29.4731
33.6109,29.4845
31.8609,29.4845
31.7546,29.4731
31.6213,29.4233
31.5074,29.3380
31.4221,29.2241
31.3723,29.0908
31.3609,28.9845
31.3609,27.9845
31.3723,27.8782
31.4221,27.7449
31.5074,27.6309
31.6213,27.5457
31.7546,27.4959
31.8609,27.4845
33.6109,27.4845
33.7172,27.4959
33.8505,27.5457
33.9645,27.6309
34.0498,27.7449
34.0995,27.8782
34.1109,27.9845
Z" /> 
<path style="fill:#000000; fill-opacity:1.0000; stroke:none;fill-rule:evenodd;"
d="M 17.9459,28.9845
17.9345,29.0908
17.8848,29.2241
17.7995,29.3380
17.6855,29.4233
17.5522,29.4731
17.4459,29.4845
15.6959,29.4845
15.5896,29.4731
15.4563,29.4233
15.3424,29.3380
15.2571,29.2241
15.2073,29.0908
15.1959,28.9845
15.1959,27.9845
15.2073,27.8782
15.2571,27.7449
15.3424,27.6309
15.4563,27.5457
15.5896,27.4959
15.6959,27.4845
17.4459,27.4845
17.5522,27.4959
17.6855,27.5457
17.7995,27.6309
17.8848,27.7449
17.9345,27.8782
17.9459,27.9845
Z" /> 
<path style="fill:#000000; fill-opacity:1.0000; stroke:none;fill-rule:evenodd;"
d="M 17.9459,31.5245
17.9345,31.6308
17.8848,31.7641
17.7995,31.8780
17.6855,31.9633
17.5522,32.0131
17.4459,32.0245
15.6959,32.0245
15.5896,32.0131
15.4563,31.9633
15.3424,31.8780
15.2571,31.7641
15.2073,31.6308
15.1959,31.5245
15.1959,30.5245
15.2073,30.4182
15.2571,30.2849
15.3424,30.1709
15.4563,30.0857
15.5896,30.0359
15.6959,30.0245
17.4459,30.0245
17.5522,30.0359
17.6855,30.0857
17.7995,30.1709
17.8848,30.2849
17.9345,30.4182
17.9459,30.5245
Z" /> 
<path style="fill:#000000; fill-opacity:1.0000; stroke:none;fill-rule:evenodd;"
d="M 17.9459,34.0645
17.9345,34.1708
17.8848,34.3041
17.7995,34.4180
17.6855,34.5033
17.5522,34.5531
17.4459,34.5645
15.6959,34.5645
15.5896,34.5531
15.4563,34.5033
15.3424,34.4180
15.2571,34.3041
15.2073,34.1708
15.1959,34.0645
15.1959,33.0645
15.2073,32.9582
15.2571,32.8249
15.3424,32.7109
15.4563,32.6257
15.5896,32.5759
15.6959,32.5645
17.4459,32.5645
17.5522,32.5759
17.6855,32.6257
17.7995,32.7109
17.8848,32.8249
17.9345,32.9582
17.9459,33.0645
Z" /> 
<path style="fill:#000000; fill-opacity:1.0000; stroke:none;fill-rule:evenodd;"
d="M 17.9459,36.6045
17.9345,36.7108
17.8848,36.8441
17.7995,36.9580
17.6855,37.0433
17.5522,37.0931
17.4459,37.1045
15.6959,37.1045
15.5896,37.0931
15.4563,37.0433
15.3424,36.9580
15.2571,36.8441
15.2073,36.7108
15.1959,36.6045
15.1959,35.6045
15.2073,35.4982
15.2571,35.3649
15.3424,35.2509
15.4563,35.1657
15.5896,35.1159
15.6959,35.1045
17.4459,35.1045
17.5522,35.1159
17.6855,35.1657
17.7995,35.2509
17.8848,35.3649
17.9345,35.4982
17.9459,35.6045
Z" /> 
<path style="fill:#000000; fill-opacity:1.0000; stroke:none;fill-rule:evenodd;"
d="M 17.9459,39.1445
17.9345,39.2508
17.8848,39.3841
17.7995,39.4980
17.6855,39.5833
17.5522,39.6331
17.4459,39.6445
15.6959,39.6445
15.5896,39.6331
15.4563,39.5833
15.3424,39.4980
15.2571,39.3841
15.2073,39.2508
15.1959,39.1445
15.1959,38.1445
15.2073,38.0382
15.2571,37.9049
15.3424,37.7909
15.4563,37.7057
15.5896,37.6559
15.6959,37.6445
17.4459,37.6445
17.5522,37.6559
17.6855,37.7057
17.7995,37.7909
17.8848,37.9049
17.9345,38.0382
17.9459,38.1445
Z" /> 
<path style="fill:#000000; fill-opacity:1.0000; stroke:none;fill-rule:evenodd;"
d="M 17.9459,41.6845
17.9345,41.7908
17.8848,41.9241
17.7995,42.0380
17.6855,42.1233
17.5522,42.1731
17.4459,42.1845
15.6959,42.1845
15.5896,42.1731
15.4563,42.1233
15.3424,42.0380
15.2571,41.9241
15.2073,41.7908
15.1959,41.6845
15.1959,40.6845
15.2073,40.5782
15.2571,40.4449
15.3424,40.3309
15.4563,40.2457
15.5896,40.1959
15.6959,40.1845
17.4459,40.1845
17.5522,40.1959
17.6855,40.2457
17.7995,40.3309
17.8848,40.4449
17.9345,40.5782
17.9459,40.6845
Z" /> 
<path style="fill:#000000; fill-opacity:1.0000; stroke:none;fill-rule:evenodd;"
d="M 17.9459,44.2245
17.9345,44.3308
17.8848,44.4641
17.7995,44.5780
17.6855,44.6633
17.5522,44.7131
17.4459,44.7245
15.6959,44.7245
15.5896,44.7131
15.4563,44.6633
15.3424,44.5780
15.2571,44.4641
15.2073,44.3308
15.1959,44.2245
15.1959,43.2245
15.2073,43.1182
15.2571,42.9849
15.3424,42.8709
15.4563,42.7857
15.5896,42.7359
15.6959,42.7245
17.4459,42.7245
17.5522,42.7359
17.6855,42.7857
17.7995,42.8709
17.8848,42.9849
17.9345,43.1182
17.9459,43.2245
Z" /> 
<path style="fill:#000000; fill-opacity:1.0000; stroke:none;fill-rule:evenodd;"
d="M 29.9514,35.7645
30.0336,35.7753
30.1335,35.8219
30.2115,35.8999
30.2581,35.9998
30.2689,36.0820
30.2689,36.7170
30.2581,36.7992
30.2115,36.8991
30.1335,36.9771
30.0336,37.0237
29.9514,37.0345
28.3004,37.0345
28.2182,37.0237
28.1183,36.9771
28.0403,36.8991
27.9937,36.7992
27.9829,36.7170
27.9829,36.0820
27.9937,35.9998
28.0403,35.8999
28.1183,35.8219
28.2182,35.7753
28.3004,35.7645
Z" /> 
<path style="fill:#000000; fill-opacity:1.0000; stroke:none;fill-rule:evenodd;"
d="M 29.9514,37.6695
30.0336,37.6803
30.1335,37.7269
30.2115,37.8049
30.2581,37.9048
30.2689,37.9870
30.2689,38.6220
30.2581,38.7042
30.2115,38.8041
30.1335,38.8821
30.0336,38.9287
29.9514,38.9395
28.3004,38.9395
28.2182,38.9287
28.1183,38.8821
28.0403,38.8041
27.9937,38.7042
27.9829,38.6220
27.9829,37.9870
27.9937,37.9048
28.0403,37.8049
28.1183,37.7269
28.2182,37.6803
28.3004,37.6695
Z" /> 
<path style="fill:#000000; fill-opacity:1.0000; stroke:none;fill-rule:evenodd;"
d="M 25.1254,22.1967
25.1425,22.1106
25.1913,22.0376
25.2643,21.9888
25.3504,21.9717
25.8004,21.9717
25.8865,21.9888
25.9595,22.0376
26.0083,22.1106
26.0254,22.1967
26.0254,22.6967
26.0083,22.7828
25.9595,22.8558
25.8865,22.9045
25.8004,22.9217
25.3504,22.9217
25.2643,22.9045
25.1913,22.8558
25.1425,22.7828
25.1254,22.6967
Z" /> 
<path style="fill:#000000; fill-opacity:1.0000; stroke:none;fill-rule:evenodd;"
d="M 26.6754,22.1967
26.6925,22.1106
26.7413,22.0376
26.8143,21.9888
26.9004,21.9717
27.3504,21.9717
27.4365,21.9888
27.5095,22.0376
27.5583,22.1106
27.5754,22.1967
27.5754,22.6967
27.5583,22.7828
27.5095,22.8558
27.4365,22.9045
27.3504,22.9217
26.9004,22.9217
26.8143,22.9045
26.7413,22.8558
26.6925,22.7828
26.6754,22.6967
Z" /> 
<path style="fill:#000000; fill-opacity:1.0000; stroke:none;fill-rule:evenodd;"
d="M 13.5394,32.0597
14.2694,32.0597
14.2694,33.2697
13.5394,33.2697
Z" /> 
<path style="fill:#000000; fill-opacity:1.0000; stroke:none;fill-rule:evenodd;"
d="M 13.5394,28.6997
14.2694,28.6997
14.2694,29.9097
13.5394,29.9097
Z" /> 
<path style="fill:#000000; fill-opacity:1.0000; stroke:none;fill-rule:evenodd;"
d="M 13.1264,19.6967
14.1264,19.6967
14.1264,21.1967
13.1264,21.1967
Z" /> 
<path style="fill:#000000; fill-opacity:1.0000; stroke:none;fill-rule:evenodd;"
d="M 10.1264,19.6967
11.1264,19.6967
11.1264,21.1967
10.1264,21.1967
Z" /> 
<path style="fill:#000000; fill-opacity:1.0000; stroke:none;fill-rule:evenodd;"
d="M 19.2174,17.8297
19.1409,17.8144
19.0760,17.7711
19.0326,17.7062
19.0174,17.6297
19.0174,17.2297
19.0326,17.1531
19.0760,17.0882
19.1409,17.0449
19.2174,17.0297
19.7674,17.0297
19.8439,17.0449
19.9088,17.0882
19.9522,17.1531
19.9674,17.2297
19.9674,17.6297
19.9522,17.7062
19.9088,17.7711
19.8439,17.8144
19.7674,17.8297
Z" /> 
<path style="fill:#000000; fill-opacity:1.0000; stroke:none;fill-rule:evenodd;"
d="M 19.2174,16.1797
19.1409,16.1644
19.0760,16.1211
19.0326,16.0562
19.0174,15.9797
19.0174,15.5797
19.0326,15.5031
19.0760,15.4382
19.1409,15.3949
19.2174,15.3797
19.7674,15.3797
19.8439,15.3949
19.9088,15.4382
19.9522,15.5031
19.9674,15.5797
19.9674,15.9797
19.9522,16.0562
19.9088,16.1211
19.8439,16.1644
19.7674,16.1797
Z" /> 
</g>
<g style="fill:none; 
stroke:#000000; stroke-width:0.3430; stroke-opacity:1; 
stroke-linecap:round; stroke-linejoin:round;">
<path d="M27.3664 8.5189
L27.3664 7.1304
" />
<path d="M26.7164 8.5189
L26.7164 7.1304
" />
<path d="M26.0664 8.5189
L26.0664 7.1304
" />
<path d="M25.4164 8.5189
L25.4164 7.1304
" />
<path d="M24.7664 8.5189
L24.7664 7.1304
" />
<path d="M24.1164 8.5189
L24.1164 7.1304
" />
<path d="M23.4664 8.5189
L23.4664 7.1304
" />
<path d="M22.8164 8.5189
L22.8164 7.1304
" />
<path d="M22.1664 8.5189
L22.1664 7.1304
" />
<path d="M21.5164 8.5189
L21.5164 7.1304
" />
<path d="M20.8664 8.5189
L20.8664 7.1304
" />
<path d="M20.2164 8.5189
L20.2164 7.1304
" />
<path d="M19.5664 8.5189
L19.5664 7.1304
" />
<path d="M18.9164 8.5189
L18.9164 7.1304
" />
<path d="M18.9164 14.2509
L18.9164 12.8624
" />
<path d="M19.5664 14.2509
L19.5664 12.8624
" />
<path d="M20.2164 14.2509
L20.2164 12.8624
" />
<path d="M20.8664 14.2509
L20.8664 12.8624
" />
<path d="M21.5164 14.2509
L21.5164 12.8624
" />
<path d="M22.1664 14.2509
L22.1664 12.8624
" />
<path d="M22.8164 14.2509
L22.8164 12.8624
" />
<path d="M23.4664 14.2509
L23.4664 12.8624
" />
<path d="M24.1164 14.2509
L24.1164 12.8624
" />
<path d="M24.7664 14.2509
L24.7664 12.8624
" />
<path d="M25.4164 14.2509
L25.4164 12.8624
" />
<path d="M26.0664 14.2509
L26.0664 12.8624
" />
<path d="M26.7164 14.2509
L26.7164 12.8624
" />
<path d="M27.3664 14.2509
L27.3664 12.8624
" />
<path style="fill:#000000; fill-opacity:1.0000; stroke:none;fill-rule:evenodd;"
d="M 26.2414,9.3157
26.2414,12.0657
20.0414,12.0657
20.0414,9.3157
Z" /> 
<path style="fill:#000000; fill-opacity:1.0000; stroke:none;fill-rule:evenodd;"
d="M 23.3234,15.3297
23.3999,15.3449
23.4648,15.3882
23.5082,15.4531
23.5234,15.5297
23.5234,15.9297
23.5082,16.0062
23.4648,16.0711
23.3999,16.1144
23.3234,16.1297
22.7734,16.1297
22.6969,16.1144
22.6320,16.0711
22.5886,16.0062
22.5734,15.9297
22.5734,15.5297
22.5886,15.4531
22.6320,15.3882
22.6969,15.3449
22.7734,15.3297
Z" /> 
<path style="fill:#000000; fill-opacity:1.0000; stroke:none;fill-rule:evenodd;"
d="M 23.3234,16.9797
23.3999,16.9949
23.4648,17.0382
23.5082,17.1031
23.5234,17.1797
23.5234,17.5797
23.5082,17.6562
23.4648,17.7211
23.3999,17.7644
23.3234,17.7797
22.7734,17.7797
22.6969,17.7644
22.6320,17.7211
22.5886,17.6562
22.5734,17.5797
22.5734,17.1797
22.5886,17.1031
22.6320,17.0382
22.6969,16.9949
22.7734,16.9797
Z" /> 
<path style="fill:#000000; fill-opacity:1.0000; stroke:none;fill-rule:evenodd;"
d="M 30.4104,15.3797
30.4965,15.3968
30.5695,15.4456
30.6183,15.5186
30.6354,15.6047
30.6354,16.0547
30.6183,16.1408
30.5695,16.2138
30.4965,16.2625
30.4104,16.2797
29.9104,16.2797
29.8243,16.2625
29.7513,16.2138
29.7025,16.1408
29.6854,16.0547
29.6854,15.6047
29.7025,15.5186
29.7513,15.4456
29.8243,15.3968
29.9104,15.3797
Z" /> 
<path style="fill:#000000; fill-opacity:1.0000; stroke:none;fill-rule:evenodd;"
d="M 30.4104,16.9297
30.4965,16.9468
30.5695,16.9956
30.6183,17.0686
30.6354,17.1547
30.6354,17.6047
30.6183,17.6908
30.5695,17.7638
30.4965,17.8125
30.4104,17.8297
29.9104,17.8297
29.8243,17.8125
29.7513,17.7638
29.7025,17.6908
29.6854,17.6047
29.6854,17.1547
29.7025,17.0686
29.7513,16.9956
29.8243,16.9468
29.9104,16.9297
Z" /> 
<path style="fill:#000000; fill-opacity:1.0000; stroke:none;fill-rule:evenodd;"
d="M 31.9174,13.0037
31.8409,12.9884
31.7760,12.9451
31.7326,12.8802
31.7174,12.8037
31.7174,12.4037
31.7326,12.3271
31.7760,12.2622
31.8409,12.2189
31.9174,12.2037
32.4674,12.2037
32.5439,12.2189
32.6088,12.2622
32.6522,12.3271
32.6674,12.4037
32.6674,12.8037
32.6522,12.8802
32.6088,12.9451
32.5439,12.9884
32.4674,13.0037
Z" /> 
<path style="fill:#000000; fill-opacity:1.0000; stroke:none;fill-rule:evenodd;"
d="M 31.9174,11.3537
31.8409,11.3384
31.7760,11.2951
31.7326,11.2302
31.7174,11.1537
31.7174,10.7537
31.7326,10.6771
31.7760,10.6122
31.8409,10.5689
31.9174,10.5537
32.4674,10.5537
32.5439,10.5689
32.6088,10.6122
32.6522,10.6771
32.6674,10.7537
32.6674,11.1537
32.6522,11.2302
32.6088,11.2951
32.5439,11.3384
32.4674,11.3537
Z" /> 
<path style="fill:#000000; fill-opacity:1.0000; stroke:none;fill-rule:evenodd;"
d="M 26.8194,15.3297
26.8959,15.3449
26.9608,15.3882
27.0042,15.4531
27.0194,15.5297
27.0194,15.9297
27.0042,16.0062
26.9608,16.0711
26.8959,16.1144
26.8194,16.1297
26.2694,16.1297
26.1929,16.1144
26.1280,16.0711
26.0846,16.0062
26.0694,15.9297
26.0694,15.5297
26.0846,15.4531
26.1280,15.3882
26.1929,15.3449
26.2694,15.3297
Z" /> 
<path style="fill:#000000; fill-opacity:1.0000; stroke:none;fill-rule:evenodd;"
d="M 26.8194,16.9797
26.8959,16.9949
26.9608,17.0382
27.0042,17.1031
27.0194,17.1797
27.0194,17.5797
27.0042,17.6562
26.9608,17.7211
26.8959,17.7644
26.8194,17.7797
26.2694,17.7797
26.1929,17.7644
26.1280,17.7211
26.0846,17.6562
26.0694,17.5797
26.0694,17.1797
26.0846,17.1031
26.1280,17.0382
26.1929,16.9949
26.2694,16.9797
Z" /> 
<path style="fill:#000000; fill-opacity:1.0000; stroke:none;fill-rule:evenodd;"
d="M 42.1434,33.6017
42.1586,33.5251
42.2020,33.4602
42.2669,33.4169
42.3434,33.4017
42.7434,33.4017
42.8199,33.4169
42.8848,33.4602
42.9282,33.5251
42.9434,33.6017
42.9434,34.1517
42.9282,34.2282
42.8848,34.2931
42.8199,34.3364
42.7434,34.3517
42.3434,34.3517
42.2669,34.3364
42.2020,34.2931
42.1586,34.2282
42.1434,34.1517
Z" /> 
<path style="fill:#000000; fill-opacity:1.0000; stroke:none;fill-rule:evenodd;"
d="M 43.7934,33.6017
43.8086,33.5251
43.8520,33.4602
43.9169,33.4169
43.9934,33.4017
44.3934,33.4017
44.4699,33.4169
44.5348,33.4602
44.5782,33.5251
44.5934,33.6017
44.5934,34.1517
44.5782,34.2282
44.5348,34.2931
44.4699,34.3364
44.3934,34.3517
43.9934,34.3517
43.9169,34.3364
43.8520,34.2931
43.8086,34.2282
43.7934,34.1517
Z" /> 
<path style="fill:#000000; fill-opacity:1.0000; stroke:none;fill-rule:evenodd;"
d="M 21.0204,17.8297
20.9343,17.8125
20.8613,17.7638
20.8125,17.6908
20.7954,17.6047
20.7954,17.1547
20.8125,17.0686
20.8613,16.9956
20.9343,16.9468
21.0204,16.9297
21.5204,16.9297
21.6065,16.9468
21.6795,16.9956
21.7283,17.0686
21.7454,17.1547
21.7454,17.6047
21.7283,17.6908
21.6795,17.7638
21.6065,17.8125
21.5204,17.8297
Z" /> 
<path style="fill:#000000; fill-opacity:1.0000; stroke:none;fill-rule:evenodd;"
d="M 21.0204,16.2797
20.9343,16.2625
20.8613,16.2138
20.8125,16.1408
20.7954,16.0547
20.7954,15.6047
20.8125,15.5186
20.8613,15.4456
20.9343,15.3968
21.0204,15.3797
21.5204,15.3797
21.6065,15.3968
21.6795,15.4456
21.7283,15.5186
21.7454,15.6047
21.7454,16.0547
21.7283,16.1408
21.6795,16.2138
21.6065,16.2625
21.5204,16.2797
Z" /> 
<path style="fill:#000000; fill-opacity:1.0000; stroke:none;fill-rule:evenodd;"
d="M 21.8744,23.8227
21.8896,23.7461
21.9330,23.6812
21.9979,23.6379
22.0744,23.6227
22.4744,23.6227
22.5509,23.6379
22.6158,23.6812
22.6592,23.7461
22.6744,23.8227
22.6744,24.3727
22.6592,24.4492
22.6158,24.5141
22.5509,24.5574
22.4744,24.5727
22.0744,24.5727
21.9979,24.5574
21.9330,24.5141
21.8896,24.4492
21.8744,24.3727
Z" /> 
<path style="fill:#000000; fill-opacity:1.0000; stroke:none;fill-rule:evenodd;"
d="M 23.5244,23.8227
23.5396,23.7461
23.5830,23.6812
23.6479,23.6379
23.7244,23.6227
24.1244,23.6227
24.2009,23.6379
24.2658,23.6812
24.3092,23.7461
24.3244,23.8227
24.3244,24.3727
24.3092,24.4492
24.2658,24.5141
24.2009,24.5574
24.1244,24.5727
23.7244,24.5727
23.6479,24.5574
23.5830,24.5141
23.5396,24.4492
23.5244,24.3727
Z" /> 
<path style="fill:#000000; fill-opacity:1.0000; stroke:none;fill-rule:evenodd;"
d="M 28.6324,15.3927
28.7185,15.4098
28.7915,15.4586
28.8403,15.5316
28.8574,15.6177
28.8574,16.0677
28.8403,16.1538
28.7915,16.2268
28.7185,16.2755
28.6324,16.2927
28.1324,16.2927
28.0463,16.2755
27.9733,16.2268
27.9245,16.1538
27.9074,16.0677
27.9074,15.6177
27.9245,15.5316
27.9733,15.4586
28.0463,15.4098
28.1324,15.3927
Z" /> 
<path style="fill:#000000; fill-opacity:1.0000; stroke:none;fill-rule:evenodd;"
d="M 28.6324,16.9427
28.7185,16.9598
28.7915,17.0086
28.8403,17.0816
28.8574,17.1677
28.8574,17.6177
28.8403,17.7038
28.7915,17.7768
28.7185,17.8255
28.6324,17.8427
28.1324,17.8427
28.0463,17.8255
27.9733,17.7768
27.9245,17.7038
27.9074,17.6177
27.9074,17.1677
27.9245,17.0816
27.9733,17.0086
28.0463,16.9598
28.1324,16.9427
Z" /> 
<path style="fill:#000000; fill-opacity:1.0000; stroke:none;fill-rule:evenodd;"
d="M 30.1394,13.0037
30.0629,12.9884
29.9980,12.9451
29.9546,12.8802
29.9394,12.8037
29.9394,12.4037
29.9546,12.3271
29.9980,12.2622
30.0629,12.2189
30.1394,12.2037
30.6894,12.2037
30.7659,12.2189
30.8308,12.2622
30.8742,12.3271
30.8894,12.4037
30.8894,12.8037
30.8742,12.8802
30.8308,12.9451
30.7659,12.9884
30.6894,13.0037
Z" /> 
<path style="fill:#000000; fill-opacity:1.0000; stroke:none;fill-rule:evenodd;"
d="M 30.1394,11.3537
30.0629,11.3384
29.9980,11.2951
29.9546,11.2302
29.9394,11.1537
29.9394,10.7537
29.9546,10.6771
29.9980,10.6122
30.0629,10.5689
30.1394,10.5537
30.6894,10.5537
30.7659,10.5689
30.8308,10.6122
30.8742,10.6771
30.8894,10.7537
30.8894,11.1537
30.8742,11.2302
30.8308,11.2951
30.7659,11.3384
30.6894,11.3537
Z" /> 
<path style="fill:#000000; fill-opacity:1.0000; stroke:none;fill-rule:evenodd;"
d="M 17.9894,15.3797
18.0659,15.3949
18.1308,15.4382
18.1742,15.5031
18.1894,15.5797
18.1894,15.9797
18.1742,16.0562
18.1308,16.1211
18.0659,16.1644
17.9894,16.1797
17.4394,16.1797
17.3629,16.1644
17.2980,16.1211
17.2546,16.0562
17.2394,15.9797
17.2394,15.5797
17.2546,15.5031
17.2980,15.4382
17.3629,15.3949
17.4394,15.3797
Z" /> 
<path style="fill:#000000; fill-opacity:1.0000; stroke:none;fill-rule:evenodd;"
d="M 17.9894,17.0297
18.0659,17.0449
18.1308,17.0882
18.1742,17.1531
18.1894,17.2297
18.1894,17.6297
18.1742,17.7062
18.1308,17.7711
18.0659,17.8144
17.9894,17.8297
17.4394,17.8297
17.3629,17.8144
17.2980,17.7711
17.2546,17.7062
17.2394,17.6297
17.2394,17.2297
17.2546,17.1531
17.2980,17.0882
17.3629,17.0449
17.4394,17.0297
Z" /> 
<path style="fill:#000000; fill-opacity:1.0000; stroke:none;fill-rule:evenodd;"
d="M 25.1014,15.3297
25.1779,15.3449
25.2428,15.3882
25.2862,15.4531
25.3014,15.5297
25.3014,15.9297
25.2862,16.0062
25.2428,16.0711
25.1779,16.1144
25.1014,16.1297
24.5514,16.1297
24.4749,16.1144
24.4100,16.0711
24.3666,16.0062
24.3514,15.9297
24.3514,15.5297
24.3666,15.4531
24.4100,15.3882
24.4749,15.3449
24.5514,15.3297
Z" /> 
<path style="fill:#000000; fill-opacity:1.0000; stroke:none;fill-rule:evenodd;"
d="M 25.1014,16.9797
25.1779,16.9949
25.2428,17.0382
25.2862,17.1031
25.3014,17.1797
25.3014,17.5797
25.2862,17.6562
25.2428,17.7211
25.1779,17.7644
25.1014,17.7797
24.5514,17.7797
24.4749,17.7644
24.4100,17.7211
24.3666,17.6562
24.3514,17.5797
24.3514,17.1797
24.3666,17.1031
24.4100,17.0382
24.4749,16.9949
24.5514,16.9797
Z" /> 
</g>
<g style="fill:none; 
stroke:#000000; stroke-width:0.2000; stroke-opacity:1; 
stroke-linecap:round; stroke-linejoin:round;">
<circle cx="24.6004" cy="24.4013" r="23.5000" /> 
</g> 
</svg>
