999
"DXF R12 Output" (www.mydxf.blogspot.com)
 0 
SECTION
 2 
HEADER
 9 
$ACADVER
 1 
AC1009
 9 
$EXTMIN
 10 
 0 
 20 
 0 
 9 
$EXTMAX
 10 
 8.5 
 20 
 11 
 0 
ENDSEC
 0 
SECTION
 2 
ENTITIES
0
LINE
8
Layer 1
10
28.615000
20
35.691600
11
28.615000
21
35.291600
0
LINE
8
Layer 1
10
28.615000
20
35.291600
11
27.715000
21
34.391600
0
LINE
8
Layer 1
10
27.715000
20
34.391600
11
25.515000
21
34.391600
0
LINE
8
Layer 1
10
25.515000
20
34.391600
11
24.915000
21
34.991600
0
LINE
8
Layer 1
10
24.915000
20
34.991600
11
23.115000
21
34.991600
0
LINE
8
Layer 1
10
23.115000
20
34.991600
11
23.115000
21
35.991600
0
LINE
8
Layer 1
10
23.115000
20
35.991600
11
24.915000
21
35.991600
0
LINE
8
Layer 1
10
24.915000
20
35.991600
11
25.515000
21
36.591600
0
LINE
8
Layer 1
10
25.515000
20
36.591600
11
27.715000
21
36.591600
0
LINE
8
Layer 1
10
27.715000
20
36.591600
11
28.615000
21
35.691600
0
LINE
8
Layer 1
10
20.540000
20
8.041600
11
20.463500
21
8.056800
0
LINE
8
Layer 1
10
20.463500
20
8.056800
11
20.398600
21
8.100200
0
LINE
8
Layer 1
10
20.398600
20
8.100200
11
20.355200
21
8.165100
0
LINE
8
Layer 1
10
20.355200
20
8.165100
11
20.340000
21
8.241600
0
LINE
8
Layer 1
10
20.340000
20
8.241600
11
20.340000
21
8.641600
0
LINE
8
Layer 1
10
20.340000
20
8.641600
11
20.355200
21
8.718100
0
LINE
8
Layer 1
10
20.355200
20
8.718100
11
20.398600
21
8.783000
0
LINE
8
Layer 1
10
20.398600
20
8.783000
11
20.463500
21
8.826400
0
LINE
8
Layer 1
10
20.463500
20
8.826400
11
20.540000
21
8.841600
0
LINE
8
Layer 1
10
20.540000
20
8.841600
11
21.090000
21
8.841600
0
LINE
8
Layer 1
10
21.090000
20
8.841600
11
21.166500
21
8.826400
0
LINE
8
Layer 1
10
21.166500
20
8.826400
11
21.231400
21
8.783000
0
LINE
8
Layer 1
10
21.231400
20
8.783000
11
21.274800
21
8.718100
0
LINE
8
Layer 1
10
21.274800
20
8.718100
11
21.290000
21
8.641600
0
LINE
8
Layer 1
10
21.290000
20
8.641600
11
21.290000
21
8.241600
0
LINE
8
Layer 1
10
21.290000
20
8.241600
11
21.274800
21
8.165100
0
LINE
8
Layer 1
10
21.274800
20
8.165100
11
21.231400
21
8.100200
0
LINE
8
Layer 1
10
21.231400
20
8.100200
11
21.166500
21
8.056800
0
LINE
8
Layer 1
10
21.166500
20
8.056800
11
21.090000
21
8.041600
0
LINE
8
Layer 1
10
21.090000
20
8.041600
11
20.540000
21
8.041600
0
LINE
8
Layer 1
10
20.540000
20
9.691600
11
20.463500
21
9.706800
0
LINE
8
Layer 1
10
20.463500
20
9.706800
11
20.398600
21
9.750200
0
LINE
8
Layer 1
10
20.398600
20
9.750200
11
20.355200
21
9.815100
0
LINE
8
Layer 1
10
20.355200
20
9.815100
11
20.340000
21
9.891600
0
LINE
8
Layer 1
10
20.340000
20
9.891600
11
20.340000
21
10.291600
0
LINE
8
Layer 1
10
20.340000
20
10.291600
11
20.355200
21
10.368100
0
LINE
8
Layer 1
10
20.355200
20
10.368100
11
20.398600
21
10.433000
0
LINE
8
Layer 1
10
20.398600
20
10.433000
11
20.463500
21
10.476400
0
LINE
8
Layer 1
10
20.463500
20
10.476400
11
20.540000
21
10.491600
0
LINE
8
Layer 1
10
20.540000
20
10.491600
11
21.090000
21
10.491600
0
LINE
8
Layer 1
10
21.090000
20
10.491600
11
21.166500
21
10.476400
0
LINE
8
Layer 1
10
21.166500
20
10.476400
11
21.231400
21
10.433000
0
LINE
8
Layer 1
10
21.231400
20
10.433000
11
21.274800
21
10.368100
0
LINE
8
Layer 1
10
21.274800
20
10.368100
11
21.290000
21
10.291600
0
LINE
8
Layer 1
10
21.290000
20
10.291600
11
21.290000
21
9.891600
0
LINE
8
Layer 1
10
21.290000
20
9.891600
11
21.274800
21
9.815100
0
LINE
8
Layer 1
10
21.274800
20
9.815100
11
21.231400
21
9.750200
0
LINE
8
Layer 1
10
21.231400
20
9.750200
11
21.166500
21
9.706800
0
LINE
8
Layer 1
10
21.166500
20
9.706800
11
21.090000
21
9.691600
0
LINE
8
Layer 1
10
21.090000
20
9.691600
11
20.540000
21
9.691600
0
LINE
8
Layer 1
10
22.305000
20
32.906600
11
22.391100
21
32.889500
0
LINE
8
Layer 1
10
22.391100
20
32.889500
11
22.464100
21
32.840700
0
LINE
8
Layer 1
10
22.464100
20
32.840700
11
22.512900
21
32.767700
0
LINE
8
Layer 1
10
22.512900
20
32.767700
11
22.530000
21
32.681600
0
LINE
8
Layer 1
10
22.530000
20
32.681600
11
22.530000
21
32.231600
0
LINE
8
Layer 1
10
22.530000
20
32.231600
11
22.512900
21
32.145500
0
LINE
8
Layer 1
10
22.512900
20
32.145500
11
22.464100
21
32.072500
0
LINE
8
Layer 1
10
22.464100
20
32.072500
11
22.391100
21
32.023700
0
LINE
8
Layer 1
10
22.391100
20
32.023700
11
22.305000
21
32.006600
0
LINE
8
Layer 1
10
22.305000
20
32.006600
11
21.805000
21
32.006600
0
LINE
8
Layer 1
10
21.805000
20
32.006600
11
21.718900
21
32.023700
0
LINE
8
Layer 1
10
21.718900
20
32.023700
11
21.645900
21
32.072500
0
LINE
8
Layer 1
10
21.645900
20
32.072500
11
21.597100
21
32.145500
0
LINE
8
Layer 1
10
21.597100
20
32.145500
11
21.580000
21
32.231600
0
LINE
8
Layer 1
10
21.580000
20
32.231600
11
21.580000
21
32.681600
0
LINE
8
Layer 1
10
21.580000
20
32.681600
11
21.597100
21
32.767700
0
LINE
8
Layer 1
10
21.597100
20
32.767700
11
21.645900
21
32.840700
0
LINE
8
Layer 1
10
21.645900
20
32.840700
11
21.718900
21
32.889500
0
LINE
8
Layer 1
10
21.718900
20
32.889500
11
21.805000
21
32.906600
0
LINE
8
Layer 1
10
21.805000
20
32.906600
11
22.305000
21
32.906600
0
LINE
8
Layer 1
10
22.305000
20
31.356600
11
22.391100
21
31.339500
0
LINE
8
Layer 1
10
22.391100
20
31.339500
11
22.464100
21
31.290700
0
LINE
8
Layer 1
10
22.464100
20
31.290700
11
22.512900
21
31.217700
0
LINE
8
Layer 1
10
22.512900
20
31.217700
11
22.530000
21
31.131600
0
LINE
8
Layer 1
10
22.530000
20
31.131600
11
22.530000
21
30.681600
0
LINE
8
Layer 1
10
22.530000
20
30.681600
11
22.512900
21
30.595500
0
LINE
8
Layer 1
10
22.512900
20
30.595500
11
22.464100
21
30.522500
0
LINE
8
Layer 1
10
22.464100
20
30.522500
11
22.391100
21
30.473700
0
LINE
8
Layer 1
10
22.391100
20
30.473700
11
22.305000
21
30.456600
0
LINE
8
Layer 1
10
22.305000
20
30.456600
11
21.805000
21
30.456600
0
LINE
8
Layer 1
10
21.805000
20
30.456600
11
21.718900
21
30.473700
0
LINE
8
Layer 1
10
21.718900
20
30.473700
11
21.645900
21
30.522500
0
LINE
8
Layer 1
10
21.645900
20
30.522500
11
21.597100
21
30.595500
0
LINE
8
Layer 1
10
21.597100
20
30.595500
11
21.580000
21
30.681600
0
LINE
8
Layer 1
10
21.580000
20
30.681600
11
21.580000
21
31.131600
0
LINE
8
Layer 1
10
21.580000
20
31.131600
11
21.597100
21
31.217700
0
LINE
8
Layer 1
10
21.597100
20
31.217700
11
21.645900
21
31.290700
0
LINE
8
Layer 1
10
21.645900
20
31.290700
11
21.718900
21
31.339500
0
LINE
8
Layer 1
10
21.718900
20
31.339500
11
21.805000
21
31.356600
0
LINE
8
Layer 1
10
21.805000
20
31.356600
11
22.305000
21
31.356600
0
LINE
8
Layer 1
10
49.690200
20
15.895500
11
49.690200
21
16.987700
0
LINE
8
Layer 1
10
49.690200
20
16.987700
11
52.382600
21
16.987700
0
LINE
8
Layer 1
10
52.382600
20
16.987700
11
52.382600
21
15.895500
0
LINE
8
Layer 1
10
52.382600
20
15.895500
11
49.690200
21
15.895500
0
LINE
8
Layer 1
10
54.998800
20
15.895500
11
54.998800
21
16.987700
0
LINE
8
Layer 1
10
54.998800
20
16.987700
11
57.691200
21
16.987700
0
LINE
8
Layer 1
10
57.691200
20
16.987700
11
57.691200
21
15.895500
0
LINE
8
Layer 1
10
57.691200
20
15.895500
11
54.998800
21
15.895500
0
LINE
8
Layer 1
10
45.190000
20
32.906600
11
45.266500
21
32.891400
0
LINE
8
Layer 1
10
45.266500
20
32.891400
11
45.331400
21
32.848000
0
LINE
8
Layer 1
10
45.331400
20
32.848000
11
45.374800
21
32.783100
0
LINE
8
Layer 1
10
45.374800
20
32.783100
11
45.390000
21
32.706600
0
LINE
8
Layer 1
10
45.390000
20
32.706600
11
45.390000
21
32.306600
0
LINE
8
Layer 1
10
45.390000
20
32.306600
11
45.374800
21
32.230100
0
LINE
8
Layer 1
10
45.374800
20
32.230100
11
45.331400
21
32.165200
0
LINE
8
Layer 1
10
45.331400
20
32.165200
11
45.266500
21
32.121800
0
LINE
8
Layer 1
10
45.266500
20
32.121800
11
45.190000
21
32.106600
0
LINE
8
Layer 1
10
45.190000
20
32.106600
11
44.640000
21
32.106600
0
LINE
8
Layer 1
10
44.640000
20
32.106600
11
44.563500
21
32.121800
0
LINE
8
Layer 1
10
44.563500
20
32.121800
11
44.498600
21
32.165200
0
LINE
8
Layer 1
10
44.498600
20
32.165200
11
44.455200
21
32.230100
0
LINE
8
Layer 1
10
44.455200
20
32.230100
11
44.440000
21
32.306600
0
LINE
8
Layer 1
10
44.440000
20
32.306600
11
44.440000
21
32.706600
0
LINE
8
Layer 1
10
44.440000
20
32.706600
11
44.455200
21
32.783100
0
LINE
8
Layer 1
10
44.455200
20
32.783100
11
44.498600
21
32.848000
0
LINE
8
Layer 1
10
44.498600
20
32.848000
11
44.563500
21
32.891400
0
LINE
8
Layer 1
10
44.563500
20
32.891400
11
44.640000
21
32.906600
0
LINE
8
Layer 1
10
44.640000
20
32.906600
11
45.190000
21
32.906600
0
LINE
8
Layer 1
10
45.190000
20
31.256600
11
45.266500
21
31.241400
0
LINE
8
Layer 1
10
45.266500
20
31.241400
11
45.331400
21
31.198000
0
LINE
8
Layer 1
10
45.331400
20
31.198000
11
45.374800
21
31.133100
0
LINE
8
Layer 1
10
45.374800
20
31.133100
11
45.390000
21
31.056600
0
LINE
8
Layer 1
10
45.390000
20
31.056600
11
45.390000
21
30.656600
0
LINE
8
Layer 1
10
45.390000
20
30.656600
11
45.374800
21
30.580100
0
LINE
8
Layer 1
10
45.374800
20
30.580100
11
45.331400
21
30.515200
0
LINE
8
Layer 1
10
45.331400
20
30.515200
11
45.266500
21
30.471800
0
LINE
8
Layer 1
10
45.266500
20
30.471800
11
45.190000
21
30.456600
0
LINE
8
Layer 1
10
45.190000
20
30.456600
11
44.640000
21
30.456600
0
LINE
8
Layer 1
10
44.640000
20
30.456600
11
44.563500
21
30.471800
0
LINE
8
Layer 1
10
44.563500
20
30.471800
11
44.498600
21
30.515200
0
LINE
8
Layer 1
10
44.498600
20
30.515200
11
44.455200
21
30.580100
0
LINE
8
Layer 1
10
44.455200
20
30.580100
11
44.440000
21
30.656600
0
LINE
8
Layer 1
10
44.440000
20
30.656600
11
44.440000
21
31.056600
0
LINE
8
Layer 1
10
44.440000
20
31.056600
11
44.455200
21
31.133100
0
LINE
8
Layer 1
10
44.455200
20
31.133100
11
44.498600
21
31.198000
0
LINE
8
Layer 1
10
44.498600
20
31.198000
11
44.563500
21
31.241400
0
LINE
8
Layer 1
10
44.563500
20
31.241400
11
44.640000
21
31.256600
0
LINE
8
Layer 1
10
44.640000
20
31.256600
11
45.190000
21
31.256600
0
LINE
8
Layer 1
10
29.268600
20
15.287000
11
29.268600
21
15.845800
0
LINE
8
Layer 1
10
29.268600
20
15.845800
11
30.589400
21
15.845800
0
LINE
8
Layer 1
10
30.589400
20
15.845800
11
30.589400
21
15.287000
0
LINE
8
Layer 1
10
30.589400
20
15.287000
11
29.268600
21
15.287000
0
LINE
8
Layer 1
10
29.268600
20
13.407400
11
29.268600
21
13.966200
0
LINE
8
Layer 1
10
29.268600
20
13.966200
11
30.589400
21
13.966200
0
LINE
8
Layer 1
10
30.589400
20
13.966200
11
30.589400
21
13.407400
0
LINE
8
Layer 1
10
30.589400
20
13.407400
11
29.268600
21
13.407400
0
LINE
8
Layer 1
10
31.300600
20
14.347200
11
31.300600
21
14.906000
0
LINE
8
Layer 1
10
31.300600
20
14.906000
11
32.621400
21
14.906000
0
LINE
8
Layer 1
10
32.621400
20
14.906000
11
32.621400
21
14.347200
0
LINE
8
Layer 1
10
32.621400
20
14.347200
11
31.300600
21
14.347200
0
LINE
8
Layer 1
10
24.320000
20
16.386600
11
24.243500
21
16.401800
0
LINE
8
Layer 1
10
24.243500
20
16.401800
11
24.178600
21
16.445200
0
LINE
8
Layer 1
10
24.178600
20
16.445200
11
24.135200
21
16.510100
0
LINE
8
Layer 1
10
24.135200
20
16.510100
11
24.120000
21
16.586600
0
LINE
8
Layer 1
10
24.120000
20
16.586600
11
24.120000
21
16.986600
0
LINE
8
Layer 1
10
24.120000
20
16.986600
11
24.135200
21
17.063100
0
LINE
8
Layer 1
10
24.135200
20
17.063100
11
24.178600
21
17.128000
0
LINE
8
Layer 1
10
24.178600
20
17.128000
11
24.243500
21
17.171400
0
LINE
8
Layer 1
10
24.243500
20
17.171400
11
24.320000
21
17.186600
0
LINE
8
Layer 1
10
24.320000
20
17.186600
11
24.870000
21
17.186600
0
LINE
8
Layer 1
10
24.870000
20
17.186600
11
24.946500
21
17.171400
0
LINE
8
Layer 1
10
24.946500
20
17.171400
11
25.011400
21
17.128000
0
LINE
8
Layer 1
10
25.011400
20
17.128000
11
25.054800
21
17.063100
0
LINE
8
Layer 1
10
25.054800
20
17.063100
11
25.070000
21
16.986600
0
LINE
8
Layer 1
10
25.070000
20
16.986600
11
25.070000
21
16.586600
0
LINE
8
Layer 1
10
25.070000
20
16.586600
11
25.054800
21
16.510100
0
LINE
8
Layer 1
10
25.054800
20
16.510100
11
25.011400
21
16.445200
0
LINE
8
Layer 1
10
25.011400
20
16.445200
11
24.946500
21
16.401800
0
LINE
8
Layer 1
10
24.946500
20
16.401800
11
24.870000
21
16.386600
0
LINE
8
Layer 1
10
24.870000
20
16.386600
11
24.320000
21
16.386600
0
LINE
8
Layer 1
10
24.320000
20
18.036600
11
24.243500
21
18.051800
0
LINE
8
Layer 1
10
24.243500
20
18.051800
11
24.178600
21
18.095200
0
LINE
8
Layer 1
10
24.178600
20
18.095200
11
24.135200
21
18.160100
0
LINE
8
Layer 1
10
24.135200
20
18.160100
11
24.120000
21
18.236600
0
LINE
8
Layer 1
10
24.120000
20
18.236600
11
24.120000
21
18.636600
0
LINE
8
Layer 1
10
24.120000
20
18.636600
11
24.135200
21
18.713100
0
LINE
8
Layer 1
10
24.135200
20
18.713100
11
24.178600
21
18.778000
0
LINE
8
Layer 1
10
24.178600
20
18.778000
11
24.243500
21
18.821400
0
LINE
8
Layer 1
10
24.243500
20
18.821400
11
24.320000
21
18.836600
0
LINE
8
Layer 1
10
24.320000
20
18.836600
11
24.870000
21
18.836600
0
LINE
8
Layer 1
10
24.870000
20
18.836600
11
24.946500
21
18.821400
0
LINE
8
Layer 1
10
24.946500
20
18.821400
11
25.011400
21
18.778000
0
LINE
8
Layer 1
10
25.011400
20
18.778000
11
25.054800
21
18.713100
0
LINE
8
Layer 1
10
25.054800
20
18.713100
11
25.070000
21
18.636600
0
LINE
8
Layer 1
10
25.070000
20
18.636600
11
25.070000
21
18.236600
0
LINE
8
Layer 1
10
25.070000
20
18.236600
11
25.054800
21
18.160100
0
LINE
8
Layer 1
10
25.054800
20
18.160100
11
25.011400
21
18.095200
0
LINE
8
Layer 1
10
25.011400
20
18.095200
11
24.946500
21
18.051800
0
LINE
8
Layer 1
10
24.946500
20
18.051800
11
24.870000
21
18.036600
0
LINE
8
Layer 1
10
24.870000
20
18.036600
11
24.320000
21
18.036600
0
LINE
8
Layer 1
10
42.545000
20
30.456600
11
42.468500
21
30.471800
0
LINE
8
Layer 1
10
42.468500
20
30.471800
11
42.403600
21
30.515200
0
LINE
8
Layer 1
10
42.403600
20
30.515200
11
42.360200
21
30.580100
0
LINE
8
Layer 1
10
42.360200
20
30.580100
11
42.345000
21
30.656600
0
LINE
8
Layer 1
10
42.345000
20
30.656600
11
42.345000
21
31.056600
0
LINE
8
Layer 1
10
42.345000
20
31.056600
11
42.360200
21
31.133100
0
LINE
8
Layer 1
10
42.360200
20
31.133100
11
42.403600
21
31.198000
0
LINE
8
Layer 1
10
42.403600
20
31.198000
11
42.468500
21
31.241400
0
LINE
8
Layer 1
10
42.468500
20
31.241400
11
42.545000
21
31.256600
0
LINE
8
Layer 1
10
42.545000
20
31.256600
11
43.095000
21
31.256600
0
LINE
8
Layer 1
10
43.095000
20
31.256600
11
43.171500
21
31.241400
0
LINE
8
Layer 1
10
43.171500
20
31.241400
11
43.236400
21
31.198000
0
LINE
8
Layer 1
10
43.236400
20
31.198000
11
43.279800
21
31.133100
0
LINE
8
Layer 1
10
43.279800
20
31.133100
11
43.295000
21
31.056600
0
LINE
8
Layer 1
10
43.295000
20
31.056600
11
43.295000
21
30.656600
0
LINE
8
Layer 1
10
43.295000
20
30.656600
11
43.279800
21
30.580100
0
LINE
8
Layer 1
10
43.279800
20
30.580100
11
43.236400
21
30.515200
0
LINE
8
Layer 1
10
43.236400
20
30.515200
11
43.171500
21
30.471800
0
LINE
8
Layer 1
10
43.171500
20
30.471800
11
43.095000
21
30.456600
0
LINE
8
Layer 1
10
43.095000
20
30.456600
11
42.545000
21
30.456600
0
LINE
8
Layer 1
10
42.545000
20
32.106600
11
42.468500
21
32.121800
0
LINE
8
Layer 1
10
42.468500
20
32.121800
11
42.403600
21
32.165200
0
LINE
8
Layer 1
10
42.403600
20
32.165200
11
42.360200
21
32.230100
0
LINE
8
Layer 1
10
42.360200
20
32.230100
11
42.345000
21
32.306600
0
LINE
8
Layer 1
10
42.345000
20
32.306600
11
42.345000
21
32.706600
0
LINE
8
Layer 1
10
42.345000
20
32.706600
11
42.360200
21
32.783100
0
LINE
8
Layer 1
10
42.360200
20
32.783100
11
42.403600
21
32.848000
0
LINE
8
Layer 1
10
42.403600
20
32.848000
11
42.468500
21
32.891400
0
LINE
8
Layer 1
10
42.468500
20
32.891400
11
42.545000
21
32.906600
0
LINE
8
Layer 1
10
42.545000
20
32.906600
11
43.095000
21
32.906600
0
LINE
8
Layer 1
10
43.095000
20
32.906600
11
43.171500
21
32.891400
0
LINE
8
Layer 1
10
43.171500
20
32.891400
11
43.236400
21
32.848000
0
LINE
8
Layer 1
10
43.236400
20
32.848000
11
43.279800
21
32.783100
0
LINE
8
Layer 1
10
43.279800
20
32.783100
11
43.295000
21
32.706600
0
LINE
8
Layer 1
10
43.295000
20
32.706600
11
43.295000
21
32.306600
0
LINE
8
Layer 1
10
43.295000
20
32.306600
11
43.279800
21
32.230100
0
LINE
8
Layer 1
10
43.279800
20
32.230100
11
43.236400
21
32.165200
0
LINE
8
Layer 1
10
43.236400
20
32.165200
11
43.171500
21
32.121800
0
LINE
8
Layer 1
10
43.171500
20
32.121800
11
43.095000
21
32.106600
0
LINE
8
Layer 1
10
43.095000
20
32.106600
11
42.545000
21
32.106600
0
LINE
8
Layer 1
10
26.200000
20
28.241600
11
24.850000
21
28.241600
0
LINE
8
Layer 1
10
24.850000
20
28.241600
11
24.850000
21
30.041600
0
LINE
8
Layer 1
10
24.850000
20
30.041600
11
26.200000
21
30.041600
0
LINE
8
Layer 1
10
26.200000
20
30.041600
11
26.200000
21
28.241600
0
LINE
8
Layer 1
10
30.350000
20
28.241600
11
29.000000
21
28.241600
0
LINE
8
Layer 1
10
29.000000
20
28.241600
11
29.000000
21
30.041600
0
LINE
8
Layer 1
10
29.000000
20
30.041600
11
30.350000
21
30.041600
0
LINE
8
Layer 1
10
30.350000
20
30.041600
11
30.350000
21
28.241600
0
LINE
8
Layer 1
10
21.275000
20
44.656600
11
21.290200
21
44.733100
0
LINE
8
Layer 1
10
21.290200
20
44.733100
11
21.333600
21
44.798000
0
LINE
8
Layer 1
10
21.333600
20
44.798000
11
21.398500
21
44.841400
0
LINE
8
Layer 1
10
21.398500
20
44.841400
11
21.475000
21
44.856600
0
LINE
8
Layer 1
10
21.475000
20
44.856600
11
21.875000
21
44.856600
0
LINE
8
Layer 1
10
21.875000
20
44.856600
11
21.951500
21
44.841400
0
LINE
8
Layer 1
10
21.951500
20
44.841400
11
22.016400
21
44.798000
0
LINE
8
Layer 1
10
22.016400
20
44.798000
11
22.059800
21
44.733100
0
LINE
8
Layer 1
10
22.059800
20
44.733100
11
22.075000
21
44.656600
0
LINE
8
Layer 1
10
22.075000
20
44.656600
11
22.075000
21
44.106600
0
LINE
8
Layer 1
10
22.075000
20
44.106600
11
22.059800
21
44.030100
0
LINE
8
Layer 1
10
22.059800
20
44.030100
11
22.016400
21
43.965200
0
LINE
8
Layer 1
10
22.016400
20
43.965200
11
21.951500
21
43.921800
0
LINE
8
Layer 1
10
21.951500
20
43.921800
11
21.875000
21
43.906600
0
LINE
8
Layer 1
10
21.875000
20
43.906600
11
21.475000
21
43.906600
0
LINE
8
Layer 1
10
21.475000
20
43.906600
11
21.398500
21
43.921800
0
LINE
8
Layer 1
10
21.398500
20
43.921800
11
21.333600
21
43.965200
0
LINE
8
Layer 1
10
21.333600
20
43.965200
11
21.290200
21
44.030100
0
LINE
8
Layer 1
10
21.290200
20
44.030100
11
21.275000
21
44.106600
0
LINE
8
Layer 1
10
21.275000
20
44.106600
11
21.275000
21
44.656600
0
LINE
8
Layer 1
10
22.925000
20
44.656600
11
22.940200
21
44.733100
0
LINE
8
Layer 1
10
22.940200
20
44.733100
11
22.983600
21
44.798000
0
LINE
8
Layer 1
10
22.983600
20
44.798000
11
23.048500
21
44.841400
0
LINE
8
Layer 1
10
23.048500
20
44.841400
11
23.125000
21
44.856600
0
LINE
8
Layer 1
10
23.125000
20
44.856600
11
23.525000
21
44.856600
0
LINE
8
Layer 1
10
23.525000
20
44.856600
11
23.601500
21
44.841400
0
LINE
8
Layer 1
10
23.601500
20
44.841400
11
23.666400
21
44.798000
0
LINE
8
Layer 1
10
23.666400
20
44.798000
11
23.709800
21
44.733100
0
LINE
8
Layer 1
10
23.709800
20
44.733100
11
23.725000
21
44.656600
0
LINE
8
Layer 1
10
23.725000
20
44.656600
11
23.725000
21
44.106600
0
LINE
8
Layer 1
10
23.725000
20
44.106600
11
23.709800
21
44.030100
0
LINE
8
Layer 1
10
23.709800
20
44.030100
11
23.666400
21
43.965200
0
LINE
8
Layer 1
10
23.666400
20
43.965200
11
23.601500
21
43.921800
0
LINE
8
Layer 1
10
23.601500
20
43.921800
11
23.525000
21
43.906600
0
LINE
8
Layer 1
10
23.525000
20
43.906600
11
23.125000
21
43.906600
0
LINE
8
Layer 1
10
23.125000
20
43.906600
11
23.048500
21
43.921800
0
LINE
8
Layer 1
10
23.048500
20
43.921800
11
22.983600
21
43.965200
0
LINE
8
Layer 1
10
22.983600
20
43.965200
11
22.940200
21
44.030100
0
LINE
8
Layer 1
10
22.940200
20
44.030100
11
22.925000
21
44.106600
0
LINE
8
Layer 1
10
22.925000
20
44.106600
11
22.925000
21
44.656600
0
LINE
8
Layer 1
10
54.295000
20
25.606600
11
54.310200
21
25.683100
0
LINE
8
Layer 1
10
54.310200
20
25.683100
11
54.353600
21
25.748000
0
LINE
8
Layer 1
10
54.353600
20
25.748000
11
54.418500
21
25.791400
0
LINE
8
Layer 1
10
54.418500
20
25.791400
11
54.495000
21
25.806600
0
LINE
8
Layer 1
10
54.495000
20
25.806600
11
54.895000
21
25.806600
0
LINE
8
Layer 1
10
54.895000
20
25.806600
11
54.971500
21
25.791400
0
LINE
8
Layer 1
10
54.971500
20
25.791400
11
55.036400
21
25.748000
0
LINE
8
Layer 1
10
55.036400
20
25.748000
11
55.079800
21
25.683100
0
LINE
8
Layer 1
10
55.079800
20
25.683100
11
55.095000
21
25.606600
0
LINE
8
Layer 1
10
55.095000
20
25.606600
11
55.095000
21
25.056600
0
LINE
8
Layer 1
10
55.095000
20
25.056600
11
55.079800
21
24.980100
0
LINE
8
Layer 1
10
55.079800
20
24.980100
11
55.036400
21
24.915200
0
LINE
8
Layer 1
10
55.036400
20
24.915200
11
54.971500
21
24.871800
0
LINE
8
Layer 1
10
54.971500
20
24.871800
11
54.895000
21
24.856600
0
LINE
8
Layer 1
10
54.895000
20
24.856600
11
54.495000
21
24.856600
0
LINE
8
Layer 1
10
54.495000
20
24.856600
11
54.418500
21
24.871800
0
LINE
8
Layer 1
10
54.418500
20
24.871800
11
54.353600
21
24.915200
0
LINE
8
Layer 1
10
54.353600
20
24.915200
11
54.310200
21
24.980100
0
LINE
8
Layer 1
10
54.310200
20
24.980100
11
54.295000
21
25.056600
0
LINE
8
Layer 1
10
54.295000
20
25.056600
11
54.295000
21
25.606600
0
LINE
8
Layer 1
10
55.945000
20
25.606600
11
55.960200
21
25.683100
0
LINE
8
Layer 1
10
55.960200
20
25.683100
11
56.003600
21
25.748000
0
LINE
8
Layer 1
10
56.003600
20
25.748000
11
56.068500
21
25.791400
0
LINE
8
Layer 1
10
56.068500
20
25.791400
11
56.145000
21
25.806600
0
LINE
8
Layer 1
10
56.145000
20
25.806600
11
56.545000
21
25.806600
0
LINE
8
Layer 1
10
56.545000
20
25.806600
11
56.621500
21
25.791400
0
LINE
8
Layer 1
10
56.621500
20
25.791400
11
56.686400
21
25.748000
0
LINE
8
Layer 1
10
56.686400
20
25.748000
11
56.729800
21
25.683100
0
LINE
8
Layer 1
10
56.729800
20
25.683100
11
56.745000
21
25.606600
0
LINE
8
Layer 1
10
56.745000
20
25.606600
11
56.745000
21
25.056600
0
LINE
8
Layer 1
10
56.745000
20
25.056600
11
56.729800
21
24.980100
0
LINE
8
Layer 1
10
56.729800
20
24.980100
11
56.686400
21
24.915200
0
LINE
8
Layer 1
10
56.686400
20
24.915200
11
56.621500
21
24.871800
0
LINE
8
Layer 1
10
56.621500
20
24.871800
11
56.545000
21
24.856600
0
LINE
8
Layer 1
10
56.545000
20
24.856600
11
56.145000
21
24.856600
0
LINE
8
Layer 1
10
56.145000
20
24.856600
11
56.068500
21
24.871800
0
LINE
8
Layer 1
10
56.068500
20
24.871800
11
56.003600
21
24.915200
0
LINE
8
Layer 1
10
56.003600
20
24.915200
11
55.960200
21
24.980100
0
LINE
8
Layer 1
10
55.960200
20
24.980100
11
55.945000
21
25.056600
0
LINE
8
Layer 1
10
55.945000
20
25.056600
11
55.945000
21
25.606600
0
LINE
8
Layer 1
10
29.268600
20
19.097000
11
29.268600
21
19.655800
0
LINE
8
Layer 1
10
29.268600
20
19.655800
11
30.589400
21
19.655800
0
LINE
8
Layer 1
10
30.589400
20
19.655800
11
30.589400
21
19.097000
0
LINE
8
Layer 1
10
30.589400
20
19.097000
11
29.268600
21
19.097000
0
LINE
8
Layer 1
10
29.268600
20
17.217400
11
29.268600
21
17.776200
0
LINE
8
Layer 1
10
29.268600
20
17.776200
11
30.589400
21
17.776200
0
LINE
8
Layer 1
10
30.589400
20
17.776200
11
30.589400
21
17.217400
0
LINE
8
Layer 1
10
30.589400
20
17.217400
11
29.268600
21
17.217400
0
LINE
8
Layer 1
10
31.300600
20
18.157200
11
31.300600
21
18.716000
0
LINE
8
Layer 1
10
31.300600
20
18.716000
11
32.621400
21
18.716000
0
LINE
8
Layer 1
10
32.621400
20
18.716000
11
32.621400
21
18.157200
0
LINE
8
Layer 1
10
32.621400
20
18.157200
11
31.300600
21
18.157200
0
LINE
8
Layer 1
10
61.380000
20
35.241600
11
61.362900
21
35.155500
0
LINE
8
Layer 1
10
61.362900
20
35.155500
11
61.314100
21
35.082500
0
LINE
8
Layer 1
10
61.314100
20
35.082500
11
61.241100
21
35.033700
0
LINE
8
Layer 1
10
61.241100
20
35.033700
11
61.155000
21
35.016600
0
LINE
8
Layer 1
10
61.155000
20
35.016600
11
60.705000
21
35.016600
0
LINE
8
Layer 1
10
60.705000
20
35.016600
11
60.618900
21
35.033700
0
LINE
8
Layer 1
10
60.618900
20
35.033700
11
60.545900
21
35.082500
0
LINE
8
Layer 1
10
60.545900
20
35.082500
11
60.497100
21
35.155500
0
LINE
8
Layer 1
10
60.497100
20
35.155500
11
60.480000
21
35.241600
0
LINE
8
Layer 1
10
60.480000
20
35.241600
11
60.480000
21
35.741600
0
LINE
8
Layer 1
10
60.480000
20
35.741600
11
60.497100
21
35.827700
0
LINE
8
Layer 1
10
60.497100
20
35.827700
11
60.545900
21
35.900700
0
LINE
8
Layer 1
10
60.545900
20
35.900700
11
60.618900
21
35.949500
0
LINE
8
Layer 1
10
60.618900
20
35.949500
11
60.705000
21
35.966600
0
LINE
8
Layer 1
10
60.705000
20
35.966600
11
61.155000
21
35.966600
0
LINE
8
Layer 1
10
61.155000
20
35.966600
11
61.241100
21
35.949500
0
LINE
8
Layer 1
10
61.241100
20
35.949500
11
61.314100
21
35.900700
0
LINE
8
Layer 1
10
61.314100
20
35.900700
11
61.362900
21
35.827700
0
LINE
8
Layer 1
10
61.362900
20
35.827700
11
61.380000
21
35.741600
0
LINE
8
Layer 1
10
61.380000
20
35.741600
11
61.380000
21
35.241600
0
LINE
8
Layer 1
10
59.830000
20
35.241600
11
59.812900
21
35.155500
0
LINE
8
Layer 1
10
59.812900
20
35.155500
11
59.764100
21
35.082500
0
LINE
8
Layer 1
10
59.764100
20
35.082500
11
59.691100
21
35.033700
0
LINE
8
Layer 1
10
59.691100
20
35.033700
11
59.605000
21
35.016600
0
LINE
8
Layer 1
10
59.605000
20
35.016600
11
59.155000
21
35.016600
0
LINE
8
Layer 1
10
59.155000
20
35.016600
11
59.068900
21
35.033700
0
LINE
8
Layer 1
10
59.068900
20
35.033700
11
58.995900
21
35.082500
0
LINE
8
Layer 1
10
58.995900
20
35.082500
11
58.947100
21
35.155500
0
LINE
8
Layer 1
10
58.947100
20
35.155500
11
58.930000
21
35.241600
0
LINE
8
Layer 1
10
58.930000
20
35.241600
11
58.930000
21
35.741600
0
LINE
8
Layer 1
10
58.930000
20
35.741600
11
58.947100
21
35.827700
0
LINE
8
Layer 1
10
58.947100
20
35.827700
11
58.995900
21
35.900700
0
LINE
8
Layer 1
10
58.995900
20
35.900700
11
59.068900
21
35.949500
0
LINE
8
Layer 1
10
59.068900
20
35.949500
11
59.155000
21
35.966600
0
LINE
8
Layer 1
10
59.155000
20
35.966600
11
59.605000
21
35.966600
0
LINE
8
Layer 1
10
59.605000
20
35.966600
11
59.691100
21
35.949500
0
LINE
8
Layer 1
10
59.691100
20
35.949500
11
59.764100
21
35.900700
0
LINE
8
Layer 1
10
59.764100
20
35.900700
11
59.812900
21
35.827700
0
LINE
8
Layer 1
10
59.812900
20
35.827700
11
59.830000
21
35.741600
0
LINE
8
Layer 1
10
59.830000
20
35.741600
11
59.830000
21
35.241600
0
LINE
8
Layer 1
10
38.285000
20
48.731600
11
38.285000
21
47.381600
0
LINE
8
Layer 1
10
38.285000
20
47.381600
11
37.885000
21
47.381600
0
LINE
8
Layer 1
10
37.885000
20
47.381600
11
37.885000
21
48.731600
0
LINE
8
Layer 1
10
37.885000
20
48.731600
11
38.285000
21
48.731600
0
LINE
8
Layer 1
10
37.635000
20
48.731600
11
37.635000
21
47.381600
0
LINE
8
Layer 1
10
37.635000
20
47.381600
11
37.235000
21
47.381600
0
LINE
8
Layer 1
10
37.235000
20
47.381600
11
37.235000
21
48.731600
0
LINE
8
Layer 1
10
37.235000
20
48.731600
11
37.635000
21
48.731600
0
LINE
8
Layer 1
10
36.985000
20
48.731600
11
36.985000
21
47.381600
0
LINE
8
Layer 1
10
36.985000
20
47.381600
11
36.585000
21
47.381600
0
LINE
8
Layer 1
10
36.585000
20
47.381600
11
36.585000
21
48.731600
0
LINE
8
Layer 1
10
36.585000
20
48.731600
11
36.985000
21
48.731600
0
LINE
8
Layer 1
10
36.335000
20
48.731600
11
36.335000
21
47.381600
0
LINE
8
Layer 1
10
36.335000
20
47.381600
11
35.935000
21
47.381600
0
LINE
8
Layer 1
10
35.935000
20
47.381600
11
35.935000
21
48.731600
0
LINE
8
Layer 1
10
35.935000
20
48.731600
11
36.335000
21
48.731600
0
LINE
8
Layer 1
10
35.685000
20
48.731600
11
35.685000
21
47.381600
0
LINE
8
Layer 1
10
35.685000
20
47.381600
11
35.285000
21
47.381600
0
LINE
8
Layer 1
10
35.285000
20
47.381600
11
35.285000
21
48.731600
0
LINE
8
Layer 1
10
35.285000
20
48.731600
11
35.685000
21
48.731600
0
LINE
8
Layer 1
10
40.785000
20
48.981600
11
40.785000
21
47.581600
0
LINE
8
Layer 1
10
40.785000
20
47.581600
11
39.185000
21
47.581600
0
LINE
8
Layer 1
10
39.185000
20
47.581600
11
39.185000
21
48.981600
0
LINE
8
Layer 1
10
39.185000
20
48.981600
11
40.785000
21
48.981600
0
LINE
8
Layer 1
10
34.385000
20
48.981600
11
34.385000
21
47.581600
0
LINE
8
Layer 1
10
34.385000
20
47.581600
11
32.785000
21
47.581600
0
LINE
8
Layer 1
10
32.785000
20
47.581600
11
32.785000
21
48.981600
0
LINE
8
Layer 1
10
32.785000
20
48.981600
11
34.385000
21
48.981600
0
LINE
8
Layer 1
10
36.535000
20
51.681600
11
36.535000
21
49.781600
0
LINE
8
Layer 1
10
36.535000
20
49.781600
11
34.635000
21
49.781600
0
LINE
8
Layer 1
10
34.635000
20
49.781600
11
34.635000
21
51.681600
0
LINE
8
Layer 1
10
34.635000
20
51.681600
11
36.535000
21
51.681600
0
LINE
8
Layer 1
10
38.935000
20
51.681600
11
38.935000
21
49.781600
0
LINE
8
Layer 1
10
38.935000
20
49.781600
11
37.035000
21
49.781600
0
LINE
8
Layer 1
10
37.035000
20
49.781600
11
37.035000
21
51.681600
0
LINE
8
Layer 1
10
37.035000
20
51.681600
11
38.935000
21
51.681600
0
LINE
8
Layer 1
10
39.310000
20
21.476600
11
39.396100
21
21.459500
0
LINE
8
Layer 1
10
39.396100
20
21.459500
11
39.469100
21
21.410700
0
LINE
8
Layer 1
10
39.469100
20
21.410700
11
39.517900
21
21.337700
0
LINE
8
Layer 1
10
39.517900
20
21.337700
11
39.535000
21
21.251600
0
LINE
8
Layer 1
10
39.535000
20
21.251600
11
39.535000
21
20.801600
0
LINE
8
Layer 1
10
39.535000
20
20.801600
11
39.517900
21
20.715500
0
LINE
8
Layer 1
10
39.517900
20
20.715500
11
39.469100
21
20.642500
0
LINE
8
Layer 1
10
39.469100
20
20.642500
11
39.396100
21
20.593700
0
LINE
8
Layer 1
10
39.396100
20
20.593700
11
39.310000
21
20.576600
0
LINE
8
Layer 1
10
39.310000
20
20.576600
11
38.810000
21
20.576600
0
LINE
8
Layer 1
10
38.810000
20
20.576600
11
38.723900
21
20.593700
0
LINE
8
Layer 1
10
38.723900
20
20.593700
11
38.650900
21
20.642500
0
LINE
8
Layer 1
10
38.650900
20
20.642500
11
38.602100
21
20.715500
0
LINE
8
Layer 1
10
38.602100
20
20.715500
11
38.585000
21
20.801600
0
LINE
8
Layer 1
10
38.585000
20
20.801600
11
38.585000
21
21.251600
0
LINE
8
Layer 1
10
38.585000
20
21.251600
11
38.602100
21
21.337700
0
LINE
8
Layer 1
10
38.602100
20
21.337700
11
38.650900
21
21.410700
0
LINE
8
Layer 1
10
38.650900
20
21.410700
11
38.723900
21
21.459500
0
LINE
8
Layer 1
10
38.723900
20
21.459500
11
38.810000
21
21.476600
0
LINE
8
Layer 1
10
38.810000
20
21.476600
11
39.310000
21
21.476600
0
LINE
8
Layer 1
10
39.310000
20
19.926600
11
39.396100
21
19.909500
0
LINE
8
Layer 1
10
39.396100
20
19.909500
11
39.469100
21
19.860700
0
LINE
8
Layer 1
10
39.469100
20
19.860700
11
39.517900
21
19.787700
0
LINE
8
Layer 1
10
39.517900
20
19.787700
11
39.535000
21
19.701600
0
LINE
8
Layer 1
10
39.535000
20
19.701600
11
39.535000
21
19.251600
0
LINE
8
Layer 1
10
39.535000
20
19.251600
11
39.517900
21
19.165500
0
LINE
8
Layer 1
10
39.517900
20
19.165500
11
39.469100
21
19.092500
0
LINE
8
Layer 1
10
39.469100
20
19.092500
11
39.396100
21
19.043700
0
LINE
8
Layer 1
10
39.396100
20
19.043700
11
39.310000
21
19.026600
0
LINE
8
Layer 1
10
39.310000
20
19.026600
11
38.810000
21
19.026600
0
LINE
8
Layer 1
10
38.810000
20
19.026600
11
38.723900
21
19.043700
0
LINE
8
Layer 1
10
38.723900
20
19.043700
11
38.650900
21
19.092500
0
LINE
8
Layer 1
10
38.650900
20
19.092500
11
38.602100
21
19.165500
0
LINE
8
Layer 1
10
38.602100
20
19.165500
11
38.585000
21
19.251600
0
LINE
8
Layer 1
10
38.585000
20
19.251600
11
38.585000
21
19.701600
0
LINE
8
Layer 1
10
38.585000
20
19.701600
11
38.602100
21
19.787700
0
LINE
8
Layer 1
10
38.602100
20
19.787700
11
38.650900
21
19.860700
0
LINE
8
Layer 1
10
38.650900
20
19.860700
11
38.723900
21
19.909500
0
LINE
8
Layer 1
10
38.723900
20
19.909500
11
38.810000
21
19.926600
0
LINE
8
Layer 1
10
38.810000
20
19.926600
11
39.310000
21
19.926600
0
LINE
8
Layer 1
10
41.725000
20
22.215900
11
41.725000
21
20.827400
0
LINE
8
Layer 1
10
42.375000
20
22.215900
11
42.375000
21
20.827400
0
LINE
8
Layer 1
10
43.025000
20
22.215900
11
43.025000
21
20.827400
0
LINE
8
Layer 1
10
43.675000
20
22.215900
11
43.675000
21
20.827400
0
LINE
8
Layer 1
10
44.325000
20
22.215900
11
44.325000
21
20.827400
0
LINE
8
Layer 1
10
44.975000
20
22.215900
11
44.975000
21
20.827400
0
LINE
8
Layer 1
10
45.625000
20
22.215900
11
45.625000
21
20.827400
0
LINE
8
Layer 1
10
46.275000
20
22.215900
11
46.275000
21
20.827400
0
LINE
8
Layer 1
10
46.925000
20
22.215900
11
46.925000
21
20.827400
0
LINE
8
Layer 1
10
47.575000
20
22.215900
11
47.575000
21
20.827400
0
LINE
8
Layer 1
10
48.225000
20
22.215900
11
48.225000
21
20.827400
0
LINE
8
Layer 1
10
48.875000
20
22.215900
11
48.875000
21
20.827400
0
LINE
8
Layer 1
10
49.525000
20
22.215900
11
49.525000
21
20.827400
0
LINE
8
Layer 1
10
50.175000
20
22.215900
11
50.175000
21
20.827400
0
LINE
8
Layer 1
10
50.175000
20
27.947900
11
50.175000
21
26.559400
0
LINE
8
Layer 1
10
49.525000
20
27.947900
11
49.525000
21
26.559400
0
LINE
8
Layer 1
10
48.875000
20
27.947900
11
48.875000
21
26.559400
0
LINE
8
Layer 1
10
48.225000
20
27.947900
11
48.225000
21
26.559400
0
LINE
8
Layer 1
10
47.575000
20
27.947900
11
47.575000
21
26.559400
0
LINE
8
Layer 1
10
46.925000
20
27.947900
11
46.925000
21
26.559400
0
LINE
8
Layer 1
10
46.275000
20
27.947900
11
46.275000
21
26.559400
0
LINE
8
Layer 1
10
45.625000
20
27.947900
11
45.625000
21
26.559400
0
LINE
8
Layer 1
10
44.975000
20
27.947900
11
44.975000
21
26.559400
0
LINE
8
Layer 1
10
44.325000
20
27.947900
11
44.325000
21
26.559400
0
LINE
8
Layer 1
10
43.675000
20
27.947900
11
43.675000
21
26.559400
0
LINE
8
Layer 1
10
43.025000
20
27.947900
11
43.025000
21
26.559400
0
LINE
8
Layer 1
10
42.375000
20
27.947900
11
42.375000
21
26.559400
0
LINE
8
Layer 1
10
41.725000
20
27.947900
11
41.725000
21
26.559400
0
LINE
8
Layer 1
10
42.850000
20
23.012600
11
42.850000
21
25.762600
0
LINE
8
Layer 1
10
42.850000
20
25.762600
11
49.050000
21
25.762600
0
LINE
8
Layer 1
10
49.050000
20
25.762600
11
49.050000
21
23.012600
0
LINE
8
Layer 1
10
49.050000
20
23.012600
11
42.850000
21
23.012600
0
LINE
8
Layer 1
10
24.320000
20
12.956600
11
24.243500
21
12.971800
0
LINE
8
Layer 1
10
24.243500
20
12.971800
11
24.178600
21
13.015200
0
LINE
8
Layer 1
10
24.178600
20
13.015200
11
24.135200
21
13.080100
0
LINE
8
Layer 1
10
24.135200
20
13.080100
11
24.120000
21
13.156600
0
LINE
8
Layer 1
10
24.120000
20
13.156600
11
24.120000
21
13.556600
0
LINE
8
Layer 1
10
24.120000
20
13.556600
11
24.135200
21
13.633100
0
LINE
8
Layer 1
10
24.135200
20
13.633100
11
24.178600
21
13.698000
0
LINE
8
Layer 1
10
24.178600
20
13.698000
11
24.243500
21
13.741400
0
LINE
8
Layer 1
10
24.243500
20
13.741400
11
24.320000
21
13.756600
0
LINE
8
Layer 1
10
24.320000
20
13.756600
11
24.870000
21
13.756600
0
LINE
8
Layer 1
10
24.870000
20
13.756600
11
24.946500
21
13.741400
0
LINE
8
Layer 1
10
24.946500
20
13.741400
11
25.011400
21
13.698000
0
LINE
8
Layer 1
10
25.011400
20
13.698000
11
25.054800
21
13.633100
0
LINE
8
Layer 1
10
25.054800
20
13.633100
11
25.070000
21
13.556600
0
LINE
8
Layer 1
10
25.070000
20
13.556600
11
25.070000
21
13.156600
0
LINE
8
Layer 1
10
25.070000
20
13.156600
11
25.054800
21
13.080100
0
LINE
8
Layer 1
10
25.054800
20
13.080100
11
25.011400
21
13.015200
0
LINE
8
Layer 1
10
25.011400
20
13.015200
11
24.946500
21
12.971800
0
LINE
8
Layer 1
10
24.946500
20
12.971800
11
24.870000
21
12.956600
0
LINE
8
Layer 1
10
24.870000
20
12.956600
11
24.320000
21
12.956600
0
LINE
8
Layer 1
10
24.320000
20
14.606600
11
24.243500
21
14.621800
0
LINE
8
Layer 1
10
24.243500
20
14.621800
11
24.178600
21
14.665200
0
LINE
8
Layer 1
10
24.178600
20
14.665200
11
24.135200
21
14.730100
0
LINE
8
Layer 1
10
24.135200
20
14.730100
11
24.120000
21
14.806600
0
LINE
8
Layer 1
10
24.120000
20
14.806600
11
24.120000
21
15.206600
0
LINE
8
Layer 1
10
24.120000
20
15.206600
11
24.135200
21
15.283100
0
LINE
8
Layer 1
10
24.135200
20
15.283100
11
24.178600
21
15.348000
0
LINE
8
Layer 1
10
24.178600
20
15.348000
11
24.243500
21
15.391400
0
LINE
8
Layer 1
10
24.243500
20
15.391400
11
24.320000
21
15.406600
0
LINE
8
Layer 1
10
24.320000
20
15.406600
11
24.870000
21
15.406600
0
LINE
8
Layer 1
10
24.870000
20
15.406600
11
24.946500
21
15.391400
0
LINE
8
Layer 1
10
24.946500
20
15.391400
11
25.011400
21
15.348000
0
LINE
8
Layer 1
10
25.011400
20
15.348000
11
25.054800
21
15.283100
0
LINE
8
Layer 1
10
25.054800
20
15.283100
11
25.070000
21
15.206600
0
LINE
8
Layer 1
10
25.070000
20
15.206600
11
25.070000
21
14.806600
0
LINE
8
Layer 1
10
25.070000
20
14.806600
11
25.054800
21
14.730100
0
LINE
8
Layer 1
10
25.054800
20
14.730100
11
25.011400
21
14.665200
0
LINE
8
Layer 1
10
25.011400
20
14.665200
11
24.946500
21
14.621800
0
LINE
8
Layer 1
10
24.946500
20
14.621800
11
24.870000
21
14.606600
0
LINE
8
Layer 1
10
24.870000
20
14.606600
11
24.320000
21
14.606600
0
LINE
8
Layer 1
10
58.155000
20
38.281600
11
58.172100
21
38.367700
0
LINE
8
Layer 1
10
58.172100
20
38.367700
11
58.220900
21
38.440700
0
LINE
8
Layer 1
10
58.220900
20
38.440700
11
58.293900
21
38.489500
0
LINE
8
Layer 1
10
58.293900
20
38.489500
11
58.380000
21
38.506600
0
LINE
8
Layer 1
10
58.380000
20
38.506600
11
58.830000
21
38.506600
0
LINE
8
Layer 1
10
58.830000
20
38.506600
11
58.916100
21
38.489500
0
LINE
8
Layer 1
10
58.916100
20
38.489500
11
58.989100
21
38.440700
0
LINE
8
Layer 1
10
58.989100
20
38.440700
11
59.037900
21
38.367700
0
LINE
8
Layer 1
10
59.037900
20
38.367700
11
59.055000
21
38.281600
0
LINE
8
Layer 1
10
59.055000
20
38.281600
11
59.055000
21
37.781600
0
LINE
8
Layer 1
10
59.055000
20
37.781600
11
59.037900
21
37.695500
0
LINE
8
Layer 1
10
59.037900
20
37.695500
11
58.989100
21
37.622500
0
LINE
8
Layer 1
10
58.989100
20
37.622500
11
58.916100
21
37.573700
0
LINE
8
Layer 1
10
58.916100
20
37.573700
11
58.830000
21
37.556600
0
LINE
8
Layer 1
10
58.830000
20
37.556600
11
58.380000
21
37.556600
0
LINE
8
Layer 1
10
58.380000
20
37.556600
11
58.293900
21
37.573700
0
LINE
8
Layer 1
10
58.293900
20
37.573700
11
58.220900
21
37.622500
0
LINE
8
Layer 1
10
58.220900
20
37.622500
11
58.172100
21
37.695500
0
LINE
8
Layer 1
10
58.172100
20
37.695500
11
58.155000
21
37.781600
0
LINE
8
Layer 1
10
58.155000
20
37.781600
11
58.155000
21
38.281600
0
LINE
8
Layer 1
10
59.705000
20
38.281600
11
59.722100
21
38.367700
0
LINE
8
Layer 1
10
59.722100
20
38.367700
11
59.770900
21
38.440700
0
LINE
8
Layer 1
10
59.770900
20
38.440700
11
59.843900
21
38.489500
0
LINE
8
Layer 1
10
59.843900
20
38.489500
11
59.930000
21
38.506600
0
LINE
8
Layer 1
10
59.930000
20
38.506600
11
60.380000
21
38.506600
0
LINE
8
Layer 1
10
60.380000
20
38.506600
11
60.466100
21
38.489500
0
LINE
8
Layer 1
10
60.466100
20
38.489500
11
60.539100
21
38.440700
0
LINE
8
Layer 1
10
60.539100
20
38.440700
11
60.587900
21
38.367700
0
LINE
8
Layer 1
10
60.587900
20
38.367700
11
60.605000
21
38.281600
0
LINE
8
Layer 1
10
60.605000
20
38.281600
11
60.605000
21
37.781600
0
LINE
8
Layer 1
10
60.605000
20
37.781600
11
60.587900
21
37.695500
0
LINE
8
Layer 1
10
60.587900
20
37.695500
11
60.539100
21
37.622500
0
LINE
8
Layer 1
10
60.539100
20
37.622500
11
60.466100
21
37.573700
0
LINE
8
Layer 1
10
60.466100
20
37.573700
11
60.380000
21
37.556600
0
LINE
8
Layer 1
10
60.380000
20
37.556600
11
59.930000
21
37.556600
0
LINE
8
Layer 1
10
59.930000
20
37.556600
11
59.843900
21
37.573700
0
LINE
8
Layer 1
10
59.843900
20
37.573700
11
59.770900
21
37.622500
0
LINE
8
Layer 1
10
59.770900
20
37.622500
11
59.722100
21
37.695500
0
LINE
8
Layer 1
10
59.722100
20
37.695500
11
59.705000
21
37.781600
0
LINE
8
Layer 1
10
59.705000
20
37.781600
11
59.705000
21
38.281600
0
LINE
8
Layer 1
10
47.730000
20
31.636600
11
47.806500
21
31.621400
0
LINE
8
Layer 1
10
47.806500
20
31.621400
11
47.871400
21
31.578000
0
LINE
8
Layer 1
10
47.871400
20
31.578000
11
47.914800
21
31.513100
0
LINE
8
Layer 1
10
47.914800
20
31.513100
11
47.930000
21
31.436600
0
LINE
8
Layer 1
10
47.930000
20
31.436600
11
47.930000
21
31.036600
0
LINE
8
Layer 1
10
47.930000
20
31.036600
11
47.914800
21
30.960100
0
LINE
8
Layer 1
10
47.914800
20
30.960100
11
47.871400
21
30.895200
0
LINE
8
Layer 1
10
47.871400
20
30.895200
11
47.806500
21
30.851800
0
LINE
8
Layer 1
10
47.806500
20
30.851800
11
47.730000
21
30.836600
0
LINE
8
Layer 1
10
47.730000
20
30.836600
11
47.180000
21
30.836600
0
LINE
8
Layer 1
10
47.180000
20
30.836600
11
47.103500
21
30.851800
0
LINE
8
Layer 1
10
47.103500
20
30.851800
11
47.038600
21
30.895200
0
LINE
8
Layer 1
10
47.038600
20
30.895200
11
46.995200
21
30.960100
0
LINE
8
Layer 1
10
46.995200
20
30.960100
11
46.980000
21
31.036600
0
LINE
8
Layer 1
10
46.980000
20
31.036600
11
46.980000
21
31.436600
0
LINE
8
Layer 1
10
46.980000
20
31.436600
11
46.995200
21
31.513100
0
LINE
8
Layer 1
10
46.995200
20
31.513100
11
47.038600
21
31.578000
0
LINE
8
Layer 1
10
47.038600
20
31.578000
11
47.103500
21
31.621400
0
LINE
8
Layer 1
10
47.103500
20
31.621400
11
47.180000
21
31.636600
0
LINE
8
Layer 1
10
47.180000
20
31.636600
11
47.730000
21
31.636600
0
LINE
8
Layer 1
10
47.730000
20
29.986600
11
47.806500
21
29.971400
0
LINE
8
Layer 1
10
47.806500
20
29.971400
11
47.871400
21
29.928000
0
LINE
8
Layer 1
10
47.871400
20
29.928000
11
47.914800
21
29.863100
0
LINE
8
Layer 1
10
47.914800
20
29.863100
11
47.930000
21
29.786600
0
LINE
8
Layer 1
10
47.930000
20
29.786600
11
47.930000
21
29.386600
0
LINE
8
Layer 1
10
47.930000
20
29.386600
11
47.914800
21
29.310100
0
LINE
8
Layer 1
10
47.914800
20
29.310100
11
47.871400
21
29.245200
0
LINE
8
Layer 1
10
47.871400
20
29.245200
11
47.806500
21
29.201800
0
LINE
8
Layer 1
10
47.806500
20
29.201800
11
47.730000
21
29.186600
0
LINE
8
Layer 1
10
47.730000
20
29.186600
11
47.180000
21
29.186600
0
LINE
8
Layer 1
10
47.180000
20
29.186600
11
47.103500
21
29.201800
0
LINE
8
Layer 1
10
47.103500
20
29.201800
11
47.038600
21
29.245200
0
LINE
8
Layer 1
10
47.038600
20
29.245200
11
46.995200
21
29.310100
0
LINE
8
Layer 1
10
46.995200
20
29.310100
11
46.980000
21
29.386600
0
LINE
8
Layer 1
10
46.980000
20
29.386600
11
46.980000
21
29.786600
0
LINE
8
Layer 1
10
46.980000
20
29.786600
11
46.995200
21
29.863100
0
LINE
8
Layer 1
10
46.995200
20
29.863100
11
47.038600
21
29.928000
0
LINE
8
Layer 1
10
47.038600
20
29.928000
11
47.103500
21
29.971400
0
LINE
8
Layer 1
10
47.103500
20
29.971400
11
47.180000
21
29.986600
0
LINE
8
Layer 1
10
47.180000
20
29.986600
11
47.730000
21
29.986600
0
LINE
8
Layer 1
10
37.785000
20
31.956600
11
37.800200
21
32.033100
0
LINE
8
Layer 1
10
37.800200
20
32.033100
11
37.843600
21
32.098000
0
LINE
8
Layer 1
10
37.843600
20
32.098000
11
37.908500
21
32.141400
0
LINE
8
Layer 1
10
37.908500
20
32.141400
11
37.985000
21
32.156600
0
LINE
8
Layer 1
10
37.985000
20
32.156600
11
38.385000
21
32.156600
0
LINE
8
Layer 1
10
38.385000
20
32.156600
11
38.461500
21
32.141400
0
LINE
8
Layer 1
10
38.461500
20
32.141400
11
38.526400
21
32.098000
0
LINE
8
Layer 1
10
38.526400
20
32.098000
11
38.569800
21
32.033100
0
LINE
8
Layer 1
10
38.569800
20
32.033100
11
38.585000
21
31.956600
0
LINE
8
Layer 1
10
38.585000
20
31.956600
11
38.585000
21
31.406600
0
LINE
8
Layer 1
10
38.585000
20
31.406600
11
38.569800
21
31.330100
0
LINE
8
Layer 1
10
38.569800
20
31.330100
11
38.526400
21
31.265200
0
LINE
8
Layer 1
10
38.526400
20
31.265200
11
38.461500
21
31.221800
0
LINE
8
Layer 1
10
38.461500
20
31.221800
11
38.385000
21
31.206600
0
LINE
8
Layer 1
10
38.385000
20
31.206600
11
37.985000
21
31.206600
0
LINE
8
Layer 1
10
37.985000
20
31.206600
11
37.908500
21
31.221800
0
LINE
8
Layer 1
10
37.908500
20
31.221800
11
37.843600
21
31.265200
0
LINE
8
Layer 1
10
37.843600
20
31.265200
11
37.800200
21
31.330100
0
LINE
8
Layer 1
10
37.800200
20
31.330100
11
37.785000
21
31.406600
0
LINE
8
Layer 1
10
37.785000
20
31.406600
11
37.785000
21
31.956600
0
LINE
8
Layer 1
10
39.435000
20
31.956600
11
39.450200
21
32.033100
0
LINE
8
Layer 1
10
39.450200
20
32.033100
11
39.493600
21
32.098000
0
LINE
8
Layer 1
10
39.493600
20
32.098000
11
39.558500
21
32.141400
0
LINE
8
Layer 1
10
39.558500
20
32.141400
11
39.635000
21
32.156600
0
LINE
8
Layer 1
10
39.635000
20
32.156600
11
40.035000
21
32.156600
0
LINE
8
Layer 1
10
40.035000
20
32.156600
11
40.111500
21
32.141400
0
LINE
8
Layer 1
10
40.111500
20
32.141400
11
40.176400
21
32.098000
0
LINE
8
Layer 1
10
40.176400
20
32.098000
11
40.219800
21
32.033100
0
LINE
8
Layer 1
10
40.219800
20
32.033100
11
40.235000
21
31.956600
0
LINE
8
Layer 1
10
40.235000
20
31.956600
11
40.235000
21
31.406600
0
LINE
8
Layer 1
10
40.235000
20
31.406600
11
40.219800
21
31.330100
0
LINE
8
Layer 1
10
40.219800
20
31.330100
11
40.176400
21
31.265200
0
LINE
8
Layer 1
10
40.176400
20
31.265200
11
40.111500
21
31.221800
0
LINE
8
Layer 1
10
40.111500
20
31.221800
11
40.035000
21
31.206600
0
LINE
8
Layer 1
10
40.035000
20
31.206600
11
39.635000
21
31.206600
0
LINE
8
Layer 1
10
39.635000
20
31.206600
11
39.558500
21
31.221800
0
LINE
8
Layer 1
10
39.558500
20
31.221800
11
39.493600
21
31.265200
0
LINE
8
Layer 1
10
39.493600
20
31.265200
11
39.450200
21
31.330100
0
LINE
8
Layer 1
10
39.450200
20
31.330100
11
39.435000
21
31.406600
0
LINE
8
Layer 1
10
39.435000
20
31.406600
11
39.435000
21
31.956600
0
LINE
8
Layer 1
10
12.422500
20
6.537900
11
12.439200
21
6.621600
0
LINE
8
Layer 1
10
12.439200
20
6.621600
11
12.486600
21
6.692500
0
LINE
8
Layer 1
10
12.486600
20
6.692500
11
12.557500
21
6.739900
0
LINE
8
Layer 1
10
12.557500
20
6.739900
11
12.641200
21
6.756600
0
LINE
8
Layer 1
10
12.641200
20
6.756600
11
13.078700
21
6.756600
0
LINE
8
Layer 1
10
13.078700
20
6.756600
11
13.162500
21
6.739900
0
LINE
8
Layer 1
10
13.162500
20
6.739900
11
13.233400
21
6.692500
0
LINE
8
Layer 1
10
13.233400
20
6.692500
11
13.280800
21
6.621600
0
LINE
8
Layer 1
10
13.280800
20
6.621600
11
13.297500
21
6.537900
0
LINE
8
Layer 1
10
13.297500
20
6.537900
11
13.297500
21
6.025400
0
LINE
8
Layer 1
10
13.297500
20
6.025400
11
13.280800
21
5.941600
0
LINE
8
Layer 1
10
13.280800
20
5.941600
11
13.233400
21
5.870700
0
LINE
8
Layer 1
10
13.233400
20
5.870700
11
13.162500
21
5.823300
0
LINE
8
Layer 1
10
13.162500
20
5.823300
11
13.078700
21
5.806600
0
LINE
8
Layer 1
10
13.078700
20
5.806600
11
12.641200
21
5.806600
0
LINE
8
Layer 1
10
12.641200
20
5.806600
11
12.557500
21
5.823300
0
LINE
8
Layer 1
10
12.557500
20
5.823300
11
12.486600
21
5.870700
0
LINE
8
Layer 1
10
12.486600
20
5.870700
11
12.439200
21
5.941600
0
LINE
8
Layer 1
10
12.439200
20
5.941600
11
12.422500
21
6.025400
0
LINE
8
Layer 1
10
12.422500
20
6.025400
11
12.422500
21
6.537900
0
LINE
8
Layer 1
10
13.997500
20
6.537900
11
14.014200
21
6.621600
0
LINE
8
Layer 1
10
14.014200
20
6.621600
11
14.061600
21
6.692500
0
LINE
8
Layer 1
10
14.061600
20
6.692500
11
14.132500
21
6.739900
0
LINE
8
Layer 1
10
14.132500
20
6.739900
11
14.216200
21
6.756600
0
LINE
8
Layer 1
10
14.216200
20
6.756600
11
14.653700
21
6.756600
0
LINE
8
Layer 1
10
14.653700
20
6.756600
11
14.737500
21
6.739900
0
LINE
8
Layer 1
10
14.737500
20
6.739900
11
14.808400
21
6.692500
0
LINE
8
Layer 1
10
14.808400
20
6.692500
11
14.855800
21
6.621600
0
LINE
8
Layer 1
10
14.855800
20
6.621600
11
14.872500
21
6.537900
0
LINE
8
Layer 1
10
14.872500
20
6.537900
11
14.872500
21
6.025400
0
LINE
8
Layer 1
10
14.872500
20
6.025400
11
14.855800
21
5.941600
0
LINE
8
Layer 1
10
14.855800
20
5.941600
11
14.808400
21
5.870700
0
LINE
8
Layer 1
10
14.808400
20
5.870700
11
14.737500
21
5.823300
0
LINE
8
Layer 1
10
14.737500
20
5.823300
11
14.653700
21
5.806600
0
LINE
8
Layer 1
10
14.653700
20
5.806600
11
14.216200
21
5.806600
0
LINE
8
Layer 1
10
14.216200
20
5.806600
11
14.132500
21
5.823300
0
LINE
8
Layer 1
10
14.132500
20
5.823300
11
14.061600
21
5.870700
0
LINE
8
Layer 1
10
14.061600
20
5.870700
11
14.014200
21
5.941600
0
LINE
8
Layer 1
10
14.014200
20
5.941600
11
13.997500
21
6.025400
0
LINE
8
Layer 1
10
13.997500
20
6.025400
11
13.997500
21
6.537900
0
LINE
8
Layer 1
10
26.405000
20
44.631600
11
26.422100
21
44.717700
0
LINE
8
Layer 1
10
26.422100
20
44.717700
11
26.470900
21
44.790700
0
LINE
8
Layer 1
10
26.470900
20
44.790700
11
26.543900
21
44.839500
0
LINE
8
Layer 1
10
26.543900
20
44.839500
11
26.630000
21
44.856600
0
LINE
8
Layer 1
10
26.630000
20
44.856600
11
27.080000
21
44.856600
0
LINE
8
Layer 1
10
27.080000
20
44.856600
11
27.166100
21
44.839500
0
LINE
8
Layer 1
10
27.166100
20
44.839500
11
27.239100
21
44.790700
0
LINE
8
Layer 1
10
27.239100
20
44.790700
11
27.287900
21
44.717700
0
LINE
8
Layer 1
10
27.287900
20
44.717700
11
27.305000
21
44.631600
0
LINE
8
Layer 1
10
27.305000
20
44.631600
11
27.305000
21
44.131600
0
LINE
8
Layer 1
10
27.305000
20
44.131600
11
27.287900
21
44.045500
0
LINE
8
Layer 1
10
27.287900
20
44.045500
11
27.239100
21
43.972500
0
LINE
8
Layer 1
10
27.239100
20
43.972500
11
27.166100
21
43.923700
0
LINE
8
Layer 1
10
27.166100
20
43.923700
11
27.080000
21
43.906600
0
LINE
8
Layer 1
10
27.080000
20
43.906600
11
26.630000
21
43.906600
0
LINE
8
Layer 1
10
26.630000
20
43.906600
11
26.543900
21
43.923700
0
LINE
8
Layer 1
10
26.543900
20
43.923700
11
26.470900
21
43.972500
0
LINE
8
Layer 1
10
26.470900
20
43.972500
11
26.422100
21
44.045500
0
LINE
8
Layer 1
10
26.422100
20
44.045500
11
26.405000
21
44.131600
0
LINE
8
Layer 1
10
26.405000
20
44.131600
11
26.405000
21
44.631600
0
LINE
8
Layer 1
10
27.955000
20
44.631600
11
27.972100
21
44.717700
0
LINE
8
Layer 1
10
27.972100
20
44.717700
11
28.020900
21
44.790700
0
LINE
8
Layer 1
10
28.020900
20
44.790700
11
28.093900
21
44.839500
0
LINE
8
Layer 1
10
28.093900
20
44.839500
11
28.180000
21
44.856600
0
LINE
8
Layer 1
10
28.180000
20
44.856600
11
28.630000
21
44.856600
0
LINE
8
Layer 1
10
28.630000
20
44.856600
11
28.716100
21
44.839500
0
LINE
8
Layer 1
10
28.716100
20
44.839500
11
28.789100
21
44.790700
0
LINE
8
Layer 1
10
28.789100
20
44.790700
11
28.837900
21
44.717700
0
LINE
8
Layer 1
10
28.837900
20
44.717700
11
28.855000
21
44.631600
0
LINE
8
Layer 1
10
28.855000
20
44.631600
11
28.855000
21
44.131600
0
LINE
8
Layer 1
10
28.855000
20
44.131600
11
28.837900
21
44.045500
0
LINE
8
Layer 1
10
28.837900
20
44.045500
11
28.789100
21
43.972500
0
LINE
8
Layer 1
10
28.789100
20
43.972500
11
28.716100
21
43.923700
0
LINE
8
Layer 1
10
28.716100
20
43.923700
11
28.630000
21
43.906600
0
LINE
8
Layer 1
10
28.630000
20
43.906600
11
28.180000
21
43.906600
0
LINE
8
Layer 1
10
28.180000
20
43.906600
11
28.093900
21
43.923700
0
LINE
8
Layer 1
10
28.093900
20
43.923700
11
28.020900
21
43.972500
0
LINE
8
Layer 1
10
28.020900
20
43.972500
11
27.972100
21
44.045500
0
LINE
8
Layer 1
10
27.972100
20
44.045500
11
27.955000
21
44.131600
0
LINE
8
Layer 1
10
27.955000
20
44.131600
11
27.955000
21
44.631600
0
LINE
8
Layer 1
10
79.471000
20
3.858900
11
79.459600
21
3.752600
0
LINE
8
Layer 1
10
79.459600
20
3.752600
11
79.409800
21
3.619200
0
LINE
8
Layer 1
10
79.409800
20
3.619200
11
79.324600
21
3.505300
0
LINE
8
Layer 1
10
79.324600
20
3.505300
11
79.210600
21
3.420000
0
LINE
8
Layer 1
10
79.210600
20
3.420000
11
79.077300
21
3.370300
0
LINE
8
Layer 1
10
79.077300
20
3.370300
11
78.971000
21
3.358900
0
LINE
8
Layer 1
10
78.971000
20
3.358900
11
77.221000
21
3.358900
0
LINE
8
Layer 1
10
77.221000
20
3.358900
11
77.114700
21
3.370300
0
LINE
8
Layer 1
10
77.114700
20
3.370300
11
76.981400
21
3.420000
0
LINE
8
Layer 1
10
76.981400
20
3.420000
11
76.867400
21
3.505300
0
LINE
8
Layer 1
10
76.867400
20
3.505300
11
76.782200
21
3.619200
0
LINE
8
Layer 1
10
76.782200
20
3.619200
11
76.732400
21
3.752600
0
LINE
8
Layer 1
10
76.732400
20
3.752600
11
76.721000
21
3.858900
0
LINE
8
Layer 1
10
76.721000
20
3.858900
11
76.721000
21
4.858900
0
LINE
8
Layer 1
10
76.721000
20
4.858900
11
76.732400
21
4.965100
0
LINE
8
Layer 1
10
76.732400
20
4.965100
11
76.782200
21
5.098500
0
LINE
8
Layer 1
10
76.782200
20
5.098500
11
76.867400
21
5.212400
0
LINE
8
Layer 1
10
76.867400
20
5.212400
11
76.981400
21
5.297700
0
LINE
8
Layer 1
10
76.981400
20
5.297700
11
77.114700
21
5.347400
0
LINE
8
Layer 1
10
77.114700
20
5.347400
11
77.221000
21
5.358900
0
LINE
8
Layer 1
10
77.221000
20
5.358900
11
78.971000
21
5.358900
0
LINE
8
Layer 1
10
78.971000
20
5.358900
11
79.077300
21
5.347400
0
LINE
8
Layer 1
10
79.077300
20
5.347400
11
79.210600
21
5.297700
0
LINE
8
Layer 1
10
79.210600
20
5.297700
11
79.324600
21
5.212400
0
LINE
8
Layer 1
10
79.324600
20
5.212400
11
79.409800
21
5.098500
0
LINE
8
Layer 1
10
79.409800
20
5.098500
11
79.459600
21
4.965100
0
LINE
8
Layer 1
10
79.459600
20
4.965100
11
79.471000
21
4.858900
0
LINE
8
Layer 1
10
79.471000
20
4.858900
11
79.471000
21
3.858900
0
LINE
8
Layer 1
10
79.471000
20
6.398900
11
79.459600
21
6.292600
0
LINE
8
Layer 1
10
79.459600
20
6.292600
11
79.409800
21
6.159200
0
LINE
8
Layer 1
10
79.409800
20
6.159200
11
79.324600
21
6.045300
0
LINE
8
Layer 1
10
79.324600
20
6.045300
11
79.210600
21
5.960000
0
LINE
8
Layer 1
10
79.210600
20
5.960000
11
79.077300
21
5.910300
0
LINE
8
Layer 1
10
79.077300
20
5.910300
11
78.971000
21
5.898900
0
LINE
8
Layer 1
10
78.971000
20
5.898900
11
77.221000
21
5.898900
0
LINE
8
Layer 1
10
77.221000
20
5.898900
11
77.114700
21
5.910300
0
LINE
8
Layer 1
10
77.114700
20
5.910300
11
76.981400
21
5.960000
0
LINE
8
Layer 1
10
76.981400
20
5.960000
11
76.867400
21
6.045300
0
LINE
8
Layer 1
10
76.867400
20
6.045300
11
76.782200
21
6.159200
0
LINE
8
Layer 1
10
76.782200
20
6.159200
11
76.732400
21
6.292600
0
LINE
8
Layer 1
10
76.732400
20
6.292600
11
76.721000
21
6.398900
0
LINE
8
Layer 1
10
76.721000
20
6.398900
11
76.721000
21
7.398900
0
LINE
8
Layer 1
10
76.721000
20
7.398900
11
76.732400
21
7.505100
0
LINE
8
Layer 1
10
76.732400
20
7.505100
11
76.782200
21
7.638500
0
LINE
8
Layer 1
10
76.782200
20
7.638500
11
76.867400
21
7.752400
0
LINE
8
Layer 1
10
76.867400
20
7.752400
11
76.981400
21
7.837700
0
LINE
8
Layer 1
10
76.981400
20
7.837700
11
77.114700
21
7.887400
0
LINE
8
Layer 1
10
77.114700
20
7.887400
11
77.221000
21
7.898900
0
LINE
8
Layer 1
10
77.221000
20
7.898900
11
78.971000
21
7.898900
0
LINE
8
Layer 1
10
78.971000
20
7.898900
11
79.077300
21
7.887400
0
LINE
8
Layer 1
10
79.077300
20
7.887400
11
79.210600
21
7.837700
0
LINE
8
Layer 1
10
79.210600
20
7.837700
11
79.324600
21
7.752400
0
LINE
8
Layer 1
10
79.324600
20
7.752400
11
79.409800
21
7.638500
0
LINE
8
Layer 1
10
79.409800
20
7.638500
11
79.459600
21
7.505100
0
LINE
8
Layer 1
10
79.459600
20
7.505100
11
79.471000
21
7.398900
0
LINE
8
Layer 1
10
79.471000
20
7.398900
11
79.471000
21
6.398900
0
LINE
8
Layer 1
10
79.471000
20
8.938900
11
79.459600
21
8.832600
0
LINE
8
Layer 1
10
79.459600
20
8.832600
11
79.409800
21
8.699200
0
LINE
8
Layer 1
10
79.409800
20
8.699200
11
79.324600
21
8.585300
0
LINE
8
Layer 1
10
79.324600
20
8.585300
11
79.210600
21
8.500000
0
LINE
8
Layer 1
10
79.210600
20
8.500000
11
79.077300
21
8.450300
0
LINE
8
Layer 1
10
79.077300
20
8.450300
11
78.971000
21
8.438900
0
LINE
8
Layer 1
10
78.971000
20
8.438900
11
77.221000
21
8.438900
0
LINE
8
Layer 1
10
77.221000
20
8.438900
11
77.114700
21
8.450300
0
LINE
8
Layer 1
10
77.114700
20
8.450300
11
76.981400
21
8.500000
0
LINE
8
Layer 1
10
76.981400
20
8.500000
11
76.867400
21
8.585300
0
LINE
8
Layer 1
10
76.867400
20
8.585300
11
76.782200
21
8.699200
0
LINE
8
Layer 1
10
76.782200
20
8.699200
11
76.732400
21
8.832600
0
LINE
8
Layer 1
10
76.732400
20
8.832600
11
76.721000
21
8.938900
0
LINE
8
Layer 1
10
76.721000
20
8.938900
11
76.721000
21
9.938900
0
LINE
8
Layer 1
10
76.721000
20
9.938900
11
76.732400
21
10.045100
0
LINE
8
Layer 1
10
76.732400
20
10.045100
11
76.782200
21
10.178500
0
LINE
8
Layer 1
10
76.782200
20
10.178500
11
76.867400
21
10.292400
0
LINE
8
Layer 1
10
76.867400
20
10.292400
11
76.981400
21
10.377700
0
LINE
8
Layer 1
10
76.981400
20
10.377700
11
77.114700
21
10.427400
0
LINE
8
Layer 1
10
77.114700
20
10.427400
11
77.221000
21
10.438900
0
LINE
8
Layer 1
10
77.221000
20
10.438900
11
78.971000
21
10.438900
0
LINE
8
Layer 1
10
78.971000
20
10.438900
11
79.077300
21
10.427400
0
LINE
8
Layer 1
10
79.077300
20
10.427400
11
79.210600
21
10.377700
0
LINE
8
Layer 1
10
79.210600
20
10.377700
11
79.324600
21
10.292400
0
LINE
8
Layer 1
10
79.324600
20
10.292400
11
79.409800
21
10.178500
0
LINE
8
Layer 1
10
79.409800
20
10.178500
11
79.459600
21
10.045100
0
LINE
8
Layer 1
10
79.459600
20
10.045100
11
79.471000
21
9.938900
0
LINE
8
Layer 1
10
79.471000
20
9.938900
11
79.471000
21
8.938900
0
LINE
8
Layer 1
10
79.471000
20
11.478800
11
79.459600
21
11.372600
0
LINE
8
Layer 1
10
79.459600
20
11.372600
11
79.409800
21
11.239200
0
LINE
8
Layer 1
10
79.409800
20
11.239200
11
79.324600
21
11.125300
0
LINE
8
Layer 1
10
79.324600
20
11.125300
11
79.210600
21
11.040000
0
LINE
8
Layer 1
10
79.210600
20
11.040000
11
79.077300
21
10.990300
0
LINE
8
Layer 1
10
79.077300
20
10.990300
11
78.971000
21
10.978800
0
LINE
8
Layer 1
10
78.971000
20
10.978800
11
77.221000
21
10.978800
0
LINE
8
Layer 1
10
77.221000
20
10.978800
11
77.114700
21
10.990300
0
LINE
8
Layer 1
10
77.114700
20
10.990300
11
76.981400
21
11.040000
0
LINE
8
Layer 1
10
76.981400
20
11.040000
11
76.867400
21
11.125300
0
LINE
8
Layer 1
10
76.867400
20
11.125300
11
76.782200
21
11.239200
0
LINE
8
Layer 1
10
76.782200
20
11.239200
11
76.732400
21
11.372600
0
LINE
8
Layer 1
10
76.732400
20
11.372600
11
76.721000
21
11.478800
0
LINE
8
Layer 1
10
76.721000
20
11.478800
11
76.721000
21
12.478800
0
LINE
8
Layer 1
10
76.721000
20
12.478800
11
76.732400
21
12.585100
0
LINE
8
Layer 1
10
76.732400
20
12.585100
11
76.782200
21
12.718500
0
LINE
8
Layer 1
10
76.782200
20
12.718500
11
76.867400
21
12.832400
0
LINE
8
Layer 1
10
76.867400
20
12.832400
11
76.981400
21
12.917700
0
LINE
8
Layer 1
10
76.981400
20
12.917700
11
77.114700
21
12.967400
0
LINE
8
Layer 1
10
77.114700
20
12.967400
11
77.221000
21
12.978800
0
LINE
8
Layer 1
10
77.221000
20
12.978800
11
78.971000
21
12.978800
0
LINE
8
Layer 1
10
78.971000
20
12.978800
11
79.077300
21
12.967400
0
LINE
8
Layer 1
10
79.077300
20
12.967400
11
79.210600
21
12.917700
0
LINE
8
Layer 1
10
79.210600
20
12.917700
11
79.324600
21
12.832400
0
LINE
8
Layer 1
10
79.324600
20
12.832400
11
79.409800
21
12.718500
0
LINE
8
Layer 1
10
79.409800
20
12.718500
11
79.459600
21
12.585100
0
LINE
8
Layer 1
10
79.459600
20
12.585100
11
79.471000
21
12.478800
0
LINE
8
Layer 1
10
79.471000
20
12.478800
11
79.471000
21
11.478800
0
LINE
8
Layer 1
10
79.471000
20
14.018800
11
79.459600
21
13.912600
0
LINE
8
Layer 1
10
79.459600
20
13.912600
11
79.409800
21
13.779200
0
LINE
8
Layer 1
10
79.409800
20
13.779200
11
79.324600
21
13.665300
0
LINE
8
Layer 1
10
79.324600
20
13.665300
11
79.210600
21
13.580000
0
LINE
8
Layer 1
10
79.210600
20
13.580000
11
79.077300
21
13.530300
0
LINE
8
Layer 1
10
79.077300
20
13.530300
11
78.971000
21
13.518800
0
LINE
8
Layer 1
10
78.971000
20
13.518800
11
77.221000
21
13.518800
0
LINE
8
Layer 1
10
77.221000
20
13.518800
11
77.114700
21
13.530300
0
LINE
8
Layer 1
10
77.114700
20
13.530300
11
76.981400
21
13.580000
0
LINE
8
Layer 1
10
76.981400
20
13.580000
11
76.867400
21
13.665300
0
LINE
8
Layer 1
10
76.867400
20
13.665300
11
76.782200
21
13.779200
0
LINE
8
Layer 1
10
76.782200
20
13.779200
11
76.732400
21
13.912600
0
LINE
8
Layer 1
10
76.732400
20
13.912600
11
76.721000
21
14.018800
0
LINE
8
Layer 1
10
76.721000
20
14.018800
11
76.721000
21
15.018800
0
LINE
8
Layer 1
10
76.721000
20
15.018800
11
76.732400
21
15.125100
0
LINE
8
Layer 1
10
76.732400
20
15.125100
11
76.782200
21
15.258500
0
LINE
8
Layer 1
10
76.782200
20
15.258500
11
76.867400
21
15.372400
0
LINE
8
Layer 1
10
76.867400
20
15.372400
11
76.981400
21
15.457700
0
LINE
8
Layer 1
10
76.981400
20
15.457700
11
77.114700
21
15.507400
0
LINE
8
Layer 1
10
77.114700
20
15.507400
11
77.221000
21
15.518800
0
LINE
8
Layer 1
10
77.221000
20
15.518800
11
78.971000
21
15.518800
0
LINE
8
Layer 1
10
78.971000
20
15.518800
11
79.077300
21
15.507400
0
LINE
8
Layer 1
10
79.077300
20
15.507400
11
79.210600
21
15.457700
0
LINE
8
Layer 1
10
79.210600
20
15.457700
11
79.324600
21
15.372400
0
LINE
8
Layer 1
10
79.324600
20
15.372400
11
79.409800
21
15.258500
0
LINE
8
Layer 1
10
79.409800
20
15.258500
11
79.459600
21
15.125100
0
LINE
8
Layer 1
10
79.459600
20
15.125100
11
79.471000
21
15.018800
0
LINE
8
Layer 1
10
79.471000
20
15.018800
11
79.471000
21
14.018800
0
LINE
8
Layer 1
10
79.471000
20
16.558800
11
79.459600
21
16.452600
0
LINE
8
Layer 1
10
79.459600
20
16.452600
11
79.409800
21
16.319200
0
LINE
8
Layer 1
10
79.409800
20
16.319200
11
79.324600
21
16.205300
0
LINE
8
Layer 1
10
79.324600
20
16.205300
11
79.210600
21
16.120000
0
LINE
8
Layer 1
10
79.210600
20
16.120000
11
79.077300
21
16.070300
0
LINE
8
Layer 1
10
79.077300
20
16.070300
11
78.971000
21
16.058800
0
LINE
8
Layer 1
10
78.971000
20
16.058800
11
77.221000
21
16.058800
0
LINE
8
Layer 1
10
77.221000
20
16.058800
11
77.114700
21
16.070300
0
LINE
8
Layer 1
10
77.114700
20
16.070300
11
76.981400
21
16.120000
0
LINE
8
Layer 1
10
76.981400
20
16.120000
11
76.867400
21
16.205300
0
LINE
8
Layer 1
10
76.867400
20
16.205300
11
76.782200
21
16.319200
0
LINE
8
Layer 1
10
76.782200
20
16.319200
11
76.732400
21
16.452600
0
LINE
8
Layer 1
10
76.732400
20
16.452600
11
76.721000
21
16.558800
0
LINE
8
Layer 1
10
76.721000
20
16.558800
11
76.721000
21
17.558800
0
LINE
8
Layer 1
10
76.721000
20
17.558800
11
76.732400
21
17.665100
0
LINE
8
Layer 1
10
76.732400
20
17.665100
11
76.782200
21
17.798500
0
LINE
8
Layer 1
10
76.782200
20
17.798500
11
76.867400
21
17.912400
0
LINE
8
Layer 1
10
76.867400
20
17.912400
11
76.981400
21
17.997700
0
LINE
8
Layer 1
10
76.981400
20
17.997700
11
77.114700
21
18.047400
0
LINE
8
Layer 1
10
77.114700
20
18.047400
11
77.221000
21
18.058800
0
LINE
8
Layer 1
10
77.221000
20
18.058800
11
78.971000
21
18.058800
0
LINE
8
Layer 1
10
78.971000
20
18.058800
11
79.077300
21
18.047400
0
LINE
8
Layer 1
10
79.077300
20
18.047400
11
79.210600
21
17.997700
0
LINE
8
Layer 1
10
79.210600
20
17.997700
11
79.324600
21
17.912400
0
LINE
8
Layer 1
10
79.324600
20
17.912400
11
79.409800
21
17.798500
0
LINE
8
Layer 1
10
79.409800
20
17.798500
11
79.459600
21
17.665100
0
LINE
8
Layer 1
10
79.459600
20
17.665100
11
79.471000
21
17.558800
0
LINE
8
Layer 1
10
79.471000
20
17.558800
11
79.471000
21
16.558800
0
LINE
8
Layer 1
10
79.471000
20
19.098900
11
79.459600
21
18.992600
0
LINE
8
Layer 1
10
79.459600
20
18.992600
11
79.409800
21
18.859200
0
LINE
8
Layer 1
10
79.409800
20
18.859200
11
79.324600
21
18.745300
0
LINE
8
Layer 1
10
79.324600
20
18.745300
11
79.210600
21
18.660000
0
LINE
8
Layer 1
10
79.210600
20
18.660000
11
79.077300
21
18.610300
0
LINE
8
Layer 1
10
79.077300
20
18.610300
11
78.971000
21
18.598900
0
LINE
8
Layer 1
10
78.971000
20
18.598900
11
77.221000
21
18.598900
0
LINE
8
Layer 1
10
77.221000
20
18.598900
11
77.114700
21
18.610300
0
LINE
8
Layer 1
10
77.114700
20
18.610300
11
76.981400
21
18.660000
0
LINE
8
Layer 1
10
76.981400
20
18.660000
11
76.867400
21
18.745300
0
LINE
8
Layer 1
10
76.867400
20
18.745300
11
76.782200
21
18.859200
0
LINE
8
Layer 1
10
76.782200
20
18.859200
11
76.732400
21
18.992600
0
LINE
8
Layer 1
10
76.732400
20
18.992600
11
76.721000
21
19.098900
0
LINE
8
Layer 1
10
76.721000
20
19.098900
11
76.721000
21
20.098900
0
LINE
8
Layer 1
10
76.721000
20
20.098900
11
76.732400
21
20.205100
0
LINE
8
Layer 1
10
76.732400
20
20.205100
11
76.782200
21
20.338500
0
LINE
8
Layer 1
10
76.782200
20
20.338500
11
76.867400
21
20.452400
0
LINE
8
Layer 1
10
76.867400
20
20.452400
11
76.981400
21
20.537700
0
LINE
8
Layer 1
10
76.981400
20
20.537700
11
77.114700
21
20.587400
0
LINE
8
Layer 1
10
77.114700
20
20.587400
11
77.221000
21
20.598900
0
LINE
8
Layer 1
10
77.221000
20
20.598900
11
78.971000
21
20.598900
0
LINE
8
Layer 1
10
78.971000
20
20.598900
11
79.077300
21
20.587400
0
LINE
8
Layer 1
10
79.077300
20
20.587400
11
79.210600
21
20.537700
0
LINE
8
Layer 1
10
79.210600
20
20.537700
11
79.324600
21
20.452400
0
LINE
8
Layer 1
10
79.324600
20
20.452400
11
79.409800
21
20.338500
0
LINE
8
Layer 1
10
79.409800
20
20.338500
11
79.459600
21
20.205100
0
LINE
8
Layer 1
10
79.459600
20
20.205100
11
79.471000
21
20.098900
0
LINE
8
Layer 1
10
79.471000
20
20.098900
11
79.471000
21
19.098900
0
LINE
8
Layer 1
10
63.306000
20
19.098900
11
63.294600
21
18.992600
0
LINE
8
Layer 1
10
63.294600
20
18.992600
11
63.244800
21
18.859200
0
LINE
8
Layer 1
10
63.244800
20
18.859200
11
63.159600
21
18.745300
0
LINE
8
Layer 1
10
63.159600
20
18.745300
11
63.045600
21
18.660000
0
LINE
8
Layer 1
10
63.045600
20
18.660000
11
62.912300
21
18.610300
0
LINE
8
Layer 1
10
62.912300
20
18.610300
11
62.806000
21
18.598900
0
LINE
8
Layer 1
10
62.806000
20
18.598900
11
61.056000
21
18.598900
0
LINE
8
Layer 1
10
61.056000
20
18.598900
11
60.949700
21
18.610300
0
LINE
8
Layer 1
10
60.949700
20
18.610300
11
60.816400
21
18.660000
0
LINE
8
Layer 1
10
60.816400
20
18.660000
11
60.702400
21
18.745300
0
LINE
8
Layer 1
10
60.702400
20
18.745300
11
60.617200
21
18.859200
0
LINE
8
Layer 1
10
60.617200
20
18.859200
11
60.567400
21
18.992600
0
LINE
8
Layer 1
10
60.567400
20
18.992600
11
60.556000
21
19.098900
0
LINE
8
Layer 1
10
60.556000
20
19.098900
11
60.556000
21
20.098900
0
LINE
8
Layer 1
10
60.556000
20
20.098900
11
60.567400
21
20.205100
0
LINE
8
Layer 1
10
60.567400
20
20.205100
11
60.617200
21
20.338500
0
LINE
8
Layer 1
10
60.617200
20
20.338500
11
60.702400
21
20.452400
0
LINE
8
Layer 1
10
60.702400
20
20.452400
11
60.816400
21
20.537700
0
LINE
8
Layer 1
10
60.816400
20
20.537700
11
60.949700
21
20.587400
0
LINE
8
Layer 1
10
60.949700
20
20.587400
11
61.056000
21
20.598900
0
LINE
8
Layer 1
10
61.056000
20
20.598900
11
62.806000
21
20.598900
0
LINE
8
Layer 1
10
62.806000
20
20.598900
11
62.912300
21
20.587400
0
LINE
8
Layer 1
10
62.912300
20
20.587400
11
63.045600
21
20.537700
0
LINE
8
Layer 1
10
63.045600
20
20.537700
11
63.159600
21
20.452400
0
LINE
8
Layer 1
10
63.159600
20
20.452400
11
63.244800
21
20.338500
0
LINE
8
Layer 1
10
63.244800
20
20.338500
11
63.294600
21
20.205100
0
LINE
8
Layer 1
10
63.294600
20
20.205100
11
63.306000
21
20.098900
0
LINE
8
Layer 1
10
63.306000
20
20.098900
11
63.306000
21
19.098900
0
LINE
8
Layer 1
10
63.306000
20
16.558800
11
63.294600
21
16.452600
0
LINE
8
Layer 1
10
63.294600
20
16.452600
11
63.244800
21
16.319200
0
LINE
8
Layer 1
10
63.244800
20
16.319200
11
63.159600
21
16.205300
0
LINE
8
Layer 1
10
63.159600
20
16.205300
11
63.045600
21
16.120000
0
LINE
8
Layer 1
10
63.045600
20
16.120000
11
62.912300
21
16.070300
0
LINE
8
Layer 1
10
62.912300
20
16.070300
11
62.806000
21
16.058800
0
LINE
8
Layer 1
10
62.806000
20
16.058800
11
61.056000
21
16.058800
0
LINE
8
Layer 1
10
61.056000
20
16.058800
11
60.949700
21
16.070300
0
LINE
8
Layer 1
10
60.949700
20
16.070300
11
60.816400
21
16.120000
0
LINE
8
Layer 1
10
60.816400
20
16.120000
11
60.702400
21
16.205300
0
LINE
8
Layer 1
10
60.702400
20
16.205300
11
60.617200
21
16.319200
0
LINE
8
Layer 1
10
60.617200
20
16.319200
11
60.567400
21
16.452600
0
LINE
8
Layer 1
10
60.567400
20
16.452600
11
60.556000
21
16.558800
0
LINE
8
Layer 1
10
60.556000
20
16.558800
11
60.556000
21
17.558800
0
LINE
8
Layer 1
10
60.556000
20
17.558800
11
60.567400
21
17.665100
0
LINE
8
Layer 1
10
60.567400
20
17.665100
11
60.617200
21
17.798500
0
LINE
8
Layer 1
10
60.617200
20
17.798500
11
60.702400
21
17.912400
0
LINE
8
Layer 1
10
60.702400
20
17.912400
11
60.816400
21
17.997700
0
LINE
8
Layer 1
10
60.816400
20
17.997700
11
60.949700
21
18.047400
0
LINE
8
Layer 1
10
60.949700
20
18.047400
11
61.056000
21
18.058800
0
LINE
8
Layer 1
10
61.056000
20
18.058800
11
62.806000
21
18.058800
0
LINE
8
Layer 1
10
62.806000
20
18.058800
11
62.912300
21
18.047400
0
LINE
8
Layer 1
10
62.912300
20
18.047400
11
63.045600
21
17.997700
0
LINE
8
Layer 1
10
63.045600
20
17.997700
11
63.159600
21
17.912400
0
LINE
8
Layer 1
10
63.159600
20
17.912400
11
63.244800
21
17.798500
0
LINE
8
Layer 1
10
63.244800
20
17.798500
11
63.294600
21
17.665100
0
LINE
8
Layer 1
10
63.294600
20
17.665100
11
63.306000
21
17.558800
0
LINE
8
Layer 1
10
63.306000
20
17.558800
11
63.306000
21
16.558800
0
LINE
8
Layer 1
10
63.306000
20
14.018800
11
63.294600
21
13.912600
0
LINE
8
Layer 1
10
63.294600
20
13.912600
11
63.244800
21
13.779200
0
LINE
8
Layer 1
10
63.244800
20
13.779200
11
63.159600
21
13.665300
0
LINE
8
Layer 1
10
63.159600
20
13.665300
11
63.045600
21
13.580000
0
LINE
8
Layer 1
10
63.045600
20
13.580000
11
62.912300
21
13.530300
0
LINE
8
Layer 1
10
62.912300
20
13.530300
11
62.806000
21
13.518800
0
LINE
8
Layer 1
10
62.806000
20
13.518800
11
61.056000
21
13.518800
0
LINE
8
Layer 1
10
61.056000
20
13.518800
11
60.949700
21
13.530300
0
LINE
8
Layer 1
10
60.949700
20
13.530300
11
60.816400
21
13.580000
0
LINE
8
Layer 1
10
60.816400
20
13.580000
11
60.702400
21
13.665300
0
LINE
8
Layer 1
10
60.702400
20
13.665300
11
60.617200
21
13.779200
0
LINE
8
Layer 1
10
60.617200
20
13.779200
11
60.567400
21
13.912600
0
LINE
8
Layer 1
10
60.567400
20
13.912600
11
60.556000
21
14.018800
0
LINE
8
Layer 1
10
60.556000
20
14.018800
11
60.556000
21
15.018800
0
LINE
8
Layer 1
10
60.556000
20
15.018800
11
60.567400
21
15.125100
0
LINE
8
Layer 1
10
60.567400
20
15.125100
11
60.617200
21
15.258500
0
LINE
8
Layer 1
10
60.617200
20
15.258500
11
60.702400
21
15.372400
0
LINE
8
Layer 1
10
60.702400
20
15.372400
11
60.816400
21
15.457700
0
LINE
8
Layer 1
10
60.816400
20
15.457700
11
60.949700
21
15.507400
0
LINE
8
Layer 1
10
60.949700
20
15.507400
11
61.056000
21
15.518800
0
LINE
8
Layer 1
10
61.056000
20
15.518800
11
62.806000
21
15.518800
0
LINE
8
Layer 1
10
62.806000
20
15.518800
11
62.912300
21
15.507400
0
LINE
8
Layer 1
10
62.912300
20
15.507400
11
63.045600
21
15.457700
0
LINE
8
Layer 1
10
63.045600
20
15.457700
11
63.159600
21
15.372400
0
LINE
8
Layer 1
10
63.159600
20
15.372400
11
63.244800
21
15.258500
0
LINE
8
Layer 1
10
63.244800
20
15.258500
11
63.294600
21
15.125100
0
LINE
8
Layer 1
10
63.294600
20
15.125100
11
63.306000
21
15.018800
0
LINE
8
Layer 1
10
63.306000
20
15.018800
11
63.306000
21
14.018800
0
LINE
8
Layer 1
10
63.306000
20
11.478800
11
63.294600
21
11.372600
0
LINE
8
Layer 1
10
63.294600
20
11.372600
11
63.244800
21
11.239200
0
LINE
8
Layer 1
10
63.244800
20
11.239200
11
63.159600
21
11.125300
0
LINE
8
Layer 1
10
63.159600
20
11.125300
11
63.045600
21
11.040000
0
LINE
8
Layer 1
10
63.045600
20
11.040000
11
62.912300
21
10.990300
0
LINE
8
Layer 1
10
62.912300
20
10.990300
11
62.806000
21
10.978800
0
LINE
8
Layer 1
10
62.806000
20
10.978800
11
61.056000
21
10.978800
0
LINE
8
Layer 1
10
61.056000
20
10.978800
11
60.949700
21
10.990300
0
LINE
8
Layer 1
10
60.949700
20
10.990300
11
60.816400
21
11.040000
0
LINE
8
Layer 1
10
60.816400
20
11.040000
11
60.702400
21
11.125300
0
LINE
8
Layer 1
10
60.702400
20
11.125300
11
60.617200
21
11.239200
0
LINE
8
Layer 1
10
60.617200
20
11.239200
11
60.567400
21
11.372600
0
LINE
8
Layer 1
10
60.567400
20
11.372600
11
60.556000
21
11.478800
0
LINE
8
Layer 1
10
60.556000
20
11.478800
11
60.556000
21
12.478800
0
LINE
8
Layer 1
10
60.556000
20
12.478800
11
60.567400
21
12.585100
0
LINE
8
Layer 1
10
60.567400
20
12.585100
11
60.617200
21
12.718500
0
LINE
8
Layer 1
10
60.617200
20
12.718500
11
60.702400
21
12.832400
0
LINE
8
Layer 1
10
60.702400
20
12.832400
11
60.816400
21
12.917700
0
LINE
8
Layer 1
10
60.816400
20
12.917700
11
60.949700
21
12.967400
0
LINE
8
Layer 1
10
60.949700
20
12.967400
11
61.056000
21
12.978800
0
LINE
8
Layer 1
10
61.056000
20
12.978800
11
62.806000
21
12.978800
0
LINE
8
Layer 1
10
62.806000
20
12.978800
11
62.912300
21
12.967400
0
LINE
8
Layer 1
10
62.912300
20
12.967400
11
63.045600
21
12.917700
0
LINE
8
Layer 1
10
63.045600
20
12.917700
11
63.159600
21
12.832400
0
LINE
8
Layer 1
10
63.159600
20
12.832400
11
63.244800
21
12.718500
0
LINE
8
Layer 1
10
63.244800
20
12.718500
11
63.294600
21
12.585100
0
LINE
8
Layer 1
10
63.294600
20
12.585100
11
63.306000
21
12.478800
0
LINE
8
Layer 1
10
63.306000
20
12.478800
11
63.306000
21
11.478800
0
LINE
8
Layer 1
10
63.306000
20
8.938900
11
63.294600
21
8.832600
0
LINE
8
Layer 1
10
63.294600
20
8.832600
11
63.244800
21
8.699200
0
LINE
8
Layer 1
10
63.244800
20
8.699200
11
63.159600
21
8.585300
0
LINE
8
Layer 1
10
63.159600
20
8.585300
11
63.045600
21
8.500000
0
LINE
8
Layer 1
10
63.045600
20
8.500000
11
62.912300
21
8.450300
0
LINE
8
Layer 1
10
62.912300
20
8.450300
11
62.806000
21
8.438900
0
LINE
8
Layer 1
10
62.806000
20
8.438900
11
61.056000
21
8.438900
0
LINE
8
Layer 1
10
61.056000
20
8.438900
11
60.949700
21
8.450300
0
LINE
8
Layer 1
10
60.949700
20
8.450300
11
60.816400
21
8.500000
0
LINE
8
Layer 1
10
60.816400
20
8.500000
11
60.702400
21
8.585300
0
LINE
8
Layer 1
10
60.702400
20
8.585300
11
60.617200
21
8.699200
0
LINE
8
Layer 1
10
60.617200
20
8.699200
11
60.567400
21
8.832600
0
LINE
8
Layer 1
10
60.567400
20
8.832600
11
60.556000
21
8.938900
0
LINE
8
Layer 1
10
60.556000
20
8.938900
11
60.556000
21
9.938900
0
LINE
8
Layer 1
10
60.556000
20
9.938900
11
60.567400
21
10.045100
0
LINE
8
Layer 1
10
60.567400
20
10.045100
11
60.617200
21
10.178500
0
LINE
8
Layer 1
10
60.617200
20
10.178500
11
60.702400
21
10.292400
0
LINE
8
Layer 1
10
60.702400
20
10.292400
11
60.816400
21
10.377700
0
LINE
8
Layer 1
10
60.816400
20
10.377700
11
60.949700
21
10.427400
0
LINE
8
Layer 1
10
60.949700
20
10.427400
11
61.056000
21
10.438900
0
LINE
8
Layer 1
10
61.056000
20
10.438900
11
62.806000
21
10.438900
0
LINE
8
Layer 1
10
62.806000
20
10.438900
11
62.912300
21
10.427400
0
LINE
8
Layer 1
10
62.912300
20
10.427400
11
63.045600
21
10.377700
0
LINE
8
Layer 1
10
63.045600
20
10.377700
11
63.159600
21
10.292400
0
LINE
8
Layer 1
10
63.159600
20
10.292400
11
63.244800
21
10.178500
0
LINE
8
Layer 1
10
63.244800
20
10.178500
11
63.294600
21
10.045100
0
LINE
8
Layer 1
10
63.294600
20
10.045100
11
63.306000
21
9.938900
0
LINE
8
Layer 1
10
63.306000
20
9.938900
11
63.306000
21
8.938900
0
LINE
8
Layer 1
10
63.306000
20
6.398900
11
63.294600
21
6.292600
0
LINE
8
Layer 1
10
63.294600
20
6.292600
11
63.244800
21
6.159200
0
LINE
8
Layer 1
10
63.244800
20
6.159200
11
63.159600
21
6.045300
0
LINE
8
Layer 1
10
63.159600
20
6.045300
11
63.045600
21
5.960000
0
LINE
8
Layer 1
10
63.045600
20
5.960000
11
62.912300
21
5.910300
0
LINE
8
Layer 1
10
62.912300
20
5.910300
11
62.806000
21
5.898900
0
LINE
8
Layer 1
10
62.806000
20
5.898900
11
61.056000
21
5.898900
0
LINE
8
Layer 1
10
61.056000
20
5.898900
11
60.949700
21
5.910300
0
LINE
8
Layer 1
10
60.949700
20
5.910300
11
60.816400
21
5.960000
0
LINE
8
Layer 1
10
60.816400
20
5.960000
11
60.702400
21
6.045300
0
LINE
8
Layer 1
10
60.702400
20
6.045300
11
60.617200
21
6.159200
0
LINE
8
Layer 1
10
60.617200
20
6.159200
11
60.567400
21
6.292600
0
LINE
8
Layer 1
10
60.567400
20
6.292600
11
60.556000
21
6.398900
0
LINE
8
Layer 1
10
60.556000
20
6.398900
11
60.556000
21
7.398900
0
LINE
8
Layer 1
10
60.556000
20
7.398900
11
60.567400
21
7.505100
0
LINE
8
Layer 1
10
60.567400
20
7.505100
11
60.617200
21
7.638500
0
LINE
8
Layer 1
10
60.617200
20
7.638500
11
60.702400
21
7.752400
0
LINE
8
Layer 1
10
60.702400
20
7.752400
11
60.816400
21
7.837700
0
LINE
8
Layer 1
10
60.816400
20
7.837700
11
60.949700
21
7.887400
0
LINE
8
Layer 1
10
60.949700
20
7.887400
11
61.056000
21
7.898900
0
LINE
8
Layer 1
10
61.056000
20
7.898900
11
62.806000
21
7.898900
0
LINE
8
Layer 1
10
62.806000
20
7.898900
11
62.912300
21
7.887400
0
LINE
8
Layer 1
10
62.912300
20
7.887400
11
63.045600
21
7.837700
0
LINE
8
Layer 1
10
63.045600
20
7.837700
11
63.159600
21
7.752400
0
LINE
8
Layer 1
10
63.159600
20
7.752400
11
63.244800
21
7.638500
0
LINE
8
Layer 1
10
63.244800
20
7.638500
11
63.294600
21
7.505100
0
LINE
8
Layer 1
10
63.294600
20
7.505100
11
63.306000
21
7.398900
0
LINE
8
Layer 1
10
63.306000
20
7.398900
11
63.306000
21
6.398900
0
LINE
8
Layer 1
10
63.306000
20
3.858900
11
63.294600
21
3.752600
0
LINE
8
Layer 1
10
63.294600
20
3.752600
11
63.244800
21
3.619200
0
LINE
8
Layer 1
10
63.244800
20
3.619200
11
63.159600
21
3.505300
0
LINE
8
Layer 1
10
63.159600
20
3.505300
11
63.045600
21
3.420000
0
LINE
8
Layer 1
10
63.045600
20
3.420000
11
62.912300
21
3.370300
0
LINE
8
Layer 1
10
62.912300
20
3.370300
11
62.806000
21
3.358900
0
LINE
8
Layer 1
10
62.806000
20
3.358900
11
61.056000
21
3.358900
0
LINE
8
Layer 1
10
61.056000
20
3.358900
11
60.949700
21
3.370300
0
LINE
8
Layer 1
10
60.949700
20
3.370300
11
60.816400
21
3.420000
0
LINE
8
Layer 1
10
60.816400
20
3.420000
11
60.702400
21
3.505300
0
LINE
8
Layer 1
10
60.702400
20
3.505300
11
60.617200
21
3.619200
0
LINE
8
Layer 1
10
60.617200
20
3.619200
11
60.567400
21
3.752600
0
LINE
8
Layer 1
10
60.567400
20
3.752600
11
60.556000
21
3.858900
0
LINE
8
Layer 1
10
60.556000
20
3.858900
11
60.556000
21
4.858900
0
LINE
8
Layer 1
10
60.556000
20
4.858900
11
60.567400
21
4.965100
0
LINE
8
Layer 1
10
60.567400
20
4.965100
11
60.617200
21
5.098500
0
LINE
8
Layer 1
10
60.617200
20
5.098500
11
60.702400
21
5.212400
0
LINE
8
Layer 1
10
60.702400
20
5.212400
11
60.816400
21
5.297700
0
LINE
8
Layer 1
10
60.816400
20
5.297700
11
60.949700
21
5.347400
0
LINE
8
Layer 1
10
60.949700
20
5.347400
11
61.056000
21
5.358900
0
LINE
8
Layer 1
10
61.056000
20
5.358900
11
62.806000
21
5.358900
0
LINE
8
Layer 1
10
62.806000
20
5.358900
11
62.912300
21
5.347400
0
LINE
8
Layer 1
10
62.912300
20
5.347400
11
63.045600
21
5.297700
0
LINE
8
Layer 1
10
63.045600
20
5.297700
11
63.159600
21
5.212400
0
LINE
8
Layer 1
10
63.159600
20
5.212400
11
63.244800
21
5.098500
0
LINE
8
Layer 1
10
63.244800
20
5.098500
11
63.294600
21
4.965100
0
LINE
8
Layer 1
10
63.294600
20
4.965100
11
63.306000
21
4.858900
0
LINE
8
Layer 1
10
63.306000
20
4.858900
11
63.306000
21
3.858900
0
LINE
8
Layer 1
10
75.311500
20
12.318900
11
75.393700
21
12.308000
0
LINE
8
Layer 1
10
75.393700
20
12.308000
11
75.493600
21
12.261400
0
LINE
8
Layer 1
10
75.493600
20
12.261400
11
75.571600
21
12.183500
0
LINE
8
Layer 1
10
75.571600
20
12.183500
11
75.618200
21
12.083500
0
LINE
8
Layer 1
10
75.618200
20
12.083500
11
75.629000
21
12.001400
0
LINE
8
Layer 1
10
75.629000
20
12.001400
11
75.629000
21
11.366400
0
LINE
8
Layer 1
10
75.629000
20
11.366400
11
75.618200
21
11.284200
0
LINE
8
Layer 1
10
75.618200
20
11.284200
11
75.571600
21
11.184200
0
LINE
8
Layer 1
10
75.571600
20
11.184200
11
75.493600
21
11.106300
0
LINE
8
Layer 1
10
75.493600
20
11.106300
11
75.393700
21
11.059700
0
LINE
8
Layer 1
10
75.393700
20
11.059700
11
75.311500
21
11.048900
0
LINE
8
Layer 1
10
75.311500
20
11.048900
11
73.660500
21
11.048900
0
LINE
8
Layer 1
10
73.660500
20
11.048900
11
73.578300
21
11.059700
0
LINE
8
Layer 1
10
73.578300
20
11.059700
11
73.478400
21
11.106300
0
LINE
8
Layer 1
10
73.478400
20
11.106300
11
73.400400
21
11.184200
0
LINE
8
Layer 1
10
73.400400
20
11.184200
11
73.353800
21
11.284200
0
LINE
8
Layer 1
10
73.353800
20
11.284200
11
73.343000
21
11.366400
0
LINE
8
Layer 1
10
73.343000
20
11.366400
11
73.343000
21
12.001400
0
LINE
8
Layer 1
10
73.343000
20
12.001400
11
73.353800
21
12.083500
0
LINE
8
Layer 1
10
73.353800
20
12.083500
11
73.400400
21
12.183500
0
LINE
8
Layer 1
10
73.400400
20
12.183500
11
73.478400
21
12.261400
0
LINE
8
Layer 1
10
73.478400
20
12.261400
11
73.578300
21
12.308000
0
LINE
8
Layer 1
10
73.578300
20
12.308000
11
73.660500
21
12.318900
0
LINE
8
Layer 1
10
73.660500
20
12.318900
11
75.311500
21
12.318900
0
LINE
8
Layer 1
10
75.311500
20
10.413900
11
75.393700
21
10.403000
0
LINE
8
Layer 1
10
75.393700
20
10.403000
11
75.493600
21
10.356400
0
LINE
8
Layer 1
10
75.493600
20
10.356400
11
75.571600
21
10.278500
0
LINE
8
Layer 1
10
75.571600
20
10.278500
11
75.618200
21
10.178500
0
LINE
8
Layer 1
10
75.618200
20
10.178500
11
75.629000
21
10.096300
0
LINE
8
Layer 1
10
75.629000
20
10.096300
11
75.629000
21
9.461400
0
LINE
8
Layer 1
10
75.629000
20
9.461400
11
75.618200
21
9.379200
0
LINE
8
Layer 1
10
75.618200
20
9.379200
11
75.571600
21
9.279200
0
LINE
8
Layer 1
10
75.571600
20
9.279200
11
75.493600
21
9.201300
0
LINE
8
Layer 1
10
75.493600
20
9.201300
11
75.393700
21
9.154700
0
LINE
8
Layer 1
10
75.393700
20
9.154700
11
75.311500
21
9.143800
0
LINE
8
Layer 1
10
75.311500
20
9.143800
11
73.660500
21
9.143800
0
LINE
8
Layer 1
10
73.660500
20
9.143800
11
73.578300
21
9.154700
0
LINE
8
Layer 1
10
73.578300
20
9.154700
11
73.478400
21
9.201300
0
LINE
8
Layer 1
10
73.478400
20
9.201300
11
73.400400
21
9.279200
0
LINE
8
Layer 1
10
73.400400
20
9.279200
11
73.353800
21
9.379200
0
LINE
8
Layer 1
10
73.353800
20
9.379200
11
73.343000
21
9.461400
0
LINE
8
Layer 1
10
73.343000
20
9.461400
11
73.343000
21
10.096300
0
LINE
8
Layer 1
10
73.343000
20
10.096300
11
73.353800
21
10.178500
0
LINE
8
Layer 1
10
73.353800
20
10.178500
11
73.400400
21
10.278500
0
LINE
8
Layer 1
10
73.400400
20
10.278500
11
73.478400
21
10.356400
0
LINE
8
Layer 1
10
73.478400
20
10.356400
11
73.578300
21
10.403000
0
LINE
8
Layer 1
10
73.578300
20
10.403000
11
73.660500
21
10.413900
0
LINE
8
Layer 1
10
73.660500
20
10.413900
11
75.311500
21
10.413900
0
LINE
8
Layer 1
10
26.860000
20
16.386600
11
26.783500
21
16.401800
0
LINE
8
Layer 1
10
26.783500
20
16.401800
11
26.718600
21
16.445200
0
LINE
8
Layer 1
10
26.718600
20
16.445200
11
26.675200
21
16.510100
0
LINE
8
Layer 1
10
26.675200
20
16.510100
11
26.660000
21
16.586600
0
LINE
8
Layer 1
10
26.660000
20
16.586600
11
26.660000
21
16.986600
0
LINE
8
Layer 1
10
26.660000
20
16.986600
11
26.675200
21
17.063100
0
LINE
8
Layer 1
10
26.675200
20
17.063100
11
26.718600
21
17.128000
0
LINE
8
Layer 1
10
26.718600
20
17.128000
11
26.783500
21
17.171400
0
LINE
8
Layer 1
10
26.783500
20
17.171400
11
26.860000
21
17.186600
0
LINE
8
Layer 1
10
26.860000
20
17.186600
11
27.410000
21
17.186600
0
LINE
8
Layer 1
10
27.410000
20
17.186600
11
27.486500
21
17.171400
0
LINE
8
Layer 1
10
27.486500
20
17.171400
11
27.551400
21
17.128000
0
LINE
8
Layer 1
10
27.551400
20
17.128000
11
27.594800
21
17.063100
0
LINE
8
Layer 1
10
27.594800
20
17.063100
11
27.610000
21
16.986600
0
LINE
8
Layer 1
10
27.610000
20
16.986600
11
27.610000
21
16.586600
0
LINE
8
Layer 1
10
27.610000
20
16.586600
11
27.594800
21
16.510100
0
LINE
8
Layer 1
10
27.594800
20
16.510100
11
27.551400
21
16.445200
0
LINE
8
Layer 1
10
27.551400
20
16.445200
11
27.486500
21
16.401800
0
LINE
8
Layer 1
10
27.486500
20
16.401800
11
27.410000
21
16.386600
0
LINE
8
Layer 1
10
27.410000
20
16.386600
11
26.860000
21
16.386600
0
LINE
8
Layer 1
10
26.860000
20
18.036600
11
26.783500
21
18.051800
0
LINE
8
Layer 1
10
26.783500
20
18.051800
11
26.718600
21
18.095200
0
LINE
8
Layer 1
10
26.718600
20
18.095200
11
26.675200
21
18.160100
0
LINE
8
Layer 1
10
26.675200
20
18.160100
11
26.660000
21
18.236600
0
LINE
8
Layer 1
10
26.660000
20
18.236600
11
26.660000
21
18.636600
0
LINE
8
Layer 1
10
26.660000
20
18.636600
11
26.675200
21
18.713100
0
LINE
8
Layer 1
10
26.675200
20
18.713100
11
26.718600
21
18.778000
0
LINE
8
Layer 1
10
26.718600
20
18.778000
11
26.783500
21
18.821400
0
LINE
8
Layer 1
10
26.783500
20
18.821400
11
26.860000
21
18.836600
0
LINE
8
Layer 1
10
26.860000
20
18.836600
11
27.410000
21
18.836600
0
LINE
8
Layer 1
10
27.410000
20
18.836600
11
27.486500
21
18.821400
0
LINE
8
Layer 1
10
27.486500
20
18.821400
11
27.551400
21
18.778000
0
LINE
8
Layer 1
10
27.551400
20
18.778000
11
27.594800
21
18.713100
0
LINE
8
Layer 1
10
27.594800
20
18.713100
11
27.610000
21
18.636600
0
LINE
8
Layer 1
10
27.610000
20
18.636600
11
27.610000
21
18.236600
0
LINE
8
Layer 1
10
27.610000
20
18.236600
11
27.594800
21
18.160100
0
LINE
8
Layer 1
10
27.594800
20
18.160100
11
27.551400
21
18.095200
0
LINE
8
Layer 1
10
27.551400
20
18.095200
11
27.486500
21
18.051800
0
LINE
8
Layer 1
10
27.486500
20
18.051800
11
27.410000
21
18.036600
0
LINE
8
Layer 1
10
27.410000
20
18.036600
11
26.860000
21
18.036600
0
LINE
8
Layer 1
10
60.605000
20
40.321600
11
60.587900
21
40.235500
0
LINE
8
Layer 1
10
60.587900
20
40.235500
11
60.539100
21
40.162500
0
LINE
8
Layer 1
10
60.539100
20
40.162500
11
60.466100
21
40.113700
0
LINE
8
Layer 1
10
60.466100
20
40.113700
11
60.380000
21
40.096600
0
LINE
8
Layer 1
10
60.380000
20
40.096600
11
59.930000
21
40.096600
0
LINE
8
Layer 1
10
59.930000
20
40.096600
11
59.843900
21
40.113700
0
LINE
8
Layer 1
10
59.843900
20
40.113700
11
59.770900
21
40.162500
0
LINE
8
Layer 1
10
59.770900
20
40.162500
11
59.722100
21
40.235500
0
LINE
8
Layer 1
10
59.722100
20
40.235500
11
59.705000
21
40.321600
0
LINE
8
Layer 1
10
59.705000
20
40.321600
11
59.705000
21
40.821600
0
LINE
8
Layer 1
10
59.705000
20
40.821600
11
59.722100
21
40.907700
0
LINE
8
Layer 1
10
59.722100
20
40.907700
11
59.770900
21
40.980700
0
LINE
8
Layer 1
10
59.770900
20
40.980700
11
59.843900
21
41.029500
0
LINE
8
Layer 1
10
59.843900
20
41.029500
11
59.930000
21
41.046600
0
LINE
8
Layer 1
10
59.930000
20
41.046600
11
60.380000
21
41.046600
0
LINE
8
Layer 1
10
60.380000
20
41.046600
11
60.466100
21
41.029500
0
LINE
8
Layer 1
10
60.466100
20
41.029500
11
60.539100
21
40.980700
0
LINE
8
Layer 1
10
60.539100
20
40.980700
11
60.587900
21
40.907700
0
LINE
8
Layer 1
10
60.587900
20
40.907700
11
60.605000
21
40.821600
0
LINE
8
Layer 1
10
60.605000
20
40.821600
11
60.605000
21
40.321600
0
LINE
8
Layer 1
10
59.055000
20
40.321600
11
59.037900
21
40.235500
0
LINE
8
Layer 1
10
59.037900
20
40.235500
11
58.989100
21
40.162500
0
LINE
8
Layer 1
10
58.989100
20
40.162500
11
58.916100
21
40.113700
0
LINE
8
Layer 1
10
58.916100
20
40.113700
11
58.830000
21
40.096600
0
LINE
8
Layer 1
10
58.830000
20
40.096600
11
58.380000
21
40.096600
0
LINE
8
Layer 1
10
58.380000
20
40.096600
11
58.293900
21
40.113700
0
LINE
8
Layer 1
10
58.293900
20
40.113700
11
58.220900
21
40.162500
0
LINE
8
Layer 1
10
58.220900
20
40.162500
11
58.172100
21
40.235500
0
LINE
8
Layer 1
10
58.172100
20
40.235500
11
58.155000
21
40.321600
0
LINE
8
Layer 1
10
58.155000
20
40.321600
11
58.155000
21
40.821600
0
LINE
8
Layer 1
10
58.155000
20
40.821600
11
58.172100
21
40.907700
0
LINE
8
Layer 1
10
58.172100
20
40.907700
11
58.220900
21
40.980700
0
LINE
8
Layer 1
10
58.220900
20
40.980700
11
58.293900
21
41.029500
0
LINE
8
Layer 1
10
58.293900
20
41.029500
11
58.380000
21
41.046600
0
LINE
8
Layer 1
10
58.380000
20
41.046600
11
58.830000
21
41.046600
0
LINE
8
Layer 1
10
58.830000
20
41.046600
11
58.916100
21
41.029500
0
LINE
8
Layer 1
10
58.916100
20
41.029500
11
58.989100
21
40.980700
0
LINE
8
Layer 1
10
58.989100
20
40.980700
11
59.037900
21
40.907700
0
LINE
8
Layer 1
10
59.037900
20
40.907700
11
59.055000
21
40.821600
0
LINE
8
Layer 1
10
59.055000
20
40.821600
11
59.055000
21
40.321600
0
LINE
8
Layer 1
10
43.195000
20
35.741600
11
43.212100
21
35.827700
0
LINE
8
Layer 1
10
43.212100
20
35.827700
11
43.260900
21
35.900700
0
LINE
8
Layer 1
10
43.260900
20
35.900700
11
43.333900
21
35.949500
0
LINE
8
Layer 1
10
43.333900
20
35.949500
11
43.420000
21
35.966600
0
LINE
8
Layer 1
10
43.420000
20
35.966600
11
43.870000
21
35.966600
0
LINE
8
Layer 1
10
43.870000
20
35.966600
11
43.956100
21
35.949500
0
LINE
8
Layer 1
10
43.956100
20
35.949500
11
44.029100
21
35.900700
0
LINE
8
Layer 1
10
44.029100
20
35.900700
11
44.077900
21
35.827700
0
LINE
8
Layer 1
10
44.077900
20
35.827700
11
44.095000
21
35.741600
0
LINE
8
Layer 1
10
44.095000
20
35.741600
11
44.095000
21
35.241600
0
LINE
8
Layer 1
10
44.095000
20
35.241600
11
44.077900
21
35.155500
0
LINE
8
Layer 1
10
44.077900
20
35.155500
11
44.029100
21
35.082500
0
LINE
8
Layer 1
10
44.029100
20
35.082500
11
43.956100
21
35.033700
0
LINE
8
Layer 1
10
43.956100
20
35.033700
11
43.870000
21
35.016600
0
LINE
8
Layer 1
10
43.870000
20
35.016600
11
43.420000
21
35.016600
0
LINE
8
Layer 1
10
43.420000
20
35.016600
11
43.333900
21
35.033700
0
LINE
8
Layer 1
10
43.333900
20
35.033700
11
43.260900
21
35.082500
0
LINE
8
Layer 1
10
43.260900
20
35.082500
11
43.212100
21
35.155500
0
LINE
8
Layer 1
10
43.212100
20
35.155500
11
43.195000
21
35.241600
0
LINE
8
Layer 1
10
43.195000
20
35.241600
11
43.195000
21
35.741600
0
LINE
8
Layer 1
10
44.745000
20
35.741600
11
44.762100
21
35.827700
0
LINE
8
Layer 1
10
44.762100
20
35.827700
11
44.810900
21
35.900700
0
LINE
8
Layer 1
10
44.810900
20
35.900700
11
44.883900
21
35.949500
0
LINE
8
Layer 1
10
44.883900
20
35.949500
11
44.970000
21
35.966600
0
LINE
8
Layer 1
10
44.970000
20
35.966600
11
45.420000
21
35.966600
0
LINE
8
Layer 1
10
45.420000
20
35.966600
11
45.506100
21
35.949500
0
LINE
8
Layer 1
10
45.506100
20
35.949500
11
45.579100
21
35.900700
0
LINE
8
Layer 1
10
45.579100
20
35.900700
11
45.627900
21
35.827700
0
LINE
8
Layer 1
10
45.627900
20
35.827700
11
45.645000
21
35.741600
0
LINE
8
Layer 1
10
45.645000
20
35.741600
11
45.645000
21
35.241600
0
LINE
8
Layer 1
10
45.645000
20
35.241600
11
45.627900
21
35.155500
0
LINE
8
Layer 1
10
45.627900
20
35.155500
11
45.579100
21
35.082500
0
LINE
8
Layer 1
10
45.579100
20
35.082500
11
45.506100
21
35.033700
0
LINE
8
Layer 1
10
45.506100
20
35.033700
11
45.420000
21
35.016600
0
LINE
8
Layer 1
10
45.420000
20
35.016600
11
44.970000
21
35.016600
0
LINE
8
Layer 1
10
44.970000
20
35.016600
11
44.883900
21
35.033700
0
LINE
8
Layer 1
10
44.883900
20
35.033700
11
44.810900
21
35.082500
0
LINE
8
Layer 1
10
44.810900
20
35.082500
11
44.762100
21
35.155500
0
LINE
8
Layer 1
10
44.762100
20
35.155500
11
44.745000
21
35.241600
0
LINE
8
Layer 1
10
44.745000
20
35.241600
11
44.745000
21
35.741600
0
LINE
8
Layer 1
10
18.645000
20
6.006600
11
18.629800
21
5.930100
0
LINE
8
Layer 1
10
18.629800
20
5.930100
11
18.586400
21
5.865200
0
LINE
8
Layer 1
10
18.586400
20
5.865200
11
18.521500
21
5.821800
0
LINE
8
Layer 1
10
18.521500
20
5.821800
11
18.445000
21
5.806600
0
LINE
8
Layer 1
10
18.445000
20
5.806600
11
18.045000
21
5.806600
0
LINE
8
Layer 1
10
18.045000
20
5.806600
11
17.968500
21
5.821800
0
LINE
8
Layer 1
10
17.968500
20
5.821800
11
17.903600
21
5.865200
0
LINE
8
Layer 1
10
17.903600
20
5.865200
11
17.860200
21
5.930100
0
LINE
8
Layer 1
10
17.860200
20
5.930100
11
17.845000
21
6.006600
0
LINE
8
Layer 1
10
17.845000
20
6.006600
11
17.845000
21
6.556600
0
LINE
8
Layer 1
10
17.845000
20
6.556600
11
17.860200
21
6.633100
0
LINE
8
Layer 1
10
17.860200
20
6.633100
11
17.903600
21
6.698000
0
LINE
8
Layer 1
10
17.903600
20
6.698000
11
17.968500
21
6.741400
0
LINE
8
Layer 1
10
17.968500
20
6.741400
11
18.045000
21
6.756600
0
LINE
8
Layer 1
10
18.045000
20
6.756600
11
18.445000
21
6.756600
0
LINE
8
Layer 1
10
18.445000
20
6.756600
11
18.521500
21
6.741400
0
LINE
8
Layer 1
10
18.521500
20
6.741400
11
18.586400
21
6.698000
0
LINE
8
Layer 1
10
18.586400
20
6.698000
11
18.629800
21
6.633100
0
LINE
8
Layer 1
10
18.629800
20
6.633100
11
18.645000
21
6.556600
0
LINE
8
Layer 1
10
18.645000
20
6.556600
11
18.645000
21
6.006600
0
LINE
8
Layer 1
10
16.995000
20
6.006600
11
16.979800
21
5.930100
0
LINE
8
Layer 1
10
16.979800
20
5.930100
11
16.936400
21
5.865200
0
LINE
8
Layer 1
10
16.936400
20
5.865200
11
16.871500
21
5.821800
0
LINE
8
Layer 1
10
16.871500
20
5.821800
11
16.795000
21
5.806600
0
LINE
8
Layer 1
10
16.795000
20
5.806600
11
16.395000
21
5.806600
0
LINE
8
Layer 1
10
16.395000
20
5.806600
11
16.318500
21
5.821800
0
LINE
8
Layer 1
10
16.318500
20
5.821800
11
16.253600
21
5.865200
0
LINE
8
Layer 1
10
16.253600
20
5.865200
11
16.210200
21
5.930100
0
LINE
8
Layer 1
10
16.210200
20
5.930100
11
16.195000
21
6.006600
0
LINE
8
Layer 1
10
16.195000
20
6.006600
11
16.195000
21
6.556600
0
LINE
8
Layer 1
10
16.195000
20
6.556600
11
16.210200
21
6.633100
0
LINE
8
Layer 1
10
16.210200
20
6.633100
11
16.253600
21
6.698000
0
LINE
8
Layer 1
10
16.253600
20
6.698000
11
16.318500
21
6.741400
0
LINE
8
Layer 1
10
16.318500
20
6.741400
11
16.395000
21
6.756600
0
LINE
8
Layer 1
10
16.395000
20
6.756600
11
16.795000
21
6.756600
0
LINE
8
Layer 1
10
16.795000
20
6.756600
11
16.871500
21
6.741400
0
LINE
8
Layer 1
10
16.871500
20
6.741400
11
16.936400
21
6.698000
0
LINE
8
Layer 1
10
16.936400
20
6.698000
11
16.979800
21
6.633100
0
LINE
8
Layer 1
10
16.979800
20
6.633100
11
16.995000
21
6.556600
0
LINE
8
Layer 1
10
16.995000
20
6.556600
11
16.995000
21
6.006600
0
LINE
8
Layer 1
10
44.985000
20
43.081600
11
47.385000
21
43.081600
0
LINE
8
Layer 1
10
47.385000
20
43.081600
11
47.385000
21
41.181600
0
LINE
8
Layer 1
10
47.385000
20
41.181600
11
44.985000
21
41.181600
0
LINE
8
Layer 1
10
44.985000
20
41.181600
11
44.985000
21
43.081600
0
LINE
8
Layer 1
10
44.985000
20
38.981600
11
47.385000
21
38.981600
0
LINE
8
Layer 1
10
47.385000
20
38.981600
11
47.385000
21
37.081600
0
LINE
8
Layer 1
10
47.385000
20
37.081600
11
44.985000
21
37.081600
0
LINE
8
Layer 1
10
44.985000
20
37.081600
11
44.985000
21
38.981600
0
LINE
8
Layer 1
10
42.125000
20
38.076600
11
42.038900
21
38.093700
0
LINE
8
Layer 1
10
42.038900
20
38.093700
11
41.965900
21
38.142500
0
LINE
8
Layer 1
10
41.965900
20
38.142500
11
41.917100
21
38.215500
0
LINE
8
Layer 1
10
41.917100
20
38.215500
11
41.900000
21
38.301600
0
LINE
8
Layer 1
10
41.900000
20
38.301600
11
41.900000
21
38.751600
0
LINE
8
Layer 1
10
41.900000
20
38.751600
11
41.917100
21
38.837700
0
LINE
8
Layer 1
10
41.917100
20
38.837700
11
41.965900
21
38.910700
0
LINE
8
Layer 1
10
41.965900
20
38.910700
11
42.038900
21
38.959500
0
LINE
8
Layer 1
10
42.038900
20
38.959500
11
42.125000
21
38.976600
0
LINE
8
Layer 1
10
42.125000
20
38.976600
11
42.625000
21
38.976600
0
LINE
8
Layer 1
10
42.625000
20
38.976600
11
42.711100
21
38.959500
0
LINE
8
Layer 1
10
42.711100
20
38.959500
11
42.784100
21
38.910700
0
LINE
8
Layer 1
10
42.784100
20
38.910700
11
42.832900
21
38.837700
0
LINE
8
Layer 1
10
42.832900
20
38.837700
11
42.850000
21
38.751600
0
LINE
8
Layer 1
10
42.850000
20
38.751600
11
42.850000
21
38.301600
0
LINE
8
Layer 1
10
42.850000
20
38.301600
11
42.832900
21
38.215500
0
LINE
8
Layer 1
10
42.832900
20
38.215500
11
42.784100
21
38.142500
0
LINE
8
Layer 1
10
42.784100
20
38.142500
11
42.711100
21
38.093700
0
LINE
8
Layer 1
10
42.711100
20
38.093700
11
42.625000
21
38.076600
0
LINE
8
Layer 1
10
42.625000
20
38.076600
11
42.125000
21
38.076600
0
LINE
8
Layer 1
10
42.125000
20
39.626600
11
42.038900
21
39.643700
0
LINE
8
Layer 1
10
42.038900
20
39.643700
11
41.965900
21
39.692500
0
LINE
8
Layer 1
10
41.965900
20
39.692500
11
41.917100
21
39.765500
0
LINE
8
Layer 1
10
41.917100
20
39.765500
11
41.900000
21
39.851600
0
LINE
8
Layer 1
10
41.900000
20
39.851600
11
41.900000
21
40.301600
0
LINE
8
Layer 1
10
41.900000
20
40.301600
11
41.917100
21
40.387700
0
LINE
8
Layer 1
10
41.917100
20
40.387700
11
41.965900
21
40.460700
0
LINE
8
Layer 1
10
41.965900
20
40.460700
11
42.038900
21
40.509500
0
LINE
8
Layer 1
10
42.038900
20
40.509500
11
42.125000
21
40.526600
0
LINE
8
Layer 1
10
42.125000
20
40.526600
11
42.625000
21
40.526600
0
LINE
8
Layer 1
10
42.625000
20
40.526600
11
42.711100
21
40.509500
0
LINE
8
Layer 1
10
42.711100
20
40.509500
11
42.784100
21
40.460700
0
LINE
8
Layer 1
10
42.784100
20
40.460700
11
42.832900
21
40.387700
0
LINE
8
Layer 1
10
42.832900
20
40.387700
11
42.850000
21
40.301600
0
LINE
8
Layer 1
10
42.850000
20
40.301600
11
42.850000
21
39.851600
0
LINE
8
Layer 1
10
42.850000
20
39.851600
11
42.832900
21
39.765500
0
LINE
8
Layer 1
10
42.832900
20
39.765500
11
42.784100
21
39.692500
0
LINE
8
Layer 1
10
42.784100
20
39.692500
11
42.711100
21
39.643700
0
LINE
8
Layer 1
10
42.711100
20
39.643700
11
42.625000
21
39.626600
0
LINE
8
Layer 1
10
42.625000
20
39.626600
11
42.125000
21
39.626600
0
LINE
8
Layer 1
10
39.660000
20
36.295400
11
39.654800
21
36.269000
0
LINE
8
Layer 1
10
39.654800
20
36.269000
11
39.639900
21
36.246700
0
LINE
8
Layer 1
10
39.639900
20
36.246700
11
39.617600
21
36.231800
0
LINE
8
Layer 1
10
39.617600
20
36.231800
11
39.591200
21
36.226600
0
LINE
8
Layer 1
10
39.591200
20
36.226600
11
38.258700
21
36.226600
0
LINE
8
Layer 1
10
38.258700
20
36.226600
11
38.232400
21
36.231800
0
LINE
8
Layer 1
10
38.232400
20
36.231800
11
38.210100
21
36.246700
0
LINE
8
Layer 1
10
38.210100
20
36.246700
11
38.195200
21
36.269000
0
LINE
8
Layer 1
10
38.195200
20
36.269000
11
38.190000
21
36.295400
0
LINE
8
Layer 1
10
38.190000
20
36.295400
11
38.190000
21
36.707800
0
LINE
8
Layer 1
10
38.190000
20
36.707800
11
38.195200
21
36.734200
0
LINE
8
Layer 1
10
38.195200
20
36.734200
11
38.210100
21
36.756500
0
LINE
8
Layer 1
10
38.210100
20
36.756500
11
38.232400
21
36.771400
0
LINE
8
Layer 1
10
38.232400
20
36.771400
11
38.258700
21
36.776600
0
LINE
8
Layer 1
10
38.258700
20
36.776600
11
39.591200
21
36.776600
0
LINE
8
Layer 1
10
39.591200
20
36.776600
11
39.617600
21
36.771400
0
LINE
8
Layer 1
10
39.617600
20
36.771400
11
39.639900
21
36.756500
0
LINE
8
Layer 1
10
39.639900
20
36.756500
11
39.654800
21
36.734200
0
LINE
8
Layer 1
10
39.654800
20
36.734200
11
39.660000
21
36.707800
0
LINE
8
Layer 1
10
39.660000
20
36.707800
11
39.660000
21
36.295400
0
LINE
8
Layer 1
10
39.660000
20
37.095400
11
39.654800
21
37.069000
0
LINE
8
Layer 1
10
39.654800
20
37.069000
11
39.639900
21
37.046700
0
LINE
8
Layer 1
10
39.639900
20
37.046700
11
39.617600
21
37.031800
0
LINE
8
Layer 1
10
39.617600
20
37.031800
11
39.591200
21
37.026600
0
LINE
8
Layer 1
10
39.591200
20
37.026600
11
38.258700
21
37.026600
0
LINE
8
Layer 1
10
38.258700
20
37.026600
11
38.232400
21
37.031800
0
LINE
8
Layer 1
10
38.232400
20
37.031800
11
38.210100
21
37.046700
0
LINE
8
Layer 1
10
38.210100
20
37.046700
11
38.195200
21
37.069000
0
LINE
8
Layer 1
10
38.195200
20
37.069000
11
38.190000
21
37.095400
0
LINE
8
Layer 1
10
38.190000
20
37.095400
11
38.190000
21
37.507800
0
LINE
8
Layer 1
10
38.190000
20
37.507800
11
38.195200
21
37.534200
0
LINE
8
Layer 1
10
38.195200
20
37.534200
11
38.210100
21
37.556500
0
LINE
8
Layer 1
10
38.210100
20
37.556500
11
38.232400
21
37.571400
0
LINE
8
Layer 1
10
38.232400
20
37.571400
11
38.258700
21
37.576600
0
LINE
8
Layer 1
10
38.258700
20
37.576600
11
39.591200
21
37.576600
0
LINE
8
Layer 1
10
39.591200
20
37.576600
11
39.617600
21
37.571400
0
LINE
8
Layer 1
10
39.617600
20
37.571400
11
39.639900
21
37.556500
0
LINE
8
Layer 1
10
39.639900
20
37.556500
11
39.654800
21
37.534200
0
LINE
8
Layer 1
10
39.654800
20
37.534200
11
39.660000
21
37.507800
0
LINE
8
Layer 1
10
39.660000
20
37.507800
11
39.660000
21
37.095400
0
LINE
8
Layer 1
10
39.660000
20
37.895400
11
39.654800
21
37.869000
0
LINE
8
Layer 1
10
39.654800
20
37.869000
11
39.639900
21
37.846700
0
LINE
8
Layer 1
10
39.639900
20
37.846700
11
39.617600
21
37.831800
0
LINE
8
Layer 1
10
39.617600
20
37.831800
11
39.591200
21
37.826600
0
LINE
8
Layer 1
10
39.591200
20
37.826600
11
38.258700
21
37.826600
0
LINE
8
Layer 1
10
38.258700
20
37.826600
11
38.232400
21
37.831800
0
LINE
8
Layer 1
10
38.232400
20
37.831800
11
38.210100
21
37.846700
0
LINE
8
Layer 1
10
38.210100
20
37.846700
11
38.195200
21
37.869000
0
LINE
8
Layer 1
10
38.195200
20
37.869000
11
38.190000
21
37.895400
0
LINE
8
Layer 1
10
38.190000
20
37.895400
11
38.190000
21
38.307900
0
LINE
8
Layer 1
10
38.190000
20
38.307900
11
38.195200
21
38.334200
0
LINE
8
Layer 1
10
38.195200
20
38.334200
11
38.210100
21
38.356500
0
LINE
8
Layer 1
10
38.210100
20
38.356500
11
38.232400
21
38.371400
0
LINE
8
Layer 1
10
38.232400
20
38.371400
11
38.258700
21
38.376600
0
LINE
8
Layer 1
10
38.258700
20
38.376600
11
39.591200
21
38.376600
0
LINE
8
Layer 1
10
39.591200
20
38.376600
11
39.617600
21
38.371400
0
LINE
8
Layer 1
10
39.617600
20
38.371400
11
39.639900
21
38.356500
0
LINE
8
Layer 1
10
39.639900
20
38.356500
11
39.654800
21
38.334200
0
LINE
8
Layer 1
10
39.654800
20
38.334200
11
39.660000
21
38.307900
0
LINE
8
Layer 1
10
39.660000
20
38.307900
11
39.660000
21
37.895400
0
LINE
8
Layer 1
10
39.660000
20
38.695300
11
39.654800
21
38.669000
0
LINE
8
Layer 1
10
39.654800
20
38.669000
11
39.639900
21
38.646700
0
LINE
8
Layer 1
10
39.639900
20
38.646700
11
39.617600
21
38.631800
0
LINE
8
Layer 1
10
39.617600
20
38.631800
11
39.591200
21
38.626600
0
LINE
8
Layer 1
10
39.591200
20
38.626600
11
38.258700
21
38.626600
0
LINE
8
Layer 1
10
38.258700
20
38.626600
11
38.232400
21
38.631800
0
LINE
8
Layer 1
10
38.232400
20
38.631800
11
38.210100
21
38.646700
0
LINE
8
Layer 1
10
38.210100
20
38.646700
11
38.195200
21
38.669000
0
LINE
8
Layer 1
10
38.195200
20
38.669000
11
38.190000
21
38.695300
0
LINE
8
Layer 1
10
38.190000
20
38.695300
11
38.190000
21
39.107900
0
LINE
8
Layer 1
10
38.190000
20
39.107900
11
38.195200
21
39.134200
0
LINE
8
Layer 1
10
38.195200
20
39.134200
11
38.210100
21
39.156500
0
LINE
8
Layer 1
10
38.210100
20
39.156500
11
38.232400
21
39.171400
0
LINE
8
Layer 1
10
38.232400
20
39.171400
11
38.258700
21
39.176600
0
LINE
8
Layer 1
10
38.258700
20
39.176600
11
39.591200
21
39.176600
0
LINE
8
Layer 1
10
39.591200
20
39.176600
11
39.617600
21
39.171400
0
LINE
8
Layer 1
10
39.617600
20
39.171400
11
39.639900
21
39.156500
0
LINE
8
Layer 1
10
39.639900
20
39.156500
11
39.654800
21
39.134200
0
LINE
8
Layer 1
10
39.654800
20
39.134200
11
39.660000
21
39.107900
0
LINE
8
Layer 1
10
39.660000
20
39.107900
11
39.660000
21
38.695300
0
LINE
8
Layer 1
10
39.660000
20
39.495400
11
39.654800
21
39.469000
0
LINE
8
Layer 1
10
39.654800
20
39.469000
11
39.639900
21
39.446700
0
LINE
8
Layer 1
10
39.639900
20
39.446700
11
39.617600
21
39.431800
0
LINE
8
Layer 1
10
39.617600
20
39.431800
11
39.591200
21
39.426600
0
LINE
8
Layer 1
10
39.591200
20
39.426600
11
38.258700
21
39.426600
0
LINE
8
Layer 1
10
38.258700
20
39.426600
11
38.232400
21
39.431800
0
LINE
8
Layer 1
10
38.232400
20
39.431800
11
38.210100
21
39.446700
0
LINE
8
Layer 1
10
38.210100
20
39.446700
11
38.195200
21
39.469000
0
LINE
8
Layer 1
10
38.195200
20
39.469000
11
38.190000
21
39.495400
0
LINE
8
Layer 1
10
38.190000
20
39.495400
11
38.190000
21
39.907900
0
LINE
8
Layer 1
10
38.190000
20
39.907900
11
38.195200
21
39.934200
0
LINE
8
Layer 1
10
38.195200
20
39.934200
11
38.210100
21
39.956500
0
LINE
8
Layer 1
10
38.210100
20
39.956500
11
38.232400
21
39.971400
0
LINE
8
Layer 1
10
38.232400
20
39.971400
11
38.258700
21
39.976600
0
LINE
8
Layer 1
10
38.258700
20
39.976600
11
39.591200
21
39.976600
0
LINE
8
Layer 1
10
39.591200
20
39.976600
11
39.617600
21
39.971400
0
LINE
8
Layer 1
10
39.617600
20
39.971400
11
39.639900
21
39.956500
0
LINE
8
Layer 1
10
39.639900
20
39.956500
11
39.654800
21
39.934200
0
LINE
8
Layer 1
10
39.654800
20
39.934200
11
39.660000
21
39.907900
0
LINE
8
Layer 1
10
39.660000
20
39.907900
11
39.660000
21
39.495400
0
LINE
8
Layer 1
10
39.660000
20
40.295400
11
39.654800
21
40.269000
0
LINE
8
Layer 1
10
39.654800
20
40.269000
11
39.639900
21
40.246700
0
LINE
8
Layer 1
10
39.639900
20
40.246700
11
39.617600
21
40.231800
0
LINE
8
Layer 1
10
39.617600
20
40.231800
11
39.591200
21
40.226600
0
LINE
8
Layer 1
10
39.591200
20
40.226600
11
38.258700
21
40.226600
0
LINE
8
Layer 1
10
38.258700
20
40.226600
11
38.232400
21
40.231800
0
LINE
8
Layer 1
10
38.232400
20
40.231800
11
38.210100
21
40.246700
0
LINE
8
Layer 1
10
38.210100
20
40.246700
11
38.195200
21
40.269000
0
LINE
8
Layer 1
10
38.195200
20
40.269000
11
38.190000
21
40.295400
0
LINE
8
Layer 1
10
38.190000
20
40.295400
11
38.190000
21
40.707900
0
LINE
8
Layer 1
10
38.190000
20
40.707900
11
38.195200
21
40.734200
0
LINE
8
Layer 1
10
38.195200
20
40.734200
11
38.210100
21
40.756500
0
LINE
8
Layer 1
10
38.210100
20
40.756500
11
38.232400
21
40.771400
0
LINE
8
Layer 1
10
38.232400
20
40.771400
11
38.258700
21
40.776600
0
LINE
8
Layer 1
10
38.258700
20
40.776600
11
39.591200
21
40.776600
0
LINE
8
Layer 1
10
39.591200
20
40.776600
11
39.617600
21
40.771400
0
LINE
8
Layer 1
10
39.617600
20
40.771400
11
39.639900
21
40.756500
0
LINE
8
Layer 1
10
39.639900
20
40.756500
11
39.654800
21
40.734200
0
LINE
8
Layer 1
10
39.654800
20
40.734200
11
39.660000
21
40.707900
0
LINE
8
Layer 1
10
39.660000
20
40.707900
11
39.660000
21
40.295400
0
LINE
8
Layer 1
10
39.660000
20
41.095400
11
39.654800
21
41.069000
0
LINE
8
Layer 1
10
39.654800
20
41.069000
11
39.639900
21
41.046700
0
LINE
8
Layer 1
10
39.639900
20
41.046700
11
39.617600
21
41.031800
0
LINE
8
Layer 1
10
39.617600
20
41.031800
11
39.591200
21
41.026600
0
LINE
8
Layer 1
10
39.591200
20
41.026600
11
38.258700
21
41.026600
0
LINE
8
Layer 1
10
38.258700
20
41.026600
11
38.232400
21
41.031800
0
LINE
8
Layer 1
10
38.232400
20
41.031800
11
38.210100
21
41.046700
0
LINE
8
Layer 1
10
38.210100
20
41.046700
11
38.195200
21
41.069000
0
LINE
8
Layer 1
10
38.195200
20
41.069000
11
38.190000
21
41.095400
0
LINE
8
Layer 1
10
38.190000
20
41.095400
11
38.190000
21
41.507800
0
LINE
8
Layer 1
10
38.190000
20
41.507800
11
38.195200
21
41.534200
0
LINE
8
Layer 1
10
38.195200
20
41.534200
11
38.210100
21
41.556500
0
LINE
8
Layer 1
10
38.210100
20
41.556500
11
38.232400
21
41.571400
0
LINE
8
Layer 1
10
38.232400
20
41.571400
11
38.258700
21
41.576600
0
LINE
8
Layer 1
10
38.258700
20
41.576600
11
39.591200
21
41.576600
0
LINE
8
Layer 1
10
39.591200
20
41.576600
11
39.617600
21
41.571400
0
LINE
8
Layer 1
10
39.617600
20
41.571400
11
39.639900
21
41.556500
0
LINE
8
Layer 1
10
39.639900
20
41.556500
11
39.654800
21
41.534200
0
LINE
8
Layer 1
10
39.654800
20
41.534200
11
39.660000
21
41.507800
0
LINE
8
Layer 1
10
39.660000
20
41.507800
11
39.660000
21
41.095400
0
LINE
8
Layer 1
10
39.660000
20
41.895400
11
39.654800
21
41.869000
0
LINE
8
Layer 1
10
39.654800
20
41.869000
11
39.639900
21
41.846700
0
LINE
8
Layer 1
10
39.639900
20
41.846700
11
39.617600
21
41.831800
0
LINE
8
Layer 1
10
39.617600
20
41.831800
11
39.591200
21
41.826600
0
LINE
8
Layer 1
10
39.591200
20
41.826600
11
38.258700
21
41.826600
0
LINE
8
Layer 1
10
38.258700
20
41.826600
11
38.232400
21
41.831800
0
LINE
8
Layer 1
10
38.232400
20
41.831800
11
38.210100
21
41.846700
0
LINE
8
Layer 1
10
38.210100
20
41.846700
11
38.195200
21
41.869000
0
LINE
8
Layer 1
10
38.195200
20
41.869000
11
38.190000
21
41.895400
0
LINE
8
Layer 1
10
38.190000
20
41.895400
11
38.190000
21
42.307900
0
LINE
8
Layer 1
10
38.190000
20
42.307900
11
38.195200
21
42.334200
0
LINE
8
Layer 1
10
38.195200
20
42.334200
11
38.210100
21
42.356500
0
LINE
8
Layer 1
10
38.210100
20
42.356500
11
38.232400
21
42.371400
0
LINE
8
Layer 1
10
38.232400
20
42.371400
11
38.258700
21
42.376600
0
LINE
8
Layer 1
10
38.258700
20
42.376600
11
39.591200
21
42.376600
0
LINE
8
Layer 1
10
39.591200
20
42.376600
11
39.617600
21
42.371400
0
LINE
8
Layer 1
10
39.617600
20
42.371400
11
39.639900
21
42.356500
0
LINE
8
Layer 1
10
39.639900
20
42.356500
11
39.654800
21
42.334200
0
LINE
8
Layer 1
10
39.654800
20
42.334200
11
39.660000
21
42.307900
0
LINE
8
Layer 1
10
39.660000
20
42.307900
11
39.660000
21
41.895400
0
LINE
8
Layer 1
10
37.830000
20
42.805400
11
37.824800
21
42.779000
0
LINE
8
Layer 1
10
37.824800
20
42.779000
11
37.809900
21
42.756700
0
LINE
8
Layer 1
10
37.809900
20
42.756700
11
37.787600
21
42.741800
0
LINE
8
Layer 1
10
37.787600
20
42.741800
11
37.761200
21
42.736600
0
LINE
8
Layer 1
10
37.761200
20
42.736600
11
37.348700
21
42.736600
0
LINE
8
Layer 1
10
37.348700
20
42.736600
11
37.322400
21
42.741800
0
LINE
8
Layer 1
10
37.322400
20
42.741800
11
37.300100
21
42.756700
0
LINE
8
Layer 1
10
37.300100
20
42.756700
11
37.285200
21
42.779000
0
LINE
8
Layer 1
10
37.285200
20
42.779000
11
37.280000
21
42.805400
0
LINE
8
Layer 1
10
37.280000
20
42.805400
11
37.280000
21
44.137900
0
LINE
8
Layer 1
10
37.280000
20
44.137900
11
37.285200
21
44.164200
0
LINE
8
Layer 1
10
37.285200
20
44.164200
11
37.300100
21
44.186500
0
LINE
8
Layer 1
10
37.300100
20
44.186500
11
37.322400
21
44.201400
0
LINE
8
Layer 1
10
37.322400
20
44.201400
11
37.348700
21
44.206600
0
LINE
8
Layer 1
10
37.348700
20
44.206600
11
37.761200
21
44.206600
0
LINE
8
Layer 1
10
37.761200
20
44.206600
11
37.787600
21
44.201400
0
LINE
8
Layer 1
10
37.787600
20
44.201400
11
37.809900
21
44.186500
0
LINE
8
Layer 1
10
37.809900
20
44.186500
11
37.824800
21
44.164200
0
LINE
8
Layer 1
10
37.824800
20
44.164200
11
37.830000
21
44.137900
0
LINE
8
Layer 1
10
37.830000
20
44.137900
11
37.830000
21
42.805400
0
LINE
8
Layer 1
10
37.030000
20
42.805400
11
37.024800
21
42.779000
0
LINE
8
Layer 1
10
37.024800
20
42.779000
11
37.009900
21
42.756700
0
LINE
8
Layer 1
10
37.009900
20
42.756700
11
36.987600
21
42.741800
0
LINE
8
Layer 1
10
36.987600
20
42.741800
11
36.961200
21
42.736600
0
LINE
8
Layer 1
10
36.961200
20
42.736600
11
36.548700
21
42.736600
0
LINE
8
Layer 1
10
36.548700
20
42.736600
11
36.522400
21
42.741800
0
LINE
8
Layer 1
10
36.522400
20
42.741800
11
36.500100
21
42.756700
0
LINE
8
Layer 1
10
36.500100
20
42.756700
11
36.485200
21
42.779000
0
LINE
8
Layer 1
10
36.485200
20
42.779000
11
36.480000
21
42.805400
0
LINE
8
Layer 1
10
36.480000
20
42.805400
11
36.480000
21
44.137900
0
LINE
8
Layer 1
10
36.480000
20
44.137900
11
36.485200
21
44.164200
0
LINE
8
Layer 1
10
36.485200
20
44.164200
11
36.500100
21
44.186500
0
LINE
8
Layer 1
10
36.500100
20
44.186500
11
36.522400
21
44.201400
0
LINE
8
Layer 1
10
36.522400
20
44.201400
11
36.548700
21
44.206600
0
LINE
8
Layer 1
10
36.548700
20
44.206600
11
36.961200
21
44.206600
0
LINE
8
Layer 1
10
36.961200
20
44.206600
11
36.987600
21
44.201400
0
LINE
8
Layer 1
10
36.987600
20
44.201400
11
37.009900
21
44.186500
0
LINE
8
Layer 1
10
37.009900
20
44.186500
11
37.024800
21
44.164200
0
LINE
8
Layer 1
10
37.024800
20
44.164200
11
37.030000
21
44.137900
0
LINE
8
Layer 1
10
37.030000
20
44.137900
11
37.030000
21
42.805400
0
LINE
8
Layer 1
10
36.230000
20
42.805400
11
36.224800
21
42.779000
0
LINE
8
Layer 1
10
36.224800
20
42.779000
11
36.209900
21
42.756700
0
LINE
8
Layer 1
10
36.209900
20
42.756700
11
36.187600
21
42.741800
0
LINE
8
Layer 1
10
36.187600
20
42.741800
11
36.161200
21
42.736600
0
LINE
8
Layer 1
10
36.161200
20
42.736600
11
35.748800
21
42.736600
0
LINE
8
Layer 1
10
35.748800
20
42.736600
11
35.722400
21
42.741800
0
LINE
8
Layer 1
10
35.722400
20
42.741800
11
35.700100
21
42.756700
0
LINE
8
Layer 1
10
35.700100
20
42.756700
11
35.685200
21
42.779000
0
LINE
8
Layer 1
10
35.685200
20
42.779000
11
35.680000
21
42.805400
0
LINE
8
Layer 1
10
35.680000
20
42.805400
11
35.680000
21
44.137900
0
LINE
8
Layer 1
10
35.680000
20
44.137900
11
35.685200
21
44.164200
0
LINE
8
Layer 1
10
35.685200
20
44.164200
11
35.700100
21
44.186500
0
LINE
8
Layer 1
10
35.700100
20
44.186500
11
35.722400
21
44.201400
0
LINE
8
Layer 1
10
35.722400
20
44.201400
11
35.748800
21
44.206600
0
LINE
8
Layer 1
10
35.748800
20
44.206600
11
36.161200
21
44.206600
0
LINE
8
Layer 1
10
36.161200
20
44.206600
11
36.187600
21
44.201400
0
LINE
8
Layer 1
10
36.187600
20
44.201400
11
36.209900
21
44.186500
0
LINE
8
Layer 1
10
36.209900
20
44.186500
11
36.224800
21
44.164200
0
LINE
8
Layer 1
10
36.224800
20
44.164200
11
36.230000
21
44.137900
0
LINE
8
Layer 1
10
36.230000
20
44.137900
11
36.230000
21
42.805400
0
LINE
8
Layer 1
10
35.430000
20
42.805400
11
35.424800
21
42.779000
0
LINE
8
Layer 1
10
35.424800
20
42.779000
11
35.409900
21
42.756700
0
LINE
8
Layer 1
10
35.409900
20
42.756700
11
35.387600
21
42.741800
0
LINE
8
Layer 1
10
35.387600
20
42.741800
11
35.361200
21
42.736600
0
LINE
8
Layer 1
10
35.361200
20
42.736600
11
34.948700
21
42.736600
0
LINE
8
Layer 1
10
34.948700
20
42.736600
11
34.922400
21
42.741800
0
LINE
8
Layer 1
10
34.922400
20
42.741800
11
34.900100
21
42.756700
0
LINE
8
Layer 1
10
34.900100
20
42.756700
11
34.885200
21
42.779000
0
LINE
8
Layer 1
10
34.885200
20
42.779000
11
34.880000
21
42.805400
0
LINE
8
Layer 1
10
34.880000
20
42.805400
11
34.880000
21
44.137900
0
LINE
8
Layer 1
10
34.880000
20
44.137900
11
34.885200
21
44.164200
0
LINE
8
Layer 1
10
34.885200
20
44.164200
11
34.900100
21
44.186500
0
LINE
8
Layer 1
10
34.900100
20
44.186500
11
34.922400
21
44.201400
0
LINE
8
Layer 1
10
34.922400
20
44.201400
11
34.948700
21
44.206600
0
LINE
8
Layer 1
10
34.948700
20
44.206600
11
35.361200
21
44.206600
0
LINE
8
Layer 1
10
35.361200
20
44.206600
11
35.387600
21
44.201400
0
LINE
8
Layer 1
10
35.387600
20
44.201400
11
35.409900
21
44.186500
0
LINE
8
Layer 1
10
35.409900
20
44.186500
11
35.424800
21
44.164200
0
LINE
8
Layer 1
10
35.424800
20
44.164200
11
35.430000
21
44.137900
0
LINE
8
Layer 1
10
35.430000
20
44.137900
11
35.430000
21
42.805400
0
LINE
8
Layer 1
10
34.630000
20
42.805400
11
34.624800
21
42.779000
0
LINE
8
Layer 1
10
34.624800
20
42.779000
11
34.609900
21
42.756700
0
LINE
8
Layer 1
10
34.609900
20
42.756700
11
34.587600
21
42.741800
0
LINE
8
Layer 1
10
34.587600
20
42.741800
11
34.561300
21
42.736600
0
LINE
8
Layer 1
10
34.561300
20
42.736600
11
34.148700
21
42.736600
0
LINE
8
Layer 1
10
34.148700
20
42.736600
11
34.122400
21
42.741800
0
LINE
8
Layer 1
10
34.122400
20
42.741800
11
34.100100
21
42.756700
0
LINE
8
Layer 1
10
34.100100
20
42.756700
11
34.085200
21
42.779000
0
LINE
8
Layer 1
10
34.085200
20
42.779000
11
34.080000
21
42.805400
0
LINE
8
Layer 1
10
34.080000
20
42.805400
11
34.080000
21
44.137900
0
LINE
8
Layer 1
10
34.080000
20
44.137900
11
34.085200
21
44.164200
0
LINE
8
Layer 1
10
34.085200
20
44.164200
11
34.100100
21
44.186500
0
LINE
8
Layer 1
10
34.100100
20
44.186500
11
34.122400
21
44.201400
0
LINE
8
Layer 1
10
34.122400
20
44.201400
11
34.148700
21
44.206600
0
LINE
8
Layer 1
10
34.148700
20
44.206600
11
34.561300
21
44.206600
0
LINE
8
Layer 1
10
34.561300
20
44.206600
11
34.587600
21
44.201400
0
LINE
8
Layer 1
10
34.587600
20
44.201400
11
34.609900
21
44.186500
0
LINE
8
Layer 1
10
34.609900
20
44.186500
11
34.624800
21
44.164200
0
LINE
8
Layer 1
10
34.624800
20
44.164200
11
34.630000
21
44.137900
0
LINE
8
Layer 1
10
34.630000
20
44.137900
11
34.630000
21
42.805400
0
LINE
8
Layer 1
10
33.830000
20
42.805400
11
33.824800
21
42.779000
0
LINE
8
Layer 1
10
33.824800
20
42.779000
11
33.809900
21
42.756700
0
LINE
8
Layer 1
10
33.809900
20
42.756700
11
33.787600
21
42.741800
0
LINE
8
Layer 1
10
33.787600
20
42.741800
11
33.761200
21
42.736600
0
LINE
8
Layer 1
10
33.761200
20
42.736600
11
33.348700
21
42.736600
0
LINE
8
Layer 1
10
33.348700
20
42.736600
11
33.322400
21
42.741800
0
LINE
8
Layer 1
10
33.322400
20
42.741800
11
33.300100
21
42.756700
0
LINE
8
Layer 1
10
33.300100
20
42.756700
11
33.285200
21
42.779000
0
LINE
8
Layer 1
10
33.285200
20
42.779000
11
33.280000
21
42.805400
0
LINE
8
Layer 1
10
33.280000
20
42.805400
11
33.280000
21
44.137900
0
LINE
8
Layer 1
10
33.280000
20
44.137900
11
33.285200
21
44.164200
0
LINE
8
Layer 1
10
33.285200
20
44.164200
11
33.300100
21
44.186500
0
LINE
8
Layer 1
10
33.300100
20
44.186500
11
33.322400
21
44.201400
0
LINE
8
Layer 1
10
33.322400
20
44.201400
11
33.348700
21
44.206600
0
LINE
8
Layer 1
10
33.348700
20
44.206600
11
33.761200
21
44.206600
0
LINE
8
Layer 1
10
33.761200
20
44.206600
11
33.787600
21
44.201400
0
LINE
8
Layer 1
10
33.787600
20
44.201400
11
33.809900
21
44.186500
0
LINE
8
Layer 1
10
33.809900
20
44.186500
11
33.824800
21
44.164200
0
LINE
8
Layer 1
10
33.824800
20
44.164200
11
33.830000
21
44.137900
0
LINE
8
Layer 1
10
33.830000
20
44.137900
11
33.830000
21
42.805400
0
LINE
8
Layer 1
10
33.030000
20
42.805400
11
33.024800
21
42.779000
0
LINE
8
Layer 1
10
33.024800
20
42.779000
11
33.009900
21
42.756700
0
LINE
8
Layer 1
10
33.009900
20
42.756700
11
32.987600
21
42.741800
0
LINE
8
Layer 1
10
32.987600
20
42.741800
11
32.961200
21
42.736600
0
LINE
8
Layer 1
10
32.961200
20
42.736600
11
32.548700
21
42.736600
0
LINE
8
Layer 1
10
32.548700
20
42.736600
11
32.522400
21
42.741800
0
LINE
8
Layer 1
10
32.522400
20
42.741800
11
32.500100
21
42.756700
0
LINE
8
Layer 1
10
32.500100
20
42.756700
11
32.485200
21
42.779000
0
LINE
8
Layer 1
10
32.485200
20
42.779000
11
32.480000
21
42.805400
0
LINE
8
Layer 1
10
32.480000
20
42.805400
11
32.480000
21
44.137900
0
LINE
8
Layer 1
10
32.480000
20
44.137900
11
32.485200
21
44.164200
0
LINE
8
Layer 1
10
32.485200
20
44.164200
11
32.500100
21
44.186500
0
LINE
8
Layer 1
10
32.500100
20
44.186500
11
32.522400
21
44.201400
0
LINE
8
Layer 1
10
32.522400
20
44.201400
11
32.548700
21
44.206600
0
LINE
8
Layer 1
10
32.548700
20
44.206600
11
32.961200
21
44.206600
0
LINE
8
Layer 1
10
32.961200
20
44.206600
11
32.987600
21
44.201400
0
LINE
8
Layer 1
10
32.987600
20
44.201400
11
33.009900
21
44.186500
0
LINE
8
Layer 1
10
33.009900
20
44.186500
11
33.024800
21
44.164200
0
LINE
8
Layer 1
10
33.024800
20
44.164200
11
33.030000
21
44.137900
0
LINE
8
Layer 1
10
33.030000
20
44.137900
11
33.030000
21
42.805400
0
LINE
8
Layer 1
10
32.230000
20
42.805400
11
32.224800
21
42.779000
0
LINE
8
Layer 1
10
32.224800
20
42.779000
11
32.209900
21
42.756700
0
LINE
8
Layer 1
10
32.209900
20
42.756700
11
32.187600
21
42.741800
0
LINE
8
Layer 1
10
32.187600
20
42.741800
11
32.161200
21
42.736600
0
LINE
8
Layer 1
10
32.161200
20
42.736600
11
31.748700
21
42.736600
0
LINE
8
Layer 1
10
31.748700
20
42.736600
11
31.722400
21
42.741800
0
LINE
8
Layer 1
10
31.722400
20
42.741800
11
31.700100
21
42.756700
0
LINE
8
Layer 1
10
31.700100
20
42.756700
11
31.685200
21
42.779000
0
LINE
8
Layer 1
10
31.685200
20
42.779000
11
31.680000
21
42.805400
0
LINE
8
Layer 1
10
31.680000
20
42.805400
11
31.680000
21
44.137900
0
LINE
8
Layer 1
10
31.680000
20
44.137900
11
31.685200
21
44.164200
0
LINE
8
Layer 1
10
31.685200
20
44.164200
11
31.700100
21
44.186500
0
LINE
8
Layer 1
10
31.700100
20
44.186500
11
31.722400
21
44.201400
0
LINE
8
Layer 1
10
31.722400
20
44.201400
11
31.748700
21
44.206600
0
LINE
8
Layer 1
10
31.748700
20
44.206600
11
32.161200
21
44.206600
0
LINE
8
Layer 1
10
32.161200
20
44.206600
11
32.187600
21
44.201400
0
LINE
8
Layer 1
10
32.187600
20
44.201400
11
32.209900
21
44.186500
0
LINE
8
Layer 1
10
32.209900
20
44.186500
11
32.224800
21
44.164200
0
LINE
8
Layer 1
10
32.224800
20
44.164200
11
32.230000
21
44.137900
0
LINE
8
Layer 1
10
32.230000
20
44.137900
11
32.230000
21
42.805400
0
LINE
8
Layer 1
10
31.320000
20
41.895400
11
31.314800
21
41.869000
0
LINE
8
Layer 1
10
31.314800
20
41.869000
11
31.299900
21
41.846700
0
LINE
8
Layer 1
10
31.299900
20
41.846700
11
31.277600
21
41.831800
0
LINE
8
Layer 1
10
31.277600
20
41.831800
11
31.251200
21
41.826600
0
LINE
8
Layer 1
10
31.251200
20
41.826600
11
29.918700
21
41.826600
0
LINE
8
Layer 1
10
29.918700
20
41.826600
11
29.892400
21
41.831800
0
LINE
8
Layer 1
10
29.892400
20
41.831800
11
29.870100
21
41.846700
0
LINE
8
Layer 1
10
29.870100
20
41.846700
11
29.855200
21
41.869000
0
LINE
8
Layer 1
10
29.855200
20
41.869000
11
29.850000
21
41.895400
0
LINE
8
Layer 1
10
29.850000
20
41.895400
11
29.850000
21
42.307900
0
LINE
8
Layer 1
10
29.850000
20
42.307900
11
29.855200
21
42.334200
0
LINE
8
Layer 1
10
29.855200
20
42.334200
11
29.870100
21
42.356500
0
LINE
8
Layer 1
10
29.870100
20
42.356500
11
29.892400
21
42.371400
0
LINE
8
Layer 1
10
29.892400
20
42.371400
11
29.918700
21
42.376600
0
LINE
8
Layer 1
10
29.918700
20
42.376600
11
31.251200
21
42.376600
0
LINE
8
Layer 1
10
31.251200
20
42.376600
11
31.277600
21
42.371400
0
LINE
8
Layer 1
10
31.277600
20
42.371400
11
31.299900
21
42.356500
0
LINE
8
Layer 1
10
31.299900
20
42.356500
11
31.314800
21
42.334200
0
LINE
8
Layer 1
10
31.314800
20
42.334200
11
31.320000
21
42.307900
0
LINE
8
Layer 1
10
31.320000
20
42.307900
11
31.320000
21
41.895400
0
LINE
8
Layer 1
10
31.320000
20
41.095400
11
31.314800
21
41.069000
0
LINE
8
Layer 1
10
31.314800
20
41.069000
11
31.299900
21
41.046700
0
LINE
8
Layer 1
10
31.299900
20
41.046700
11
31.277600
21
41.031800
0
LINE
8
Layer 1
10
31.277600
20
41.031800
11
31.251200
21
41.026600
0
LINE
8
Layer 1
10
31.251200
20
41.026600
11
29.918700
21
41.026600
0
LINE
8
Layer 1
10
29.918700
20
41.026600
11
29.892400
21
41.031800
0
LINE
8
Layer 1
10
29.892400
20
41.031800
11
29.870100
21
41.046700
0
LINE
8
Layer 1
10
29.870100
20
41.046700
11
29.855200
21
41.069000
0
LINE
8
Layer 1
10
29.855200
20
41.069000
11
29.850000
21
41.095400
0
LINE
8
Layer 1
10
29.850000
20
41.095400
11
29.850000
21
41.507800
0
LINE
8
Layer 1
10
29.850000
20
41.507800
11
29.855200
21
41.534200
0
LINE
8
Layer 1
10
29.855200
20
41.534200
11
29.870100
21
41.556500
0
LINE
8
Layer 1
10
29.870100
20
41.556500
11
29.892400
21
41.571400
0
LINE
8
Layer 1
10
29.892400
20
41.571400
11
29.918700
21
41.576600
0
LINE
8
Layer 1
10
29.918700
20
41.576600
11
31.251200
21
41.576600
0
LINE
8
Layer 1
10
31.251200
20
41.576600
11
31.277600
21
41.571400
0
LINE
8
Layer 1
10
31.277600
20
41.571400
11
31.299900
21
41.556500
0
LINE
8
Layer 1
10
31.299900
20
41.556500
11
31.314800
21
41.534200
0
LINE
8
Layer 1
10
31.314800
20
41.534200
11
31.320000
21
41.507800
0
LINE
8
Layer 1
10
31.320000
20
41.507800
11
31.320000
21
41.095400
0
LINE
8
Layer 1
10
31.320000
20
40.295400
11
31.314800
21
40.269000
0
LINE
8
Layer 1
10
31.314800
20
40.269000
11
31.299900
21
40.246700
0
LINE
8
Layer 1
10
31.299900
20
40.246700
11
31.277600
21
40.231800
0
LINE
8
Layer 1
10
31.277600
20
40.231800
11
31.251200
21
40.226600
0
LINE
8
Layer 1
10
31.251200
20
40.226600
11
29.918700
21
40.226600
0
LINE
8
Layer 1
10
29.918700
20
40.226600
11
29.892400
21
40.231800
0
LINE
8
Layer 1
10
29.892400
20
40.231800
11
29.870100
21
40.246700
0
LINE
8
Layer 1
10
29.870100
20
40.246700
11
29.855200
21
40.269000
0
LINE
8
Layer 1
10
29.855200
20
40.269000
11
29.850000
21
40.295400
0
LINE
8
Layer 1
10
29.850000
20
40.295400
11
29.850000
21
40.707900
0
LINE
8
Layer 1
10
29.850000
20
40.707900
11
29.855200
21
40.734200
0
LINE
8
Layer 1
10
29.855200
20
40.734200
11
29.870100
21
40.756500
0
LINE
8
Layer 1
10
29.870100
20
40.756500
11
29.892400
21
40.771400
0
LINE
8
Layer 1
10
29.892400
20
40.771400
11
29.918700
21
40.776600
0
LINE
8
Layer 1
10
29.918700
20
40.776600
11
31.251200
21
40.776600
0
LINE
8
Layer 1
10
31.251200
20
40.776600
11
31.277600
21
40.771400
0
LINE
8
Layer 1
10
31.277600
20
40.771400
11
31.299900
21
40.756500
0
LINE
8
Layer 1
10
31.299900
20
40.756500
11
31.314800
21
40.734200
0
LINE
8
Layer 1
10
31.314800
20
40.734200
11
31.320000
21
40.707900
0
LINE
8
Layer 1
10
31.320000
20
40.707900
11
31.320000
21
40.295400
0
LINE
8
Layer 1
10
31.320000
20
39.495400
11
31.314800
21
39.469000
0
LINE
8
Layer 1
10
31.314800
20
39.469000
11
31.299900
21
39.446700
0
LINE
8
Layer 1
10
31.299900
20
39.446700
11
31.277600
21
39.431800
0
LINE
8
Layer 1
10
31.277600
20
39.431800
11
31.251200
21
39.426600
0
LINE
8
Layer 1
10
31.251200
20
39.426600
11
29.918700
21
39.426600
0
LINE
8
Layer 1
10
29.918700
20
39.426600
11
29.892400
21
39.431800
0
LINE
8
Layer 1
10
29.892400
20
39.431800
11
29.870100
21
39.446700
0
LINE
8
Layer 1
10
29.870100
20
39.446700
11
29.855200
21
39.469000
0
LINE
8
Layer 1
10
29.855200
20
39.469000
11
29.850000
21
39.495400
0
LINE
8
Layer 1
10
29.850000
20
39.495400
11
29.850000
21
39.907900
0
LINE
8
Layer 1
10
29.850000
20
39.907900
11
29.855200
21
39.934200
0
LINE
8
Layer 1
10
29.855200
20
39.934200
11
29.870100
21
39.956500
0
LINE
8
Layer 1
10
29.870100
20
39.956500
11
29.892400
21
39.971400
0
LINE
8
Layer 1
10
29.892400
20
39.971400
11
29.918700
21
39.976600
0
LINE
8
Layer 1
10
29.918700
20
39.976600
11
31.251200
21
39.976600
0
LINE
8
Layer 1
10
31.251200
20
39.976600
11
31.277600
21
39.971400
0
LINE
8
Layer 1
10
31.277600
20
39.971400
11
31.299900
21
39.956500
0
LINE
8
Layer 1
10
31.299900
20
39.956500
11
31.314800
21
39.934200
0
LINE
8
Layer 1
10
31.314800
20
39.934200
11
31.320000
21
39.907900
0
LINE
8
Layer 1
10
31.320000
20
39.907900
11
31.320000
21
39.495400
0
LINE
8
Layer 1
10
31.320000
20
38.695300
11
31.314800
21
38.669000
0
LINE
8
Layer 1
10
31.314800
20
38.669000
11
31.299900
21
38.646700
0
LINE
8
Layer 1
10
31.299900
20
38.646700
11
31.277600
21
38.631800
0
LINE
8
Layer 1
10
31.277600
20
38.631800
11
31.251200
21
38.626600
0
LINE
8
Layer 1
10
31.251200
20
38.626600
11
29.918700
21
38.626600
0
LINE
8
Layer 1
10
29.918700
20
38.626600
11
29.892400
21
38.631800
0
LINE
8
Layer 1
10
29.892400
20
38.631800
11
29.870100
21
38.646700
0
LINE
8
Layer 1
10
29.870100
20
38.646700
11
29.855200
21
38.669000
0
LINE
8
Layer 1
10
29.855200
20
38.669000
11
29.850000
21
38.695300
0
LINE
8
Layer 1
10
29.850000
20
38.695300
11
29.850000
21
39.107900
0
LINE
8
Layer 1
10
29.850000
20
39.107900
11
29.855200
21
39.134200
0
LINE
8
Layer 1
10
29.855200
20
39.134200
11
29.870100
21
39.156500
0
LINE
8
Layer 1
10
29.870100
20
39.156500
11
29.892400
21
39.171400
0
LINE
8
Layer 1
10
29.892400
20
39.171400
11
29.918700
21
39.176600
0
LINE
8
Layer 1
10
29.918700
20
39.176600
11
31.251200
21
39.176600
0
LINE
8
Layer 1
10
31.251200
20
39.176600
11
31.277600
21
39.171400
0
LINE
8
Layer 1
10
31.277600
20
39.171400
11
31.299900
21
39.156500
0
LINE
8
Layer 1
10
31.299900
20
39.156500
11
31.314800
21
39.134200
0
LINE
8
Layer 1
10
31.314800
20
39.134200
11
31.320000
21
39.107900
0
LINE
8
Layer 1
10
31.320000
20
39.107900
11
31.320000
21
38.695300
0
LINE
8
Layer 1
10
31.320000
20
37.895400
11
31.314800
21
37.869000
0
LINE
8
Layer 1
10
31.314800
20
37.869000
11
31.299900
21
37.846700
0
LINE
8
Layer 1
10
31.299900
20
37.846700
11
31.277600
21
37.831800
0
LINE
8
Layer 1
10
31.277600
20
37.831800
11
31.251200
21
37.826600
0
LINE
8
Layer 1
10
31.251200
20
37.826600
11
29.918700
21
37.826600
0
LINE
8
Layer 1
10
29.918700
20
37.826600
11
29.892400
21
37.831800
0
LINE
8
Layer 1
10
29.892400
20
37.831800
11
29.870100
21
37.846700
0
LINE
8
Layer 1
10
29.870100
20
37.846700
11
29.855200
21
37.869000
0
LINE
8
Layer 1
10
29.855200
20
37.869000
11
29.850000
21
37.895400
0
LINE
8
Layer 1
10
29.850000
20
37.895400
11
29.850000
21
38.307900
0
LINE
8
Layer 1
10
29.850000
20
38.307900
11
29.855200
21
38.334200
0
LINE
8
Layer 1
10
29.855200
20
38.334200
11
29.870100
21
38.356500
0
LINE
8
Layer 1
10
29.870100
20
38.356500
11
29.892400
21
38.371400
0
LINE
8
Layer 1
10
29.892400
20
38.371400
11
29.918700
21
38.376600
0
LINE
8
Layer 1
10
29.918700
20
38.376600
11
31.251200
21
38.376600
0
LINE
8
Layer 1
10
31.251200
20
38.376600
11
31.277600
21
38.371400
0
LINE
8
Layer 1
10
31.277600
20
38.371400
11
31.299900
21
38.356500
0
LINE
8
Layer 1
10
31.299900
20
38.356500
11
31.314800
21
38.334200
0
LINE
8
Layer 1
10
31.314800
20
38.334200
11
31.320000
21
38.307900
0
LINE
8
Layer 1
10
31.320000
20
38.307900
11
31.320000
21
37.895400
0
LINE
8
Layer 1
10
31.320000
20
37.095400
11
31.314800
21
37.069000
0
LINE
8
Layer 1
10
31.314800
20
37.069000
11
31.299900
21
37.046700
0
LINE
8
Layer 1
10
31.299900
20
37.046700
11
31.277600
21
37.031800
0
LINE
8
Layer 1
10
31.277600
20
37.031800
11
31.251200
21
37.026600
0
LINE
8
Layer 1
10
31.251200
20
37.026600
11
29.918700
21
37.026600
0
LINE
8
Layer 1
10
29.918700
20
37.026600
11
29.892400
21
37.031800
0
LINE
8
Layer 1
10
29.892400
20
37.031800
11
29.870100
21
37.046700
0
LINE
8
Layer 1
10
29.870100
20
37.046700
11
29.855200
21
37.069000
0
LINE
8
Layer 1
10
29.855200
20
37.069000
11
29.850000
21
37.095400
0
LINE
8
Layer 1
10
29.850000
20
37.095400
11
29.850000
21
37.507800
0
LINE
8
Layer 1
10
29.850000
20
37.507800
11
29.855200
21
37.534200
0
LINE
8
Layer 1
10
29.855200
20
37.534200
11
29.870100
21
37.556500
0
LINE
8
Layer 1
10
29.870100
20
37.556500
11
29.892400
21
37.571400
0
LINE
8
Layer 1
10
29.892400
20
37.571400
11
29.918700
21
37.576600
0
LINE
8
Layer 1
10
29.918700
20
37.576600
11
31.251200
21
37.576600
0
LINE
8
Layer 1
10
31.251200
20
37.576600
11
31.277600
21
37.571400
0
LINE
8
Layer 1
10
31.277600
20
37.571400
11
31.299900
21
37.556500
0
LINE
8
Layer 1
10
31.299900
20
37.556500
11
31.314800
21
37.534200
0
LINE
8
Layer 1
10
31.314800
20
37.534200
11
31.320000
21
37.507800
0
LINE
8
Layer 1
10
31.320000
20
37.507800
11
31.320000
21
37.095400
0
LINE
8
Layer 1
10
31.320000
20
36.295400
11
31.314800
21
36.269000
0
LINE
8
Layer 1
10
31.314800
20
36.269000
11
31.299900
21
36.246700
0
LINE
8
Layer 1
10
31.299900
20
36.246700
11
31.277600
21
36.231800
0
LINE
8
Layer 1
10
31.277600
20
36.231800
11
31.251200
21
36.226600
0
LINE
8
Layer 1
10
31.251200
20
36.226600
11
29.918700
21
36.226600
0
LINE
8
Layer 1
10
29.918700
20
36.226600
11
29.892400
21
36.231800
0
LINE
8
Layer 1
10
29.892400
20
36.231800
11
29.870100
21
36.246700
0
LINE
8
Layer 1
10
29.870100
20
36.246700
11
29.855200
21
36.269000
0
LINE
8
Layer 1
10
29.855200
20
36.269000
11
29.850000
21
36.295400
0
LINE
8
Layer 1
10
29.850000
20
36.295400
11
29.850000
21
36.707800
0
LINE
8
Layer 1
10
29.850000
20
36.707800
11
29.855200
21
36.734200
0
LINE
8
Layer 1
10
29.855200
20
36.734200
11
29.870100
21
36.756500
0
LINE
8
Layer 1
10
29.870100
20
36.756500
11
29.892400
21
36.771400
0
LINE
8
Layer 1
10
29.892400
20
36.771400
11
29.918700
21
36.776600
0
LINE
8
Layer 1
10
29.918700
20
36.776600
11
31.251200
21
36.776600
0
LINE
8
Layer 1
10
31.251200
20
36.776600
11
31.277600
21
36.771400
0
LINE
8
Layer 1
10
31.277600
20
36.771400
11
31.299900
21
36.756500
0
LINE
8
Layer 1
10
31.299900
20
36.756500
11
31.314800
21
36.734200
0
LINE
8
Layer 1
10
31.314800
20
36.734200
11
31.320000
21
36.707800
0
LINE
8
Layer 1
10
31.320000
20
36.707800
11
31.320000
21
36.295400
0
LINE
8
Layer 1
10
32.230000
20
34.465300
11
32.224800
21
34.439000
0
LINE
8
Layer 1
10
32.224800
20
34.439000
11
32.209900
21
34.416700
0
LINE
8
Layer 1
10
32.209900
20
34.416700
11
32.187600
21
34.401800
0
LINE
8
Layer 1
10
32.187600
20
34.401800
11
32.161200
21
34.396600
0
LINE
8
Layer 1
10
32.161200
20
34.396600
11
31.748700
21
34.396600
0
LINE
8
Layer 1
10
31.748700
20
34.396600
11
31.722400
21
34.401800
0
LINE
8
Layer 1
10
31.722400
20
34.401800
11
31.700100
21
34.416700
0
LINE
8
Layer 1
10
31.700100
20
34.416700
11
31.685200
21
34.439000
0
LINE
8
Layer 1
10
31.685200
20
34.439000
11
31.680000
21
34.465300
0
LINE
8
Layer 1
10
31.680000
20
34.465300
11
31.680000
21
35.797800
0
LINE
8
Layer 1
10
31.680000
20
35.797800
11
31.685200
21
35.824200
0
LINE
8
Layer 1
10
31.685200
20
35.824200
11
31.700100
21
35.846500
0
LINE
8
Layer 1
10
31.700100
20
35.846500
11
31.722400
21
35.861400
0
LINE
8
Layer 1
10
31.722400
20
35.861400
11
31.748700
21
35.866600
0
LINE
8
Layer 1
10
31.748700
20
35.866600
11
32.161200
21
35.866600
0
LINE
8
Layer 1
10
32.161200
20
35.866600
11
32.187600
21
35.861400
0
LINE
8
Layer 1
10
32.187600
20
35.861400
11
32.209900
21
35.846500
0
LINE
8
Layer 1
10
32.209900
20
35.846500
11
32.224800
21
35.824200
0
LINE
8
Layer 1
10
32.224800
20
35.824200
11
32.230000
21
35.797800
0
LINE
8
Layer 1
10
32.230000
20
35.797800
11
32.230000
21
34.465300
0
LINE
8
Layer 1
10
33.030000
20
34.465300
11
33.024800
21
34.439000
0
LINE
8
Layer 1
10
33.024800
20
34.439000
11
33.009900
21
34.416700
0
LINE
8
Layer 1
10
33.009900
20
34.416700
11
32.987600
21
34.401800
0
LINE
8
Layer 1
10
32.987600
20
34.401800
11
32.961200
21
34.396600
0
LINE
8
Layer 1
10
32.961200
20
34.396600
11
32.548700
21
34.396600
0
LINE
8
Layer 1
10
32.548700
20
34.396600
11
32.522400
21
34.401800
0
LINE
8
Layer 1
10
32.522400
20
34.401800
11
32.500100
21
34.416700
0
LINE
8
Layer 1
10
32.500100
20
34.416700
11
32.485200
21
34.439000
0
LINE
8
Layer 1
10
32.485200
20
34.439000
11
32.480000
21
34.465300
0
LINE
8
Layer 1
10
32.480000
20
34.465300
11
32.480000
21
35.797800
0
LINE
8
Layer 1
10
32.480000
20
35.797800
11
32.485200
21
35.824200
0
LINE
8
Layer 1
10
32.485200
20
35.824200
11
32.500100
21
35.846500
0
LINE
8
Layer 1
10
32.500100
20
35.846500
11
32.522400
21
35.861400
0
LINE
8
Layer 1
10
32.522400
20
35.861400
11
32.548700
21
35.866600
0
LINE
8
Layer 1
10
32.548700
20
35.866600
11
32.961200
21
35.866600
0
LINE
8
Layer 1
10
32.961200
20
35.866600
11
32.987600
21
35.861400
0
LINE
8
Layer 1
10
32.987600
20
35.861400
11
33.009900
21
35.846500
0
LINE
8
Layer 1
10
33.009900
20
35.846500
11
33.024800
21
35.824200
0
LINE
8
Layer 1
10
33.024800
20
35.824200
11
33.030000
21
35.797800
0
LINE
8
Layer 1
10
33.030000
20
35.797800
11
33.030000
21
34.465300
0
LINE
8
Layer 1
10
33.830000
20
34.465300
11
33.824800
21
34.439000
0
LINE
8
Layer 1
10
33.824800
20
34.439000
11
33.809900
21
34.416700
0
LINE
8
Layer 1
10
33.809900
20
34.416700
11
33.787600
21
34.401800
0
LINE
8
Layer 1
10
33.787600
20
34.401800
11
33.761200
21
34.396600
0
LINE
8
Layer 1
10
33.761200
20
34.396600
11
33.348700
21
34.396600
0
LINE
8
Layer 1
10
33.348700
20
34.396600
11
33.322400
21
34.401800
0
LINE
8
Layer 1
10
33.322400
20
34.401800
11
33.300100
21
34.416700
0
LINE
8
Layer 1
10
33.300100
20
34.416700
11
33.285200
21
34.439000
0
LINE
8
Layer 1
10
33.285200
20
34.439000
11
33.280000
21
34.465300
0
LINE
8
Layer 1
10
33.280000
20
34.465300
11
33.280000
21
35.797800
0
LINE
8
Layer 1
10
33.280000
20
35.797800
11
33.285200
21
35.824200
0
LINE
8
Layer 1
10
33.285200
20
35.824200
11
33.300100
21
35.846500
0
LINE
8
Layer 1
10
33.300100
20
35.846500
11
33.322400
21
35.861400
0
LINE
8
Layer 1
10
33.322400
20
35.861400
11
33.348700
21
35.866600
0
LINE
8
Layer 1
10
33.348700
20
35.866600
11
33.761200
21
35.866600
0
LINE
8
Layer 1
10
33.761200
20
35.866600
11
33.787600
21
35.861400
0
LINE
8
Layer 1
10
33.787600
20
35.861400
11
33.809900
21
35.846500
0
LINE
8
Layer 1
10
33.809900
20
35.846500
11
33.824800
21
35.824200
0
LINE
8
Layer 1
10
33.824800
20
35.824200
11
33.830000
21
35.797800
0
LINE
8
Layer 1
10
33.830000
20
35.797800
11
33.830000
21
34.465300
0
LINE
8
Layer 1
10
34.630000
20
34.465300
11
34.624800
21
34.439000
0
LINE
8
Layer 1
10
34.624800
20
34.439000
11
34.609900
21
34.416700
0
LINE
8
Layer 1
10
34.609900
20
34.416700
11
34.587600
21
34.401800
0
LINE
8
Layer 1
10
34.587600
20
34.401800
11
34.561300
21
34.396600
0
LINE
8
Layer 1
10
34.561300
20
34.396600
11
34.148700
21
34.396600
0
LINE
8
Layer 1
10
34.148700
20
34.396600
11
34.122400
21
34.401800
0
LINE
8
Layer 1
10
34.122400
20
34.401800
11
34.100100
21
34.416700
0
LINE
8
Layer 1
10
34.100100
20
34.416700
11
34.085200
21
34.439000
0
LINE
8
Layer 1
10
34.085200
20
34.439000
11
34.080000
21
34.465300
0
LINE
8
Layer 1
10
34.080000
20
34.465300
11
34.080000
21
35.797800
0
LINE
8
Layer 1
10
34.080000
20
35.797800
11
34.085200
21
35.824200
0
LINE
8
Layer 1
10
34.085200
20
35.824200
11
34.100100
21
35.846500
0
LINE
8
Layer 1
10
34.100100
20
35.846500
11
34.122400
21
35.861400
0
LINE
8
Layer 1
10
34.122400
20
35.861400
11
34.148700
21
35.866600
0
LINE
8
Layer 1
10
34.148700
20
35.866600
11
34.561300
21
35.866600
0
LINE
8
Layer 1
10
34.561300
20
35.866600
11
34.587600
21
35.861400
0
LINE
8
Layer 1
10
34.587600
20
35.861400
11
34.609900
21
35.846500
0
LINE
8
Layer 1
10
34.609900
20
35.846500
11
34.624800
21
35.824200
0
LINE
8
Layer 1
10
34.624800
20
35.824200
11
34.630000
21
35.797800
0
LINE
8
Layer 1
10
34.630000
20
35.797800
11
34.630000
21
34.465300
0
LINE
8
Layer 1
10
35.430000
20
34.465300
11
35.424800
21
34.439000
0
LINE
8
Layer 1
10
35.424800
20
34.439000
11
35.409900
21
34.416700
0
LINE
8
Layer 1
10
35.409900
20
34.416700
11
35.387600
21
34.401800
0
LINE
8
Layer 1
10
35.387600
20
34.401800
11
35.361200
21
34.396600
0
LINE
8
Layer 1
10
35.361200
20
34.396600
11
34.948700
21
34.396600
0
LINE
8
Layer 1
10
34.948700
20
34.396600
11
34.922400
21
34.401800
0
LINE
8
Layer 1
10
34.922400
20
34.401800
11
34.900100
21
34.416700
0
LINE
8
Layer 1
10
34.900100
20
34.416700
11
34.885200
21
34.439000
0
LINE
8
Layer 1
10
34.885200
20
34.439000
11
34.880000
21
34.465300
0
LINE
8
Layer 1
10
34.880000
20
34.465300
11
34.880000
21
35.797800
0
LINE
8
Layer 1
10
34.880000
20
35.797800
11
34.885200
21
35.824200
0
LINE
8
Layer 1
10
34.885200
20
35.824200
11
34.900100
21
35.846500
0
LINE
8
Layer 1
10
34.900100
20
35.846500
11
34.922400
21
35.861400
0
LINE
8
Layer 1
10
34.922400
20
35.861400
11
34.948700
21
35.866600
0
LINE
8
Layer 1
10
34.948700
20
35.866600
11
35.361200
21
35.866600
0
LINE
8
Layer 1
10
35.361200
20
35.866600
11
35.387600
21
35.861400
0
LINE
8
Layer 1
10
35.387600
20
35.861400
11
35.409900
21
35.846500
0
LINE
8
Layer 1
10
35.409900
20
35.846500
11
35.424800
21
35.824200
0
LINE
8
Layer 1
10
35.424800
20
35.824200
11
35.430000
21
35.797800
0
LINE
8
Layer 1
10
35.430000
20
35.797800
11
35.430000
21
34.465300
0
LINE
8
Layer 1
10
36.230000
20
34.465300
11
36.224800
21
34.439000
0
LINE
8
Layer 1
10
36.224800
20
34.439000
11
36.209900
21
34.416700
0
LINE
8
Layer 1
10
36.209900
20
34.416700
11
36.187600
21
34.401800
0
LINE
8
Layer 1
10
36.187600
20
34.401800
11
36.161200
21
34.396600
0
LINE
8
Layer 1
10
36.161200
20
34.396600
11
35.748800
21
34.396600
0
LINE
8
Layer 1
10
35.748800
20
34.396600
11
35.722400
21
34.401800
0
LINE
8
Layer 1
10
35.722400
20
34.401800
11
35.700100
21
34.416700
0
LINE
8
Layer 1
10
35.700100
20
34.416700
11
35.685200
21
34.439000
0
LINE
8
Layer 1
10
35.685200
20
34.439000
11
35.680000
21
34.465300
0
LINE
8
Layer 1
10
35.680000
20
34.465300
11
35.680000
21
35.797800
0
LINE
8
Layer 1
10
35.680000
20
35.797800
11
35.685200
21
35.824200
0
LINE
8
Layer 1
10
35.685200
20
35.824200
11
35.700100
21
35.846500
0
LINE
8
Layer 1
10
35.700100
20
35.846500
11
35.722400
21
35.861400
0
LINE
8
Layer 1
10
35.722400
20
35.861400
11
35.748800
21
35.866600
0
LINE
8
Layer 1
10
35.748800
20
35.866600
11
36.161200
21
35.866600
0
LINE
8
Layer 1
10
36.161200
20
35.866600
11
36.187600
21
35.861400
0
LINE
8
Layer 1
10
36.187600
20
35.861400
11
36.209900
21
35.846500
0
LINE
8
Layer 1
10
36.209900
20
35.846500
11
36.224800
21
35.824200
0
LINE
8
Layer 1
10
36.224800
20
35.824200
11
36.230000
21
35.797800
0
LINE
8
Layer 1
10
36.230000
20
35.797800
11
36.230000
21
34.465300
0
LINE
8
Layer 1
10
37.030000
20
34.465300
11
37.024800
21
34.439000
0
LINE
8
Layer 1
10
37.024800
20
34.439000
11
37.009900
21
34.416700
0
LINE
8
Layer 1
10
37.009900
20
34.416700
11
36.987600
21
34.401800
0
LINE
8
Layer 1
10
36.987600
20
34.401800
11
36.961200
21
34.396600
0
LINE
8
Layer 1
10
36.961200
20
34.396600
11
36.548700
21
34.396600
0
LINE
8
Layer 1
10
36.548700
20
34.396600
11
36.522400
21
34.401800
0
LINE
8
Layer 1
10
36.522400
20
34.401800
11
36.500100
21
34.416700
0
LINE
8
Layer 1
10
36.500100
20
34.416700
11
36.485200
21
34.439000
0
LINE
8
Layer 1
10
36.485200
20
34.439000
11
36.480000
21
34.465300
0
LINE
8
Layer 1
10
36.480000
20
34.465300
11
36.480000
21
35.797800
0
LINE
8
Layer 1
10
36.480000
20
35.797800
11
36.485200
21
35.824200
0
LINE
8
Layer 1
10
36.485200
20
35.824200
11
36.500100
21
35.846500
0
LINE
8
Layer 1
10
36.500100
20
35.846500
11
36.522400
21
35.861400
0
LINE
8
Layer 1
10
36.522400
20
35.861400
11
36.548700
21
35.866600
0
LINE
8
Layer 1
10
36.548700
20
35.866600
11
36.961200
21
35.866600
0
LINE
8
Layer 1
10
36.961200
20
35.866600
11
36.987600
21
35.861400
0
LINE
8
Layer 1
10
36.987600
20
35.861400
11
37.009900
21
35.846500
0
LINE
8
Layer 1
10
37.009900
20
35.846500
11
37.024800
21
35.824200
0
LINE
8
Layer 1
10
37.024800
20
35.824200
11
37.030000
21
35.797800
0
LINE
8
Layer 1
10
37.030000
20
35.797800
11
37.030000
21
34.465300
0
LINE
8
Layer 1
10
37.830000
20
34.465300
11
37.824800
21
34.439000
0
LINE
8
Layer 1
10
37.824800
20
34.439000
11
37.809900
21
34.416700
0
LINE
8
Layer 1
10
37.809900
20
34.416700
11
37.787600
21
34.401800
0
LINE
8
Layer 1
10
37.787600
20
34.401800
11
37.761200
21
34.396600
0
LINE
8
Layer 1
10
37.761200
20
34.396600
11
37.348700
21
34.396600
0
LINE
8
Layer 1
10
37.348700
20
34.396600
11
37.322400
21
34.401800
0
LINE
8
Layer 1
10
37.322400
20
34.401800
11
37.300100
21
34.416700
0
LINE
8
Layer 1
10
37.300100
20
34.416700
11
37.285200
21
34.439000
0
LINE
8
Layer 1
10
37.285200
20
34.439000
11
37.280000
21
34.465300
0
LINE
8
Layer 1
10
37.280000
20
34.465300
11
37.280000
21
35.797800
0
LINE
8
Layer 1
10
37.280000
20
35.797800
11
37.285200
21
35.824200
0
LINE
8
Layer 1
10
37.285200
20
35.824200
11
37.300100
21
35.846500
0
LINE
8
Layer 1
10
37.300100
20
35.846500
11
37.322400
21
35.861400
0
LINE
8
Layer 1
10
37.322400
20
35.861400
11
37.348700
21
35.866600
0
LINE
8
Layer 1
10
37.348700
20
35.866600
11
37.761200
21
35.866600
0
LINE
8
Layer 1
10
37.761200
20
35.866600
11
37.787600
21
35.861400
0
LINE
8
Layer 1
10
37.787600
20
35.861400
11
37.809900
21
35.846500
0
LINE
8
Layer 1
10
37.809900
20
35.846500
11
37.824800
21
35.824200
0
LINE
8
Layer 1
10
37.824800
20
35.824200
11
37.830000
21
35.797800
0
LINE
8
Layer 1
10
37.830000
20
35.797800
11
37.830000
21
34.465300
0
LINE
8
Layer 1
10
23.115000
20
36.491600
11
23.115000
21
37.491600
0
LINE
8
Layer 1
10
23.115000
20
37.491600
11
24.615000
21
37.491600
0
LINE
8
Layer 1
10
24.615000
20
37.491600
11
24.615000
21
36.491600
0
LINE
8
Layer 1
10
24.615000
20
36.491600
11
23.115000
21
36.491600
0
LINE
8
Layer 1
10
23.115000
20
33.491600
11
23.115000
21
34.491600
0
LINE
8
Layer 1
10
23.115000
20
34.491600
11
24.615000
21
34.491600
0
LINE
8
Layer 1
10
24.615000
20
34.491600
11
24.615000
21
33.491600
0
LINE
8
Layer 1
10
24.615000
20
33.491600
11
23.115000
21
33.491600
0
LINE
8
Layer 1
10
54.675000
20
23.066600
11
54.690200
21
23.143100
0
LINE
8
Layer 1
10
54.690200
20
23.143100
11
54.733600
21
23.208000
0
LINE
8
Layer 1
10
54.733600
20
23.208000
11
54.798500
21
23.251400
0
LINE
8
Layer 1
10
54.798500
20
23.251400
11
54.875000
21
23.266600
0
LINE
8
Layer 1
10
54.875000
20
23.266600
11
55.275000
21
23.266600
0
LINE
8
Layer 1
10
55.275000
20
23.266600
11
55.351500
21
23.251400
0
LINE
8
Layer 1
10
55.351500
20
23.251400
11
55.416400
21
23.208000
0
LINE
8
Layer 1
10
55.416400
20
23.208000
11
55.459800
21
23.143100
0
LINE
8
Layer 1
10
55.459800
20
23.143100
11
55.475000
21
23.066600
0
LINE
8
Layer 1
10
55.475000
20
23.066600
11
55.475000
21
22.516600
0
LINE
8
Layer 1
10
55.475000
20
22.516600
11
55.459800
21
22.440100
0
LINE
8
Layer 1
10
55.459800
20
22.440100
11
55.416400
21
22.375200
0
LINE
8
Layer 1
10
55.416400
20
22.375200
11
55.351500
21
22.331800
0
LINE
8
Layer 1
10
55.351500
20
22.331800
11
55.275000
21
22.316600
0
LINE
8
Layer 1
10
55.275000
20
22.316600
11
54.875000
21
22.316600
0
LINE
8
Layer 1
10
54.875000
20
22.316600
11
54.798500
21
22.331800
0
LINE
8
Layer 1
10
54.798500
20
22.331800
11
54.733600
21
22.375200
0
LINE
8
Layer 1
10
54.733600
20
22.375200
11
54.690200
21
22.440100
0
LINE
8
Layer 1
10
54.690200
20
22.440100
11
54.675000
21
22.516600
0
LINE
8
Layer 1
10
54.675000
20
22.516600
11
54.675000
21
23.066600
0
LINE
8
Layer 1
10
56.325000
20
23.066600
11
56.340200
21
23.143100
0
LINE
8
Layer 1
10
56.340200
20
23.143100
11
56.383600
21
23.208000
0
LINE
8
Layer 1
10
56.383600
20
23.208000
11
56.448500
21
23.251400
0
LINE
8
Layer 1
10
56.448500
20
23.251400
11
56.525000
21
23.266600
0
LINE
8
Layer 1
10
56.525000
20
23.266600
11
56.925000
21
23.266600
0
LINE
8
Layer 1
10
56.925000
20
23.266600
11
57.001500
21
23.251400
0
LINE
8
Layer 1
10
57.001500
20
23.251400
11
57.066400
21
23.208000
0
LINE
8
Layer 1
10
57.066400
20
23.208000
11
57.109800
21
23.143100
0
LINE
8
Layer 1
10
57.109800
20
23.143100
11
57.125000
21
23.066600
0
LINE
8
Layer 1
10
57.125000
20
23.066600
11
57.125000
21
22.516600
0
LINE
8
Layer 1
10
57.125000
20
22.516600
11
57.109800
21
22.440100
0
LINE
8
Layer 1
10
57.109800
20
22.440100
11
57.066400
21
22.375200
0
LINE
8
Layer 1
10
57.066400
20
22.375200
11
57.001500
21
22.331800
0
LINE
8
Layer 1
10
57.001500
20
22.331800
11
56.925000
21
22.316600
0
LINE
8
Layer 1
10
56.925000
20
22.316600
11
56.525000
21
22.316600
0
LINE
8
Layer 1
10
56.525000
20
22.316600
11
56.448500
21
22.331800
0
LINE
8
Layer 1
10
56.448500
20
22.331800
11
56.383600
21
22.375200
0
LINE
8
Layer 1
10
56.383600
20
22.375200
11
56.340200
21
22.440100
0
LINE
8
Layer 1
10
56.340200
20
22.440100
11
56.325000
21
22.516600
0
LINE
8
Layer 1
10
56.325000
20
22.516600
11
56.325000
21
23.066600
0
LINE
8
Layer 1
10
54.295000
20
28.146600
11
54.310200
21
28.223100
0
LINE
8
Layer 1
10
54.310200
20
28.223100
11
54.353600
21
28.288000
0
LINE
8
Layer 1
10
54.353600
20
28.288000
11
54.418500
21
28.331400
0
LINE
8
Layer 1
10
54.418500
20
28.331400
11
54.495000
21
28.346600
0
LINE
8
Layer 1
10
54.495000
20
28.346600
11
54.895000
21
28.346600
0
LINE
8
Layer 1
10
54.895000
20
28.346600
11
54.971500
21
28.331400
0
LINE
8
Layer 1
10
54.971500
20
28.331400
11
55.036400
21
28.288000
0
LINE
8
Layer 1
10
55.036400
20
28.288000
11
55.079800
21
28.223100
0
LINE
8
Layer 1
10
55.079800
20
28.223100
11
55.095000
21
28.146600
0
LINE
8
Layer 1
10
55.095000
20
28.146600
11
55.095000
21
27.596600
0
LINE
8
Layer 1
10
55.095000
20
27.596600
11
55.079800
21
27.520100
0
LINE
8
Layer 1
10
55.079800
20
27.520100
11
55.036400
21
27.455200
0
LINE
8
Layer 1
10
55.036400
20
27.455200
11
54.971500
21
27.411800
0
LINE
8
Layer 1
10
54.971500
20
27.411800
11
54.895000
21
27.396600
0
LINE
8
Layer 1
10
54.895000
20
27.396600
11
54.495000
21
27.396600
0
LINE
8
Layer 1
10
54.495000
20
27.396600
11
54.418500
21
27.411800
0
LINE
8
Layer 1
10
54.418500
20
27.411800
11
54.353600
21
27.455200
0
LINE
8
Layer 1
10
54.353600
20
27.455200
11
54.310200
21
27.520100
0
LINE
8
Layer 1
10
54.310200
20
27.520100
11
54.295000
21
27.596600
0
LINE
8
Layer 1
10
54.295000
20
27.596600
11
54.295000
21
28.146600
0
LINE
8
Layer 1
10
55.945000
20
28.146600
11
55.960200
21
28.223100
0
LINE
8
Layer 1
10
55.960200
20
28.223100
11
56.003600
21
28.288000
0
LINE
8
Layer 1
10
56.003600
20
28.288000
11
56.068500
21
28.331400
0
LINE
8
Layer 1
10
56.068500
20
28.331400
11
56.145000
21
28.346600
0
LINE
8
Layer 1
10
56.145000
20
28.346600
11
56.545000
21
28.346600
0
LINE
8
Layer 1
10
56.545000
20
28.346600
11
56.621500
21
28.331400
0
LINE
8
Layer 1
10
56.621500
20
28.331400
11
56.686400
21
28.288000
0
LINE
8
Layer 1
10
56.686400
20
28.288000
11
56.729800
21
28.223100
0
LINE
8
Layer 1
10
56.729800
20
28.223100
11
56.745000
21
28.146600
0
LINE
8
Layer 1
10
56.745000
20
28.146600
11
56.745000
21
27.596600
0
LINE
8
Layer 1
10
56.745000
20
27.596600
11
56.729800
21
27.520100
0
LINE
8
Layer 1
10
56.729800
20
27.520100
11
56.686400
21
27.455200
0
LINE
8
Layer 1
10
56.686400
20
27.455200
11
56.621500
21
27.411800
0
LINE
8
Layer 1
10
56.621500
20
27.411800
11
56.545000
21
27.396600
0
LINE
8
Layer 1
10
56.545000
20
27.396600
11
56.145000
21
27.396600
0
LINE
8
Layer 1
10
56.145000
20
27.396600
11
56.068500
21
27.411800
0
LINE
8
Layer 1
10
56.068500
20
27.411800
11
56.003600
21
27.455200
0
LINE
8
Layer 1
10
56.003600
20
27.455200
11
55.960200
21
27.520100
0
LINE
8
Layer 1
10
55.960200
20
27.520100
11
55.945000
21
27.596600
0
LINE
8
Layer 1
10
55.945000
20
27.596600
11
55.945000
21
28.146600
0
LINE
8
Layer 1
10
29.268600
20
22.907000
11
29.268600
21
23.465800
0
LINE
8
Layer 1
10
29.268600
20
23.465800
11
30.589400
21
23.465800
0
LINE
8
Layer 1
10
30.589400
20
23.465800
11
30.589400
21
22.907000
0
LINE
8
Layer 1
10
30.589400
20
22.907000
11
29.268600
21
22.907000
0
LINE
8
Layer 1
10
29.268600
20
21.027400
11
29.268600
21
21.586200
0
LINE
8
Layer 1
10
29.268600
20
21.586200
11
30.589400
21
21.586200
0
LINE
8
Layer 1
10
30.589400
20
21.586200
11
30.589400
21
21.027400
0
LINE
8
Layer 1
10
30.589400
20
21.027400
11
29.268600
21
21.027400
0
LINE
8
Layer 1
10
31.300600
20
21.967200
11
31.300600
21
22.526000
0
LINE
8
Layer 1
10
31.300600
20
22.526000
11
32.621400
21
22.526000
0
LINE
8
Layer 1
10
32.621400
20
22.526000
11
32.621400
21
21.967200
0
LINE
8
Layer 1
10
32.621400
20
21.967200
11
31.300600
21
21.967200
0
LINE
8
Layer 1
10
45.365000
20
44.131600
11
45.347900
21
44.045500
0
LINE
8
Layer 1
10
45.347900
20
44.045500
11
45.299100
21
43.972500
0
LINE
8
Layer 1
10
45.299100
20
43.972500
11
45.226100
21
43.923700
0
LINE
8
Layer 1
10
45.226100
20
43.923700
11
45.140000
21
43.906600
0
LINE
8
Layer 1
10
45.140000
20
43.906600
11
44.690000
21
43.906600
0
LINE
8
Layer 1
10
44.690000
20
43.906600
11
44.603900
21
43.923700
0
LINE
8
Layer 1
10
44.603900
20
43.923700
11
44.530900
21
43.972500
0
LINE
8
Layer 1
10
44.530900
20
43.972500
11
44.482100
21
44.045500
0
LINE
8
Layer 1
10
44.482100
20
44.045500
11
44.465000
21
44.131600
0
LINE
8
Layer 1
10
44.465000
20
44.131600
11
44.465000
21
44.631600
0
LINE
8
Layer 1
10
44.465000
20
44.631600
11
44.482100
21
44.717700
0
LINE
8
Layer 1
10
44.482100
20
44.717700
11
44.530900
21
44.790700
0
LINE
8
Layer 1
10
44.530900
20
44.790700
11
44.603900
21
44.839500
0
LINE
8
Layer 1
10
44.603900
20
44.839500
11
44.690000
21
44.856600
0
LINE
8
Layer 1
10
44.690000
20
44.856600
11
45.140000
21
44.856600
0
LINE
8
Layer 1
10
45.140000
20
44.856600
11
45.226100
21
44.839500
0
LINE
8
Layer 1
10
45.226100
20
44.839500
11
45.299100
21
44.790700
0
LINE
8
Layer 1
10
45.299100
20
44.790700
11
45.347900
21
44.717700
0
LINE
8
Layer 1
10
45.347900
20
44.717700
11
45.365000
21
44.631600
0
LINE
8
Layer 1
10
45.365000
20
44.631600
11
45.365000
21
44.131600
0
LINE
8
Layer 1
10
43.815000
20
44.131600
11
43.797900
21
44.045500
0
LINE
8
Layer 1
10
43.797900
20
44.045500
11
43.749100
21
43.972500
0
LINE
8
Layer 1
10
43.749100
20
43.972500
11
43.676100
21
43.923700
0
LINE
8
Layer 1
10
43.676100
20
43.923700
11
43.590000
21
43.906600
0
LINE
8
Layer 1
10
43.590000
20
43.906600
11
43.140000
21
43.906600
0
LINE
8
Layer 1
10
43.140000
20
43.906600
11
43.053900
21
43.923700
0
LINE
8
Layer 1
10
43.053900
20
43.923700
11
42.980900
21
43.972500
0
LINE
8
Layer 1
10
42.980900
20
43.972500
11
42.932100
21
44.045500
0
LINE
8
Layer 1
10
42.932100
20
44.045500
11
42.915000
21
44.131600
0
LINE
8
Layer 1
10
42.915000
20
44.131600
11
42.915000
21
44.631600
0
LINE
8
Layer 1
10
42.915000
20
44.631600
11
42.932100
21
44.717700
0
LINE
8
Layer 1
10
42.932100
20
44.717700
11
42.980900
21
44.790700
0
LINE
8
Layer 1
10
42.980900
20
44.790700
11
43.053900
21
44.839500
0
LINE
8
Layer 1
10
43.053900
20
44.839500
11
43.140000
21
44.856600
0
LINE
8
Layer 1
10
43.140000
20
44.856600
11
43.590000
21
44.856600
0
LINE
8
Layer 1
10
43.590000
20
44.856600
11
43.676100
21
44.839500
0
LINE
8
Layer 1
10
43.676100
20
44.839500
11
43.749100
21
44.790700
0
LINE
8
Layer 1
10
43.749100
20
44.790700
11
43.797900
21
44.717700
0
LINE
8
Layer 1
10
43.797900
20
44.717700
11
43.815000
21
44.631600
0
LINE
8
Layer 1
10
43.815000
20
44.631600
11
43.815000
21
44.131600
0
LINE
8
Layer 1
10
26.860000
20
12.956600
11
26.783500
21
12.971800
0
LINE
8
Layer 1
10
26.783500
20
12.971800
11
26.718600
21
13.015200
0
LINE
8
Layer 1
10
26.718600
20
13.015200
11
26.675200
21
13.080100
0
LINE
8
Layer 1
10
26.675200
20
13.080100
11
26.660000
21
13.156600
0
LINE
8
Layer 1
10
26.660000
20
13.156600
11
26.660000
21
13.556600
0
LINE
8
Layer 1
10
26.660000
20
13.556600
11
26.675200
21
13.633100
0
LINE
8
Layer 1
10
26.675200
20
13.633100
11
26.718600
21
13.698000
0
LINE
8
Layer 1
10
26.718600
20
13.698000
11
26.783500
21
13.741400
0
LINE
8
Layer 1
10
26.783500
20
13.741400
11
26.860000
21
13.756600
0
LINE
8
Layer 1
10
26.860000
20
13.756600
11
27.410000
21
13.756600
0
LINE
8
Layer 1
10
27.410000
20
13.756600
11
27.486500
21
13.741400
0
LINE
8
Layer 1
10
27.486500
20
13.741400
11
27.551400
21
13.698000
0
LINE
8
Layer 1
10
27.551400
20
13.698000
11
27.594800
21
13.633100
0
LINE
8
Layer 1
10
27.594800
20
13.633100
11
27.610000
21
13.556600
0
LINE
8
Layer 1
10
27.610000
20
13.556600
11
27.610000
21
13.156600
0
LINE
8
Layer 1
10
27.610000
20
13.156600
11
27.594800
21
13.080100
0
LINE
8
Layer 1
10
27.594800
20
13.080100
11
27.551400
21
13.015200
0
LINE
8
Layer 1
10
27.551400
20
13.015200
11
27.486500
21
12.971800
0
LINE
8
Layer 1
10
27.486500
20
12.971800
11
27.410000
21
12.956600
0
LINE
8
Layer 1
10
27.410000
20
12.956600
11
26.860000
21
12.956600
0
LINE
8
Layer 1
10
26.860000
20
14.606600
11
26.783500
21
14.621800
0
LINE
8
Layer 1
10
26.783500
20
14.621800
11
26.718600
21
14.665200
0
LINE
8
Layer 1
10
26.718600
20
14.665200
11
26.675200
21
14.730100
0
LINE
8
Layer 1
10
26.675200
20
14.730100
11
26.660000
21
14.806600
0
LINE
8
Layer 1
10
26.660000
20
14.806600
11
26.660000
21
15.206600
0
LINE
8
Layer 1
10
26.660000
20
15.206600
11
26.675200
21
15.283100
0
LINE
8
Layer 1
10
26.675200
20
15.283100
11
26.718600
21
15.348000
0
LINE
8
Layer 1
10
26.718600
20
15.348000
11
26.783500
21
15.391400
0
LINE
8
Layer 1
10
26.783500
20
15.391400
11
26.860000
21
15.406600
0
LINE
8
Layer 1
10
26.860000
20
15.406600
11
27.410000
21
15.406600
0
LINE
8
Layer 1
10
27.410000
20
15.406600
11
27.486500
21
15.391400
0
LINE
8
Layer 1
10
27.486500
20
15.391400
11
27.551400
21
15.348000
0
LINE
8
Layer 1
10
27.551400
20
15.348000
11
27.594800
21
15.283100
0
LINE
8
Layer 1
10
27.594800
20
15.283100
11
27.610000
21
15.206600
0
LINE
8
Layer 1
10
27.610000
20
15.206600
11
27.610000
21
14.806600
0
LINE
8
Layer 1
10
27.610000
20
14.806600
11
27.594800
21
14.730100
0
LINE
8
Layer 1
10
27.594800
20
14.730100
11
27.551400
21
14.665200
0
LINE
8
Layer 1
10
27.551400
20
14.665200
11
27.486500
21
14.621800
0
LINE
8
Layer 1
10
27.486500
20
14.621800
11
27.410000
21
14.606600
0
LINE
8
Layer 1
10
27.410000
20
14.606600
11
26.860000
21
14.606600
0
LINE
8
Layer 1
10
50.355000
20
40.086600
11
50.366400
21
40.144000
0
LINE
8
Layer 1
10
50.366400
20
40.144000
11
50.398900
21
40.192700
0
LINE
8
Layer 1
10
50.398900
20
40.192700
11
50.447600
21
40.225200
0
LINE
8
Layer 1
10
50.447600
20
40.225200
11
50.505000
21
40.236600
0
LINE
8
Layer 1
10
50.505000
20
40.236600
11
52.155000
21
40.236600
0
LINE
8
Layer 1
10
52.155000
20
40.236600
11
52.212400
21
40.225200
0
LINE
8
Layer 1
10
52.212400
20
40.225200
11
52.261100
21
40.192700
0
LINE
8
Layer 1
10
52.261100
20
40.192700
11
52.293600
21
40.144000
0
LINE
8
Layer 1
10
52.293600
20
40.144000
11
52.305000
21
40.086600
0
LINE
8
Layer 1
10
52.305000
20
40.086600
11
52.305000
21
39.786600
0
LINE
8
Layer 1
10
52.305000
20
39.786600
11
52.293600
21
39.729200
0
LINE
8
Layer 1
10
52.293600
20
39.729200
11
52.261100
21
39.680500
0
LINE
8
Layer 1
10
52.261100
20
39.680500
11
52.212400
21
39.648000
0
LINE
8
Layer 1
10
52.212400
20
39.648000
11
52.155000
21
39.636600
0
LINE
8
Layer 1
10
52.155000
20
39.636600
11
50.505000
21
39.636600
0
LINE
8
Layer 1
10
50.505000
20
39.636600
11
50.447600
21
39.648000
0
LINE
8
Layer 1
10
50.447600
20
39.648000
11
50.398900
21
39.680500
0
LINE
8
Layer 1
10
50.398900
20
39.680500
11
50.366400
21
39.729200
0
LINE
8
Layer 1
10
50.366400
20
39.729200
11
50.355000
21
39.786600
0
LINE
8
Layer 1
10
50.355000
20
39.786600
11
50.355000
21
40.086600
0
LINE
8
Layer 1
10
50.355000
20
38.816600
11
50.366400
21
38.874000
0
LINE
8
Layer 1
10
50.366400
20
38.874000
11
50.398900
21
38.922700
0
LINE
8
Layer 1
10
50.398900
20
38.922700
11
50.447600
21
38.955200
0
LINE
8
Layer 1
10
50.447600
20
38.955200
11
50.505000
21
38.966600
0
LINE
8
Layer 1
10
50.505000
20
38.966600
11
52.155000
21
38.966600
0
LINE
8
Layer 1
10
52.155000
20
38.966600
11
52.212400
21
38.955200
0
LINE
8
Layer 1
10
52.212400
20
38.955200
11
52.261100
21
38.922700
0
LINE
8
Layer 1
10
52.261100
20
38.922700
11
52.293600
21
38.874000
0
LINE
8
Layer 1
10
52.293600
20
38.874000
11
52.305000
21
38.816600
0
LINE
8
Layer 1
10
52.305000
20
38.816600
11
52.305000
21
38.516600
0
LINE
8
Layer 1
10
52.305000
20
38.516600
11
52.293600
21
38.459200
0
LINE
8
Layer 1
10
52.293600
20
38.459200
11
52.261100
21
38.410500
0
LINE
8
Layer 1
10
52.261100
20
38.410500
11
52.212400
21
38.378000
0
LINE
8
Layer 1
10
52.212400
20
38.378000
11
52.155000
21
38.366600
0
LINE
8
Layer 1
10
52.155000
20
38.366600
11
50.505000
21
38.366600
0
LINE
8
Layer 1
10
50.505000
20
38.366600
11
50.447600
21
38.378000
0
LINE
8
Layer 1
10
50.447600
20
38.378000
11
50.398900
21
38.410500
0
LINE
8
Layer 1
10
50.398900
20
38.410500
11
50.366400
21
38.459200
0
LINE
8
Layer 1
10
50.366400
20
38.459200
11
50.355000
21
38.516600
0
LINE
8
Layer 1
10
50.355000
20
38.516600
11
50.355000
21
38.816600
0
LINE
8
Layer 1
10
50.355000
20
37.546600
11
50.366400
21
37.604000
0
LINE
8
Layer 1
10
50.366400
20
37.604000
11
50.398900
21
37.652700
0
LINE
8
Layer 1
10
50.398900
20
37.652700
11
50.447600
21
37.685200
0
LINE
8
Layer 1
10
50.447600
20
37.685200
11
50.505000
21
37.696600
0
LINE
8
Layer 1
10
50.505000
20
37.696600
11
52.155000
21
37.696600
0
LINE
8
Layer 1
10
52.155000
20
37.696600
11
52.212400
21
37.685200
0
LINE
8
Layer 1
10
52.212400
20
37.685200
11
52.261100
21
37.652700
0
LINE
8
Layer 1
10
52.261100
20
37.652700
11
52.293600
21
37.604000
0
LINE
8
Layer 1
10
52.293600
20
37.604000
11
52.305000
21
37.546600
0
LINE
8
Layer 1
10
52.305000
20
37.546600
11
52.305000
21
37.246600
0
LINE
8
Layer 1
10
52.305000
20
37.246600
11
52.293600
21
37.189200
0
LINE
8
Layer 1
10
52.293600
20
37.189200
11
52.261100
21
37.140500
0
LINE
8
Layer 1
10
52.261100
20
37.140500
11
52.212400
21
37.108000
0
LINE
8
Layer 1
10
52.212400
20
37.108000
11
52.155000
21
37.096600
0
LINE
8
Layer 1
10
52.155000
20
37.096600
11
50.505000
21
37.096600
0
LINE
8
Layer 1
10
50.505000
20
37.096600
11
50.447600
21
37.108000
0
LINE
8
Layer 1
10
50.447600
20
37.108000
11
50.398900
21
37.140500
0
LINE
8
Layer 1
10
50.398900
20
37.140500
11
50.366400
21
37.189200
0
LINE
8
Layer 1
10
50.366400
20
37.189200
11
50.355000
21
37.246600
0
LINE
8
Layer 1
10
50.355000
20
37.246600
11
50.355000
21
37.546600
0
LINE
8
Layer 1
10
50.355000
20
36.276600
11
50.366400
21
36.334000
0
LINE
8
Layer 1
10
50.366400
20
36.334000
11
50.398900
21
36.382700
0
LINE
8
Layer 1
10
50.398900
20
36.382700
11
50.447600
21
36.415200
0
LINE
8
Layer 1
10
50.447600
20
36.415200
11
50.505000
21
36.426600
0
LINE
8
Layer 1
10
50.505000
20
36.426600
11
52.155000
21
36.426600
0
LINE
8
Layer 1
10
52.155000
20
36.426600
11
52.212400
21
36.415200
0
LINE
8
Layer 1
10
52.212400
20
36.415200
11
52.261100
21
36.382700
0
LINE
8
Layer 1
10
52.261100
20
36.382700
11
52.293600
21
36.334000
0
LINE
8
Layer 1
10
52.293600
20
36.334000
11
52.305000
21
36.276600
0
LINE
8
Layer 1
10
52.305000
20
36.276600
11
52.305000
21
35.976600
0
LINE
8
Layer 1
10
52.305000
20
35.976600
11
52.293600
21
35.919200
0
LINE
8
Layer 1
10
52.293600
20
35.919200
11
52.261100
21
35.870500
0
LINE
8
Layer 1
10
52.261100
20
35.870500
11
52.212400
21
35.838000
0
LINE
8
Layer 1
10
52.212400
20
35.838000
11
52.155000
21
35.826600
0
LINE
8
Layer 1
10
52.155000
20
35.826600
11
50.505000
21
35.826600
0
LINE
8
Layer 1
10
50.505000
20
35.826600
11
50.447600
21
35.838000
0
LINE
8
Layer 1
10
50.447600
20
35.838000
11
50.398900
21
35.870500
0
LINE
8
Layer 1
10
50.398900
20
35.870500
11
50.366400
21
35.919200
0
LINE
8
Layer 1
10
50.366400
20
35.919200
11
50.355000
21
35.976600
0
LINE
8
Layer 1
10
50.355000
20
35.976600
11
50.355000
21
36.276600
0
LINE
8
Layer 1
10
50.355000
20
35.006600
11
50.366400
21
35.064000
0
LINE
8
Layer 1
10
50.366400
20
35.064000
11
50.398900
21
35.112700
0
LINE
8
Layer 1
10
50.398900
20
35.112700
11
50.447600
21
35.145200
0
LINE
8
Layer 1
10
50.447600
20
35.145200
11
50.505000
21
35.156600
0
LINE
8
Layer 1
10
50.505000
20
35.156600
11
52.155000
21
35.156600
0
LINE
8
Layer 1
10
52.155000
20
35.156600
11
52.212400
21
35.145200
0
LINE
8
Layer 1
10
52.212400
20
35.145200
11
52.261100
21
35.112700
0
LINE
8
Layer 1
10
52.261100
20
35.112700
11
52.293600
21
35.064000
0
LINE
8
Layer 1
10
52.293600
20
35.064000
11
52.305000
21
35.006600
0
LINE
8
Layer 1
10
52.305000
20
35.006600
11
52.305000
21
34.706600
0
LINE
8
Layer 1
10
52.305000
20
34.706600
11
52.293600
21
34.649200
0
LINE
8
Layer 1
10
52.293600
20
34.649200
11
52.261100
21
34.600500
0
LINE
8
Layer 1
10
52.261100
20
34.600500
11
52.212400
21
34.568000
0
LINE
8
Layer 1
10
52.212400
20
34.568000
11
52.155000
21
34.556600
0
LINE
8
Layer 1
10
52.155000
20
34.556600
11
50.505000
21
34.556600
0
LINE
8
Layer 1
10
50.505000
20
34.556600
11
50.447600
21
34.568000
0
LINE
8
Layer 1
10
50.447600
20
34.568000
11
50.398900
21
34.600500
0
LINE
8
Layer 1
10
50.398900
20
34.600500
11
50.366400
21
34.649200
0
LINE
8
Layer 1
10
50.366400
20
34.649200
11
50.355000
21
34.706600
0
LINE
8
Layer 1
10
50.355000
20
34.706600
11
50.355000
21
35.006600
0
LINE
8
Layer 1
10
50.355000
20
33.736600
11
50.366400
21
33.794000
0
LINE
8
Layer 1
10
50.366400
20
33.794000
11
50.398900
21
33.842700
0
LINE
8
Layer 1
10
50.398900
20
33.842700
11
50.447600
21
33.875200
0
LINE
8
Layer 1
10
50.447600
20
33.875200
11
50.505000
21
33.886600
0
LINE
8
Layer 1
10
50.505000
20
33.886600
11
52.155000
21
33.886600
0
LINE
8
Layer 1
10
52.155000
20
33.886600
11
52.212400
21
33.875200
0
LINE
8
Layer 1
10
52.212400
20
33.875200
11
52.261100
21
33.842700
0
LINE
8
Layer 1
10
52.261100
20
33.842700
11
52.293600
21
33.794000
0
LINE
8
Layer 1
10
52.293600
20
33.794000
11
52.305000
21
33.736600
0
LINE
8
Layer 1
10
52.305000
20
33.736600
11
52.305000
21
33.436600
0
LINE
8
Layer 1
10
52.305000
20
33.436600
11
52.293600
21
33.379200
0
LINE
8
Layer 1
10
52.293600
20
33.379200
11
52.261100
21
33.330500
0
LINE
8
Layer 1
10
52.261100
20
33.330500
11
52.212400
21
33.298000
0
LINE
8
Layer 1
10
52.212400
20
33.298000
11
52.155000
21
33.286600
0
LINE
8
Layer 1
10
52.155000
20
33.286600
11
50.505000
21
33.286600
0
LINE
8
Layer 1
10
50.505000
20
33.286600
11
50.447600
21
33.298000
0
LINE
8
Layer 1
10
50.447600
20
33.298000
11
50.398900
21
33.330500
0
LINE
8
Layer 1
10
50.398900
20
33.330500
11
50.366400
21
33.379200
0
LINE
8
Layer 1
10
50.366400
20
33.379200
11
50.355000
21
33.436600
0
LINE
8
Layer 1
10
50.355000
20
33.436600
11
50.355000
21
33.736600
0
LINE
8
Layer 1
10
50.355000
20
32.466600
11
50.366400
21
32.524000
0
LINE
8
Layer 1
10
50.366400
20
32.524000
11
50.398900
21
32.572700
0
LINE
8
Layer 1
10
50.398900
20
32.572700
11
50.447600
21
32.605200
0
LINE
8
Layer 1
10
50.447600
20
32.605200
11
50.505000
21
32.616600
0
LINE
8
Layer 1
10
50.505000
20
32.616600
11
52.155000
21
32.616600
0
LINE
8
Layer 1
10
52.155000
20
32.616600
11
52.212400
21
32.605200
0
LINE
8
Layer 1
10
52.212400
20
32.605200
11
52.261100
21
32.572700
0
LINE
8
Layer 1
10
52.261100
20
32.572700
11
52.293600
21
32.524000
0
LINE
8
Layer 1
10
52.293600
20
32.524000
11
52.305000
21
32.466600
0
LINE
8
Layer 1
10
52.305000
20
32.466600
11
52.305000
21
32.166600
0
LINE
8
Layer 1
10
52.305000
20
32.166600
11
52.293600
21
32.109200
0
LINE
8
Layer 1
10
52.293600
20
32.109200
11
52.261100
21
32.060500
0
LINE
8
Layer 1
10
52.261100
20
32.060500
11
52.212400
21
32.028000
0
LINE
8
Layer 1
10
52.212400
20
32.028000
11
52.155000
21
32.016600
0
LINE
8
Layer 1
10
52.155000
20
32.016600
11
50.505000
21
32.016600
0
LINE
8
Layer 1
10
50.505000
20
32.016600
11
50.447600
21
32.028000
0
LINE
8
Layer 1
10
50.447600
20
32.028000
11
50.398900
21
32.060500
0
LINE
8
Layer 1
10
50.398900
20
32.060500
11
50.366400
21
32.109200
0
LINE
8
Layer 1
10
50.366400
20
32.109200
11
50.355000
21
32.166600
0
LINE
8
Layer 1
10
50.355000
20
32.166600
11
50.355000
21
32.466600
0
LINE
8
Layer 1
10
50.355000
20
31.196600
11
50.366400
21
31.254000
0
LINE
8
Layer 1
10
50.366400
20
31.254000
11
50.398900
21
31.302700
0
LINE
8
Layer 1
10
50.398900
20
31.302700
11
50.447600
21
31.335200
0
LINE
8
Layer 1
10
50.447600
20
31.335200
11
50.505000
21
31.346600
0
LINE
8
Layer 1
10
50.505000
20
31.346600
11
52.155000
21
31.346600
0
LINE
8
Layer 1
10
52.155000
20
31.346600
11
52.212400
21
31.335200
0
LINE
8
Layer 1
10
52.212400
20
31.335200
11
52.261100
21
31.302700
0
LINE
8
Layer 1
10
52.261100
20
31.302700
11
52.293600
21
31.254000
0
LINE
8
Layer 1
10
52.293600
20
31.254000
11
52.305000
21
31.196600
0
LINE
8
Layer 1
10
52.305000
20
31.196600
11
52.305000
21
30.896600
0
LINE
8
Layer 1
10
52.305000
20
30.896600
11
52.293600
21
30.839200
0
LINE
8
Layer 1
10
52.293600
20
30.839200
11
52.261100
21
30.790500
0
LINE
8
Layer 1
10
52.261100
20
30.790500
11
52.212400
21
30.758000
0
LINE
8
Layer 1
10
52.212400
20
30.758000
11
52.155000
21
30.746600
0
LINE
8
Layer 1
10
52.155000
20
30.746600
11
50.505000
21
30.746600
0
LINE
8
Layer 1
10
50.505000
20
30.746600
11
50.447600
21
30.758000
0
LINE
8
Layer 1
10
50.447600
20
30.758000
11
50.398900
21
30.790500
0
LINE
8
Layer 1
10
50.398900
20
30.790500
11
50.366400
21
30.839200
0
LINE
8
Layer 1
10
50.366400
20
30.839200
11
50.355000
21
30.896600
0
LINE
8
Layer 1
10
50.355000
20
30.896600
11
50.355000
21
31.196600
0
LINE
8
Layer 1
10
55.305000
20
31.196600
11
55.316400
21
31.254000
0
LINE
8
Layer 1
10
55.316400
20
31.254000
11
55.348900
21
31.302700
0
LINE
8
Layer 1
10
55.348900
20
31.302700
11
55.397600
21
31.335200
0
LINE
8
Layer 1
10
55.397600
20
31.335200
11
55.455000
21
31.346600
0
LINE
8
Layer 1
10
55.455000
20
31.346600
11
57.105000
21
31.346600
0
LINE
8
Layer 1
10
57.105000
20
31.346600
11
57.162400
21
31.335200
0
LINE
8
Layer 1
10
57.162400
20
31.335200
11
57.211100
21
31.302700
0
LINE
8
Layer 1
10
57.211100
20
31.302700
11
57.243600
21
31.254000
0
LINE
8
Layer 1
10
57.243600
20
31.254000
11
57.255000
21
31.196600
0
LINE
8
Layer 1
10
57.255000
20
31.196600
11
57.255000
21
30.896600
0
LINE
8
Layer 1
10
57.255000
20
30.896600
11
57.243600
21
30.839200
0
LINE
8
Layer 1
10
57.243600
20
30.839200
11
57.211100
21
30.790500
0
LINE
8
Layer 1
10
57.211100
20
30.790500
11
57.162400
21
30.758000
0
LINE
8
Layer 1
10
57.162400
20
30.758000
11
57.105000
21
30.746600
0
LINE
8
Layer 1
10
57.105000
20
30.746600
11
55.455000
21
30.746600
0
LINE
8
Layer 1
10
55.455000
20
30.746600
11
55.397600
21
30.758000
0
LINE
8
Layer 1
10
55.397600
20
30.758000
11
55.348900
21
30.790500
0
LINE
8
Layer 1
10
55.348900
20
30.790500
11
55.316400
21
30.839200
0
LINE
8
Layer 1
10
55.316400
20
30.839200
11
55.305000
21
30.896600
0
LINE
8
Layer 1
10
55.305000
20
30.896600
11
55.305000
21
31.196600
0
LINE
8
Layer 1
10
55.305000
20
32.466600
11
55.316400
21
32.524000
0
LINE
8
Layer 1
10
55.316400
20
32.524000
11
55.348900
21
32.572700
0
LINE
8
Layer 1
10
55.348900
20
32.572700
11
55.397600
21
32.605200
0
LINE
8
Layer 1
10
55.397600
20
32.605200
11
55.455000
21
32.616600
0
LINE
8
Layer 1
10
55.455000
20
32.616600
11
57.105000
21
32.616600
0
LINE
8
Layer 1
10
57.105000
20
32.616600
11
57.162400
21
32.605200
0
LINE
8
Layer 1
10
57.162400
20
32.605200
11
57.211100
21
32.572700
0
LINE
8
Layer 1
10
57.211100
20
32.572700
11
57.243600
21
32.524000
0
LINE
8
Layer 1
10
57.243600
20
32.524000
11
57.255000
21
32.466600
0
LINE
8
Layer 1
10
57.255000
20
32.466600
11
57.255000
21
32.166600
0
LINE
8
Layer 1
10
57.255000
20
32.166600
11
57.243600
21
32.109200
0
LINE
8
Layer 1
10
57.243600
20
32.109200
11
57.211100
21
32.060500
0
LINE
8
Layer 1
10
57.211100
20
32.060500
11
57.162400
21
32.028000
0
LINE
8
Layer 1
10
57.162400
20
32.028000
11
57.105000
21
32.016600
0
LINE
8
Layer 1
10
57.105000
20
32.016600
11
55.455000
21
32.016600
0
LINE
8
Layer 1
10
55.455000
20
32.016600
11
55.397600
21
32.028000
0
LINE
8
Layer 1
10
55.397600
20
32.028000
11
55.348900
21
32.060500
0
LINE
8
Layer 1
10
55.348900
20
32.060500
11
55.316400
21
32.109200
0
LINE
8
Layer 1
10
55.316400
20
32.109200
11
55.305000
21
32.166600
0
LINE
8
Layer 1
10
55.305000
20
32.166600
11
55.305000
21
32.466600
0
LINE
8
Layer 1
10
55.305000
20
33.736600
11
55.316400
21
33.794000
0
LINE
8
Layer 1
10
55.316400
20
33.794000
11
55.348900
21
33.842700
0
LINE
8
Layer 1
10
55.348900
20
33.842700
11
55.397600
21
33.875200
0
LINE
8
Layer 1
10
55.397600
20
33.875200
11
55.455000
21
33.886600
0
LINE
8
Layer 1
10
55.455000
20
33.886600
11
57.105000
21
33.886600
0
LINE
8
Layer 1
10
57.105000
20
33.886600
11
57.162400
21
33.875200
0
LINE
8
Layer 1
10
57.162400
20
33.875200
11
57.211100
21
33.842700
0
LINE
8
Layer 1
10
57.211100
20
33.842700
11
57.243600
21
33.794000
0
LINE
8
Layer 1
10
57.243600
20
33.794000
11
57.255000
21
33.736600
0
LINE
8
Layer 1
10
57.255000
20
33.736600
11
57.255000
21
33.436600
0
LINE
8
Layer 1
10
57.255000
20
33.436600
11
57.243600
21
33.379200
0
LINE
8
Layer 1
10
57.243600
20
33.379200
11
57.211100
21
33.330500
0
LINE
8
Layer 1
10
57.211100
20
33.330500
11
57.162400
21
33.298000
0
LINE
8
Layer 1
10
57.162400
20
33.298000
11
57.105000
21
33.286600
0
LINE
8
Layer 1
10
57.105000
20
33.286600
11
55.455000
21
33.286600
0
LINE
8
Layer 1
10
55.455000
20
33.286600
11
55.397600
21
33.298000
0
LINE
8
Layer 1
10
55.397600
20
33.298000
11
55.348900
21
33.330500
0
LINE
8
Layer 1
10
55.348900
20
33.330500
11
55.316400
21
33.379200
0
LINE
8
Layer 1
10
55.316400
20
33.379200
11
55.305000
21
33.436600
0
LINE
8
Layer 1
10
55.305000
20
33.436600
11
55.305000
21
33.736600
0
LINE
8
Layer 1
10
55.305000
20
35.006600
11
55.316400
21
35.064000
0
LINE
8
Layer 1
10
55.316400
20
35.064000
11
55.348900
21
35.112700
0
LINE
8
Layer 1
10
55.348900
20
35.112700
11
55.397600
21
35.145200
0
LINE
8
Layer 1
10
55.397600
20
35.145200
11
55.455000
21
35.156600
0
LINE
8
Layer 1
10
55.455000
20
35.156600
11
57.105000
21
35.156600
0
LINE
8
Layer 1
10
57.105000
20
35.156600
11
57.162400
21
35.145200
0
LINE
8
Layer 1
10
57.162400
20
35.145200
11
57.211100
21
35.112700
0
LINE
8
Layer 1
10
57.211100
20
35.112700
11
57.243600
21
35.064000
0
LINE
8
Layer 1
10
57.243600
20
35.064000
11
57.255000
21
35.006600
0
LINE
8
Layer 1
10
57.255000
20
35.006600
11
57.255000
21
34.706600
0
LINE
8
Layer 1
10
57.255000
20
34.706600
11
57.243600
21
34.649200
0
LINE
8
Layer 1
10
57.243600
20
34.649200
11
57.211100
21
34.600500
0
LINE
8
Layer 1
10
57.211100
20
34.600500
11
57.162400
21
34.568000
0
LINE
8
Layer 1
10
57.162400
20
34.568000
11
57.105000
21
34.556600
0
LINE
8
Layer 1
10
57.105000
20
34.556600
11
55.455000
21
34.556600
0
LINE
8
Layer 1
10
55.455000
20
34.556600
11
55.397600
21
34.568000
0
LINE
8
Layer 1
10
55.397600
20
34.568000
11
55.348900
21
34.600500
0
LINE
8
Layer 1
10
55.348900
20
34.600500
11
55.316400
21
34.649200
0
LINE
8
Layer 1
10
55.316400
20
34.649200
11
55.305000
21
34.706600
0
LINE
8
Layer 1
10
55.305000
20
34.706600
11
55.305000
21
35.006600
0
LINE
8
Layer 1
10
55.305000
20
36.276600
11
55.316400
21
36.334000
0
LINE
8
Layer 1
10
55.316400
20
36.334000
11
55.348900
21
36.382700
0
LINE
8
Layer 1
10
55.348900
20
36.382700
11
55.397600
21
36.415200
0
LINE
8
Layer 1
10
55.397600
20
36.415200
11
55.455000
21
36.426600
0
LINE
8
Layer 1
10
55.455000
20
36.426600
11
57.105000
21
36.426600
0
LINE
8
Layer 1
10
57.105000
20
36.426600
11
57.162400
21
36.415200
0
LINE
8
Layer 1
10
57.162400
20
36.415200
11
57.211100
21
36.382700
0
LINE
8
Layer 1
10
57.211100
20
36.382700
11
57.243600
21
36.334000
0
LINE
8
Layer 1
10
57.243600
20
36.334000
11
57.255000
21
36.276600
0
LINE
8
Layer 1
10
57.255000
20
36.276600
11
57.255000
21
35.976600
0
LINE
8
Layer 1
10
57.255000
20
35.976600
11
57.243600
21
35.919200
0
LINE
8
Layer 1
10
57.243600
20
35.919200
11
57.211100
21
35.870500
0
LINE
8
Layer 1
10
57.211100
20
35.870500
11
57.162400
21
35.838000
0
LINE
8
Layer 1
10
57.162400
20
35.838000
11
57.105000
21
35.826600
0
LINE
8
Layer 1
10
57.105000
20
35.826600
11
55.455000
21
35.826600
0
LINE
8
Layer 1
10
55.455000
20
35.826600
11
55.397600
21
35.838000
0
LINE
8
Layer 1
10
55.397600
20
35.838000
11
55.348900
21
35.870500
0
LINE
8
Layer 1
10
55.348900
20
35.870500
11
55.316400
21
35.919200
0
LINE
8
Layer 1
10
55.316400
20
35.919200
11
55.305000
21
35.976600
0
LINE
8
Layer 1
10
55.305000
20
35.976600
11
55.305000
21
36.276600
0
LINE
8
Layer 1
10
55.305000
20
37.546600
11
55.316400
21
37.604000
0
LINE
8
Layer 1
10
55.316400
20
37.604000
11
55.348900
21
37.652700
0
LINE
8
Layer 1
10
55.348900
20
37.652700
11
55.397600
21
37.685200
0
LINE
8
Layer 1
10
55.397600
20
37.685200
11
55.455000
21
37.696600
0
LINE
8
Layer 1
10
55.455000
20
37.696600
11
57.105000
21
37.696600
0
LINE
8
Layer 1
10
57.105000
20
37.696600
11
57.162400
21
37.685200
0
LINE
8
Layer 1
10
57.162400
20
37.685200
11
57.211100
21
37.652700
0
LINE
8
Layer 1
10
57.211100
20
37.652700
11
57.243600
21
37.604000
0
LINE
8
Layer 1
10
57.243600
20
37.604000
11
57.255000
21
37.546600
0
LINE
8
Layer 1
10
57.255000
20
37.546600
11
57.255000
21
37.246600
0
LINE
8
Layer 1
10
57.255000
20
37.246600
11
57.243600
21
37.189200
0
LINE
8
Layer 1
10
57.243600
20
37.189200
11
57.211100
21
37.140500
0
LINE
8
Layer 1
10
57.211100
20
37.140500
11
57.162400
21
37.108000
0
LINE
8
Layer 1
10
57.162400
20
37.108000
11
57.105000
21
37.096600
0
LINE
8
Layer 1
10
57.105000
20
37.096600
11
55.455000
21
37.096600
0
LINE
8
Layer 1
10
55.455000
20
37.096600
11
55.397600
21
37.108000
0
LINE
8
Layer 1
10
55.397600
20
37.108000
11
55.348900
21
37.140500
0
LINE
8
Layer 1
10
55.348900
20
37.140500
11
55.316400
21
37.189200
0
LINE
8
Layer 1
10
55.316400
20
37.189200
11
55.305000
21
37.246600
0
LINE
8
Layer 1
10
55.305000
20
37.246600
11
55.305000
21
37.546600
0
LINE
8
Layer 1
10
55.305000
20
38.816600
11
55.316400
21
38.874000
0
LINE
8
Layer 1
10
55.316400
20
38.874000
11
55.348900
21
38.922700
0
LINE
8
Layer 1
10
55.348900
20
38.922700
11
55.397600
21
38.955200
0
LINE
8
Layer 1
10
55.397600
20
38.955200
11
55.455000
21
38.966600
0
LINE
8
Layer 1
10
55.455000
20
38.966600
11
57.105000
21
38.966600
0
LINE
8
Layer 1
10
57.105000
20
38.966600
11
57.162400
21
38.955200
0
LINE
8
Layer 1
10
57.162400
20
38.955200
11
57.211100
21
38.922700
0
LINE
8
Layer 1
10
57.211100
20
38.922700
11
57.243600
21
38.874000
0
LINE
8
Layer 1
10
57.243600
20
38.874000
11
57.255000
21
38.816600
0
LINE
8
Layer 1
10
57.255000
20
38.816600
11
57.255000
21
38.516600
0
LINE
8
Layer 1
10
57.255000
20
38.516600
11
57.243600
21
38.459200
0
LINE
8
Layer 1
10
57.243600
20
38.459200
11
57.211100
21
38.410500
0
LINE
8
Layer 1
10
57.211100
20
38.410500
11
57.162400
21
38.378000
0
LINE
8
Layer 1
10
57.162400
20
38.378000
11
57.105000
21
38.366600
0
LINE
8
Layer 1
10
57.105000
20
38.366600
11
55.455000
21
38.366600
0
LINE
8
Layer 1
10
55.455000
20
38.366600
11
55.397600
21
38.378000
0
LINE
8
Layer 1
10
55.397600
20
38.378000
11
55.348900
21
38.410500
0
LINE
8
Layer 1
10
55.348900
20
38.410500
11
55.316400
21
38.459200
0
LINE
8
Layer 1
10
55.316400
20
38.459200
11
55.305000
21
38.516600
0
LINE
8
Layer 1
10
55.305000
20
38.516600
11
55.305000
21
38.816600
0
LINE
8
Layer 1
10
55.305000
20
40.086600
11
55.316400
21
40.144000
0
LINE
8
Layer 1
10
55.316400
20
40.144000
11
55.348900
21
40.192700
0
LINE
8
Layer 1
10
55.348900
20
40.192700
11
55.397600
21
40.225200
0
LINE
8
Layer 1
10
55.397600
20
40.225200
11
55.455000
21
40.236600
0
LINE
8
Layer 1
10
55.455000
20
40.236600
11
57.105000
21
40.236600
0
LINE
8
Layer 1
10
57.105000
20
40.236600
11
57.162400
21
40.225200
0
LINE
8
Layer 1
10
57.162400
20
40.225200
11
57.211100
21
40.192700
0
LINE
8
Layer 1
10
57.211100
20
40.192700
11
57.243600
21
40.144000
0
LINE
8
Layer 1
10
57.243600
20
40.144000
11
57.255000
21
40.086600
0
LINE
8
Layer 1
10
57.255000
20
40.086600
11
57.255000
21
39.786600
0
LINE
8
Layer 1
10
57.255000
20
39.786600
11
57.243600
21
39.729200
0
LINE
8
Layer 1
10
57.243600
20
39.729200
11
57.211100
21
39.680500
0
LINE
8
Layer 1
10
57.211100
20
39.680500
11
57.162400
21
39.648000
0
LINE
8
Layer 1
10
57.162400
20
39.648000
11
57.105000
21
39.636600
0
LINE
8
Layer 1
10
57.105000
20
39.636600
11
55.455000
21
39.636600
0
LINE
8
Layer 1
10
55.455000
20
39.636600
11
55.397600
21
39.648000
0
LINE
8
Layer 1
10
55.397600
20
39.648000
11
55.348900
21
39.680500
0
LINE
8
Layer 1
10
55.348900
20
39.680500
11
55.316400
21
39.729200
0
LINE
8
Layer 1
10
55.316400
20
39.729200
11
55.305000
21
39.786600
0
LINE
8
Layer 1
10
55.305000
20
39.786600
11
55.305000
21
40.086600
0
LINE
8
Layer 1
10
42.625000
20
18.441600
11
42.711100
21
18.424500
0
LINE
8
Layer 1
10
42.711100
20
18.424500
11
42.784100
21
18.375700
0
LINE
8
Layer 1
10
42.784100
20
18.375700
11
42.832900
21
18.302700
0
LINE
8
Layer 1
10
42.832900
20
18.302700
11
42.850000
21
18.216600
0
LINE
8
Layer 1
10
42.850000
20
18.216600
11
42.850000
21
17.766600
0
LINE
8
Layer 1
10
42.850000
20
17.766600
11
42.832900
21
17.680500
0
LINE
8
Layer 1
10
42.832900
20
17.680500
11
42.784100
21
17.607500
0
LINE
8
Layer 1
10
42.784100
20
17.607500
11
42.711100
21
17.558700
0
LINE
8
Layer 1
10
42.711100
20
17.558700
11
42.625000
21
17.541600
0
LINE
8
Layer 1
10
42.625000
20
17.541600
11
42.125000
21
17.541600
0
LINE
8
Layer 1
10
42.125000
20
17.541600
11
42.038900
21
17.558700
0
LINE
8
Layer 1
10
42.038900
20
17.558700
11
41.965900
21
17.607500
0
LINE
8
Layer 1
10
41.965900
20
17.607500
11
41.917100
21
17.680500
0
LINE
8
Layer 1
10
41.917100
20
17.680500
11
41.900000
21
17.766600
0
LINE
8
Layer 1
10
41.900000
20
17.766600
11
41.900000
21
18.216600
0
LINE
8
Layer 1
10
41.900000
20
18.216600
11
41.917100
21
18.302700
0
LINE
8
Layer 1
10
41.917100
20
18.302700
11
41.965900
21
18.375700
0
LINE
8
Layer 1
10
41.965900
20
18.375700
11
42.038900
21
18.424500
0
LINE
8
Layer 1
10
42.038900
20
18.424500
11
42.125000
21
18.441600
0
LINE
8
Layer 1
10
42.125000
20
18.441600
11
42.625000
21
18.441600
0
LINE
8
Layer 1
10
42.625000
20
16.891600
11
42.711100
21
16.874500
0
LINE
8
Layer 1
10
42.711100
20
16.874500
11
42.784100
21
16.825700
0
LINE
8
Layer 1
10
42.784100
20
16.825700
11
42.832900
21
16.752700
0
LINE
8
Layer 1
10
42.832900
20
16.752700
11
42.850000
21
16.666600
0
LINE
8
Layer 1
10
42.850000
20
16.666600
11
42.850000
21
16.216600
0
LINE
8
Layer 1
10
42.850000
20
16.216600
11
42.832900
21
16.130500
0
LINE
8
Layer 1
10
42.832900
20
16.130500
11
42.784100
21
16.057500
0
LINE
8
Layer 1
10
42.784100
20
16.057500
11
42.711100
21
16.008700
0
LINE
8
Layer 1
10
42.711100
20
16.008700
11
42.625000
21
15.991600
0
LINE
8
Layer 1
10
42.625000
20
15.991600
11
42.125000
21
15.991600
0
LINE
8
Layer 1
10
42.125000
20
15.991600
11
42.038900
21
16.008700
0
LINE
8
Layer 1
10
42.038900
20
16.008700
11
41.965900
21
16.057500
0
LINE
8
Layer 1
10
41.965900
20
16.057500
11
41.917100
21
16.130500
0
LINE
8
Layer 1
10
41.917100
20
16.130500
11
41.900000
21
16.216600
0
LINE
8
Layer 1
10
41.900000
20
16.216600
11
41.900000
21
16.666600
0
LINE
8
Layer 1
10
41.900000
20
16.666600
11
41.917100
21
16.752700
0
LINE
8
Layer 1
10
41.917100
20
16.752700
11
41.965900
21
16.825700
0
LINE
8
Layer 1
10
41.965900
20
16.825700
11
42.038900
21
16.874500
0
LINE
8
Layer 1
10
42.038900
20
16.874500
11
42.125000
21
16.891600
0
LINE
8
Layer 1
10
42.125000
20
16.891600
11
42.625000
21
16.891600
0
LINE
8
Layer 1
10
23.050000
20
8.041600
11
22.973500
21
8.056800
0
LINE
8
Layer 1
10
22.973500
20
8.056800
11
22.908600
21
8.100200
0
LINE
8
Layer 1
10
22.908600
20
8.100200
11
22.865200
21
8.165100
0
LINE
8
Layer 1
10
22.865200
20
8.165100
11
22.850000
21
8.241600
0
LINE
8
Layer 1
10
22.850000
20
8.241600
11
22.850000
21
8.641600
0
LINE
8
Layer 1
10
22.850000
20
8.641600
11
22.865200
21
8.718100
0
LINE
8
Layer 1
10
22.865200
20
8.718100
11
22.908600
21
8.783000
0
LINE
8
Layer 1
10
22.908600
20
8.783000
11
22.973500
21
8.826400
0
LINE
8
Layer 1
10
22.973500
20
8.826400
11
23.050000
21
8.841600
0
LINE
8
Layer 1
10
23.050000
20
8.841600
11
23.600000
21
8.841600
0
LINE
8
Layer 1
10
23.600000
20
8.841600
11
23.676500
21
8.826400
0
LINE
8
Layer 1
10
23.676500
20
8.826400
11
23.741400
21
8.783000
0
LINE
8
Layer 1
10
23.741400
20
8.783000
11
23.784800
21
8.718100
0
LINE
8
Layer 1
10
23.784800
20
8.718100
11
23.800000
21
8.641600
0
LINE
8
Layer 1
10
23.800000
20
8.641600
11
23.800000
21
8.241600
0
LINE
8
Layer 1
10
23.800000
20
8.241600
11
23.784800
21
8.165100
0
LINE
8
Layer 1
10
23.784800
20
8.165100
11
23.741400
21
8.100200
0
LINE
8
Layer 1
10
23.741400
20
8.100200
11
23.676500
21
8.056800
0
LINE
8
Layer 1
10
23.676500
20
8.056800
11
23.600000
21
8.041600
0
LINE
8
Layer 1
10
23.600000
20
8.041600
11
23.050000
21
8.041600
0
LINE
8
Layer 1
10
23.050000
20
9.691600
11
22.973500
21
9.706800
0
LINE
8
Layer 1
10
22.973500
20
9.706800
11
22.908600
21
9.750200
0
LINE
8
Layer 1
10
22.908600
20
9.750200
11
22.865200
21
9.815100
0
LINE
8
Layer 1
10
22.865200
20
9.815100
11
22.850000
21
9.891600
0
LINE
8
Layer 1
10
22.850000
20
9.891600
11
22.850000
21
10.291600
0
LINE
8
Layer 1
10
22.850000
20
10.291600
11
22.865200
21
10.368100
0
LINE
8
Layer 1
10
22.865200
20
10.368100
11
22.908600
21
10.433000
0
LINE
8
Layer 1
10
22.908600
20
10.433000
11
22.973500
21
10.476400
0
LINE
8
Layer 1
10
22.973500
20
10.476400
11
23.050000
21
10.491600
0
LINE
8
Layer 1
10
23.050000
20
10.491600
11
23.600000
21
10.491600
0
LINE
8
Layer 1
10
23.600000
20
10.491600
11
23.676500
21
10.476400
0
LINE
8
Layer 1
10
23.676500
20
10.476400
11
23.741400
21
10.433000
0
LINE
8
Layer 1
10
23.741400
20
10.433000
11
23.784800
21
10.368100
0
LINE
8
Layer 1
10
23.784800
20
10.368100
11
23.800000
21
10.291600
0
LINE
8
Layer 1
10
23.800000
20
10.291600
11
23.800000
21
9.891600
0
LINE
8
Layer 1
10
23.800000
20
9.891600
11
23.784800
21
9.815100
0
LINE
8
Layer 1
10
23.784800
20
9.815100
11
23.741400
21
9.750200
0
LINE
8
Layer 1
10
23.741400
20
9.750200
11
23.676500
21
9.706800
0
LINE
8
Layer 1
10
23.676500
20
9.706800
11
23.600000
21
9.691600
0
LINE
8
Layer 1
10
23.600000
20
9.691600
11
23.050000
21
9.691600
0
LINE
8
Layer 1
10
26.860000
20
20.196600
11
26.783500
21
20.211800
0
LINE
8
Layer 1
10
26.783500
20
20.211800
11
26.718600
21
20.255200
0
LINE
8
Layer 1
10
26.718600
20
20.255200
11
26.675200
21
20.320100
0
LINE
8
Layer 1
10
26.675200
20
20.320100
11
26.660000
21
20.396600
0
LINE
8
Layer 1
10
26.660000
20
20.396600
11
26.660000
21
20.796600
0
LINE
8
Layer 1
10
26.660000
20
20.796600
11
26.675200
21
20.873100
0
LINE
8
Layer 1
10
26.675200
20
20.873100
11
26.718600
21
20.938000
0
LINE
8
Layer 1
10
26.718600
20
20.938000
11
26.783500
21
20.981400
0
LINE
8
Layer 1
10
26.783500
20
20.981400
11
26.860000
21
20.996600
0
LINE
8
Layer 1
10
26.860000
20
20.996600
11
27.410000
21
20.996600
0
LINE
8
Layer 1
10
27.410000
20
20.996600
11
27.486500
21
20.981400
0
LINE
8
Layer 1
10
27.486500
20
20.981400
11
27.551400
21
20.938000
0
LINE
8
Layer 1
10
27.551400
20
20.938000
11
27.594800
21
20.873100
0
LINE
8
Layer 1
10
27.594800
20
20.873100
11
27.610000
21
20.796600
0
LINE
8
Layer 1
10
27.610000
20
20.796600
11
27.610000
21
20.396600
0
LINE
8
Layer 1
10
27.610000
20
20.396600
11
27.594800
21
20.320100
0
LINE
8
Layer 1
10
27.594800
20
20.320100
11
27.551400
21
20.255200
0
LINE
8
Layer 1
10
27.551400
20
20.255200
11
27.486500
21
20.211800
0
LINE
8
Layer 1
10
27.486500
20
20.211800
11
27.410000
21
20.196600
0
LINE
8
Layer 1
10
27.410000
20
20.196600
11
26.860000
21
20.196600
0
LINE
8
Layer 1
10
26.860000
20
21.846600
11
26.783500
21
21.861800
0
LINE
8
Layer 1
10
26.783500
20
21.861800
11
26.718600
21
21.905200
0
LINE
8
Layer 1
10
26.718600
20
21.905200
11
26.675200
21
21.970100
0
LINE
8
Layer 1
10
26.675200
20
21.970100
11
26.660000
21
22.046600
0
LINE
8
Layer 1
10
26.660000
20
22.046600
11
26.660000
21
22.446600
0
LINE
8
Layer 1
10
26.660000
20
22.446600
11
26.675200
21
22.523100
0
LINE
8
Layer 1
10
26.675200
20
22.523100
11
26.718600
21
22.588000
0
LINE
8
Layer 1
10
26.718600
20
22.588000
11
26.783500
21
22.631400
0
LINE
8
Layer 1
10
26.783500
20
22.631400
11
26.860000
21
22.646600
0
LINE
8
Layer 1
10
26.860000
20
22.646600
11
27.410000
21
22.646600
0
LINE
8
Layer 1
10
27.410000
20
22.646600
11
27.486500
21
22.631400
0
LINE
8
Layer 1
10
27.486500
20
22.631400
11
27.551400
21
22.588000
0
LINE
8
Layer 1
10
27.551400
20
22.588000
11
27.594800
21
22.523100
0
LINE
8
Layer 1
10
27.594800
20
22.523100
11
27.610000
21
22.446600
0
LINE
8
Layer 1
10
27.610000
20
22.446600
11
27.610000
21
22.046600
0
LINE
8
Layer 1
10
27.610000
20
22.046600
11
27.594800
21
21.970100
0
LINE
8
Layer 1
10
27.594800
20
21.970100
11
27.551400
21
21.905200
0
LINE
8
Layer 1
10
27.551400
20
21.905200
11
27.486500
21
21.861800
0
LINE
8
Layer 1
10
27.486500
20
21.861800
11
27.410000
21
21.846600
0
LINE
8
Layer 1
10
27.410000
20
21.846600
11
26.860000
21
21.846600
0
LINE
8
Layer 1
10
24.320000
20
20.196600
11
24.243500
21
20.211800
0
LINE
8
Layer 1
10
24.243500
20
20.211800
11
24.178600
21
20.255200
0
LINE
8
Layer 1
10
24.178600
20
20.255200
11
24.135200
21
20.320100
0
LINE
8
Layer 1
10
24.135200
20
20.320100
11
24.120000
21
20.396600
0
LINE
8
Layer 1
10
24.120000
20
20.396600
11
24.120000
21
20.796600
0
LINE
8
Layer 1
10
24.120000
20
20.796600
11
24.135200
21
20.873100
0
LINE
8
Layer 1
10
24.135200
20
20.873100
11
24.178600
21
20.938000
0
LINE
8
Layer 1
10
24.178600
20
20.938000
11
24.243500
21
20.981400
0
LINE
8
Layer 1
10
24.243500
20
20.981400
11
24.320000
21
20.996600
0
LINE
8
Layer 1
10
24.320000
20
20.996600
11
24.870000
21
20.996600
0
LINE
8
Layer 1
10
24.870000
20
20.996600
11
24.946500
21
20.981400
0
LINE
8
Layer 1
10
24.946500
20
20.981400
11
25.011400
21
20.938000
0
LINE
8
Layer 1
10
25.011400
20
20.938000
11
25.054800
21
20.873100
0
LINE
8
Layer 1
10
25.054800
20
20.873100
11
25.070000
21
20.796600
0
LINE
8
Layer 1
10
25.070000
20
20.796600
11
25.070000
21
20.396600
0
LINE
8
Layer 1
10
25.070000
20
20.396600
11
25.054800
21
20.320100
0
LINE
8
Layer 1
10
25.054800
20
20.320100
11
25.011400
21
20.255200
0
LINE
8
Layer 1
10
25.011400
20
20.255200
11
24.946500
21
20.211800
0
LINE
8
Layer 1
10
24.946500
20
20.211800
11
24.870000
21
20.196600
0
LINE
8
Layer 1
10
24.870000
20
20.196600
11
24.320000
21
20.196600
0
LINE
8
Layer 1
10
24.320000
20
21.846600
11
24.243500
21
21.861800
0
LINE
8
Layer 1
10
24.243500
20
21.861800
11
24.178600
21
21.905200
0
LINE
8
Layer 1
10
24.178600
20
21.905200
11
24.135200
21
21.970100
0
LINE
8
Layer 1
10
24.135200
20
21.970100
11
24.120000
21
22.046600
0
LINE
8
Layer 1
10
24.120000
20
22.046600
11
24.120000
21
22.446600
0
LINE
8
Layer 1
10
24.120000
20
22.446600
11
24.135200
21
22.523100
0
LINE
8
Layer 1
10
24.135200
20
22.523100
11
24.178600
21
22.588000
0
LINE
8
Layer 1
10
24.178600
20
22.588000
11
24.243500
21
22.631400
0
LINE
8
Layer 1
10
24.243500
20
22.631400
11
24.320000
21
22.646600
0
LINE
8
Layer 1
10
24.320000
20
22.646600
11
24.870000
21
22.646600
0
LINE
8
Layer 1
10
24.870000
20
22.646600
11
24.946500
21
22.631400
0
LINE
8
Layer 1
10
24.946500
20
22.631400
11
25.011400
21
22.588000
0
LINE
8
Layer 1
10
25.011400
20
22.588000
11
25.054800
21
22.523100
0
LINE
8
Layer 1
10
25.054800
20
22.523100
11
25.070000
21
22.446600
0
LINE
8
Layer 1
10
25.070000
20
22.446600
11
25.070000
21
22.046600
0
LINE
8
Layer 1
10
25.070000
20
22.046600
11
25.054800
21
21.970100
0
LINE
8
Layer 1
10
25.054800
20
21.970100
11
25.011400
21
21.905200
0
LINE
8
Layer 1
10
25.011400
20
21.905200
11
24.946500
21
21.861800
0
LINE
8
Layer 1
10
24.946500
20
21.861800
11
24.870000
21
21.846600
0
LINE
8
Layer 1
10
24.870000
20
21.846600
11
24.320000
21
21.846600
0
LINE
8
Layer 1
10
28.155000
20
39.346600
11
28.068900
21
39.363700
0
LINE
8
Layer 1
10
28.068900
20
39.363700
11
27.995900
21
39.412500
0
LINE
8
Layer 1
10
27.995900
20
39.412500
11
27.947100
21
39.485500
0
LINE
8
Layer 1
10
27.947100
20
39.485500
11
27.930000
21
39.571600
0
LINE
8
Layer 1
10
27.930000
20
39.571600
11
27.930000
21
40.021600
0
LINE
8
Layer 1
10
27.930000
20
40.021600
11
27.947100
21
40.107700
0
LINE
8
Layer 1
10
27.947100
20
40.107700
11
27.995900
21
40.180700
0
LINE
8
Layer 1
10
27.995900
20
40.180700
11
28.068900
21
40.229500
0
LINE
8
Layer 1
10
28.068900
20
40.229500
11
28.155000
21
40.246600
0
LINE
8
Layer 1
10
28.155000
20
40.246600
11
28.655000
21
40.246600
0
LINE
8
Layer 1
10
28.655000
20
40.246600
11
28.741100
21
40.229500
0
LINE
8
Layer 1
10
28.741100
20
40.229500
11
28.814100
21
40.180700
0
LINE
8
Layer 1
10
28.814100
20
40.180700
11
28.862900
21
40.107700
0
LINE
8
Layer 1
10
28.862900
20
40.107700
11
28.880000
21
40.021600
0
LINE
8
Layer 1
10
28.880000
20
40.021600
11
28.880000
21
39.571600
0
LINE
8
Layer 1
10
28.880000
20
39.571600
11
28.862900
21
39.485500
0
LINE
8
Layer 1
10
28.862900
20
39.485500
11
28.814100
21
39.412500
0
LINE
8
Layer 1
10
28.814100
20
39.412500
11
28.741100
21
39.363700
0
LINE
8
Layer 1
10
28.741100
20
39.363700
11
28.655000
21
39.346600
0
LINE
8
Layer 1
10
28.655000
20
39.346600
11
28.155000
21
39.346600
0
LINE
8
Layer 1
10
28.155000
20
40.896600
11
28.068900
21
40.913700
0
LINE
8
Layer 1
10
28.068900
20
40.913700
11
27.995900
21
40.962500
0
LINE
8
Layer 1
10
27.995900
20
40.962500
11
27.947100
21
41.035500
0
LINE
8
Layer 1
10
27.947100
20
41.035500
11
27.930000
21
41.121600
0
LINE
8
Layer 1
10
27.930000
20
41.121600
11
27.930000
21
41.571600
0
LINE
8
Layer 1
10
27.930000
20
41.571600
11
27.947100
21
41.657700
0
LINE
8
Layer 1
10
27.947100
20
41.657700
11
27.995900
21
41.730700
0
LINE
8
Layer 1
10
27.995900
20
41.730700
11
28.068900
21
41.779500
0
LINE
8
Layer 1
10
28.068900
20
41.779500
11
28.155000
21
41.796600
0
LINE
8
Layer 1
10
28.155000
20
41.796600
11
28.655000
21
41.796600
0
LINE
8
Layer 1
10
28.655000
20
41.796600
11
28.741100
21
41.779500
0
LINE
8
Layer 1
10
28.741100
20
41.779500
11
28.814100
21
41.730700
0
LINE
8
Layer 1
10
28.814100
20
41.730700
11
28.862900
21
41.657700
0
LINE
8
Layer 1
10
28.862900
20
41.657700
11
28.880000
21
41.571600
0
LINE
8
Layer 1
10
28.880000
20
41.571600
11
28.880000
21
41.121600
0
LINE
8
Layer 1
10
28.880000
20
41.121600
11
28.862900
21
41.035500
0
LINE
8
Layer 1
10
28.862900
20
41.035500
11
28.814100
21
40.962500
0
LINE
8
Layer 1
10
28.814100
20
40.962500
11
28.741100
21
40.913700
0
LINE
8
Layer 1
10
28.741100
20
40.913700
11
28.655000
21
40.896600
0
LINE
8
Layer 1
10
28.655000
20
40.896600
11
28.155000
21
40.896600
0
LINE
8
Layer 1
10
52.285000
20
25.376600
11
52.198900
21
25.393700
0
LINE
8
Layer 1
10
52.198900
20
25.393700
11
52.125900
21
25.442500
0
LINE
8
Layer 1
10
52.125900
20
25.442500
11
52.077100
21
25.515500
0
LINE
8
Layer 1
10
52.077100
20
25.515500
11
52.060000
21
25.601600
0
LINE
8
Layer 1
10
52.060000
20
25.601600
11
52.060000
21
26.051600
0
LINE
8
Layer 1
10
52.060000
20
26.051600
11
52.077100
21
26.137700
0
LINE
8
Layer 1
10
52.077100
20
26.137700
11
52.125900
21
26.210700
0
LINE
8
Layer 1
10
52.125900
20
26.210700
11
52.198900
21
26.259500
0
LINE
8
Layer 1
10
52.198900
20
26.259500
11
52.285000
21
26.276600
0
LINE
8
Layer 1
10
52.285000
20
26.276600
11
52.785000
21
26.276600
0
LINE
8
Layer 1
10
52.785000
20
26.276600
11
52.871100
21
26.259500
0
LINE
8
Layer 1
10
52.871100
20
26.259500
11
52.944100
21
26.210700
0
LINE
8
Layer 1
10
52.944100
20
26.210700
11
52.992900
21
26.137700
0
LINE
8
Layer 1
10
52.992900
20
26.137700
11
53.010000
21
26.051600
0
LINE
8
Layer 1
10
53.010000
20
26.051600
11
53.010000
21
25.601600
0
LINE
8
Layer 1
10
53.010000
20
25.601600
11
52.992900
21
25.515500
0
LINE
8
Layer 1
10
52.992900
20
25.515500
11
52.944100
21
25.442500
0
LINE
8
Layer 1
10
52.944100
20
25.442500
11
52.871100
21
25.393700
0
LINE
8
Layer 1
10
52.871100
20
25.393700
11
52.785000
21
25.376600
0
LINE
8
Layer 1
10
52.785000
20
25.376600
11
52.285000
21
25.376600
0
LINE
8
Layer 1
10
52.285000
20
26.926600
11
52.198900
21
26.943700
0
LINE
8
Layer 1
10
52.198900
20
26.943700
11
52.125900
21
26.992500
0
LINE
8
Layer 1
10
52.125900
20
26.992500
11
52.077100
21
27.065500
0
LINE
8
Layer 1
10
52.077100
20
27.065500
11
52.060000
21
27.151600
0
LINE
8
Layer 1
10
52.060000
20
27.151600
11
52.060000
21
27.601600
0
LINE
8
Layer 1
10
52.060000
20
27.601600
11
52.077100
21
27.687700
0
LINE
8
Layer 1
10
52.077100
20
27.687700
11
52.125900
21
27.760700
0
LINE
8
Layer 1
10
52.125900
20
27.760700
11
52.198900
21
27.809500
0
LINE
8
Layer 1
10
52.198900
20
27.809500
11
52.285000
21
27.826600
0
LINE
8
Layer 1
10
52.285000
20
27.826600
11
52.785000
21
27.826600
0
LINE
8
Layer 1
10
52.785000
20
27.826600
11
52.871100
21
27.809500
0
LINE
8
Layer 1
10
52.871100
20
27.809500
11
52.944100
21
27.760700
0
LINE
8
Layer 1
10
52.944100
20
27.760700
11
52.992900
21
27.687700
0
LINE
8
Layer 1
10
52.992900
20
27.687700
11
53.010000
21
27.601600
0
LINE
8
Layer 1
10
53.010000
20
27.601600
11
53.010000
21
27.151600
0
LINE
8
Layer 1
10
53.010000
20
27.151600
11
52.992900
21
27.065500
0
LINE
8
Layer 1
10
52.992900
20
27.065500
11
52.944100
21
26.992500
0
LINE
8
Layer 1
10
52.944100
20
26.992500
11
52.871100
21
26.943700
0
LINE
8
Layer 1
10
52.871100
20
26.943700
11
52.785000
21
26.926600
0
LINE
8
Layer 1
10
52.785000
20
26.926600
11
52.285000
21
26.926600
0
LINE
8
Layer 1
10
21.275000
20
40.846600
11
21.290200
21
40.923100
0
LINE
8
Layer 1
10
21.290200
20
40.923100
11
21.333600
21
40.988000
0
LINE
8
Layer 1
10
21.333600
20
40.988000
11
21.398500
21
41.031400
0
LINE
8
Layer 1
10
21.398500
20
41.031400
11
21.475000
21
41.046600
0
LINE
8
Layer 1
10
21.475000
20
41.046600
11
21.875000
21
41.046600
0
LINE
8
Layer 1
10
21.875000
20
41.046600
11
21.951500
21
41.031400
0
LINE
8
Layer 1
10
21.951500
20
41.031400
11
22.016400
21
40.988000
0
LINE
8
Layer 1
10
22.016400
20
40.988000
11
22.059800
21
40.923100
0
LINE
8
Layer 1
10
22.059800
20
40.923100
11
22.075000
21
40.846600
0
LINE
8
Layer 1
10
22.075000
20
40.846600
11
22.075000
21
40.296600
0
LINE
8
Layer 1
10
22.075000
20
40.296600
11
22.059800
21
40.220100
0
LINE
8
Layer 1
10
22.059800
20
40.220100
11
22.016400
21
40.155200
0
LINE
8
Layer 1
10
22.016400
20
40.155200
11
21.951500
21
40.111800
0
LINE
8
Layer 1
10
21.951500
20
40.111800
11
21.875000
21
40.096600
0
LINE
8
Layer 1
10
21.875000
20
40.096600
11
21.475000
21
40.096600
0
LINE
8
Layer 1
10
21.475000
20
40.096600
11
21.398500
21
40.111800
0
LINE
8
Layer 1
10
21.398500
20
40.111800
11
21.333600
21
40.155200
0
LINE
8
Layer 1
10
21.333600
20
40.155200
11
21.290200
21
40.220100
0
LINE
8
Layer 1
10
21.290200
20
40.220100
11
21.275000
21
40.296600
0
LINE
8
Layer 1
10
21.275000
20
40.296600
11
21.275000
21
40.846600
0
LINE
8
Layer 1
10
22.925000
20
40.846600
11
22.940200
21
40.923100
0
LINE
8
Layer 1
10
22.940200
20
40.923100
11
22.983600
21
40.988000
0
LINE
8
Layer 1
10
22.983600
20
40.988000
11
23.048500
21
41.031400
0
LINE
8
Layer 1
10
23.048500
20
41.031400
11
23.125000
21
41.046600
0
LINE
8
Layer 1
10
23.125000
20
41.046600
11
23.525000
21
41.046600
0
LINE
8
Layer 1
10
23.525000
20
41.046600
11
23.601500
21
41.031400
0
LINE
8
Layer 1
10
23.601500
20
41.031400
11
23.666400
21
40.988000
0
LINE
8
Layer 1
10
23.666400
20
40.988000
11
23.709800
21
40.923100
0
LINE
8
Layer 1
10
23.709800
20
40.923100
11
23.725000
21
40.846600
0
LINE
8
Layer 1
10
23.725000
20
40.846600
11
23.725000
21
40.296600
0
LINE
8
Layer 1
10
23.725000
20
40.296600
11
23.709800
21
40.220100
0
LINE
8
Layer 1
10
23.709800
20
40.220100
11
23.666400
21
40.155200
0
LINE
8
Layer 1
10
23.666400
20
40.155200
11
23.601500
21
40.111800
0
LINE
8
Layer 1
10
23.601500
20
40.111800
11
23.525000
21
40.096600
0
LINE
8
Layer 1
10
23.525000
20
40.096600
11
23.125000
21
40.096600
0
LINE
8
Layer 1
10
23.125000
20
40.096600
11
23.048500
21
40.111800
0
LINE
8
Layer 1
10
23.048500
20
40.111800
11
22.983600
21
40.155200
0
LINE
8
Layer 1
10
22.983600
20
40.155200
11
22.940200
21
40.220100
0
LINE
8
Layer 1
10
22.940200
20
40.220100
11
22.925000
21
40.296600
0
LINE
8
Layer 1
10
22.925000
20
40.296600
11
22.925000
21
40.846600
0
LINE
8
Layer 1
10
80.475000
20
49.461600
11
80.475000
21
3.741600
0
LINE
8
Layer 1
10
77.935000
20
1.201600
11
78.907016
21
1.394946
0
LINE
8
Layer 1
10
78.907016
20
1.394946
11
79.731051
21
1.945549
0
LINE
8
Layer 1
10
79.731051
20
1.945549
11
80.281654
21
2.769584
0
LINE
8
Layer 1
10
80.281654
20
2.769584
11
80.475000
21
3.741600
0
LINE
8
Layer 1
10
9.355000
20
52.001600
11
8.366317
21
51.801994
0
LINE
8
Layer 1
10
8.366317
20
51.801994
11
7.558949
21
51.257651
0
LINE
8
Layer 1
10
7.558949
20
51.257651
11
7.014606
21
50.450283
0
LINE
8
Layer 1
10
7.014606
20
50.450283
11
6.815000
21
49.461600
0
LINE
8
Layer 1
10
9.355000
20
1.201600
11
77.935000
21
1.201600
0
LINE
8
Layer 1
10
80.475000
20
49.461600
11
80.281654
21
50.433616
0
LINE
8
Layer 1
10
80.281654
20
50.433616
11
79.731051
21
51.257651
0
LINE
8
Layer 1
10
79.731051
20
51.257651
11
78.907016
21
51.808254
0
LINE
8
Layer 1
10
78.907016
20
51.808254
11
77.935000
21
52.001600
0
LINE
8
Layer 1
10
6.815000
20
3.741600
11
7.014606
21
2.752917
0
LINE
8
Layer 1
10
7.014606
20
2.752917
11
7.558949
21
1.945549
0
LINE
8
Layer 1
10
7.558949
20
1.945549
11
8.366317
21
1.401206
0
LINE
8
Layer 1
10
8.366317
20
1.401206
11
9.355000
21
1.201600
0
LINE
8
Layer 1
10
9.355000
20
52.001600
11
77.935000
21
52.001600
0
LINE
8
Layer 1
10
6.815000
20
49.461600
11
6.815000
21
3.741600
 0 
ENDSEC
 0 
EOF