<?xml version="1.0" encoding="UTF-8" standalone="no"?>
<svg
   version="1.1"
   width="8.0543404cm"
   height="5.3822603cm"
   viewBox="0 0 80.5434 53.822602"
   id="svg190"
   sodipodi:docname="foc_pcb-F_Paste.svg"
   inkscape:version="1.3 (0e150ed6c4, 2023-07-21)"
   xmlns:inkscape="http://www.inkscape.org/namespaces/inkscape"
   xmlns:sodipodi="http://sodipodi.sourceforge.net/DTD/sodipodi-0.dtd"
   xmlns="http://www.w3.org/2000/svg"
   xmlns:svg="http://www.w3.org/2000/svg"
   xmlns:rdf="http://www.w3.org/1999/02/22-rdf-syntax-ns#"
   xmlns:cc="http://creativecommons.org/ns#"
   xmlns:dc="http://purl.org/dc/elements/1.1/">
  <defs
     id="defs190" />
  <sodipodi:namedview
     id="namedview190"
     pagecolor="#ffffff"
     bordercolor="#000000"
     borderopacity="0.25"
     inkscape:showpageshadow="2"
     inkscape:pageopacity="0.0"
     inkscape:pagecheckerboard="0"
     inkscape:deskcolor="#d1d1d1"
     inkscape:document-units="cm"
     inkscape:zoom="8.9419142"
     inkscape:cx="152.26046"
     inkscape:cy="101.712"
     inkscape:window-width="3840"
     inkscape:window-height="2054"
     inkscape:window-x="3829"
     inkscape:window-y="-11"
     inkscape:window-maximized="1"
     inkscape:current-layer="svg190" />
  <title
     id="title1">SVG Image created as foc_pcb-F_Paste.svg date 2024/12/21 13:55:47 </title>
  <desc
     id="desc1">Image generated by PCBNEW </desc>
  <g
     style="fill:#000000;fill-opacity:1;stroke:#000000;stroke-linecap:round;stroke-linejoin:round;stroke-opacity:1"
     id="g38">
    <path
       style="fill:#000000;fill-opacity:1;fill-rule:evenodd;stroke:#000000;stroke-width:0.01;stroke-linecap:round;stroke-linejoin:round;stroke-opacity:1"
       d="m 28.615,18.131 v 0.4 l -0.9,0.9 h -2.2 l -0.6,-0.6 h -1.8 v -1 h 1.8 l 0.6,-0.6 h 2.2 z"
       id="path1" />
    <path
       style="fill:#000000;fill-opacity:1;fill-rule:evenodd;stroke:none"
       d="M 20.54,45.781 20.4635,45.7658 20.3986,45.7224 20.3552,45.6575 20.34,45.581 v -0.4 l 0.0152,-0.0765 0.0434,-0.0649 0.0649,-0.0434 0.0765,-0.0152 h 0.55 l 0.0765,0.0152 0.0649,0.0434 0.0434,0.0649 0.0152,0.0765 v 0.4 l -0.0152,0.0765 -0.0434,0.0649 -0.0649,0.0434 -0.0765,0.0152 z"
       id="path2" />
    <path
       style="fill:#000000;fill-opacity:1;fill-rule:evenodd;stroke:none"
       d="M 20.54,44.131 20.4635,44.1158 20.3986,44.0724 20.3552,44.0075 20.34,43.931 v -0.4 l 0.0152,-0.0765 0.0434,-0.0649 0.0649,-0.0434 0.0765,-0.0152 h 0.55 l 0.0765,0.0152 0.0649,0.0434 0.0434,0.0649 0.0152,0.0765 v 0.4 l -0.0152,0.0765 -0.0434,0.0649 -0.0649,0.0434 -0.0765,0.0152 z"
       id="path3" />
    <path
       style="fill:#000000;fill-opacity:1;fill-rule:evenodd;stroke:none"
       d="m 22.305,20.916 0.0861,0.0171 0.073,0.0488 0.0488,0.073 0.0171,0.0861 v 0.45 l -0.0171,0.0861 -0.0488,0.073 -0.073,0.0488 -0.0861,0.0171 h -0.5 L 21.7189,21.7989 21.6459,21.7501 21.5971,21.6771 21.58,21.591 v -0.45 l 0.0171,-0.0861 0.0488,-0.073 0.073,-0.0488 0.0861,-0.0171 z"
       id="path4" />
    <path
       style="fill:#000000;fill-opacity:1;fill-rule:evenodd;stroke:none"
       d="m 22.305,22.466 0.0861,0.0171 0.073,0.0488 0.0488,0.073 0.0171,0.0861 v 0.45 l -0.0171,0.0861 -0.0488,0.073 -0.073,0.0488 -0.0861,0.0171 h -0.5 L 21.7189,23.3489 21.6459,23.3001 21.5971,23.2271 21.58,23.141 v -0.45 l 0.0171,-0.0861 0.0488,-0.073 0.073,-0.0488 0.0861,-0.0171 z"
       id="path5" />
    <path
       style="fill:#000000;fill-opacity:1;fill-rule:evenodd;stroke:none"
       d="m 49.6902,37.9271 v -1.0922 h 2.6924 v 1.0922 z"
       id="path6" />
    <path
       style="fill:#000000;fill-opacity:1;fill-rule:evenodd;stroke:none"
       d="m 54.9988,37.9271 v -1.0922 h 2.6924 v 1.0922 z"
       id="path7" />
    <path
       style="fill:#000000;fill-opacity:1;fill-rule:evenodd;stroke:none"
       d="m 45.19,20.916 0.0765,0.0152 0.0649,0.0434 0.0434,0.0649 0.0152,0.0765 v 0.4 l -0.0152,0.0765 -0.0434,0.0649 -0.0649,0.0434 L 45.19,21.716 H 44.64 L 44.5635,21.7008 44.4986,21.6574 44.4552,21.5925 44.44,21.516 v -0.4 l 0.0152,-0.0765 0.0434,-0.0649 0.0649,-0.0434 0.0765,-0.0152 z"
       id="path8" />
    <path
       style="fill:#000000;fill-opacity:1;fill-rule:evenodd;stroke:none"
       d="m 45.19,22.566 0.0765,0.0152 0.0649,0.0434 0.0434,0.0649 0.0152,0.0765 v 0.4 l -0.0152,0.0765 -0.0434,0.0649 -0.0649,0.0434 L 45.19,23.366 H 44.64 L 44.5635,23.3508 44.4986,23.3074 44.4552,23.2425 44.44,23.166 v -0.4 l 0.0152,-0.0765 0.0434,-0.0649 0.0649,-0.0434 0.0765,-0.0152 z"
       id="path9" />
    <path
       style="fill:#000000;fill-opacity:1;fill-rule:evenodd;stroke:none"
       d="m 29.2686,38.5356 v -0.5588 h 1.3208 v 0.5588 z"
       id="path10" />
    <path
       style="fill:#000000;fill-opacity:1;fill-rule:evenodd;stroke:none"
       d="m 29.2686,40.4152 v -0.5588 h 1.3208 v 0.5588 z"
       id="path11" />
    <path
       style="fill:#000000;fill-opacity:1;fill-rule:evenodd;stroke:none"
       d="m 31.3006,39.4754 v -0.5588 h 1.3208 v 0.5588 z"
       id="path12" />
    <path
       style="fill:#000000;fill-opacity:1;fill-rule:evenodd;stroke:none"
       d="M 24.32,37.436 24.2435,37.4208 24.1786,37.3774 24.1352,37.3125 24.12,37.236 v -0.4 l 0.0152,-0.0765 0.0434,-0.0649 0.0649,-0.0434 0.0765,-0.0152 h 0.55 l 0.0765,0.0152 0.0649,0.0434 0.0434,0.0649 0.0152,0.0765 v 0.4 l -0.0152,0.0765 -0.0434,0.0649 -0.0649,0.0434 -0.0765,0.0152 z"
       id="path13" />
    <path
       style="fill:#000000;fill-opacity:1;fill-rule:evenodd;stroke:none"
       d="M 24.32,35.786 24.2435,35.7708 24.1786,35.7274 24.1352,35.6625 24.12,35.586 v -0.4 l 0.0152,-0.0765 0.0434,-0.0649 0.0649,-0.0434 0.0765,-0.0152 h 0.55 l 0.0765,0.0152 0.0649,0.0434 0.0434,0.0649 0.0152,0.0765 v 0.4 l -0.0152,0.0765 -0.0434,0.0649 -0.0649,0.0434 -0.0765,0.0152 z"
       id="path14" />
    <path
       style="fill:#000000;fill-opacity:1;fill-rule:evenodd;stroke:none"
       d="M 42.545,23.366 42.4685,23.3508 42.4036,23.3074 42.3602,23.2425 42.345,23.166 v -0.4 l 0.0152,-0.0765 0.0434,-0.0649 0.0649,-0.0434 0.0765,-0.0152 h 0.55 l 0.0765,0.0152 0.0649,0.0434 0.0434,0.0649 0.0152,0.0765 v 0.4 l -0.0152,0.0765 -0.0434,0.0649 -0.0649,0.0434 -0.0765,0.0152 z"
       id="path15" />
    <path
       style="fill:#000000;fill-opacity:1;fill-rule:evenodd;stroke:none"
       d="M 42.545,21.716 42.4685,21.7008 42.4036,21.6574 42.3602,21.5925 42.345,21.516 v -0.4 l 0.0152,-0.0765 0.0434,-0.0649 0.0649,-0.0434 0.0765,-0.0152 h 0.55 l 0.0765,0.0152 0.0649,0.0434 0.0434,0.0649 0.0152,0.0765 v 0.4 l -0.0152,0.0765 -0.0434,0.0649 -0.0649,0.0434 -0.0765,0.0152 z"
       id="path16" />
    <path
       style="fill:#000000;fill-opacity:1;fill-rule:evenodd;stroke:none"
       d="m 26.2,25.581 h -1.35 v -1.8 h 1.35 z"
       id="path17" />
    <path
       style="fill:#000000;fill-opacity:1;fill-rule:evenodd;stroke:none"
       d="M 30.35,25.581 H 29 v -1.8 h 1.35 z"
       id="path18" />
    <path
       style="fill:#000000;fill-opacity:1;fill-rule:evenodd;stroke:none"
       d="M 21.275,9.166 21.2902,9.0895 21.3336,9.0246 21.3985,8.9812 21.475,8.966 h 0.4 l 0.0765,0.0152 0.0649,0.0434 0.0434,0.0649 0.0152,0.0765 v 0.55 L 22.0598,9.7925 22.0164,9.8574 21.9515,9.9008 21.875,9.916 h -0.4 L 21.3985,9.9008 21.3336,9.8574 21.2902,9.7925 21.275,9.716 Z"
       id="path19" />
    <path
       style="fill:#000000;fill-opacity:1;fill-rule:evenodd;stroke:none"
       d="M 22.925,9.166 22.9402,9.0895 22.9836,9.0246 23.0485,8.9812 23.125,8.966 h 0.4 l 0.0765,0.0152 0.0649,0.0434 0.0434,0.0649 0.0152,0.0765 v 0.55 L 23.7098,9.7925 23.6664,9.8574 23.6015,9.9008 23.525,9.916 h -0.4 L 23.0485,9.9008 22.9836,9.8574 22.9402,9.7925 22.925,9.716 Z"
       id="path20" />
    <path
       style="fill:#000000;fill-opacity:1;fill-rule:evenodd;stroke:none"
       d="m 54.295,28.216 0.0152,-0.0765 0.0434,-0.0649 0.0649,-0.0434 0.0765,-0.0152 h 0.4 l 0.0765,0.0152 0.0649,0.0434 0.0434,0.0649 0.0152,0.0765 v 0.55 l -0.0152,0.0765 -0.0434,0.0649 -0.0649,0.0434 -0.0765,0.0152 h -0.4 L 54.4185,28.9508 54.3536,28.9074 54.3102,28.8425 54.295,28.766 Z"
       id="path21" />
    <path
       style="fill:#000000;fill-opacity:1;fill-rule:evenodd;stroke:none"
       d="m 55.945,28.216 0.0152,-0.0765 0.0434,-0.0649 0.0649,-0.0434 0.0765,-0.0152 h 0.4 l 0.0765,0.0152 0.0649,0.0434 0.0434,0.0649 0.0152,0.0765 v 0.55 l -0.0152,0.0765 -0.0434,0.0649 -0.0649,0.0434 -0.0765,0.0152 h -0.4 L 56.0685,28.9508 56.0036,28.9074 55.9602,28.8425 55.945,28.766 Z"
       id="path22" />
    <path
       style="fill:#000000;fill-opacity:1;fill-rule:evenodd;stroke:none"
       d="m 29.2686,34.7256 v -0.5588 h 1.3208 v 0.5588 z"
       id="path23" />
    <path
       style="fill:#000000;fill-opacity:1;fill-rule:evenodd;stroke:none"
       d="m 29.2686,36.6052 v -0.5588 h 1.3208 v 0.5588 z"
       id="path24" />
    <path
       style="fill:#000000;fill-opacity:1;fill-rule:evenodd;stroke:none"
       d="m 31.3006,35.6654 v -0.5588 h 1.3208 v 0.5588 z"
       id="path25" />
    <path
       style="fill:#000000;fill-opacity:1;fill-rule:evenodd;stroke:none"
       d="m 61.38,18.581 -0.0171,0.0861 -0.0488,0.073 -0.073,0.0488 -0.0861,0.0171 h -0.45 L 60.6189,18.7889 60.5459,18.7401 60.4971,18.6671 60.48,18.581 v -0.5 l 0.0171,-0.0861 0.0488,-0.073 0.073,-0.0488 0.0861,-0.0171 h 0.45 l 0.0861,0.0171 0.073,0.0488 0.0488,0.073 0.0171,0.0861 z"
       id="path26" />
    <path
       style="fill:#000000;fill-opacity:1;fill-rule:evenodd;stroke:none"
       d="m 59.83,18.581 -0.0171,0.0861 -0.0488,0.073 -0.073,0.0488 -0.0861,0.0171 h -0.45 L 59.0689,18.7889 58.9959,18.7401 58.9471,18.6671 58.93,18.581 v -0.5 l 0.0171,-0.0861 0.0488,-0.073 0.073,-0.0488 0.0861,-0.0171 h 0.45 l 0.0861,0.0171 0.073,0.0488 0.0488,0.073 0.0171,0.0861 z"
       id="path27" />
    <path
       style="fill:#000000;fill-opacity:1;fill-rule:evenodd;stroke:none"
       d="m 38.285,5.091 v 1.35 h -0.4 v -1.35 z"
       id="path28" />
    <path
       style="fill:#000000;fill-opacity:1;fill-rule:evenodd;stroke:none"
       d="m 37.635,5.091 v 1.35 h -0.4 v -1.35 z"
       id="path29" />
    <path
       style="fill:#000000;fill-opacity:1;fill-rule:evenodd;stroke:none"
       d="m 36.985,5.091 v 1.35 h -0.4 v -1.35 z"
       id="path30" />
    <path
       style="fill:#000000;fill-opacity:1;fill-rule:evenodd;stroke:none"
       d="m 36.335,5.091 v 1.35 h -0.4 v -1.35 z"
       id="path31" />
    <path
       style="fill:#000000;fill-opacity:1;fill-rule:evenodd;stroke:none"
       d="m 35.685,5.091 v 1.35 h -0.4 v -1.35 z"
       id="path32" />
    <path
       style="fill:#000000;fill-opacity:1;fill-rule:evenodd;stroke:none"
       d="m 40.785,4.841 v 1.4 h -1.6 v -1.4 z"
       id="path33" />
    <path
       style="fill:#000000;fill-opacity:1;fill-rule:evenodd;stroke:none"
       d="m 34.385,4.841 v 1.4 h -1.6 v -1.4 z"
       id="path34" />
    <path
       style="fill:#000000;fill-opacity:1;fill-rule:evenodd;stroke:none"
       d="m 36.535,2.141 v 1.9 h -1.9 v -1.9 z"
       id="path35" />
    <path
       style="fill:#000000;fill-opacity:1;fill-rule:evenodd;stroke:none"
       d="m 38.935,2.141 v 1.9 h -1.9 v -1.9 z"
       id="path36" />
    <path
       style="fill:#000000;fill-opacity:1;fill-rule:evenodd;stroke:none"
       d="m 39.31,32.346 0.0861,0.0171 0.073,0.0488 0.0488,0.073 0.0171,0.0861 v 0.45 l -0.0171,0.0861 -0.0488,0.073 -0.073,0.0488 -0.0861,0.0171 h -0.5 l -0.0861,-0.0171 -0.073,-0.0488 -0.0488,-0.073 -0.0171,-0.0861 v -0.45 l 0.0171,-0.0861 0.0488,-0.073 0.073,-0.0488 0.0861,-0.0171 z"
       id="path37" />
    <path
       style="fill:#000000;fill-opacity:1;fill-rule:evenodd;stroke:none"
       d="m 39.31,33.896 0.0861,0.0171 0.073,0.0488 0.0488,0.073 0.0171,0.0861 v 0.45 l -0.0171,0.0861 -0.0488,0.073 -0.073,0.0488 -0.0861,0.0171 h -0.5 l -0.0861,-0.0171 -0.073,-0.0488 -0.0488,-0.073 -0.0171,-0.0861 v -0.45 l 0.0171,-0.0861 0.0488,-0.073 0.073,-0.0488 0.0861,-0.0171 z"
       id="path38" />
  </g>
  <g
     style="fill:none;stroke:#000000;stroke-width:0.343;stroke-linecap:round;stroke-linejoin:round;stroke-opacity:1"
     id="g182">
    <path
       d="m 41.725,31.6067 v 1.3885"
       id="path39" />
    <path
       d="m 42.375,31.6067 v 1.3885"
       id="path40" />
    <path
       d="m 43.025,31.6067 v 1.3885"
       id="path41" />
    <path
       d="m 43.675,31.6067 v 1.3885"
       id="path42" />
    <path
       d="m 44.325,31.6067 v 1.3885"
       id="path43" />
    <path
       d="m 44.975,31.6067 v 1.3885"
       id="path44" />
    <path
       d="m 45.625,31.6067 v 1.3885"
       id="path45" />
    <path
       d="m 46.275,31.6067 v 1.3885"
       id="path46" />
    <path
       d="m 46.925,31.6067 v 1.3885"
       id="path47" />
    <path
       d="m 47.575,31.6067 v 1.3885"
       id="path48" />
    <path
       d="m 48.225,31.6067 v 1.3885"
       id="path49" />
    <path
       d="m 48.875,31.6067 v 1.3885"
       id="path50" />
    <path
       d="m 49.525,31.6067 v 1.3885"
       id="path51" />
    <path
       d="m 50.175,31.6067 v 1.3885"
       id="path52" />
    <path
       d="m 50.175,25.8747 v 1.3885"
       id="path53" />
    <path
       d="m 49.525,25.8747 v 1.3885"
       id="path54" />
    <path
       d="m 48.875,25.8747 v 1.3885"
       id="path55" />
    <path
       d="m 48.225,25.8747 v 1.3885"
       id="path56" />
    <path
       d="m 47.575,25.8747 v 1.3885"
       id="path57" />
    <path
       d="m 46.925,25.8747 v 1.3885"
       id="path58" />
    <path
       d="m 46.275,25.8747 v 1.3885"
       id="path59" />
    <path
       d="m 45.625,25.8747 v 1.3885"
       id="path60" />
    <path
       d="m 44.975,25.8747 v 1.3885"
       id="path61" />
    <path
       d="m 44.325,25.8747 v 1.3885"
       id="path62" />
    <path
       d="m 43.675,25.8747 v 1.3885"
       id="path63" />
    <path
       d="m 43.025,25.8747 v 1.3885"
       id="path64" />
    <path
       d="m 42.375,25.8747 v 1.3885"
       id="path65" />
    <path
       d="m 41.725,25.8747 v 1.3885"
       id="path66" />
    <path
       style="fill:#000000;fill-opacity:1;fill-rule:evenodd;stroke:none"
       d="m 42.85,30.81 v -2.75 h 6.2 v 2.75 z"
       id="path67" />
    <path
       style="fill:#000000;fill-opacity:1;fill-rule:evenodd;stroke:none"
       d="M 24.32,40.866 24.2435,40.8508 24.1786,40.8074 24.1352,40.7425 24.12,40.666 v -0.4 l 0.0152,-0.0765 0.0434,-0.0649 0.0649,-0.0434 0.0765,-0.0152 h 0.55 l 0.0765,0.0152 0.0649,0.0434 0.0434,0.0649 0.0152,0.0765 v 0.4 l -0.0152,0.0765 -0.0434,0.0649 -0.0649,0.0434 -0.0765,0.0152 z"
       id="path68" />
    <path
       style="fill:#000000;fill-opacity:1;fill-rule:evenodd;stroke:none"
       d="M 24.32,39.216 24.2435,39.2008 24.1786,39.1574 24.1352,39.0925 24.12,39.016 v -0.4 l 0.0152,-0.0765 0.0434,-0.0649 0.0649,-0.0434 0.0765,-0.0152 h 0.55 l 0.0765,0.0152 0.0649,0.0434 0.0434,0.0649 0.0152,0.0765 v 0.4 l -0.0152,0.0765 -0.0434,0.0649 -0.0649,0.0434 -0.0765,0.0152 z"
       id="path69" />
    <path
       style="fill:#000000;fill-opacity:1;fill-rule:evenodd;stroke:none"
       d="m 58.155,15.541 0.0171,-0.0861 0.0488,-0.073 0.073,-0.0488 0.0861,-0.0171 h 0.45 l 0.0861,0.0171 0.073,0.0488 0.0488,0.073 0.0171,0.0861 v 0.5 l -0.0171,0.0861 -0.0488,0.073 -0.073,0.0488 -0.0861,0.0171 h -0.45 l -0.0861,-0.0171 -0.073,-0.0488 -0.0488,-0.073 -0.0171,-0.0861 z"
       id="path70" />
    <path
       style="fill:#000000;fill-opacity:1;fill-rule:evenodd;stroke:none"
       d="m 59.705,15.541 0.0171,-0.0861 0.0488,-0.073 0.073,-0.0488 0.0861,-0.0171 h 0.45 l 0.0861,0.0171 0.073,0.0488 0.0488,0.073 0.0171,0.0861 v 0.5 l -0.0171,0.0861 -0.0488,0.073 -0.073,0.0488 -0.0861,0.0171 h -0.45 l -0.0861,-0.0171 -0.073,-0.0488 -0.0488,-0.073 -0.0171,-0.0861 z"
       id="path71" />
    <path
       style="fill:#000000;fill-opacity:1;fill-rule:evenodd;stroke:none"
       d="m 47.73,22.186 0.0765,0.0152 0.0649,0.0434 0.0434,0.0649 0.0152,0.0765 v 0.4 l -0.0152,0.0765 -0.0434,0.0649 -0.0649,0.0434 L 47.73,22.986 H 47.18 L 47.1035,22.9708 47.0386,22.9274 46.9952,22.8625 46.98,22.786 v -0.4 l 0.0152,-0.0765 0.0434,-0.0649 0.0649,-0.0434 0.0765,-0.0152 z"
       id="path72" />
    <path
       style="fill:#000000;fill-opacity:1;fill-rule:evenodd;stroke:none"
       d="m 47.73,23.836 0.0765,0.0152 0.0649,0.0434 0.0434,0.0649 0.0152,0.0765 v 0.4 l -0.0152,0.0765 -0.0434,0.0649 -0.0649,0.0434 L 47.73,24.636 H 47.18 L 47.1035,24.6208 47.0386,24.5774 46.9952,24.5125 46.98,24.436 v -0.4 l 0.0152,-0.0765 0.0434,-0.0649 0.0649,-0.0434 0.0765,-0.0152 z"
       id="path73" />
    <path
       style="fill:#000000;fill-opacity:1;fill-rule:evenodd;stroke:none"
       d="m 37.785,21.866 0.0152,-0.0765 0.0434,-0.0649 0.0649,-0.0434 0.0765,-0.0152 h 0.4 l 0.0765,0.0152 0.0649,0.0434 0.0434,0.0649 0.0152,0.0765 v 0.55 l -0.0152,0.0765 -0.0434,0.0649 -0.0649,0.0434 -0.0765,0.0152 h -0.4 L 37.9085,22.6008 37.8436,22.5574 37.8002,22.4925 37.785,22.416 Z"
       id="path74" />
    <path
       style="fill:#000000;fill-opacity:1;fill-rule:evenodd;stroke:none"
       d="m 39.435,21.866 0.0152,-0.0765 0.0434,-0.0649 0.0649,-0.0434 0.0765,-0.0152 h 0.4 l 0.0765,0.0152 0.0649,0.0434 0.0434,0.0649 0.0152,0.0765 v 0.55 l -0.0152,0.0765 -0.0434,0.0649 -0.0649,0.0434 -0.0765,0.0152 h -0.4 L 39.5585,22.6008 39.4936,22.5574 39.4502,22.4925 39.435,22.416 Z"
       id="path75" />
    <path
       style="fill:#000000;fill-opacity:1;fill-rule:evenodd;stroke:none"
       d="m 12.4225,47.2847 0.0167,-0.0837 0.0474,-0.0709 0.0709,-0.0474 0.0837,-0.0167 h 0.4375 l 0.0838,0.0167 0.0709,0.0474 0.0474,0.0709 0.0167,0.0837 v 0.5125 l -0.0167,0.0838 -0.0474,0.0709 -0.0709,0.0474 -0.0838,0.0167 H 12.6412 L 12.5575,47.9993 12.4866,47.9519 12.4392,47.881 12.4225,47.7972 Z"
       id="path76" />
    <path
       style="fill:#000000;fill-opacity:1;fill-rule:evenodd;stroke:none"
       d="m 13.9975,47.2847 0.0167,-0.0837 0.0474,-0.0709 0.0709,-0.0474 0.0837,-0.0167 h 0.4375 l 0.0838,0.0167 0.0709,0.0474 0.0474,0.0709 0.0167,0.0837 v 0.5125 l -0.0167,0.0838 -0.0474,0.0709 -0.0709,0.0474 -0.0838,0.0167 H 14.2162 L 14.1325,47.9993 14.0616,47.9519 14.0142,47.881 13.9975,47.7972 Z"
       id="path77" />
    <path
       style="fill:#000000;fill-opacity:1;fill-rule:evenodd;stroke:none"
       d="M 26.405,9.191 26.4221,9.1049 26.4709,9.0319 26.5439,8.9831 26.63,8.966 h 0.45 l 0.0861,0.0171 0.073,0.0488 0.0488,0.073 0.0171,0.0861 v 0.5 L 27.2879,9.7771 27.2391,9.8501 27.1661,9.8989 27.08,9.916 H 26.63 L 26.5439,9.8989 26.4709,9.8501 26.4221,9.7771 26.405,9.691 Z"
       id="path78" />
    <path
       style="fill:#000000;fill-opacity:1;fill-rule:evenodd;stroke:none"
       d="M 27.955,9.191 27.9721,9.1049 28.0209,9.0319 28.0939,8.9831 28.18,8.966 h 0.45 l 0.0861,0.0171 0.073,0.0488 0.0488,0.073 0.0171,0.0861 v 0.5 L 28.8379,9.7771 28.7891,9.8501 28.7161,9.8989 28.63,9.916 H 28.18 L 28.0939,9.8989 28.0209,9.8501 27.9721,9.7771 27.955,9.691 Z"
       id="path79" />
    <path
       style="fill:#000000;fill-opacity:1;fill-rule:evenodd;stroke:none"
       d="m 79.471,49.9637 -0.0114,0.1063 -0.0498,0.1334 -0.0852,0.1139 -0.114,0.0853 -0.1333,0.0497 -0.1063,0.0114 h -1.75 L 77.1147,50.4523 76.9814,50.4026 76.8674,50.3173 76.7822,50.2034 76.7324,50.07 76.721,49.9637 v -1 l 0.0114,-0.1062 0.0498,-0.1334 0.0852,-0.1139 0.114,-0.0853 0.1333,-0.0497 0.1063,-0.0115 h 1.75 l 0.1063,0.0115 0.1333,0.0497 0.114,0.0853 0.0852,0.1139 0.0498,0.1334 0.0114,0.1062 z"
       id="path80" />
    <path
       style="fill:#000000;fill-opacity:1;fill-rule:evenodd;stroke:none"
       d="m 79.471,47.4237 -0.0114,0.1063 -0.0498,0.1334 -0.0852,0.1139 -0.114,0.0853 -0.1333,0.0497 -0.1063,0.0114 h -1.75 L 77.1147,47.9123 76.9814,47.8626 76.8674,47.7773 76.7822,47.6634 76.7324,47.53 76.721,47.4237 v -1 l 0.0114,-0.1062 0.0498,-0.1334 0.0852,-0.1139 0.114,-0.0853 0.1333,-0.0497 0.1063,-0.0115 h 1.75 l 0.1063,0.0115 0.1333,0.0497 0.114,0.0853 0.0852,0.1139 0.0498,0.1334 0.0114,0.1062 z"
       id="path81" />
    <path
       style="fill:#000000;fill-opacity:1;fill-rule:evenodd;stroke:none"
       d="m 79.471,44.8837 -0.0114,0.1063 -0.0498,0.1334 -0.0852,0.1139 -0.114,0.0853 -0.1333,0.0497 -0.1063,0.0114 h -1.75 L 77.1147,45.3723 76.9814,45.3226 76.8674,45.2373 76.7822,45.1234 76.7324,44.99 76.721,44.8837 v -1 l 0.0114,-0.1062 0.0498,-0.1334 0.0852,-0.1139 0.114,-0.0853 0.1333,-0.0497 0.1063,-0.0115 h 1.75 l 0.1063,0.0115 0.1333,0.0497 0.114,0.0853 0.0852,0.1139 0.0498,0.1334 0.0114,0.1062 z"
       id="path82" />
    <path
       style="fill:#000000;fill-opacity:1;fill-rule:evenodd;stroke:none"
       d="m 79.471,42.3438 -0.0114,0.1062 -0.0498,0.1334 -0.0852,0.1139 -0.114,0.0853 -0.1333,0.0497 -0.1063,0.0115 h -1.75 L 77.1147,42.8323 76.9814,42.7826 76.8674,42.6973 76.7822,42.5834 76.7324,42.45 76.721,42.3438 v -1 l 0.0114,-0.1063 0.0498,-0.1334 0.0852,-0.1139 0.114,-0.0853 0.1333,-0.0497 0.1063,-0.0114 h 1.75 l 0.1063,0.0114 0.1333,0.0497 0.114,0.0853 0.0852,0.1139 0.0498,0.1334 0.0114,0.1063 z"
       id="path83" />
    <path
       style="fill:#000000;fill-opacity:1;fill-rule:evenodd;stroke:none"
       d="m 79.471,39.8038 -0.0114,0.1062 -0.0498,0.1334 -0.0852,0.1139 -0.114,0.0853 -0.1333,0.0497 -0.1063,0.0115 h -1.75 L 77.1147,40.2923 76.9814,40.2426 76.8674,40.1573 76.7822,40.0434 76.7324,39.91 76.721,39.8038 v -1 l 0.0114,-0.1063 0.0498,-0.1334 0.0852,-0.1139 0.114,-0.0853 0.1333,-0.0497 0.1063,-0.0114 h 1.75 l 0.1063,0.0114 0.1333,0.0497 0.114,0.0853 0.0852,0.1139 0.0498,0.1334 0.0114,0.1063 z"
       id="path84" />
    <path
       style="fill:#000000;fill-opacity:1;fill-rule:evenodd;stroke:none"
       d="m 79.471,37.2638 -0.0114,0.1062 -0.0498,0.1334 -0.0852,0.1139 -0.114,0.0853 -0.1333,0.0497 -0.1063,0.0115 h -1.75 L 77.1147,37.7523 76.9814,37.7026 76.8674,37.6173 76.7822,37.5034 76.7324,37.37 76.721,37.2638 v -1 l 0.0114,-0.1063 0.0498,-0.1334 0.0852,-0.1139 0.114,-0.0853 0.1333,-0.0497 0.1063,-0.0114 h 1.75 l 0.1063,0.0114 0.1333,0.0497 0.114,0.0853 0.0852,0.1139 0.0498,0.1334 0.0114,0.1063 z"
       id="path85" />
    <path
       style="fill:#000000;fill-opacity:1;fill-rule:evenodd;stroke:none"
       d="m 79.471,34.7237 -0.0114,0.1063 -0.0498,0.1334 -0.0852,0.1139 -0.114,0.0853 -0.1333,0.0497 -0.1063,0.0114 h -1.75 L 77.1147,35.2123 76.9814,35.1626 76.8674,35.0773 76.7822,34.9634 76.7324,34.83 76.721,34.7237 v -1 l 0.0114,-0.1062 0.0498,-0.1334 0.0852,-0.1139 0.114,-0.0853 0.1333,-0.0497 0.1063,-0.0115 h 1.75 l 0.1063,0.0115 0.1333,0.0497 0.114,0.0853 0.0852,0.1139 0.0498,0.1334 0.0114,0.1062 z"
       id="path86" />
    <path
       style="fill:#000000;fill-opacity:1;fill-rule:evenodd;stroke:none"
       d="m 63.306,34.7237 -0.0114,0.1063 -0.0498,0.1334 -0.0852,0.1139 -0.114,0.0853 -0.1333,0.0497 -0.1063,0.0114 h -1.75 L 60.9497,35.2123 60.8164,35.1626 60.7024,35.0773 60.6172,34.9634 60.5674,34.83 60.556,34.7237 v -1 l 0.0114,-0.1062 0.0498,-0.1334 0.0852,-0.1139 0.114,-0.0853 0.1333,-0.0497 0.1063,-0.0115 h 1.75 l 0.1063,0.0115 0.1333,0.0497 0.114,0.0853 0.0852,0.1139 0.0498,0.1334 0.0114,0.1062 z"
       id="path87" />
    <path
       style="fill:#000000;fill-opacity:1;fill-rule:evenodd;stroke:none"
       d="m 63.306,37.2638 -0.0114,0.1062 -0.0498,0.1334 -0.0852,0.1139 -0.114,0.0853 -0.1333,0.0497 -0.1063,0.0115 h -1.75 L 60.9497,37.7523 60.8164,37.7026 60.7024,37.6173 60.6172,37.5034 60.5674,37.37 60.556,37.2638 v -1 l 0.0114,-0.1063 0.0498,-0.1334 0.0852,-0.1139 0.114,-0.0853 0.1333,-0.0497 0.1063,-0.0114 h 1.75 l 0.1063,0.0114 0.1333,0.0497 0.114,0.0853 0.0852,0.1139 0.0498,0.1334 0.0114,0.1063 z"
       id="path88" />
    <path
       style="fill:#000000;fill-opacity:1;fill-rule:evenodd;stroke:none"
       d="m 63.306,39.8038 -0.0114,0.1062 -0.0498,0.1334 -0.0852,0.1139 -0.114,0.0853 -0.1333,0.0497 -0.1063,0.0115 h -1.75 L 60.9497,40.2923 60.8164,40.2426 60.7024,40.1573 60.6172,40.0434 60.5674,39.91 60.556,39.8038 v -1 l 0.0114,-0.1063 0.0498,-0.1334 0.0852,-0.1139 0.114,-0.0853 0.1333,-0.0497 0.1063,-0.0114 h 1.75 l 0.1063,0.0114 0.1333,0.0497 0.114,0.0853 0.0852,0.1139 0.0498,0.1334 0.0114,0.1063 z"
       id="path89" />
    <path
       style="fill:#000000;fill-opacity:1;fill-rule:evenodd;stroke:none"
       d="m 63.306,42.3438 -0.0114,0.1062 -0.0498,0.1334 -0.0852,0.1139 -0.114,0.0853 -0.1333,0.0497 -0.1063,0.0115 h -1.75 L 60.9497,42.8323 60.8164,42.7826 60.7024,42.6973 60.6172,42.5834 60.5674,42.45 60.556,42.3438 v -1 l 0.0114,-0.1063 0.0498,-0.1334 0.0852,-0.1139 0.114,-0.0853 0.1333,-0.0497 0.1063,-0.0114 h 1.75 l 0.1063,0.0114 0.1333,0.0497 0.114,0.0853 0.0852,0.1139 0.0498,0.1334 0.0114,0.1063 z"
       id="path90" />
    <path
       style="fill:#000000;fill-opacity:1;fill-rule:evenodd;stroke:none"
       d="m 63.306,44.8837 -0.0114,0.1063 -0.0498,0.1334 -0.0852,0.1139 -0.114,0.0853 -0.1333,0.0497 -0.1063,0.0114 h -1.75 L 60.9497,45.3723 60.8164,45.3226 60.7024,45.2373 60.6172,45.1234 60.5674,44.99 60.556,44.8837 v -1 l 0.0114,-0.1062 0.0498,-0.1334 0.0852,-0.1139 0.114,-0.0853 0.1333,-0.0497 0.1063,-0.0115 h 1.75 l 0.1063,0.0115 0.1333,0.0497 0.114,0.0853 0.0852,0.1139 0.0498,0.1334 0.0114,0.1062 z"
       id="path91" />
    <path
       style="fill:#000000;fill-opacity:1;fill-rule:evenodd;stroke:none"
       d="m 63.306,47.4237 -0.0114,0.1063 -0.0498,0.1334 -0.0852,0.1139 -0.114,0.0853 -0.1333,0.0497 -0.1063,0.0114 h -1.75 L 60.9497,47.9123 60.8164,47.8626 60.7024,47.7773 60.6172,47.6634 60.5674,47.53 60.556,47.4237 v -1 l 0.0114,-0.1062 0.0498,-0.1334 0.0852,-0.1139 0.114,-0.0853 0.1333,-0.0497 0.1063,-0.0115 h 1.75 l 0.1063,0.0115 0.1333,0.0497 0.114,0.0853 0.0852,0.1139 0.0498,0.1334 0.0114,0.1062 z"
       id="path92" />
    <path
       style="fill:#000000;fill-opacity:1;fill-rule:evenodd;stroke:none"
       d="m 63.306,49.9637 -0.0114,0.1063 -0.0498,0.1334 -0.0852,0.1139 -0.114,0.0853 -0.1333,0.0497 -0.1063,0.0114 h -1.75 L 60.9497,50.4523 60.8164,50.4026 60.7024,50.3173 60.6172,50.2034 60.5674,50.07 60.556,49.9637 v -1 l 0.0114,-0.1062 0.0498,-0.1334 0.0852,-0.1139 0.114,-0.0853 0.1333,-0.0497 0.1063,-0.0115 h 1.75 l 0.1063,0.0115 0.1333,0.0497 0.114,0.0853 0.0852,0.1139 0.0498,0.1334 0.0114,0.1062 z"
       id="path93" />
    <path
       style="fill:#000000;fill-opacity:1;fill-rule:evenodd;stroke:none"
       d="m 75.3115,41.5037 0.0822,0.0109 0.0999,0.0466 0.078,0.0779 0.0466,0.1 0.0108,0.0821 v 0.635 l -0.0108,0.0822 -0.0466,0.1 -0.078,0.0779 -0.0999,0.0466 -0.0822,0.0108 h -1.651 l -0.0822,-0.0108 -0.0999,-0.0466 -0.078,-0.0779 -0.0466,-0.1 -0.0108,-0.0822 v -0.635 l 0.0108,-0.0821 0.0466,-0.1 0.078,-0.0779 0.0999,-0.0466 0.0822,-0.0109 z"
       id="path94" />
    <path
       style="fill:#000000;fill-opacity:1;fill-rule:evenodd;stroke:none"
       d="m 75.3115,43.4087 0.0822,0.0109 0.0999,0.0466 0.078,0.0779 0.0466,0.1 0.0108,0.0822 v 0.6349 l -0.0108,0.0822 -0.0466,0.1 -0.078,0.0779 -0.0999,0.0466 -0.0822,0.0109 h -1.651 l -0.0822,-0.0109 -0.0999,-0.0466 -0.078,-0.0779 -0.0466,-0.1 -0.0108,-0.0822 v -0.6349 l 0.0108,-0.0822 0.0466,-0.1 0.078,-0.0779 0.0999,-0.0466 0.0822,-0.0109 z"
       id="path95" />
    <path
       style="fill:#000000;fill-opacity:1;fill-rule:evenodd;stroke:none"
       d="M 26.86,37.436 26.7835,37.4208 26.7186,37.3774 26.6752,37.3125 26.66,37.236 v -0.4 l 0.0152,-0.0765 0.0434,-0.0649 0.0649,-0.0434 0.0765,-0.0152 h 0.55 l 0.0765,0.0152 0.0649,0.0434 0.0434,0.0649 0.0152,0.0765 v 0.4 l -0.0152,0.0765 -0.0434,0.0649 -0.0649,0.0434 -0.0765,0.0152 z"
       id="path96" />
    <path
       style="fill:#000000;fill-opacity:1;fill-rule:evenodd;stroke:none"
       d="M 26.86,35.786 26.7835,35.7708 26.7186,35.7274 26.6752,35.6625 26.66,35.586 v -0.4 l 0.0152,-0.0765 0.0434,-0.0649 0.0649,-0.0434 0.0765,-0.0152 h 0.55 l 0.0765,0.0152 0.0649,0.0434 0.0434,0.0649 0.0152,0.0765 v 0.4 l -0.0152,0.0765 -0.0434,0.0649 -0.0649,0.0434 -0.0765,0.0152 z"
       id="path97" />
    <path
       style="fill:#000000;fill-opacity:1;fill-rule:evenodd;stroke:none"
       d="m 60.605,13.501 -0.0171,0.0861 -0.0488,0.073 -0.073,0.0488 -0.0861,0.0171 h -0.45 l -0.0861,-0.0171 -0.073,-0.0488 -0.0488,-0.073 -0.0171,-0.0861 v -0.5 l 0.0171,-0.0861 0.0488,-0.073 0.073,-0.0488 0.0861,-0.0171 h 0.45 l 0.0861,0.0171 0.073,0.0488 0.0488,0.073 0.0171,0.0861 z"
       id="path98" />
    <path
       style="fill:#000000;fill-opacity:1;fill-rule:evenodd;stroke:none"
       d="m 59.055,13.501 -0.0171,0.0861 -0.0488,0.073 -0.073,0.0488 -0.0861,0.0171 h -0.45 l -0.0861,-0.0171 -0.073,-0.0488 -0.0488,-0.073 -0.0171,-0.0861 v -0.5 l 0.0171,-0.0861 0.0488,-0.073 0.073,-0.0488 0.0861,-0.0171 h 0.45 l 0.0861,0.0171 0.073,0.0488 0.0488,0.073 0.0171,0.0861 z"
       id="path99" />
    <path
       style="fill:#000000;fill-opacity:1;fill-rule:evenodd;stroke:none"
       d="m 43.195,18.081 0.0171,-0.0861 0.0488,-0.073 0.073,-0.0488 0.0861,-0.0171 h 0.45 l 0.0861,0.0171 0.073,0.0488 0.0488,0.073 0.0171,0.0861 v 0.5 l -0.0171,0.0861 -0.0488,0.073 -0.073,0.0488 -0.0861,0.0171 h -0.45 l -0.0861,-0.0171 -0.073,-0.0488 -0.0488,-0.073 -0.0171,-0.0861 z"
       id="path100" />
    <path
       style="fill:#000000;fill-opacity:1;fill-rule:evenodd;stroke:none"
       d="m 44.745,18.081 0.0171,-0.0861 0.0488,-0.073 0.073,-0.0488 0.0861,-0.0171 h 0.45 l 0.0861,0.0171 0.073,0.0488 0.0488,0.073 0.0171,0.0861 v 0.5 l -0.0171,0.0861 -0.0488,0.073 -0.073,0.0488 -0.0861,0.0171 h -0.45 l -0.0861,-0.0171 -0.073,-0.0488 -0.0488,-0.073 -0.0171,-0.0861 z"
       id="path101" />
    <path
       style="fill:#000000;fill-opacity:1;fill-rule:evenodd;stroke:none"
       d="m 18.645,47.816 -0.0152,0.0765 -0.0434,0.0649 -0.0649,0.0434 -0.0765,0.0152 h -0.4 L 17.9685,48.0008 17.9036,47.9574 17.8602,47.8925 17.845,47.816 v -0.55 l 0.0152,-0.0765 0.0434,-0.0649 0.0649,-0.0434 0.0765,-0.0152 h 0.4 l 0.0765,0.0152 0.0649,0.0434 0.0434,0.0649 0.0152,0.0765 z"
       id="path102" />
    <path
       style="fill:#000000;fill-opacity:1;fill-rule:evenodd;stroke:none"
       d="m 16.995,47.816 -0.0152,0.0765 -0.0434,0.0649 -0.0649,0.0434 -0.0765,0.0152 h -0.4 L 16.3185,48.0008 16.2536,47.9574 16.2102,47.8925 16.195,47.816 v -0.55 l 0.0152,-0.0765 0.0434,-0.0649 0.0649,-0.0434 0.0765,-0.0152 h 0.4 l 0.0765,0.0152 0.0649,0.0434 0.0434,0.0649 0.0152,0.0765 z"
       id="path103" />
    <path
       style="fill:#000000;fill-opacity:1;fill-rule:evenodd;stroke:none"
       d="m 44.985,10.741 h 2.4 v 1.9 h -2.4 z"
       id="path104" />
    <path
       style="fill:#000000;fill-opacity:1;fill-rule:evenodd;stroke:none"
       d="m 44.985,14.841 h 2.4 v 1.9 h -2.4 z"
       id="path105" />
    <path
       style="fill:#000000;fill-opacity:1;fill-rule:evenodd;stroke:none"
       d="M 42.125,15.746 42.0389,15.7289 41.9659,15.6801 41.9171,15.6071 41.9,15.521 v -0.45 l 0.0171,-0.0861 0.0488,-0.073 0.073,-0.0488 0.0861,-0.0171 h 0.5 l 0.0861,0.0171 0.073,0.0488 0.0488,0.073 0.0171,0.0861 v 0.45 l -0.0171,0.0861 -0.0488,0.073 -0.073,0.0488 -0.0861,0.0171 z"
       id="path106" />
    <path
       style="fill:#000000;fill-opacity:1;fill-rule:evenodd;stroke:none"
       d="M 42.125,14.196 42.0389,14.1789 41.9659,14.1301 41.9171,14.0571 41.9,13.971 v -0.45 l 0.0171,-0.0861 0.0488,-0.073 0.073,-0.0488 0.0861,-0.0171 h 0.5 l 0.0861,0.0171 0.073,0.0488 0.0488,0.073 0.0171,0.0861 v 0.45 l -0.0171,0.0861 -0.0488,0.073 -0.073,0.0488 -0.0861,0.0171 z"
       id="path107" />
    <path
       style="fill:#000000;fill-opacity:1;fill-rule:evenodd;stroke:none"
       d="m 39.66,17.5272 -0.0052,0.0264 -0.0149,0.0223 -0.0223,0.0149 -0.0264,0.0052 H 38.2587 L 38.2324,17.5908 38.2101,17.5759 38.1952,17.5536 38.19,17.5272 v -0.4124 l 0.0052,-0.0264 0.0149,-0.0223 0.0223,-0.0149 0.0263,-0.0052 h 1.3325 l 0.0264,0.0052 0.0223,0.0149 0.0149,0.0223 0.0052,0.0264 z"
       id="path108" />
    <path
       style="fill:#000000;fill-opacity:1;fill-rule:evenodd;stroke:none"
       d="m 39.66,16.7272 -0.0052,0.0264 -0.0149,0.0223 -0.0223,0.0149 -0.0264,0.0052 H 38.2587 L 38.2324,16.7908 38.2101,16.7759 38.1952,16.7536 38.19,16.7272 v -0.4124 l 0.0052,-0.0264 0.0149,-0.0223 0.0223,-0.0149 0.0263,-0.0052 h 1.3325 l 0.0264,0.0052 0.0223,0.0149 0.0149,0.0223 0.0052,0.0264 z"
       id="path109" />
    <path
       style="fill:#000000;fill-opacity:1;fill-rule:evenodd;stroke:none"
       d="m 39.66,15.9272 -0.0052,0.0264 -0.0149,0.0223 -0.0223,0.0149 -0.0264,0.0052 H 38.2587 L 38.2324,15.9908 38.2101,15.9759 38.1952,15.9536 38.19,15.9272 v -0.4125 l 0.0052,-0.0263 0.0149,-0.0223 0.0223,-0.0149 0.0263,-0.0052 h 1.3325 l 0.0264,0.0052 0.0223,0.0149 0.0149,0.0223 0.0052,0.0263 z"
       id="path110" />
    <path
       style="fill:#000000;fill-opacity:1;fill-rule:evenodd;stroke:none"
       d="m 39.66,15.1273 -0.0052,0.0263 -0.0149,0.0223 -0.0223,0.0149 -0.0264,0.0052 H 38.2587 L 38.2324,15.1908 38.2101,15.1759 38.1952,15.1536 38.19,15.1273 v -0.4126 l 0.0052,-0.0263 0.0149,-0.0223 0.0223,-0.0149 0.0263,-0.0052 h 1.3325 l 0.0264,0.0052 0.0223,0.0149 0.0149,0.0223 0.0052,0.0263 z"
       id="path111" />
    <path
       style="fill:#000000;fill-opacity:1;fill-rule:evenodd;stroke:none"
       d="m 39.66,14.3272 -0.0052,0.0264 -0.0149,0.0223 -0.0223,0.0149 -0.0264,0.0052 H 38.2587 L 38.2324,14.3908 38.2101,14.3759 38.1952,14.3536 38.19,14.3272 v -0.4125 l 0.0052,-0.0263 0.0149,-0.0223 0.0223,-0.0149 0.0263,-0.0052 h 1.3325 l 0.0264,0.0052 0.0223,0.0149 0.0149,0.0223 0.0052,0.0263 z"
       id="path112" />
    <path
       style="fill:#000000;fill-opacity:1;fill-rule:evenodd;stroke:none"
       d="m 39.66,13.5272 -0.0052,0.0264 -0.0149,0.0223 -0.0223,0.0149 -0.0264,0.0052 H 38.2587 L 38.2324,13.5908 38.2101,13.5759 38.1952,13.5536 38.19,13.5272 v -0.4125 l 0.0052,-0.0263 0.0149,-0.0223 0.0223,-0.0149 0.0263,-0.0052 h 1.3325 l 0.0264,0.0052 0.0223,0.0149 0.0149,0.0223 0.0052,0.0263 z"
       id="path113" />
    <path
       style="fill:#000000;fill-opacity:1;fill-rule:evenodd;stroke:none"
       d="m 39.66,12.7272 -0.0052,0.0264 -0.0149,0.0223 -0.0223,0.0149 -0.0264,0.0052 H 38.2587 L 38.2324,12.7908 38.2101,12.7759 38.1952,12.7536 38.19,12.7272 v -0.4124 l 0.0052,-0.0264 0.0149,-0.0223 0.0223,-0.0149 0.0263,-0.0052 h 1.3325 l 0.0264,0.0052 0.0223,0.0149 0.0149,0.0223 0.0052,0.0264 z"
       id="path114" />
    <path
       style="fill:#000000;fill-opacity:1;fill-rule:evenodd;stroke:none"
       d="m 39.66,11.9272 -0.0052,0.0264 -0.0149,0.0223 -0.0223,0.0149 -0.0264,0.0052 H 38.2587 L 38.2324,11.9908 38.2101,11.9759 38.1952,11.9536 38.19,11.9272 v -0.4125 l 0.0052,-0.0263 0.0149,-0.0223 0.0223,-0.0149 0.0263,-0.0052 h 1.3325 l 0.0264,0.0052 0.0223,0.0149 0.0149,0.0223 0.0052,0.0263 z"
       id="path115" />
    <path
       style="fill:#000000;fill-opacity:1;fill-rule:evenodd;stroke:none"
       d="m 37.83,11.0172 -0.0052,0.0264 -0.0149,0.0223 -0.0223,0.0149 -0.0264,0.0052 H 37.3487 L 37.3224,11.0808 37.3001,11.0659 37.2852,11.0436 37.28,11.0172 V 9.6847 L 37.2852,9.6584 37.3001,9.6361 37.3224,9.6212 37.3487,9.616 h 0.4125 l 0.0264,0.0052 0.0223,0.0149 0.0149,0.0223 0.0052,0.0263 z"
       id="path116" />
    <path
       style="fill:#000000;fill-opacity:1;fill-rule:evenodd;stroke:none"
       d="m 37.03,11.0172 -0.0052,0.0264 -0.0149,0.0223 -0.0223,0.0149 -0.0264,0.0052 H 36.5487 L 36.5224,11.0808 36.5001,11.0659 36.4852,11.0436 36.48,11.0172 V 9.6847 L 36.4852,9.6584 36.5001,9.6361 36.5224,9.6212 36.5487,9.616 h 0.4125 l 0.0264,0.0052 0.0223,0.0149 0.0149,0.0223 0.0052,0.0263 z"
       id="path117" />
    <path
       style="fill:#000000;fill-opacity:1;fill-rule:evenodd;stroke:none"
       d="m 36.23,11.0172 -0.0052,0.0264 -0.0149,0.0223 -0.0223,0.0149 -0.0264,0.0052 H 35.7488 L 35.7224,11.0808 35.7001,11.0659 35.6852,11.0436 35.68,11.0172 V 9.6847 L 35.6852,9.6584 35.7001,9.6361 35.7224,9.6212 35.7488,9.616 h 0.4124 l 0.0264,0.0052 0.0223,0.0149 0.0149,0.0223 0.0052,0.0263 z"
       id="path118" />
    <path
       style="fill:#000000;fill-opacity:1;fill-rule:evenodd;stroke:none"
       d="m 35.43,11.0172 -0.0052,0.0264 -0.0149,0.0223 -0.0223,0.0149 -0.0264,0.0052 H 34.9487 L 34.9224,11.0808 34.9001,11.0659 34.8852,11.0436 34.88,11.0172 V 9.6847 L 34.8852,9.6584 34.9001,9.6361 34.9224,9.6212 34.9487,9.616 h 0.4125 l 0.0264,0.0052 0.0223,0.0149 0.0149,0.0223 0.0052,0.0263 z"
       id="path119" />
    <path
       style="fill:#000000;fill-opacity:1;fill-rule:evenodd;stroke:none"
       d="m 34.63,11.0172 -0.0052,0.0264 -0.0149,0.0223 -0.0223,0.0149 -0.0263,0.0052 H 34.1487 L 34.1224,11.0808 34.1001,11.0659 34.0852,11.0436 34.08,11.0172 V 9.6847 L 34.0852,9.6584 34.1001,9.6361 34.1224,9.6212 34.1487,9.616 h 0.4126 l 0.0263,0.0052 0.0223,0.0149 0.0149,0.0223 0.0052,0.0263 z"
       id="path120" />
    <path
       style="fill:#000000;fill-opacity:1;fill-rule:evenodd;stroke:none"
       d="m 33.83,11.0172 -0.0052,0.0264 -0.0149,0.0223 -0.0223,0.0149 -0.0264,0.0052 H 33.3487 L 33.3224,11.0808 33.3001,11.0659 33.2852,11.0436 33.28,11.0172 V 9.6847 L 33.2852,9.6584 33.3001,9.6361 33.3224,9.6212 33.3487,9.616 h 0.4125 l 0.0264,0.0052 0.0223,0.0149 0.0149,0.0223 0.0052,0.0263 z"
       id="path121" />
    <path
       style="fill:#000000;fill-opacity:1;fill-rule:evenodd;stroke:none"
       d="m 33.03,11.0172 -0.0052,0.0264 -0.0149,0.0223 -0.0223,0.0149 -0.0264,0.0052 H 32.5487 L 32.5224,11.0808 32.5001,11.0659 32.4852,11.0436 32.48,11.0172 V 9.6847 L 32.4852,9.6584 32.5001,9.6361 32.5224,9.6212 32.5487,9.616 h 0.4125 l 0.0264,0.0052 0.0223,0.0149 0.0149,0.0223 0.0052,0.0263 z"
       id="path122" />
    <path
       style="fill:#000000;fill-opacity:1;fill-rule:evenodd;stroke:none"
       d="m 32.23,11.0172 -0.0052,0.0264 -0.0149,0.0223 -0.0223,0.0149 -0.0264,0.0052 H 31.7487 L 31.7224,11.0808 31.7001,11.0659 31.6852,11.0436 31.68,11.0172 V 9.6847 L 31.6852,9.6584 31.7001,9.6361 31.7224,9.6212 31.7487,9.616 h 0.4125 l 0.0264,0.0052 0.0223,0.0149 0.0149,0.0223 0.0052,0.0263 z"
       id="path123" />
    <path
       style="fill:#000000;fill-opacity:1;fill-rule:evenodd;stroke:none"
       d="m 31.32,11.9272 -0.0052,0.0264 -0.0149,0.0223 -0.0223,0.0149 -0.0264,0.0052 H 29.9187 L 29.8924,11.9908 29.8701,11.9759 29.8552,11.9536 29.85,11.9272 v -0.4125 l 0.0052,-0.0263 0.0149,-0.0223 0.0223,-0.0149 0.0263,-0.0052 h 1.3325 l 0.0264,0.0052 0.0223,0.0149 0.0149,0.0223 0.0052,0.0263 z"
       id="path124" />
    <path
       style="fill:#000000;fill-opacity:1;fill-rule:evenodd;stroke:none"
       d="m 31.32,12.7272 -0.0052,0.0264 -0.0149,0.0223 -0.0223,0.0149 -0.0264,0.0052 H 29.9187 L 29.8924,12.7908 29.8701,12.7759 29.8552,12.7536 29.85,12.7272 v -0.4124 l 0.0052,-0.0264 0.0149,-0.0223 0.0223,-0.0149 0.0263,-0.0052 h 1.3325 l 0.0264,0.0052 0.0223,0.0149 0.0149,0.0223 0.0052,0.0264 z"
       id="path125" />
    <path
       style="fill:#000000;fill-opacity:1;fill-rule:evenodd;stroke:none"
       d="m 31.32,13.5272 -0.0052,0.0264 -0.0149,0.0223 -0.0223,0.0149 -0.0264,0.0052 H 29.9187 L 29.8924,13.5908 29.8701,13.5759 29.8552,13.5536 29.85,13.5272 v -0.4125 l 0.0052,-0.0263 0.0149,-0.0223 0.0223,-0.0149 0.0263,-0.0052 h 1.3325 l 0.0264,0.0052 0.0223,0.0149 0.0149,0.0223 0.0052,0.0263 z"
       id="path126" />
    <path
       style="fill:#000000;fill-opacity:1;fill-rule:evenodd;stroke:none"
       d="m 31.32,14.3272 -0.0052,0.0264 -0.0149,0.0223 -0.0223,0.0149 -0.0264,0.0052 H 29.9187 L 29.8924,14.3908 29.8701,14.3759 29.8552,14.3536 29.85,14.3272 v -0.4125 l 0.0052,-0.0263 0.0149,-0.0223 0.0223,-0.0149 0.0263,-0.0052 h 1.3325 l 0.0264,0.0052 0.0223,0.0149 0.0149,0.0223 0.0052,0.0263 z"
       id="path127" />
    <path
       style="fill:#000000;fill-opacity:1;fill-rule:evenodd;stroke:none"
       d="m 31.32,15.1273 -0.0052,0.0263 -0.0149,0.0223 -0.0223,0.0149 -0.0264,0.0052 H 29.9187 L 29.8924,15.1908 29.8701,15.1759 29.8552,15.1536 29.85,15.1273 v -0.4126 l 0.0052,-0.0263 0.0149,-0.0223 0.0223,-0.0149 0.0263,-0.0052 h 1.3325 l 0.0264,0.0052 0.0223,0.0149 0.0149,0.0223 0.0052,0.0263 z"
       id="path128" />
    <path
       style="fill:#000000;fill-opacity:1;fill-rule:evenodd;stroke:none"
       d="m 31.32,15.9272 -0.0052,0.0264 -0.0149,0.0223 -0.0223,0.0149 -0.0264,0.0052 H 29.9187 L 29.8924,15.9908 29.8701,15.9759 29.8552,15.9536 29.85,15.9272 v -0.4125 l 0.0052,-0.0263 0.0149,-0.0223 0.0223,-0.0149 0.0263,-0.0052 h 1.3325 l 0.0264,0.0052 0.0223,0.0149 0.0149,0.0223 0.0052,0.0263 z"
       id="path129" />
    <path
       style="fill:#000000;fill-opacity:1;fill-rule:evenodd;stroke:none"
       d="m 31.32,16.7272 -0.0052,0.0264 -0.0149,0.0223 -0.0223,0.0149 -0.0264,0.0052 H 29.9187 L 29.8924,16.7908 29.8701,16.7759 29.8552,16.7536 29.85,16.7272 v -0.4124 l 0.0052,-0.0264 0.0149,-0.0223 0.0223,-0.0149 0.0263,-0.0052 h 1.3325 l 0.0264,0.0052 0.0223,0.0149 0.0149,0.0223 0.0052,0.0264 z"
       id="path130" />
    <path
       style="fill:#000000;fill-opacity:1;fill-rule:evenodd;stroke:none"
       d="m 31.32,17.5272 -0.0052,0.0264 -0.0149,0.0223 -0.0223,0.0149 -0.0264,0.0052 H 29.9187 L 29.8924,17.5908 29.8701,17.5759 29.8552,17.5536 29.85,17.5272 v -0.4124 l 0.0052,-0.0264 0.0149,-0.0223 0.0223,-0.0149 0.0263,-0.0052 h 1.3325 l 0.0264,0.0052 0.0223,0.0149 0.0149,0.0223 0.0052,0.0264 z"
       id="path131" />
    <path
       style="fill:#000000;fill-opacity:1;fill-rule:evenodd;stroke:none"
       d="m 32.23,19.3573 -0.0052,0.0263 -0.0149,0.0223 -0.0223,0.0149 -0.0264,0.0052 H 31.7487 L 31.7224,19.4208 31.7001,19.4059 31.6852,19.3836 31.68,19.3573 v -1.3325 l 0.0052,-0.0264 0.0149,-0.0223 0.0223,-0.0149 0.0263,-0.0052 h 0.4125 l 0.0264,0.0052 0.0223,0.0149 0.0149,0.0223 0.0052,0.0264 z"
       id="path132" />
    <path
       style="fill:#000000;fill-opacity:1;fill-rule:evenodd;stroke:none"
       d="m 33.03,19.3573 -0.0052,0.0263 -0.0149,0.0223 -0.0223,0.0149 -0.0264,0.0052 H 32.5487 L 32.5224,19.4208 32.5001,19.4059 32.4852,19.3836 32.48,19.3573 v -1.3325 l 0.0052,-0.0264 0.0149,-0.0223 0.0223,-0.0149 0.0263,-0.0052 h 0.4125 l 0.0264,0.0052 0.0223,0.0149 0.0149,0.0223 0.0052,0.0264 z"
       id="path133" />
    <path
       style="fill:#000000;fill-opacity:1;fill-rule:evenodd;stroke:none"
       d="m 33.83,19.3573 -0.0052,0.0263 -0.0149,0.0223 -0.0223,0.0149 -0.0264,0.0052 H 33.3487 L 33.3224,19.4208 33.3001,19.4059 33.2852,19.3836 33.28,19.3573 v -1.3325 l 0.0052,-0.0264 0.0149,-0.0223 0.0223,-0.0149 0.0263,-0.0052 h 0.4125 l 0.0264,0.0052 0.0223,0.0149 0.0149,0.0223 0.0052,0.0264 z"
       id="path134" />
    <path
       style="fill:#000000;fill-opacity:1;fill-rule:evenodd;stroke:none"
       d="m 34.63,19.3573 -0.0052,0.0263 -0.0149,0.0223 -0.0223,0.0149 -0.0263,0.0052 H 34.1487 L 34.1224,19.4208 34.1001,19.4059 34.0852,19.3836 34.08,19.3573 v -1.3325 l 0.0052,-0.0264 0.0149,-0.0223 0.0223,-0.0149 0.0263,-0.0052 h 0.4126 l 0.0263,0.0052 0.0223,0.0149 0.0149,0.0223 0.0052,0.0264 z"
       id="path135" />
    <path
       style="fill:#000000;fill-opacity:1;fill-rule:evenodd;stroke:none"
       d="m 35.43,19.3573 -0.0052,0.0263 -0.0149,0.0223 -0.0223,0.0149 -0.0264,0.0052 H 34.9487 L 34.9224,19.4208 34.9001,19.4059 34.8852,19.3836 34.88,19.3573 v -1.3325 l 0.0052,-0.0264 0.0149,-0.0223 0.0223,-0.0149 0.0263,-0.0052 h 0.4125 l 0.0264,0.0052 0.0223,0.0149 0.0149,0.0223 0.0052,0.0264 z"
       id="path136" />
    <path
       style="fill:#000000;fill-opacity:1;fill-rule:evenodd;stroke:none"
       d="m 36.23,19.3573 -0.0052,0.0263 -0.0149,0.0223 -0.0223,0.0149 -0.0264,0.0052 H 35.7488 L 35.7224,19.4208 35.7001,19.4059 35.6852,19.3836 35.68,19.3573 v -1.3325 l 0.0052,-0.0264 0.0149,-0.0223 0.0223,-0.0149 0.0264,-0.0052 h 0.4124 l 0.0264,0.0052 0.0223,0.0149 0.0149,0.0223 0.0052,0.0264 z"
       id="path137" />
    <path
       style="fill:#000000;fill-opacity:1;fill-rule:evenodd;stroke:none"
       d="m 37.03,19.3573 -0.0052,0.0263 -0.0149,0.0223 -0.0223,0.0149 -0.0264,0.0052 H 36.5487 L 36.5224,19.4208 36.5001,19.4059 36.4852,19.3836 36.48,19.3573 v -1.3325 l 0.0052,-0.0264 0.0149,-0.0223 0.0223,-0.0149 0.0263,-0.0052 h 0.4125 l 0.0264,0.0052 0.0223,0.0149 0.0149,0.0223 0.0052,0.0264 z"
       id="path138" />
    <path
       style="fill:#000000;fill-opacity:1;fill-rule:evenodd;stroke:none"
       d="m 37.83,19.3573 -0.0052,0.0263 -0.0149,0.0223 -0.0223,0.0149 -0.0264,0.0052 H 37.3487 L 37.3224,19.4208 37.3001,19.4059 37.2852,19.3836 37.28,19.3573 v -1.3325 l 0.0052,-0.0264 0.0149,-0.0223 0.0223,-0.0149 0.0263,-0.0052 h 0.4125 l 0.0264,0.0052 0.0223,0.0149 0.0149,0.0223 0.0052,0.0264 z"
       id="path139" />
    <path
       style="fill:#000000;fill-opacity:1;fill-rule:evenodd;stroke:none"
       d="m 23.115,17.331 v -1 h 1.5 v 1 z"
       id="path140" />
    <path
       style="fill:#000000;fill-opacity:1;fill-rule:evenodd;stroke:none"
       d="m 23.115,20.331 v -1 h 1.5 v 1 z"
       id="path141" />
    <path
       style="fill:#000000;fill-opacity:1;fill-rule:evenodd;stroke:none"
       d="m 54.675,30.756 0.0152,-0.0765 0.0434,-0.0649 0.0649,-0.0434 0.0765,-0.0152 h 0.4 l 0.0765,0.0152 0.0649,0.0434 0.0434,0.0649 0.0152,0.0765 v 0.55 l -0.0152,0.0765 -0.0434,0.0649 -0.0649,0.0434 -0.0765,0.0152 h -0.4 L 54.7985,31.4908 54.7336,31.4474 54.6902,31.3825 54.675,31.306 Z"
       id="path142" />
    <path
       style="fill:#000000;fill-opacity:1;fill-rule:evenodd;stroke:none"
       d="m 56.325,30.756 0.0152,-0.0765 0.0434,-0.0649 0.0649,-0.0434 0.0765,-0.0152 h 0.4 l 0.0765,0.0152 0.0649,0.0434 0.0434,0.0649 0.0152,0.0765 v 0.55 l -0.0152,0.0765 -0.0434,0.0649 -0.0649,0.0434 -0.0765,0.0152 h -0.4 L 56.4485,31.4908 56.3836,31.4474 56.3402,31.3825 56.325,31.306 Z"
       id="path143" />
    <path
       style="fill:#000000;fill-opacity:1;fill-rule:evenodd;stroke:none"
       d="m 54.295,25.676 0.0152,-0.0765 0.0434,-0.0649 0.0649,-0.0434 0.0765,-0.0152 h 0.4 l 0.0765,0.0152 0.0649,0.0434 0.0434,0.0649 0.0152,0.0765 v 0.55 l -0.0152,0.0765 -0.0434,0.0649 -0.0649,0.0434 -0.0765,0.0152 h -0.4 L 54.4185,26.4108 54.3536,26.3674 54.3102,26.3025 54.295,26.226 Z"
       id="path144" />
    <path
       style="fill:#000000;fill-opacity:1;fill-rule:evenodd;stroke:none"
       d="m 55.945,25.676 0.0152,-0.0765 0.0434,-0.0649 0.0649,-0.0434 0.0765,-0.0152 h 0.4 l 0.0765,0.0152 0.0649,0.0434 0.0434,0.0649 0.0152,0.0765 v 0.55 l -0.0152,0.0765 -0.0434,0.0649 -0.0649,0.0434 -0.0765,0.0152 h -0.4 L 56.0685,26.4108 56.0036,26.3674 55.9602,26.3025 55.945,26.226 Z"
       id="path145" />
    <path
       style="fill:#000000;fill-opacity:1;fill-rule:evenodd;stroke:none"
       d="m 29.2686,30.9156 v -0.5588 h 1.3208 v 0.5588 z"
       id="path146" />
    <path
       style="fill:#000000;fill-opacity:1;fill-rule:evenodd;stroke:none"
       d="m 29.2686,32.7952 v -0.5588 h 1.3208 v 0.5588 z"
       id="path147" />
    <path
       style="fill:#000000;fill-opacity:1;fill-rule:evenodd;stroke:none"
       d="m 31.3006,31.8554 v -0.5588 h 1.3208 v 0.5588 z"
       id="path148" />
    <path
       style="fill:#000000;fill-opacity:1;fill-rule:evenodd;stroke:none"
       d="M 45.365,9.691 45.3479,9.7771 45.2991,9.8501 45.2261,9.8989 45.14,9.916 H 44.69 L 44.6039,9.8989 44.5309,9.8501 44.4821,9.7771 44.465,9.691 v -0.5 L 44.4821,9.1049 44.5309,9.0319 44.6039,8.9831 44.69,8.966 h 0.45 l 0.0861,0.0171 0.073,0.0488 0.0488,0.073 0.0171,0.0861 z"
       id="path149" />
    <path
       style="fill:#000000;fill-opacity:1;fill-rule:evenodd;stroke:none"
       d="M 43.815,9.691 43.7979,9.7771 43.7491,9.8501 43.6761,9.8989 43.59,9.916 H 43.14 L 43.0539,9.8989 42.9809,9.8501 42.9321,9.7771 42.915,9.691 v -0.5 L 42.9321,9.1049 42.9809,9.0319 43.0539,8.9831 43.14,8.966 h 0.45 l 0.0861,0.0171 0.073,0.0488 0.0488,0.073 0.0171,0.0861 z"
       id="path150" />
    <path
       style="fill:#000000;fill-opacity:1;fill-rule:evenodd;stroke:none"
       d="M 26.86,40.866 26.7835,40.8508 26.7186,40.8074 26.6752,40.7425 26.66,40.666 v -0.4 l 0.0152,-0.0765 0.0434,-0.0649 0.0649,-0.0434 0.0765,-0.0152 h 0.55 l 0.0765,0.0152 0.0649,0.0434 0.0434,0.0649 0.0152,0.0765 v 0.4 l -0.0152,0.0765 -0.0434,0.0649 -0.0649,0.0434 -0.0765,0.0152 z"
       id="path151" />
    <path
       style="fill:#000000;fill-opacity:1;fill-rule:evenodd;stroke:none"
       d="M 26.86,39.216 26.7835,39.2008 26.7186,39.1574 26.6752,39.0925 26.66,39.016 v -0.4 l 0.0152,-0.0765 0.0434,-0.0649 0.0649,-0.0434 0.0765,-0.0152 h 0.55 l 0.0765,0.0152 0.0649,0.0434 0.0434,0.0649 0.0152,0.0765 v 0.4 l -0.0152,0.0765 -0.0434,0.0649 -0.0649,0.0434 -0.0765,0.0152 z"
       id="path152" />
    <path
       style="fill:#000000;fill-opacity:1;fill-rule:evenodd;stroke:none"
       d="m 50.355,13.736 0.0114,-0.0574 0.0325,-0.0487 0.0487,-0.0325 0.0574,-0.0114 h 1.65 l 0.0574,0.0114 0.0487,0.0325 0.0325,0.0487 0.0114,0.0574 v 0.3 l -0.0114,0.0574 -0.0325,0.0487 -0.0487,0.0325 -0.0574,0.0114 h -1.65 L 50.4476,14.1746 50.3989,14.1421 50.3664,14.0934 50.355,14.036 Z"
       id="path153" />
    <path
       style="fill:#000000;fill-opacity:1;fill-rule:evenodd;stroke:none"
       d="m 50.355,15.006 0.0114,-0.0574 0.0325,-0.0487 0.0487,-0.0325 0.0574,-0.0114 h 1.65 l 0.0574,0.0114 0.0487,0.0325 0.0325,0.0487 0.0114,0.0574 v 0.3 l -0.0114,0.0574 -0.0325,0.0487 -0.0487,0.0325 -0.0574,0.0114 h -1.65 L 50.4476,15.4446 50.3989,15.4121 50.3664,15.3634 50.355,15.306 Z"
       id="path154" />
    <path
       style="fill:#000000;fill-opacity:1;fill-rule:evenodd;stroke:none"
       d="m 50.355,16.276 0.0114,-0.0574 0.0325,-0.0487 0.0487,-0.0325 0.0574,-0.0114 h 1.65 l 0.0574,0.0114 0.0487,0.0325 0.0325,0.0487 0.0114,0.0574 v 0.3 l -0.0114,0.0574 -0.0325,0.0487 -0.0487,0.0325 -0.0574,0.0114 h -1.65 L 50.4476,16.7146 50.3989,16.6821 50.3664,16.6334 50.355,16.576 Z"
       id="path155" />
    <path
       style="fill:#000000;fill-opacity:1;fill-rule:evenodd;stroke:none"
       d="m 50.355,17.546 0.0114,-0.0574 0.0325,-0.0487 0.0487,-0.0325 0.0574,-0.0114 h 1.65 l 0.0574,0.0114 0.0487,0.0325 0.0325,0.0487 0.0114,0.0574 v 0.3 l -0.0114,0.0574 -0.0325,0.0487 -0.0487,0.0325 -0.0574,0.0114 h -1.65 L 50.4476,17.9846 50.3989,17.9521 50.3664,17.9034 50.355,17.846 Z"
       id="path156" />
    <path
       style="fill:#000000;fill-opacity:1;fill-rule:evenodd;stroke:none"
       d="m 50.355,18.816 0.0114,-0.0574 0.0325,-0.0487 0.0487,-0.0325 0.0574,-0.0114 h 1.65 l 0.0574,0.0114 0.0487,0.0325 0.0325,0.0487 0.0114,0.0574 v 0.3 l -0.0114,0.0574 -0.0325,0.0487 -0.0487,0.0325 -0.0574,0.0114 h -1.65 L 50.4476,19.2546 50.3989,19.2221 50.3664,19.1734 50.355,19.116 Z"
       id="path157" />
    <path
       style="fill:#000000;fill-opacity:1;fill-rule:evenodd;stroke:none"
       d="m 50.355,20.086 0.0114,-0.0574 0.0325,-0.0487 0.0487,-0.0325 0.0574,-0.0114 h 1.65 l 0.0574,0.0114 0.0487,0.0325 0.0325,0.0487 0.0114,0.0574 v 0.3 l -0.0114,0.0574 -0.0325,0.0487 -0.0487,0.0325 -0.0574,0.0114 h -1.65 L 50.4476,20.5246 50.3989,20.4921 50.3664,20.4434 50.355,20.386 Z"
       id="path158" />
    <path
       style="fill:#000000;fill-opacity:1;fill-rule:evenodd;stroke:none"
       d="m 50.355,21.356 0.0114,-0.0574 0.0325,-0.0487 0.0487,-0.0325 0.0574,-0.0114 h 1.65 l 0.0574,0.0114 0.0487,0.0325 0.0325,0.0487 0.0114,0.0574 v 0.3 l -0.0114,0.0574 -0.0325,0.0487 -0.0487,0.0325 -0.0574,0.0114 h -1.65 L 50.4476,21.7946 50.3989,21.7621 50.3664,21.7134 50.355,21.656 Z"
       id="path159" />
    <path
       style="fill:#000000;fill-opacity:1;fill-rule:evenodd;stroke:none"
       d="m 50.355,22.626 0.0114,-0.0574 0.0325,-0.0487 0.0487,-0.0325 0.0574,-0.0114 h 1.65 l 0.0574,0.0114 0.0487,0.0325 0.0325,0.0487 0.0114,0.0574 v 0.3 l -0.0114,0.0574 -0.0325,0.0487 -0.0487,0.0325 -0.0574,0.0114 h -1.65 L 50.4476,23.0646 50.3989,23.0321 50.3664,22.9834 50.355,22.926 Z"
       id="path160" />
    <path
       style="fill:#000000;fill-opacity:1;fill-rule:evenodd;stroke:none"
       d="m 55.305,22.626 0.0114,-0.0574 0.0325,-0.0487 0.0487,-0.0325 0.0574,-0.0114 h 1.65 l 0.0574,0.0114 0.0487,0.0325 0.0325,0.0487 0.0114,0.0574 v 0.3 l -0.0114,0.0574 -0.0325,0.0487 -0.0487,0.0325 -0.0574,0.0114 h -1.65 L 55.3976,23.0646 55.3489,23.0321 55.3164,22.9834 55.305,22.926 Z"
       id="path161" />
    <path
       style="fill:#000000;fill-opacity:1;fill-rule:evenodd;stroke:none"
       d="m 55.305,21.356 0.0114,-0.0574 0.0325,-0.0487 0.0487,-0.0325 0.0574,-0.0114 h 1.65 l 0.0574,0.0114 0.0487,0.0325 0.0325,0.0487 0.0114,0.0574 v 0.3 l -0.0114,0.0574 -0.0325,0.0487 -0.0487,0.0325 -0.0574,0.0114 h -1.65 L 55.3976,21.7946 55.3489,21.7621 55.3164,21.7134 55.305,21.656 Z"
       id="path162" />
    <path
       style="fill:#000000;fill-opacity:1;fill-rule:evenodd;stroke:none"
       d="m 55.305,20.086 0.0114,-0.0574 0.0325,-0.0487 0.0487,-0.0325 0.0574,-0.0114 h 1.65 l 0.0574,0.0114 0.0487,0.0325 0.0325,0.0487 0.0114,0.0574 v 0.3 l -0.0114,0.0574 -0.0325,0.0487 -0.0487,0.0325 -0.0574,0.0114 h -1.65 L 55.3976,20.5246 55.3489,20.4921 55.3164,20.4434 55.305,20.386 Z"
       id="path163" />
    <path
       style="fill:#000000;fill-opacity:1;fill-rule:evenodd;stroke:none"
       d="m 55.305,18.816 0.0114,-0.0574 0.0325,-0.0487 0.0487,-0.0325 0.0574,-0.0114 h 1.65 l 0.0574,0.0114 0.0487,0.0325 0.0325,0.0487 0.0114,0.0574 v 0.3 l -0.0114,0.0574 -0.0325,0.0487 -0.0487,0.0325 -0.0574,0.0114 h -1.65 L 55.3976,19.2546 55.3489,19.2221 55.3164,19.1734 55.305,19.116 Z"
       id="path164" />
    <path
       style="fill:#000000;fill-opacity:1;fill-rule:evenodd;stroke:none"
       d="m 55.305,17.546 0.0114,-0.0574 0.0325,-0.0487 0.0487,-0.0325 0.0574,-0.0114 h 1.65 l 0.0574,0.0114 0.0487,0.0325 0.0325,0.0487 0.0114,0.0574 v 0.3 l -0.0114,0.0574 -0.0325,0.0487 -0.0487,0.0325 -0.0574,0.0114 h -1.65 L 55.3976,17.9846 55.3489,17.9521 55.3164,17.9034 55.305,17.846 Z"
       id="path165" />
    <path
       style="fill:#000000;fill-opacity:1;fill-rule:evenodd;stroke:none"
       d="m 55.305,16.276 0.0114,-0.0574 0.0325,-0.0487 0.0487,-0.0325 0.0574,-0.0114 h 1.65 l 0.0574,0.0114 0.0487,0.0325 0.0325,0.0487 0.0114,0.0574 v 0.3 l -0.0114,0.0574 -0.0325,0.0487 -0.0487,0.0325 -0.0574,0.0114 h -1.65 L 55.3976,16.7146 55.3489,16.6821 55.3164,16.6334 55.305,16.576 Z"
       id="path166" />
    <path
       style="fill:#000000;fill-opacity:1;fill-rule:evenodd;stroke:none"
       d="m 55.305,15.006 0.0114,-0.0574 0.0325,-0.0487 0.0487,-0.0325 0.0574,-0.0114 h 1.65 l 0.0574,0.0114 0.0487,0.0325 0.0325,0.0487 0.0114,0.0574 v 0.3 l -0.0114,0.0574 -0.0325,0.0487 -0.0487,0.0325 -0.0574,0.0114 h -1.65 L 55.3976,15.4446 55.3489,15.4121 55.3164,15.3634 55.305,15.306 Z"
       id="path167" />
    <path
       style="fill:#000000;fill-opacity:1;fill-rule:evenodd;stroke:none"
       d="m 55.305,13.736 0.0114,-0.0574 0.0325,-0.0487 0.0487,-0.0325 0.0574,-0.0114 h 1.65 l 0.0574,0.0114 0.0487,0.0325 0.0325,0.0487 0.0114,0.0574 v 0.3 l -0.0114,0.0574 -0.0325,0.0487 -0.0487,0.0325 -0.0574,0.0114 h -1.65 L 55.3976,14.1746 55.3489,14.1421 55.3164,14.0934 55.305,14.036 Z"
       id="path168" />
    <path
       style="fill:#000000;fill-opacity:1;fill-rule:evenodd;stroke:none"
       d="m 42.625,35.381 0.0861,0.0171 0.073,0.0488 0.0488,0.073 0.0171,0.0861 v 0.45 l -0.0171,0.0861 -0.0488,0.073 -0.073,0.0488 -0.0861,0.0171 h -0.5 L 42.0389,36.2639 41.9659,36.2151 41.9171,36.1421 41.9,36.056 v -0.45 l 0.0171,-0.0861 0.0488,-0.073 0.073,-0.0488 0.0861,-0.0171 z"
       id="path169" />
    <path
       style="fill:#000000;fill-opacity:1;fill-rule:evenodd;stroke:none"
       d="m 42.625,36.931 0.0861,0.0171 0.073,0.0488 0.0488,0.073 0.0171,0.0861 v 0.45 l -0.0171,0.0861 -0.0488,0.073 -0.073,0.0488 -0.0861,0.0171 h -0.5 L 42.0389,37.8139 41.9659,37.7651 41.9171,37.6921 41.9,37.606 v -0.45 l 0.0171,-0.0861 0.0488,-0.073 0.073,-0.0488 0.0861,-0.0171 z"
       id="path170" />
    <path
       style="fill:#000000;fill-opacity:1;fill-rule:evenodd;stroke:none"
       d="M 23.05,45.781 22.9735,45.7658 22.9086,45.7224 22.8652,45.6575 22.85,45.581 v -0.4 l 0.0152,-0.0765 0.0434,-0.0649 0.0649,-0.0434 0.0765,-0.0152 h 0.55 l 0.0765,0.0152 0.0649,0.0434 0.0434,0.0649 0.0152,0.0765 v 0.4 l -0.0152,0.0765 -0.0434,0.0649 -0.0649,0.0434 L 23.6,45.781 Z"
       id="path171" />
    <path
       style="fill:#000000;fill-opacity:1;fill-rule:evenodd;stroke:none"
       d="M 23.05,44.131 22.9735,44.1158 22.9086,44.0724 22.8652,44.0075 22.85,43.931 v -0.4 l 0.0152,-0.0765 0.0434,-0.0649 0.0649,-0.0434 0.0765,-0.0152 h 0.55 l 0.0765,0.0152 0.0649,0.0434 0.0434,0.0649 0.0152,0.0765 v 0.4 l -0.0152,0.0765 -0.0434,0.0649 -0.0649,0.0434 L 23.6,44.131 Z"
       id="path172" />
    <path
       style="fill:#000000;fill-opacity:1;fill-rule:evenodd;stroke:none"
       d="M 26.86,33.626 26.7835,33.6108 26.7186,33.5674 26.6752,33.5025 26.66,33.426 v -0.4 l 0.0152,-0.0765 0.0434,-0.0649 0.0649,-0.0434 0.0765,-0.0152 h 0.55 l 0.0765,0.0152 0.0649,0.0434 0.0434,0.0649 0.0152,0.0765 v 0.4 l -0.0152,0.0765 -0.0434,0.0649 -0.0649,0.0434 -0.0765,0.0152 z"
       id="path173" />
    <path
       style="fill:#000000;fill-opacity:1;fill-rule:evenodd;stroke:none"
       d="M 26.86,31.976 26.7835,31.9608 26.7186,31.9174 26.6752,31.8525 26.66,31.776 v -0.4 l 0.0152,-0.0765 0.0434,-0.0649 0.0649,-0.0434 0.0765,-0.0152 h 0.55 l 0.0765,0.0152 0.0649,0.0434 0.0434,0.0649 0.0152,0.0765 v 0.4 l -0.0152,0.0765 -0.0434,0.0649 -0.0649,0.0434 -0.0765,0.0152 z"
       id="path174" />
    <path
       style="fill:#000000;fill-opacity:1;fill-rule:evenodd;stroke:none"
       d="M 24.32,33.626 24.2435,33.6108 24.1786,33.5674 24.1352,33.5025 24.12,33.426 v -0.4 l 0.0152,-0.0765 0.0434,-0.0649 0.0649,-0.0434 0.0765,-0.0152 h 0.55 l 0.0765,0.0152 0.0649,0.0434 0.0434,0.0649 0.0152,0.0765 v 0.4 l -0.0152,0.0765 -0.0434,0.0649 -0.0649,0.0434 -0.0765,0.0152 z"
       id="path175" />
    <path
       style="fill:#000000;fill-opacity:1;fill-rule:evenodd;stroke:none"
       d="M 24.32,31.976 24.2435,31.9608 24.1786,31.9174 24.1352,31.8525 24.12,31.776 v -0.4 l 0.0152,-0.0765 0.0434,-0.0649 0.0649,-0.0434 0.0765,-0.0152 h 0.55 l 0.0765,0.0152 0.0649,0.0434 0.0434,0.0649 0.0152,0.0765 v 0.4 l -0.0152,0.0765 -0.0434,0.0649 -0.0649,0.0434 -0.0765,0.0152 z"
       id="path176" />
    <path
       style="fill:#000000;fill-opacity:1;fill-rule:evenodd;stroke:none"
       d="M 28.155,14.476 28.0689,14.4589 27.9959,14.4101 27.9471,14.3371 27.93,14.251 v -0.45 l 0.0171,-0.0861 0.0488,-0.073 0.073,-0.0488 0.0861,-0.0171 h 0.5 l 0.0861,0.0171 0.073,0.0488 0.0488,0.073 0.0171,0.0861 v 0.45 l -0.0171,0.0861 -0.0488,0.073 -0.073,0.0488 -0.0861,0.0171 z"
       id="path177" />
    <path
       style="fill:#000000;fill-opacity:1;fill-rule:evenodd;stroke:none"
       d="M 28.155,12.926 28.0689,12.9089 27.9959,12.8601 27.9471,12.7871 27.93,12.701 v -0.45 l 0.0171,-0.0861 0.0488,-0.073 0.073,-0.0488 0.0861,-0.0171 h 0.5 l 0.0861,0.0171 0.073,0.0488 0.0488,0.073 0.0171,0.0861 v 0.45 l -0.0171,0.0861 -0.0488,0.073 -0.073,0.0488 -0.0861,0.0171 z"
       id="path178" />
    <path
       style="fill:#000000;fill-opacity:1;fill-rule:evenodd;stroke:none"
       d="M 52.285,28.446 52.1989,28.4289 52.1259,28.3801 52.0771,28.3071 52.06,28.221 v -0.45 l 0.0171,-0.0861 0.0488,-0.073 0.073,-0.0488 0.0861,-0.0171 h 0.5 l 0.0861,0.0171 0.073,0.0488 0.0488,0.073 0.0171,0.0861 v 0.45 l -0.0171,0.0861 -0.0488,0.073 -0.073,0.0488 -0.0861,0.0171 z"
       id="path179" />
    <path
       style="fill:#000000;fill-opacity:1;fill-rule:evenodd;stroke:none"
       d="M 52.285,26.896 52.1989,26.8789 52.1259,26.8301 52.0771,26.7571 52.06,26.671 v -0.45 l 0.0171,-0.0861 0.0488,-0.073 0.073,-0.0488 0.0861,-0.0171 h 0.5 l 0.0861,0.0171 0.073,0.0488 0.0488,0.073 0.0171,0.0861 v 0.45 l -0.0171,0.0861 -0.0488,0.073 -0.073,0.0488 -0.0861,0.0171 z"
       id="path180" />
    <path
       style="fill:#000000;fill-opacity:1;fill-rule:evenodd;stroke:none"
       d="m 21.275,12.976 0.0152,-0.0765 0.0434,-0.0649 0.0649,-0.0434 0.0765,-0.0152 h 0.4 l 0.0765,0.0152 0.0649,0.0434 0.0434,0.0649 0.0152,0.0765 v 0.55 l -0.0152,0.0765 -0.0434,0.0649 -0.0649,0.0434 -0.0765,0.0152 h -0.4 L 21.3985,13.7108 21.3336,13.6674 21.2902,13.6025 21.275,13.526 Z"
       id="path181" />
    <path
       style="fill:#000000;fill-opacity:1;fill-rule:evenodd;stroke:none"
       d="m 22.925,12.976 0.0152,-0.0765 0.0434,-0.0649 0.0649,-0.0434 0.0765,-0.0152 h 0.4 l 0.0765,0.0152 0.0649,0.0434 0.0434,0.0649 0.0152,0.0765 v 0.55 l -0.0152,0.0765 -0.0434,0.0649 -0.0649,0.0434 -0.0765,0.0152 h -0.4 L 23.0485,13.7108 22.9836,13.6674 22.9402,13.6025 22.925,13.526 Z"
       id="path182" />
  </g>
  <g
     style="fill:none;stroke:#000000;stroke-width:0.1;stroke-linecap:round;stroke-linejoin:round;stroke-opacity:1"
     id="g190">
    <path
       d="m 80.475,4.361 v 45.72"
       id="path183" />
    <path
       d="m 77.935,52.621 a 2.54,2.54 0 0 0 2.54,-2.54"
       id="path184" />
    <path
       d="m 9.355,1.821 a 2.54,2.54 0 0 0 -2.54,2.54"
       id="path185" />
    <path
       d="m 9.355,52.621 h 68.58"
       id="path186" />
    <path
       d="m 80.475,4.361 a 2.54,2.54 0 0 0 -2.54,-2.54"
       id="path187" />
    <path
       d="m 6.815,50.081 a 2.54,2.54 0 0 0 2.54,2.54"
       id="path188" />
    <path
       d="m 9.355,1.821 h 68.58"
       id="path189" />
    <path
       d="m 6.815,4.361 v 45.72"
       id="path190" />
  </g>
  <metadata
     id="metadata190">
    <rdf:RDF>
      <cc:Work
         rdf:about="">
        <dc:title>SVG Image created as foc_pcb-F_Paste.svg date 2024/12/21 13:55:47 </dc:title>
      </cc:Work>
    </rdf:RDF>
  </metadata>
</svg>
