%TF.GenerationSoftware,KiCad,Pcbnew,8.0.4*%
%TF.CreationDate,2025-06-19T10:42:22-04:00*%
%TF.ProjectId,foc_pcb,666f635f-7063-4622-9e6b-696361645f70,2.0*%
%TF.SameCoordinates,Original*%
%TF.FileFunction,Paste,Top*%
%TF.FilePolarity,Positive*%
%FSLAX46Y46*%
G04 Gerber Fmt 4.6, Leading zero omitted, Abs format (unit mm)*
G04 Created by KiCad (PCBNEW 8.0.4) date 2025-06-19 10:42:22*
%MOMM*%
%LPD*%
G01*
G04 APERTURE LIST*
G04 Aperture macros list*
%AMRoundRect*
0 Rectangle with rounded corners*
0 $1 Rounding radius*
0 $2 $3 $4 $5 $6 $7 $8 $9 X,Y pos of 4 corners*
0 Add a 4 corners polygon primitive as box body*
4,1,4,$2,$3,$4,$5,$6,$7,$8,$9,$2,$3,0*
0 Add four circle primitives for the rounded corners*
1,1,$1+$1,$2,$3*
1,1,$1+$1,$4,$5*
1,1,$1+$1,$6,$7*
1,1,$1+$1,$8,$9*
0 Add four rect primitives between the rounded corners*
20,1,$1+$1,$2,$3,$4,$5,0*
20,1,$1+$1,$4,$5,$6,$7,0*
20,1,$1+$1,$6,$7,$8,$9,0*
20,1,$1+$1,$8,$9,$2,$3,0*%
G04 Aperture macros list end*
%ADD10C,0.010000*%
%ADD11RoundRect,0.200000X-0.275000X0.200000X-0.275000X-0.200000X0.275000X-0.200000X0.275000X0.200000X0*%
%ADD12RoundRect,0.218750X-0.256250X0.218750X-0.256250X-0.218750X0.256250X-0.218750X0.256250X0.218750X0*%
%ADD13R,2.692400X1.092200*%
%ADD14RoundRect,0.200000X0.200000X0.275000X-0.200000X0.275000X-0.200000X-0.275000X0.200000X-0.275000X0*%
%ADD15RoundRect,0.225000X0.250000X-0.225000X0.250000X0.225000X-0.250000X0.225000X-0.250000X-0.225000X0*%
%ADD16RoundRect,0.500000X0.875000X0.500000X-0.875000X0.500000X-0.875000X-0.500000X0.875000X-0.500000X0*%
%ADD17RoundRect,0.317500X-0.825500X0.317500X-0.825500X-0.317500X0.825500X-0.317500X0.825500X0.317500X0*%
%ADD18RoundRect,0.225000X-0.225000X-0.250000X0.225000X-0.250000X0.225000X0.250000X-0.225000X0.250000X0*%
%ADD19R,0.730000X1.210000*%
%ADD20R,1.000000X1.500000*%
%ADD21RoundRect,0.200000X0.275000X-0.200000X0.275000X0.200000X-0.275000X0.200000X-0.275000X-0.200000X0*%
%ADD22O,0.343000X1.731500*%
%ADD23R,6.200000X2.750000*%
%ADD24RoundRect,0.225000X-0.250000X0.225000X-0.250000X-0.225000X0.250000X-0.225000X0.250000X0.225000X0*%
%ADD25RoundRect,0.200000X-0.200000X-0.275000X0.200000X-0.275000X0.200000X0.275000X-0.200000X0.275000X0*%
G04 APERTURE END LIST*
D10*
%TO.C,VR1*%
X299966000Y-148402000D02*
X300566000Y-149002000D01*
X300566000Y-151202000D01*
X299666000Y-152102000D01*
X299266000Y-152102000D01*
X298366000Y-151202000D01*
X298366000Y-149002000D01*
X298966000Y-148402000D01*
X298966000Y-146602000D01*
X299966000Y-146602000D01*
X299966000Y-148402000D01*
G36*
X299966000Y-148402000D02*
G01*
X300566000Y-149002000D01*
X300566000Y-151202000D01*
X299666000Y-152102000D01*
X299266000Y-152102000D01*
X298366000Y-151202000D01*
X298366000Y-149002000D01*
X298966000Y-148402000D01*
X298966000Y-146602000D01*
X299966000Y-146602000D01*
X299966000Y-148402000D01*
G37*
%TD*%
D11*
%TO.C,R1*%
X319532000Y-134594000D03*
X319532000Y-136244000D03*
%TD*%
D12*
%TO.C,D1*%
X331724000Y-157480000D03*
X331724000Y-159055000D03*
%TD*%
D13*
%TO.C,C5*%
X321957700Y-145542000D03*
X327266300Y-145542000D03*
%TD*%
D14*
%TO.C,R7*%
X311264000Y-149352000D03*
X309614000Y-149352000D03*
%TD*%
D15*
%TO.C,C2*%
X317754000Y-136157000D03*
X317754000Y-134607000D03*
%TD*%
D16*
%TO.C,U3*%
X320075517Y-170629833D03*
X320075517Y-168089833D03*
X320075517Y-165549833D03*
X320075517Y-163009833D03*
X320075517Y-160469833D03*
X320075517Y-157929833D03*
X320075517Y-155389833D03*
X303910517Y-155389833D03*
X303910517Y-157929833D03*
X303910517Y-160469833D03*
X303910517Y-163009833D03*
X303910517Y-165549833D03*
X303910517Y-168089833D03*
X303910517Y-170629833D03*
D17*
X316465517Y-163304833D03*
X316465516Y-165209833D03*
%TD*%
D18*
%TO.C,C4*%
X312915000Y-149352000D03*
X314465000Y-149352000D03*
%TD*%
D19*
%TO.C,D2*%
X301244000Y-159569998D03*
X301244000Y-156210000D03*
%TD*%
D20*
%TO.C,VR1*%
X300966000Y-147352000D03*
X297966000Y-147352000D03*
%TD*%
D21*
%TO.C,R4*%
X306832000Y-144335000D03*
X306832000Y-142685000D03*
%TD*%
D22*
%TO.C,U1*%
X314706000Y-134730000D03*
X314056000Y-134730000D03*
X313406000Y-134730000D03*
X312756000Y-134730000D03*
X312106000Y-134729999D03*
X311456000Y-134730000D03*
X310806000Y-134730000D03*
X310156000Y-134730000D03*
X309506000Y-134730000D03*
X308856000Y-134729999D03*
X308206000Y-134730000D03*
X307556000Y-134730000D03*
X306906000Y-134730000D03*
X306256000Y-134730000D03*
X306256000Y-140462000D03*
X306906000Y-140462000D03*
X307556000Y-140462000D03*
X308206000Y-140462000D03*
X308856000Y-140462001D03*
X309506000Y-140462000D03*
X310156000Y-140462000D03*
X310806000Y-140462000D03*
X311456000Y-140462000D03*
X312106000Y-140462001D03*
X312756000Y-140462000D03*
X313406000Y-140462000D03*
X314056000Y-140462000D03*
X314706000Y-140462000D03*
D23*
X310481000Y-137596000D03*
%TD*%
D11*
%TO.C,R6*%
X310388000Y-142635000D03*
X310388000Y-144285000D03*
%TD*%
D24*
%TO.C,C1*%
X317500000Y-142735000D03*
X317500000Y-144285000D03*
%TD*%
D21*
%TO.C,R10*%
X319532000Y-139509000D03*
X319532000Y-137859000D03*
%TD*%
D11*
%TO.C,R9*%
X313884000Y-142635000D03*
X313884000Y-144285000D03*
%TD*%
D25*
%TO.C,R2*%
X329883000Y-160782000D03*
X331533000Y-160782000D03*
%TD*%
D15*
%TO.C,C3*%
X308610000Y-144285000D03*
X308610000Y-142735000D03*
%TD*%
D25*
%TO.C,R5*%
X309614000Y-151003000D03*
X311264000Y-151003000D03*
%TD*%
D24*
%TO.C,C6*%
X315722000Y-142748000D03*
X315722000Y-144298000D03*
%TD*%
D21*
%TO.C,R11*%
X317754000Y-139509000D03*
X317754000Y-137859000D03*
%TD*%
D11*
%TO.C,R3*%
X305054000Y-142685000D03*
X305054000Y-144335000D03*
%TD*%
%TO.C,R8*%
X312166000Y-142635000D03*
X312166000Y-144285000D03*
%TD*%
M02*
