%TF.GenerationSoftware,KiCad,Pcbnew,8.0.4*%
%TF.CreationDate,2025-06-19T10:42:22-04:00*%
%TF.ProjectId,foc_pcb,666f635f-7063-4622-9e6b-696361645f70,2.0*%
%TF.SameCoordinates,Original*%
%TF.FileFunction,Copper,L4,Bot*%
%TF.FilePolarity,Positive*%
%FSLAX46Y46*%
G04 Gerber Fmt 4.6, Leading zero omitted, Abs format (unit mm)*
G04 Created by KiCad (PCBNEW 8.0.4) date 2025-06-19 10:42:22*
%MOMM*%
%LPD*%
G01*
G04 APERTURE LIST*
G04 Aperture macros list*
%AMRoundRect*
0 Rectangle with rounded corners*
0 $1 Rounding radius*
0 $2 $3 $4 $5 $6 $7 $8 $9 X,Y pos of 4 corners*
0 Add a 4 corners polygon primitive as box body*
4,1,4,$2,$3,$4,$5,$6,$7,$8,$9,$2,$3,0*
0 Add four circle primitives for the rounded corners*
1,1,$1+$1,$2,$3*
1,1,$1+$1,$4,$5*
1,1,$1+$1,$6,$7*
1,1,$1+$1,$8,$9*
0 Add four rect primitives between the rounded corners*
20,1,$1+$1,$2,$3,$4,$5,0*
20,1,$1+$1,$4,$5,$6,$7,0*
20,1,$1+$1,$6,$7,$8,$9,0*
20,1,$1+$1,$8,$9,$2,$3,0*%
%AMHorizOval*
0 Thick line with rounded ends*
0 $1 width*
0 $2 $3 position (X,Y) of the first rounded end (center of the circle)*
0 $4 $5 position (X,Y) of the second rounded end (center of the circle)*
0 Add line between two ends*
20,1,$1,$2,$3,$4,$5,0*
0 Add two circle primitives to create the rounded ends*
1,1,$1,$2,$3*
1,1,$1,$4,$5*%
%AMRotRect*
0 Rectangle, with rotation*
0 The origin of the aperture is its center*
0 $1 length*
0 $2 width*
0 $3 Rotation angle, in degrees counterclockwise*
0 Add horizontal line*
21,1,$1,$2,0,0,$3*%
G04 Aperture macros list end*
%TA.AperFunction,ComponentPad*%
%ADD10RoundRect,0.250001X-1.386080X0.706243X-0.706243X-1.386080X1.386080X-0.706243X0.706243X1.386080X0*%
%TD*%
%TA.AperFunction,ComponentPad*%
%ADD11C,2.700000*%
%TD*%
%TA.AperFunction,ComponentPad*%
%ADD12R,1.700000X1.700000*%
%TD*%
%TA.AperFunction,ComponentPad*%
%ADD13O,1.700000X1.700000*%
%TD*%
%TA.AperFunction,ComponentPad*%
%ADD14R,1.350000X1.350000*%
%TD*%
%TA.AperFunction,ComponentPad*%
%ADD15O,1.350000X1.350000*%
%TD*%
%TA.AperFunction,ComponentPad*%
%ADD16RotRect,1.350000X1.350000X250.000000*%
%TD*%
%TA.AperFunction,ComponentPad*%
%ADD17HorizOval,1.350000X0.000000X0.000000X0.000000X0.000000X0*%
%TD*%
%TA.AperFunction,SMDPad,CuDef*%
%ADD18O,0.630000X1.865000*%
%TD*%
%TA.AperFunction,ViaPad*%
%ADD19C,0.600000*%
%TD*%
%TA.AperFunction,ViaPad*%
%ADD20C,0.800000*%
%TD*%
%TA.AperFunction,Conductor*%
%ADD21C,0.250000*%
%TD*%
%TA.AperFunction,Conductor*%
%ADD22C,0.525000*%
%TD*%
G04 APERTURE END LIST*
D10*
%TO.P,J2,1,Pin_1*%
%TO.N,GND*%
X293162292Y-154983815D03*
D11*
%TO.P,J2,2,Pin_2*%
%TO.N,VCC*%
X294386000Y-158750000D03*
%TD*%
D12*
%TO.P,J1,1,Pin_1*%
%TO.N,/out1*%
X312166000Y-130302000D03*
D13*
%TO.P,J1,2,Pin_2*%
%TO.N,/out2*%
X309626001Y-130302000D03*
%TO.P,J1,3,Pin_3*%
%TO.N,/out3*%
X307086001Y-130302000D03*
%TD*%
D14*
%TO.P,J4,1,Pin_1*%
%TO.N,GND*%
X331724000Y-150114000D03*
D15*
%TO.P,J4,2,Pin_2*%
%TO.N,+3.3V*%
X331724000Y-148113999D03*
%TO.P,J4,3,Pin_3*%
%TO.N,/sda*%
X331724000Y-146114000D03*
%TO.P,J4,4,Pin_4*%
%TO.N,/scl*%
X331724000Y-144114000D03*
%TD*%
D16*
%TO.P,J5,1,Pin_1*%
%TO.N,GND*%
X322376156Y-132608121D03*
D17*
%TO.P,J5,2,Pin_2*%
%TO.N,unconnected-(J5-Pin_2-Pad2)*%
X320496771Y-131924081D03*
%TO.P,J5,3,Pin_3*%
%TO.N,/esp_sda*%
X318617386Y-131240039D03*
%TO.P,J5,4,Pin_4*%
%TO.N,/esp_scl*%
X316738000Y-130556000D03*
%TD*%
D12*
%TO.P,J3,1,Pin_1*%
%TO.N,GND*%
X294640000Y-145796000D03*
D13*
%TO.P,J3,2,Pin_2*%
X292100000Y-145796000D03*
%TO.P,J3,3,Pin_3*%
%TO.N,+5V*%
X294640000Y-143256000D03*
%TO.P,J3,4,Pin_4*%
%TO.N,+3.3V*%
X292100000Y-143256000D03*
%TD*%
D18*
%TO.P,U2,1,VDD*%
%TO.N,+3.3V*%
X310035034Y-148624145D03*
%TO.P,U2,2,MODE*%
X311305034Y-148624145D03*
%TO.P,U2,3,OUT*%
%TO.N,/analog_out*%
X312575034Y-148624145D03*
%TO.P,U2,4,GND*%
%TO.N,GND*%
X313845034Y-148624145D03*
%TO.P,U2,5,PUSH*%
%TO.N,unconnected-(U2-PUSH-Pad5)*%
X313845034Y-153989145D03*
%TO.P,U2,6,A*%
%TO.N,/sda*%
X312575034Y-153989145D03*
%TO.P,U2,7,B*%
%TO.N,/scl*%
X311305034Y-153989145D03*
%TO.P,U2,8,Z*%
%TO.N,+3.3V*%
X310035034Y-153989145D03*
%TD*%
D19*
%TO.N,GND*%
X331724000Y-156464000D03*
X315976000Y-141986000D03*
X311912000Y-136906000D03*
X308864000Y-137922000D03*
X310896000Y-136906000D03*
X306832000Y-142748000D03*
X309880000Y-137922000D03*
X314706000Y-148336000D03*
X310896000Y-137922000D03*
X303910517Y-168089833D03*
X309880000Y-136906000D03*
X308864000Y-136906000D03*
X327152000Y-145542000D03*
X311912000Y-137922000D03*
%TO.N,+3.3V*%
X309372000Y-155448000D03*
X318707000Y-138684000D03*
X292862000Y-141478000D03*
X328422000Y-160020000D03*
X308864000Y-150114000D03*
D20*
%TO.N,VCC*%
X305054000Y-136652000D03*
X307594000Y-132842000D03*
D19*
X308610000Y-144272000D03*
D20*
X313182000Y-132842000D03*
D19*
%TO.N,Net-(U1-VCP)*%
X317500000Y-141732000D03*
X314452000Y-136144000D03*
%TO.N,+5V*%
X325936903Y-154686336D03*
X299466000Y-147320000D03*
X327152000Y-160274000D03*
X305054000Y-142685000D03*
%TO.N,/v3p3*%
X329783903Y-158496618D03*
X316484000Y-145796000D03*
%TO.N,Net-(JP2-A)*%
X303973727Y-170635947D03*
X317754000Y-155702000D03*
X301244000Y-156210000D03*
%TO.N,Net-(JP3-A)*%
X303910517Y-165549833D03*
X322580000Y-159512000D03*
%TO.N,/sda*%
X317453299Y-157155948D03*
X331978000Y-154686000D03*
%TO.N,/scl*%
X328242000Y-154686000D03*
X318008000Y-157988000D03*
%TO.N,/nSlp*%
X307722741Y-141842095D03*
X312166000Y-142635000D03*
%TO.N,/fault*%
X313732478Y-141744677D03*
X308560481Y-141785001D03*
%TO.N,/nRes*%
X306832000Y-141732000D03*
X310388000Y-142635000D03*
%TO.N,/esp_sda*%
X303910517Y-160469833D03*
X322072000Y-152400000D03*
X320084000Y-140716000D03*
X316528000Y-154978003D03*
%TO.N,/esp_scl*%
X321564000Y-151638000D03*
X316528000Y-154178000D03*
X303910517Y-157929833D03*
X319532000Y-139446000D03*
%TO.N,/en*%
X320075517Y-170629833D03*
X319532000Y-134620000D03*
X322834000Y-153416000D03*
X317921647Y-154010353D03*
%TO.N,/in1*%
X315377500Y-140970000D03*
X317111881Y-150074001D03*
X314706000Y-146050000D03*
X317246000Y-151892000D03*
%TO.N,/in2*%
X312928000Y-145542000D03*
X312928000Y-141732000D03*
X325374000Y-160274000D03*
X316239323Y-150074000D03*
%TO.N,/in3*%
X324358000Y-160274000D03*
X311404000Y-141732000D03*
X311150000Y-145796000D03*
X312928000Y-147066000D03*
%TO.N,Net-(VR1-ADJUSTMENT)*%
X305054000Y-144335000D03*
X300966000Y-147352000D03*
%TD*%
D21*
%TO.N,GND*%
X313845034Y-148624145D02*
X314417855Y-148624145D01*
X314417855Y-148624145D02*
X314706000Y-148336000D01*
%TO.N,+3.3V*%
X310035034Y-148624145D02*
X311305034Y-148624145D01*
X292100000Y-143256000D02*
X292100000Y-142240000D01*
X292100000Y-142240000D02*
X292862000Y-141478000D01*
X310035034Y-153989145D02*
X310035034Y-154784966D01*
X308864000Y-150114000D02*
X310035034Y-148942966D01*
X310035034Y-154784966D02*
X309372000Y-155448000D01*
X310035034Y-148942966D02*
X310035034Y-148624145D01*
%TO.N,VCC*%
X308610000Y-144272000D02*
X307575354Y-144272000D01*
D22*
X307594000Y-132842000D02*
X307848000Y-133096000D01*
X306578000Y-132842000D02*
X305054000Y-134366000D01*
X307848000Y-133096000D02*
X312928000Y-133096000D01*
D21*
X307575354Y-144272000D02*
X305054000Y-141750646D01*
D22*
X312928000Y-133096000D02*
X313182000Y-132842000D01*
D21*
X305054000Y-141750646D02*
X305054000Y-136652000D01*
D22*
X305054000Y-134366000D02*
X305054000Y-136652000D01*
X307594000Y-132842000D02*
X306578000Y-132842000D01*
D21*
%TO.N,Net-(U1-VCP)*%
X314452000Y-138684000D02*
X314452000Y-136144000D01*
X317500000Y-141732000D02*
X314452000Y-138684000D01*
%TO.N,+5V*%
X322790531Y-154686336D02*
X320635000Y-152530805D01*
X299466000Y-147320000D02*
X298704000Y-147320000D01*
X313576646Y-146514000D02*
X312699354Y-146514000D01*
X325936903Y-154686336D02*
X322790531Y-154686336D01*
X313751646Y-146689000D02*
X313576646Y-146514000D01*
X325936903Y-158315549D02*
X325936903Y-154686336D01*
X311893354Y-147320000D02*
X309689000Y-147320000D01*
X320635000Y-152530805D02*
X320635000Y-152283316D01*
X315040684Y-146689000D02*
X313751646Y-146689000D01*
X298704000Y-147320000D02*
X294640000Y-143256000D01*
X312699354Y-146514000D02*
X311893354Y-147320000D01*
X309689000Y-147320000D02*
X305054000Y-142685000D01*
X320635000Y-152283316D02*
X315040684Y-146689000D01*
X327152000Y-160274000D02*
X327152000Y-159530646D01*
X304101000Y-142685000D02*
X305054000Y-142685000D01*
X327152000Y-159530646D02*
X325936903Y-158315549D01*
X299466000Y-147320000D02*
X304101000Y-142685000D01*
%TO.N,/v3p3*%
X329783903Y-158496618D02*
X328930618Y-158496618D01*
X326165549Y-154134336D02*
X322771690Y-154134336D01*
X316484000Y-147599158D02*
X316484000Y-145796000D01*
X326644000Y-156210000D02*
X326644000Y-154612787D01*
X322771690Y-154134336D02*
X321012000Y-152374646D01*
X321012000Y-152374646D02*
X321012000Y-152127158D01*
X328930618Y-158496618D02*
X326644000Y-156210000D01*
X326644000Y-154612787D02*
X326165549Y-154134336D01*
X321012000Y-152127158D02*
X316484000Y-147599158D01*
%TO.N,Net-(JP2-A)*%
X317754000Y-155702000D02*
X317754000Y-154623354D01*
X314006646Y-150876000D02*
X305054000Y-150876000D01*
X305054000Y-150876000D02*
X301244000Y-154686000D01*
X317754000Y-154623354D02*
X314006646Y-150876000D01*
X301244000Y-154686000D02*
X301244000Y-156210000D01*
X303973727Y-170635947D02*
X302768000Y-169430220D01*
X302768000Y-157734000D02*
X301244000Y-156210000D01*
X302768000Y-169430220D02*
X302768000Y-157734000D01*
%TO.N,Net-(JP3-A)*%
X322580000Y-159512000D02*
X316542167Y-165549833D01*
X316542167Y-165549833D02*
X303910517Y-165549833D01*
%TO.N,/sda*%
X312575034Y-154606645D02*
X315124337Y-157155948D01*
X312575034Y-153989145D02*
X312575034Y-154606645D01*
X331724000Y-146114000D02*
X330724000Y-147114000D01*
X330724000Y-153432000D02*
X331978000Y-154686000D01*
X315124337Y-157155948D02*
X317453299Y-157155948D01*
X330724000Y-147114000D02*
X330724000Y-153432000D01*
%TO.N,/scl*%
X328242000Y-147596000D02*
X328242000Y-154686000D01*
X314686389Y-157988000D02*
X318008000Y-157988000D01*
X311305034Y-154606645D02*
X314686389Y-157988000D01*
X331724000Y-144114000D02*
X328242000Y-147596000D01*
X311305034Y-153989145D02*
X311305034Y-154606645D01*
%TO.N,/nSlp*%
X307722741Y-141095259D02*
X308102000Y-140716000D01*
X311912000Y-140716000D02*
X312166000Y-140970000D01*
X312166000Y-140970000D02*
X312166000Y-142635000D01*
X307722741Y-141842095D02*
X307722741Y-141095259D01*
X308102000Y-140716000D02*
X311912000Y-140716000D01*
%TO.N,/fault*%
X310598000Y-146024646D02*
X310598000Y-145567354D01*
X311150000Y-145015354D02*
X311150000Y-142616354D01*
X311632646Y-146094000D02*
X311378646Y-146348000D01*
X313732478Y-145518168D02*
X313156646Y-146094000D01*
X310318647Y-141785001D02*
X308560481Y-141785001D01*
X313732478Y-141744677D02*
X313732478Y-145518168D01*
X311378646Y-146348000D02*
X310921354Y-146348000D01*
X310921354Y-146348000D02*
X310598000Y-146024646D01*
X311150000Y-142616354D02*
X310318647Y-141785001D01*
X310598000Y-145567354D02*
X311150000Y-145015354D01*
X313156646Y-146094000D02*
X311632646Y-146094000D01*
%TO.N,/nRes*%
X306832000Y-141732000D02*
X307848000Y-142748000D01*
X310275000Y-142748000D02*
X310388000Y-142635000D01*
X307848000Y-142748000D02*
X310275000Y-142748000D01*
%TO.N,/esp_sda*%
X310134000Y-152400000D02*
X304462517Y-158071483D01*
X320084000Y-140716000D02*
X320084000Y-141434000D01*
X313949997Y-152400000D02*
X310134000Y-152400000D01*
X316528000Y-154978003D02*
X313949997Y-152400000D01*
X322116000Y-152356000D02*
X322072000Y-152400000D01*
X304462517Y-158071483D02*
X304462517Y-159917833D01*
X322116000Y-143466000D02*
X322116000Y-152356000D01*
X304462517Y-159917833D02*
X303910517Y-160469833D01*
X320084000Y-141434000D02*
X322116000Y-143466000D01*
%TO.N,/esp_scl*%
X303910517Y-157353483D02*
X303910517Y-157929833D01*
X319532000Y-139446000D02*
X319532000Y-149606000D01*
X319532000Y-149606000D02*
X321564000Y-151638000D01*
X309880000Y-151384000D02*
X303910517Y-157353483D01*
X316528000Y-154178000D02*
X313734000Y-151384000D01*
X313734000Y-151384000D02*
X309880000Y-151384000D01*
%TO.N,/en*%
X322624000Y-152628646D02*
X322624000Y-143440842D01*
X320250000Y-158960000D02*
X322808646Y-158960000D01*
X318516000Y-157226000D02*
X320250000Y-158960000D01*
X320075517Y-162797129D02*
X320075517Y-170629833D01*
X322834000Y-153416000D02*
X322335323Y-152917323D01*
X318516000Y-154604706D02*
X318516000Y-157226000D01*
X323132000Y-159740646D02*
X320075517Y-162797129D01*
X322624000Y-143440842D02*
X320802000Y-141618842D01*
X322335323Y-152917323D02*
X322624000Y-152628646D01*
X323132000Y-159283354D02*
X323132000Y-159740646D01*
X322808646Y-158960000D02*
X323132000Y-159283354D01*
X320802000Y-141618842D02*
X320802000Y-135890000D01*
X317921647Y-154010353D02*
X318516000Y-154604706D01*
X320802000Y-135890000D02*
X319532000Y-134620000D01*
%TO.N,/in1*%
X315377500Y-145378500D02*
X315377500Y-140970000D01*
X317246000Y-151892000D02*
X317246000Y-150208120D01*
X317246000Y-150208120D02*
X317111881Y-150074001D01*
X314706000Y-146050000D02*
X315377500Y-145378500D01*
%TO.N,/in2*%
X325374000Y-160274000D02*
X325374000Y-157802963D01*
X320258000Y-152439474D02*
X317340527Y-149522001D01*
X312928000Y-145542000D02*
X312928000Y-141732000D01*
X325374000Y-157802963D02*
X320258000Y-152686963D01*
X316791322Y-149522001D02*
X316239323Y-150074000D01*
X320258000Y-152686963D02*
X320258000Y-152439474D01*
X317340527Y-149522001D02*
X316791322Y-149522001D01*
%TO.N,/in3*%
X312928000Y-147066000D02*
X314216646Y-147066000D01*
X311614000Y-142406354D02*
X311658000Y-142362354D01*
X311658000Y-142907646D02*
X311614000Y-142863646D01*
X315687323Y-148536677D02*
X315687323Y-151113969D01*
X314216646Y-147066000D02*
X315687323Y-148536677D01*
X324358000Y-157372538D02*
X324358000Y-160274000D01*
X317607187Y-153033833D02*
X320019295Y-153033833D01*
X311614000Y-142863646D02*
X311614000Y-142406354D01*
X315687323Y-151113969D02*
X317607187Y-153033833D01*
X311150000Y-145796000D02*
X311658000Y-145288000D01*
X320019295Y-153033833D02*
X324358000Y-157372538D01*
X311658000Y-141986000D02*
X311404000Y-141732000D01*
X311658000Y-145288000D02*
X311658000Y-142907646D01*
X311658000Y-142362354D02*
X311658000Y-141986000D01*
%TO.N,Net-(VR1-ADJUSTMENT)*%
X303983000Y-144335000D02*
X300966000Y-147352000D01*
X305054000Y-144335000D02*
X303983000Y-144335000D01*
%TD*%
M02*
