%TF.GenerationSoftware,KiCad,Pcbnew,8.0.4*%
%TF.CreationDate,2025-06-19T10:42:22-04:00*%
%TF.ProjectId,foc_pcb,666f635f-7063-4622-9e6b-696361645f70,2.0*%
%TF.SameCoordinates,Original*%
%TF.FileFunction,Legend,Bot*%
%TF.FilePolarity,Positive*%
%FSLAX46Y46*%
G04 Gerber Fmt 4.6, Leading zero omitted, Abs format (unit mm)*
G04 Created by KiCad (PCBNEW 8.0.4) date 2025-06-19 10:42:22*
%MOMM*%
%LPD*%
G01*
G04 APERTURE LIST*
G04 Aperture macros list*
%AMRoundRect*
0 Rectangle with rounded corners*
0 $1 Rounding radius*
0 $2 $3 $4 $5 $6 $7 $8 $9 X,Y pos of 4 corners*
0 Add a 4 corners polygon primitive as box body*
4,1,4,$2,$3,$4,$5,$6,$7,$8,$9,$2,$3,0*
0 Add four circle primitives for the rounded corners*
1,1,$1+$1,$2,$3*
1,1,$1+$1,$4,$5*
1,1,$1+$1,$6,$7*
1,1,$1+$1,$8,$9*
0 Add four rect primitives between the rounded corners*
20,1,$1+$1,$2,$3,$4,$5,0*
20,1,$1+$1,$4,$5,$6,$7,0*
20,1,$1+$1,$6,$7,$8,$9,0*
20,1,$1+$1,$8,$9,$2,$3,0*%
%AMHorizOval*
0 Thick line with rounded ends*
0 $1 width*
0 $2 $3 position (X,Y) of the first rounded end (center of the circle)*
0 $4 $5 position (X,Y) of the second rounded end (center of the circle)*
0 Add line between two ends*
20,1,$1,$2,$3,$4,$5,0*
0 Add two circle primitives to create the rounded ends*
1,1,$1,$2,$3*
1,1,$1,$4,$5*%
%AMRotRect*
0 Rectangle, with rotation*
0 The origin of the aperture is its center*
0 $1 length*
0 $2 width*
0 $3 Rotation angle, in degrees counterclockwise*
0 Add horizontal line*
21,1,$1,$2,0,0,$3*%
G04 Aperture macros list end*
%ADD10C,0.300000*%
%ADD11C,0.150000*%
%ADD12C,0.254000*%
%ADD13RoundRect,0.250001X-1.386080X0.706243X-0.706243X-1.386080X1.386080X-0.706243X0.706243X1.386080X0*%
%ADD14C,2.700000*%
%ADD15R,1.700000X1.700000*%
%ADD16O,1.700000X1.700000*%
%ADD17R,1.350000X1.350000*%
%ADD18O,1.350000X1.350000*%
%ADD19RotRect,1.350000X1.350000X250.000000*%
%ADD20HorizOval,1.350000X0.000000X0.000000X0.000000X0.000000X0*%
%ADD21C,3.200000*%
%ADD22O,0.630000X1.865000*%
G04 APERTURE END LIST*
D10*
G36*
X324695415Y-159090619D02*
G01*
X324738813Y-158940384D01*
X324888965Y-158864316D01*
X325025240Y-158854583D01*
X325189097Y-158870602D01*
X325318926Y-158961303D01*
X325346468Y-159090619D01*
X325346468Y-159887828D01*
X325410091Y-160042712D01*
X325560828Y-160138318D01*
X325738515Y-160186781D01*
X325932223Y-160208460D01*
X326069427Y-160212182D01*
X327391074Y-160212182D01*
X327570667Y-160205618D01*
X327756559Y-160180304D01*
X327925872Y-160128140D01*
X328066541Y-160028722D01*
X328118722Y-159887828D01*
X328118722Y-158306697D01*
X328054012Y-158149735D01*
X327901581Y-158054693D01*
X327722719Y-158007085D01*
X327528394Y-157985953D01*
X327391074Y-157982343D01*
X326777536Y-157982343D01*
X326629292Y-157927141D01*
X326579446Y-157774101D01*
X326577452Y-157715043D01*
X326598308Y-157557653D01*
X326722713Y-157452434D01*
X326777536Y-157447744D01*
X327409050Y-157447744D01*
X327570801Y-157451079D01*
X327794529Y-157468602D01*
X327995429Y-157501172D01*
X328173330Y-157548817D01*
X328328062Y-157611564D01*
X328498038Y-157718765D01*
X328626121Y-157852926D01*
X328711907Y-158014110D01*
X328754993Y-158202383D01*
X328760397Y-158306697D01*
X328760397Y-159887828D01*
X328738812Y-160088289D01*
X328674326Y-160262289D01*
X328567342Y-160409746D01*
X328418262Y-160530577D01*
X328279070Y-160603678D01*
X328116595Y-160661721D01*
X327931009Y-160704672D01*
X327722481Y-160732494D01*
X327491181Y-160745155D01*
X327409050Y-160746000D01*
X326051451Y-160746000D01*
X325892739Y-160742776D01*
X325671924Y-160725773D01*
X325472254Y-160694012D01*
X325294221Y-160647322D01*
X325138322Y-160585527D01*
X324965740Y-160479337D01*
X324834557Y-160345574D01*
X324745946Y-160183826D01*
X324701078Y-159993679D01*
X324695415Y-159887828D01*
X324695415Y-159090619D01*
G37*
G36*
X323755177Y-158413773D02*
G01*
X323801504Y-158257249D01*
X323949272Y-158186416D01*
X324067027Y-158178519D01*
X324224157Y-158195458D01*
X324353450Y-158298210D01*
X324374187Y-158413773D01*
X324374187Y-160528721D01*
X324328107Y-160685246D01*
X324182328Y-160756079D01*
X324067027Y-160763976D01*
X323906731Y-160747036D01*
X323775987Y-160644285D01*
X323755177Y-160528721D01*
X323755177Y-158413773D01*
G37*
G36*
X324446092Y-157733020D02*
G01*
X324410595Y-157893565D01*
X324286197Y-158000294D01*
X324114174Y-158034334D01*
X324067027Y-158035490D01*
X323897998Y-158016915D01*
X323758077Y-157940760D01*
X323691113Y-157787616D01*
X323687962Y-157733020D01*
X323723616Y-157572129D01*
X323848203Y-157465563D01*
X324020008Y-157431697D01*
X324067027Y-157430549D01*
X324235725Y-157449014D01*
X324375724Y-157524955D01*
X324442922Y-157678243D01*
X324446092Y-157733020D01*
G37*
G36*
X318791381Y-160763976D02*
G01*
X318634251Y-160747036D01*
X318504958Y-160644285D01*
X318484221Y-160528721D01*
X318484221Y-158969475D01*
X318504695Y-158780307D01*
X318564919Y-158616629D01*
X318663099Y-158478359D01*
X318797438Y-158365413D01*
X318966143Y-158277710D01*
X319167418Y-158215167D01*
X319338667Y-158184722D01*
X319526471Y-158168348D01*
X319660495Y-158165232D01*
X320104431Y-158165232D01*
X320275533Y-158170888D01*
X320432999Y-158187581D01*
X320602979Y-158221603D01*
X320773595Y-158279686D01*
X320912565Y-158356500D01*
X320946189Y-158381729D01*
X321095239Y-158289539D01*
X321261207Y-158228711D01*
X321427570Y-158192208D01*
X321614257Y-158170888D01*
X321784040Y-158165232D01*
X322227976Y-158165232D01*
X322426213Y-158172244D01*
X322608473Y-158193305D01*
X322773986Y-158228449D01*
X322967292Y-158297274D01*
X323127635Y-158391280D01*
X323253195Y-158510549D01*
X323342148Y-158655164D01*
X323392672Y-158825206D01*
X323404249Y-158969475D01*
X323404249Y-160528721D01*
X323358170Y-160685246D01*
X323212391Y-160756079D01*
X323097090Y-160763976D01*
X322936794Y-160747036D01*
X322806050Y-160644285D01*
X322785240Y-160528721D01*
X322785240Y-158969475D01*
X322720786Y-158810671D01*
X322578132Y-158726154D01*
X322407442Y-158685495D01*
X322218134Y-158669285D01*
X322129497Y-158667786D01*
X321878611Y-158667786D01*
X321711720Y-158673665D01*
X321545472Y-158696494D01*
X321383091Y-158753857D01*
X321269258Y-158877493D01*
X321253349Y-158969475D01*
X321253349Y-160528721D01*
X321211185Y-160680094D01*
X321067439Y-160754764D01*
X320946189Y-160763976D01*
X320786586Y-160747036D01*
X320655369Y-160644285D01*
X320634340Y-160528721D01*
X320634340Y-158969475D01*
X320577155Y-158810324D01*
X320444857Y-158725925D01*
X320281780Y-158685407D01*
X320097244Y-158669276D01*
X320009860Y-158667786D01*
X319758974Y-158667786D01*
X319589202Y-158673697D01*
X319417573Y-158696627D01*
X319266068Y-158744293D01*
X319136338Y-158849796D01*
X319103230Y-158969475D01*
X319103230Y-160528721D01*
X319056492Y-160685246D01*
X318908510Y-160756079D01*
X318791381Y-160763976D01*
G37*
G36*
X317998895Y-157447489D02*
G01*
X318128189Y-157550241D01*
X318148925Y-157665804D01*
X318148925Y-159941757D01*
X318128192Y-160129578D01*
X318066297Y-160292624D01*
X317963700Y-160430812D01*
X317820858Y-160544060D01*
X317638228Y-160632285D01*
X317475421Y-160681983D01*
X317290685Y-160717524D01*
X317084212Y-160738875D01*
X316856196Y-160746000D01*
X315803412Y-160746000D01*
X315575196Y-160738875D01*
X315368561Y-160717524D01*
X315183696Y-160681983D01*
X315020789Y-160632285D01*
X314838066Y-160544060D01*
X314695168Y-160430812D01*
X314592541Y-160292624D01*
X314530636Y-160129578D01*
X314509902Y-159941757D01*
X314509902Y-158969475D01*
X315128911Y-158969475D01*
X315128911Y-159941757D01*
X315203221Y-160097997D01*
X315359156Y-160183738D01*
X315538626Y-160225721D01*
X315732210Y-160242650D01*
X315821388Y-160244227D01*
X316838220Y-160244227D01*
X317009761Y-160238026D01*
X317186893Y-160214169D01*
X317347729Y-160165176D01*
X317480800Y-160072299D01*
X317529916Y-159941757D01*
X317529916Y-158667786D01*
X315821388Y-158667786D01*
X315649814Y-158673761D01*
X315472564Y-158696893D01*
X315311525Y-158744841D01*
X315178177Y-158837039D01*
X315128911Y-158969475D01*
X314509902Y-158969475D01*
X314530636Y-158780307D01*
X314592541Y-158616629D01*
X314695168Y-158478359D01*
X314838066Y-158365413D01*
X315020789Y-158277710D01*
X315183696Y-158228449D01*
X315368561Y-158193305D01*
X315575196Y-158172244D01*
X315803412Y-158165232D01*
X317529916Y-158165232D01*
X317529916Y-157665804D01*
X317576243Y-157509280D01*
X317724010Y-157438447D01*
X317841765Y-157430549D01*
X317998895Y-157447489D01*
G37*
G36*
X312320060Y-158224979D02*
G01*
X312363363Y-158375916D01*
X312364473Y-158418463D01*
X312340198Y-158573957D01*
X312200897Y-158666660D01*
X312173768Y-158667786D01*
X311752498Y-158667786D01*
X311580508Y-158672286D01*
X311403143Y-158690066D01*
X311242368Y-158728000D01*
X311099197Y-158815504D01*
X311060881Y-158920018D01*
X312953782Y-158899914D01*
X313181798Y-158906946D01*
X313388270Y-158928055D01*
X313573007Y-158963265D01*
X313735814Y-159012599D01*
X313918443Y-159100389D01*
X314061286Y-159213385D01*
X314163883Y-159351642D01*
X314225777Y-159515214D01*
X314246510Y-159704157D01*
X314246510Y-159941757D01*
X314225777Y-160129578D01*
X314163883Y-160292624D01*
X314061286Y-160430812D01*
X313918443Y-160544060D01*
X313735814Y-160632285D01*
X313573007Y-160681983D01*
X313388270Y-160717524D01*
X313181798Y-160738875D01*
X312953782Y-160746000D01*
X311735303Y-160746000D01*
X311507087Y-160738875D01*
X311300452Y-160717524D01*
X311115587Y-160681983D01*
X310952680Y-160632285D01*
X310769958Y-160544060D01*
X310627059Y-160430812D01*
X310524433Y-160292624D01*
X310462528Y-160129578D01*
X310441793Y-159941757D01*
X311060802Y-159941757D01*
X311134899Y-160097997D01*
X311290548Y-160183738D01*
X311469831Y-160225721D01*
X311663328Y-160242650D01*
X311752498Y-160244227D01*
X312935806Y-160244227D01*
X313107346Y-160238026D01*
X313284479Y-160214169D01*
X313445314Y-160165176D01*
X313578386Y-160072299D01*
X313627501Y-159941757D01*
X313627501Y-159686181D01*
X313566565Y-159540710D01*
X313422277Y-159452167D01*
X313252271Y-159407671D01*
X313067002Y-159387878D01*
X312935806Y-159384492D01*
X311060802Y-159384492D01*
X311060802Y-159941757D01*
X310441793Y-159941757D01*
X310441793Y-158969475D01*
X310462528Y-158780307D01*
X310524433Y-158616629D01*
X310627059Y-158478359D01*
X310769958Y-158365413D01*
X310952680Y-158277710D01*
X311115587Y-158228449D01*
X311300452Y-158193305D01*
X311507087Y-158172244D01*
X311735303Y-158165232D01*
X312173768Y-158165232D01*
X312320060Y-158224979D01*
G37*
G36*
X309492958Y-157665804D02*
G01*
X309539285Y-157509280D01*
X309687053Y-157438447D01*
X309804808Y-157430549D01*
X309961938Y-157447489D01*
X310091231Y-157550241D01*
X310111967Y-157665804D01*
X310111967Y-160528721D01*
X310065888Y-160685246D01*
X309920109Y-160756079D01*
X309804808Y-160763976D01*
X309644512Y-160747036D01*
X309513768Y-160644285D01*
X309492958Y-160528721D01*
X309492958Y-157665804D01*
G37*
G36*
X307790683Y-157447744D02*
G01*
X307952434Y-157451079D01*
X308176162Y-157468602D01*
X308377062Y-157501172D01*
X308554963Y-157548817D01*
X308709695Y-157611564D01*
X308879671Y-157718765D01*
X309007754Y-157852926D01*
X309093540Y-158014110D01*
X309136626Y-158202383D01*
X309142030Y-158306697D01*
X309142030Y-160528721D01*
X309092571Y-160685589D01*
X308939767Y-160756166D01*
X308821584Y-160763976D01*
X308656474Y-160747194D01*
X308524610Y-160655843D01*
X308496448Y-160528721D01*
X308496448Y-159389182D01*
X305617899Y-159389182D01*
X305469979Y-159333980D01*
X305419841Y-159180940D01*
X305417815Y-159121882D01*
X305438877Y-158964492D01*
X305563300Y-158859272D01*
X305617899Y-158854583D01*
X308496448Y-158854583D01*
X308496448Y-158306697D01*
X308432644Y-158149735D01*
X308281625Y-158054693D01*
X308103742Y-158007085D01*
X307909931Y-157985953D01*
X307772707Y-157982343D01*
X307302198Y-157982343D01*
X307150102Y-157918957D01*
X307108548Y-157759744D01*
X307107585Y-157715043D01*
X307126709Y-157557997D01*
X307247609Y-157452466D01*
X307302198Y-157447744D01*
X307790683Y-157447744D01*
G37*
G36*
X304057835Y-157451079D02*
G01*
X304281563Y-157468602D01*
X304482463Y-157501172D01*
X304660364Y-157548817D01*
X304815096Y-157611564D01*
X304985073Y-157718765D01*
X305113155Y-157852926D01*
X305198941Y-158014110D01*
X305242027Y-158202383D01*
X305247431Y-158306697D01*
X305247431Y-159887828D01*
X305225846Y-160088289D01*
X305161360Y-160262289D01*
X305054376Y-160409746D01*
X304905296Y-160530577D01*
X304766104Y-160603678D01*
X304603629Y-160661721D01*
X304418043Y-160704672D01*
X304209515Y-160732494D01*
X303978216Y-160745155D01*
X303896085Y-160746000D01*
X302592414Y-160746000D01*
X302430535Y-160742622D01*
X302206675Y-160724903D01*
X302005706Y-160692034D01*
X301827788Y-160644049D01*
X301673078Y-160580983D01*
X301503174Y-160473495D01*
X301375186Y-160339340D01*
X301289491Y-160178601D01*
X301246463Y-159991361D01*
X301241067Y-159887828D01*
X301241067Y-158306697D01*
X301882742Y-158306697D01*
X301882742Y-159887828D01*
X301947452Y-160042712D01*
X302099883Y-160138318D01*
X302278745Y-160186781D01*
X302473070Y-160208460D01*
X302610390Y-160212182D01*
X303878108Y-160212182D01*
X304057702Y-160205618D01*
X304243593Y-160180304D01*
X304412906Y-160128140D01*
X304553575Y-160028722D01*
X304605757Y-159887828D01*
X304605757Y-158306697D01*
X304541047Y-158149735D01*
X304388615Y-158054693D01*
X304209754Y-158007085D01*
X304015429Y-157985953D01*
X303878108Y-157982343D01*
X302610390Y-157982343D01*
X302430797Y-157988715D01*
X302244906Y-158013421D01*
X302075593Y-158064743D01*
X301934923Y-158163759D01*
X301882742Y-158306697D01*
X301241067Y-158306697D01*
X301262620Y-158104857D01*
X301327028Y-157930136D01*
X301433917Y-157782471D01*
X301582909Y-157661799D01*
X301722059Y-157588969D01*
X301884523Y-157531259D01*
X302070142Y-157488642D01*
X302278759Y-157461090D01*
X302510214Y-157448578D01*
X302592414Y-157447744D01*
X303896085Y-157447744D01*
X304057835Y-157451079D01*
G37*
G36*
X297400397Y-160746000D02*
G01*
X297254060Y-160689601D01*
X297206795Y-160537160D01*
X297205003Y-160479482D01*
X297224375Y-160322435D01*
X297345775Y-160216904D01*
X297400397Y-160212182D01*
X299582561Y-160212182D01*
X299762154Y-160205618D01*
X299948045Y-160180304D01*
X300117358Y-160128140D01*
X300258027Y-160028722D01*
X300310209Y-159887828D01*
X300310209Y-158306697D01*
X300245499Y-158149735D01*
X300093068Y-158054693D01*
X299914206Y-158007085D01*
X299719881Y-157985953D01*
X299582561Y-157982343D01*
X297405087Y-157982343D01*
X297257167Y-157927141D01*
X297207029Y-157774101D01*
X297205003Y-157715043D01*
X297226064Y-157557653D01*
X297350488Y-157452434D01*
X297405087Y-157447744D01*
X299600537Y-157447744D01*
X299762287Y-157451079D01*
X299986015Y-157468602D01*
X300186915Y-157501172D01*
X300364816Y-157548817D01*
X300519549Y-157611564D01*
X300689525Y-157718765D01*
X300817607Y-157852926D01*
X300903393Y-158014110D01*
X300946479Y-158202383D01*
X300951884Y-158306697D01*
X300951884Y-159887828D01*
X300930299Y-160088289D01*
X300865812Y-160262289D01*
X300758828Y-160409746D01*
X300609748Y-160530577D01*
X300470556Y-160603678D01*
X300308082Y-160661721D01*
X300122496Y-160704672D01*
X299913968Y-160732494D01*
X299682668Y-160745155D01*
X299600537Y-160746000D01*
X297400397Y-160746000D01*
G37*
G36*
X320408488Y-169976000D02*
G01*
X320203617Y-169976000D01*
X319976764Y-169582085D01*
X319439235Y-169582085D01*
X319210623Y-169976000D01*
X319003994Y-169976000D01*
X319330201Y-169413850D01*
X319535076Y-169413850D01*
X319880923Y-169413850D01*
X319706241Y-169116655D01*
X319535076Y-169413850D01*
X319330201Y-169413850D01*
X319706241Y-168765825D01*
X320408488Y-169976000D01*
G37*
G36*
X318668697Y-169976000D02*
G01*
X317983157Y-168775497D01*
X318183338Y-168775497D01*
X318729074Y-169735958D01*
X319288586Y-168775497D01*
X319495215Y-168775497D01*
X318792968Y-169976000D01*
X318668697Y-169976000D01*
G37*
G36*
X318383812Y-169976000D02*
G01*
X318178942Y-169976000D01*
X317952089Y-169582085D01*
X317414559Y-169582085D01*
X317185948Y-169976000D01*
X316979318Y-169976000D01*
X317305525Y-169413850D01*
X317510400Y-169413850D01*
X317856248Y-169413850D01*
X317681565Y-169116655D01*
X317510400Y-169413850D01*
X317305525Y-169413850D01*
X317681565Y-168765825D01*
X318383812Y-169976000D01*
G37*
G36*
X316521803Y-169058623D02*
G01*
X315621426Y-169976000D01*
X315480156Y-169976000D01*
X315480156Y-168775497D01*
X315661579Y-168775497D01*
X315661579Y-169691408D01*
X316563715Y-168775497D01*
X316701468Y-168775497D01*
X316701468Y-169976000D01*
X316523561Y-169976000D01*
X316521803Y-169058623D01*
G37*
G36*
X315202012Y-169976000D02*
G01*
X315022347Y-169976000D01*
X315022347Y-168775497D01*
X315202012Y-168775497D01*
X315202012Y-169976000D01*
G37*
G36*
X314566297Y-169058623D02*
G01*
X313665920Y-169976000D01*
X313524650Y-169976000D01*
X313524650Y-168775497D01*
X313706073Y-168775497D01*
X313706073Y-169691408D01*
X314608209Y-168775497D01*
X314745962Y-168775497D01*
X314745962Y-169976000D01*
X314568055Y-169976000D01*
X314566297Y-169058623D01*
G37*
G36*
X313246506Y-169976000D02*
G01*
X312675271Y-169976000D01*
X312610237Y-169974596D01*
X312548676Y-169970384D01*
X312471996Y-169960400D01*
X312401489Y-169945425D01*
X312337156Y-169925458D01*
X312278995Y-169900500D01*
X312227008Y-169870550D01*
X312170705Y-169826092D01*
X312160602Y-169816265D01*
X312114838Y-169763336D01*
X312076831Y-169704569D01*
X312046580Y-169639963D01*
X312027964Y-169584074D01*
X312014313Y-169524449D01*
X312005625Y-169461086D01*
X312001902Y-169393986D01*
X312001747Y-169376628D01*
X312001772Y-169375748D01*
X312183170Y-169375748D01*
X312185138Y-169435898D01*
X312192695Y-169501239D01*
X312205918Y-169559120D01*
X312228508Y-169617219D01*
X312263771Y-169671184D01*
X312311547Y-169717600D01*
X312361719Y-169748945D01*
X312421307Y-169773620D01*
X312490313Y-169791626D01*
X312552297Y-169801229D01*
X312620308Y-169806565D01*
X312675271Y-169807765D01*
X313066841Y-169807765D01*
X313066841Y-168943732D01*
X312675271Y-168943732D01*
X312603061Y-168945866D01*
X312536785Y-168952268D01*
X312476445Y-168962938D01*
X312409366Y-168982278D01*
X312351561Y-169008287D01*
X312294435Y-169048301D01*
X312263771Y-169080312D01*
X312228508Y-169135487D01*
X312205918Y-169193982D01*
X312192695Y-169251712D01*
X312185138Y-169316449D01*
X312183170Y-169375748D01*
X312001772Y-169375748D01*
X312003533Y-169314822D01*
X312010789Y-169242614D01*
X312023626Y-169176016D01*
X312042044Y-169115027D01*
X312066044Y-169059649D01*
X312102211Y-169000600D01*
X312116053Y-168982713D01*
X312157083Y-168937673D01*
X312203752Y-168898467D01*
X312256059Y-168865096D01*
X312314004Y-168837559D01*
X312349646Y-168824443D01*
X312415117Y-168805371D01*
X312473801Y-168792753D01*
X312534856Y-168783575D01*
X312598280Y-168777839D01*
X312664075Y-168775545D01*
X312675271Y-168775497D01*
X313246506Y-168775497D01*
X313246506Y-169976000D01*
G37*
G36*
X311543938Y-168943732D02*
G01*
X310581133Y-168943732D01*
X310581133Y-168775497D01*
X311723603Y-168775497D01*
X311723603Y-169976000D01*
X310584650Y-169976000D01*
X310584650Y-169807765D01*
X311543938Y-169807765D01*
X311543938Y-169432022D01*
X310811503Y-169432022D01*
X310811503Y-169263787D01*
X311543938Y-169263787D01*
X311543938Y-168943732D01*
G37*
G36*
X310303868Y-169976000D02*
G01*
X310122445Y-169976000D01*
X310124203Y-169487709D01*
X309742891Y-169487709D01*
X309279221Y-169976000D01*
X309035662Y-169976000D01*
X309502556Y-169487709D01*
X309442003Y-169485734D01*
X309375838Y-169478151D01*
X309316762Y-169464879D01*
X309256799Y-169442207D01*
X309206486Y-169411793D01*
X309200086Y-169406816D01*
X309155976Y-169361167D01*
X309124468Y-169305406D01*
X309107238Y-169248321D01*
X309099656Y-169183494D01*
X309099263Y-169163550D01*
X309099263Y-169113431D01*
X309099594Y-169108449D01*
X309280686Y-169108449D01*
X309280686Y-169151240D01*
X309288285Y-169211106D01*
X309315271Y-169260270D01*
X309365292Y-169295031D01*
X309410233Y-169308337D01*
X309470187Y-169315951D01*
X309532918Y-169319083D01*
X309568209Y-169319475D01*
X310124203Y-169319475D01*
X310124203Y-168943732D01*
X309591656Y-168943732D01*
X309528779Y-168944647D01*
X309469664Y-168947771D01*
X309421077Y-168953110D01*
X309364144Y-168969157D01*
X309319374Y-168998540D01*
X309288091Y-169051059D01*
X309280686Y-169108449D01*
X309099594Y-169108449D01*
X309103724Y-169046380D01*
X309117109Y-168987448D01*
X309144003Y-168928956D01*
X309183042Y-168881516D01*
X309226171Y-168849649D01*
X309287444Y-168820756D01*
X309349117Y-168801639D01*
X309406965Y-168789690D01*
X309470681Y-168781363D01*
X309540264Y-168776656D01*
X309600156Y-168775497D01*
X310303868Y-168775497D01*
X310303868Y-169976000D01*
G37*
G36*
X308758690Y-169769663D02*
G01*
X308758690Y-169976000D01*
X308547078Y-169976000D01*
X308547078Y-169769663D01*
X308758690Y-169769663D01*
G37*
G36*
X307058467Y-168919698D02*
G01*
X307106168Y-168884234D01*
X307160170Y-168854046D01*
X307220473Y-168829133D01*
X307278408Y-168811662D01*
X307287078Y-168809496D01*
X307348746Y-168796248D01*
X307411675Y-168786254D01*
X307475867Y-168779514D01*
X307541321Y-168776028D01*
X307579290Y-168775497D01*
X307646188Y-168776875D01*
X307709495Y-168781010D01*
X307769211Y-168787900D01*
X307843247Y-168801376D01*
X307910898Y-168819751D01*
X307972166Y-168843027D01*
X308027049Y-168871203D01*
X308075549Y-168904278D01*
X308107734Y-168932301D01*
X308154427Y-168984472D01*
X308193206Y-169042983D01*
X308224071Y-169107834D01*
X308243064Y-169164279D01*
X308256993Y-169224782D01*
X308265857Y-169289342D01*
X308269656Y-169357960D01*
X308269814Y-169375748D01*
X308267281Y-169445380D01*
X308259684Y-169510955D01*
X308247021Y-169572472D01*
X308229294Y-169629932D01*
X308200012Y-169696051D01*
X308162816Y-169755829D01*
X308117706Y-169809269D01*
X308107734Y-169819196D01*
X308052097Y-169864369D01*
X308000405Y-169894994D01*
X307942330Y-169920720D01*
X307877870Y-169941546D01*
X307807027Y-169957471D01*
X307729800Y-169968496D01*
X307667690Y-169973549D01*
X307601989Y-169975846D01*
X307579290Y-169976000D01*
X307513115Y-169974401D01*
X307448202Y-169969604D01*
X307384551Y-169961610D01*
X307322162Y-169950418D01*
X307287078Y-169942587D01*
X307228454Y-169925835D01*
X307167363Y-169901779D01*
X307112573Y-169872484D01*
X307064085Y-169837949D01*
X307058467Y-169833264D01*
X307015853Y-169788284D01*
X306988125Y-169747388D01*
X306984608Y-169742406D01*
X307117378Y-169616083D01*
X307125878Y-169631324D01*
X307132619Y-169646272D01*
X307169341Y-169696807D01*
X307220890Y-169737038D01*
X307279960Y-169764437D01*
X307302319Y-169771715D01*
X307365572Y-169787487D01*
X307424194Y-169797591D01*
X307485873Y-169804244D01*
X307550610Y-169807448D01*
X307579290Y-169807765D01*
X307648956Y-169806106D01*
X307712871Y-169801129D01*
X307771038Y-169792835D01*
X307831631Y-169778964D01*
X307884399Y-169760577D01*
X307942042Y-169730348D01*
X307989345Y-169692746D01*
X308029777Y-169642320D01*
X308042375Y-169619600D01*
X308064619Y-169562393D01*
X308078279Y-169504067D01*
X308086188Y-169438708D01*
X308088390Y-169375748D01*
X308086188Y-169312789D01*
X308078279Y-169247429D01*
X308064619Y-169189104D01*
X308042375Y-169131896D01*
X308007049Y-169077829D01*
X307964342Y-169036950D01*
X307911294Y-169003444D01*
X307884399Y-168990919D01*
X307823454Y-168970275D01*
X307761742Y-168957049D01*
X307702618Y-168949307D01*
X307637744Y-168944884D01*
X307579290Y-168943732D01*
X307513886Y-168945485D01*
X307451287Y-168950744D01*
X307391493Y-168959510D01*
X307326592Y-168973821D01*
X307303198Y-168980368D01*
X307246155Y-169001910D01*
X307193456Y-169034203D01*
X307149149Y-169080090D01*
X307132619Y-169106983D01*
X307125878Y-169122224D01*
X307117378Y-169139224D01*
X306984608Y-169011436D01*
X306988125Y-169006453D01*
X307022417Y-168956774D01*
X307058467Y-168919698D01*
G37*
G36*
X306155246Y-168776870D02*
G01*
X306218813Y-168780989D01*
X306278743Y-168787854D01*
X306352991Y-168801279D01*
X306420773Y-168819586D01*
X306482088Y-168842774D01*
X306536938Y-168870845D01*
X306596406Y-168912798D01*
X306617364Y-168931715D01*
X306663804Y-168983724D01*
X306702372Y-169042116D01*
X306733070Y-169106891D01*
X306751960Y-169163307D01*
X306765814Y-169223807D01*
X306774629Y-169288393D01*
X306778407Y-169357063D01*
X306778565Y-169374869D01*
X306776060Y-169444643D01*
X306768545Y-169510351D01*
X306756020Y-169571991D01*
X306738484Y-169629565D01*
X306709520Y-169695814D01*
X306672728Y-169755709D01*
X306628107Y-169809250D01*
X306618244Y-169819196D01*
X306562950Y-169864369D01*
X306511368Y-169894994D01*
X306453256Y-169920720D01*
X306388613Y-169941546D01*
X306317440Y-169957471D01*
X306239737Y-169968496D01*
X306177173Y-169973549D01*
X306110937Y-169975846D01*
X306088041Y-169976000D01*
X306020889Y-169974614D01*
X305957370Y-169970456D01*
X305897482Y-169963527D01*
X305823282Y-169949976D01*
X305755539Y-169931497D01*
X305694253Y-169908091D01*
X305639424Y-169879757D01*
X305591052Y-169846496D01*
X305559011Y-169818316D01*
X305512572Y-169765836D01*
X305474003Y-169707130D01*
X305443306Y-169642200D01*
X305424415Y-169585773D01*
X305410562Y-169525361D01*
X305401747Y-169460966D01*
X305397969Y-169392586D01*
X305397819Y-169375748D01*
X305579235Y-169375748D01*
X305581493Y-169437923D01*
X305589603Y-169502659D01*
X305603612Y-169560655D01*
X305626422Y-169617842D01*
X305662057Y-169672150D01*
X305704945Y-169713342D01*
X305758080Y-169747255D01*
X305784985Y-169759991D01*
X305845801Y-169780892D01*
X305907190Y-169794282D01*
X305965882Y-169802120D01*
X306030179Y-169806599D01*
X306088041Y-169807765D01*
X306157707Y-169806085D01*
X306221622Y-169801047D01*
X306279788Y-169792649D01*
X306340382Y-169778606D01*
X306393150Y-169759991D01*
X306450793Y-169729383D01*
X306498096Y-169691634D01*
X306538527Y-169641317D01*
X306551126Y-169618721D01*
X306573370Y-169561701D01*
X306587030Y-169503582D01*
X306594939Y-169438466D01*
X306597141Y-169375748D01*
X306594939Y-169313003D01*
X306587030Y-169247786D01*
X306573370Y-169189492D01*
X306551126Y-169132189D01*
X306515886Y-169077841D01*
X306473403Y-169036857D01*
X306420718Y-169003385D01*
X306394029Y-168990919D01*
X306333249Y-168970275D01*
X306271471Y-168957049D01*
X306212134Y-168949307D01*
X306146903Y-168944884D01*
X306088041Y-168943732D01*
X306029187Y-168944884D01*
X305963983Y-168949307D01*
X305904694Y-168957049D01*
X305842999Y-168970275D01*
X305782347Y-168990919D01*
X305725152Y-169021053D01*
X305678205Y-169058699D01*
X305638059Y-169109337D01*
X305625543Y-169132189D01*
X305603158Y-169189492D01*
X305589410Y-169247786D01*
X305581451Y-169313003D01*
X305579235Y-169375748D01*
X305397819Y-169375748D01*
X305397811Y-169374869D01*
X305400316Y-169304779D01*
X305407831Y-169238856D01*
X305420356Y-169177101D01*
X305437891Y-169119513D01*
X305466856Y-169053389D01*
X305503648Y-168993776D01*
X305548269Y-168940674D01*
X305558132Y-168930836D01*
X305613341Y-168886085D01*
X305664866Y-168855745D01*
X305722930Y-168830260D01*
X305787534Y-168809629D01*
X305858677Y-168793852D01*
X305936360Y-168782930D01*
X305998914Y-168777924D01*
X306065146Y-168775649D01*
X306088041Y-168775497D01*
X306155246Y-168776870D01*
G37*
G36*
X304511210Y-169795162D02*
G01*
X304388404Y-169795162D01*
X303971921Y-169150947D01*
X303971921Y-169976000D01*
X303793722Y-169976000D01*
X303793722Y-168775497D01*
X303938216Y-168775497D01*
X304450540Y-169566844D01*
X304969605Y-168775497D01*
X305120840Y-168775497D01*
X305120840Y-169976000D01*
X304939416Y-169976000D01*
X304939416Y-169150947D01*
X304511210Y-169795162D01*
G37*
G36*
X318675953Y-162604743D02*
G01*
X318058263Y-162604743D01*
X316710043Y-164911373D01*
X315382339Y-162604743D01*
X314785898Y-162604743D01*
X316525395Y-165646300D01*
X316890294Y-165633843D01*
X318675953Y-162604743D01*
G37*
G36*
X312809729Y-165615525D02*
G01*
X312956672Y-165614359D01*
X313108888Y-165608530D01*
X313262924Y-165594543D01*
X313415329Y-165568905D01*
X313562650Y-165528120D01*
X313701436Y-165468693D01*
X313828236Y-165387130D01*
X313939596Y-165279935D01*
X314018944Y-165155294D01*
X314071891Y-165018031D01*
X314082478Y-164977318D01*
X314094099Y-164827692D01*
X314094935Y-164725260D01*
X314094935Y-164527423D01*
X313557112Y-164527423D01*
X313557112Y-164763362D01*
X313552715Y-164872538D01*
X313481975Y-165000976D01*
X313347912Y-165076821D01*
X313300657Y-165090891D01*
X313153503Y-165112535D01*
X313086700Y-165115804D01*
X312937903Y-165120066D01*
X312876407Y-165120200D01*
X312322464Y-165120200D01*
X312169450Y-165118465D01*
X312013917Y-165108910D01*
X311964893Y-165103348D01*
X311814810Y-165065404D01*
X311687921Y-164981715D01*
X311639417Y-164838159D01*
X311637363Y-164750173D01*
X311637363Y-164691554D01*
X311670619Y-164537673D01*
X311781104Y-164426948D01*
X311876965Y-164388937D01*
X312022433Y-164367144D01*
X312129024Y-164359628D01*
X312389143Y-164359628D01*
X313645039Y-164359628D01*
X313645039Y-163851847D01*
X312322464Y-163851847D01*
X312169450Y-163849659D01*
X312013917Y-163837612D01*
X311964893Y-163830598D01*
X311814810Y-163797759D01*
X311687921Y-163717025D01*
X311639417Y-163571582D01*
X311637363Y-163481819D01*
X311637363Y-163423201D01*
X311666858Y-163273179D01*
X311776994Y-163160569D01*
X311855716Y-163129377D01*
X312002247Y-163101891D01*
X312087258Y-163095672D01*
X312233752Y-163090277D01*
X312330524Y-163091275D01*
X312905716Y-163091275D01*
X313052548Y-163093130D01*
X313103553Y-163095672D01*
X313254406Y-163112734D01*
X313309450Y-163124981D01*
X313452686Y-163186715D01*
X313543959Y-163306358D01*
X313552715Y-163338937D01*
X313561508Y-163486216D01*
X313557124Y-163636804D01*
X313557112Y-163641554D01*
X313557112Y-163683320D01*
X314094935Y-163683320D01*
X314094935Y-163418805D01*
X314077908Y-163229721D01*
X314029198Y-163071594D01*
X313952364Y-162941725D01*
X313812316Y-162807858D01*
X313683691Y-162733429D01*
X313538798Y-162678262D01*
X313381194Y-162639658D01*
X313214438Y-162614918D01*
X313042087Y-162601345D01*
X312867697Y-162596238D01*
X312809729Y-162595951D01*
X312376686Y-162595951D01*
X312193016Y-162597746D01*
X312039999Y-162604889D01*
X311885678Y-162621115D01*
X311733842Y-162650125D01*
X311588275Y-162695618D01*
X311452766Y-162761297D01*
X311331101Y-162850862D01*
X311251215Y-162935937D01*
X311168520Y-163064794D01*
X311117778Y-163211808D01*
X311098345Y-163365418D01*
X311095877Y-163473759D01*
X311103562Y-163622592D01*
X311130851Y-163769130D01*
X311184095Y-163909186D01*
X311269645Y-164038572D01*
X311335479Y-164106104D01*
X311232012Y-164219290D01*
X311154845Y-164361397D01*
X311113922Y-164512668D01*
X311098059Y-164671355D01*
X311095877Y-164788274D01*
X311108144Y-164949872D01*
X311150223Y-165103205D01*
X311220126Y-165233694D01*
X311251215Y-165275539D01*
X311358750Y-165385447D01*
X311483639Y-165468693D01*
X311621940Y-165528979D01*
X311769712Y-165570004D01*
X311923014Y-165595471D01*
X312077905Y-165609079D01*
X312230442Y-165614530D01*
X312376686Y-165615525D01*
X312809729Y-165615525D01*
G37*
G36*
X309781362Y-165606000D02*
G01*
X310399052Y-165606000D01*
X310399052Y-165018351D01*
X309781362Y-165018351D01*
X309781362Y-165606000D01*
G37*
G36*
X307536193Y-162605801D02*
G01*
X307683967Y-162614189D01*
X307829940Y-162629670D01*
X308020177Y-162663466D01*
X308203395Y-162714967D01*
X308377412Y-162787082D01*
X308540048Y-162882722D01*
X308689121Y-163004798D01*
X308790713Y-163115455D01*
X308832823Y-163170711D01*
X308921490Y-163315521D01*
X308988433Y-163467968D01*
X309036150Y-163625688D01*
X309067140Y-163786316D01*
X309083901Y-163947487D01*
X309088933Y-164106837D01*
X309088120Y-164170206D01*
X309078251Y-164330523D01*
X309055432Y-164491575D01*
X309017466Y-164650896D01*
X308962155Y-164806021D01*
X308887303Y-164954485D01*
X308790713Y-165093822D01*
X308689226Y-165205495D01*
X308540541Y-165328317D01*
X308378435Y-165424148D01*
X308204935Y-165496055D01*
X308022066Y-165547103D01*
X307831856Y-165580358D01*
X307685600Y-165595465D01*
X307537209Y-165603581D01*
X307387538Y-165606000D01*
X307236865Y-165603581D01*
X307087881Y-165595465D01*
X306941346Y-165580358D01*
X306751090Y-165547103D01*
X306568342Y-165496055D01*
X306394907Y-165424148D01*
X306232588Y-165328317D01*
X306083187Y-165205495D01*
X305980699Y-165093822D01*
X305939193Y-165038737D01*
X305851388Y-164894589D01*
X305784588Y-164743023D01*
X305736544Y-164586250D01*
X305705009Y-164426486D01*
X305687736Y-164265944D01*
X305682478Y-164106837D01*
X306223965Y-164106837D01*
X306226110Y-164203042D01*
X306242215Y-164369748D01*
X306278259Y-164530563D01*
X306339166Y-164681070D01*
X306429861Y-164816851D01*
X306472003Y-164861689D01*
X306593463Y-164953840D01*
X306733971Y-165020587D01*
X306888580Y-165065786D01*
X307052342Y-165093296D01*
X307220310Y-165106973D01*
X307387538Y-165110675D01*
X307453370Y-165110144D01*
X307620134Y-165102915D01*
X307786019Y-165084168D01*
X307946027Y-165050045D01*
X308095162Y-164996690D01*
X308228424Y-164920244D01*
X308340817Y-164816851D01*
X308398239Y-164741323D01*
X308473128Y-164596586D01*
X308520010Y-164439647D01*
X308544225Y-164274925D01*
X308551110Y-164106837D01*
X308546906Y-163971674D01*
X308524620Y-163790096D01*
X308482749Y-163632830D01*
X308395662Y-163458844D01*
X308271849Y-163323001D01*
X308110221Y-163222396D01*
X307963527Y-163168323D01*
X307794489Y-163131216D01*
X307602646Y-163109849D01*
X307387538Y-163102999D01*
X307321052Y-163103488D01*
X307152935Y-163110309D01*
X306986055Y-163128347D01*
X306825361Y-163161625D01*
X306675799Y-163214170D01*
X306542316Y-163290007D01*
X306429861Y-163393159D01*
X306374101Y-163469897D01*
X306301030Y-163616053D01*
X306254933Y-163773720D01*
X306230886Y-163938710D01*
X306223965Y-164106837D01*
X305682478Y-164106837D01*
X305683332Y-164043468D01*
X305693571Y-163883151D01*
X305716945Y-163722099D01*
X305755399Y-163562777D01*
X305810880Y-163407652D01*
X305885331Y-163259189D01*
X305980699Y-163119852D01*
X306083187Y-163007055D01*
X306232588Y-162883057D01*
X306394907Y-162786372D01*
X306568342Y-162713881D01*
X306751090Y-162662469D01*
X306941346Y-162629018D01*
X307087881Y-162613841D01*
X307236865Y-162605700D01*
X307387538Y-162603278D01*
X307536193Y-162605801D01*
G37*
D11*
G36*
X316108623Y-150544581D02*
G01*
X316256879Y-150544581D01*
X316256879Y-150944651D01*
X316258094Y-150995209D01*
X316261741Y-151045369D01*
X316267818Y-151095133D01*
X316276327Y-151144498D01*
X316282280Y-151172529D01*
X316297393Y-151224797D01*
X316317573Y-151269738D01*
X316346334Y-151311538D01*
X316373138Y-151337637D01*
X316414372Y-151365460D01*
X316460417Y-151386347D01*
X316469859Y-151389417D01*
X316517623Y-151399935D01*
X316568674Y-151404428D01*
X316590026Y-151404804D01*
X316639920Y-151402640D01*
X316691358Y-151394646D01*
X316711170Y-151389417D01*
X316757685Y-151370376D01*
X316801516Y-151342104D01*
X316807158Y-151337637D01*
X316844915Y-151298706D01*
X316871678Y-151254002D01*
X316889725Y-151206577D01*
X316898260Y-151173262D01*
X316907492Y-151124338D01*
X316914456Y-151074807D01*
X316919153Y-151024668D01*
X316921582Y-150973922D01*
X316921952Y-150944651D01*
X316921952Y-150544581D01*
X317071673Y-150544581D01*
X317071673Y-150945872D01*
X317070165Y-151007440D01*
X317065643Y-151066604D01*
X317058106Y-151123364D01*
X317047554Y-151177719D01*
X317033987Y-151229671D01*
X317017405Y-151279217D01*
X316997809Y-151326360D01*
X316975197Y-151371099D01*
X316948044Y-151411857D01*
X316905742Y-151455162D01*
X316865211Y-151483693D01*
X316818734Y-151506789D01*
X316766311Y-151524451D01*
X316707943Y-151536678D01*
X316643629Y-151543471D01*
X316591491Y-151545000D01*
X316542593Y-151543576D01*
X316485624Y-151537793D01*
X316433271Y-151527562D01*
X316385532Y-151512882D01*
X316334339Y-151489395D01*
X316289791Y-151459502D01*
X316283013Y-151453897D01*
X316245397Y-151418268D01*
X316212968Y-151379891D01*
X316185726Y-151338767D01*
X316163670Y-151294895D01*
X316146800Y-151248275D01*
X316142329Y-151232124D01*
X316130874Y-151182322D01*
X316121790Y-151130733D01*
X316115075Y-151077358D01*
X316110730Y-151022198D01*
X316108755Y-150965251D01*
X316108623Y-150945872D01*
X316108623Y-150544581D01*
G37*
G36*
X315448435Y-150544581D02*
G01*
X315498753Y-150545470D01*
X315557367Y-150549082D01*
X315611224Y-150555473D01*
X315660322Y-150564643D01*
X315712958Y-150579315D01*
X315758742Y-150597988D01*
X315765706Y-150601489D01*
X315808532Y-150631074D01*
X315840840Y-150670031D01*
X315862628Y-150718362D01*
X315872932Y-150767248D01*
X315875616Y-150813248D01*
X315875616Y-150887742D01*
X315724185Y-150887742D01*
X315724185Y-150880659D01*
X315725651Y-150821552D01*
X315718782Y-150770988D01*
X315692953Y-150728496D01*
X315667521Y-150711643D01*
X315620197Y-150696347D01*
X315570530Y-150688554D01*
X315518109Y-150685196D01*
X315488979Y-150684776D01*
X315305797Y-150684776D01*
X315247425Y-150686285D01*
X315196565Y-150690811D01*
X315145452Y-150700225D01*
X315094130Y-150719535D01*
X315062043Y-150746570D01*
X315043520Y-150793112D01*
X315041038Y-150825216D01*
X315048443Y-150875592D01*
X315062043Y-150900931D01*
X315103073Y-150929106D01*
X315152608Y-150948665D01*
X315197842Y-150962725D01*
X315245755Y-150974042D01*
X315298821Y-150986073D01*
X315325337Y-150992034D01*
X315385420Y-151004734D01*
X315438738Y-151017022D01*
X315487315Y-151029704D01*
X315537999Y-151045000D01*
X315588023Y-151063139D01*
X315615009Y-151074832D01*
X315666523Y-151100503D01*
X315711889Y-151128974D01*
X315751107Y-151160244D01*
X315789091Y-151200263D01*
X315818707Y-151244092D01*
X315841357Y-151291673D01*
X315858444Y-151342948D01*
X315869968Y-151397915D01*
X315875418Y-151447970D01*
X315876837Y-151491755D01*
X315876837Y-151545000D01*
X314880082Y-151545000D01*
X314880082Y-151404804D01*
X315721498Y-151404804D01*
X315707485Y-151352765D01*
X315684984Y-151307779D01*
X315653996Y-151269845D01*
X315614520Y-151238963D01*
X315566801Y-151212814D01*
X315518686Y-151192112D01*
X315464633Y-151173444D01*
X315413577Y-151159061D01*
X315377116Y-151150303D01*
X315287479Y-151130764D01*
X315237027Y-151120414D01*
X315188408Y-151109427D01*
X315140685Y-151096944D01*
X315126523Y-151092662D01*
X315079869Y-151077873D01*
X315032298Y-151057732D01*
X314986975Y-151030907D01*
X314947520Y-150995876D01*
X314940410Y-150987393D01*
X314913748Y-150942637D01*
X314896961Y-150892634D01*
X314890296Y-150843145D01*
X314889852Y-150825704D01*
X314893621Y-150771809D01*
X314904930Y-150724061D01*
X314927652Y-150676126D01*
X314960635Y-150636559D01*
X314997074Y-150609305D01*
X315048412Y-150584085D01*
X315099634Y-150567399D01*
X315147409Y-150556969D01*
X315199812Y-150549701D01*
X315256842Y-150545592D01*
X315305797Y-150544581D01*
X315448435Y-150544581D01*
G37*
D12*
%TO.C,U2*%
X309440034Y-150671645D02*
X309440034Y-149306645D01*
X309440034Y-151941645D02*
X309440034Y-153306645D01*
X309493034Y-149306645D02*
X309440034Y-149306645D01*
X309493034Y-153306645D02*
X309440034Y-153306645D01*
X310763034Y-149306645D02*
X310577034Y-149306645D01*
X310763034Y-153306645D02*
X310577034Y-153306645D01*
X312033034Y-149306645D02*
X311847034Y-149306645D01*
X312033034Y-153306645D02*
X311847034Y-153306645D01*
X313303034Y-149306645D02*
X313117034Y-149306645D01*
X313303034Y-153306645D02*
X313117034Y-153306645D01*
X314387034Y-149306645D02*
X314440034Y-149359645D01*
X314440034Y-149306645D02*
X314387034Y-149306645D01*
X314440034Y-149359645D02*
X314440034Y-153306645D01*
X314440034Y-153306645D02*
X314387034Y-153306645D01*
X309440034Y-150671645D02*
G75*
G02*
X309440534Y-151941645I500J-635000D01*
G01*
D10*
X309418034Y-148624145D02*
G75*
G02*
X309117034Y-148624145I-150500J0D01*
G01*
X309117034Y-148624145D02*
G75*
G02*
X309418034Y-148624145I150500J0D01*
G01*
X310185034Y-150036645D02*
G75*
G02*
X309885034Y-150036645I-150000J0D01*
G01*
X309885034Y-150036645D02*
G75*
G02*
X310185034Y-150036645I150000J0D01*
G01*
%TD*%
%LPC*%
D13*
%TO.C,J2*%
X293162292Y-154983815D03*
D14*
X294386000Y-158750000D03*
%TD*%
D15*
%TO.C,J1*%
X312166000Y-130302000D03*
D16*
X309626001Y-130302000D03*
X307086001Y-130302000D03*
%TD*%
D17*
%TO.C,J4*%
X331724000Y-150114000D03*
D18*
X331724000Y-148113999D03*
X331724000Y-146114000D03*
X331724000Y-144114000D03*
%TD*%
D19*
%TO.C,J5*%
X322376156Y-132608121D03*
D20*
X320496771Y-131924081D03*
X318617386Y-131240039D03*
X316738000Y-130556000D03*
%TD*%
D21*
%TO.C,H3*%
X298505005Y-137871616D03*
%TD*%
%TO.C,H4*%
X325375062Y-137871616D03*
%TD*%
%TO.C,H2*%
X325375062Y-164741673D03*
%TD*%
%TO.C,H1*%
X298505005Y-164741673D03*
%TD*%
D15*
%TO.C,J3*%
X294640000Y-145796000D03*
D16*
X292100000Y-145796000D03*
X294640000Y-143256000D03*
X292100000Y-143256000D03*
%TD*%
D22*
%TO.C,U2*%
X310035034Y-148624145D03*
X311305034Y-148624145D03*
X312575034Y-148624145D03*
X313845034Y-148624145D03*
X313845034Y-153989145D03*
X312575034Y-153989145D03*
X311305034Y-153989145D03*
X310035034Y-153989145D03*
%TD*%
%LPD*%
M02*
